<?xml version="1.0" standalone="no"?>
<!DOCTYPE svg PUBLIC "-//W3C//DTD SVG 1.1//EN" "http://www.w3.org/Graphics/SVG/1.1/DTD/svg11.dtd" >
<svg xmlns="http://www.w3.org/2000/svg" xmlns:xlink="http://www.w3.org/1999/xlink" version="1.1">
<metadata>
Created by FontForge 20161003 at Tue Feb 12 10:34:40 2019
 By www-data
Copyright (c) 2014 Commercial Type. Druk is a registered trademark of Commercial Type/Schwartzco Inc. All rights reserved. [wfr]
</metadata>
<defs>
<font id="Druk-SuperItalic" horiz-adv-x="342" >
  <font-face 
    font-family="Druk Super"
    font-weight="950"
    font-style="italic"
    font-stretch="condensed"
    units-per-em="1000"
    panose-1="0 0 0 0 0 0 0 0 0 0"
    ascent="800"
    descent="-200"
    x-height="538"
    cap-height="744"
    bbox="-113 -227 1317 1078"
    underline-thickness="50"
    underline-position="-100"
    slope="-10"
    unicode-range="U+000D-FB02"
  />
<missing-glyph horiz-adv-x="492" 
d="M0 690h492v-690h-492v690zM443 94v503l-168 -252zM49 597v-503l168 251zM246 389l168 252h-335zM246 301l-167 -252h334z" />
    <glyph glyph-name="fi" unicode="fi" horiz-adv-x="533" 
d="M387 744l-24 -146h-38c-13 0 -16 -3 -19 -18l-7 -42h55l-24 -153h-55l-61 -385h-190l61 385h-60l25 153h60l16 103c11 72 52 103 108 103h153zM563 538l-86 -538h-190l86 538h190zM591 715l-25 -157h-190l25 157h190z" />
    <glyph glyph-name="fl" unicode="fl" horiz-adv-x="533" 
d="M387 744l-24 -146h-38c-13 0 -16 -3 -19 -18l-7 -42h55l-24 -153h-55l-61 -385h-190l61 385h-60l25 153h60l16 103c11 72 52 103 108 103h153zM595 744l-118 -744h-190l118 744h190z" />
    <glyph glyph-name="f_f" unicode="ff" horiz-adv-x="586" 
d="M110 538l16 103c11 72 52 103 108 103h153l-24 -146h-38c-13 0 -16 -3 -19 -18l-7 -42h73l16 103c12 72 52 103 108 103h156l-24 -146h-40c-15 0 -17 -3 -20 -18l-7 -42h59l-25 -153h-58l-61 -385h-190l61 385h-72l-61 -385h-190l61 385h-60l25 153h60z" />
    <glyph glyph-name=".notdef" horiz-adv-x="492" 
d="M0 690h492v-690h-492v690zM443 94v503l-168 -252zM49 597v-503l168 251zM246 389l168 252h-335zM246 301l-167 -252h334z" />
    <glyph glyph-name="NULL" horiz-adv-x="0" 
 />
    <glyph glyph-name="NULL" horiz-adv-x="0" 
 />
    <glyph glyph-name="CR" unicode="&#xd;" horiz-adv-x="113" 
 />
    <glyph glyph-name="space" unicode=" " horiz-adv-x="113" 
 />
    <glyph glyph-name="exclam" unicode="!" horiz-adv-x="214" 
d="M174 180l-28 -180h-162l28 180h162zM80 744h205l-134 -538h-106z" />
    <glyph glyph-name="quotedbl" unicode="&#x22;" horiz-adv-x="278" 
d="M206 744l-37 -229h-119l36 229h120zM341 744l-35 -229h-120l36 229h119z" />
    <glyph glyph-name="numbersign" unicode="#" horiz-adv-x="396" 
d="M48 432l26 116h51l44 196h110l-45 -196h35l44 196h109l-45 -196h55l-27 -116h-54l-19 -86h55l-27 -116h-54l-52 -230h-108l51 230h-34l-52 -230h-108l51 230h-52l26 116h52l19 86h-51zM189 346h34l20 86h-35z" />
    <glyph glyph-name="dollar" unicode="$" horiz-adv-x="450" 
d="M155 -75l10 65c-129 5 -186 69 -169 174l17 106h177l-15 -94c-4 -23 0 -37 12 -44l25 157l-63 53c-67 56 -104 111 -88 215l4 31c16 104 75 167 206 167h15l9 57h32l-9 -58c121 -3 177 -52 161 -165l-11 -75h-170l10 66c4 25 0 39 -11 44l-22 -140l70 -57
c67 -57 105 -117 92 -216l-6 -38c-17 -111 -87 -184 -218 -184h-16l-10 -64h-32zM246 175l5 32c5 32 4 43 -11 58l-21 -134c14 4 23 19 27 44zM240 584l-4 -26c-3 -23 -1 -35 11 -50l18 117c-15 -4 -21 -16 -25 -41z" />
    <glyph glyph-name="percent" unicode="%" horiz-adv-x="600" 
d="M183 400h-17c-85 0 -126 48 -113 132l14 91c15 85 54 130 133 130h21c88 0 127 -50 114 -130l-15 -91c-15 -85 -60 -132 -137 -132zM192 504l23 146c1 7 0 14 -8 14c-9 0 -12 -7 -13 -14l-23 -146c-1 -7 1 -14 10 -14c6 0 10 5 11 14zM298 124l14 91
c15 84 53 130 133 130h20c88 0 127 -50 114 -130l-14 -91c-15 -84 -59 -132 -138 -132h-17c-84 0 -125 48 -112 132zM437 97l23 146c1 7 0 14 -9 14s-11 -7 -12 -14l-23 -146c-1 -8 0 -15 9 -15c7 0 11 5 12 15zM476 744h108l-429 -744h-108z" />
    <glyph glyph-name="ampersand" unicode="&#x26;" horiz-adv-x="544" 
d="M-3 200l4 25c16 99 71 148 149 191c-23 64 -39 112 -28 172l4 26c11 72 52 141 175 141h26c126 0 158 -66 147 -142l-3 -19c-16 -93 -68 -134 -152 -177l49 -154c12 51 20 111 25 183h151c-11 -148 -49 -240 -89 -308c19 -7 41 -8 65 -9l-51 -140c-75 0 -120 13 -149 32
c-28 -17 -65 -31 -120 -31h-1c-141 0 -223 72 -202 210zM239 129c5 0 11 0 16 1l-66 182c-11 -29 -20 -63 -20 -98v-3c0 -49 22 -82 70 -82zM288 612l-5 -31c-5 -31 0 -46 8 -77c15 16 20 32 27 63l7 48c2 17 -3 25 -16 25c-15 0 -18 -12 -21 -28z" />
    <glyph glyph-name="quotesingle" unicode="'" horiz-adv-x="144" 
d="M208 744l-37 -229h-121l36 229h122z" />
    <glyph glyph-name="parenleft" unicode="(" horiz-adv-x="232" 
d="M177 -131h-107c-16 39 -58 154 -58 298c0 291 106 500 202 641h108c-67 -136 -159 -434 -159 -702c0 -102 9 -194 14 -237z" />
    <glyph glyph-name="parenright" unicode=")" horiz-adv-x="232" 
d="M39 -131h-108c67 136 159 435 159 702c0 103 -10 194 -14 237h107c16 -36 58 -155 58 -298c0 -291 -106 -497 -202 -641z" />
    <glyph glyph-name="asterisk" unicode="*" horiz-adv-x="270" 
d="M230 676l62 43l31 -78l-76 -17l70 -24l-49 -78l-50 44l3 -69h-94l24 69l-63 -38l-28 79l74 17l-70 23l54 79l44 -50l-2 68h94z" />
    <glyph glyph-name="plus" unicode="+" horiz-adv-x="346" 
d="M93 136l17 114h-99l16 106h100l18 114h117l-18 -114h101l-16 -106h-102l-17 -114h-117z" />
    <glyph glyph-name="comma" unicode="," horiz-adv-x="186" 
d="M81 -106h-91c14 30 35 77 43 106h-64l29 180h162l-22 -136c-11 -63 -38 -118 -57 -150z" />
    <glyph glyph-name="hyphen" unicode="-" horiz-adv-x="218" 
d="M33 386h190l-28 -174h-190z" />
    <glyph glyph-name="period" unicode="." horiz-adv-x="186" 
d="M160 180l-29 -180h-162l29 180h162z" />
    <glyph glyph-name="slash" unicode="/" horiz-adv-x="255" 
d="M340 808l-288 -939h-126l288 939h126z" />
    <glyph glyph-name="zero" unicode="0" horiz-adv-x="469" 
d="M496 523l-50 -316c-23 -137 -97 -218 -222 -218h-33c-131 0 -210 81 -186 228l48 306c24 141 79 232 223 232h33c145 0 210 -89 187 -232zM241 194l57 357c3 20 -2 30 -17 30s-19 -11 -22 -30l-57 -358c-3 -19 2 -28 16 -28c15 0 20 10 23 29z" />
    <glyph glyph-name="one" unicode="1" horiz-adv-x="296" 
d="M124 495h-80l26 164c72 0 105 32 120 85h165l-118 -744h-190z" />
    <glyph glyph-name="two" unicode="2" horiz-adv-x="432" 
d="M257 603c-13 0 -16 -7 -19 -22l-13 -86h-174l16 103c13 85 59 156 186 156h39c133 0 193 -66 176 -174l-5 -32c-14 -76 -23 -112 -91 -178c-28 -27 -53 -48 -84 -75c-118 -105 -122 -114 -125 -137h75l13 88h167l-39 -246h-412l20 128c11 72 25 116 138 237l80 82
c47 50 58 71 63 100l5 33c2 15 -3 23 -16 23z" />
    <glyph glyph-name="three" unicode="3" horiz-adv-x="431" 
d="M227 501h-174l15 94c16 91 61 159 187 159h29c129 0 193 -55 176 -163l-9 -57c-10 -68 -46 -92 -70 -103c26 -13 57 -48 46 -118l-24 -151c-16 -100 -82 -173 -203 -173h-31c-144 0 -191 83 -175 186l16 104h183l-14 -93c-3 -15 -1 -26 15 -26c13 0 17 7 20 26l15 99
c3 15 0 19 -13 19h-89l26 171h83c13 0 21 6 23 19l13 82c3 17 -2 25 -14 25c-15 0 -16 -8 -19 -25z" />
    <glyph glyph-name="four" unicode="4" horiz-adv-x="427" 
d="M-12 136l25 154c56 115 157 320 227 459h186l-69 -432h68l-28 -181h-68l-22 -136h-186l22 136h-155zM171 317l24 147c-5 -10 -50 -109 -69 -147h45z" />
    <glyph glyph-name="five" unicode="5" horiz-adv-x="432" 
d="M202 326h-178l66 418h385l-27 -166h-210l-17 -104c16 22 61 64 122 64h6c75 0 104 -60 93 -132l-39 -246c-16 -97 -77 -171 -198 -171h-38c-139 0 -188 79 -172 183l16 102h182l-15 -95c-3 -15 0 -24 13 -24s16 6 19 21l30 192c2 13 -3 20 -14 20c-9 0 -15 -6 -17 -18z
" />
    <glyph glyph-name="six" unicode="6" horiz-adv-x="462" 
d="M215 155c15 0 19 9 22 24l22 136c3 19 -3 29 -18 29s-19 -10 -22 -29l-22 -135c-3 -15 2 -25 18 -25zM363 489h5c72 0 110 -54 97 -134l-28 -176c-16 -110 -95 -190 -215 -190h-38c-135 0 -204 76 -184 196l61 384c16 100 74 184 214 184h27c144 0 199 -79 183 -184
l-10 -61h-194l11 64c2 13 -3 20 -14 20c-9 0 -15 -7 -18 -22l-23 -148c19 24 62 67 126 67z" />
    <glyph glyph-name="seven" unicode="7" horiz-adv-x="401" 
d="M86 744h381l-23 -144c-17 -47 -50 -138 -89 -253c-32 -97 -53 -173 -65 -248l-16 -99h-228l13 83c10 70 30 143 99 262c104 179 121 210 126 239h-59l-14 -91h-165z" />
    <glyph glyph-name="eight" unicode="8" horiz-adv-x="456" 
d="M232 180l19 119c3 15 -1 26 -16 26s-19 -9 -22 -26l-19 -119c-2 -16 3 -24 16 -24s20 8 22 24zM280 481l15 93c3 17 -3 25 -16 25s-19 -6 -22 -25l-15 -92c-2 -16 4 -24 17 -24c12 0 19 8 21 23zM488 582l-11 -69c-11 -64 -40 -95 -77 -112c29 -16 58 -54 49 -117
l-17 -107c-20 -125 -93 -188 -218 -188h-30c-141 0 -208 69 -189 190l17 106c9 59 36 92 83 116c-27 19 -47 55 -38 116l10 65c16 95 65 171 207 171h29c143 0 201 -73 185 -171z" />
    <glyph glyph-name="nine" unicode="9" horiz-adv-x="463" 
d="M135 253h-5c-77 0 -113 58 -100 138l28 175c16 105 77 187 208 187h39c139 0 210 -78 191 -190l-62 -392c-16 -96 -72 -182 -213 -182h-28c-146 0 -200 82 -184 180l10 65h194l-9 -60c-3 -16 2 -24 13 -24c10 0 16 7 18 22l24 148c-16 -22 -61 -67 -124 -67zM280 587
c-16 0 -20 -11 -23 -26l-22 -134c-3 -19 3 -29 18 -29s20 12 23 29l22 134c3 15 -2 26 -18 26z" />
    <glyph glyph-name="colon" unicode=":" horiz-adv-x="192" 
d="M163 180l-29 -180h-162l29 180h162zM210 475l-29 -180h-162l29 180h162z" />
    <glyph glyph-name="semicolon" unicode=";" horiz-adv-x="192" 
d="M85 -106h-92c14 30 35 77 43 106h-64l29 180h162l-21 -136c-11 -63 -40 -118 -57 -150zM210 475l-29 -180h-162l29 180h162z" />
    <glyph glyph-name="less" unicode="&#x3c;" horiz-adv-x="300" 
d="M28 358l288 109l-20 -122l-143 -41l131 -43l-20 -123l-254 110z" />
    <glyph glyph-name="equal" unicode="=" horiz-adv-x="343" 
d="M20 295h311l-17 -103h-311zM39 414h311l-16 -103h-311z" />
    <glyph glyph-name="greater" unicode="&#x3e;" horiz-adv-x="300" 
d="M282 248l-287 -110l20 128l144 41l-131 40l19 120l254 -109z" />
    <glyph glyph-name="question" unicode="?" horiz-adv-x="413" 
d="M247 206h-140l13 78c8 42 14 65 44 103l72 87c15 19 18 31 22 58l8 50c3 19 -2 29 -15 29c-15 0 -17 -10 -20 -27l-17 -108h-171l18 112c13 80 45 165 183 165h42c137 0 182 -70 169 -167l-7 -46c-11 -64 -24 -100 -66 -142l-97 -97c-23 -23 -28 -35 -33 -64zM254 180
l-28 -180h-162l28 180h162z" />
    <glyph glyph-name="at" unicode="@" horiz-adv-x="699" 
d="M506 20l54 -69c-40 -43 -123 -96 -243 -96h-1c-149 0 -359 58 -307 391l15 94c40 245 158 393 386 393h2c213 0 331 -98 296 -324l-12 -76c-37 -230 -101 -295 -212 -295h-15c-72 0 -111 37 -123 69c-21 -31 -64 -69 -110 -69h-4c-64 0 -107 60 -91 136l53 251
c16 76 55 117 104 117h6c53 0 85 -30 105 -63l12 59h172l-82 -380c-3 -15 -2 -27 11 -27c27 0 51 71 71 202l12 76c29 181 -48 236 -192 236h-1c-156 0 -248 -97 -281 -306l-15 -94c-44 -273 109 -301 200 -301h1c92 0 160 47 189 76zM341 168l52 240c4 19 -1 24 -12 24
s-13 -8 -16 -24l-51 -239c-3 -13 0 -20 11 -20c7 0 13 6 16 19z" />
    <glyph glyph-name="A" unicode="A" horiz-adv-x="438" 
d="M210 0l5 92h-71l-23 -92h-168l212 744h245l-12 -744h-188zM185 259h39l10 195z" />
    <glyph glyph-name="B" unicode="B" horiz-adv-x="465" 
d="M-28 0l118 744h281c80 0 137 -48 121 -148l-10 -60c-13 -88 -69 -115 -95 -123c29 -11 83 -47 70 -138l-15 -98c-19 -120 -63 -177 -160 -177h-310zM235 322h-18l-28 -175h23c19 0 23 9 26 30l18 114c3 21 -4 31 -21 31zM276 602h-15l-22 -141h17c15 0 23 10 26 30l13 83
c3 19 0 28 -19 28z" />
    <glyph glyph-name="C" unicode="C" horiz-adv-x="457" 
d="M241 190l21 131h191l-22 -139c-16 -95 -65 -193 -206 -193h-32c-155 0 -212 86 -189 225l53 333c21 131 79 208 224 208h32c140 0 195 -79 179 -187l-18 -114h-191l17 108c3 19 2 30 -17 30c-15 0 -19 -10 -22 -30l-60 -376c-3 -19 2 -29 17 -29c16 0 19 14 23 33z" />
    <glyph glyph-name="D" unicode="D" horiz-adv-x="462" 
d="M-28 0l118 744h269c90 0 156 -53 137 -178l-61 -385c-20 -129 -79 -181 -162 -181h-301zM258 585l-67 -422h19c19 0 25 10 29 37l56 350c3 21 0 35 -19 35h-18z" />
    <glyph glyph-name="E" unicode="E" horiz-adv-x="367" 
d="M90 744h337l-28 -179h-143l-14 -89h118l-29 -183h-119l-18 -112h149l-29 -181h-342z" />
    <glyph glyph-name="F" unicode="F" horiz-adv-x="360" 
d="M90 744h335l-28 -179h-141l-14 -89h114l-30 -183h-114l-46 -293h-194z" />
    <glyph glyph-name="G" unicode="G" horiz-adv-x="470" 
d="M140 -11h-7c-104 0 -151 86 -132 205l56 355c19 112 66 206 224 206h28c153 0 201 -97 185 -191l-14 -85h-187l13 83c3 20 0 32 -19 32s-24 -11 -27 -30l-60 -382c-4 -25 3 -37 22 -37s30 12 34 35l19 117h-43l24 148h229l-71 -445h-132c0 14 -5 56 -8 66
c-24 -35 -73 -77 -134 -77z" />
    <glyph glyph-name="H" unicode="H" horiz-adv-x="461" 
d="M211 285l-45 -285h-194l118 744h194l-41 -254h43l41 254h194l-118 -744h-194l45 285h-43z" />
    <glyph glyph-name="I" unicode="I" horiz-adv-x="224" 
d="M284 744l-118 -744h-194l118 744h194z" />
    <glyph glyph-name="J" unicode="J" horiz-adv-x="435" 
d="M21 338h178l-27 -164c-2 -13 3 -19 15 -19c10 0 16 7 18 20l91 569h199l-92 -580c-16 -100 -63 -175 -186 -175h-68c-132 0 -172 77 -156 173z" />
    <glyph glyph-name="K" unicode="K" horiz-adv-x="466" 
d="M245 501l104 243h194l-146 -342l30 -402h-203l-15 274l-43 -274h-194l118 744h194z" />
    <glyph glyph-name="L" unicode="L" horiz-adv-x="345" 
d="M90 744h194l-89 -559h126l-29 -185h-320z" />
    <glyph glyph-name="M" unicode="M" horiz-adv-x="536" 
d="M-28 0l118 744h220l-16 -317l80 317h222l-117 -744h-164l59 370l-115 -370h-68l1 370l-59 -370h-161z" />
    <glyph glyph-name="N" unicode="N" horiz-adv-x="461" 
d="M90 744h192l21 -345l55 345h163l-118 -744h-175l-31 374l-60 -374h-165z" />
    <glyph glyph-name="O" unicode="O" horiz-adv-x="475" 
d="M284 581c-17 0 -22 -11 -26 -34l-56 -352c-3 -19 3 -29 20 -29c15 0 23 9 26 28l56 353c3 23 -3 34 -20 34zM279 755h32c148 0 212 -91 191 -232l-49 -310c-23 -145 -96 -224 -224 -224h-33c-143 0 -214 80 -191 229l48 305c24 144 78 232 226 232z" />
    <glyph glyph-name="P" unicode="P" horiz-adv-x="449" 
d="M315 275h-106l-43 -275h-194l118 744h273c81 0 142 -45 126 -154l-24 -158c-16 -108 -71 -157 -150 -157zM261 597l-26 -168h15c15 0 22 6 26 30l17 109c3 19 2 29 -17 29h-15z" />
    <glyph glyph-name="Q" unicode="Q" horiz-adv-x="475" 
d="M279 755h32c148 0 212 -91 191 -232l-50 -310c-20 -129 -77 -203 -177 -220l36 -148h-206l24 152c-96 23 -144 98 -125 215l49 311c24 144 78 232 226 232zM284 581c-17 0 -23 -11 -26 -34l-56 -352c-3 -19 3 -29 20 -29c15 0 23 9 26 28l56 353c3 23 -3 34 -20 34z" />
    <glyph glyph-name="R" unicode="R" horiz-adv-x="456" 
d="M212 290l-46 -290h-194l118 744h290c65 0 129 -44 113 -139l-12 -74c-12 -76 -46 -112 -89 -128c32 -16 61 -53 52 -117l-36 -227c-4 -27 -2 -42 2 -54l-1 -5h-191c-7 8 -11 26 -7 54l33 209c3 16 1 27 -18 27h-14zM261 602l-24 -152h19c13 0 20 9 22 26l16 99
c3 19 -1 27 -17 27h-16z" />
    <glyph glyph-name="S" unicode="S" horiz-adv-x="457" 
d="M219 -11h-47c-128 0 -198 67 -179 186l14 92h190l-13 -85c-4 -20 2 -33 18 -33s20 10 24 33l4 25c7 37 -2 50 -30 79l-59 62c-72 76 -92 140 -81 211l5 32c16 101 75 164 207 164h45c141 0 187 -74 173 -158l-13 -76h-184l10 65c2 16 -4 24 -18 24c-15 0 -19 -7 -22 -26
l-3 -19c-4 -23 2 -37 23 -60l61 -62c85 -88 108 -147 97 -224l-6 -38c-19 -120 -76 -192 -216 -192z" />
    <glyph glyph-name="T" unicode="T" horiz-adv-x="390" 
d="M86 744h369l-28 -179h-89l-89 -565h-193l89 565h-88z" />
    <glyph glyph-name="U" unicode="U" horiz-adv-x="475" 
d="M3 193l87 551h201l-85 -540c-3 -20 2 -30 17 -30c13 0 22 10 25 30l84 540h203l-87 -551c-19 -112 -81 -206 -223 -206h-30c-149 0 -211 86 -192 206z" />
    <glyph glyph-name="V" unicode="V" horiz-adv-x="468" 
d="M72 0l-1 744h202l-25 -426l106 426h193l-214 -744h-261z" />
    <glyph glyph-name="W" unicode="W" horiz-adv-x="669" 
d="M323 744h179l-25 -433l81 433h190l-197 -744h-216l22 367l-71 -367h-227l12 744h195l-34 -429z" />
    <glyph glyph-name="X" unicode="X" horiz-adv-x="448" 
d="M96 397l-22 347h192l-2 -212l58 212h192l-125 -347l21 -397h-191l1 243l-74 -243h-194z" />
    <glyph glyph-name="Y" unicode="Y" horiz-adv-x="423" 
d="M504 744l-192 -475l-41 -269h-195l43 268l-51 476h189l-1 -226l70 226h178z" />
    <glyph glyph-name="Z" unicode="Z" horiz-adv-x="394" 
d="M90 744h363l-27 -163l-214 -401h157l-28 -180h-374l25 163l221 403h-151z" />
    <glyph glyph-name="bracketleft" unicode="[" horiz-adv-x="222" 
d="M300 808l-20 -130h-54l-108 -681h54l-21 -130h-201l149 941h201z" />
    <glyph glyph-name="backslash" unicode="\" horiz-adv-x="255" 
d="M91 -131l-12 939h119l12 -939h-119z" />
    <glyph glyph-name="bracketright" unicode="]" horiz-adv-x="222" 
d="M-58 -133l21 130h53l108 681h-53l20 130h201l-149 -941h-201z" />
    <glyph glyph-name="asciicircum" unicode="^" horiz-adv-x="293" 
d="M305 744l9 -325h-121l6 181l-45 -181h-128l105 325h174z" />
    <glyph glyph-name="underscore" unicode="_" horiz-adv-x="423" 
d="M-61 -141l19 120h415l-19 -120h-415z" />
    <glyph glyph-name="grave" unicode="`" 
d="M287 715l25 -157h-137l-30 157h142z" />
    <glyph glyph-name="a" unicode="a" horiz-adv-x="429" 
d="M-16 111l13 82c11 65 30 98 91 125c32 16 118 41 135 49c11 4 11 6 14 19l3 20c3 15 1 25 -14 25h-2c-13 0 -15 -9 -18 -24l-7 -40h-169l7 41c11 72 44 142 184 142h21c149 0 193 -56 180 -144l-39 -246c-1 -7 2 -11 9 -11h15l-24 -149h-159c-28 0 -42 25 -37 61
c-16 -29 -60 -69 -116 -69h-3c-64 0 -95 50 -84 119zM180 118c10 0 16 7 18 21l18 113c-7 -3 -17 -8 -24 -15c-8 -7 -13 -17 -15 -30l-11 -69c-2 -13 3 -20 14 -20z" />
    <glyph glyph-name="b" unicode="b" horiz-adv-x="442" 
d="M88 744h190l-44 -275c26 34 68 73 124 73h7c67 0 98 -59 87 -133l-44 -277c-11 -69 -54 -143 -126 -143h-3c-56 0 -91 28 -124 81c-7 -19 -13 -51 -16 -70h-169zM221 386l-38 -240c-3 -13 -2 -26 15 -26c15 0 17 12 20 25l38 240c3 12 0 24 -15 24s-17 -11 -20 -23z" />
    <glyph glyph-name="c" unicode="c" horiz-adv-x="409" 
d="M225 242h170l-15 -94c-15 -95 -71 -161 -184 -161h-34c-111 0 -187 55 -166 187l31 196c16 101 60 181 194 181h37c129 0 175 -67 159 -168l-10 -63h-170l13 81c2 13 -2 20 -12 20c-9 0 -14 -6 -16 -17l-41 -259c-3 -12 1 -21 12 -21c9 0 14 6 16 18z" />
    <glyph glyph-name="d" unicode="d" horiz-adv-x="446" 
d="M319 744h189l-118 -744h-189l10 60c-24 -32 -67 -71 -119 -71h-5c-71 0 -110 66 -97 142l44 277c12 79 53 136 117 136h6c62 0 90 -35 119 -72zM224 149l37 231c3 12 1 27 -16 27c-15 0 -18 -11 -21 -27l-37 -231c-3 -15 -1 -28 15 -28s19 13 22 28z" />
    <glyph glyph-name="e" unicode="e" horiz-adv-x="421" 
d="M225 551h38c107 0 184 -57 163 -189l-18 -113h-215l-17 -108c-3 -17 2 -26 14 -26c15 0 19 9 22 28l11 70h179l-7 -44c-19 -113 -70 -182 -193 -182h-38c-125 0 -187 66 -168 187l30 189c19 120 74 188 199 188zM218 406l-9 -55h35l9 57c3 19 1 29 -15 29
c-15 0 -17 -12 -20 -31z" />
    <glyph glyph-name="f" unicode="f" horiz-adv-x="324" 
d="M390 744l-24 -146h-41c-13 0 -16 -3 -19 -18l-7 -42h58l-24 -153h-58l-61 -385h-190l61 385h-60l25 153h60l16 103c11 72 52 103 108 103h156z" />
    <glyph glyph-name="g" unicode="g" horiz-adv-x="443" 
d="M191 -44l17 104c-21 -26 -58 -69 -118 -69c-64 0 -115 54 -99 145l44 276c11 66 44 132 117 132h6c61 0 92 -42 116 -71l10 65h188l-91 -577c-16 -100 -80 -157 -199 -157h-46c-127 0 -179 56 -167 133l7 45h185l-4 -26c-2 -14 3 -21 14 -21h2c12 0 15 8 18 21zM219 141
l39 242c3 15 -1 25 -16 25s-16 -10 -19 -21l-39 -244c-3 -15 1 -26 17 -26c13 0 15 11 18 24z" />
    <glyph glyph-name="h" unicode="h" horiz-adv-x="446" 
d="M-30 0l118 744h190l-44 -274c23 31 65 76 127 76h8c77 0 96 -68 88 -121l-67 -425h-192l59 375c3 15 -1 26 -17 26s-18 -12 -21 -27l-59 -374h-190z" />
    <glyph glyph-name="i" unicode="i" horiz-adv-x="216" 
d="M246 538l-86 -538h-190l86 538h190zM274 715l-25 -157h-190l25 157h190z" />
    <glyph glyph-name="j" unicode="j" horiz-adv-x="216" 
d="M-87 -24h36c15 0 17 6 20 18l87 544h190l-102 -638c-9 -56 -45 -88 -90 -88h-167zM274 715l-25 -157h-190l25 157h190z" />
    <glyph glyph-name="k" unicode="k" horiz-adv-x="429" 
d="M219 377l71 161h176l-104 -222l28 -316h-182l-16 203l-32 -203h-190l118 744h190z" />
    <glyph glyph-name="l" unicode="l" horiz-adv-x="216" 
d="M278 744l-118 -744h-190l118 744h190z" />
    <glyph glyph-name="m" unicode="m" horiz-adv-x="668" 
d="M583 546h7c78 0 97 -72 89 -124l-67 -422h-192l60 378c2 15 -3 22 -14 22c-15 0 -17 -9 -20 -22l-60 -378h-192l60 378c2 15 -3 22 -14 22c-15 0 -17 -9 -20 -22l-60 -378h-190l86 538h188l-12 -71c22 33 62 79 121 79h7c59 0 84 -41 92 -80c26 37 72 80 131 80z" />
    <glyph glyph-name="n" unicode="n" horiz-adv-x="446" 
d="M-30 0l86 538h188l-12 -71c27 35 67 79 129 79h8c79 0 96 -67 88 -123l-67 -423h-192l59 372c3 19 -2 29 -17 29s-18 -10 -21 -29l-59 -372h-190z" />
    <glyph glyph-name="o" unicode="o" horiz-adv-x="442" 
d="M211 -13h-32c-135 0 -200 75 -179 208l24 151c23 139 83 205 208 205h31c135 0 200 -72 179 -205l-24 -151c-21 -132 -83 -208 -207 -208zM242 410c-17 0 -20 -12 -23 -31l-34 -215c-3 -19 0 -33 16 -33c15 0 19 13 22 32l34 215c3 19 2 32 -15 32z" />
    <glyph glyph-name="p" unicode="p" horiz-adv-x="444" 
d="M56 538h188l-12 -73c36 49 79 81 126 81h6c72 0 103 -57 88 -146l-43 -274c-13 -83 -62 -137 -127 -137h-3c-47 0 -84 22 -110 66l-39 -243h-190zM221 387l-39 -242c-3 -15 0 -27 15 -27s18 12 21 27l38 242c3 15 -1 26 -14 26c-15 0 -18 -11 -21 -26z" />
    <glyph glyph-name="q" unicode="q" horiz-adv-x="443" 
d="M324 538h148l-115 -726h-189l40 248c-35 -45 -74 -71 -117 -71h-5c-64 0 -110 60 -94 155l40 249c15 96 60 154 136 154h7c68 0 99 -45 123 -82c8 14 21 53 26 73zM221 144l39 247c3 15 -1 26 -16 26s-17 -10 -20 -25l-40 -248c-3 -15 1 -27 16 -27c12 0 17 7 21 27z" />
    <glyph glyph-name="r" unicode="r" horiz-adv-x="404" 
d="M244 538l-11 -71c16 27 59 75 110 75h12c52 0 76 -38 67 -91l-29 -184h-166l19 120c2 13 -2 19 -11 19c-7 0 -12 -6 -14 -17l-61 -389h-190l86 538h188z" />
    <glyph glyph-name="s" unicode="s" horiz-adv-x="394" 
d="M177 -13h-40c-102 0 -169 47 -153 147l8 52h167l-9 -53c-3 -15 4 -22 15 -22h1c11 0 17 8 19 23l3 19c3 21 -6 29 -21 41l-58 42c-68 49 -88 102 -79 166l3 20c16 98 86 129 176 129h40c95 0 167 -31 151 -129l-7 -41h-163l6 40c3 13 -2 20 -13 20s-13 -6 -16 -18l-3 -19
c-3 -15 3 -21 18 -32l63 -46c66 -47 97 -91 84 -173l-3 -19c-15 -100 -78 -147 -189 -147z" />
    <glyph glyph-name="t" unicode="t" horiz-adv-x="318" 
d="M265 0h-169c-35 0 -69 24 -61 78l48 307h-58l24 153h59l28 179h189l-28 -179h54l-24 -153h-54l-34 -211c-2 -12 3 -18 14 -18h37z" />
    <glyph glyph-name="u" unicode="u" horiz-adv-x="446" 
d="M475 538l-85 -538h-188l11 71c-24 -35 -68 -79 -126 -79h-9c-77 0 -97 69 -89 122l67 424h192l-59 -375c-3 -13 0 -26 16 -26c17 1 18 14 21 27l59 374h190z" />
    <glyph glyph-name="v" unicode="v" horiz-adv-x="415" 
d="M49 0l-10 538h188l-20 -300l66 300h188l-171 -538h-241z" />
    <glyph glyph-name="w" unicode="w" horiz-adv-x="623" 
d="M255 0h-211l-5 538h185l-23 -309l68 309h170l-20 -303l65 303h185l-168 -538h-202l13 252z" />
    <glyph glyph-name="x" unicode="x" horiz-adv-x="414" 
d="M77 292l-33 246h180l4 -139l39 139h187l-110 -246l31 -292h-184l-4 150l-48 -150h-185z" />
    <glyph glyph-name="y" unicode="y" horiz-adv-x="416" 
d="M75 50l-36 488h185l-12 -274l60 274h190l-226 -642c-23 -64 -59 -84 -95 -84h-170l25 155h59c13 0 19 7 20 21l1 14c1 15 2 21 -1 48z" />
    <glyph glyph-name="z" unicode="z" horiz-adv-x="348" 
d="M58 538h318l-21 -136l-159 -245h124l-25 -157h-327l22 137l165 253h-121z" />
    <glyph glyph-name="braceleft" unicode="{" horiz-adv-x="238" 
d="M168 -131h-72c-75 0 -117 33 -117 97c0 65 75 216 75 277c0 25 -12 38 -36 38h-9l20 120h24c39 0 39 34 39 70c0 58 -2 137 -2 175c0 109 35 162 134 162h92l-19 -122h-31c-33 0 -38 -15 -38 -60c0 -49 1 -121 1 -168c0 -65 -29 -104 -86 -117c39 -13 54 -37 54 -76
c0 -56 -64 -194 -64 -235c0 -20 11 -38 42 -38h13z" />
    <glyph glyph-name="bar" unicode="|" horiz-adv-x="253" 
d="M204 808v-939h-123v939h123z" />
    <glyph glyph-name="braceright" unicode="}" horiz-adv-x="238" 
d="M90 808h72c75 0 117 -32 117 -96s-75 -219 -75 -273c0 -25 12 -38 37 -38h8l-18 -120h-25c-40 0 -40 -35 -40 -70c0 -59 3 -142 3 -180c0 -108 -36 -162 -135 -162h-92l19 123h31c35 0 38 15 39 60c0 48 -2 124 -2 172c1 64 27 102 87 117c-39 13 -55 37 -55 76
c0 51 64 190 64 230c0 21 -10 39 -41 39h-13z" />
    <glyph glyph-name="asciitilde" unicode="~" horiz-adv-x="316" 
d="M228 468l8 47h114l-19 -119c-10 -65 -38 -98 -84 -98c-31 0 -47 11 -74 36c-15 15 -23 23 -31 23s-10 -7 -11 -14l-8 -48h-114l18 114c10 68 38 102 84 102c32 0 47 -11 75 -36c15 -13 22 -21 31 -21c8 0 10 7 11 14z" />
    <glyph glyph-name="Adieresis" unicode="&#xc4;" horiz-adv-x="438" 
d="M210 0l5 92h-71l-23 -92h-168l212 744h245l-12 -744h-188zM185 259h39l10 195zM431 764h-132l21 131h132zM277 764h-132l21 131h132z" />
    <glyph glyph-name="Aring" unicode="&#xc5;" horiz-adv-x="438" 
d="M210 0l5 92h-71l-23 -92h-168l212 744h245l-12 -744h-188zM185 259h39l10 195zM297 811c21 -1 37 13 37 36c0 21 -16 36 -37 36s-37 -15 -37 -36c0 -23 16 -37 37 -36zM297 759c-53 0 -93 36 -93 89c0 52 40 87 93 87s93 -35 93 -87c0 -53 -40 -89 -93 -89z" />
    <glyph glyph-name="Ccedilla" unicode="&#xc7;" horiz-adv-x="457" 
d="M241 190l21 131h191l-22 -139c-16 -95 -65 -193 -206 -193h-32c-155 0 -212 86 -189 225l53 333c21 131 79 208 224 208h32c140 0 195 -79 179 -187l-18 -114h-191l17 108c3 19 2 30 -17 30c-15 0 -19 -10 -22 -30l-60 -376c-3 -19 2 -29 17 -29c16 0 19 14 23 33z
M169 -202h-97l12 76h68c13 0 20 5 20 14s-6 14 -19 14h-50l17 98h76l-6 -33h1c59 0 91 -24 91 -73c0 -60 -41 -96 -113 -96z" />
    <glyph glyph-name="Eacute" unicode="&#xc9;" horiz-adv-x="367" 
d="M90 744h337l-28 -179h-143l-14 -89h118l-29 -183h-119l-18 -112h149l-29 -181h-342zM186 764l69 131h153l-74 -131h-148z" />
    <glyph glyph-name="Ntilde" unicode="&#xd1;" horiz-adv-x="461" 
d="M90 744h192l21 -345l55 345h163l-118 -744h-175l-31 374l-60 -374h-165zM368 886l3 19h99l-11 -69c-7 -39 -27 -70 -70 -70h-4c-23 0 -36 7 -67 19c-17 7 -23 9 -30 9c-6 0 -10 -5 -11 -14l-3 -18h-97l11 70c7 39 24 70 68 70h4c23 0 38 -7 67 -20c16 -7 23 -10 30 -10
c8 0 10 7 11 14z" />
    <glyph glyph-name="Odieresis" unicode="&#xd6;" horiz-adv-x="475" 
d="M284 581c-17 0 -22 -11 -26 -34l-56 -352c-3 -19 3 -29 20 -29c15 0 23 9 26 28l56 353c3 23 -3 34 -20 34zM279 755h32c148 0 212 -91 191 -232l-49 -310c-23 -145 -96 -224 -224 -224h-33c-143 0 -214 80 -191 229l48 305c24 144 78 232 226 232zM449 764h-132l21 131
h132zM295 764h-132l21 131h132z" />
    <glyph glyph-name="Udieresis" unicode="&#xdc;" horiz-adv-x="475" 
d="M3 193l87 551h201l-85 -540c-3 -20 2 -30 17 -30c13 0 22 10 25 30l84 540h203l-87 -551c-19 -112 -81 -206 -223 -206h-30c-149 0 -211 86 -192 206zM457 764h-132l21 131h132zM303 764h-132l21 131h132z" />
    <glyph glyph-name="aacute" unicode="&#xe1;" horiz-adv-x="429" 
d="M-16 111l13 82c11 65 30 98 91 125c32 16 118 41 135 49c11 4 11 6 14 19l3 20c3 15 1 25 -14 25h-2c-13 0 -15 -9 -18 -24l-7 -40h-169l7 41c11 72 44 142 184 142h21c149 0 193 -56 180 -144l-39 -246c-1 -7 2 -11 9 -11h15l-24 -149h-159c-28 0 -42 25 -37 61
c-16 -29 -60 -69 -116 -69h-3c-64 0 -95 50 -84 119zM180 118c10 0 16 7 18 21l18 113c-7 -3 -17 -8 -24 -15c-8 -7 -13 -17 -15 -30l-11 -69c-2 -13 3 -20 14 -20zM172 564l72 157h148l-78 -157h-142z" />
    <glyph glyph-name="agrave" unicode="&#xe0;" horiz-adv-x="429" 
d="M-16 111l13 82c11 65 30 98 91 125c32 16 118 41 135 49c11 4 11 6 14 19l3 20c3 15 1 25 -14 25h-2c-13 0 -15 -9 -18 -24l-7 -40h-169l7 41c11 72 44 142 184 142h21c149 0 193 -56 180 -144l-39 -246c-1 -7 2 -11 9 -11h15l-24 -149h-159c-28 0 -42 25 -37 61
c-16 -29 -60 -69 -116 -69h-3c-64 0 -95 50 -84 119zM180 118c10 0 16 7 18 21l18 113c-7 -3 -17 -8 -24 -15c-8 -7 -13 -17 -15 -30l-11 -69c-2 -13 3 -20 14 -20zM289 715l25 -157h-137l-30 157h142z" />
    <glyph glyph-name="acircumflex" unicode="&#xe2;" horiz-adv-x="429" 
d="M-16 111l13 82c11 65 30 98 91 125c32 16 118 41 135 49c11 4 11 6 14 19l3 20c3 15 1 25 -14 25h-2c-13 0 -15 -9 -18 -24l-7 -40h-169l7 41c11 72 44 142 184 142h21c149 0 193 -56 180 -144l-39 -246c-1 -7 2 -11 9 -11h15l-24 -149h-159c-28 0 -42 25 -37 61
c-16 -29 -60 -69 -116 -69h-3c-64 0 -95 50 -84 119zM180 118c10 0 16 7 18 21l18 113c-7 -3 -17 -8 -24 -15c-8 -7 -13 -17 -15 -30l-11 -69c-2 -13 3 -20 14 -20zM339 715l54 -157h-123l-15 67l-32 -67h-123l91 157h148z" />
    <glyph glyph-name="adieresis" unicode="&#xe4;" horiz-adv-x="429" 
d="M-16 111l13 82c11 65 30 98 91 125c32 16 118 41 135 49c11 4 11 6 14 19l3 20c3 15 1 25 -14 25h-2c-13 0 -15 -9 -18 -24l-7 -40h-169l7 41c11 72 44 142 184 142h21c149 0 193 -56 180 -144l-39 -246c-1 -7 2 -11 9 -11h15l-24 -149h-159c-28 0 -42 25 -37 61
c-16 -29 -60 -69 -116 -69h-3c-64 0 -95 50 -84 119zM180 118c10 0 16 7 18 21l18 113c-7 -3 -17 -8 -24 -15c-8 -7 -13 -17 -15 -30l-11 -69c-2 -13 3 -20 14 -20zM389 564h-132l22 133h132zM258 697l-22 -133h-132l22 133h132z" />
    <glyph glyph-name="atilde" unicode="&#xe3;" horiz-adv-x="429" 
d="M-16 111l13 82c11 65 30 98 91 125c32 16 118 41 135 49c11 4 11 6 14 19l3 20c3 15 1 25 -14 25h-2c-13 0 -15 -9 -18 -24l-7 -40h-169l7 41c11 72 44 142 184 142h21c149 0 193 -56 180 -144l-39 -246c-1 -7 2 -11 9 -11h15l-24 -149h-159c-28 0 -42 25 -37 61
c-16 -29 -60 -69 -116 -69h-3c-64 0 -95 50 -84 119zM180 118c10 0 16 7 18 21l18 113c-7 -3 -17 -8 -24 -15c-8 -7 -13 -17 -15 -30l-11 -69c-2 -13 3 -20 14 -20zM301 689l4 25h96l-13 -82c-7 -39 -26 -67 -73 -67h-2c-20 0 -41 7 -64 20c-15 9 -24 16 -31 16
s-9 -7 -10 -14l-4 -25h-96l12 76c7 44 25 73 72 73h3c23 0 37 -8 64 -24c13 -8 22 -15 30 -15c6 0 10 6 12 17z" />
    <glyph glyph-name="aring" unicode="&#xe5;" horiz-adv-x="429" 
d="M-16 111l13 82c11 65 30 98 91 125c32 16 118 41 135 49c11 4 11 6 14 19l3 20c3 15 1 25 -14 25h-2c-13 0 -15 -9 -18 -24l-7 -40h-169l7 41c11 72 44 142 184 142h21c149 0 193 -56 180 -144l-39 -246c-1 -7 2 -11 9 -11h15l-24 -149h-159c-28 0 -42 25 -37 61
c-16 -29 -60 -69 -116 -69h-3c-64 0 -95 50 -84 119zM180 118c10 0 16 7 18 21l18 113c-7 -3 -17 -8 -24 -15c-8 -7 -13 -17 -15 -30l-11 -69c-2 -13 3 -20 14 -20zM247 614c21 -1 37 13 37 36c0 21 -16 36 -37 36s-37 -15 -37 -36c0 -23 16 -37 37 -36zM247 562
c-53 0 -93 36 -93 89c0 52 40 87 93 87s93 -35 93 -87c0 -53 -40 -89 -93 -89z" />
    <glyph glyph-name="ccedilla" unicode="&#xe7;" horiz-adv-x="409" 
d="M225 242h170l-15 -94c-15 -95 -71 -161 -184 -161h-34c-111 0 -187 55 -166 187l31 196c16 101 60 181 194 181h37c129 0 175 -67 159 -168l-10 -63h-170l13 81c2 13 -2 20 -12 20c-9 0 -14 -6 -16 -17l-41 -259c-3 -12 1 -21 12 -21c9 0 14 6 16 18zM142 -202h-97l12 76
h68c13 0 20 5 20 14s-6 14 -19 14h-50l17 98h76l-6 -33h1c59 0 91 -24 91 -73c0 -60 -41 -96 -113 -96z" />
    <glyph glyph-name="eacute" unicode="&#xe9;" horiz-adv-x="421" 
d="M225 551h38c107 0 184 -57 163 -189l-18 -113h-215l-17 -108c-3 -17 2 -26 14 -26c15 0 19 9 22 28l11 70h179l-7 -44c-19 -113 -70 -182 -193 -182h-38c-125 0 -187 66 -168 187l30 189c19 120 74 188 199 188zM218 406l-9 -55h35l9 57c3 19 1 29 -15 29
c-15 0 -17 -12 -20 -31zM180 558l72 157h148l-78 -157h-142z" />
    <glyph glyph-name="egrave" unicode="&#xe8;" horiz-adv-x="421" 
d="M225 551h38c107 0 184 -57 163 -189l-18 -113h-215l-17 -108c-3 -17 2 -26 14 -26c15 0 19 9 22 28l11 70h179l-7 -44c-19 -113 -70 -182 -193 -182h-38c-125 0 -187 66 -168 187l30 189c19 120 74 188 199 188zM218 406l-9 -55h35l9 57c3 19 1 29 -15 29
c-15 0 -17 -12 -20 -31zM292 715l25 -157h-137l-30 157h142z" />
    <glyph glyph-name="ecircumflex" unicode="&#xea;" horiz-adv-x="421" 
d="M225 551h38c107 0 184 -57 163 -189l-18 -113h-215l-17 -108c-3 -17 2 -26 14 -26c15 0 19 9 22 28l11 70h179l-7 -44c-19 -113 -70 -182 -193 -182h-38c-125 0 -187 66 -168 187l30 189c19 120 74 188 199 188zM218 406l-9 -55h35l9 57c3 19 1 29 -15 29
c-15 0 -17 -12 -20 -31zM345 715l54 -157h-123l-15 67l-32 -67h-123l91 157h148z" />
    <glyph glyph-name="edieresis" unicode="&#xeb;" horiz-adv-x="421" 
d="M225 551h38c107 0 184 -57 163 -189l-18 -113h-215l-17 -108c-3 -17 2 -26 14 -26c15 0 19 9 22 28l11 70h179l-7 -44c-19 -113 -70 -182 -193 -182h-38c-125 0 -187 66 -168 187l30 189c19 120 74 188 199 188zM218 406l-9 -55h35l9 57c3 19 1 29 -15 29
c-15 0 -17 -12 -20 -31zM393 565h-132l22 133h132zM262 698l-22 -133h-132l22 133h132z" />
    <glyph glyph-name="iacute" unicode="&#xed;" horiz-adv-x="216" 
d="M246 538l-86 -538h-190l86 538h190zM83 558l72 157h148l-78 -157h-142z" />
    <glyph glyph-name="igrave" unicode="&#xec;" horiz-adv-x="216" 
d="M246 538l-86 -538h-190l86 538h190zM198 715l25 -157h-137l-30 157h142z" />
    <glyph glyph-name="icircumflex" unicode="&#xee;" horiz-adv-x="216" 
d="M250 715l29 -157h-106l-9 72l-28 -72h-108l71 157h151zM246 538l-86 -538h-190l86 538h190z" />
    <glyph glyph-name="idieresis" unicode="&#xef;" horiz-adv-x="216" 
d="M169 693l-22 -135h-116l22 135h116zM300 693l-22 -135h-116l22 135h116zM246 538l-86 -538h-190l86 538h190z" />
    <glyph glyph-name="ntilde" unicode="&#xf1;" horiz-adv-x="446" 
d="M-30 0l86 538h188l-12 -71c27 35 67 79 129 79h8c79 0 96 -67 88 -123l-67 -423h-192l59 372c3 19 -2 29 -17 29s-18 -10 -21 -29l-59 -372h-190zM327 683l4 25h96l-13 -82c-7 -39 -26 -67 -73 -67h-2c-20 0 -41 7 -64 20c-15 9 -24 16 -31 16s-9 -7 -10 -14l-4 -25h-96
l12 76c7 44 25 73 72 73h3c23 0 37 -8 64 -24c13 -8 22 -15 30 -15c6 0 10 6 12 17z" />
    <glyph glyph-name="oacute" unicode="&#xf3;" horiz-adv-x="442" 
d="M211 -13h-32c-135 0 -200 75 -179 208l24 151c23 139 83 205 208 205h31c135 0 200 -72 179 -205l-24 -151c-21 -132 -83 -208 -207 -208zM242 410c-17 0 -20 -12 -23 -31l-34 -215c-3 -19 0 -33 16 -33c15 0 19 13 22 32l34 215c3 19 2 32 -15 32zM189 558l72 157h148
l-78 -157h-142z" />
    <glyph glyph-name="ograve" unicode="&#xf2;" horiz-adv-x="442" 
d="M211 -13h-32c-135 0 -200 75 -179 208l24 151c23 139 83 205 208 205h31c135 0 200 -72 179 -205l-24 -151c-21 -132 -83 -208 -207 -208zM242 410c-17 0 -20 -12 -23 -31l-34 -215c-3 -19 0 -33 16 -33c15 0 19 13 22 32l34 215c3 19 2 32 -15 32zM302 715l25 -157h-137
l-30 157h142z" />
    <glyph glyph-name="ocircumflex" unicode="&#xf4;" horiz-adv-x="442" 
d="M211 -13h-32c-135 0 -200 75 -179 208l24 151c23 139 83 205 208 205h31c135 0 200 -72 179 -205l-24 -151c-21 -132 -83 -208 -207 -208zM242 410c-17 0 -20 -12 -23 -31l-34 -215c-3 -19 0 -33 16 -33c15 0 19 13 22 32l34 215c3 19 2 32 -15 32zM354 715l54 -157h-123
l-15 67l-32 -67h-123l91 157h148z" />
    <glyph glyph-name="odieresis" unicode="&#xf6;" horiz-adv-x="442" 
d="M211 -13h-32c-135 0 -200 75 -179 208l24 151c23 139 83 205 208 205h31c135 0 200 -72 179 -205l-24 -151c-21 -132 -83 -208 -207 -208zM242 410c-17 0 -20 -12 -23 -31l-34 -215c-3 -19 0 -33 16 -33c15 0 19 13 22 32l34 215c3 19 2 32 -15 32zM402 565h-132l22 133
h132zM271 698l-22 -133h-132l22 133h132z" />
    <glyph glyph-name="otilde" unicode="&#xf5;" horiz-adv-x="442" 
d="M211 -13h-32c-135 0 -200 75 -179 208l24 151c23 139 83 205 208 205h31c135 0 200 -72 179 -205l-24 -151c-21 -132 -83 -208 -207 -208zM242 410c-17 0 -20 -12 -23 -31l-34 -215c-3 -19 0 -33 16 -33c15 0 19 13 22 32l34 215c3 19 2 32 -15 32zM327 690l4 25h96
l-13 -82c-7 -39 -26 -67 -73 -67h-2c-20 0 -41 7 -64 20c-15 9 -24 16 -31 16s-9 -7 -10 -14l-4 -25h-96l12 76c7 44 25 73 72 73h3c23 0 37 -8 64 -24c13 -8 22 -15 30 -15c6 0 10 6 12 17z" />
    <glyph glyph-name="uacute" unicode="&#xfa;" horiz-adv-x="446" 
d="M475 538l-85 -538h-188l11 71c-24 -35 -68 -79 -126 -79h-9c-77 0 -97 69 -89 122l67 424h192l-59 -375c-3 -13 0 -26 16 -26c17 1 18 14 21 27l59 374h190zM193 558l72 157h148l-78 -157h-142z" />
    <glyph glyph-name="ugrave" unicode="&#xf9;" horiz-adv-x="446" 
d="M475 538l-85 -538h-188l11 71c-24 -35 -68 -79 -126 -79h-9c-77 0 -97 69 -89 122l67 424h192l-59 -375c-3 -13 0 -26 16 -26c17 1 18 14 21 27l59 374h190zM315 715l25 -157h-137l-30 157h142z" />
    <glyph glyph-name="ucircumflex" unicode="&#xfb;" horiz-adv-x="446" 
d="M475 538l-85 -538h-188l11 71c-24 -35 -68 -79 -126 -79h-9c-77 0 -97 69 -89 122l67 424h192l-59 -375c-3 -13 0 -26 16 -26c17 1 18 14 21 27l59 374h190zM361 715l54 -157h-123l-15 67l-32 -67h-123l91 157h148z" />
    <glyph glyph-name="udieresis" unicode="&#xfc;" horiz-adv-x="446" 
d="M475 538l-85 -538h-188l11 71c-24 -35 -68 -79 -126 -79h-9c-77 0 -97 69 -89 122l67 424h192l-59 -375c-3 -13 0 -26 16 -26c17 1 18 14 21 27l59 374h190zM411 558h-132l22 133h132zM280 691l-22 -133h-132l22 133h132z" />
    <glyph glyph-name="dagger" unicode="&#x2020;" horiz-adv-x="328" 
d="M28 0l70 447h-61l25 155h61l23 142h187l-23 -142h62l-24 -155h-62l-71 -447h-187z" />
    <glyph glyph-name="degree" unicode="&#xb0;" horiz-adv-x="226" 
d="M137 647c0 -21 13 -37 36 -37s37 16 37 37c0 23 -14 38 -37 38s-36 -15 -36 -38zM67 647c0 57 43 102 108 102c60 0 104 -45 104 -102c0 -56 -44 -101 -104 -101c-65 0 -108 45 -108 101z" />
    <glyph glyph-name="cent" unicode="&#xa2;" horiz-adv-x="409" 
d="M395 241l-16 -100c-15 -93 -74 -154 -174 -154h-19l-10 -63h-31l10 63h-1c-104 0 -180 54 -161 174l35 212c16 101 63 178 188 178h28l10 65h31l-10 -65c113 -3 155 -68 144 -153l-12 -78h-149l12 72c4 20 -1 32 -15 36l-49 -310c16 3 23 18 26 38l15 85h148zM201 392
l-39 -236c-3 -20 1 -32 14 -37l49 310c-16 -3 -21 -14 -24 -37z" />
    <glyph glyph-name="sterling" unicode="&#xa3;" horiz-adv-x="491" 
d="M88 233c3 15 4 31 5 48h-82l24 149h64c3 40 4 78 9 109l4 29c18 111 66 187 217 187h17c150 0 185 -73 169 -173l-20 -125h-170l18 118c3 18 -2 27 -16 27c-15 0 -19 -8 -22 -27l-1 -6c-5 -29 -12 -80 -20 -139h132l-24 -149h-128c-1 -1 -1 -3 -1 -5
c-9 -59 -37 -101 -64 -121h92l16 96h168l-40 -251h-468l23 152h26c40 3 61 24 72 81z" />
    <glyph glyph-name="section" unicode="&#xa7;" horiz-adv-x="478" 
d="M474 281l-3 -19c-12 -67 -55 -103 -106 -122c27 -31 42 -66 31 -126l-4 -28c-20 -120 -80 -183 -205 -183h-38c-125 0 -185 51 -166 170l12 73h180l-12 -80c-2 -15 3 -23 15 -23c15 0 19 8 22 24l5 33c4 27 1 40 -15 53l-95 68c-75 53 -96 102 -85 171l3 19
c9 57 41 96 106 121c-28 31 -42 79 -34 134l4 25c16 93 67 164 193 164h50c100 0 182 -41 163 -153l-13 -80h-180l12 69c3 17 -3 25 -16 25s-16 -10 -19 -25l-6 -37c-3 -24 3 -29 20 -44l102 -78c60 -48 90 -88 79 -151zM278 278l-88 71c-7 -4 -12 -13 -12 -25v-1
c0 -11 5 -21 21 -34l88 -69c5 4 11 11 11 23v1c1 12 -3 19 -20 34z" />
    <glyph glyph-name="bullet" unicode="&#x2022;" horiz-adv-x="300" 
d="M17 329c0 79 57 140 142 140c84 0 143 -61 143 -140s-59 -139 -143 -139c-85 0 -142 60 -142 139z" />
    <glyph glyph-name="paragraph" unicode="&#xb6;" horiz-adv-x="459" 
d="M528 744l-20 -127h-41l-98 -617h-115l98 617h-31l-98 -617h-117l55 344h-2c-53 0 -135 40 -116 155l15 96c17 104 70 149 153 149h317z" />
    <glyph glyph-name="germandbls" unicode="&#xdf;" horiz-adv-x="451" 
d="M385 444c33 -14 74 -51 63 -125l-28 -181c-13 -91 -54 -138 -134 -138h-111l23 147h11c7 0 12 5 15 16l23 149c1 11 0 17 -11 17h-10l24 146h10c9 0 14 6 16 17l14 90c3 13 1 26 -14 26h-3c-12 0 -19 -9 -21 -26l-92 -582h-190l92 578c16 99 62 176 204 176h42
c142 0 182 -70 169 -165l-5 -33c-11 -69 -51 -101 -87 -112z" />
    <glyph glyph-name="registered" unicode="&#xae;" horiz-adv-x="345" 
d="M227 388h-12c-92 0 -150 48 -150 152v59c0 100 57 151 150 151h13c92 0 147 -51 147 -148v-62c0 -101 -65 -152 -148 -152zM215 430h12c66 0 99 37 99 111v60c0 71 -30 108 -98 107h-13c-68 1 -101 -30 -101 -110v-57c0 -74 34 -111 101 -111zM214 548v-86h-70v220h105
c33 0 49 -14 49 -41v-21c0 -21 -8 -34 -25 -40c17 -5 26 -16 26 -31v-68c0 -6 1 -11 3 -15v-4h-66c-5 5 -7 10 -7 16v58c0 8 -3 12 -8 12h-7zM214 638v-41h7c5 0 8 4 8 11v20c0 7 -3 10 -8 10h-7z" />
    <glyph glyph-name="copyright" unicode="&#xa9;" horiz-adv-x="638" 
d="M341 -11h-10c-172 0 -282 81 -282 280v208c0 185 114 278 283 278h12c165 0 277 -86 277 -278v-208c0 -197 -128 -280 -280 -280zM334 64h7c127 0 191 75 191 226v164c0 151 -60 226 -189 226h-9c-125 0 -194 -66 -194 -226v-164c0 -153 65 -226 194 -226zM341 225
c11 0 13 9 13 24v89h141v-95c0 -69 -48 -134 -144 -134h-15c-108 0 -159 56 -159 152v227c0 88 50 149 154 149h21c92 0 143 -49 143 -129v-77h-141v72c0 13 -2 20 -13 20c-8 0 -12 -7 -12 -20v-254c0 -15 3 -24 12 -24z" />
    <glyph glyph-name="trademark" unicode="&#x2122;" horiz-adv-x="418" 
d="M205 456l46 288h104l-6 -118l30 118h106l-46 -288h-76l25 154l-48 -154h-36l1 154l-25 -154h-75zM239 744l-12 -81h-31l-33 -207h-99l33 207h-30l13 81h159z" />
    <glyph glyph-name="acute" unicode="&#xb4;" 
d="M119 558l72 157h148l-78 -157h-142z" />
    <glyph glyph-name="dieresis" unicode="&#xa8;" 
d="M357 558h-132l22 133h132zM226 691l-22 -133h-132l22 133h132z" />
    <glyph glyph-name="AE" unicode="&#xc6;" horiz-adv-x="579" 
d="M526 0h-316l16 102h-60l-30 -102h-185l248 744h440l-28 -179h-119l-14 -89h94l-29 -183h-95l-18 -112h125zM216 269h36l43 265z" />
    <glyph glyph-name="Oslash" unicode="&#xd8;" horiz-adv-x="467" 
d="M493 519l-48 -305c-24 -147 -98 -225 -223 -225h-30c-55 0 -90 15 -117 35l-15 -24h-88l49 80c-19 35 -25 80 -17 134l50 315c21 139 78 226 221 226h30c51 0 89 -12 118 -33l14 22h88l-49 -79c19 -39 26 -89 17 -146zM299 527l3 20c4 23 -3 34 -22 34
c-16 0 -24 -9 -28 -34l-25 -155zM218 163c15 0 24 11 28 33l25 156l-72 -135l-3 -21c-3 -21 6 -33 22 -33z" />
    <glyph glyph-name="yen" unicode="&#xa5;" horiz-adv-x="423" 
d="M299 188l-29 -188h-194l30 188h-94l15 97h94l3 18h-94l15 95h78l-53 346h181l5 -213l65 213h180l-154 -346h79l-14 -95h-95l-3 -18h95l-16 -97h-94z" />
    <glyph glyph-name="ordfeminine" unicode="&#xaa;" horiz-adv-x="267" 
d="M286 435h-96c-16 0 -25 14 -22 34c-12 -16 -37 -38 -72 -38h-1c-39 0 -59 30 -52 67l7 45c7 41 24 59 55 71c26 10 72 23 83 28c5 1 7 5 8 10l2 13c2 11 -1 16 -9 16s-10 -5 -11 -13l-4 -25h-104l4 26c8 42 25 81 114 81h13c92 0 116 -38 108 -90l-20 -128
c-1 -5 -1 -11 7 -11h3zM163 502c7 0 10 5 11 12l10 63c-7 -3 -13 -5 -17 -9c-3 -3 -6 -9 -7 -17l-6 -37c-1 -8 2 -12 9 -12z" />
    <glyph glyph-name="ordmasculine" unicode="&#xba;" horiz-adv-x="269" 
d="M181 429h-20c-80 0 -120 43 -108 119l14 89c11 72 52 113 124 113h20c71 0 119 -38 107 -113l-15 -95c-12 -75 -53 -113 -122 -113zM185 652l-19 -124c-1 -7 -2 -17 9 -17c9 0 11 10 12 17l19 123c1 9 2 17 -9 17c-9 0 -11 -8 -12 -16z" />
    <glyph glyph-name="ae" unicode="&#xe6;" horiz-adv-x="628" 
d="M211 64c-23 -31 -71 -72 -134 -72h-3c-72 0 -99 57 -91 112l13 83c11 62 30 96 90 122c34 16 121 41 136 49c11 5 10 7 13 20l5 28c3 15 1 25 -14 25h-2c-13 0 -15 -9 -18 -24l-8 -49h-169l8 50c11 74 44 142 184 142h11c77 0 109 -24 116 -31c8 8 39 32 106 32h14
c109 0 186 -54 165 -185l-18 -117h-215l-17 -108c-3 -17 2 -26 14 -26c15 0 18 10 21 26l12 72h179l-8 -48c-16 -107 -68 -178 -196 -178h-28c-98 0 -148 38 -166 77zM180 115c11 0 14 9 17 21l17 109c-5 -3 -15 -7 -22 -14c-8 -8 -13 -15 -16 -34l-10 -62
c-2 -13 3 -20 14 -20zM425 406l-9 -55h35l9 55c3 19 1 31 -14 31s-17 -8 -21 -31z" />
    <glyph glyph-name="oslash" unicode="&#xf8;" horiz-adv-x="436" 
d="M2 206l22 139c23 141 85 206 205 206h23c46 0 84 -10 113 -30l14 17h84l-51 -62c19 -27 35 -70 24 -130l-24 -151c-21 -133 -83 -208 -204 -208h-25c-48 0 -86 12 -113 29l-13 -16h-83l50 63c-23 35 -31 82 -22 143zM213 376l-14 -88l57 89c3 24 -1 35 -18 35
c-19 0 -22 -17 -25 -36zM197 130c16 0 22 12 25 31l14 91l-57 -91c-3 -19 -1 -31 18 -31z" />
    <glyph glyph-name="questiondown" unicode="&#xbf;" horiz-adv-x="405" 
d="M158 332h140l-13 -78c-8 -42 -14 -65 -44 -103l-72 -87c-15 -19 -18 -31 -22 -58l-8 -50c-3 -19 2 -29 15 -29c15 0 17 10 20 27l17 108h171l-18 -112c-13 -80 -45 -165 -183 -165h-42c-137 0 -182 70 -169 167l7 46c11 64 24 100 66 142l97 97c23 23 28 35 33 64z
M151 358l28 180h162l-28 -180h-162z" />
    <glyph glyph-name="exclamdown" unicode="&#xa1;" horiz-adv-x="214" 
d="M36 358l28 180h162l-28 -180h-162zM130 -206h-205l134 538h106z" />
    <glyph glyph-name="florin" unicode="&#x192;" horiz-adv-x="333" 
d="M-31 -193l105 535h-49l24 146h54l30 149c15 76 59 107 119 107h141l-24 -146h-36c-15 0 -18 -4 -21 -20l-19 -90h60l-24 -146h-65l-108 -535h-187z" />
    <glyph glyph-name="guillemotleft" unicode="&#xab;" horiz-adv-x="355" 
d="M379 460l-82 -177l27 -173h-134l-30 175l80 175h139zM223 460l-82 -175l32 -175h-133l-34 140l13 73l71 137h133z" />
    <glyph glyph-name="guillemotright" unicode="&#xbb;" horiz-adv-x="355" 
d="M135 110l87 173l-34 177h134l31 -139l-13 -73l-65 -138h-140zM-21 110l91 175l-33 175h134l33 -177l-86 -173h-139z" />
    <glyph glyph-name="ellipsis" unicode="&#x2026;" horiz-adv-x="543" 
d="M356 180h162l-29 -180h-162zM148 0l28 180h162l-28 -180h-162zM130 0h-162l29 180h162z" />
    <glyph glyph-name="nbspace" unicode="&#xa0;" horiz-adv-x="113" 
 />
    <glyph glyph-name="Agrave" unicode="&#xc0;" horiz-adv-x="438" 
d="M210 0l5 92h-71l-23 -92h-168l212 744h245l-12 -744h-188zM185 259h39l10 195zM339 895l27 -131h-142l-32 131h147z" />
    <glyph glyph-name="Atilde" unicode="&#xc3;" horiz-adv-x="438" 
d="M210 0l5 92h-71l-23 -92h-168l212 744h245l-12 -744h-188zM185 259h39l10 195zM346 886l3 19h99l-11 -69c-7 -39 -27 -70 -70 -70h-4c-23 0 -36 7 -67 19c-17 7 -23 9 -30 9c-6 0 -10 -5 -11 -14l-3 -18h-97l11 70c7 39 24 70 68 70h4c23 0 38 -7 67 -20
c16 -7 23 -10 30 -10c8 0 10 7 11 14z" />
    <glyph glyph-name="Otilde" unicode="&#xd5;" horiz-adv-x="475" 
d="M284 581c-17 0 -22 -11 -26 -34l-56 -352c-3 -19 3 -29 20 -29c15 0 23 9 26 28l56 353c3 23 -3 34 -20 34zM279 755h32c148 0 212 -91 191 -232l-49 -310c-23 -145 -96 -224 -224 -224h-33c-143 0 -214 80 -191 229l48 305c24 144 78 232 226 232zM366 892l3 19h99
l-11 -69c-7 -39 -27 -70 -70 -70h-4c-23 0 -36 7 -67 19c-17 7 -23 9 -30 9c-6 0 -10 -5 -11 -14l-3 -18h-97l11 70c7 39 24 70 68 70h4c23 0 38 -7 67 -20c16 -7 23 -10 30 -10c8 0 10 7 11 14z" />
    <glyph glyph-name="OE" unicode="&#x152;" horiz-adv-x="590" 
d="M2 201l55 343c19 119 61 209 165 209h7c67 0 95 -36 106 -53l7 44h308l-28 -179h-119l-14 -89h94l-29 -183h-95l-18 -112h125l-29 -181h-313l6 44c-13 -16 -50 -55 -105 -55h-6c-96 0 -137 79 -117 212zM282 583c-16 0 -21 -12 -25 -35l-56 -351c-4 -23 2 -35 17 -35
c16 0 23 12 26 35l56 351c3 23 1 35 -18 35z" />
    <glyph glyph-name="oe" unicode="&#x153;" horiz-adv-x="656" 
d="M306 18c-12 -11 -51 -31 -108 -31h-24c-129 0 -197 71 -174 212l22 146c23 141 81 206 212 206h15c61 0 97 -19 114 -32c15 13 49 32 116 32h13c110 0 189 -54 168 -185l-18 -117h-215l-17 -108c-3 -13 -1 -26 14 -26s19 9 22 29l11 69h179l-8 -48
c-19 -109 -68 -178 -201 -178h-19c-59 0 -91 20 -102 31zM218 379l-35 -218c-3 -20 2 -30 17 -30c11 0 19 10 22 30l34 218c3 17 2 31 -15 31s-20 -12 -23 -31zM443 351h35l9 55c3 19 2 31 -14 31s-18 -11 -21 -31z" />
    <glyph glyph-name="endash" unicode="&#x2013;" horiz-adv-x="447" 
d="M28 359h419l-19 -117h-419z" />
    <glyph glyph-name="emdash" unicode="&#x2014;" horiz-adv-x="669" 
d="M28 359h641l-19 -117h-641z" />
    <glyph glyph-name="quotedblleft" unicode="&#x201c;" horiz-adv-x="336" 
d="M211 493l17 107c11 71 40 124 52 144h88c-12 -23 -33 -67 -40 -99h56l-24 -152h-149zM46 493l17 107c11 71 40 124 52 144h88c-12 -23 -33 -67 -40 -99h56l-24 -152h-149z" />
    <glyph glyph-name="quotedblright" unicode="&#x201d;" horiz-adv-x="336" 
d="M400 744l-17 -107c-11 -71 -40 -124 -52 -144h-88c12 23 33 67 40 99h-56l24 152h149zM235 744l-17 -107c-11 -71 -40 -124 -52 -144h-88c12 23 33 67 40 99h-56l24 152h149z" />
    <glyph glyph-name="quoteleft" unicode="&#x2018;" horiz-adv-x="171" 
d="M46 493l17 107c11 71 40 124 52 144h88c-12 -23 -33 -67 -40 -99h56l-24 -152h-149z" />
    <glyph glyph-name="quoteright" unicode="&#x2019;" horiz-adv-x="171" 
d="M235 744l-17 -107c-11 -71 -40 -124 -52 -144h-88c12 23 33 67 40 99h-56l24 152h149z" />
    <glyph glyph-name="divide" unicode="&#xf7;" horiz-adv-x="346" 
d="M28 356h318l-17 -106h-318zM266 491l-19 -117h-115l19 117h115zM225 231l-19 -116h-115l18 116h116z" />
    <glyph glyph-name="ydieresis" unicode="&#xff;" horiz-adv-x="416" 
d="M75 50l-36 488h185l-12 -274l60 274h190l-226 -642c-23 -64 -59 -84 -95 -84h-170l25 155h59c13 0 19 7 20 21l1 14c1 15 2 21 -1 48zM392 558h-132l22 133h132zM261 691l-22 -133h-132l22 133h132z" />
    <glyph glyph-name="Ydieresis" unicode="&#x178;" horiz-adv-x="423" 
d="M504 744l-192 -475l-41 -269h-195l43 268l-51 476h189l-1 -226l70 226h178zM435 764h-132l21 131h132zM281 764h-132l21 131h132z" />
    <glyph glyph-name="fraction" unicode="&#x2044;" horiz-adv-x="398" 
d="M381 744h102l-435 -744h-101z" />
    <glyph glyph-name="Euro" unicode="&#x20ac;" horiz-adv-x="506" 
d="M6 278l15 96h56l3 19h-56l15 95h56l9 53c19 127 74 214 222 214h34c139 0 200 -72 181 -185l-10 -64h-191l9 54c3 23 -1 32 -17 32c-17 0 -20 -11 -23 -30l-12 -74h123l-15 -95h-123l-3 -19h123l-15 -96h-123l-14 -88c-3 -20 0 -33 16 -33s20 10 23 33l11 69h192l-12 -80
c-16 -95 -65 -190 -209 -190h-28c-151 0 -213 83 -192 219l11 70h-56z" />
    <glyph glyph-name="guilsinglleft" unicode="&#x2039;" horiz-adv-x="205" 
d="M151 283l24 -173h-143l-26 140l12 73l66 137h145z" />
    <glyph glyph-name="guilsinglright" unicode="&#x203a;" horiz-adv-x="205" 
d="M59 289l-25 171h143l26 -137l-12 -74l-65 -139h-146z" />
    <glyph glyph-name="daggerdbl" unicode="&#x2021;" horiz-adv-x="328" 
d="M50 142h-61l24 155h62l23 150h-61l25 155h61l23 142h187l-23 -142h62l-24 -155h-62l-24 -150h61l-24 -155h-62l-22 -142h-187z" />
    <glyph glyph-name="periodcentered" unicode="&#xb7;" horiz-adv-x="185" 
d="M194 401l-29 -179h-162l29 179h162z" />
    <glyph glyph-name="quotesinglbase" unicode="&#x201a;" horiz-adv-x="171" 
d="M142 152l-17 -107c-11 -71 -40 -124 -52 -144h-88c12 23 33 67 40 99h-56l24 152h149z" />
    <glyph glyph-name="quotedblbase" unicode="&#x201e;" horiz-adv-x="336" 
d="M307 152l-17 -107c-11 -71 -40 -124 -52 -144h-88c12 23 33 67 40 99h-56l24 152h149zM142 152l-17 -107c-11 -71 -40 -124 -52 -144h-88c12 23 33 67 40 99h-56l24 152h149z" />
    <glyph glyph-name="perthousand" unicode="&#x2030;" horiz-adv-x="880" 
d="M860 215l-15 -91c-13 -84 -58 -132 -137 -132h-17c-85 0 -126 48 -113 132l15 91c13 84 53 130 132 130h21c88 0 127 -50 114 -130zM718 97l23 146c1 7 -1 14 -9 14c-9 0 -11 -7 -12 -14l-23 -146c-1 -8 0 -15 9 -15c6 0 10 5 12 15zM183 400h-17c-85 0 -126 48 -113 132
l14 91c15 85 54 130 133 130h21c88 0 127 -50 114 -130l-15 -91c-15 -85 -60 -132 -137 -132zM437 97l23 146c1 7 0 14 -9 14s-11 -7 -12 -14l-23 -146c-1 -8 0 -15 9 -15c7 0 11 5 12 15zM476 744h108l-429 -744h-108zM192 504l23 146c1 7 0 14 -8 14c-9 0 -12 -7 -13 -14
l-23 -146c-1 -7 1 -14 10 -14c6 0 10 5 11 14zM579 215l-14 -91c-15 -84 -59 -132 -138 -132h-17c-84 0 -125 48 -112 132l14 91c15 84 53 130 133 130h20c88 0 127 -50 114 -130z" />
    <glyph glyph-name="Acircumflex" unicode="&#xc2;" horiz-adv-x="438" 
d="M210 0l5 92h-71l-23 -92h-168l212 744h245l-12 -744h-188zM185 259h39l10 195zM231 895h153l58 -131h-126l-19 46l-32 -46h-128z" />
    <glyph glyph-name="Ecircumflex" unicode="&#xca;" horiz-adv-x="367" 
d="M90 744h337l-28 -179h-143l-14 -89h118l-29 -183h-119l-18 -112h149l-29 -181h-342zM203 895h153l58 -131h-126l-19 46l-32 -46h-128z" />
    <glyph glyph-name="Aacute" unicode="&#xc1;" horiz-adv-x="438" 
d="M210 0l5 92h-71l-23 -92h-168l212 744h245l-12 -744h-188zM185 259h39l10 195zM211 764l69 131h153l-74 -131h-148z" />
    <glyph glyph-name="Edieresis" unicode="&#xcb;" horiz-adv-x="367" 
d="M90 744h337l-28 -179h-143l-14 -89h118l-29 -183h-119l-18 -112h149l-29 -181h-342zM407 764h-132l21 131h132zM253 764h-132l21 131h132z" />
    <glyph glyph-name="Egrave" unicode="&#xc8;" horiz-adv-x="367" 
d="M90 744h337l-28 -179h-143l-14 -89h118l-29 -183h-119l-18 -112h149l-29 -181h-342zM309 895l27 -131h-142l-32 131h147z" />
    <glyph glyph-name="Iacute" unicode="&#xcd;" horiz-adv-x="224" 
d="M284 744l-118 -744h-194l118 744h194zM116 764l69 131h153l-74 -131h-148z" />
    <glyph glyph-name="Icircumflex" unicode="&#xce;" horiz-adv-x="224" 
d="M284 744l-118 -744h-194l118 744h194zM130 895h153l58 -131h-126l-19 46l-32 -46h-128z" />
    <glyph glyph-name="Idieresis" unicode="&#xcf;" horiz-adv-x="224" 
d="M284 744l-118 -744h-194l118 744h194zM333 764h-132l21 131h132zM179 764h-132l21 131h132z" />
    <glyph glyph-name="Igrave" unicode="&#xcc;" horiz-adv-x="224" 
d="M284 744l-118 -744h-194l118 744h194zM235 895l27 -131h-142l-32 131h147z" />
    <glyph glyph-name="Oacute" unicode="&#xd3;" horiz-adv-x="475" 
d="M284 581c-17 0 -22 -11 -26 -34l-56 -352c-3 -19 3 -29 20 -29c15 0 23 9 26 28l56 353c3 23 -3 34 -20 34zM279 755h32c148 0 212 -91 191 -232l-49 -310c-23 -145 -96 -224 -224 -224h-33c-143 0 -214 80 -191 229l48 305c24 144 78 232 226 232zM235 764l69 131h153
l-74 -131h-148z" />
    <glyph glyph-name="Ocircumflex" unicode="&#xd4;" horiz-adv-x="475" 
d="M284 581c-17 0 -22 -11 -26 -34l-56 -352c-3 -19 3 -29 20 -29c15 0 23 9 26 28l56 353c3 23 -3 34 -20 34zM279 755h32c148 0 212 -91 191 -232l-49 -310c-23 -145 -96 -224 -224 -224h-33c-143 0 -214 80 -191 229l48 305c24 144 78 232 226 232zM250 895h153l58 -131
h-126l-19 46l-32 -46h-128z" />
    <glyph glyph-name="Ograve" unicode="&#xd2;" horiz-adv-x="475" 
d="M284 581c-17 0 -22 -11 -26 -34l-56 -352c-3 -19 3 -29 20 -29c15 0 23 9 26 28l56 353c3 23 -3 34 -20 34zM279 755h32c148 0 212 -91 191 -232l-49 -310c-23 -145 -96 -224 -224 -224h-33c-143 0 -214 80 -191 229l48 305c24 144 78 232 226 232zM353 895l27 -131h-142
l-32 131h147z" />
    <glyph glyph-name="Uacute" unicode="&#xda;" horiz-adv-x="475" 
d="M3 193l87 551h201l-85 -540c-3 -20 2 -30 17 -30c13 0 22 10 25 30l84 540h203l-87 -551c-19 -112 -81 -206 -223 -206h-30c-149 0 -211 86 -192 206zM237 764l69 131h153l-74 -131h-148z" />
    <glyph glyph-name="Ucircumflex" unicode="&#xdb;" horiz-adv-x="475" 
d="M3 193l87 551h201l-85 -540c-3 -20 2 -30 17 -30c13 0 22 10 25 30l84 540h203l-87 -551c-19 -112 -81 -206 -223 -206h-30c-149 0 -211 86 -192 206zM255 895h153l58 -131h-126l-19 46l-32 -46h-128z" />
    <glyph glyph-name="Ugrave" unicode="&#xd9;" horiz-adv-x="475" 
d="M3 193l87 551h201l-85 -540c-3 -20 2 -30 17 -30c13 0 22 10 25 30l84 540h203l-87 -551c-19 -112 -81 -206 -223 -206h-30c-149 0 -211 86 -192 206zM361 895l27 -131h-142l-32 131h147z" />
    <glyph glyph-name="dotlessi" unicode="&#x131;" horiz-adv-x="217" 
d="M246 538l-86 -538h-190l86 538h190z" />
    <glyph glyph-name="circumflex" unicode="&#x2c6;" 
d="M310 715l54 -157h-123l-15 67l-32 -67h-123l91 157h148z" />
    <glyph glyph-name="tilde" unicode="&#x2dc;" 
d="M275 683l4 25h96l-13 -82c-7 -39 -26 -67 -73 -67h-2c-20 0 -41 7 -64 20c-15 9 -24 16 -31 16s-9 -7 -10 -14l-4 -25h-96l12 76c7 44 25 73 72 73h3c23 0 37 -8 64 -24c13 -8 22 -15 30 -15c6 0 10 6 12 17z" />
    <glyph glyph-name="macron" unicode="&#xaf;" 
d="M96 564l18 113h245l-18 -113h-245z" />
    <glyph glyph-name="breve" unicode="&#x2d8;" 
d="M229 555h-4c-97 0 -134 56 -122 131l2 13h110l-1 -7c-3 -19 1 -37 20 -37h1c17 0 24 12 28 37l1 7h112l-2 -13c-13 -75 -49 -131 -145 -131z" />
    <glyph glyph-name="dotaccent" unicode="&#x2d9;" 
d="M336 715l-25 -157h-190l25 157h190z" />
    <glyph glyph-name="ring" unicode="&#x2da;" 
d="M231 608c21 -1 37 13 37 36c0 21 -16 36 -37 36s-37 -15 -37 -36c0 -23 16 -37 37 -36zM231 556c-53 0 -93 36 -93 89c0 52 40 87 93 87s93 -35 93 -87c0 -53 -40 -89 -93 -89z" />
    <glyph glyph-name="cedilla" unicode="&#xb8;" 
d="M95 -202h-97l12 76h68c13 0 20 5 20 14s-6 14 -19 14h-50l17 98h76l-6 -33h1c59 0 91 -24 91 -73c0 -60 -41 -96 -113 -96z" />
    <glyph glyph-name="hungarumlaut" unicode="&#x2dd;" 
d="M331 558h-119l59 157h119zM70 558l58 157h120l-58 -157h-120z" />
    <glyph glyph-name="ogonek" unicode="&#x2db;" 
d="M186 -188h-74c-56 0 -88 22 -88 62v1c0 40 26 78 113 125h78c-39 -39 -53 -55 -53 -74c0 -11 9 -17 26 -17h13z" />
    <glyph glyph-name="caron" unicode="&#x2c7;" 
d="M148 558l-54 157h123l15 -67l32 67h123l-91 -157h-148z" />
    <glyph glyph-name="idotaccent" horiz-adv-x="216" 
d="M246 538l-86 -538h-190l86 538h190zM274 715l-25 -157h-190l25 157h190z" />
    <glyph glyph-name="space_uni0326" 
d="M152 -220h-78c11 25 20 49 25 74h-60l20 126h148l-13 -84c-8 -50 -31 -97 -42 -116z" />
    <glyph glyph-name="zero.num" horiz-adv-x="294" 
d="M205 750h17c97 0 128 -65 117 -127l-15 -100c-11 -59 -41 -129 -137 -129h-19c-101 0 -125 71 -117 130l16 99c11 59 36 127 138 127zM206 649c-11 0 -11 -8 -12 -15l-18 -120c-1 -7 -2 -15 9 -15c9 0 10 8 11 15l19 120c1 10 -2 15 -9 15z" />
    <glyph glyph-name="one.num" horiz-adv-x="183" 
d="M105 616h-42l14 89c35 0 55 13 60 39h106l-54 -343h-118z" />
    <glyph glyph-name="two.num" horiz-adv-x="266" 
d="M279 401h-252l9 56c8 37 13 59 109 131c43 32 48 40 51 57l2 13c1 9 -1 13 -7 13c-9 0 -10 -6 -11 -13l-6 -35h-108l5 29c8 50 29 98 117 98h18c88 0 118 -33 110 -93l-1 -9c-8 -53 -34 -77 -102 -112c-65 -38 -66 -40 -69 -49h52l6 37h96z" />
    <glyph glyph-name="three.num" horiz-adv-x="264" 
d="M174 632h-108l6 33c8 48 35 85 117 85h15c76 0 118 -26 109 -81l-2 -14c-7 -37 -29 -53 -48 -58c18 -8 43 -25 35 -77l-3 -21c-11 -67 -46 -106 -131 -106h-17c-93 0 -113 44 -105 92l6 42h112l-7 -36c-1 -7 2 -11 9 -11c5 0 8 4 9 11l6 37c1 7 -2 11 -8 11h-50l13 83h48
c7 0 10 3 11 10l5 30c1 7 -2 11 -8 11c-5 0 -8 -4 -9 -11z" />
    <glyph glyph-name="four.num" horiz-adv-x="248" 
d="M36 447l14 84c27 54 81 153 110 214h128l-32 -200h29l-15 -98h-29l-7 -46h-112l7 46h-93zM122 545h22l12 71z" />
    <glyph glyph-name="five.num" horiz-adv-x="269" 
d="M164 545h-106l32 199h232l-14 -86h-128l-7 -49c11 15 33 35 68 35h6c51 0 67 -38 60 -82l-11 -70c-8 -56 -43 -98 -130 -98h-16c-91 0 -115 43 -107 91l6 38h113l-6 -35c-1 -8 1 -12 8 -12c6 0 9 4 10 13l10 68c1 8 -2 12 -7 12s-9 -4 -10 -12z" />
    <glyph glyph-name="six.num" horiz-adv-x="285" 
d="M253 622h6c52 0 68 -39 61 -84l-6 -35c-11 -68 -50 -109 -131 -109h-19c-81 0 -128 40 -116 115l21 128c8 59 39 113 131 113h15c92 0 124 -44 113 -104l-3 -13h-118l3 18c2 11 0 17 -7 17c-5 0 -8 -4 -9 -13l-10 -64c11 11 36 31 69 31zM176 479c9 0 12 8 13 15l6 40
c1 9 1 17 -8 17c-11 0 -11 -9 -12 -17l-6 -40c-1 -7 -1 -15 7 -15z" />
    <glyph glyph-name="seven.num" horiz-adv-x="250" 
d="M86 744h228l-7 -53c-4 -19 -23 -62 -46 -130c-21 -58 -27 -87 -32 -125l-5 -35h-134l4 31c8 42 17 63 52 122c43 70 58 93 61 115h-34l-9 -55h-99z" />
    <glyph glyph-name="eight.num" horiz-adv-x="266" 
d="M318 661l-2 -14c-7 -39 -29 -57 -48 -64c11 -6 36 -26 30 -67l-4 -28c-9 -61 -48 -94 -125 -94h-15c-80 0 -119 36 -110 95l4 29c5 33 26 56 50 65c-12 8 -31 26 -24 63l3 19c8 51 38 85 117 85h16c80 0 116 -34 108 -89zM201 632l4 26c1 8 1 14 -7 14
c-9 0 -10 -7 -11 -14l-5 -26c-1 -7 -1 -16 8 -16c8 0 10 8 11 16zM179 493l5 36c1 9 4 17 -7 17c-9 0 -9 -8 -12 -17l-5 -36c-1 -7 0 -14 8 -14c9 0 10 7 11 14z" />
    <glyph glyph-name="nine.num" horiz-adv-x="287" 
d="M205 666c-8 0 -10 -7 -11 -15l-6 -40c-1 -8 -2 -17 7 -17c11 0 11 9 12 17l7 40c1 7 0 15 -9 15zM64 615l4 29c11 72 51 106 131 106h19c84 0 127 -44 116 -113l-20 -129c-11 -60 -40 -114 -130 -114h-16c-93 0 -122 45 -113 104l2 14h119l-4 -24c-1 -7 1 -10 6 -10
s9 4 10 12l11 64c-9 -11 -34 -31 -69 -31h-5c-52 0 -69 44 -61 92z" />
    <glyph glyph-name="zero.den" horiz-adv-x="293" 
d="M146 349h17c97 0 128 -65 117 -127l-15 -100c-11 -59 -41 -129 -137 -129h-19c-101 0 -125 71 -117 130l16 99c11 59 36 127 138 127zM147 248c-11 0 -11 -8 -12 -15l-18 -120c-1 -7 -2 -15 9 -15c9 0 10 8 11 15l19 120c1 10 -2 15 -9 15z" />
    <glyph glyph-name="one.den" horiz-adv-x="183" 
d="M46 215h-42l14 89c35 0 55 13 60 39h106l-54 -343h-118z" />
    <glyph glyph-name="two.den" horiz-adv-x="266" 
d="M220 0h-252l9 56c8 37 13 59 109 131c43 32 48 40 51 57l2 13c1 9 -1 13 -7 13c-9 0 -10 -6 -11 -13l-6 -35h-108l5 29c8 50 29 98 117 98h18c88 0 118 -33 110 -93l-1 -9c-8 -53 -34 -77 -102 -112c-65 -38 -66 -40 -69 -49h52l6 37h96z" />
    <glyph glyph-name="three.den" horiz-adv-x="264" 
d="M114 231h-108l6 33c8 48 35 85 117 85h15c76 0 118 -26 109 -81l-2 -14c-7 -37 -29 -53 -48 -58c18 -8 43 -25 35 -77l-3 -21c-11 -67 -46 -106 -131 -106h-17c-93 0 -113 44 -105 92l6 42h112l-7 -36c-1 -7 2 -11 9 -11c5 0 8 4 9 11l6 37c1 7 -2 11 -8 11h-50l13 83h48
c7 0 10 3 11 10l5 30c1 7 -2 11 -8 11c-5 0 -8 -4 -9 -11z" />
    <glyph glyph-name="four.den" horiz-adv-x="248" 
d="M-24 46l14 84c27 54 81 153 110 214h128l-32 -200h29l-15 -98h-29l-7 -46h-112l7 46h-93zM62 144h22l12 71z" />
    <glyph glyph-name="five.den" horiz-adv-x="269" 
d="M105 144h-106l32 199h232l-14 -86h-128l-7 -49c11 15 33 35 68 35h6c51 0 67 -38 60 -82l-11 -70c-8 -56 -43 -98 -130 -98h-16c-91 0 -115 43 -107 91l6 38h113l-6 -35c-1 -8 1 -12 8 -12c6 0 9 4 10 13l10 68c1 8 -2 12 -7 12s-9 -4 -10 -12z" />
    <glyph glyph-name="six.den" horiz-adv-x="287" 
d="M194 221h6c52 0 68 -39 61 -84l-6 -35c-11 -68 -50 -109 -131 -109h-19c-81 0 -128 40 -116 115l21 128c8 59 39 113 131 113h15c92 0 124 -44 113 -104l-3 -13h-118l3 18c2 11 0 17 -7 17c-5 0 -8 -4 -9 -13l-10 -64c11 11 36 31 69 31zM117 78c9 0 12 8 13 15l6 40
c1 9 1 17 -8 17c-11 0 -11 -9 -12 -17l-6 -40c-1 -7 -1 -15 7 -15z" />
    <glyph glyph-name="seven.den" horiz-adv-x="250" 
d="M27 343h228l-7 -53c-4 -19 -23 -62 -46 -130c-21 -58 -27 -87 -32 -125l-5 -35h-134l4 31c8 42 17 63 52 122c43 70 58 93 61 115h-34l-9 -55h-99z" />
    <glyph glyph-name="eight.den" horiz-adv-x="266" 
d="M259 260l-2 -14c-7 -39 -29 -57 -48 -64c11 -6 36 -26 30 -67l-4 -28c-9 -61 -48 -94 -125 -94h-15c-80 0 -119 36 -110 95l4 29c5 33 26 56 50 65c-12 8 -31 26 -24 63l3 19c8 51 38 85 117 85h16c80 0 116 -34 108 -89zM142 231l4 26c1 8 1 14 -7 14
c-9 0 -10 -7 -11 -14l-5 -26c-1 -7 -1 -16 8 -16c8 0 10 8 11 16zM120 92l5 36c1 9 4 17 -7 17c-9 0 -9 -8 -12 -17l-5 -36c-1 -7 0 -14 8 -14c9 0 10 7 11 14z" />
    <glyph glyph-name="nine.den" horiz-adv-x="287" 
d="M146 265c-8 0 -10 -7 -11 -15l-6 -40c-1 -8 -2 -17 7 -17c11 0 11 9 12 17l7 40c1 7 0 15 -9 15zM5 214l4 29c11 72 51 106 131 106h19c84 0 127 -44 116 -113l-20 -129c-11 -60 -40 -114 -130 -114h-16c-93 0 -122 45 -113 104l2 14h119l-4 -24c-1 -7 1 -10 6 -10
s9 4 10 12l11 64c-9 -11 -34 -31 -69 -31h-5c-52 0 -69 44 -61 92z" />
    <glyph glyph-name="zero.sub" horiz-adv-x="294" 
d="M127 224h17c97 0 128 -65 117 -127l-15 -100c-11 -59 -41 -129 -137 -129h-19c-101 0 -125 71 -117 130l16 99c11 59 36 127 138 127zM128 123c-11 0 -11 -8 -12 -15l-18 -120c-1 -7 -2 -15 9 -15c9 0 10 8 11 15l19 120c1 10 -2 15 -9 15z" />
    <glyph glyph-name="one.sub" horiz-adv-x="183" 
d="M27 89h-42l14 89c35 0 55 13 60 39h106l-54 -343h-118z" />
    <glyph glyph-name="two.sub" horiz-adv-x="266" 
d="M201 -125h-252l9 56c8 37 13 59 109 131c43 32 48 40 51 57l2 13c1 9 -1 13 -7 13c-9 0 -10 -6 -11 -13l-6 -35h-108l5 29c8 50 29 98 117 98h18c88 0 118 -33 110 -93l-1 -9c-8 -53 -34 -77 -102 -112c-65 -38 -66 -40 -69 -49h52l6 37h96z" />
    <glyph glyph-name="three.sub" horiz-adv-x="264" 
d="M96 106h-108l6 33c8 48 35 85 117 85h15c76 0 118 -26 109 -81l-2 -14c-7 -37 -29 -53 -48 -58c18 -8 43 -25 35 -77l-3 -21c-11 -67 -46 -106 -131 -106h-17c-93 0 -113 44 -105 92l6 42h112l-7 -36c-1 -7 2 -11 9 -11c5 0 8 4 9 11l6 37c1 7 -2 11 -8 11h-50l13 83h48
c7 0 10 3 11 10l5 30c1 7 -2 11 -8 11c-5 0 -8 -4 -9 -11z" />
    <glyph glyph-name="four.sub" horiz-adv-x="248" 
d="M-42 -79l14 84c27 54 81 153 110 214h128l-32 -200h29l-15 -98h-29l-7 -46h-112l7 46h-93zM44 19h22l12 71z" />
    <glyph glyph-name="five.sub" horiz-adv-x="269" 
d="M86 19h-106l32 199h232l-14 -86h-128l-7 -49c11 15 33 35 68 35h6c51 0 67 -38 60 -82l-11 -70c-8 -56 -43 -98 -130 -98h-16c-91 0 -115 43 -107 91l6 38h113l-6 -35c-1 -8 1 -12 8 -12c6 0 9 4 10 13l10 68c1 8 -2 12 -7 12s-9 -4 -10 -12z" />
    <glyph glyph-name="six.sub" horiz-adv-x="287" 
d="M175 96h6c52 0 68 -39 61 -84l-6 -35c-11 -68 -50 -109 -131 -109h-19c-81 0 -128 40 -116 115l21 128c8 59 39 113 131 113h15c92 0 124 -44 113 -104l-3 -13h-118l3 18c2 11 0 17 -7 17c-5 0 -8 -4 -9 -13l-10 -64c11 11 36 31 69 31zM98 -47c9 0 12 8 13 15l6 40
c1 9 1 17 -8 17c-11 0 -11 -9 -12 -17l-6 -40c-1 -7 -1 -15 7 -15z" />
    <glyph glyph-name="seven.sub" horiz-adv-x="250" 
d="M9 218h228l-7 -53c-4 -19 -23 -62 -46 -130c-21 -58 -27 -87 -32 -125l-5 -35h-134l4 31c8 42 17 63 52 122c43 70 58 93 61 115h-34l-9 -55h-99z" />
    <glyph glyph-name="eight.sub" horiz-adv-x="266" 
d="M240 135l-2 -14c-7 -39 -29 -57 -48 -64c11 -6 36 -26 30 -67l-4 -28c-9 -61 -48 -94 -125 -94h-15c-80 0 -119 36 -110 95l4 29c5 33 26 56 50 65c-12 8 -31 26 -24 63l3 19c8 51 38 85 117 85h16c80 0 116 -34 108 -89zM123 106l4 26c1 8 1 14 -7 14
c-9 0 -10 -7 -11 -14l-5 -26c-1 -7 -1 -16 8 -16c8 0 10 8 11 16zM101 -33l5 36c1 9 4 17 -7 17c-9 0 -9 -8 -12 -17l-5 -36c-1 -7 0 -14 8 -14c9 0 10 7 11 14z" />
    <glyph glyph-name="nine.sub" horiz-adv-x="287" 
d="M127 140c-8 0 -10 -7 -11 -15l-6 -40c-1 -8 -2 -17 7 -17c11 0 11 9 12 17l7 40c1 7 0 15 -9 15zM-14 89l4 29c11 72 51 106 131 106h19c84 0 127 -44 116 -113l-20 -129c-11 -60 -40 -114 -130 -114h-16c-93 0 -122 45 -113 104l2 14h119l-4 -24c-1 -7 1 -10 6 -10
s9 4 10 12l11 64c-9 -11 -34 -31 -69 -31h-5c-52 0 -69 44 -61 92z" />
    <glyph glyph-name="zero.sup" horiz-adv-x="294" 
d="M205 750h17c97 0 128 -65 117 -127l-15 -100c-11 -59 -41 -129 -137 -129h-19c-101 0 -125 71 -117 130l16 99c11 59 36 127 138 127zM206 649c-11 0 -11 -8 -12 -15l-18 -120c-1 -7 -2 -15 9 -15c9 0 10 8 11 15l19 120c1 10 -2 15 -9 15z" />
    <glyph glyph-name="one.sup" horiz-adv-x="183" 
d="M105 616h-42l14 89c35 0 55 13 60 39h106l-54 -343h-118z" />
    <glyph glyph-name="two.sup" horiz-adv-x="266" 
d="M279 401h-252l9 56c8 37 13 59 109 131c43 32 48 40 51 57l2 13c1 9 -1 13 -7 13c-9 0 -10 -6 -11 -13l-6 -35h-108l5 29c8 50 29 98 117 98h18c88 0 118 -33 110 -93l-1 -9c-8 -53 -34 -77 -102 -112c-65 -38 -66 -40 -69 -49h52l6 37h96z" />
    <glyph glyph-name="three.sup" horiz-adv-x="264" 
d="M174 632h-108l6 33c8 48 35 85 117 85h15c76 0 118 -26 109 -81l-2 -14c-7 -37 -29 -53 -48 -58c18 -8 43 -25 35 -77l-3 -21c-11 -67 -46 -106 -131 -106h-17c-93 0 -113 44 -105 92l6 42h112l-7 -36c-1 -7 2 -11 9 -11c5 0 8 4 9 11l6 37c1 7 -2 11 -8 11h-50l13 83h48
c7 0 10 3 11 10l5 30c1 7 -2 11 -8 11c-5 0 -8 -4 -9 -11z" />
    <glyph glyph-name="four.sup" horiz-adv-x="248" 
d="M36 447l14 84c27 54 81 153 110 214h128l-32 -200h29l-15 -98h-29l-7 -46h-112l7 46h-93zM122 545h22l12 71z" />
    <glyph glyph-name="five.sup" horiz-adv-x="269" 
d="M164 545h-106l32 199h232l-14 -86h-128l-7 -49c11 15 33 35 68 35h6c51 0 67 -38 60 -82l-11 -70c-8 -56 -43 -98 -130 -98h-16c-91 0 -115 43 -107 91l6 38h113l-6 -35c-1 -8 1 -12 8 -12c6 0 9 4 10 13l10 68c1 8 -2 12 -7 12s-9 -4 -10 -12z" />
    <glyph glyph-name="six.sup" horiz-adv-x="285" 
d="M253 622h6c52 0 68 -39 61 -84l-6 -35c-11 -68 -50 -109 -131 -109h-19c-81 0 -128 40 -116 115l21 128c8 59 39 113 131 113h15c92 0 124 -44 113 -104l-3 -13h-118l3 18c2 11 0 17 -7 17c-5 0 -8 -4 -9 -13l-10 -64c11 11 36 31 69 31zM176 479c9 0 12 8 13 15l6 40
c1 9 1 17 -8 17c-11 0 -11 -9 -12 -17l-6 -40c-1 -7 -1 -15 7 -15z" />
    <glyph glyph-name="seven.sup" horiz-adv-x="250" 
d="M86 744h228l-7 -53c-4 -19 -23 -62 -46 -130c-21 -58 -27 -87 -32 -125l-5 -35h-134l4 31c8 42 17 63 52 122c43 70 58 93 61 115h-34l-9 -55h-99z" />
    <glyph glyph-name="eight.sup" horiz-adv-x="266" 
d="M318 661l-2 -14c-7 -39 -29 -57 -48 -64c11 -6 36 -26 30 -67l-4 -28c-9 -61 -48 -94 -125 -94h-15c-80 0 -119 36 -110 95l4 29c5 33 26 56 50 65c-12 8 -31 26 -24 63l3 19c8 51 38 85 117 85h16c80 0 116 -34 108 -89zM201 632l4 26c1 8 1 14 -7 14
c-9 0 -10 -7 -11 -14l-5 -26c-1 -7 -1 -16 8 -16c8 0 10 8 11 16zM179 493l5 36c1 9 4 17 -7 17c-9 0 -9 -8 -12 -17l-5 -36c-1 -7 0 -14 8 -14c9 0 10 7 11 14z" />
    <glyph glyph-name="nine.sup" horiz-adv-x="287" 
d="M205 666c-8 0 -10 -7 -11 -15l-6 -40c-1 -8 -2 -17 7 -17c11 0 11 9 12 17l7 40c1 7 0 15 -9 15zM64 615l4 29c11 72 51 106 131 106h19c84 0 127 -44 116 -113l-20 -129c-11 -60 -40 -114 -130 -114h-16c-93 0 -122 45 -113 104l2 14h119l-4 -24c-1 -7 1 -10 6 -10
s9 4 10 12l11 64c-9 -11 -34 -31 -69 -31h-5c-52 0 -69 44 -61 92z" />
    <glyph glyph-name="IJ.alt" horiz-adv-x="525" 
d="M284 744l-118 -744h-194l118 744h194zM186 0l29 183h53c23 0 28 8 31 27l85 534h202l-96 -608c-12 -83 -59 -136 -142 -136h-162z" />
    <glyph glyph-name="a.alt2" horiz-adv-x="444" 
d="M284 538h189l-85 -538h-190l10 60c-24 -32 -64 -71 -117 -71h-5c-69 0 -109 63 -96 144l44 275c13 79 52 136 116 136h6c61 0 89 -34 118 -72zM222 149l36 231c3 13 1 27 -14 27c-13 0 -17 -11 -20 -27l-37 -231c-3 -13 -1 -28 14 -28s18 13 21 28z" />
    <glyph glyph-name="Eacute.alt" horiz-adv-x="367" 
d="M90 744h328l-28 -179h-134l-14 -89h130l-29 -183h-131l-18 -112h138l-28 -181h-332zM186 764l69 131h153l-74 -131h-148zM90 744h328l-28 -179h-134l-14 -89h130l-29 -183h-131l-18 -112h138l-28 -181h-332z" />
    <glyph glyph-name="Ebreve.alt" horiz-adv-x="358" 
d="M90 744h328l-28 -179h-134l-14 -89h130l-29 -183h-131l-18 -112h138l-28 -181h-332zM265 759h-4c-95 0 -133 54 -125 121l2 14h109c-4 -21 3 -36 20 -36h1c21 0 27 13 30 36h110l-1 -11c-7 -77 -51 -124 -142 -124z" />
    <glyph glyph-name="Ecaron.alt" horiz-adv-x="358" 
d="M90 744h328l-28 -179h-134l-14 -89h130l-29 -183h-131l-18 -112h138l-28 -181h-332zM334 764h-152l-58 131h125l19 -47l32 47h129z" />
    <glyph glyph-name="Ecircumflex.alt" horiz-adv-x="367" 
d="M90 744h328l-28 -179h-134l-14 -89h130l-29 -183h-131l-18 -112h138l-28 -181h-332zM203 895h153l58 -131h-126l-19 46l-32 -46h-128zM90 744h328l-28 -179h-134l-14 -89h130l-29 -183h-131l-18 -112h138l-28 -181h-332z" />
    <glyph glyph-name="Edieresis.alt" horiz-adv-x="367" 
d="M90 744h328l-28 -179h-134l-14 -89h130l-29 -183h-131l-18 -112h138l-28 -181h-332zM407 764h-132l21 131h132zM253 764h-132l21 131h132zM90 744h328l-28 -179h-134l-14 -89h130l-29 -183h-131l-18 -112h138l-28 -181h-332z" />
    <glyph glyph-name="Edotaccent.alt" horiz-adv-x="358" 
d="M90 744h328l-28 -179h-134l-14 -89h130l-29 -183h-131l-18 -112h138l-28 -181h-332zM354 764h-190l25 157h190z" />
    <glyph glyph-name="Egrave.alt" horiz-adv-x="367" 
d="M90 744h328l-28 -179h-134l-14 -89h130l-29 -183h-131l-18 -112h138l-28 -181h-332zM309 895l27 -131h-142l-32 131h147zM90 744h328l-28 -179h-134l-14 -89h130l-29 -183h-131l-18 -112h138l-28 -181h-332z" />
    <glyph glyph-name="Emacron.alt" horiz-adv-x="358" 
d="M90 744h328l-28 -179h-134l-14 -89h130l-29 -183h-131l-18 -112h138l-28 -181h-332zM138 771l18 112h247l-17 -112h-248z" />
    <glyph glyph-name="Eogonek.alt" horiz-adv-x="358" 
d="M90 744h328l-28 -179h-134l-14 -89h130l-29 -183h-131l-18 -112h138l-28 -181h-332zM229 -188h-74c-56 0 -88 22 -88 62v1c0 40 26 78 113 125h78c-39 -39 -53 -55 -53 -74c0 -11 9 -17 26 -17h13z" />
    <glyph glyph-name="Jcircumflex.alt" horiz-adv-x="305" 
d="M-34 0l29 183h53c23 0 28 8 31 27l85 534h202l-96 -608c-12 -83 -59 -136 -142 -136h-162zM202 895h153l58 -131h-126l-19 46l-32 -46h-128z" />
    <glyph glyph-name="aacute.alt" horiz-adv-x="414" 
d="M173 564l69 151h148l-75 -151h-142zM187 61c-16 -29 -60 -69 -116 -69h-3c-64 0 -95 50 -84 119l13 82c11 65 30 98 91 125c32 16 118 41 135 49c11 4 11 6 14 19l3 20c3 15 1 25 -14 25h-2c-13 0 -15 -9 -18 -24l-7 -40h-169l7 41c11 72 44 142 184 142h21
c149 0 193 -56 180 -144l-41 -259c-13 -87 -17 -116 -12 -142l-1 -5h-174c-7 8 -11 26 -7 61zM180 118c10 0 16 7 18 21l18 113c-7 -3 -17 -8 -24 -15c-8 -7 -13 -17 -15 -30l-11 -69c-2 -13 3 -20 14 -20z" />
    <glyph glyph-name="aacute.alt2" horiz-adv-x="444" 
d="M284 538h189l-85 -538h-190l10 60c-24 -32 -64 -71 -117 -71h-5c-69 0 -109 63 -96 144l44 275c13 79 52 136 116 136h6c61 0 89 -34 118 -72zM222 149l36 231c3 13 1 27 -14 27c-13 0 -17 -11 -20 -27l-37 -231c-3 -13 -1 -28 14 -28s18 13 21 28zM189 558l72 157h148
l-78 -157h-142z" />
    <glyph glyph-name="abreve.alt" horiz-adv-x="414" 
d="M250 561h-4c-97 0 -134 56 -122 131l2 13h110l-1 -7c-3 -19 1 -37 20 -37h1c17 0 24 12 28 37l1 7h112l-2 -13c-13 -75 -49 -131 -145 -131zM187 61c-16 -29 -60 -69 -116 -69h-3c-64 0 -95 50 -84 119l13 82c11 65 30 98 91 125c32 16 118 41 135 49c11 4 11 6 14 19
l3 20c3 15 1 25 -14 25h-2c-13 0 -15 -9 -18 -24l-7 -40h-169l7 41c11 72 44 142 184 142h21c149 0 193 -56 180 -144l-41 -259c-13 -87 -17 -116 -12 -142l-1 -5h-174c-7 8 -11 26 -7 61zM180 118c10 0 16 7 18 21l18 113c-7 -3 -17 -8 -24 -15c-8 -7 -13 -17 -15 -30
l-11 -69c-2 -13 3 -20 14 -20z" />
    <glyph glyph-name="abreve.alt2" horiz-adv-x="444" 
d="M284 538h189l-85 -538h-190l10 60c-24 -32 -64 -71 -117 -71h-5c-69 0 -109 63 -96 144l44 275c13 79 52 136 116 136h6c61 0 89 -34 118 -72zM222 149l36 231c3 13 1 27 -14 27c-13 0 -17 -11 -20 -27l-37 -231c-3 -13 -1 -28 14 -28s18 13 21 28zM269 555h-4
c-97 0 -134 56 -122 131l2 13h110l-1 -7c-3 -19 1 -37 20 -37h1c17 0 24 12 28 37l1 7h112l-2 -13c-13 -75 -49 -131 -145 -131z" />
    <glyph glyph-name="acircumflex.alt" horiz-adv-x="414" 
d="M338 715l55 -151h-123l-16 61l-31 -61h-123l90 151h148zM187 61c-16 -29 -60 -69 -116 -69h-3c-64 0 -95 50 -84 119l13 82c11 65 30 98 91 125c32 16 118 41 135 49c11 4 11 6 14 19l3 20c3 15 1 25 -14 25h-2c-13 0 -15 -9 -18 -24l-7 -40h-169l7 41
c11 72 44 142 184 142h21c149 0 193 -56 180 -144l-41 -259c-13 -87 -17 -116 -12 -142l-1 -5h-174c-7 8 -11 26 -7 61zM180 118c10 0 16 7 18 21l18 113c-7 -3 -17 -8 -24 -15c-8 -7 -13 -17 -15 -30l-11 -69c-2 -13 3 -20 14 -20z" />
    <glyph glyph-name="acircumflex.alt2" horiz-adv-x="444" 
d="M284 538h189l-85 -538h-190l10 60c-24 -32 -64 -71 -117 -71h-5c-69 0 -109 63 -96 144l44 275c13 79 52 136 116 136h6c61 0 89 -34 118 -72zM222 149l36 231c3 13 1 27 -14 27c-13 0 -17 -11 -20 -27l-37 -231c-3 -13 -1 -28 14 -28s18 13 21 28zM357 715l54 -157h-123
l-15 67l-32 -67h-123l91 157h148z" />
    <glyph glyph-name="adieresis.alt" horiz-adv-x="414" 
d="M389 564h-132l22 133h132zM258 697l-22 -133h-132l22 133h132zM187 61c-16 -29 -60 -69 -116 -69h-3c-64 0 -95 50 -84 119l13 82c11 65 30 98 91 125c32 16 118 41 135 49c11 4 11 6 14 19l3 20c3 15 1 25 -14 25h-2c-13 0 -15 -9 -18 -24l-7 -40h-169l7 41
c11 72 44 142 184 142h21c149 0 193 -56 180 -144l-41 -259c-13 -87 -17 -116 -12 -142l-1 -5h-174c-7 8 -11 26 -7 61zM180 118c10 0 16 7 18 21l18 113c-7 -3 -17 -8 -24 -15c-8 -7 -13 -17 -15 -30l-11 -69c-2 -13 3 -20 14 -20z" />
    <glyph glyph-name="adieresis.alt2" horiz-adv-x="444" 
d="M284 538h189l-85 -538h-190l10 60c-24 -32 -64 -71 -117 -71h-5c-69 0 -109 63 -96 144l44 275c13 79 52 136 116 136h6c61 0 89 -34 118 -72zM222 149l36 231c3 13 1 27 -14 27c-13 0 -17 -11 -20 -27l-37 -231c-3 -13 -1 -28 14 -28s18 13 21 28zM405 558h-132l22 133
h132zM274 691l-22 -133h-132l22 133h132z" />
    <glyph glyph-name="agrave.alt" horiz-adv-x="414" 
d="M290 715l24 -151h-137l-29 151h142zM187 61c-16 -29 -60 -69 -116 -69h-3c-64 0 -95 50 -84 119l13 82c11 65 30 98 91 125c32 16 118 41 135 49c11 4 11 6 14 19l3 20c3 15 1 25 -14 25h-2c-13 0 -15 -9 -18 -24l-7 -40h-169l7 41c11 72 44 142 184 142h21
c149 0 193 -56 180 -144l-41 -259c-13 -87 -17 -116 -12 -142l-1 -5h-174c-7 8 -11 26 -7 61zM180 118c10 0 16 7 18 21l18 113c-7 -3 -17 -8 -24 -15c-8 -7 -13 -17 -15 -30l-11 -69c-2 -13 3 -20 14 -20z" />
    <glyph glyph-name="agrave.alt2" horiz-adv-x="444" 
d="M284 538h189l-85 -538h-190l10 60c-24 -32 -64 -71 -117 -71h-5c-69 0 -109 63 -96 144l44 275c13 79 52 136 116 136h6c61 0 89 -34 118 -72zM222 149l36 231c3 13 1 27 -14 27c-13 0 -17 -11 -20 -27l-37 -231c-3 -13 -1 -28 14 -28s18 13 21 28zM308 715l25 -157h-137
l-30 157h142z" />
    <glyph glyph-name="amacron.alt" horiz-adv-x="414" 
d="M125 570l18 113h245l-18 -113h-245zM187 61c-16 -29 -60 -69 -116 -69h-3c-64 0 -95 50 -84 119l13 82c11 65 30 98 91 125c32 16 118 41 135 49c11 4 11 6 14 19l3 20c3 15 1 25 -14 25h-2c-13 0 -15 -9 -18 -24l-7 -40h-169l7 41c11 72 44 142 184 142h21
c149 0 193 -56 180 -144l-41 -259c-13 -87 -17 -116 -12 -142l-1 -5h-174c-7 8 -11 26 -7 61zM180 118c10 0 16 7 18 21l18 113c-7 -3 -17 -8 -24 -15c-8 -7 -13 -17 -15 -30l-11 -69c-2 -13 3 -20 14 -20z" />
    <glyph glyph-name="amacron.alt2" horiz-adv-x="444" 
d="M284 538h189l-85 -538h-190l10 60c-24 -32 -64 -71 -117 -71h-5c-69 0 -109 63 -96 144l44 275c13 79 52 136 116 136h6c61 0 89 -34 118 -72zM222 149l36 231c3 13 1 27 -14 27c-13 0 -17 -11 -20 -27l-37 -231c-3 -13 -1 -28 14 -28s18 13 21 28zM135 564l18 113h245
l-18 -113h-245z" />
    <glyph glyph-name="aogonek.alt" horiz-adv-x="414" 
d="M187 61c-16 -29 -60 -69 -116 -69h-3c-64 0 -95 50 -84 119l13 82c11 65 30 98 91 125c32 16 118 41 135 49c11 4 11 6 14 19l3 20c3 15 1 25 -14 25h-2c-13 0 -15 -9 -18 -24l-7 -40h-169l7 41c11 72 44 142 184 142h21c149 0 193 -56 180 -144l-41 -259
c-13 -87 -17 -116 -12 -142l-1 -5h-174c-7 8 -11 26 -7 61zM180 118c10 0 16 7 18 21l18 113c-7 -3 -17 -8 -24 -15c-8 -7 -13 -17 -15 -30l-11 -69c-2 -13 3 -20 14 -20zM339 -188h-74c-56 0 -88 22 -88 62v1c0 40 26 78 113 125h78c-39 -39 -53 -55 -53 -74
c0 -11 9 -17 26 -17h13z" />
    <glyph glyph-name="aogonek.alt2" horiz-adv-x="444" 
d="M284 538h189l-85 -538h-190l10 60c-24 -32 -64 -71 -117 -71h-5c-69 0 -109 63 -96 144l44 275c13 79 52 136 116 136h6c61 0 89 -34 118 -72zM222 149l36 231c3 13 1 27 -14 27c-13 0 -17 -11 -20 -27l-37 -231c-3 -13 -1 -28 14 -28s18 13 21 28zM359 -188h-74
c-56 0 -88 22 -88 62v1c0 40 26 78 113 125h78c-39 -39 -53 -55 -53 -74c0 -11 9 -17 26 -17h13z" />
    <glyph glyph-name="aring.alt" horiz-adv-x="414" 
d="M247 614c21 -1 37 13 37 36c0 21 -16 36 -37 36s-37 -15 -37 -36c0 -23 16 -37 37 -36zM247 562c-53 0 -93 36 -93 89c0 52 40 87 93 87s93 -35 93 -87c0 -53 -40 -89 -93 -89zM187 61c-16 -29 -60 -69 -116 -69h-3c-64 0 -95 50 -84 119l13 82c11 65 30 98 91 125
c32 16 118 41 135 49c11 4 11 6 14 19l3 20c3 15 1 25 -14 25h-2c-13 0 -15 -9 -18 -24l-7 -40h-169l7 41c11 72 44 142 184 142h21c149 0 193 -56 180 -144l-41 -259c-13 -87 -17 -116 -12 -142l-1 -5h-174c-7 8 -11 26 -7 61zM180 118c10 0 16 7 18 21l18 113
c-7 -3 -17 -8 -24 -15c-8 -7 -13 -17 -15 -30l-11 -69c-2 -13 3 -20 14 -20z" />
    <glyph glyph-name="aring.alt2" horiz-adv-x="444" 
d="M284 538h189l-85 -538h-190l10 60c-24 -32 -64 -71 -117 -71h-5c-69 0 -109 63 -96 144l44 275c13 79 52 136 116 136h6c61 0 89 -34 118 -72zM222 149l36 231c3 13 1 27 -14 27c-13 0 -17 -11 -20 -27l-37 -231c-3 -13 -1 -28 14 -28s18 13 21 28zM265 608
c21 -1 37 13 37 36c0 21 -16 36 -37 36s-37 -15 -37 -36c0 -23 16 -37 37 -36zM265 556c-53 0 -93 36 -93 89c0 52 40 87 93 87s93 -35 93 -87c0 -53 -40 -89 -93 -89z" />
    <glyph glyph-name="aringacute.alt" horiz-adv-x="414" 
d="M189 750l72 157h148l-78 -157h-142zM247 615c21 -1 37 13 37 36c0 21 -16 36 -37 36s-37 -15 -37 -36c0 -23 16 -37 37 -36zM247 563c-53 0 -93 36 -93 89c0 52 40 87 93 87s93 -35 93 -87c0 -53 -40 -89 -93 -89zM187 61c-16 -29 -60 -69 -116 -69h-3
c-64 0 -95 50 -84 119l13 82c11 65 30 98 91 125c32 16 118 41 135 49c11 4 11 6 14 19l3 20c3 15 1 25 -14 25h-2c-13 0 -15 -9 -18 -24l-7 -40h-169l7 41c11 72 44 142 184 142h21c149 0 193 -56 180 -144l-41 -259c-13 -87 -17 -116 -12 -142l-1 -5h-174
c-7 8 -11 26 -7 61zM180 118c10 0 16 7 18 21l18 113c-7 -3 -17 -8 -24 -15c-8 -7 -13 -17 -15 -30l-11 -69c-2 -13 3 -20 14 -20z" />
    <glyph glyph-name="aringacute.alt2" horiz-adv-x="444" 
d="M265 608c21 -1 37 13 37 36c0 21 -16 36 -37 36s-37 -15 -37 -36c0 -23 16 -37 37 -36zM265 556c-53 0 -93 36 -93 89c0 52 40 87 93 87s93 -35 93 -87c0 -53 -40 -89 -93 -89zM209 744l72 157h148l-78 -157h-142zM284 538h189l-85 -538h-190l10 60
c-24 -32 -64 -71 -117 -71h-5c-69 0 -109 63 -96 144l44 275c13 79 52 136 116 136h6c61 0 89 -34 118 -72zM222 149l36 231c3 13 1 27 -14 27c-13 0 -17 -11 -20 -27l-37 -231c-3 -13 -1 -28 14 -28s18 13 21 28z" />
    <glyph glyph-name="atilde.alt" horiz-adv-x="414" 
d="M301 689l4 25h96l-13 -82c-7 -39 -26 -67 -73 -67h-2c-20 0 -41 7 -64 20c-15 9 -24 16 -31 16s-9 -7 -10 -14l-4 -25h-96l12 76c7 44 25 73 72 73h3c23 0 37 -8 64 -24c13 -8 22 -15 30 -15c6 0 10 6 12 17zM187 61c-16 -29 -60 -69 -116 -69h-3c-64 0 -95 50 -84 119
l13 82c11 65 30 98 91 125c32 16 118 41 135 49c11 4 11 6 14 19l3 20c3 15 1 25 -14 25h-2c-13 0 -15 -9 -18 -24l-7 -40h-169l7 41c11 72 44 142 184 142h21c149 0 193 -56 180 -144l-41 -259c-13 -87 -17 -116 -12 -142l-1 -5h-174c-7 8 -11 26 -7 61zM180 118
c10 0 16 7 18 21l18 113c-7 -3 -17 -8 -24 -15c-8 -7 -13 -17 -15 -30l-11 -69c-2 -13 3 -20 14 -20z" />
    <glyph glyph-name="atilde.alt2" horiz-adv-x="444" 
d="M284 538h189l-85 -538h-190l10 60c-24 -32 -64 -71 -117 -71h-5c-69 0 -109 63 -96 144l44 275c13 79 52 136 116 136h6c61 0 89 -34 118 -72zM222 149l36 231c3 13 1 27 -14 27c-13 0 -17 -11 -20 -27l-37 -231c-3 -13 -1 -28 14 -28s18 13 21 28zM322 683l4 25h96
l-13 -82c-7 -39 -26 -67 -73 -67h-2c-20 0 -41 7 -64 20c-15 9 -24 16 -31 16s-9 -7 -10 -14l-4 -25h-96l12 76c7 44 25 73 72 73h3c23 0 37 -8 64 -24c13 -8 22 -15 30 -15c6 0 10 6 12 17z" />
    <glyph glyph-name="racute.alt" horiz-adv-x="341" 
d="M244 538l-16 -93c24 55 59 97 106 97h6c13 0 28 -3 33 -4l-34 -216c-8 3 -26 7 -59 7h-8c-45 0 -62 -14 -67 -45l-45 -284h-190l86 538h188zM155 558l72 157h148l-78 -157h-142z" />
    <glyph glyph-name="rcaron.alt" horiz-adv-x="341" 
d="M244 538l-16 -93c24 55 59 97 106 97h6c13 0 28 -3 33 -4l-34 -216c-8 3 -26 7 -59 7h-8c-45 0 -62 -14 -67 -45l-45 -284h-190l86 538h188zM148 558l-54 157h123l15 -67l32 67h123l-91 -157h-148z" />
    <glyph glyph-name="rcommaaccent.alt" horiz-adv-x="341" 
d="M244 538l-16 -93c24 55 59 97 106 97h6c13 0 28 -3 33 -4l-34 -216c-8 3 -26 7 -59 7h-8c-45 0 -62 -14 -67 -45l-45 -284h-190l86 538h188zM81 -220h-78c11 25 20 49 25 74h-60l20 126h148l-13 -84c-8 -50 -31 -97 -42 -116z" />
    <glyph glyph-name="space_uni0326.alt" 
d="M196 758h78c-11 -25 -20 -49 -25 -74h60l-20 -126h-148l13 84c8 49 31 97 42 116z" />
    <glyph glyph-name="ordfeminine.alt" horiz-adv-x="259" 
d="M169 470c-13 -17 -38 -39 -73 -39h-1c-39 0 -59 30 -52 67l7 45c7 41 24 59 55 71c26 10 72 23 83 28c5 1 7 5 8 10l2 13c2 11 -1 16 -9 16s-10 -5 -11 -13l-4 -25h-104l4 26c8 42 25 81 114 81h13c92 0 116 -38 108 -90l-22 -141c-8 -50 -10 -65 -7 -81l-1 -3h-106
c-3 5 -7 16 -4 35zM163 502c7 0 10 5 11 12l10 63c-7 -3 -13 -5 -17 -9c-3 -3 -6 -9 -7 -17l-6 -37c-1 -8 2 -12 9 -12z" />
    <glyph glyph-name="ordfeminine.alt2" horiz-adv-x="270" 
d="M221 744h112l-49 -309h-112l6 36c-15 -19 -36 -43 -71 -43h-3c-43 0 -64 37 -56 88l24 151c7 45 29 80 69 80h4c37 0 54 -19 70 -42zM186 523l20 127c2 12 -1 18 -8 18s-11 -5 -13 -16l-20 -127c-2 -13 1 -19 8 -19s11 6 13 17z" />
    <glyph glyph-name="emdash.alt" horiz-adv-x="1310" 
d="M1291 242h-1282l19 117h1282z" />
    <glyph glyph-name="caron.alt" 
d="M157 578l34 166h119l-39 -166h-114z" />
    <glyph glyph-name="plus.uc" horiz-adv-x="346" 
d="M99 175l17 114h-99l16 106h100l18 114h117l-18 -114h101l-16 -106h-102l-17 -114h-117z" />
    <glyph glyph-name="minus.uc" horiz-adv-x="335" 
d="M33 395h307l-16 -106h-307z" />
    <glyph glyph-name="multiply.uc" horiz-adv-x="315" 
d="M227 186l-66 79l-88 -79l-65 77l89 80l-66 81l83 74l66 -80l88 80l66 -78l-89 -80l66 -80z" />
    <glyph glyph-name="divide.uc" horiz-adv-x="346" 
d="M34 395h318l-17 -106h-318zM272 530l-19 -117h-115l19 117h115zM231 270l-19 -116h-115l18 116h116z" />
    <glyph glyph-name="equal.uc" horiz-adv-x="343" 
d="M26 334h311l-17 -103h-311zM45 453h311l-16 -103h-311z" />
    <glyph glyph-name="less.uc" horiz-adv-x="300" 
d="M34 397l288 109l-20 -122l-143 -41l131 -43l-20 -123l-254 110z" />
    <glyph glyph-name="greater.uc" horiz-adv-x="300" 
d="M288 287l-287 -110l20 128l144 41l-131 40l19 120l254 -109z" />
    <glyph glyph-name="questiondown.uc" horiz-adv-x="412" 
d="M194 538h140l-13 -78c-8 -42 -14 -65 -44 -103l-72 -87c-15 -19 -18 -31 -22 -58l-8 -50c-3 -19 2 -29 15 -29c15 0 17 10 20 27l17 108h171l-18 -112c-13 -80 -45 -165 -183 -165h-42c-137 0 -182 70 -169 167l7 46c11 64 24 100 66 142l97 97c23 23 28 35 33 64z
M187 564l28 180h162l-28 -180h-162z" />
    <glyph glyph-name="exclamdown.uc" horiz-adv-x="214" 
d="M69 564l28 180h162l-28 -180h-162zM163 0h-205l134 538h106z" />
    <glyph glyph-name="hyphen.uc" horiz-adv-x="218" 
d="M39 427h190l-28 -174h-190z" />
    <glyph glyph-name="endash.uc" horiz-adv-x="447" 
d="M35 400h419l-19 -117h-419z" />
    <glyph glyph-name="emdash.uc" horiz-adv-x="669" 
d="M35 400h641l-19 -117h-641z" />
    <glyph glyph-name="guilsinglleft.uc" horiz-adv-x="208" 
d="M154 305l24 -173h-143l-26 140l12 73l66 137h145z" />
    <glyph glyph-name="guilsinglright.uc" horiz-adv-x="208" 
d="M62 311l-25 171h143l26 -137l-12 -74l-65 -139h-146z" />
    <glyph glyph-name="guillemotleft.uc" horiz-adv-x="358" 
d="M382 482l-82 -177l27 -173h-134l-30 175l80 175h139zM226 482l-82 -175l32 -175h-133l-34 140l13 73l71 137h133z" />
    <glyph glyph-name="guillemotright.uc" horiz-adv-x="358" 
d="M138 132l87 173l-34 177h134l31 -139l-13 -73l-65 -138h-140zM-18 132l91 175l-33 175h134l33 -177l-86 -173h-139z" />
    <glyph glyph-name="parenleft.uc" horiz-adv-x="232" 
d="M180 -81h-107c-16 37 -58 154 -58 277c0 273 103 478 202 620h108c-67 -136 -159 -434 -159 -681c0 -81 9 -175 14 -216z" />
    <glyph glyph-name="parenright.uc" horiz-adv-x="232" 
d="M82 816h108c16 -40 59 -154 59 -278c0 -272 -104 -479 -204 -619h-107c67 136 158 433 158 680c0 82 -9 174 -14 217z" />
    <glyph glyph-name="bracketleft.uc" horiz-adv-x="222" 
d="M301 817l-21 -130h-53l-102 -638h54l-20 -129h-201l142 897h201z" />
    <glyph glyph-name="bracketright.uc" horiz-adv-x="222" 
d="M-51 -80l22 129h52l102 638h-53l20 130h201l-143 -897h-201z" />
    <glyph glyph-name="braceleft.uc" horiz-adv-x="240" 
d="M178 -80h-72c-75 0 -117 30 -117 93c0 66 71 199 71 255c0 25 -12 37 -37 37h-7l18 121h25c40 0 39 34 39 69c0 51 -5 123 -5 161c0 108 35 162 134 162h93l-20 -122h-31c-33 0 -38 -16 -38 -61c0 -48 5 -110 5 -153c-1 -65 -30 -104 -87 -117c39 -12 55 -37 55 -76
c0 -52 -61 -171 -61 -211c0 -20 10 -36 41 -36h12z" />
    <glyph glyph-name="braceright.uc" horiz-adv-x="241" 
d="M92 818h72c75 0 117 -31 117 -94c0 -66 -71 -199 -71 -255c0 -25 12 -37 37 -37h8l-19 -120h-25c-38 0 -39 -35 -39 -70c0 -51 5 -124 5 -161c0 -108 -35 -161 -134 -161h-92l19 122h31c33 0 39 15 39 60c0 47 -5 111 -5 153c0 64 29 103 87 117c-37 13 -56 38 -56 76
c0 53 61 173 61 211c0 20 -10 37 -41 37h-12z" />
    <glyph glyph-name="slash.uc" horiz-adv-x="255" 
d="M342 816l-275 -897h-126l275 897h126z" />
    <glyph glyph-name="backslash.uc" horiz-adv-x="255" 
d="M90 -81l-11 897h119l11 -897h-119z" />
    <glyph glyph-name="bar.uc" horiz-adv-x="253" 
d="M204 816v-897h-123v897h123z" />
    <glyph glyph-name="at.uc" horiz-adv-x="701" 
d="M515 72l54 -69c-40 -43 -123 -96 -243 -96h-1c-149 0 -359 58 -307 391l15 94c40 245 158 393 386 393h2c213 0 331 -98 296 -324l-12 -76c-37 -230 -101 -295 -212 -295h-15c-72 0 -111 37 -123 69c-21 -31 -64 -69 -110 -69h-4c-64 0 -107 60 -91 136l53 251
c16 76 55 117 104 117h6c53 0 85 -30 105 -63l12 59h172l-82 -380c-3 -15 -2 -27 11 -27c27 0 51 71 71 202l12 76c29 181 -48 236 -192 236h-1c-156 0 -248 -97 -281 -306l-15 -94c-44 -273 109 -301 200 -301h1c92 0 160 47 189 76zM350 220l52 240c4 19 -1 24 -12 24
s-13 -8 -16 -24l-51 -239c-3 -13 0 -20 11 -20c7 0 13 6 16 19z" />
    <glyph glyph-name="grave.uc" 
d="M303 895l27 -131h-142l-32 131h147z" />
    <glyph glyph-name="dieresis.uc" 
d="M394 764h-132l21 131h132zM240 764h-132l21 131h132z" />
    <glyph glyph-name="macron.uc" 
d="M127 771l18 112h247l-17 -112h-248z" />
    <glyph glyph-name="acute.uc" 
d="M150 764l69 131h153l-74 -131h-148z" />
    <glyph glyph-name="circumflex.uc" 
d="M191 895h153l58 -131h-126l-19 46l-32 -46h-128z" />
    <glyph glyph-name="caron.uc" 
d="M328 764h-152l-58 131h125l19 -47l32 47h129z" />
    <glyph glyph-name="breve.uc" 
d="M254 759h-4c-95 0 -133 54 -125 121l2 14h109c-4 -21 3 -36 20 -36h1c21 0 27 13 30 36h110l-1 -11c-7 -77 -51 -124 -142 -124z" />
    <glyph glyph-name="dotaccent.uc" 
d="M345 764h-190l25 157h190z" />
    <glyph glyph-name="ring.uc" 
d="M260 811c21 -1 37 13 37 36c0 21 -16 36 -37 36s-37 -15 -37 -36c0 -23 16 -37 37 -36zM260 759c-53 0 -93 36 -93 89c0 52 40 87 93 87s93 -35 93 -87c0 -53 -40 -89 -93 -89z" />
    <glyph glyph-name="tilde.uc" 
d="M306 886l3 19h99l-11 -69c-7 -39 -27 -70 -70 -70h-4c-23 0 -36 7 -67 19c-17 7 -23 9 -30 9c-6 0 -10 -5 -11 -14l-3 -18h-97l11 70c7 39 24 70 68 70h4c23 0 38 -7 67 -20c16 -7 23 -10 30 -10c8 0 10 7 11 14z" />
    <glyph glyph-name="hungarumlaut.uc" 
d="M372 764h-119l56 131h123zM111 764l53 131h123l-55 -131h-121z" />
    <glyph glyph-name="emdash.altuc" horiz-adv-x="1310" 
d="M1298 283h-1282l19 117h1282z" />
    <glyph glyph-name="f.short" horiz-adv-x="321" 
d="M387 744l-24 -146h-38c-13 0 -16 -3 -19 -18l-7 -42h55l-24 -153h-55l-61 -385h-190l61 385h-60l25 153h60l16 103c11 72 52 103 108 103h153z" />
    <glyph glyph-name="f_f.short" horiz-adv-x="583" 
d="M496 744h153l-24 -146h-38c-13 0 -16 -3 -19 -18l-7 -42h55l-24 -153h-55l-61 -385h-190l61 385h-72l-61 -385h-190l61 385h-60l25 153h60l16 103c11 72 52 103 108 103h153l-24 -146h-38c-13 0 -16 -3 -19 -18l-7 -42h73l16 103c11 72 52 103 108 103z" />
    <glyph glyph-name="j.short" horiz-adv-x="216" 
d="M-68 -24h17c15 0 17 6 20 18l87 544h190l-102 -638c-9 -56 -45 -88 -90 -88h-148zM274 715l-25 -157h-190l25 157h190z" />
    <glyph glyph-name="brokenbar" unicode="&#xa6;" horiz-adv-x="253" 
d="M204 347v-478h-123v478h123zM204 808v-429h-123v429h123z" />
    <glyph glyph-name="onequarter" unicode="&#xbc;" horiz-adv-x="449" 
d="M105 616h-42l14 89c35 0 55 13 60 39h106l-54 -343h-118zM400 744h102l-435 -744h-101zM176 46l14 84c27 54 81 153 110 214h128l-32 -200h29l-15 -98h-29l-7 -46h-112l7 46h-93zM262 144h22l12 71z" />
    <glyph glyph-name="onehalf" unicode="&#xbd;" horiz-adv-x="499" 
d="M400 744h102l-435 -744h-101zM105 616h-42l14 89c35 0 55 13 60 39h106l-54 -343h-118zM453 0h-252l9 56c8 37 13 59 109 131c43 32 48 40 51 57l2 13c1 9 -1 13 -7 13c-9 0 -10 -6 -11 -13l-6 -35h-108l5 29c8 50 29 98 117 98h18c88 0 118 -33 110 -93l-1 -9
c-8 -53 -34 -77 -102 -112c-65 -38 -66 -40 -69 -49h52l6 37h96z" />
    <glyph glyph-name="threequarters" unicode="&#xbe;" horiz-adv-x="516" 
d="M467 744h102l-435 -744h-101zM174 632h-108l6 33c8 48 35 85 117 85h15c76 0 118 -26 109 -81l-2 -14c-7 -37 -29 -53 -48 -58c18 -8 43 -25 35 -77l-3 -21c-11 -67 -46 -106 -131 -106h-17c-93 0 -113 44 -105 92l6 42h112l-7 -36c-1 -7 2 -11 9 -11c5 0 8 4 9 11l6 37
c1 7 -2 11 -8 11h-50l13 83h48c7 0 10 3 11 10l5 30c1 7 -2 11 -8 11c-5 0 -8 -4 -9 -11zM243 46l14 84c27 54 81 153 110 214h128l-32 -200h29l-15 -98h-29l-7 -46h-112l7 46h-93zM329 144h22l12 71z" />
    <glyph glyph-name="Eth" unicode="&#xd0;" horiz-adv-x="473" 
d="M57 472l43 272h269c90 0 156 -53 137 -178l-61 -385c-20 -129 -79 -181 -162 -181h-301l48 302h-21l26 170h22zM223 302l-22 -139h19c19 0 25 10 29 37l56 350c3 21 0 35 -19 35h-18l-18 -113h29l-27 -170h-29z" />
    <glyph glyph-name="multiply" unicode="&#xd7;" horiz-adv-x="315" 
d="M221 147l-66 79l-88 -79l-65 77l89 80l-66 81l83 74l66 -80l88 80l66 -78l-89 -80l66 -80z" />
    <glyph glyph-name="Yacute" unicode="&#xdd;" horiz-adv-x="423" 
d="M504 744l-192 -475l-41 -269h-195l43 268l-51 476h189l-1 -226l70 226h178zM215 764l69 131h153l-74 -131h-148z" />
    <glyph glyph-name="Thorn" unicode="&#xde;" horiz-adv-x="448" 
d="M293 171h-100l-27 -171h-194l118 744h194l-21 -133h75c80 0 148 -44 129 -156l-21 -134c-16 -100 -72 -150 -153 -150zM240 469l-23 -149h14c17 0 21 8 25 32l14 89c4 19 -2 28 -17 28h-13z" />
    <glyph glyph-name="eth" unicode="&#xf0;" horiz-adv-x="441" 
d="M109 553l15 95l68 18l-34 78h183l16 -35l88 23l-15 -95l-35 -9l26 -54c29 -64 39 -110 25 -195l-31 -199c-19 -110 -88 -193 -214 -193h-22c-144 0 -201 76 -182 189l32 201c16 101 55 163 127 163h8c51 0 86 -28 107 -51l-43 95zM221 158l35 221c3 19 1 31 -15 31
c-17 0 -20 -11 -23 -30l-35 -219c-3 -20 2 -30 15 -30c15 0 20 8 23 27z" />
    <glyph glyph-name="yacute" unicode="&#xfd;" horiz-adv-x="416" 
d="M75 50l-36 488h185l-12 -274l60 274h190l-226 -642c-23 -64 -59 -84 -95 -84h-170l25 155h59c13 0 19 7 20 21l1 14c1 15 2 21 -1 48zM174 558l72 157h148l-78 -157h-142z" />
    <glyph glyph-name="thorn" unicode="&#xfe;" horiz-adv-x="444" 
d="M89 744h190l-44 -277c35 45 77 79 124 79h6c72 0 103 -57 88 -146l-43 -273c-13 -83 -62 -138 -127 -138h-3c-47 0 -84 22 -111 66l-38 -243h-190zM222 387l-39 -243c-3 -15 0 -26 15 -26s18 11 21 26l38 243c3 15 -1 26 -14 26c-15 0 -18 -11 -21 -26z" />
    <glyph glyph-name="Amacron" unicode="&#x100;" horiz-adv-x="438" 
d="M210 0l5 92h-71l-23 -92h-168l212 744h245l-12 -744h-188zM185 259h39l10 195zM167 771l18 112h247l-17 -112h-248z" />
    <glyph glyph-name="amacron" unicode="&#x101;" horiz-adv-x="429" 
d="M-16 111l13 82c11 65 30 98 91 125c32 16 118 41 135 49c11 4 11 6 14 19l3 20c3 15 1 25 -14 25h-2c-13 0 -15 -9 -18 -24l-7 -40h-169l7 41c11 72 44 142 184 142h21c149 0 193 -56 180 -144l-39 -246c-1 -7 2 -11 9 -11h15l-24 -149h-159c-28 0 -42 25 -37 61
c-16 -29 -60 -69 -116 -69h-3c-64 0 -95 50 -84 119zM180 118c10 0 16 7 18 21l18 113c-7 -3 -17 -8 -24 -15c-8 -7 -13 -17 -15 -30l-11 -69c-2 -13 3 -20 14 -20zM125 570l18 113h245l-18 -113h-245z" />
    <glyph glyph-name="Abreve" unicode="&#x102;" horiz-adv-x="438" 
d="M210 0l5 92h-71l-23 -92h-168l212 744h245l-12 -744h-188zM185 259h39l10 195zM295 759h-4c-95 0 -133 54 -125 121l2 14h109c-4 -21 3 -36 20 -36h1c21 0 27 13 30 36h110l-1 -11c-7 -77 -51 -124 -142 -124z" />
    <glyph glyph-name="abreve" unicode="&#x103;" horiz-adv-x="429" 
d="M-16 111l13 82c11 65 30 98 91 125c32 16 118 41 135 49c11 4 11 6 14 19l3 20c3 15 1 25 -14 25h-2c-13 0 -15 -9 -18 -24l-7 -40h-169l7 41c11 72 44 142 184 142h21c149 0 193 -56 180 -144l-39 -246c-1 -7 2 -11 9 -11h15l-24 -149h-159c-28 0 -42 25 -37 61
c-16 -29 -60 -69 -116 -69h-3c-64 0 -95 50 -84 119zM180 118c10 0 16 7 18 21l18 113c-7 -3 -17 -8 -24 -15c-8 -7 -13 -17 -15 -30l-11 -69c-2 -13 3 -20 14 -20zM250 561h-4c-97 0 -134 56 -122 131l2 13h110l-1 -7c-3 -19 1 -37 20 -37h1c17 0 24 12 28 37l1 7h112
l-2 -13c-13 -75 -49 -131 -145 -131z" />
    <glyph glyph-name="Aogonek" unicode="&#x104;" horiz-adv-x="438" 
d="M210 0l5 92h-71l-23 -92h-168l212 744h245l-12 -744h-188zM185 259h39l10 195zM369 -188h-74c-56 0 -88 22 -88 62v1c0 40 26 78 113 125h78c-39 -39 -53 -55 -53 -74c0 -11 9 -17 26 -17h13z" />
    <glyph glyph-name="aogonek" unicode="&#x105;" horiz-adv-x="429" 
d="M-16 111l13 82c11 65 30 98 91 125c32 16 118 41 135 49c11 4 11 6 14 19l3 20c3 15 1 25 -14 25h-2c-13 0 -15 -9 -18 -24l-7 -40h-169l7 41c11 72 44 142 184 142h21c149 0 193 -56 180 -144l-39 -246c-1 -7 2 -11 9 -11h15l-24 -149h-159c-28 0 -42 25 -37 61
c-16 -29 -60 -69 -116 -69h-3c-64 0 -95 50 -84 119zM180 118c10 0 16 7 18 21l18 113c-7 -3 -17 -8 -24 -15c-8 -7 -13 -17 -15 -30l-11 -69c-2 -13 3 -20 14 -20zM354 -188h-74c-56 0 -88 22 -88 62v1c0 40 26 78 113 125h78c-39 -39 -53 -55 -53 -74c0 -11 9 -17 26 -17
h13z" />
    <glyph glyph-name="Cacute" unicode="&#x106;" horiz-adv-x="457" 
d="M228 770l66 125h153l-71 -125h-148zM241 190l21 131h191l-22 -139c-16 -95 -65 -193 -206 -193h-32c-155 0 -212 86 -189 225l53 333c21 131 79 208 224 208h32c140 0 195 -79 179 -187l-18 -114h-191l17 108c3 19 2 30 -17 30c-15 0 -19 -10 -22 -30l-60 -376
c-3 -19 2 -29 17 -29c16 0 19 14 23 33z" />
    <glyph glyph-name="cacute" unicode="&#x107;" horiz-adv-x="409" 
d="M177 565l69 150h148l-75 -150h-142zM225 242h170l-15 -94c-15 -95 -71 -161 -184 -161h-34c-111 0 -187 55 -166 187l31 196c16 101 60 181 194 181h37c129 0 175 -67 159 -168l-10 -63h-170l13 81c2 13 -2 20 -12 20c-9 0 -14 -6 -16 -17l-41 -259c-3 -12 1 -21 12 -21
c9 0 14 6 16 18z" />
    <glyph glyph-name="Ccircumflex" unicode="&#x108;" horiz-adv-x="457" 
d="M250 895h153l59 -125h-126l-20 40l-31 -40h-128zM241 190l21 131h191l-22 -139c-16 -95 -65 -193 -206 -193h-32c-155 0 -212 86 -189 225l53 333c21 131 79 208 224 208h32c140 0 195 -79 179 -187l-18 -114h-191l17 108c3 19 2 30 -17 30c-15 0 -19 -10 -22 -30
l-60 -376c-3 -19 2 -29 17 -29c16 0 19 14 23 33z" />
    <glyph glyph-name="ccircumflex" unicode="&#x109;" horiz-adv-x="409" 
d="M346 715l55 -150h-123l-16 60l-31 -60h-123l90 150h148zM225 242h170l-15 -94c-15 -95 -71 -161 -184 -161h-34c-111 0 -187 55 -166 187l31 196c16 101 60 181 194 181h37c129 0 175 -67 159 -168l-10 -63h-170l13 81c2 13 -2 20 -12 20c-9 0 -14 -6 -16 -17l-41 -259
c-3 -12 1 -21 12 -21c9 0 14 6 16 18z" />
    <glyph glyph-name="Cdotaccent" unicode="&#x10a;" horiz-adv-x="457" 
d="M398 770h-190l24 151h190zM241 190l21 131h191l-22 -139c-16 -95 -65 -193 -206 -193h-32c-155 0 -212 86 -189 225l53 333c21 131 79 208 224 208h32c140 0 195 -79 179 -187l-18 -114h-191l17 108c3 19 2 30 -17 30c-15 0 -19 -10 -22 -30l-60 -376
c-3 -19 2 -29 17 -29c16 0 19 14 23 33z" />
    <glyph glyph-name="cdotaccent" unicode="&#x10b;" horiz-adv-x="409" 
d="M364 715l-24 -150h-190l24 150h190zM225 242h170l-15 -94c-15 -95 -71 -161 -184 -161h-34c-111 0 -187 55 -166 187l31 196c16 101 60 181 194 181h37c129 0 175 -67 159 -168l-10 -63h-170l13 81c2 13 -2 20 -12 20c-9 0 -14 -6 -16 -17l-41 -259c-3 -12 1 -21 12 -21
c9 0 14 6 16 18z" />
    <glyph glyph-name="Ccaron" unicode="&#x10c;" horiz-adv-x="457" 
d="M381 770h-162l-56 125h127l19 -47l32 47h131zM241 190l21 131h191l-22 -139c-16 -95 -65 -193 -206 -193h-32c-155 0 -212 86 -189 225l53 333c21 131 79 208 224 208h32c140 0 195 -79 179 -187l-18 -114h-191l17 108c3 19 2 30 -17 30c-15 0 -19 -10 -22 -30l-60 -376
c-3 -19 2 -29 17 -29c16 0 19 14 23 33z" />
    <glyph glyph-name="ccaron" unicode="&#x10d;" horiz-adv-x="409" 
d="M169 565l-53 150h123l15 -67l32 67h123l-88 -150h-152zM225 242h170l-15 -94c-15 -95 -71 -161 -184 -161h-34c-111 0 -187 55 -166 187l31 196c16 101 60 181 194 181h37c129 0 175 -67 159 -168l-10 -63h-170l13 81c2 13 -2 20 -12 20c-9 0 -14 -6 -16 -17l-41 -259
c-3 -12 1 -21 12 -21c9 0 14 6 16 18z" />
    <glyph glyph-name="Dcaron" unicode="&#x10e;" horiz-adv-x="462" 
d="M-28 0l118 744h269c90 0 156 -53 137 -178l-61 -385c-20 -129 -79 -181 -162 -181h-301zM258 585l-67 -422h19c19 0 25 10 29 37l56 350c3 21 0 35 -19 35h-18zM358 764h-152l-58 131h125l19 -47l32 47h129z" />
    <glyph glyph-name="dcaron" unicode="&#x10f;" horiz-adv-x="446" 
d="M495 578l34 166h119l-39 -166h-114zM319 744h189l-118 -744h-189l10 60c-24 -32 -67 -71 -119 -71h-5c-71 0 -110 66 -97 142l44 277c12 79 53 136 117 136h6c62 0 90 -35 119 -72zM224 149l37 231c3 12 1 27 -16 27c-15 0 -18 -11 -21 -27l-37 -231
c-3 -15 -1 -28 15 -28s19 13 22 28z" />
    <glyph glyph-name="Dcroat" unicode="&#x110;" horiz-adv-x="473" 
d="M57 472l43 272h269c90 0 156 -53 137 -178l-61 -385c-20 -129 -79 -181 -162 -181h-301l48 302h-21l26 170h22zM223 302l-22 -139h19c19 0 25 10 29 37l56 350c3 21 0 35 -19 35h-18l-18 -113h29l-27 -170h-29z" />
    <glyph glyph-name="dcroat" unicode="&#x111;" horiz-adv-x="446" 
d="M210 567l22 134h295l-21 -134h-296zM319 744h189l-118 -744h-189l10 60c-24 -32 -67 -71 -119 -71h-5c-71 0 -110 66 -97 142l44 277c12 79 53 136 117 136h6c62 0 90 -35 119 -72zM224 149l37 231c3 12 1 27 -16 27c-15 0 -18 -11 -21 -27l-37 -231
c-3 -15 -1 -28 15 -28s19 13 22 28z" />
    <glyph glyph-name="Emacron" unicode="&#x112;" horiz-adv-x="367" 
d="M90 744h337l-28 -179h-143l-14 -89h118l-29 -183h-119l-18 -112h149l-29 -181h-342zM141 771l18 112h247l-17 -112h-248z" />
    <glyph glyph-name="emacron" unicode="&#x113;" horiz-adv-x="421" 
d="M225 551h38c107 0 184 -57 163 -189l-18 -113h-215l-17 -108c-3 -17 2 -26 14 -26c15 0 19 9 22 28l11 70h179l-7 -44c-19 -113 -70 -182 -193 -182h-38c-125 0 -187 66 -168 187l30 189c19 120 74 188 199 188zM218 406l-9 -55h35l9 57c3 19 1 29 -15 29
c-15 0 -17 -12 -20 -31zM130 571l18 113h245l-18 -113h-245z" />
    <glyph glyph-name="Ebreve" unicode="&#x114;" horiz-adv-x="367" 
d="M90 744h337l-28 -179h-143l-14 -89h118l-29 -183h-119l-18 -112h149l-29 -181h-342zM270 759h-4c-95 0 -133 54 -125 121l2 14h109c-4 -21 3 -36 20 -36h1c21 0 27 13 30 36h110l-1 -11c-7 -77 -51 -124 -142 -124z" />
    <glyph glyph-name="ebreve" unicode="&#x115;" horiz-adv-x="421" 
d="M225 551h38c107 0 184 -57 163 -189l-18 -113h-215l-17 -108c-3 -17 2 -26 14 -26c15 0 19 9 22 28l11 70h179l-7 -44c-19 -113 -70 -182 -193 -182h-38c-125 0 -187 66 -168 187l30 189c19 120 74 188 199 188zM218 406l-9 -55h35l9 57c3 19 1 29 -15 29
c-15 0 -17 -12 -20 -31zM258 562h-4c-97 0 -134 56 -122 131l2 13h110l-1 -7c-3 -19 1 -37 20 -37h1c17 0 24 12 28 37l1 7h112l-2 -13c-13 -75 -49 -131 -145 -131z" />
    <glyph glyph-name="Edotaccent" unicode="&#x116;" horiz-adv-x="367" 
d="M90 744h337l-28 -179h-143l-14 -89h118l-29 -183h-119l-18 -112h149l-29 -181h-342zM357 764h-190l25 157h190z" />
    <glyph glyph-name="edotaccent" unicode="&#x117;" horiz-adv-x="421" 
d="M371 715l-24 -150h-190l24 150h190zM225 551h38c107 0 184 -57 163 -189l-18 -113h-215l-17 -108c-3 -17 2 -26 14 -26c15 0 19 9 22 28l11 70h179l-7 -44c-19 -113 -70 -182 -193 -182h-38c-125 0 -187 66 -168 187l30 189c19 120 74 188 199 188zM218 406l-9 -55h35
l9 57c3 19 1 29 -15 29c-15 0 -17 -12 -20 -31z" />
    <glyph glyph-name="Eogonek" unicode="&#x118;" horiz-adv-x="367" 
d="M90 744h337l-28 -179h-143l-14 -89h118l-29 -183h-119l-18 -112h149l-29 -181h-342zM239 -188h-74c-56 0 -88 22 -88 62v1c0 40 26 78 113 125h78c-39 -39 -53 -55 -53 -74c0 -11 9 -17 26 -17h13z" />
    <glyph glyph-name="eogonek" unicode="&#x119;" horiz-adv-x="421" 
d="M309 1c-39 -39 -54 -56 -54 -75c0 -11 9 -17 26 -17h13l-15 -97h-74c-56 0 -88 22 -88 62v1c0 37 22 72 94 112h-9h-38c-125 0 -187 66 -168 187l30 189c19 120 74 188 199 188h38c107 0 184 -57 163 -189l-18 -113h-215l-17 -108c-3 -17 2 -26 14 -26c15 0 19 9 22 28
l11 70h179l-7 -44c-12 -75 -35 -117 -86 -168zM218 406l-9 -55h35l9 57c3 19 1 29 -15 29c-15 0 -17 -12 -20 -31z" />
    <glyph glyph-name="Ecaron" unicode="&#x11a;" horiz-adv-x="367" 
d="M90 744h337l-28 -179h-143l-14 -89h118l-29 -183h-119l-18 -112h149l-29 -181h-342zM338 764h-152l-58 131h125l19 -47l32 47h129z" />
    <glyph glyph-name="ecaron" unicode="&#x11b;" horiz-adv-x="421" 
d="M175 565l-53 150h123l15 -67l32 67h123l-88 -150h-152zM225 551h38c107 0 184 -57 163 -189l-18 -113h-215l-17 -108c-3 -17 2 -26 14 -26c15 0 19 9 22 28l11 70h179l-7 -44c-19 -113 -70 -182 -193 -182h-38c-125 0 -187 66 -168 187l30 189c19 120 74 188 199 188z
M218 406l-9 -55h35l9 57c3 19 1 29 -15 29c-15 0 -17 -12 -20 -31z" />
    <glyph glyph-name="Gcircumflex" unicode="&#x11c;" horiz-adv-x="470" 
d="M244 895h153l59 -125h-126l-20 40l-31 -40h-128zM140 -11h-7c-104 0 -151 86 -132 205l56 355c19 112 66 206 224 206h28c153 0 201 -97 185 -191l-14 -85h-187l13 83c3 20 0 32 -19 32s-24 -11 -27 -30l-60 -382c-4 -25 3 -37 22 -37s30 12 34 35l19 117h-43l24 148h229
l-71 -445h-132c0 14 -5 56 -8 66c-24 -35 -73 -77 -134 -77z" />
    <glyph glyph-name="gcircumflex" unicode="&#x11d;" horiz-adv-x="443" 
d="M191 -44l17 104c-21 -26 -58 -69 -118 -69c-64 0 -115 54 -99 145l44 276c11 66 44 132 117 132h6c61 0 92 -42 116 -71l10 65h188l-91 -577c-16 -100 -80 -157 -199 -157h-46c-127 0 -179 56 -167 133l7 45h185l-4 -26c-2 -14 3 -21 14 -21h2c12 0 15 8 18 21zM219 141
l39 242c3 15 -1 25 -16 25s-16 -10 -19 -21l-39 -244c-3 -15 1 -26 17 -26c13 0 15 11 18 24zM357 715l54 -157h-123l-15 67l-32 -67h-123l91 157h148z" />
    <glyph glyph-name="Gbreve" unicode="&#x11e;" horiz-adv-x="470" 
d="M140 -11h-7c-104 0 -151 86 -132 205l56 355c19 112 66 206 224 206h28c153 0 201 -97 185 -191l-14 -85h-187l13 83c3 20 0 32 -19 32s-24 -11 -27 -30l-60 -382c-4 -25 3 -37 22 -37s30 12 34 35l19 117h-43l24 148h229l-71 -445h-132c0 14 -5 56 -8 66
c-24 -35 -73 -77 -134 -77zM305 765h-4c-95 0 -133 54 -125 121l2 14h109c-4 -21 3 -36 20 -36h1c21 0 27 13 30 36h110l-1 -11c-7 -77 -51 -124 -142 -124z" />
    <glyph glyph-name="gbreve" unicode="&#x11f;" horiz-adv-x="443" 
d="M191 -44l17 104c-21 -26 -58 -69 -118 -69c-64 0 -115 54 -99 145l44 276c11 66 44 132 117 132h6c61 0 92 -42 116 -71l10 65h188l-91 -577c-16 -100 -80 -157 -199 -157h-46c-127 0 -179 56 -167 133l7 45h185l-4 -26c-2 -14 3 -21 14 -21h2c12 0 15 8 18 21zM219 141
l39 242c3 15 -1 25 -16 25s-16 -10 -19 -21l-39 -244c-3 -15 1 -26 17 -26c13 0 15 11 18 24zM269 555h-4c-97 0 -134 56 -122 131l2 13h110l-1 -7c-3 -19 1 -37 20 -37h1c17 0 24 12 28 37l1 7h112l-2 -13c-13 -75 -49 -131 -145 -131z" />
    <glyph glyph-name="Gdotaccent" unicode="&#x120;" horiz-adv-x="470" 
d="M399 770h-190l24 151h190zM140 -11h-7c-104 0 -151 86 -132 205l56 355c19 112 66 206 224 206h28c153 0 201 -97 185 -191l-14 -85h-187l13 83c3 20 0 32 -19 32s-24 -11 -27 -30l-60 -382c-4 -25 3 -37 22 -37s30 12 34 35l19 117h-43l24 148h229l-71 -445h-132
c0 14 -5 56 -8 66c-24 -35 -73 -77 -134 -77z" />
    <glyph glyph-name="gdotaccent" unicode="&#x121;" horiz-adv-x="443" 
d="M191 -44l17 104c-21 -26 -58 -69 -118 -69c-64 0 -115 54 -99 145l44 276c11 66 44 132 117 132h6c61 0 92 -42 116 -71l10 65h188l-91 -577c-16 -100 -80 -157 -199 -157h-46c-127 0 -179 56 -167 133l7 45h185l-4 -26c-2 -14 3 -21 14 -21h2c12 0 15 8 18 21zM219 141
l39 242c3 15 -1 25 -16 25s-16 -10 -19 -21l-39 -244c-3 -15 1 -26 17 -26c13 0 15 11 18 24zM382 715l-25 -157h-190l25 157h190z" />
    <glyph glyph-name="uni0122" unicode="&#x122;" horiz-adv-x="470" 
d="M140 -11h-7c-104 0 -151 86 -132 205l56 355c19 112 66 206 224 206h28c153 0 201 -97 185 -191l-14 -85h-187l13 83c3 20 0 32 -19 32s-24 -11 -27 -30l-60 -382c-4 -25 3 -37 22 -37s30 12 34 35l19 117h-43l24 148h229l-71 -445h-132c0 14 -5 56 -8 66
c-24 -35 -73 -77 -134 -77zM215 -224h-78c11 25 20 49 25 74h-60l20 126h148l-13 -84c-8 -50 -31 -97 -42 -116z" />
    <glyph glyph-name="uni0123" unicode="&#x123;" horiz-adv-x="443" 
d="M191 -44l17 104c-21 -26 -58 -69 -118 -69c-64 0 -115 54 -99 145l44 276c11 66 44 132 117 132h6c61 0 92 -42 116 -71l10 65h188l-91 -577c-16 -100 -80 -157 -199 -157h-46c-127 0 -179 56 -167 133l7 45h185l-4 -26c-2 -14 3 -21 14 -21h2c12 0 15 8 18 21zM219 141
l39 242c3 15 -1 25 -16 25s-16 -10 -19 -21l-39 -244c-3 -15 1 -26 17 -26c13 0 15 11 18 24zM233 758h78c-11 -25 -20 -49 -25 -74h60l-20 -126h-148l13 84c8 49 31 97 42 116z" />
    <glyph glyph-name="Hcircumflex" unicode="&#x124;" horiz-adv-x="461" 
d="M211 285l-45 -285h-194l118 744h194l-41 -254h43l41 254h194l-118 -744h-194l45 285h-43zM249 895h153l58 -131h-126l-19 46l-32 -46h-128z" />
    <glyph glyph-name="hcircumflex" unicode="&#x125;" horiz-adv-x="446" 
d="M-30 0l118 744h190l-44 -274c23 31 65 76 127 76h8c77 0 96 -68 88 -121l-67 -425h-192l59 375c3 15 -1 26 -17 26s-18 -12 -21 -27l-59 -374h-190zM205 895h153l58 -131h-126l-19 46l-32 -46h-128z" />
    <glyph glyph-name="Hbar" unicode="&#x126;" horiz-adv-x="471" 
d="M46 549l19 125h467l-19 -125h-467zM216 285l-45 -285h-194l118 744h194l-41 -254h43l41 254h194l-118 -744h-194l45 285h-43z" />
    <glyph glyph-name="hbar" unicode="&#x127;" horiz-adv-x="446" 
d="M34 567l21 134h296l-22 -134h-295zM-30 0l118 744h190l-44 -274c23 31 65 76 127 76h8c77 0 96 -68 88 -121l-67 -425h-192l59 375c3 15 -1 26 -17 26s-18 -12 -21 -27l-59 -374h-190z" />
    <glyph glyph-name="Itilde" unicode="&#x128;" horiz-adv-x="224" 
d="M284 744l-118 -744h-194l118 744h194zM246 886l3 19h99l-11 -69c-7 -39 -27 -70 -70 -70h-4c-23 0 -36 7 -67 19c-17 7 -23 9 -30 9c-6 0 -10 -5 -11 -14l-3 -18h-97l11 70c7 39 24 70 68 70h4c23 0 38 -7 67 -20c16 -7 23 -10 30 -10c8 0 10 7 11 14z" />
    <glyph glyph-name="itilde" unicode="&#x129;" horiz-adv-x="216" 
d="M206 683l4 25h87l-12 -75c-7 -40 -22 -74 -65 -74h-2c-16 0 -35 8 -57 23c-13 9 -19 15 -26 15c-5 0 -8 -3 -9 -10l-5 -31h-87l12 75c7 47 22 74 65 74h2c17 0 33 -8 57 -24c12 -8 19 -14 26 -14c5 0 8 5 10 16zM246 538l-86 -538h-190l86 538h190z" />
    <glyph glyph-name="Imacron" unicode="&#x12a;" horiz-adv-x="224" 
d="M284 744l-118 -744h-194l118 744h194zM67 771l18 112h247l-17 -112h-248z" />
    <glyph glyph-name="imacron" unicode="&#x12b;" horiz-adv-x="216" 
d="M46 564l18 113h217l-18 -113h-217zM246 538l-86 -538h-190l86 538h190z" />
    <glyph glyph-name="Ibreve" unicode="&#x12c;" horiz-adv-x="224" 
d="M284 744l-118 -744h-194l118 744h194zM199 759h-4c-95 0 -133 54 -125 121l2 14h109c-4 -21 3 -36 20 -36h1c21 0 27 13 30 36h110l-1 -11c-7 -77 -51 -124 -142 -124z" />
    <glyph glyph-name="ibreve" unicode="&#x12d;" horiz-adv-x="216" 
d="M164 555h-4c-85 0 -120 50 -109 114l5 32h100l-3 -19c-3 -19 3 -29 19 -29c13 0 18 10 21 29l3 19h100l-4 -26c-11 -63 -35 -120 -128 -120zM246 538l-86 -538h-190l86 538h190z" />
    <glyph glyph-name="Iogonek" unicode="&#x12e;" horiz-adv-x="224" 
d="M284 744l-118 -744h-194l118 744h194zM137 -188h-74c-56 0 -88 22 -88 62v1c0 40 26 78 113 125h78c-39 -39 -53 -55 -53 -74c0 -11 9 -17 26 -17h13z" />
    <glyph glyph-name="iogonek" unicode="&#x12f;" horiz-adv-x="216" 
d="M246 538l-86 -538h-190l86 538h190zM274 715l-25 -157h-190l25 157h190zM131 -188h-74c-56 0 -88 22 -88 62v1c0 40 26 78 113 125h78c-39 -39 -53 -55 -53 -74c0 -11 9 -17 26 -17h13z" />
    <glyph glyph-name="Idotaccent" unicode="&#x130;" horiz-adv-x="224" 
d="M284 744l-118 -744h-194l118 744h194zM285 764h-190l25 157h190z" />
    <glyph glyph-name="IJ" unicode="&#x132;" horiz-adv-x="655" 
d="M284 744l-118 -744h-194l118 744h194zM241 338h178l-27 -164c-2 -13 3 -19 15 -19c10 0 16 7 18 20l91 569h199l-92 -580c-16 -100 -63 -175 -186 -175h-68c-132 0 -172 77 -156 173z" />
    <glyph glyph-name="ij" unicode="&#x133;" horiz-adv-x="428" 
d="M246 538l-86 -538h-190l86 538h190zM274 715l-25 -157h-190l25 157h190zM125 -24h36c15 0 17 6 20 18l87 544h190l-102 -638c-9 -56 -45 -88 -90 -88h-167zM486 715l-25 -157h-190l25 157h190z" />
    <glyph glyph-name="Jcircumflex" unicode="&#x134;" horiz-adv-x="435" 
d="M21 338h178l-27 -164c-2 -13 3 -19 15 -19c10 0 16 7 18 20l91 569h199l-92 -580c-16 -100 -63 -175 -186 -175h-68c-132 0 -172 77 -156 173zM335 895h153l58 -131h-126l-19 46l-32 -46h-128z" />
    <glyph glyph-name="jcircumflex" unicode="&#x135;" horiz-adv-x="216" 
d="M248 715l29 -157h-106l-9 72l-28 -72h-108l71 157h151zM-87 -24h36c15 0 17 6 20 18l87 544h190l-102 -638c-9 -56 -45 -88 -90 -88h-167z" />
    <glyph glyph-name="uni0136" unicode="&#x136;" horiz-adv-x="466" 
d="M245 501l104 243h194l-146 -342l30 -402h-203l-15 274l-43 -274h-194l118 744h194zM215 -220h-78c11 25 20 49 25 74h-60l20 126h148l-13 -84c-8 -50 -31 -97 -42 -116z" />
    <glyph glyph-name="uni0137" unicode="&#x137;" horiz-adv-x="429" 
d="M219 377l71 161h176l-104 -222l28 -316h-182l-16 203l-32 -203h-190l118 744h190zM203 -220h-78c11 25 20 49 25 74h-60l20 126h148l-13 -84c-8 -50 -31 -97 -42 -116z" />
    <glyph glyph-name="Lacute" unicode="&#x139;" horiz-adv-x="345" 
d="M90 744h194l-89 -559h126l-29 -185h-320zM116 764l69 131h153l-74 -131h-148z" />
    <glyph glyph-name="lacute" unicode="&#x13a;" horiz-adv-x="216" 
d="M278 744l-118 -744h-190l118 744h190zM111 764l69 131h153l-74 -131h-148z" />
    <glyph glyph-name="uni013B" unicode="&#x13b;" horiz-adv-x="345" 
d="M90 744h194l-89 -559h126l-29 -185h-320zM147 -220h-78c11 25 20 49 25 74h-60l20 126h148l-13 -84c-8 -50 -31 -97 -42 -116z" />
    <glyph glyph-name="uni013C" unicode="&#x13c;" horiz-adv-x="216" 
d="M278 744l-118 -744h-190l118 744h190zM84 -220h-78c11 25 20 49 25 74h-60l20 126h148l-13 -84c-8 -50 -31 -97 -42 -116z" />
    <glyph glyph-name="Lcaron" unicode="&#x13d;" horiz-adv-x="345" 
d="M271 578l34 166h119l-39 -166h-114zM90 744h194l-89 -559h126l-29 -185h-320z" />
    <glyph glyph-name="lcaron" unicode="&#x13e;" horiz-adv-x="216" 
d="M265 578l34 166h119l-39 -166h-114zM278 744l-118 -744h-190l118 744h190z" />
    <glyph glyph-name="Ldot" unicode="&#x13f;" horiz-adv-x="392" 
d="M420 479l-28 -180h-162l28 180h162zM90 744h194l-89 -559h126l-29 -185h-320z" />
    <glyph glyph-name="ldot" unicode="&#x140;" horiz-adv-x="389" 
d="M414 476l-29 -179h-162l29 179h162zM278 744l-118 -744h-190l118 744h190z" />
    <glyph glyph-name="Lslash" unicode="&#x141;" horiz-adv-x="359" 
d="M104 744h194l-43 -266l83 51l-24 -147l-82 -49l-23 -148h126l-29 -185h-320l32 206l-25 -15l24 140l23 14z" />
    <glyph glyph-name="lslash" unicode="&#x142;" horiz-adv-x="250" 
d="M239 394l-62 -394h-190l44 279l-27 -15l21 134l27 15l53 331h190l-34 -215l27 15l-21 -135z" />
    <glyph glyph-name="Nacute" unicode="&#x143;" horiz-adv-x="461" 
d="M90 744h192l21 -345l55 345h163l-118 -744h-175l-31 374l-60 -374h-165zM233 764l69 131h153l-74 -131h-148z" />
    <glyph glyph-name="nacute" unicode="&#x144;" horiz-adv-x="446" 
d="M-30 0l86 538h188l-12 -71c27 35 67 79 129 79h8c79 0 96 -67 88 -123l-67 -423h-192l59 372c3 19 -2 29 -17 29s-18 -10 -21 -29l-59 -372h-190zM193 558l72 157h148l-78 -157h-142z" />
    <glyph glyph-name="uni0145" unicode="&#x145;" horiz-adv-x="461" 
d="M90 744h192l21 -345l55 345h163l-118 -744h-175l-31 374l-60 -374h-165zM204 -220h-78c11 25 20 49 25 74h-60l20 126h148l-13 -84c-8 -50 -31 -97 -42 -116z" />
    <glyph glyph-name="uni0146" unicode="&#x146;" horiz-adv-x="446" 
d="M-30 0l86 538h188l-12 -71c27 35 67 79 129 79h8c79 0 96 -67 88 -123l-67 -423h-192l59 372c3 19 -2 29 -17 29s-18 -10 -21 -29l-59 -372h-190zM201 -220h-78c11 25 20 49 25 74h-60l20 126h148l-13 -84c-8 -50 -31 -97 -42 -116z" />
    <glyph glyph-name="Ncaron" unicode="&#x147;" horiz-adv-x="461" 
d="M90 744h192l21 -345l55 345h163l-118 -744h-175l-31 374l-60 -374h-165zM382 764h-152l-58 131h125l19 -47l32 47h129z" />
    <glyph glyph-name="ncaron" unicode="&#x148;" horiz-adv-x="446" 
d="M-30 0l86 538h188l-12 -71c27 35 67 79 129 79h8c79 0 96 -67 88 -123l-67 -423h-192l59 372c3 19 -2 29 -17 29s-18 -10 -21 -29l-59 -372h-190zM193 558l-54 157h123l15 -67l32 67h123l-91 -157h-148z" />
    <glyph glyph-name="napostrophe" unicode="&#x149;" horiz-adv-x="574" 
d="M98 0l86 538h188l-12 -71c27 35 67 79 129 79h8c79 0 96 -67 88 -123l-67 -423h-192l59 372c3 19 -2 29 -17 29s-18 -10 -21 -29l-59 -372h-190zM212 744l-17 -107c-11 -71 -40 -124 -52 -144h-88c12 23 33 67 40 99h-56l24 152h149z" />
    <glyph glyph-name="Eng" unicode="&#x14a;" horiz-adv-x="461" 
d="M149 -188l23 143h43c15 0 19 5 22 24l3 21l-44 367l-59 -367h-165l118 744h191l22 -345l54 345h164l-127 -805c-15 -88 -50 -127 -111 -127h-134z" />
    <glyph glyph-name="eng" unicode="&#x14b;" horiz-adv-x="447" 
d="M457 424l-81 -521c-11 -63 -47 -91 -90 -91h-144l26 164h11c13 0 15 3 18 18l60 381c3 15 -1 26 -17 26c-17 0 -18 -12 -21 -27l-59 -374h-190l86 538h188l-12 -71c27 35 67 79 129 79h8c79 0 96 -69 88 -122z" />
    <glyph glyph-name="Omacron" unicode="&#x14c;" horiz-adv-x="475" 
d="M284 581c-17 0 -22 -11 -26 -34l-56 -352c-3 -19 3 -29 20 -29c15 0 23 9 26 28l56 353c3 23 -3 34 -20 34zM279 755h32c148 0 212 -91 191 -232l-49 -310c-23 -145 -96 -224 -224 -224h-33c-143 0 -214 80 -191 229l48 305c24 144 78 232 226 232zM188 777l18 112h247
l-17 -112h-248z" />
    <glyph glyph-name="omacron" unicode="&#x14d;" horiz-adv-x="442" 
d="M211 -13h-32c-135 0 -200 75 -179 208l24 151c23 139 83 205 208 205h31c135 0 200 -72 179 -205l-24 -151c-21 -132 -83 -208 -207 -208zM242 410c-17 0 -20 -12 -23 -31l-34 -215c-3 -19 0 -33 16 -33c15 0 19 13 22 32l34 215c3 19 2 32 -15 32zM139 571l18 113h245
l-18 -113h-245z" />
    <glyph glyph-name="Obreve" unicode="&#x14e;" horiz-adv-x="475" 
d="M284 581c-17 0 -22 -11 -26 -34l-56 -352c-3 -19 3 -29 20 -29c15 0 23 9 26 28l56 353c3 23 -3 34 -20 34zM279 755h32c148 0 212 -91 191 -232l-49 -310c-23 -145 -96 -224 -224 -224h-33c-143 0 -214 80 -191 229l48 305c24 144 78 232 226 232zM323 765h-4
c-95 0 -133 54 -125 121l2 14h109c-4 -21 3 -36 20 -36h1c21 0 27 13 30 36h110l-1 -11c-7 -77 -51 -124 -142 -124z" />
    <glyph glyph-name="obreve" unicode="&#x14f;" horiz-adv-x="442" 
d="M211 -13h-32c-135 0 -200 75 -179 208l24 151c23 139 83 205 208 205h31c135 0 200 -72 179 -205l-24 -151c-21 -132 -83 -208 -207 -208zM242 410c-17 0 -20 -12 -23 -31l-34 -215c-3 -19 0 -33 16 -33c15 0 19 13 22 32l34 215c3 19 2 32 -15 32zM270 562h-4
c-97 0 -134 56 -122 131l2 13h110l-1 -7c-3 -19 1 -37 20 -37h1c17 0 24 12 28 37l1 7h112l-2 -13c-13 -75 -49 -131 -145 -131z" />
    <glyph glyph-name="Ohungarumlaut" unicode="&#x150;" horiz-adv-x="475" 
d="M441 770h-119l54 125h123zM180 770l51 125h123l-53 -125h-121zM284 581c-17 0 -22 -11 -26 -34l-56 -352c-3 -19 3 -29 20 -29c15 0 23 9 26 28l56 353c3 23 -3 34 -20 34zM279 755h32c148 0 212 -91 191 -232l-49 -310c-23 -145 -96 -224 -224 -224h-33
c-143 0 -214 80 -191 229l48 305c24 144 78 232 226 232z" />
    <glyph glyph-name="ohungarumlaut" unicode="&#x151;" horiz-adv-x="442" 
d="M395 565h-119l57 150h119zM134 565l56 150h120l-56 -150h-120zM211 -13h-32c-135 0 -200 75 -179 208l24 151c23 139 83 205 208 205h31c135 0 200 -72 179 -205l-24 -151c-21 -132 -83 -208 -207 -208zM242 410c-17 0 -20 -12 -23 -31l-34 -215c-3 -19 0 -33 16 -33
c15 0 19 13 22 32l34 215c3 19 2 32 -15 32z" />
    <glyph glyph-name="Racute" unicode="&#x154;" horiz-adv-x="456" 
d="M212 290l-46 -290h-194l118 744h290c65 0 129 -44 113 -139l-12 -74c-12 -76 -46 -112 -89 -128c32 -16 61 -53 52 -117l-36 -227c-4 -27 -2 -42 2 -54l-1 -5h-191c-7 8 -11 26 -7 54l33 209c3 16 1 27 -18 27h-14zM261 602l-24 -152h19c13 0 20 9 22 26l16 99
c3 19 -1 27 -17 27h-16zM218 764l69 131h153l-74 -131h-148z" />
    <glyph glyph-name="racute" unicode="&#x155;" horiz-adv-x="404" 
d="M244 538l-11 -71c16 27 59 75 110 75h12c52 0 76 -38 67 -91l-29 -184h-166l19 120c2 13 -2 19 -11 19c-7 0 -12 -6 -14 -17l-61 -389h-190l86 538h188zM182 558l72 157h148l-78 -157h-142z" />
    <glyph glyph-name="uni0156" unicode="&#x156;" horiz-adv-x="456" 
d="M212 290l-46 -290h-194l118 744h290c65 0 129 -44 113 -139l-12 -74c-12 -76 -46 -112 -89 -128c32 -16 61 -53 52 -117l-36 -227c-4 -27 -2 -42 2 -54l-1 -5h-191c-7 8 -11 26 -7 54l33 209c3 16 1 27 -18 27h-14zM261 602l-24 -152h19c13 0 20 9 22 26l16 99
c3 19 -1 27 -17 27h-16zM206 -220h-78c11 25 20 49 25 74h-60l20 126h148l-13 -84c-8 -50 -31 -97 -42 -116z" />
    <glyph glyph-name="uni0157" unicode="&#x157;" horiz-adv-x="404" 
d="M244 538l-11 -71c16 27 59 75 110 75h12c52 0 76 -38 67 -91l-29 -184h-166l19 120c2 13 -2 19 -11 19c-7 0 -12 -6 -14 -17l-61 -389h-190l86 538h188zM83 -220h-78c11 25 20 49 25 74h-60l20 126h148l-13 -84c-8 -50 -31 -97 -42 -116z" />
    <glyph glyph-name="Rcaron" unicode="&#x158;" horiz-adv-x="456" 
d="M212 290l-46 -290h-194l118 744h290c65 0 129 -44 113 -139l-12 -74c-12 -76 -46 -112 -89 -128c32 -16 61 -53 52 -117l-36 -227c-4 -27 -2 -42 2 -54l-1 -5h-191c-7 8 -11 26 -7 54l33 209c3 16 1 27 -18 27h-14zM261 602l-24 -152h19c13 0 20 9 22 26l16 99
c3 19 -1 27 -17 27h-16zM365 764h-152l-58 131h125l19 -47l32 47h129z" />
    <glyph glyph-name="rcaron" unicode="&#x159;" horiz-adv-x="404" 
d="M244 538l-11 -71c16 27 59 75 110 75h12c52 0 76 -38 67 -91l-29 -184h-166l19 120c2 13 -2 19 -11 19c-7 0 -12 -6 -14 -17l-61 -389h-190l86 538h188zM181 558l-54 157h123l15 -67l32 67h123l-91 -157h-148z" />
    <glyph glyph-name="Sacute" unicode="&#x15a;" horiz-adv-x="457" 
d="M231 770l66 125h153l-71 -125h-148zM219 -11h-47c-128 0 -198 67 -179 186l14 92h190l-13 -85c-4 -20 2 -33 18 -33s20 10 24 33l4 25c7 37 -2 50 -30 79l-59 62c-72 76 -92 140 -81 211l5 32c16 101 75 164 207 164h45c141 0 187 -74 173 -158l-13 -76h-184l10 65
c2 16 -4 24 -18 24c-15 0 -19 -7 -22 -26l-3 -19c-4 -23 2 -37 23 -60l61 -62c85 -88 108 -147 97 -224l-6 -38c-19 -120 -76 -192 -216 -192z" />
    <glyph glyph-name="sacute" unicode="&#x15b;" horiz-adv-x="394" 
d="M165 565l69 150h148l-75 -150h-142zM177 -13h-40c-102 0 -169 47 -153 147l8 52h167l-9 -53c-3 -15 4 -22 15 -22h1c11 0 17 8 19 23l3 19c3 21 -6 29 -21 41l-58 42c-68 49 -88 102 -79 166l3 20c16 98 86 129 176 129h40c95 0 167 -31 151 -129l-7 -41h-163l6 40
c3 13 -2 20 -13 20s-13 -6 -16 -18l-3 -19c-3 -15 3 -21 18 -32l63 -46c66 -47 97 -91 84 -173l-3 -19c-15 -100 -78 -147 -189 -147z" />
    <glyph glyph-name="Scircumflex" unicode="&#x15c;" horiz-adv-x="457" 
d="M250 895h153l59 -125h-126l-20 40l-31 -40h-128zM219 -11h-47c-128 0 -198 67 -179 186l14 92h190l-13 -85c-4 -20 2 -33 18 -33s20 10 24 33l4 25c7 37 -2 50 -30 79l-59 62c-72 76 -92 140 -81 211l5 32c16 101 75 164 207 164h45c141 0 187 -74 173 -158l-13 -76h-184
l10 65c2 16 -4 24 -18 24c-15 0 -19 -7 -22 -26l-3 -19c-4 -23 2 -37 23 -60l61 -62c85 -88 108 -147 97 -224l-6 -38c-19 -120 -76 -192 -216 -192z" />
    <glyph glyph-name="scircumflex" unicode="&#x15d;" horiz-adv-x="394" 
d="M332 715l55 -150h-123l-16 60l-31 -60h-123l90 150h148zM177 -13h-40c-102 0 -169 47 -153 147l8 52h167l-9 -53c-3 -15 4 -22 15 -22h1c11 0 17 8 19 23l3 19c3 21 -6 29 -21 41l-58 42c-68 49 -88 102 -79 166l3 20c16 98 86 129 176 129h40c95 0 167 -31 151 -129
l-7 -41h-163l6 40c3 13 -2 20 -13 20s-13 -6 -16 -18l-3 -19c-3 -15 3 -21 18 -32l63 -46c66 -47 97 -91 84 -173l-3 -19c-15 -100 -78 -147 -189 -147z" />
    <glyph glyph-name="uni015E" unicode="&#x15e;" horiz-adv-x="457" 
d="M219 -11h-47c-128 0 -198 67 -179 186l14 92h190l-13 -85c-4 -20 2 -33 18 -33s20 10 24 33l4 25c7 37 -2 50 -30 79l-59 62c-72 76 -92 140 -81 211l5 32c16 101 75 164 207 164h45c141 0 187 -74 173 -158l-13 -76h-184l10 65c2 16 -4 24 -18 24c-15 0 -19 -7 -22 -26
l-3 -19c-4 -23 2 -37 23 -60l61 -62c85 -88 108 -147 97 -224l-6 -38c-19 -120 -76 -192 -216 -192zM158 -202h-97l12 76h68c13 0 20 5 20 14s-6 14 -19 14h-50l17 98h76l-6 -33h1c59 0 91 -24 91 -73c0 -60 -41 -96 -113 -96z" />
    <glyph glyph-name="uni015F" unicode="&#x15f;" horiz-adv-x="394" 
d="M177 -13h-40c-102 0 -169 47 -153 147l8 52h167l-9 -53c-3 -15 4 -22 15 -22h1c11 0 17 8 19 23l3 19c3 21 -6 29 -21 41l-58 42c-68 49 -88 102 -79 166l3 20c16 98 86 129 176 129h40c95 0 167 -31 151 -129l-7 -41h-163l6 40c3 13 -2 20 -13 20s-13 -6 -16 -18l-3 -19
c-3 -15 3 -21 18 -32l63 -46c66 -47 97 -91 84 -173l-3 -19c-15 -100 -78 -147 -189 -147zM133 -202h-97l12 76h68c13 0 20 5 20 14s-6 14 -19 14h-50l17 98h76l-6 -33h1c59 0 91 -24 91 -73c0 -60 -41 -96 -113 -96z" />
    <glyph glyph-name="Scaron" unicode="&#x160;" horiz-adv-x="457" 
d="M219 -11h-47c-128 0 -198 67 -179 186l14 92h190l-13 -85c-4 -20 2 -33 18 -33s20 10 24 33l4 25c7 37 -2 50 -30 79l-59 62c-72 76 -92 140 -81 211l5 32c16 101 75 164 207 164h45c141 0 187 -74 173 -158l-13 -76h-184l10 65c2 16 -4 24 -18 24c-15 0 -19 -7 -22 -26
l-3 -19c-4 -23 2 -37 23 -60l61 -62c85 -88 108 -147 97 -224l-6 -38c-19 -120 -76 -192 -216 -192zM383 764h-152l-58 131h125l19 -47l32 47h129z" />
    <glyph glyph-name="scaron" unicode="&#x161;" horiz-adv-x="394" 
d="M177 -13h-40c-102 0 -169 47 -153 147l8 52h167l-9 -53c-3 -15 4 -22 15 -22h1c11 0 17 8 19 23l3 19c3 21 -6 29 -21 41l-58 42c-68 49 -88 102 -79 166l3 20c16 98 86 129 176 129h40c95 0 167 -31 151 -129l-7 -41h-163l6 40c3 13 -2 20 -13 20s-13 -6 -16 -18l-3 -19
c-3 -15 3 -21 18 -32l63 -46c66 -47 97 -91 84 -173l-3 -19c-15 -100 -78 -147 -189 -147zM166 558l-54 157h123l15 -67l32 67h123l-91 -157h-148z" />
    <glyph glyph-name="Tcommaaccent" unicode="&#x162;" horiz-adv-x="390" 
d="M86 744h369l-28 -179h-89l-89 -565h-193l89 565h-88zM170 -220h-78c11 25 20 49 25 74h-60l20 126h148l-13 -84c-8 -50 -31 -97 -42 -116z" />
    <glyph glyph-name="tcommaaccent" unicode="&#x163;" horiz-adv-x="318" 
d="M265 0h-169c-35 0 -69 24 -61 78l48 307h-58l24 153h59l28 179h189l-28 -179h54l-24 -153h-54l-34 -211c-2 -12 3 -18 14 -18h37zM162 -220h-78c11 25 20 49 25 74h-60l20 126h148l-13 -84c-8 -50 -31 -97 -42 -116z" />
    <glyph glyph-name="Tcaron" unicode="&#x164;" horiz-adv-x="390" 
d="M86 744h369l-28 -179h-89l-89 -565h-193l89 565h-88zM344 764h-152l-58 131h125l19 -47l32 47h129z" />
    <glyph glyph-name="tcaron" unicode="&#x165;" horiz-adv-x="318" 
d="M317 578l34 166h119l-39 -166h-114zM265 0h-169c-35 0 -69 24 -61 78l48 307h-58l24 153h59l28 179h189l-28 -179h54l-24 -153h-54l-34 -211c-2 -12 3 -18 14 -18h37z" />
    <glyph glyph-name="Tbar" unicode="&#x166;" horiz-adv-x="390" 
d="M358 310h-313l24 151h313zM86 744h369l-28 -179h-89l-89 -565h-193l89 565h-88z" />
    <glyph glyph-name="tbar" unicode="&#x167;" horiz-adv-x="318" 
d="M265 0h-169c-35 0 -69 24 -61 78l23 146h-58l20 128h58l5 33h-58l25 153h58l28 179h189l-28 -179h54l-25 -153h-53l-6 -33h55l-20 -128h-55l-8 -50c-2 -12 3 -18 14 -18h37z" />
    <glyph glyph-name="Utilde" unicode="&#x168;" horiz-adv-x="475" 
d="M3 193l87 551h201l-85 -540c-3 -20 2 -30 17 -30c13 0 22 10 25 30l84 540h203l-87 -551c-19 -112 -81 -206 -223 -206h-30c-149 0 -211 86 -192 206zM372 886l3 19h99l-11 -69c-7 -39 -27 -70 -70 -70h-4c-23 0 -36 7 -67 19c-17 7 -23 9 -30 9c-6 0 -10 -5 -11 -14
l-3 -18h-97l11 70c7 39 24 70 68 70h4c23 0 38 -7 67 -20c16 -7 23 -10 30 -10c8 0 10 7 11 14z" />
    <glyph glyph-name="utilde" unicode="&#x169;" horiz-adv-x="446" 
d="M475 538l-85 -538h-188l11 71c-24 -35 -68 -79 -126 -79h-9c-77 0 -97 69 -89 122l67 424h192l-59 -375c-3 -13 0 -26 16 -26c17 1 18 14 21 27l59 374h190zM326 683l4 25h96l-13 -82c-7 -39 -26 -67 -73 -67h-2c-20 0 -41 7 -64 20c-15 9 -24 16 -31 16s-9 -7 -10 -14
l-4 -25h-96l12 76c7 44 25 73 72 73h3c23 0 37 -8 64 -24c13 -8 22 -15 30 -15c6 0 10 6 12 17z" />
    <glyph glyph-name="Umacron" unicode="&#x16a;" horiz-adv-x="475" 
d="M3 193l87 551h201l-85 -540c-3 -20 2 -30 17 -30c13 0 22 10 25 30l84 540h203l-87 -551c-19 -112 -81 -206 -223 -206h-30c-149 0 -211 86 -192 206zM192 771l18 112h247l-17 -112h-248z" />
    <glyph glyph-name="umacron" unicode="&#x16b;" horiz-adv-x="446" 
d="M475 538l-85 -538h-188l11 71c-24 -35 -68 -79 -126 -79h-9c-77 0 -97 69 -89 122l67 424h192l-59 -375c-3 -13 0 -26 16 -26c17 1 18 14 21 27l59 374h190zM146 564l18 113h245l-18 -113h-245z" />
    <glyph glyph-name="Ubreve" unicode="&#x16c;" horiz-adv-x="475" 
d="M3 193l87 551h201l-85 -540c-3 -20 2 -30 17 -30c13 0 22 10 25 30l84 540h203l-87 -551c-19 -112 -81 -206 -223 -206h-30c-149 0 -211 86 -192 206zM323 759h-4c-95 0 -133 54 -125 121l2 14h109c-4 -21 3 -36 20 -36h1c21 0 27 13 30 36h110l-1 -11
c-7 -77 -51 -124 -142 -124z" />
    <glyph glyph-name="ubreve" unicode="&#x16d;" horiz-adv-x="446" 
d="M475 538l-85 -538h-188l11 71c-24 -35 -68 -79 -126 -79h-9c-77 0 -97 69 -89 122l67 424h192l-59 -375c-3 -13 0 -26 16 -26c17 1 18 14 21 27l59 374h190zM276 555h-4c-97 0 -134 56 -122 131l2 13h110l-1 -7c-3 -19 1 -37 20 -37h1c17 0 24 12 28 37l1 7h112l-2 -13
c-13 -75 -49 -131 -145 -131z" />
    <glyph glyph-name="Uring" unicode="&#x16e;" horiz-adv-x="475" 
d="M3 193l87 551h201l-85 -540c-3 -20 2 -30 17 -30c13 0 22 10 25 30l84 540h203l-87 -551c-19 -112 -81 -206 -223 -206h-30c-149 0 -211 86 -192 206zM321 811c21 -1 37 13 37 36c0 21 -16 36 -37 36s-37 -15 -37 -36c0 -23 16 -37 37 -36zM321 759c-53 0 -93 36 -93 89
c0 52 40 87 93 87s93 -35 93 -87c0 -53 -40 -89 -93 -89z" />
    <glyph glyph-name="uring" unicode="&#x16f;" horiz-adv-x="446" 
d="M475 538l-85 -538h-188l11 71c-24 -35 -68 -79 -126 -79h-9c-77 0 -97 69 -89 122l67 424h192l-59 -375c-3 -13 0 -26 16 -26c17 1 18 14 21 27l59 374h190zM274 608c21 -1 37 13 37 36c0 21 -16 36 -37 36s-37 -15 -37 -36c0 -23 16 -37 37 -36zM274 556
c-53 0 -93 36 -93 89c0 52 40 87 93 87s93 -35 93 -87c0 -53 -40 -89 -93 -89z" />
    <glyph glyph-name="Uhungarumlaut" unicode="&#x170;" horiz-adv-x="475" 
d="M3 193l87 551h201l-85 -540c-3 -20 2 -30 17 -30c13 0 22 10 25 30l84 540h203l-87 -551c-19 -112 -81 -206 -223 -206h-30c-149 0 -211 86 -192 206zM444 764h-119l56 131h123zM183 764l53 131h123l-55 -131h-121z" />
    <glyph glyph-name="uhungarumlaut" unicode="&#x171;" horiz-adv-x="446" 
d="M475 538l-85 -538h-188l11 71c-24 -35 -68 -79 -126 -79h-9c-77 0 -97 69 -89 122l67 424h192l-59 -375c-3 -13 0 -26 16 -26c17 1 18 14 21 27l59 374h190zM397 558h-119l59 157h119zM136 558l58 157h120l-58 -157h-120z" />
    <glyph glyph-name="Uogonek" unicode="&#x172;" horiz-adv-x="475" 
d="M338 7c-43 -33 -66 -58 -66 -81c0 -11 9 -17 26 -17h13l-15 -97h-74c-56 0 -88 22 -88 62v1c0 37 23 75 98 112h-7h-30c-149 0 -211 86 -192 206l87 551h201l-85 -540c-3 -20 2 -30 17 -30c13 0 22 10 25 30l84 540h203l-87 -551c-19 -113 -70 -154 -110 -186z" />
    <glyph glyph-name="uogonek" unicode="&#x173;" horiz-adv-x="446" 
d="M475 538l-85 -538h-188l11 71c-24 -35 -68 -79 -126 -79h-9c-77 0 -97 69 -89 122l67 424h192l-59 -375c-3 -13 0 -26 16 -26c17 1 18 14 21 27l59 374h190zM361 -188h-74c-56 0 -88 22 -88 62v1c0 40 26 78 113 125h78c-39 -39 -53 -55 -53 -74c0 -11 9 -17 26 -17h13z
" />
    <glyph glyph-name="Wcircumflex" unicode="&#x174;" horiz-adv-x="669" 
d="M323 744h179l-25 -433l81 433h190l-197 -744h-216l22 367l-71 -367h-227l12 744h195l-34 -429zM354 895h153l58 -131h-126l-19 46l-32 -46h-128z" />
    <glyph glyph-name="wcircumflex" unicode="&#x175;" horiz-adv-x="623" 
d="M255 0h-211l-5 538h185l-23 -309l68 309h170l-20 -303l65 303h185l-168 -538h-202l13 252zM447 715l54 -157h-123l-15 67l-32 -67h-123l91 157h148z" />
    <glyph glyph-name="Ycircumflex" unicode="&#x176;" horiz-adv-x="423" 
d="M504 744l-192 -475l-41 -269h-195l43 268l-51 476h189l-1 -226l70 226h178zM232 895h153l58 -131h-126l-19 46l-32 -46h-128z" />
    <glyph glyph-name="ycircumflex" unicode="&#x177;" horiz-adv-x="416" 
d="M75 50l-36 488h185l-12 -274l60 274h190l-226 -642c-23 -64 -59 -84 -95 -84h-170l25 155h59c13 0 19 7 20 21l1 14c1 15 2 21 -1 48zM342 715l54 -157h-123l-15 67l-32 -67h-123l91 157h148z" />
    <glyph glyph-name="Zacute" unicode="&#x179;" horiz-adv-x="394" 
d="M90 744h363l-27 -163l-214 -401h157l-28 -180h-374l25 163l221 403h-151zM194 764l69 131h153l-74 -131h-148z" />
    <glyph glyph-name="zacute" unicode="&#x17a;" horiz-adv-x="348" 
d="M58 538h318l-21 -136l-159 -245h124l-25 -157h-327l22 137l165 253h-121zM142 558l72 157h148l-78 -157h-142z" />
    <glyph glyph-name="Zdotaccent" unicode="&#x17b;" horiz-adv-x="394" 
d="M90 744h363l-27 -163l-214 -401h157l-28 -180h-374l25 163l221 403h-151zM366 764h-190l25 157h190z" />
    <glyph glyph-name="zdotaccent" unicode="&#x17c;" horiz-adv-x="348" 
d="M58 538h318l-21 -136l-159 -245h124l-25 -157h-327l22 137l165 253h-121zM339 715l-25 -157h-190l25 157h190z" />
    <glyph glyph-name="Zcaron" unicode="&#x17d;" horiz-adv-x="394" 
d="M90 744h363l-27 -163l-214 -401h157l-28 -180h-374l25 163l221 403h-151zM346 764h-152l-58 131h125l19 -47l32 47h129z" />
    <glyph glyph-name="zcaron" unicode="&#x17e;" horiz-adv-x="348" 
d="M58 538h318l-21 -136l-159 -245h124l-25 -157h-327l22 137l165 253h-121zM143 558l-54 157h123l15 -67l32 67h123l-91 -157h-148z" />
    <glyph glyph-name="Aringacute" unicode="&#x1fa;" horiz-adv-x="438" 
d="M238 947l69 131h153l-74 -131h-148zM210 0l5 92h-71l-23 -92h-168l212 744h245l-12 -744h-188zM185 259h39l10 195zM295 811c21 -1 37 13 37 36c0 21 -16 36 -37 36s-37 -15 -37 -36c0 -23 16 -37 37 -36zM295 759c-53 0 -93 36 -93 89c0 52 40 87 93 87s93 -35 93 -87
c0 -53 -40 -89 -93 -89z" />
    <glyph glyph-name="aringacute" unicode="&#x1fb;" horiz-adv-x="429" 
d="M-16 110l13 82c11 65 30 98 91 125c32 16 118 41 135 49c11 4 11 6 14 19l3 20c3 15 1 25 -14 25h-2c-13 0 -15 -9 -18 -24l-7 -40h-169l7 41c11 72 44 142 184 142h21c149 0 193 -56 180 -144l-39 -246c-1 -7 2 -11 9 -11h15l-24 -149h-159c-28 0 -42 25 -37 61
c-16 -29 -60 -69 -116 -69h-3c-64 0 -95 50 -84 119zM180 117c10 0 16 7 18 21l18 113c-7 -3 -17 -8 -24 -15c-8 -7 -13 -17 -15 -30l-11 -69c-2 -13 3 -20 14 -20zM247 614c21 -1 37 13 37 36c0 21 -16 36 -37 36s-37 -15 -37 -36c0 -23 16 -37 37 -36zM247 562
c-53 0 -93 36 -93 89c0 52 40 87 93 87s93 -35 93 -87c0 -53 -40 -89 -93 -89zM189 749l72 157h148l-78 -157h-142z" />
    <glyph glyph-name="AEacute" unicode="&#x1fc;" horiz-adv-x="579" 
d="M526 0h-316l16 102h-60l-30 -102h-185l248 744h440l-28 -179h-119l-14 -89h94l-29 -183h-95l-18 -112h125zM216 269h36l43 265zM336 764l69 131h153l-74 -131h-148z" />
    <glyph glyph-name="aeacute" unicode="&#x1fd;" horiz-adv-x="628" 
d="M211 64c-23 -31 -71 -72 -134 -72h-3c-72 0 -99 57 -91 112l13 83c11 62 30 96 90 122c34 16 121 41 136 49c11 5 10 7 13 20l5 28c3 15 1 25 -14 25h-2c-13 0 -15 -9 -18 -24l-8 -49h-169l8 50c11 74 44 142 184 142h11c77 0 109 -24 116 -31c8 8 39 32 106 32h14
c109 0 186 -54 165 -185l-18 -117h-215l-17 -108c-3 -17 2 -26 14 -26c15 0 18 10 21 26l12 72h179l-8 -48c-16 -107 -68 -178 -196 -178h-28c-98 0 -148 38 -166 77zM180 115c11 0 14 9 17 21l17 109c-5 -3 -15 -7 -22 -14c-8 -8 -13 -15 -16 -34l-10 -62
c-2 -13 3 -20 14 -20zM425 406l-9 -55h35l9 55c3 19 1 31 -14 31s-17 -8 -21 -31zM272 558l72 157h148l-78 -157h-142z" />
    <glyph glyph-name="Oslashacute" unicode="&#x1fe;" horiz-adv-x="467" 
d="M221 771l65 124h153l-70 -124h-148zM493 519l-48 -305c-24 -147 -98 -225 -223 -225h-30c-55 0 -90 15 -117 35l-15 -24h-88l49 80c-19 35 -25 80 -17 134l50 315c21 139 78 226 221 226h30c51 0 89 -12 118 -33l14 22h88l-49 -79c19 -39 26 -89 17 -146zM299 527l3 20
c4 23 -3 34 -22 34c-16 0 -24 -9 -28 -34l-25 -155zM218 163c15 0 24 11 28 33l25 156l-72 -135l-3 -21c-3 -21 6 -33 22 -33z" />
    <glyph glyph-name="oslashacute" unicode="&#x1ff;" horiz-adv-x="436" 
d="M172 565l69 150h148l-75 -150h-142zM2 206l22 139c23 141 85 206 205 206h23c46 0 84 -10 113 -30l14 17h84l-51 -62c19 -27 35 -70 24 -130l-24 -151c-21 -133 -83 -208 -204 -208h-25c-48 0 -86 12 -113 29l-13 -16h-83l50 63c-23 35 -31 82 -22 143zM213 376l-14 -88
l57 89c3 24 -1 35 -18 35c-19 0 -22 -17 -25 -36zM197 130c16 0 22 12 25 31l14 91l-57 -91c-3 -19 -1 -31 18 -31z" />
    <glyph glyph-name="uni0218" unicode="&#x218;" horiz-adv-x="457" 
d="M219 -11h-47c-128 0 -198 67 -179 186l14 92h190l-13 -85c-4 -20 2 -33 18 -33s20 10 24 33l4 25c7 37 -2 50 -30 79l-59 62c-72 76 -92 140 -81 211l5 32c16 101 75 164 207 164h45c141 0 187 -74 173 -158l-13 -76h-184l10 65c2 16 -4 24 -18 24c-15 0 -19 -7 -22 -26
l-3 -19c-4 -23 2 -37 23 -60l61 -62c85 -88 108 -147 97 -224l-6 -38c-19 -120 -76 -192 -216 -192zM205 -227h-78c11 25 20 49 25 74h-60l20 126h148l-13 -84c-8 -50 -31 -97 -42 -116z" />
    <glyph glyph-name="uni0219" unicode="&#x219;" horiz-adv-x="394" 
d="M177 -13h-40c-102 0 -169 47 -153 147l8 52h167l-9 -53c-3 -15 4 -22 15 -22h1c11 0 17 8 19 23l3 19c3 21 -6 29 -21 41l-58 42c-68 49 -88 102 -79 166l3 20c16 98 86 129 176 129h40c95 0 167 -31 151 -129l-7 -41h-163l6 40c3 13 -2 20 -13 20s-13 -6 -16 -18l-3 -19
c-3 -15 3 -21 18 -32l63 -46c66 -47 97 -91 84 -173l-3 -19c-15 -100 -78 -147 -189 -147zM170 -227h-78c11 25 20 49 25 74h-60l20 126h148l-13 -84c-8 -50 -31 -97 -42 -116z" />
    <glyph glyph-name="uni021A" unicode="&#x21a;" horiz-adv-x="390" 
d="M86 744h369l-28 -179h-89l-89 -565h-193l89 565h-88zM170 -220h-78c11 25 20 49 25 74h-60l20 126h148l-13 -84c-8 -50 -31 -97 -42 -116z" />
    <glyph glyph-name="uni021B" unicode="&#x21b;" horiz-adv-x="318" 
d="M265 0h-169c-35 0 -69 24 -61 78l48 307h-58l24 153h59l28 179h189l-28 -179h54l-24 -153h-54l-34 -211c-2 -12 3 -18 14 -18h37zM162 -220h-78c11 25 20 49 25 74h-60l20 126h148l-13 -84c-8 -50 -31 -97 -42 -116z" />
    <glyph glyph-name="uni0237" unicode="&#x237;" horiz-adv-x="217" 
d="M-87 -24h36c15 0 17 6 20 18l87 544h190l-102 -638c-9 -56 -45 -88 -90 -88h-167z" />
    <glyph glyph-name="Wgrave" unicode="&#x1e80;" horiz-adv-x="669" 
d="M323 744h179l-25 -433l81 433h190l-197 -744h-216l22 367l-71 -367h-227l12 744h195l-34 -429zM459 895l27 -131h-142l-32 131h147z" />
    <glyph glyph-name="wgrave" unicode="&#x1e81;" horiz-adv-x="623" 
d="M255 0h-211l-5 538h185l-23 -309l68 309h170l-20 -303l65 303h185l-168 -538h-202l13 252zM396 715l25 -157h-137l-30 157h142z" />
    <glyph glyph-name="Wacute" unicode="&#x1e82;" horiz-adv-x="669" 
d="M323 744h179l-25 -433l81 433h190l-197 -744h-216l22 367l-71 -367h-227l12 744h195l-34 -429zM339 764l69 131h153l-74 -131h-148z" />
    <glyph glyph-name="wacute" unicode="&#x1e83;" horiz-adv-x="623" 
d="M255 0h-211l-5 538h185l-23 -309l68 309h170l-20 -303l65 303h185l-168 -538h-202l13 252zM284 558l72 157h148l-78 -157h-142z" />
    <glyph glyph-name="Wdieresis" unicode="&#x1e84;" horiz-adv-x="669" 
d="M323 744h179l-25 -433l81 433h190l-197 -744h-216l22 367l-71 -367h-227l12 744h195l-34 -429zM556 764h-132l21 131h132zM402 764h-132l21 131h132z" />
    <glyph glyph-name="wdieresis" unicode="&#x1e85;" horiz-adv-x="623" 
d="M255 0h-211l-5 538h185l-23 -309l68 309h170l-20 -303l65 303h185l-168 -538h-202l13 252zM495 558h-132l22 133h132zM364 691l-22 -133h-132l22 133h132z" />
    <glyph glyph-name="Ygrave" unicode="&#x1ef2;" horiz-adv-x="423" 
d="M504 744l-192 -475l-41 -269h-195l43 268l-51 476h189l-1 -226l70 226h178zM337 895l27 -131h-142l-32 131h147z" />
    <glyph glyph-name="ygrave" unicode="&#x1ef3;" horiz-adv-x="416" 
d="M75 50l-36 488h185l-12 -274l60 274h190l-226 -642c-23 -64 -59 -84 -95 -84h-170l25 155h59c13 0 19 7 20 21l1 14c1 15 2 21 -1 48zM296 715l25 -157h-137l-30 157h142z" />
    <glyph glyph-name="uni2009" unicode="&#x2009;" horiz-adv-x="5" 
 />
    <glyph glyph-name="uni2032" unicode="&#x2032;" horiz-adv-x="149" 
d="M219 744l-54 -229h-121l53 229h122z" />
    <glyph glyph-name="uni2033" unicode="&#x2033;" horiz-adv-x="282" 
d="M216 744l-53 -229h-119l52 229h120zM352 744l-54 -229h-120l54 229h120z" />
    <glyph glyph-name="published" unicode="&#x2117;" horiz-adv-x="642" 
d="M345 -11h-14c-172 0 -282 81 -282 280v208c0 185 111 278 283 278h16c163 0 277 -86 277 -278v-208c0 -197 -129 -280 -280 -280zM333 64h12c132 0 191 74 191 226v164c0 153 -56 226 -189 226h-14c-132 0 -193 -66 -193 -226v-164c0 -155 57 -226 193 -226zM401 299h-64
v-177h-141v502h204c60 0 102 -31 102 -111v-101c0 -76 -42 -113 -101 -113zM337 525v-122h13c8 0 12 7 12 20v83c0 12 -1 19 -12 19h-13z" />
    <glyph glyph-name="onethird" unicode="&#x2153;" horiz-adv-x="499" 
d="M105 616h-42l14 89c35 0 55 13 60 39h106l-54 -343h-118zM400 744h102l-435 -744h-101zM348 231h-108l6 33c8 48 35 85 117 85h15c76 0 118 -26 109 -81l-2 -14c-7 -37 -29 -53 -48 -58c18 -8 43 -25 35 -77l-3 -21c-11 -67 -46 -106 -131 -106h-17
c-93 0 -113 44 -105 92l6 42h112l-7 -36c-1 -7 2 -11 9 -11c5 0 8 4 9 11l6 37c1 7 -2 11 -8 11h-50l13 83h48c7 0 10 3 11 10l5 30c1 7 -2 11 -8 11c-5 0 -8 -4 -9 -11z" />
    <glyph glyph-name="twothirds" unicode="&#x2154;" horiz-adv-x="587" 
d="M279 401h-252l9 56c8 37 13 59 109 131c43 32 48 40 51 57l2 13c1 9 -1 13 -7 13c-9 0 -10 -6 -11 -13l-6 -35h-108l5 29c8 50 29 98 117 98h18c88 0 118 -33 110 -93l-1 -9c-8 -53 -34 -77 -102 -112c-65 -38 -66 -40 -69 -49h52l6 37h96zM488 744h102l-435 -744h-101z
M436 231h-108l6 33c8 48 35 85 117 85h15c76 0 118 -26 109 -81l-2 -14c-7 -37 -29 -53 -48 -58c18 -8 43 -25 35 -77l-3 -21c-11 -67 -46 -106 -131 -106h-17c-93 0 -113 44 -105 92l6 42h112l-7 -36c-1 -7 2 -11 9 -11c5 0 8 4 9 11l6 37c1 7 -2 11 -8 11h-50l13 83h48
c7 0 10 3 11 10l5 30c1 7 -2 11 -8 11c-5 0 -8 -4 -9 -11z" />
    <glyph glyph-name="oneeighth" unicode="&#x215b;" horiz-adv-x="498" 
d="M105 616h-42l14 89c35 0 55 13 60 39h106l-54 -343h-118zM400 744h102l-435 -744h-101zM491 260l-2 -14c-7 -39 -29 -57 -48 -64c11 -6 36 -26 30 -67l-4 -28c-9 -61 -48 -94 -125 -94h-15c-80 0 -119 36 -110 95l4 29c5 33 26 56 50 65c-12 8 -31 26 -24 63l3 19
c8 51 38 85 117 85h16c80 0 116 -34 108 -89zM374 231l4 26c1 8 1 14 -7 14c-9 0 -10 -7 -11 -14l-5 -26c-1 -7 -1 -16 8 -16c8 0 10 8 11 16zM352 92l5 36c1 9 4 17 -7 17c-9 0 -9 -8 -12 -17l-5 -36c-1 -7 0 -14 8 -14c9 0 10 7 11 14z" />
    <glyph glyph-name="threeeighths" unicode="&#x215c;" horiz-adv-x="566" 
d="M467 744h102l-435 -744h-101zM174 632h-108l6 33c8 48 35 85 117 85h15c76 0 118 -26 109 -81l-2 -14c-7 -37 -29 -53 -48 -58c18 -8 43 -25 35 -77l-3 -21c-11 -67 -46 -106 -131 -106h-17c-93 0 -113 44 -105 92l6 42h112l-7 -36c-1 -7 2 -11 9 -11c5 0 8 4 9 11l6 37
c1 7 -2 11 -8 11h-50l13 83h48c7 0 10 3 11 10l5 30c1 7 -2 11 -8 11c-5 0 -8 -4 -9 -11zM558 260l-2 -14c-7 -39 -29 -57 -48 -64c11 -6 36 -26 30 -67l-4 -28c-9 -61 -48 -94 -125 -94h-15c-80 0 -119 36 -110 95l4 29c5 33 26 56 50 65c-12 8 -31 26 -24 63l3 19
c8 51 38 85 117 85h16c80 0 116 -34 108 -89zM441 231l4 26c1 8 1 14 -7 14c-9 0 -10 -7 -11 -14l-5 -26c-1 -7 -1 -16 8 -16c8 0 10 8 11 16zM419 92l5 36c1 9 4 17 -7 17c-9 0 -9 -8 -12 -17l-5 -36c-1 -7 0 -14 8 -14c9 0 10 7 11 14z" />
    <glyph glyph-name="fiveeighths" unicode="&#x215d;" horiz-adv-x="568" 
d="M470 744h102l-435 -744h-101zM164 545h-106l32 199h232l-14 -86h-128l-7 -49c11 15 33 35 68 35h6c51 0 67 -38 60 -82l-11 -70c-8 -56 -43 -98 -130 -98h-16c-91 0 -115 43 -107 91l6 38h113l-6 -35c-1 -8 1 -12 8 -12c6 0 9 4 10 13l10 68c1 8 -2 12 -7 12
s-9 -4 -10 -12zM560 260l-2 -14c-7 -39 -29 -57 -48 -64c11 -6 36 -26 30 -67l-4 -28c-9 -61 -48 -94 -125 -94h-15c-80 0 -119 36 -110 95l4 29c5 33 26 56 50 65c-12 8 -31 26 -24 63l3 19c8 51 38 85 117 85h16c80 0 116 -34 108 -89zM443 231l4 26c1 8 1 14 -7 14
c-9 0 -10 -7 -11 -14l-5 -26c-1 -7 -1 -16 8 -16c8 0 10 8 11 16zM421 92l5 36c1 9 4 17 -7 17c-9 0 -9 -8 -12 -17l-5 -36c-1 -7 0 -14 8 -14c9 0 10 7 11 14z" />
    <glyph glyph-name="seveneighths" unicode="&#x215e;" horiz-adv-x="531" 
d="M86 744h228l-7 -53c-4 -19 -23 -62 -46 -130c-21 -58 -27 -87 -32 -125l-5 -35h-134l4 31c8 42 17 63 52 122c43 70 58 93 61 115h-34l-9 -55h-99zM433 744h102l-435 -744h-101zM523 260l-2 -14c-7 -39 -29 -57 -48 -64c11 -6 36 -26 30 -67l-4 -28
c-9 -61 -48 -94 -125 -94h-15c-80 0 -119 36 -110 95l4 29c5 33 26 56 50 65c-12 8 -31 26 -24 63l3 19c8 51 38 85 117 85h16c80 0 116 -34 108 -89zM406 231l4 26c1 8 1 14 -7 14c-9 0 -10 -7 -11 -14l-5 -26c-1 -7 -1 -16 8 -16c8 0 10 8 11 16zM384 92l5 36
c1 9 4 17 -7 17c-9 0 -9 -8 -12 -17l-5 -36c-1 -7 0 -14 8 -14c9 0 10 7 11 14z" />
    <glyph glyph-name="minus" unicode="&#x2212;" horiz-adv-x="335" 
d="M27 356h307l-16 -106h-307z" />
    <glyph glyph-name="E.alt" unicode="&#xe484;" horiz-adv-x="358" 
d="M90 744h328l-28 -179h-134l-14 -89h130l-29 -183h-131l-18 -112h138l-28 -181h-332z" />
    <glyph glyph-name="F.alt" unicode="&#xe485;" horiz-adv-x="353" 
d="M90 744h327l-28 -179h-133l-14 -89h130l-29 -183h-131l-46 -293h-194z" />
    <glyph glyph-name="J.alt" unicode="&#xe489;" horiz-adv-x="305" 
d="M-34 0l29 183h53c23 0 28 8 31 27l85 534h202l-96 -608c-12 -83 -59 -136 -142 -136h-162z" />
    <glyph glyph-name="a.alt" unicode="&#xe4c0;" horiz-adv-x="414" 
d="M187 61c-16 -29 -60 -69 -116 -69h-3c-64 0 -95 50 -84 119l13 82c11 65 30 98 91 125c32 16 118 41 135 49c11 4 11 6 14 19l3 20c3 15 1 25 -14 25h-2c-13 0 -15 -9 -18 -24l-7 -40h-169l7 41c11 72 44 142 184 142h21c149 0 193 -56 180 -144l-41 -259
c-13 -87 -17 -116 -12 -142l-1 -5h-174c-7 8 -11 26 -7 61zM180 118c10 0 16 7 18 21l18 113c-7 -3 -17 -8 -24 -15c-8 -7 -13 -17 -15 -30l-11 -69c-2 -13 3 -20 14 -20z" />
    <glyph glyph-name="r.alt" unicode="&#xe4d1;" horiz-adv-x="341" 
d="M244 538l-16 -93c24 55 59 97 106 97h6c13 0 28 -3 33 -4l-34 -216c-8 3 -26 7 -59 7h-8c-45 0 -62 -14 -67 -45l-45 -284h-190l86 538h188z" />
    </font>
</defs>
</svg>
