<?xml version="1.0" standalone="no"?>
<!DOCTYPE svg PUBLIC "-//W3C//DTD SVG 1.1//EN" "http://www.w3.org/Graphics/SVG/1.1/DTD/svg11.dtd" >
<svg xmlns="http://www.w3.org/2000/svg" xmlns:xlink="http://www.w3.org/1999/xlink" version="1.1">
<metadata>
Created by FontForge 20161003 at Tue Feb 12 10:34:13 2019
 By www-data
Copyright (c) 2014 Commercial Type. Druk is a registered trademark of Commercial Type/Schwartzco Inc. All rights reserved. [wfr]
</metadata>
<defs>
<font id="Druk-HeavyItalic" horiz-adv-x="342" >
  <font-face 
    font-family="Druk Heavy"
    font-weight="900"
    font-style="italic"
    font-stretch="condensed"
    units-per-em="1000"
    panose-1="0 0 0 0 0 0 0 0 0 0"
    ascent="800"
    descent="-200"
    x-height="538"
    cap-height="744"
    bbox="-119 -216 1132 1064"
    underline-thickness="50"
    underline-position="-100"
    slope="-10"
    unicode-range="U+000D-FB02"
  />
<missing-glyph horiz-adv-x="492" 
d="M0 690h492v-690h-492v690zM443 94v503l-168 -252zM49 597v-503l168 251zM246 389l168 252h-335zM246 301l-167 -252h334z" />
    <glyph glyph-name="fi" unicode="fi" horiz-adv-x="467" 
d="M495 538l-86 -538h-155l85 538h156zM521 702l-23 -141h-155l22 141h156zM353 744l-21 -129h-39c-16 0 -18 -6 -21 -21l-9 -56h57l-21 -135h-57l-64 -403h-156l64 403h-59l21 135h59l19 119c9 57 44 87 96 87h131z" />
    <glyph glyph-name="fl" unicode="fl" horiz-adv-x="467" 
d="M353 744l-21 -129h-39c-16 0 -18 -6 -21 -21l-9 -56h57l-21 -135h-57l-64 -403h-156l64 403h-59l21 135h59l19 119c9 57 44 87 96 87h131zM527 744l-118 -744h-155l118 744h155z" />
    <glyph glyph-name="f_f" unicode="ff" horiz-adv-x="522" 
d="M107 538l19 119c9 57 44 87 96 87h134l-21 -129h-42c-16 0 -18 -6 -21 -21l-9 -56h77l19 119c9 57 44 87 96 87h135l-21 -129h-42c-17 0 -19 -6 -22 -21l-10 -56h63l-22 -135h-61l-65 -403h-155l64 403h-77l-64 -403h-156l64 403h-59l21 135h59z" />
    <glyph glyph-name=".notdef" horiz-adv-x="492" 
d="M0 690h492v-690h-492v690zM443 94v503l-168 -252zM49 597v-503l168 251zM246 389l168 252h-335zM246 301l-167 -252h334z" />
    <glyph glyph-name="NULL" horiz-adv-x="0" 
 />
    <glyph glyph-name="NULL" horiz-adv-x="0" 
 />
    <glyph glyph-name="CR" unicode="&#xd;" horiz-adv-x="108" 
 />
    <glyph glyph-name="space" unicode=" " horiz-adv-x="108" 
 />
    <glyph glyph-name="exclam" unicode="!" horiz-adv-x="185" 
d="M144 161l-25 -161h-138l25 161h138zM82 744h172l-135 -558h-78z" />
    <glyph glyph-name="quotedbl" unicode="&#x22;" horiz-adv-x="252" 
d="M192 744l-33 -209h-104l34 209h103zM313 744l-32 -209h-104l33 209h103z" />
    <glyph glyph-name="numbersign" unicode="#" horiz-adv-x="377" 
d="M47 436l25 107h56l47 201h98l-48 -201h35l48 201h97l-47 -201h57l-26 -107h-56l-21 -90h57l-26 -107h-56l-56 -239h-98l56 239h-35l-56 -239h-97l56 239h-56l25 107h56l21 90h-56zM179 346h35l21 90h-35z" />
    <glyph glyph-name="dollar" unicode="$" horiz-adv-x="400" 
d="M127 -73l10 63c-105 7 -159 64 -143 164l20 119h146l-18 -114c-4 -23 1 -38 15 -44l29 185l-57 62c-55 59 -81 115 -66 206l4 29c16 103 71 157 179 157h12l9 58h33l-9 -59c104 -4 149 -56 134 -155l-13 -89h-141l14 85c3 22 -1 35 -13 40l-27 -166l58 -62
c59 -64 89 -119 76 -213l-4 -30c-15 -107 -78 -174 -191 -174h-14l-10 -62h-33zM222 164l4 28c5 35 2 51 -13 74l-24 -153c19 4 28 20 33 51zM213 595l-4 -26c-5 -31 -3 -48 9 -67l21 133c-17 -4 -22 -17 -26 -40z" />
    <glyph glyph-name="percent" unicode="%" horiz-adv-x="539" 
d="M169 404h-18c-72 0 -111 43 -99 120l17 110c13 78 52 117 119 117h19c73 0 113 -45 101 -118l-18 -109c-12 -76 -52 -120 -121 -120zM181 505l23 145c2 11 -2 17 -12 17c-11 0 -12 -6 -15 -17l-23 -144c-1 -11 1 -18 12 -18c9 0 14 6 15 17zM264 114l17 110
c13 76 51 117 119 117h19c73 0 113 -45 101 -118l-17 -109c-13 -76 -53 -120 -122 -120h-18c-71 0 -111 43 -99 120zM393 95l23 145c2 12 -2 18 -12 18c-11 0 -13 -7 -14 -18l-23 -144c-3 -11 0 -18 11 -18c9 0 14 6 15 17zM443 744h92l-408 -744h-92z" />
    <glyph glyph-name="ampersand" unicode="&#x26;" horiz-adv-x="492" 
d="M-1 201l5 29c13 98 67 150 136 190c-21 63 -34 114 -23 174l5 29c11 61 43 135 155 135h23c111 0 142 -59 129 -141l-3 -19c-13 -83 -56 -122 -141 -178l52 -172c15 57 24 126 31 198h129c-13 -140 -49 -242 -93 -321c17 -9 38 -12 61 -15l-47 -124c-60 3 -98 15 -123 36
c-24 -17 -58 -32 -106 -32h-8c-128 0 -203 72 -182 211zM216 114c9 0 18 1 26 3l-70 208c-12 -25 -19 -55 -22 -88l-3 -18c-7 -64 17 -105 69 -105zM257 616l-4 -25c-5 -34 -4 -53 7 -90c21 25 30 45 37 85l5 33c3 21 -4 32 -19 32c-19 0 -23 -14 -26 -35z" />
    <glyph glyph-name="quotesingle" unicode="'" horiz-adv-x="132" 
d="M194 744l-33 -209h-106l34 209h105z" />
    <glyph glyph-name="parenleft" unicode="(" horiz-adv-x="220" 
d="M162 -131h-90c-19 50 -54 166 -54 306c0 279 103 495 198 633h91c-70 -139 -160 -420 -160 -696c0 -96 8 -190 15 -243z" />
    <glyph glyph-name="parenright" unicode=")" horiz-adv-x="220" 
d="M25 -131h-90c70 139 159 422 159 696c0 97 -8 191 -15 243h90c19 -50 54 -165 54 -306c0 -279 -102 -495 -198 -633z" />
    <glyph glyph-name="asterisk" unicode="*" horiz-adv-x="253" 
d="M218 675l59 43l30 -69l-70 -21l65 -26l-44 -68l-50 44l1 -69h-82l21 69l-61 -37l-26 70l70 20l-65 25l48 69l44 -47l-1 66h82z" />
    <glyph glyph-name="plus" unicode="+" horiz-adv-x="340" 
d="M96 135l18 118h-102l15 98h102l19 118h106l-19 -118h103l-15 -98h-103l-18 -118h-106z" />
    <glyph glyph-name="comma" unicode="," horiz-adv-x="166" 
d="M64 -100h-76c11 24 31 70 39 100h-55l25 161h139l-20 -120c-11 -63 -35 -113 -52 -141z" />
    <glyph glyph-name="hyphen" unicode="-" horiz-adv-x="197" 
d="M31 372h169l-24 -146h-168z" />
    <glyph glyph-name="period" unicode="." horiz-adv-x="166" 
d="M136 161l-26 -161h-138l25 161h139z" />
    <glyph glyph-name="slash" unicode="/" horiz-adv-x="235" 
d="M318 808l-282 -939h-108l282 939h108z" />
    <glyph glyph-name="zero" unicode="0" horiz-adv-x="414" 
d="M442 544l-56 -359c-20 -121 -82 -196 -193 -196h-31c-111 0 -180 73 -159 201l56 354c21 129 68 210 193 210h29c129 0 183 -84 161 -210zM217 179l61 385c4 26 -3 39 -21 39c-21 0 -25 -15 -29 -38l-61 -386c-3 -20 1 -36 21 -36c19 0 25 13 29 36z" />
    <glyph glyph-name="one" unicode="1" horiz-adv-x="266" 
d="M128 522h-77l22 138c73 0 99 35 113 84h136l-118 -744h-158z" />
    <glyph glyph-name="two" unicode="2" horiz-adv-x="395" 
d="M244 618c-15 0 -20 -9 -23 -28l-16 -101h-147l19 117c13 79 53 147 166 147h32c117 0 168 -60 151 -164l-5 -32c-13 -81 -21 -121 -92 -192c-27 -27 -56 -55 -87 -84c-104 -99 -108 -119 -111 -138h85l16 108h146l-40 -251h-368l15 101c11 77 27 125 133 249l81 94
c45 53 54 77 59 106l6 39c3 19 -4 29 -20 29z" />
    <glyph glyph-name="three" unicode="3" horiz-adv-x="385" 
d="M204 508h-146l15 95c13 79 49 150 162 150h28c116 0 169 -56 153 -153l-11 -70c-11 -72 -41 -96 -68 -108c27 -12 53 -43 44 -99l-27 -171c-16 -95 -67 -163 -174 -163h-30c-124 0 -171 73 -155 171l18 116h155l-17 -107c-3 -16 0 -30 19 -30c16 0 22 8 25 31l19 123
c3 17 3 25 -14 25h-80l23 151h74c15 0 23 9 26 26l14 92c4 23 -2 30 -18 30s-20 -11 -23 -30z" />
    <glyph glyph-name="four" unicode="4" horiz-adv-x="393" 
d="M166 305l27 167c-11 -29 -54 -118 -78 -167h51zM-9 152l21 133c56 110 170 341 231 464h150l-71 -444h68l-24 -153h-67l-25 -152h-156l25 152h-152z" />
    <glyph glyph-name="five" unicode="5" horiz-adv-x="386" 
d="M181 329h-152l65 415h339l-23 -147h-191l-20 -126c19 27 56 67 110 67h8c64 0 91 -53 80 -114l-44 -279c-13 -85 -65 -156 -169 -156h-38c-125 0 -166 77 -152 166l19 118h155l-18 -111c-3 -13 -1 -28 18 -28c15 0 20 8 23 28l33 210c3 17 1 28 -16 28
c-13 0 -17 -8 -20 -27z" />
    <glyph glyph-name="six" unicode="6" horiz-adv-x="409" 
d="M186 134c21 0 25 15 28 31l25 156c3 22 -5 33 -23 33c-19 0 -24 -10 -28 -33l-24 -155c-3 -19 1 -32 22 -32zM320 484h6c68 0 97 -54 86 -117l-33 -210c-16 -91 -77 -169 -186 -169h-34c-120 0 -177 73 -161 173l67 422c16 96 63 171 187 171h27c119 0 169 -67 156 -158
l-14 -82h-162l12 73c2 17 -4 25 -18 25c-15 0 -19 -10 -22 -26l-27 -169c19 24 59 67 116 67z" />
    <glyph glyph-name="seven" unicode="7" horiz-adv-x="362" 
d="M88 744h339l-21 -128c-15 -39 -44 -125 -87 -256c-40 -124 -58 -201 -67 -266l-15 -94h-190l12 79c10 73 28 136 102 281c88 169 108 213 113 245h-67l-16 -101h-141z" />
    <glyph glyph-name="eight" unicode="8" horiz-adv-x="403" 
d="M208 164l21 133c3 19 -3 32 -20 32c-16 0 -22 -11 -26 -32l-21 -133c-3 -17 4 -29 19 -29c16 0 25 10 27 29zM257 483l17 107c3 19 -3 28 -18 28c-19 0 -23 -10 -26 -29l-16 -104c-3 -17 2 -29 19 -29c16 0 21 10 24 27zM434 598l-14 -89c-9 -56 -36 -87 -72 -103
c29 -16 57 -54 46 -115l-20 -130c-17 -108 -75 -172 -188 -172h-29c-121 0 -178 64 -161 172l21 133c11 60 38 92 79 112c-24 17 -44 51 -36 108l13 85c13 81 54 154 178 154h25c122 0 174 -66 158 -155z" />
    <glyph glyph-name="nine" unicode="9" horiz-adv-x="410" 
d="M125 258h-5c-65 0 -100 53 -88 125l32 202c13 93 62 168 179 168h35c125 0 182 -68 167 -168l-69 -435c-13 -85 -61 -161 -182 -161h-28c-126 0 -174 70 -158 162l12 77h163l-11 -71c-3 -18 2 -27 17 -27c16 0 20 10 23 25l27 170c-19 -24 -59 -67 -114 -67zM256 608
c-21 0 -26 -15 -29 -34l-25 -153c-3 -22 4 -33 23 -33s25 14 28 33l25 152c3 20 -1 35 -22 35z" />
    <glyph glyph-name="colon" unicode=":" horiz-adv-x="172" 
d="M139 161l-26 -161h-138l25 161h139zM186 456l-26 -162h-138l25 162h139z" />
    <glyph glyph-name="semicolon" unicode=";" horiz-adv-x="172" 
d="M68 -100h-77c11 24 31 70 39 100h-55l25 161h139l-19 -120c-11 -64 -36 -113 -52 -141zM186 456l-26 -162h-138l25 162h139z" />
    <glyph glyph-name="less" unicode="&#x3c;" horiz-adv-x="294" 
d="M26 351l281 107l-17 -109l-152 -48l137 -48l-17 -108l-247 108z" />
    <glyph glyph-name="equal" unicode="=" horiz-adv-x="335" 
d="M20 291h302l-15 -93h-302zM38 406h302l-14 -93h-302z" />
    <glyph glyph-name="greater" unicode="&#x3e;" horiz-adv-x="294" 
d="M277 253l-280 -108l17 112l153 48l-137 47l16 106l247 -107z" />
    <glyph glyph-name="question" unicode="?" horiz-adv-x="367" 
d="M213 186h-120l18 107c8 47 16 67 46 105l58 70c19 24 23 43 28 72l8 50c3 21 -3 32 -19 32c-17 0 -20 -11 -24 -31l-17 -111h-145l18 116c13 79 39 157 163 157h34c123 0 162 -61 149 -156l-7 -49c-11 -66 -22 -98 -68 -144l-78 -80c-23 -23 -27 -37 -34 -72zM218 161
l-25 -161h-138l25 161h138z" />
    <glyph glyph-name="at" unicode="@" horiz-adv-x="630" 
d="M461 23l51 -63c-35 -40 -114 -102 -227 -102h-5c-130 0 -321 48 -269 387l16 102c37 239 142 384 342 384h10c190 0 295 -99 260 -318l-14 -89c-37 -228 -98 -286 -191 -286h-11c-65 0 -99 35 -108 67c-21 -31 -56 -67 -101 -67h-5c-56 0 -91 55 -76 128l55 270
c15 64 45 106 94 106h5c43 0 70 -26 89 -58l12 54h144l-83 -386c-3 -15 -3 -28 12 -28c27 0 52 71 72 200l14 89c29 184 -47 236 -170 236h-10c-133 0 -212 -99 -244 -302l-16 -101c-44 -279 95 -305 174 -305h5c86 0 146 53 175 82zM308 164l53 250c3 17 -1 26 -13 26
c-11 0 -14 -9 -18 -26l-53 -250c-3 -16 1 -24 12 -24s16 9 19 24z" />
    <glyph glyph-name="A" unicode="A" horiz-adv-x="386" 
d="M192 0l5 109h-74l-27 -109h-142l210 744h198l-15 -744h-155zM160 256h45l11 226z" />
    <glyph glyph-name="B" unicode="B" horiz-adv-x="414" 
d="M-25 0l118 744h231c84 0 134 -43 118 -140l-13 -78c-11 -77 -54 -108 -86 -116c29 -11 75 -43 62 -127l-17 -111c-19 -117 -57 -172 -146 -172h-267zM212 328h-25l-31 -196h30c20 0 29 6 34 38l18 117c4 27 -2 41 -26 41zM255 617h-22l-25 -160h25c20 0 28 12 32 37
l14 89c4 25 -5 34 -24 34z" />
    <glyph glyph-name="C" unicode="C" horiz-adv-x="408" 
d="M221 177l23 147h159l-24 -152c-13 -92 -57 -183 -184 -183h-29c-139 0 -180 85 -164 198l61 380c18 111 65 187 193 187h29c135 0 174 -78 158 -175l-19 -120h-159l19 115c3 25 -2 37 -23 37s-26 -12 -30 -37l-64 -400c-3 -23 4 -36 24 -36s25 15 30 39z" />
    <glyph glyph-name="D" unicode="D" horiz-adv-x="412" 
d="M-25 0l118 744h219c93 0 151 -49 132 -168l-64 -402c-19 -119 -60 -174 -156 -174h-249zM231 606l-74 -463h23c27 0 31 11 38 46l59 375c4 27 -1 42 -22 42h-24z" />
    <glyph glyph-name="E" unicode="E" horiz-adv-x="339" 
d="M93 744h305l-24 -154h-145l-20 -127h117l-25 -158h-118l-23 -148h151l-25 -157h-311z" />
    <glyph glyph-name="F" unicode="F" horiz-adv-x="336" 
d="M93 744h308l-25 -154h-147l-20 -126h114l-26 -158h-114l-48 -306h-160z" />
    <glyph glyph-name="G" unicode="G" horiz-adv-x="417" 
d="M124 -10h-8c-90 0 -133 77 -117 173l63 402c16 100 57 189 192 189h27c141 0 177 -90 161 -182l-13 -82h-156l13 82c4 25 0 40 -23 40s-29 -12 -33 -39l-63 -397c-4 -30 5 -45 26 -45c22 0 35 14 39 41l23 140h-46l22 136h199l-71 -448h-103c0 14 -5 54 -10 69
c-19 -32 -62 -79 -122 -79z" />
    <glyph glyph-name="H" unicode="H" horiz-adv-x="413" 
d="M182 300l-47 -300h-160l118 744h160l-43 -270h57l43 270h160l-118 -744h-160l47 300h-57z" />
    <glyph glyph-name="I" unicode="I" horiz-adv-x="196" 
d="M253 744l-118 -744h-160l118 744h160z" />
    <glyph glyph-name="J" unicode="J" horiz-adv-x="389" 
d="M22 332h151l-27 -167c-3 -18 3 -27 19 -27h1c13 0 21 9 24 28l92 578h165l-93 -587c-16 -101 -63 -166 -168 -166h-55c-108 0 -154 60 -138 159z" />
    <glyph glyph-name="K" unicode="K" horiz-adv-x="414" 
d="M211 480l116 264h161l-150 -342l39 -402h-169l-25 303l-48 -303h-160l118 744h160z" />
    <glyph glyph-name="L" unicode="L" horiz-adv-x="319" 
d="M93 744h160l-93 -586h132l-25 -158h-292z" />
    <glyph glyph-name="M" unicode="M" horiz-adv-x="492" 
d="M-25 0l118 744h185l-13 -349l95 349h189l-118 -744h-139l65 409l-125 -409h-59l3 409l-65 -409h-136z" />
    <glyph glyph-name="N" unicode="N" horiz-adv-x="411" 
d="M93 744h155l25 -366l58 366h138l-118 -744h-141l-33 395l-63 -395h-139z" />
    <glyph glyph-name="O" unicode="O" horiz-adv-x="424" 
d="M262 603c-23 0 -29 -14 -34 -42l-60 -382c-3 -20 2 -36 25 -36s30 16 33 35l61 383c4 28 -4 42 -25 42zM254 754h29c132 0 188 -83 169 -210l-56 -352c-21 -129 -82 -203 -193 -203h-30c-127 0 -189 75 -169 208l55 347c19 129 69 210 195 210z" />
    <glyph glyph-name="P" unicode="P" horiz-adv-x="398" 
d="M270 287h-90l-45 -287h-160l118 744h220c96 0 140 -50 125 -150l-24 -154c-15 -99 -59 -153 -144 -153zM233 614l-30 -190h22c21 0 27 10 31 35l18 118c4 23 1 37 -22 37h-19z" />
    <glyph glyph-name="Q" unicode="Q" horiz-adv-x="424" 
d="M254 754h29c132 0 188 -83 169 -210l-57 -352c-19 -116 -70 -185 -158 -200l34 -147h-181l25 151c-87 20 -128 90 -112 198l56 350c19 129 69 210 195 210zM262 603c-23 0 -30 -15 -34 -42l-60 -382c-3 -20 2 -36 25 -36s30 16 33 35l61 383c4 28 -4 42 -25 42z" />
    <glyph glyph-name="R" unicode="R" horiz-adv-x="406" 
d="M183 305l-48 -305h-160l118 744h240c73 0 124 -46 111 -131l-16 -98c-11 -67 -42 -100 -81 -113c25 -14 56 -41 48 -102l-38 -240c-5 -29 -2 -43 2 -55l-1 -5h-159c-5 8 -10 25 -5 56l33 211c5 27 0 38 -23 38h-21zM233 616l-27 -171h23c19 0 29 9 32 36l16 101
c4 23 -3 34 -22 34h-22z" />
    <glyph glyph-name="S" unicode="S" horiz-adv-x="404" 
d="M187 -10h-37c-110 0 -173 62 -157 173l18 112h157l-16 -103c-4 -27 3 -41 22 -41c17 0 28 15 33 44l4 25c8 41 -1 62 -32 101l-48 62c-61 74 -80 136 -67 208l5 31c16 100 69 152 181 152h36c120 0 164 -62 148 -155l-13 -83h-153l12 77c3 20 -2 32 -22 32
c-19 0 -23 -11 -26 -31l-3 -23c-5 -32 1 -46 26 -81l51 -64c67 -86 91 -142 80 -217l-6 -38c-19 -117 -74 -181 -193 -181z" />
    <glyph glyph-name="T" unicode="T" horiz-adv-x="359" 
d="M85 744h340l-24 -154h-90l-93 -590h-160l93 590h-91z" />
    <glyph glyph-name="U" unicode="U" horiz-adv-x="419" 
d="M4 185l89 559h165l-88 -559c-3 -25 4 -38 22 -38c19 0 27 13 31 38l88 559h166l-88 -559c-20 -125 -76 -197 -193 -197h-30c-123 0 -181 76 -162 197z" />
    <glyph glyph-name="V" unicode="V" horiz-adv-x="406" 
d="M64 0l7 744h166l-26 -465l115 465h158l-209 -744h-211z" />
    <glyph glyph-name="W" unicode="W" horiz-adv-x="611" 
d="M308 744h150l-25 -461l98 461h158l-200 -744h-182l23 404l-87 -404h-186l15 744h162l-31 -451z" />
    <glyph glyph-name="X" unicode="X" horiz-adv-x="398" 
d="M103 398l-23 346h158l3 -218l66 218h157l-128 -346l24 -398h-158l-4 251l-85 -251h-160z" />
    <glyph glyph-name="Y" unicode="Y" horiz-adv-x="371" 
d="M452 744l-180 -459l-44 -285h-161l45 283l-43 461h156l1 -247l78 247h148z" />
    <glyph glyph-name="Z" unicode="Z" horiz-adv-x="357" 
d="M92 744h323l-23 -140l-225 -450h163l-24 -154h-340l23 142l229 450h-150z" />
    <glyph glyph-name="bracketleft" unicode="[" horiz-adv-x="208" 
d="M286 808l-17 -112h-53l-113 -716h52l-18 -112h-177l149 940h177z" />
    <glyph glyph-name="backslash" unicode="\" horiz-adv-x="235" 
d="M89 -131l-9 939h101l9 -939h-101z" />
    <glyph glyph-name="bracketright" unicode="]" horiz-adv-x="208" 
d="M-57 -132l17 112h53l113 716h-52l18 112h176l-149 -940h-176z" />
    <glyph glyph-name="asciicircum" unicode="^" horiz-adv-x="261" 
d="M270 744l14 -318h-102v170l-47 -170h-107l106 318h136z" />
    <glyph glyph-name="underscore" unicode="_" horiz-adv-x="372" 
d="M-60 -127l17 107h365l-16 -107h-366z" />
    <glyph glyph-name="grave" unicode="`" 
d="M276 707l22 -146h-116l-26 146h120z" />
    <glyph glyph-name="a" unicode="a" horiz-adv-x="377" 
d="M-15 104l15 96c9 59 27 92 79 116c29 16 107 42 123 50c9 5 11 9 14 22l3 22c3 19 -2 29 -16 29h-3c-15 0 -19 -11 -22 -28l-7 -46h-139l10 59c11 59 34 123 156 123h21c127 0 162 -52 151 -131l-43 -271c-2 -9 2 -14 11 -14h15l-21 -131h-135c-26 0 -37 20 -32 60
c-16 -24 -54 -66 -105 -66h-3c-56 0 -83 46 -72 110zM153 110c15 0 20 9 23 26l19 122c-9 -4 -23 -12 -30 -19c-11 -9 -14 -19 -17 -36l-10 -66c-3 -16 2 -27 15 -27z" />
    <glyph glyph-name="b" unicode="b" horiz-adv-x="384" 
d="M91 744h155l-43 -270c19 24 57 69 109 69h6c59 0 88 -54 77 -115l-49 -307c-11 -67 -49 -131 -114 -131h-3c-56 0 -86 36 -109 81c-8 -21 -15 -55 -18 -71h-129zM190 392l-39 -251c-3 -16 -2 -30 17 -30c15 0 21 12 24 28l40 253c3 20 -1 30 -17 30
c-17 0 -22 -14 -25 -30z" />
    <glyph glyph-name="c" unicode="c" horiz-adv-x="360" 
d="M202 241h142l-17 -103c-13 -89 -59 -150 -159 -150h-27c-107 0 -164 58 -147 166l37 232c16 93 54 163 170 163h31c114 0 151 -64 137 -148l-12 -76h-142l13 78c3 19 -2 29 -15 29c-15 0 -19 -8 -22 -27l-42 -265c-3 -16 0 -27 15 -27s19 9 22 24z" />
    <glyph glyph-name="d" unicode="d" horiz-adv-x="387" 
d="M292 744h155l-118 -744h-155l10 60c-15 -28 -58 -71 -107 -71h-4c-62 0 -93 61 -82 131l48 303c11 64 43 121 104 121h5c55 0 82 -39 101 -69zM196 144l39 242c3 20 0 35 -19 35c-16 0 -21 -13 -24 -32l-39 -245c-3 -19 0 -33 17 -33c19 0 23 13 26 33z" />
    <glyph glyph-name="e" unicode="e" horiz-adv-x="366" 
d="M200 549h31c98 0 158 -53 142 -162l-22 -136h-190l-18 -113c-3 -20 2 -30 17 -30c16 0 22 11 25 31l13 75h147l-10 -67c-17 -104 -67 -158 -166 -158h-33c-103 0 -159 54 -142 162l38 238c16 99 59 160 168 160zM186 410l-10 -61h44l9 61c4 23 0 33 -19 33
c-17 0 -20 -13 -24 -33z" />
    <glyph glyph-name="f" unicode="f" horiz-adv-x="289" 
d="M357 744l-21 -129h-43c-16 0 -18 -6 -21 -21l-9 -56h61l-21 -135h-61l-64 -403h-156l64 403h-59l21 135h59l19 119c9 57 44 87 96 87h135z" />
    <glyph glyph-name="g" unicode="g" horiz-adv-x="385" 
d="M163 -55l18 114c-19 -30 -52 -69 -106 -69c-55 0 -98 49 -84 130l47 296c11 72 44 129 107 129h4c55 0 83 -42 99 -70l10 63h154l-94 -595c-13 -78 -57 -138 -175 -138h-31c-114 0 -156 51 -145 119l9 55h150l-5 -36c-3 -15 1 -23 16 -23h3c16 0 20 9 23 25zM192 133
l42 260c3 19 0 30 -19 30c-16 0 -20 -11 -23 -27l-41 -262c-3 -15 2 -28 19 -28c15 0 19 12 22 27z" />
    <glyph glyph-name="h" unicode="h" horiz-adv-x="387" 
d="M-27 0l118 744h155l-43 -271c21 31 61 70 112 70h7c67 0 84 -62 76 -107l-69 -436h-157l61 384c3 19 -1 31 -20 31c-17 0 -21 -13 -24 -32l-61 -383h-155z" />
    <glyph glyph-name="i" unicode="i" horiz-adv-x="186" 
d="M214 538l-86 -538h-155l85 538h156zM240 702l-23 -141h-155l22 141h156z" />
    <glyph glyph-name="j" unicode="j" horiz-adv-x="186" 
d="M-96 -47h43c15 0 18 6 21 19l90 566h156l-103 -646c-8 -51 -39 -80 -86 -80h-144zM240 702l-23 -141h-155l22 141h156z" />
    <glyph glyph-name="k" unicode="k" horiz-adv-x="380" 
d="M186 365l85 173h148l-116 -229l39 -309h-153l-26 223l-35 -223h-155l118 744h155z" />
    <glyph glyph-name="l" unicode="l" horiz-adv-x="186" 
d="M246 744l-118 -744h-155l118 744h155z" />
    <glyph glyph-name="m" unicode="m" horiz-adv-x="581" 
d="M509 544h6c61 0 85 -55 77 -108l-69 -436h-158l61 385c3 20 -2 30 -16 30c-16 0 -21 -11 -24 -30l-61 -385h-156l61 385c3 17 -1 30 -17 30c-17 0 -21 -11 -24 -30l-61 -385h-155l85 538h154l-11 -67c18 29 58 73 109 73h6c48 0 73 -34 78 -73c24 32 62 73 115 73z" />
    <glyph glyph-name="n" unicode="n" horiz-adv-x="387" 
d="M-27 0l85 538h154l-11 -68c24 35 62 73 114 73h7c68 0 84 -61 76 -108l-69 -435h-157l61 382c3 22 -3 33 -20 33c-16 0 -21 -12 -24 -33l-61 -382h-155z" />
    <glyph glyph-name="o" unicode="o" horiz-adv-x="384" 
d="M180 -11h-31c-116 0 -169 70 -152 178l33 206c19 117 70 176 175 176h30c111 0 171 -62 152 -175l-32 -206c-19 -109 -70 -179 -175 -179zM215 424c-19 0 -23 -14 -26 -34l-38 -236c-3 -21 0 -36 19 -36s23 16 26 35l38 236c3 21 0 35 -19 35z" />
    <glyph glyph-name="p" unicode="p" horiz-adv-x="387" 
d="M58 538h154l-11 -67c27 39 64 74 111 74h4c64 0 91 -53 79 -130l-47 -298c-13 -80 -56 -128 -112 -128h-3c-44 0 -76 25 -97 62l-38 -239h-155zM190 395l-41 -257c-3 -21 3 -32 18 -32c16 0 22 11 25 31l41 258c3 19 -2 30 -18 30c-17 0 -22 -11 -25 -30z" />
    <glyph glyph-name="q" unicode="q" horiz-adv-x="385" 
d="M296 538h117l-116 -726h-155l39 245c-23 -33 -58 -68 -105 -68h-5c-60 0 -92 59 -80 136l45 280c13 84 50 140 123 140h5c63 0 87 -45 106 -83c8 16 21 52 26 76zM194 137l41 257c3 19 -2 32 -19 32s-21 -12 -24 -31l-41 -257c-3 -19 2 -32 18 -32c15 0 21 8 25 31z" />
    <glyph glyph-name="r" unicode="r" horiz-adv-x="350" 
d="M213 538l-11 -70c14 25 51 73 101 73h8c47 0 66 -32 58 -81l-30 -186h-139l19 120c3 17 0 24 -12 24c-9 0 -14 -7 -16 -22l-63 -396h-155l85 538h155z" />
    <glyph glyph-name="s" unicode="s" horiz-adv-x="344" 
d="M150 -11h-33c-96 0 -147 50 -132 138l10 64h139l-10 -62c-3 -19 5 -27 17 -27h1c15 0 18 13 21 26l3 19c4 24 -2 35 -21 56l-49 48c-51 49 -71 97 -62 157l3 20c13 85 68 121 152 121h33c95 0 142 -41 130 -118l-9 -54h-135l8 48c3 16 -3 24 -16 24c-11 0 -17 -5 -20 -24
l-2 -13c-3 -19 3 -32 18 -47l51 -50c56 -53 82 -97 71 -169l-3 -19c-13 -84 -61 -138 -165 -138z" />
    <glyph glyph-name="t" unicode="t" horiz-adv-x="285" 
d="M232 0h-139c-39 0 -68 27 -60 75l52 328h-57l21 135h58l28 178h155l-28 -178h56l-22 -135h-55l-40 -246c-2 -13 3 -19 16 -19h37z" />
    <glyph glyph-name="u" unicode="u" horiz-adv-x="386" 
d="M413 538l-85 -538h-155l11 68c-24 -35 -61 -73 -112 -73h-8c-66 0 -82 62 -74 110l68 433h157l-60 -384c-3 -19 1 -31 17 -31c19 0 21 13 24 32l61 383h156z" />
    <glyph glyph-name="v" unicode="v" horiz-adv-x="358" 
d="M46 0l-6 538h153l-18 -327l76 327h152l-167 -538h-190z" />
    <glyph glyph-name="w" unicode="w" horiz-adv-x="551" 
d="M215 0h-172l-3 538h152l-19 -326l77 326h139l-17 -321l75 321h150l-163 -538h-164l10 277z" />
    <glyph glyph-name="x" unicode="x" horiz-adv-x="358" 
d="M76 291l-31 247h147l7 -149l47 149h150l-108 -247l31 -291h-149l-7 164l-58 -164h-150z" />
    <glyph glyph-name="y" unicode="y" horiz-adv-x="360" 
d="M65 29l-25 509h151l-10 -287l69 287h156l-216 -644c-19 -59 -47 -82 -86 -82h-144l22 136h54c16 0 21 8 24 23l4 19c3 13 2 20 1 39z" />
    <glyph glyph-name="z" unicode="z" horiz-adv-x="305" 
d="M60 538h274l-18 -118l-166 -285h125l-21 -135h-288l20 121l169 288h-116z" />
    <glyph glyph-name="braceleft" unicode="{" horiz-adv-x="220" 
d="M150 -131h-51c-76 0 -115 37 -115 101c0 69 75 224 75 283c0 22 -11 33 -32 33h-13l18 110h24c31 0 35 23 36 51c3 67 0 177 3 225c3 92 43 136 131 136h72l-16 -107h-29c-31 0 -39 -15 -40 -51c0 -45 -2 -158 -2 -206c-3 -55 -23 -88 -76 -103c31 -13 47 -36 47 -70
c0 -57 -68 -214 -68 -258c0 -23 10 -37 41 -37h12z" />
    <glyph glyph-name="bar" unicode="|" horiz-adv-x="238" 
d="M189 808v-939h-107v939h107z" />
    <glyph glyph-name="braceright" unicode="}" horiz-adv-x="220" 
d="M91 808h51c76 0 115 -36 115 -100c0 -69 -74 -223 -74 -279c0 -22 11 -33 32 -33h13l-17 -110h-25c-31 0 -35 -23 -36 -51c-3 -66 -1 -182 -4 -229c-3 -92 -43 -137 -131 -137h-72l16 107h28c32 0 38 16 41 51l3 211c3 53 23 88 76 103c-33 13 -47 34 -47 70
c0 55 67 209 67 254c0 21 -10 36 -41 36h-12z" />
    <glyph glyph-name="asciitilde" unicode="~" horiz-adv-x="295" 
d="M219 450l9 56h98l-19 -119c-9 -55 -36 -86 -77 -86c-31 0 -46 12 -71 39c-17 19 -23 27 -31 27c-5 0 -8 -4 -9 -12l-9 -57h-98l18 115c9 56 31 89 78 89c31 0 47 -12 72 -40c16 -17 22 -25 30 -25c5 0 8 4 9 13z" />
    <glyph glyph-name="Adieresis" unicode="&#xc4;" horiz-adv-x="386" 
d="M192 0l5 109h-74l-27 -109h-142l210 744h198l-15 -744h-155zM160 256h45l11 226zM389 767h-114l19 118h114zM252 767h-114l19 118h114z" />
    <glyph glyph-name="Aring" unicode="&#xc5;" horiz-adv-x="386" 
d="M192 0l5 109h-74l-27 -109h-142l210 744h198l-15 -744h-155zM160 256h45l11 226zM269 810c21 0 35 15 35 35c0 19 -14 34 -35 34c-20 0 -34 -15 -34 -34c0 -20 14 -35 34 -35zM269 762c-49 0 -85 35 -85 83c0 49 36 83 85 83c51 0 86 -34 86 -83c0 -48 -35 -83 -86 -83z
" />
    <glyph glyph-name="Ccedilla" unicode="&#xc7;" horiz-adv-x="408" 
d="M221 177l23 147h159l-24 -152c-13 -92 -57 -183 -184 -183h-29c-139 0 -180 85 -164 198l61 380c18 111 65 187 193 187h29c135 0 174 -78 158 -175l-19 -120h-159l19 115c3 25 -2 37 -23 37s-26 -12 -30 -37l-64 -400c-3 -23 4 -36 24 -36s25 15 30 39zM135 -196h-81
l11 71h60c16 0 21 7 21 16s-6 14 -19 14h-42l16 95h66l-6 -35h2c51 0 79 -24 79 -71c0 -57 -40 -90 -107 -90z" />
    <glyph glyph-name="Eacute" unicode="&#xc9;" horiz-adv-x="339" 
d="M93 744h305l-24 -154h-145l-20 -127h117l-25 -158h-118l-23 -148h151l-25 -157h-311zM184 767l62 123h129l-66 -123h-125z" />
    <glyph glyph-name="Ntilde" unicode="&#xd1;" horiz-adv-x="411" 
d="M93 744h155l25 -366l58 366h138l-118 -744h-141l-33 395l-63 -395h-139zM339 875l3 19h85l-10 -63c-7 -39 -28 -62 -61 -62h-2c-23 0 -37 6 -64 19c-15 7 -19 9 -26 9c-5 0 -9 -4 -10 -13l-3 -18h-83l8 56c7 43 25 70 62 70h2c23 0 36 -7 64 -19c13 -7 19 -9 26 -9
c5 0 8 4 9 11z" />
    <glyph glyph-name="Odieresis" unicode="&#xd6;" horiz-adv-x="424" 
d="M262 603c-23 0 -29 -14 -34 -42l-60 -382c-3 -20 2 -36 25 -36s30 16 33 35l61 383c4 28 -4 42 -25 42zM254 754h29c132 0 188 -83 169 -210l-56 -352c-21 -129 -82 -203 -193 -203h-30c-127 0 -189 75 -169 208l55 347c19 129 69 210 195 210zM409 767h-114l19 118h114z
M272 767h-114l19 118h114z" />
    <glyph glyph-name="Udieresis" unicode="&#xdc;" horiz-adv-x="419" 
d="M4 185l89 559h165l-88 -559c-3 -25 4 -38 22 -38c19 0 27 13 31 38l88 559h166l-88 -559c-20 -125 -76 -197 -193 -197h-30c-123 0 -181 76 -162 197zM413 767h-114l19 118h114zM276 767h-114l19 118h114z" />
    <glyph glyph-name="aacute" unicode="&#xe1;" horiz-adv-x="377" 
d="M-15 104l15 96c9 59 27 92 79 116c29 16 107 42 123 50c9 5 11 9 14 22l3 22c3 19 -2 29 -16 29h-3c-15 0 -19 -11 -22 -28l-7 -46h-139l10 59c11 59 34 123 156 123h21c127 0 162 -52 151 -131l-43 -271c-2 -9 2 -14 11 -14h15l-21 -131h-135c-26 0 -37 20 -32 60
c-16 -24 -54 -66 -105 -66h-3c-56 0 -83 46 -72 110zM153 110c15 0 20 9 23 26l19 122c-9 -4 -23 -12 -30 -19c-11 -9 -14 -19 -17 -36l-10 -66c-3 -16 2 -27 15 -27zM157 561l66 146h125l-70 -146h-121z" />
    <glyph glyph-name="agrave" unicode="&#xe0;" horiz-adv-x="377" 
d="M-15 104l15 96c9 59 27 92 79 116c29 16 107 42 123 50c9 5 11 9 14 22l3 22c3 19 -2 29 -16 29h-3c-15 0 -19 -11 -22 -28l-7 -46h-139l10 59c11 59 34 123 156 123h21c127 0 162 -52 151 -131l-43 -271c-2 -9 2 -14 11 -14h15l-21 -131h-135c-26 0 -37 20 -32 60
c-16 -24 -54 -66 -105 -66h-3c-56 0 -83 46 -72 110zM153 110c15 0 20 9 23 26l19 122c-9 -4 -23 -12 -30 -19c-11 -9 -14 -19 -17 -36l-10 -66c-3 -16 2 -27 15 -27zM256 707l22 -146h-116l-26 146h120z" />
    <glyph glyph-name="acircumflex" unicode="&#xe2;" horiz-adv-x="377" 
d="M-15 104l15 96c9 59 27 92 79 116c29 16 107 42 123 50c9 5 11 9 14 22l3 22c3 19 -2 29 -16 29h-3c-15 0 -19 -11 -22 -28l-7 -46h-139l10 59c11 59 34 123 156 123h21c127 0 162 -52 151 -131l-43 -271c-2 -9 2 -14 11 -14h15l-21 -131h-135c-26 0 -37 20 -32 60
c-16 -24 -54 -66 -105 -66h-3c-56 0 -83 46 -72 110zM153 110c15 0 20 9 23 26l19 122c-9 -4 -23 -12 -30 -19c-11 -9 -14 -19 -17 -36l-10 -66c-3 -16 2 -27 15 -27zM302 707l48 -146h-104l-16 65l-32 -65h-104l83 146h125z" />
    <glyph glyph-name="adieresis" unicode="&#xe4;" horiz-adv-x="377" 
d="M-15 104l15 96c9 59 27 92 79 116c29 16 107 42 123 50c9 5 11 9 14 22l3 22c3 19 -2 29 -16 29h-3c-15 0 -19 -11 -22 -28l-7 -46h-139l10 59c11 59 34 123 156 123h21c127 0 162 -52 151 -131l-43 -271c-2 -9 2 -14 11 -14h15l-21 -131h-135c-26 0 -37 20 -32 60
c-16 -24 -54 -66 -105 -66h-3c-56 0 -83 46 -72 110zM153 110c15 0 20 9 23 26l19 122c-9 -4 -23 -12 -30 -19c-11 -9 -14 -19 -17 -36l-10 -66c-3 -16 2 -27 15 -27zM347 563h-114l19 119h114zM230 682l-20 -119h-113l19 119h114z" />
    <glyph glyph-name="atilde" unicode="&#xe3;" horiz-adv-x="377" 
d="M-15 104l15 96c9 59 27 92 79 116c29 16 107 42 123 50c9 5 11 9 14 22l3 22c3 19 -2 29 -16 29h-3c-15 0 -19 -11 -22 -28l-7 -46h-139l10 59c11 59 34 123 156 123h21c127 0 162 -52 151 -131l-43 -271c-2 -9 2 -14 11 -14h15l-21 -131h-135c-26 0 -37 20 -32 60
c-16 -24 -54 -66 -105 -66h-3c-56 0 -83 46 -72 110zM153 110c15 0 20 9 23 26l19 122c-9 -4 -23 -12 -30 -19c-11 -9 -14 -19 -17 -36l-10 -66c-3 -16 2 -27 15 -27zM272 674l3 20h83l-11 -69c-7 -39 -26 -62 -63 -62h-1c-20 0 -36 5 -61 20c-15 9 -20 12 -27 12
c-5 0 -9 -4 -10 -11l-4 -22h-83l9 59c7 45 24 72 64 72h2c23 0 35 -6 62 -21c11 -7 20 -11 27 -11c6 0 9 4 10 13z" />
    <glyph glyph-name="aring" unicode="&#xe5;" horiz-adv-x="377" 
d="M-15 104l15 96c9 59 27 92 79 116c29 16 107 42 123 50c9 5 11 9 14 22l3 22c3 19 -2 29 -16 29h-3c-15 0 -19 -11 -22 -28l-7 -46h-139l10 59c11 59 34 123 156 123h21c127 0 162 -52 151 -131l-43 -271c-2 -9 2 -14 11 -14h15l-21 -131h-135c-26 0 -37 20 -32 60
c-16 -24 -54 -66 -105 -66h-3c-56 0 -83 46 -72 110zM153 110c15 0 20 9 23 26l19 122c-9 -4 -23 -12 -30 -19c-11 -9 -14 -19 -17 -36l-10 -66c-3 -16 2 -27 15 -27zM223 609c21 0 35 15 35 35c0 19 -14 34 -35 34c-20 0 -34 -15 -34 -34c0 -20 14 -35 34 -35zM223 561
c-49 0 -85 35 -85 83c0 49 36 83 85 83c51 0 86 -34 86 -83c0 -48 -35 -83 -86 -83z" />
    <glyph glyph-name="ccedilla" unicode="&#xe7;" horiz-adv-x="360" 
d="M202 241h142l-17 -103c-13 -89 -59 -150 -159 -150h-27c-107 0 -164 58 -147 166l37 232c16 93 54 163 170 163h31c114 0 151 -64 137 -148l-12 -76h-142l13 78c3 19 -2 29 -15 29c-15 0 -19 -8 -22 -27l-42 -265c-3 -16 0 -27 15 -27s19 9 22 24zM111 -196h-81l11 71h60
c16 0 21 7 21 16s-6 14 -19 14h-42l16 95h66l-6 -35h2c51 0 79 -24 79 -71c0 -57 -40 -90 -107 -90z" />
    <glyph glyph-name="eacute" unicode="&#xe9;" horiz-adv-x="366" 
d="M200 549h31c98 0 158 -53 142 -162l-22 -136h-190l-18 -113c-3 -20 2 -30 17 -30c16 0 22 11 25 31l13 75h147l-10 -67c-17 -104 -67 -158 -166 -158h-33c-103 0 -159 54 -142 162l38 238c16 99 59 160 168 160zM186 410l-10 -61h44l9 61c4 23 0 33 -19 33
c-17 0 -20 -13 -24 -33zM163 561l66 146h125l-70 -146h-121z" />
    <glyph glyph-name="egrave" unicode="&#xe8;" horiz-adv-x="366" 
d="M200 549h31c98 0 158 -53 142 -162l-22 -136h-190l-18 -113c-3 -20 2 -30 17 -30c16 0 22 11 25 31l13 75h147l-10 -67c-17 -104 -67 -158 -166 -158h-33c-103 0 -159 54 -142 162l38 238c16 99 59 160 168 160zM186 410l-10 -61h44l9 61c4 23 0 33 -19 33
c-17 0 -20 -13 -24 -33zM258 707l22 -146h-116l-26 146h120z" />
    <glyph glyph-name="ecircumflex" unicode="&#xea;" horiz-adv-x="366" 
d="M200 549h31c98 0 158 -53 142 -162l-22 -136h-190l-18 -113c-3 -20 2 -30 17 -30c16 0 22 11 25 31l13 75h147l-10 -67c-17 -104 -67 -158 -166 -158h-33c-103 0 -159 54 -142 162l38 238c16 99 59 160 168 160zM186 410l-10 -61h44l9 61c4 23 0 33 -19 33
c-17 0 -20 -13 -24 -33zM306 707l48 -146h-104l-16 65l-32 -65h-104l83 146h125z" />
    <glyph glyph-name="edieresis" unicode="&#xeb;" horiz-adv-x="366" 
d="M200 549h31c98 0 158 -53 142 -162l-22 -136h-190l-18 -113c-3 -20 2 -30 17 -30c16 0 22 11 25 31l13 75h147l-10 -67c-17 -104 -67 -158 -166 -158h-33c-103 0 -159 54 -142 162l38 238c16 99 59 160 168 160zM186 410l-10 -61h44l9 61c4 23 0 33 -19 33
c-17 0 -20 -13 -24 -33zM349 565h-114l19 119h114zM232 684l-20 -119h-113l19 119h114z" />
    <glyph glyph-name="iacute" unicode="&#xed;" horiz-adv-x="186" 
d="M214 538l-86 -538h-155l85 538h156zM80 561l66 146h125l-70 -146h-121z" />
    <glyph glyph-name="igrave" unicode="&#xec;" horiz-adv-x="186" 
d="M214 538l-86 -538h-155l85 538h156zM177 707l22 -146h-116l-26 146h120z" />
    <glyph glyph-name="icircumflex" unicode="&#xee;" horiz-adv-x="186" 
d="M223 706l27 -145h-92l-8 67l-28 -67h-94l69 145h126zM214 538l-86 -538h-155l85 538h156z" />
    <glyph glyph-name="idieresis" unicode="&#xef;" horiz-adv-x="186" 
d="M149 681l-20 -120h-101l19 120h102zM268 681l-20 -120h-101l19 120h102zM214 538l-86 -538h-155l85 538h156z" />
    <glyph glyph-name="ntilde" unicode="&#xf1;" horiz-adv-x="387" 
d="M-27 0l85 538h154l-11 -68c24 35 62 73 114 73h7c68 0 84 -61 76 -108l-69 -435h-157l61 382c3 22 -3 33 -20 33c-16 0 -21 -12 -24 -33l-61 -382h-155zM290 672l3 20h83l-11 -69c-7 -39 -26 -62 -63 -62h-1c-20 0 -36 5 -61 20c-15 9 -20 12 -27 12c-5 0 -9 -4 -10 -11
l-4 -22h-83l9 59c7 45 24 72 64 72h2c23 0 35 -6 62 -21c11 -7 20 -11 27 -11c6 0 9 4 10 13z" />
    <glyph glyph-name="oacute" unicode="&#xf3;" horiz-adv-x="384" 
d="M180 -11h-31c-116 0 -169 70 -152 178l33 206c19 117 70 176 175 176h30c111 0 171 -62 152 -175l-32 -206c-19 -109 -70 -179 -175 -179zM215 424c-19 0 -23 -14 -26 -34l-38 -236c-3 -21 0 -36 19 -36s23 16 26 35l38 236c3 21 0 35 -19 35zM172 561l66 146h125
l-70 -146h-121z" />
    <glyph glyph-name="ograve" unicode="&#xf2;" horiz-adv-x="384" 
d="M180 -11h-31c-116 0 -169 70 -152 178l33 206c19 117 70 176 175 176h30c111 0 171 -62 152 -175l-32 -206c-19 -109 -70 -179 -175 -179zM215 424c-19 0 -23 -14 -26 -34l-38 -236c-3 -21 0 -36 19 -36s23 16 26 35l38 236c3 21 0 35 -19 35zM267 707l22 -146h-116
l-26 146h120z" />
    <glyph glyph-name="ocircumflex" unicode="&#xf4;" horiz-adv-x="384" 
d="M180 -11h-31c-116 0 -169 70 -152 178l33 206c19 117 70 176 175 176h30c111 0 171 -62 152 -175l-32 -206c-19 -109 -70 -179 -175 -179zM215 424c-19 0 -23 -14 -26 -34l-38 -236c-3 -21 0 -36 19 -36s23 16 26 35l38 236c3 21 0 35 -19 35zM314 707l48 -146h-104
l-16 65l-32 -65h-104l83 146h125z" />
    <glyph glyph-name="odieresis" unicode="&#xf6;" horiz-adv-x="384" 
d="M180 -11h-31c-116 0 -169 70 -152 178l33 206c19 117 70 176 175 176h30c111 0 171 -62 152 -175l-32 -206c-19 -109 -70 -179 -175 -179zM215 424c-19 0 -23 -14 -26 -34l-38 -236c-3 -21 0 -36 19 -36s23 16 26 35l38 236c3 21 0 35 -19 35zM358 565h-114l19 119h114z
M241 684l-20 -119h-113l19 119h114z" />
    <glyph glyph-name="otilde" unicode="&#xf5;" horiz-adv-x="384" 
d="M180 -11h-31c-116 0 -169 70 -152 178l33 206c19 117 70 176 175 176h30c111 0 171 -62 152 -175l-32 -206c-19 -109 -70 -179 -175 -179zM215 424c-19 0 -23 -14 -26 -34l-38 -236c-3 -21 0 -36 19 -36s23 16 26 35l38 236c3 21 0 35 -19 35zM291 676l3 20h83l-11 -69
c-7 -39 -26 -62 -63 -62h-1c-20 0 -36 5 -61 20c-15 9 -20 12 -27 12c-5 0 -9 -4 -10 -11l-4 -22h-83l9 59c7 45 24 72 64 72h2c23 0 35 -6 62 -21c11 -7 20 -11 27 -11c6 0 9 4 10 13z" />
    <glyph glyph-name="uacute" unicode="&#xfa;" horiz-adv-x="386" 
d="M413 538l-85 -538h-155l11 68c-24 -35 -61 -73 -112 -73h-8c-66 0 -82 62 -74 110l68 433h157l-60 -384c-3 -19 1 -31 17 -31c19 0 21 13 24 32l61 383h156zM174 561l66 146h125l-70 -146h-121z" />
    <glyph glyph-name="ugrave" unicode="&#xf9;" horiz-adv-x="386" 
d="M413 538l-85 -538h-155l11 68c-24 -35 -61 -73 -112 -73h-8c-66 0 -82 62 -74 110l68 433h157l-60 -384c-3 -19 1 -31 17 -31c19 0 21 13 24 32l61 383h156zM277 707l22 -146h-116l-26 146h120z" />
    <glyph glyph-name="ucircumflex" unicode="&#xfb;" horiz-adv-x="386" 
d="M413 538l-85 -538h-155l11 68c-24 -35 -61 -73 -112 -73h-8c-66 0 -82 62 -74 110l68 433h157l-60 -384c-3 -19 1 -31 17 -31c19 0 21 13 24 32l61 383h156zM318 707l48 -146h-104l-16 65l-32 -65h-104l83 146h125z" />
    <glyph glyph-name="udieresis" unicode="&#xfc;" horiz-adv-x="386" 
d="M413 538l-85 -538h-155l11 68c-24 -35 -61 -73 -112 -73h-8c-66 0 -82 62 -74 110l68 433h157l-60 -384c-3 -19 1 -31 17 -31c19 0 21 13 24 32l61 383h156zM363 561h-114l19 119h114zM246 680l-20 -119h-113l19 119h114z" />
    <glyph glyph-name="dagger" unicode="&#x2020;" horiz-adv-x="294" 
d="M27 0l73 462h-61l22 139h61l23 143h155l-23 -143h62l-22 -139h-62l-73 -462h-155z" />
    <glyph glyph-name="degree" unicode="&#xb0;" horiz-adv-x="218" 
d="M133 649c0 -23 13 -38 36 -38s37 15 37 38c0 21 -14 37 -37 37s-36 -16 -36 -37zM66 648c0 56 42 100 105 100c59 0 101 -45 101 -100c0 -56 -42 -99 -101 -99c-63 0 -105 43 -105 99z" />
    <glyph glyph-name="cent" unicode="&#xa2;" horiz-adv-x="363" 
d="M347 242l-17 -108c-13 -84 -61 -146 -157 -146h-13l-10 -63h-32l10 63c-96 3 -151 60 -136 156l39 243c16 96 58 162 167 162h19l10 65h32l-11 -65c100 -5 136 -63 125 -141l-13 -83h-126l12 75c3 20 -2 32 -15 37l-53 -331c17 4 24 19 27 39l15 97h127zM174 400
l-41 -255c-3 -19 1 -31 14 -37l52 331c-16 -4 -22 -18 -25 -39z" />
    <glyph glyph-name="sterling" unicode="&#xa3;" horiz-adv-x="448" 
d="M87 237l6 59h-78l20 129h63c1 41 4 82 9 113l7 41c16 100 55 175 187 175h25c128 0 156 -71 143 -158l-20 -125h-144l18 112c3 21 -1 35 -20 35s-25 -11 -29 -35l-6 -42c-5 -31 -10 -71 -15 -116h126l-21 -129h-120c-3 -11 -4 -21 -5 -32c-11 -65 -40 -106 -72 -129h108
l19 115h143l-40 -250h-423l18 119c60 11 90 49 101 118z" />
    <glyph glyph-name="section" unicode="&#xa7;" horiz-adv-x="435" 
d="M427 275l-3 -19c-11 -69 -52 -103 -103 -118c29 -35 37 -73 28 -130l-7 -45c-16 -100 -64 -166 -180 -166h-34c-103 0 -160 49 -143 156l15 95h152l-15 -95c-3 -19 3 -29 19 -29c17 0 22 10 25 29l7 45c5 32 2 49 -21 70l-81 69c-63 53 -83 101 -72 165l4 25
c9 55 43 92 104 111c-27 32 -38 81 -29 137l4 25c13 88 58 157 175 157h33c105 0 162 -44 145 -151l-13 -83h-150l12 78c4 21 -2 31 -18 31c-19 0 -22 -12 -25 -32l-5 -31c-5 -32 -1 -46 22 -67l83 -73c63 -56 80 -97 71 -154zM249 302l-67 60c-9 -4 -18 -14 -21 -31l-1 -6
c-3 -13 1 -31 26 -54l69 -61c12 5 17 17 20 29l1 6c3 20 0 32 -27 57z" />
    <glyph glyph-name="bullet" unicode="&#x2022;" horiz-adv-x="267" 
d="M20 329c0 70 50 124 123 124c72 0 123 -54 123 -124c0 -69 -51 -123 -123 -123c-73 0 -123 52 -123 123z" />
    <glyph glyph-name="paragraph" unicode="&#xb6;" horiz-adv-x="411" 
d="M198 744h283l-17 -112h-39l-100 -632h-100l100 632h-31l-100 -632h-100l55 343h-2c-59 0 -121 38 -105 129l23 149c13 82 58 123 133 123z" />
    <glyph glyph-name="germandbls" unicode="&#xdf;" horiz-adv-x="391" 
d="M334 443c33 -13 65 -45 54 -112l-31 -197c-13 -88 -46 -134 -130 -134h-83l21 132h14c12 0 15 5 18 21l26 165c3 15 0 21 -13 21h-13l22 131h13c11 0 15 6 18 21l16 102c3 17 -2 29 -17 29h-3c-16 0 -21 -9 -24 -28l-94 -594h-155l94 593c13 88 56 156 173 156h34
c117 0 158 -58 145 -149l-10 -62c-9 -59 -43 -84 -75 -95z" />
    <glyph glyph-name="registered" unicode="&#xae;" horiz-adv-x="326" 
d="M218 394h-10c-84 0 -137 47 -137 142v73c0 89 50 141 137 141h11c84 0 133 -50 133 -139v-75c0 -91 -59 -142 -134 -142zM208 433h10c63 0 89 38 89 106v69c0 63 -25 103 -88 103h-11c-65 0 -92 -31 -92 -106v-66c0 -68 25 -106 92 -106zM205 554v-89h-59v220h89
c30 0 45 -14 45 -41v-26c0 -17 -8 -29 -23 -35c15 -5 23 -15 23 -30v-67c0 -7 1 -13 3 -17v-4h-57c-3 5 -5 11 -5 18v59c0 8 -3 12 -9 12h-7zM205 644v-46h8c7 0 8 1 8 12v23c0 7 -3 11 -8 11h-8z" />
    <glyph glyph-name="copyright" unicode="&#xa9;" horiz-adv-x="596" 
d="M320 -11h-10c-160 0 -258 79 -258 267v234c0 175 101 265 259 265h12c157 0 254 -84 254 -265v-234c0 -187 -114 -267 -257 -267zM313 60h7c123 0 175 77 175 214v198c0 132 -50 212 -173 212h-9c-123 0 -177 -68 -177 -212v-198c0 -141 54 -214 177 -214zM319 216
c13 0 15 10 15 25v98h122v-106c0 -67 -45 -123 -127 -123h-17c-92 0 -137 52 -137 136v253c0 84 42 138 133 138h22c77 0 125 -38 125 -122v-79h-121v73c0 15 -2 23 -15 23c-12 0 -14 -7 -14 -23v-268c0 -17 5 -25 14 -25z" />
    <glyph glyph-name="trademark" unicode="&#x2122;" horiz-adv-x="379" 
d="M193 459l45 285h88l-5 -120l30 120h93l-46 -285h-65l25 157l-47 -157h-32l3 157l-26 -157h-63zM226 744l-11 -72h-31l-33 -213h-85l34 213h-30l11 72h145z" />
    <glyph glyph-name="acute" unicode="&#xb4;" 
d="M131 561l66 146h125l-70 -146h-121z" />
    <glyph glyph-name="dieresis" unicode="&#xa8;" 
d="M340 561h-114l19 119h114zM223 680l-20 -119h-113l19 119h114z" />
    <glyph glyph-name="AE" unicode="&#xc6;" horiz-adv-x="538" 
d="M486 0h-293l18 117h-70l-36 -117h-153l249 744h396l-24 -155h-127l-20 -126h99l-25 -158h-99l-24 -148h134zM186 263h48l49 313z" />
    <glyph glyph-name="Oslash" unicode="&#xd8;" horiz-adv-x="418" 
d="M445 542l-55 -351c-20 -127 -82 -202 -194 -202h-28c-47 0 -81 14 -105 33l-13 -22h-78l43 76c-15 31 -19 70 -12 115l56 356c19 126 68 207 192 207h28c48 0 82 -13 106 -32l13 22h78l-43 -77c15 -33 20 -76 12 -125zM285 553l1 8c4 28 -5 42 -27 42
c-19 0 -31 -14 -36 -42l-30 -192zM191 142c21 0 30 14 34 37l31 196l-91 -183l-2 -13c-4 -25 5 -37 28 -37z" />
    <glyph glyph-name="yen" unicode="&#xa5;" horiz-adv-x="385" 
d="M264 204l-32 -204h-161l33 204h-96l14 90h96l4 22h-97l15 89h81l-47 339h150l9 -228l72 228h149l-145 -339h82l-14 -89h-95l-4 -22h96l-15 -90h-95z" />
    <glyph glyph-name="ordfeminine" unicode="&#xaa;" horiz-adv-x="234" 
d="M255 442h-80c-16 0 -23 12 -21 36c-11 -16 -33 -39 -65 -39c-35 0 -49 29 -44 60l8 51c7 35 20 53 48 66c23 10 60 23 73 28c5 1 7 5 8 10l2 13c2 11 -2 16 -11 16c-8 0 -9 -5 -12 -16l-3 -21h-86l4 30c5 35 21 72 95 72h14c77 0 98 -33 91 -80l-22 -139
c-1 -7 -1 -11 7 -11h7zM148 505c7 0 11 5 13 16l9 60c-5 -3 -13 -6 -17 -9c-6 -5 -9 -12 -10 -23l-5 -28c-1 -11 2 -16 10 -16z" />
    <glyph glyph-name="ordmasculine" unicode="&#xba;" horiz-adv-x="237" 
d="M164 438h-18c-69 0 -102 41 -91 105l16 102c10 69 45 103 105 103h18c64 0 103 -38 92 -103l-17 -105c-11 -68 -46 -102 -105 -102zM168 654l-19 -122c-3 -11 0 -19 9 -19c11 0 13 7 14 18l19 122c3 13 2 21 -9 21s-13 -9 -14 -20z" />
    <glyph glyph-name="ae" unicode="&#xe6;" horiz-adv-x="549" 
d="M182 61c-19 -27 -60 -67 -116 -67h-3c-62 0 -87 50 -79 101l14 93c9 57 27 90 78 115c30 16 109 42 124 49c11 5 10 10 13 23l6 37c3 18 -2 27 -16 27h-3c-15 0 -19 -10 -22 -27l-10 -61h-138l12 73c11 60 34 123 156 123h16c63 0 87 -20 98 -29c8 8 36 30 89 30h18
c94 0 154 -52 138 -159l-23 -138h-189l-18 -113c-3 -20 2 -30 17 -30c16 0 21 11 25 31l12 75h147l-11 -70c-16 -100 -66 -155 -167 -155h-27c-76 0 -121 29 -141 72zM153 108c13 0 20 9 22 27l18 110c-9 -4 -22 -11 -30 -18c-9 -11 -14 -20 -17 -39l-8 -52
c-3 -19 2 -28 15 -28zM370 410l-10 -61h43l10 61c3 20 1 33 -18 33c-17 0 -21 -10 -25 -33z" />
    <glyph glyph-name="oslash" unicode="&#xf8;" horiz-adv-x="381" 
d="M-1 177l31 195c19 119 70 177 173 177h26c43 0 74 -11 97 -28l12 17h74l-44 -63c12 -23 23 -57 15 -104l-32 -204c-17 -108 -69 -178 -173 -178h-27c-41 0 -74 12 -95 28l-13 -17h-73l43 63c-13 27 -22 63 -14 114zM185 387l-17 -108l65 108v1c4 25 -3 37 -20 37
c-20 0 -25 -15 -28 -38zM168 118c20 0 24 14 27 33l17 108l-65 -109c-3 -19 2 -32 21 -32z" />
    <glyph glyph-name="questiondown" unicode="&#xbf;" horiz-adv-x="360" 
d="M148 351h120l-18 -107c-8 -47 -16 -67 -46 -105l-58 -70c-19 -24 -23 -43 -28 -72l-8 -50c-3 -21 3 -32 19 -32c17 0 20 11 24 31l17 111h145l-18 -116c-13 -79 -39 -157 -163 -157h-34c-123 0 -162 61 -149 156l7 49c11 66 22 98 68 144l78 80c23 23 27 37 34 72z
M143 376l25 161h138l-25 -161h-138z" />
    <glyph glyph-name="exclamdown" unicode="&#xa1;" horiz-adv-x="185" 
d="M37 377l25 161h138l-25 -161h-138zM99 -206h-172l135 558h78z" />
    <glyph glyph-name="florin" unicode="&#x192;" horiz-adv-x="302" 
d="M-30 -190l107 542h-53l22 132h57l33 163c13 64 47 97 114 97h113l-21 -129h-37c-16 0 -21 -4 -24 -23l-22 -108h63l-21 -132h-68l-109 -542h-154z" />
    <glyph glyph-name="guillemotleft" unicode="&#xab;" horiz-adv-x="308" 
d="M331 455l-78 -173l25 -167h-111l-28 169l78 171h114zM198 455l-79 -171l29 -169h-111l-30 138l11 66l68 136h112z" />
    <glyph glyph-name="guillemotright" unicode="&#xbb;" horiz-adv-x="308" 
d="M114 115l82 170l-29 170h111l28 -137l-11 -67l-67 -136h-114zM-18 115l82 172l-28 168h112l29 -170l-81 -170h-114z" />
    <glyph glyph-name="ellipsis" unicode="&#x2026;" horiz-adv-x="479" 
d="M311 161h138l-26 -161h-138zM128 0l26 161h138l-26 -161h-138zM109 0h-138l25 161h139z" />
    <glyph glyph-name="nbspace" unicode="&#xa0;" horiz-adv-x="108" 
 />
    <glyph glyph-name="Agrave" unicode="&#xc0;" horiz-adv-x="386" 
d="M192 0l5 109h-74l-27 -109h-142l210 744h198l-15 -744h-155zM160 256h45l11 226zM305 890l23 -123h-120l-27 123h124z" />
    <glyph glyph-name="Atilde" unicode="&#xc3;" horiz-adv-x="386" 
d="M192 0l5 109h-74l-27 -109h-142l210 744h198l-15 -744h-155zM160 256h45l11 226zM316 875l3 19h85l-10 -63c-7 -39 -28 -62 -61 -62h-2c-23 0 -37 6 -64 19c-15 7 -19 9 -26 9c-5 0 -9 -4 -10 -13l-3 -18h-83l8 56c7 43 25 70 62 70h2c23 0 36 -7 64 -19
c13 -7 19 -9 26 -9c5 0 8 4 9 11z" />
    <glyph glyph-name="Otilde" unicode="&#xd5;" horiz-adv-x="424" 
d="M262 603c-23 0 -29 -14 -34 -42l-60 -382c-3 -20 2 -36 25 -36s30 16 33 35l61 383c4 28 -4 42 -25 42zM254 754h29c132 0 188 -83 169 -210l-56 -352c-21 -129 -82 -203 -193 -203h-30c-127 0 -189 75 -169 208l55 347c19 129 69 210 195 210zM336 878l3 19h85l-10 -63
c-7 -39 -28 -62 -61 -62h-2c-23 0 -37 6 -64 19c-15 7 -19 9 -26 9c-5 0 -9 -4 -10 -13l-3 -18h-83l8 56c7 43 25 70 62 70h2c23 0 36 -7 64 -19c13 -7 19 -9 26 -9c5 0 8 4 9 11z" />
    <glyph glyph-name="OE" unicode="&#x152;" horiz-adv-x="545" 
d="M2 186l59 372c19 113 56 194 149 194h3c65 0 89 -36 100 -57l8 49h283l-25 -155h-127l-20 -126h99l-25 -158h-100l-23 -148h135l-26 -157h-289l7 50c-13 -24 -52 -60 -104 -60h-3c-81 0 -120 68 -101 196zM260 604c-23 0 -29 -14 -34 -45l-59 -373c-4 -30 4 -45 23 -45
c23 0 30 16 34 45l59 373c4 28 0 45 -23 45z" />
    <glyph glyph-name="oe" unicode="&#x153;" horiz-adv-x="571" 
d="M255 20c-11 -11 -42 -31 -90 -31h-25c-111 0 -162 67 -143 180l32 203c19 117 69 177 176 177h23c56 0 84 -19 95 -31c12 11 43 31 94 31h20c95 0 160 -52 141 -160l-22 -138h-190l-18 -113c-3 -16 0 -30 17 -30c16 0 22 10 25 33l12 73h148l-12 -70
c-16 -100 -65 -155 -169 -155h-22c-56 0 -84 20 -92 31zM188 390l-38 -238c-3 -23 3 -34 20 -34c19 0 22 14 25 34l38 238c3 20 1 34 -19 34c-19 0 -23 -14 -26 -34zM381 349h43l10 61c3 20 1 33 -18 33s-22 -13 -25 -33z" />
    <glyph glyph-name="endash" unicode="&#x2013;" horiz-adv-x="385" 
d="M27 352h357l-16 -103h-357z" />
    <glyph glyph-name="emdash" unicode="&#x2014;" horiz-adv-x="578" 
d="M27 352h550l-16 -103h-550z" />
    <glyph glyph-name="quotedblleft" unicode="&#x201c;" horiz-adv-x="300" 
d="M196 509l17 107c8 60 35 109 46 128h75c-13 -21 -29 -64 -37 -95h49l-23 -140h-127zM52 509l17 107c8 60 35 109 46 128h74c-11 -22 -28 -64 -36 -95h49l-23 -140h-127z" />
    <glyph glyph-name="quotedblright" unicode="&#x201d;" horiz-adv-x="301" 
d="M299 509h-75c12 23 30 64 37 95h-49l22 140h128l-17 -107c-11 -60 -35 -109 -46 -128zM217 744l-17 -108c-8 -51 -31 -100 -46 -127h-75c12 23 30 64 37 95h-49l22 140h128z" />
    <glyph glyph-name="quoteleft" unicode="&#x2018;" horiz-adv-x="155" 
d="M52 509l17 107c8 60 35 109 46 128h74c-11 -22 -28 -64 -36 -95h49l-23 -140h-127z" />
    <glyph glyph-name="quoteright" unicode="&#x2019;" horiz-adv-x="155" 
d="M217 744l-17 -107c-11 -60 -35 -109 -46 -128h-75c12 23 30 64 37 95h-49l22 140h128z" />
    <glyph glyph-name="divide" unicode="&#xf7;" horiz-adv-x="339" 
d="M27 351h311l-15 -98h-311zM258 484l-18 -109h-107l17 109h108zM217 227l-17 -109h-108l17 109h108z" />
    <glyph glyph-name="ydieresis" unicode="&#xff;" horiz-adv-x="360" 
d="M65 29l-25 509h151l-10 -287l69 287h156l-216 -644c-19 -59 -47 -82 -86 -82h-144l22 136h54c16 0 21 8 24 23l4 19c3 13 2 20 1 39zM347 561h-114l19 119h114zM230 680l-20 -119h-113l19 119h114z" />
    <glyph glyph-name="Ydieresis" unicode="&#x178;" horiz-adv-x="371" 
d="M452 744l-180 -459l-44 -285h-161l45 283l-43 461h156l1 -247l78 247h148zM391 767h-114l19 118h114zM254 767h-114l19 118h114z" />
    <glyph glyph-name="fraction" unicode="&#x2044;" horiz-adv-x="348" 
d="M348 744h88l-404 -744h-88z" />
    <glyph glyph-name="Euro" unicode="&#x20ac;" horiz-adv-x="453" 
d="M8 285l15 90h54l3 22h-54l15 89h53l13 78c18 108 61 190 192 190h31c133 0 174 -75 158 -174l-11 -73h-159l11 67c4 25 -4 37 -23 37c-21 0 -26 -13 -30 -37l-14 -88h126l-15 -89h-125l-4 -22h126l-15 -90h-125l-17 -107c-3 -24 2 -40 23 -40c19 0 26 15 30 39l13 86h159
l-14 -93c-16 -92 -56 -181 -185 -181h-27c-138 0 -184 84 -165 198l15 98h-54z" />
    <glyph glyph-name="guilsinglleft" unicode="&#x2039;" horiz-adv-x="180" 
d="M129 283l21 -168h-119l-24 139l11 65l64 136h122z" />
    <glyph glyph-name="guilsinglright" unicode="&#x203a;" horiz-adv-x="180" 
d="M57 287l-21 168h119l23 -137l-10 -66l-64 -137h-122z" />
    <glyph glyph-name="daggerdbl" unicode="&#x2021;" horiz-adv-x="294" 
d="M49 143h-61l22 139h62l28 180h-61l22 139h61l23 143h155l-23 -143h62l-22 -139h-62l-28 -180h61l-22 -139h-62l-22 -143h-155z" />
    <glyph glyph-name="periodcentered" unicode="&#xb7;" horiz-adv-x="164" 
d="M174 410l-26 -161h-138l25 161h139z" />
    <glyph glyph-name="quotesinglbase" unicode="&#x201a;" horiz-adv-x="155" 
d="M122 140l-17 -107c-8 -60 -35 -110 -46 -128h-75c12 21 30 64 37 95h-49l23 140h127z" />
    <glyph glyph-name="quotedblbase" unicode="&#x201e;" horiz-adv-x="299" 
d="M203 -95h-75c12 21 30 64 37 95h-49l23 140h127l-17 -107c-8 -60 -35 -110 -46 -128zM122 140l-17 -107c-8 -60 -35 -110 -46 -128h-75c12 21 30 64 37 95h-49l23 140h127z" />
    <glyph glyph-name="perthousand" unicode="&#x2030;" horiz-adv-x="794" 
d="M775 223l-18 -109c-12 -76 -52 -120 -121 -120h-18c-72 0 -111 43 -99 120l17 110c12 76 50 117 118 117h20c73 0 113 -45 101 -118zM648 95l23 145c2 12 -2 18 -12 18c-11 0 -13 -7 -14 -18l-23 -144c-3 -11 0 -18 11 -18s12 6 15 17zM169 404h-18
c-72 0 -111 43 -99 120l17 110c13 78 52 117 119 117h19c73 0 113 -45 101 -118l-18 -109c-12 -76 -52 -120 -121 -120zM393 95l23 145c2 12 -2 18 -12 18c-11 0 -13 -7 -14 -18l-23 -144c-3 -11 0 -18 11 -18c9 0 14 6 15 17zM443 744h92l-408 -744h-92zM181 505l23 145
c2 11 -2 17 -12 17c-11 0 -12 -6 -15 -17l-23 -144c-1 -11 1 -18 12 -18c9 0 14 6 15 17zM520 223l-17 -109c-13 -76 -53 -120 -122 -120h-18c-71 0 -111 43 -99 120l17 110c13 76 51 117 119 117h19c73 0 113 -45 101 -118z" />
    <glyph glyph-name="Acircumflex" unicode="&#xc2;" horiz-adv-x="386" 
d="M192 0l5 109h-74l-27 -109h-142l210 744h198l-15 -744h-155zM160 256h45l11 226zM216 890h125l55 -123h-106l-20 47l-31 -47h-108z" />
    <glyph glyph-name="Ecircumflex" unicode="&#xca;" horiz-adv-x="339" 
d="M93 744h305l-24 -154h-145l-20 -127h117l-25 -158h-118l-23 -148h151l-25 -157h-311zM201 890h125l55 -123h-106l-20 47l-31 -47h-108z" />
    <glyph glyph-name="Aacute" unicode="&#xc1;" horiz-adv-x="386" 
d="M192 0l5 109h-74l-27 -109h-142l210 744h198l-15 -744h-155zM160 256h45l11 226zM200 767l62 123h129l-66 -123h-125z" />
    <glyph glyph-name="Edieresis" unicode="&#xcb;" horiz-adv-x="339" 
d="M93 744h305l-24 -154h-145l-20 -127h117l-25 -158h-118l-23 -148h151l-25 -157h-311zM376 767h-114l19 118h114zM239 767h-114l19 118h114z" />
    <glyph glyph-name="Egrave" unicode="&#xc8;" horiz-adv-x="339" 
d="M93 744h305l-24 -154h-145l-20 -127h117l-25 -158h-118l-23 -148h151l-25 -157h-311zM290 890l23 -123h-120l-27 123h124z" />
    <glyph glyph-name="Iacute" unicode="&#xcd;" horiz-adv-x="196" 
d="M253 744l-118 -744h-160l118 744h160zM116 767l62 123h129l-66 -123h-125z" />
    <glyph glyph-name="Icircumflex" unicode="&#xce;" horiz-adv-x="196" 
d="M253 744l-118 -744h-160l118 744h160zM126 890h125l55 -123h-106l-20 47l-31 -47h-108z" />
    <glyph glyph-name="Idieresis" unicode="&#xcf;" horiz-adv-x="196" 
d="M253 744l-118 -744h-160l118 744h160zM303 767h-114l19 118h114zM166 767h-114l19 118h114z" />
    <glyph glyph-name="Igrave" unicode="&#xcc;" horiz-adv-x="196" 
d="M253 744l-118 -744h-160l118 744h160zM215 890l23 -123h-120l-27 123h124z" />
    <glyph glyph-name="Oacute" unicode="&#xd3;" horiz-adv-x="424" 
d="M262 603c-23 0 -29 -14 -34 -42l-60 -382c-3 -20 2 -36 25 -36s30 16 33 35l61 383c4 28 -4 42 -25 42zM254 754h29c132 0 188 -83 169 -210l-56 -352c-21 -129 -82 -203 -193 -203h-30c-127 0 -189 75 -169 208l55 347c19 129 69 210 195 210zM222 767l62 123h129
l-66 -123h-125z" />
    <glyph glyph-name="Ocircumflex" unicode="&#xd4;" horiz-adv-x="424" 
d="M262 603c-23 0 -29 -14 -34 -42l-60 -382c-3 -20 2 -36 25 -36s30 16 33 35l61 383c4 28 -4 42 -25 42zM254 754h29c132 0 188 -83 169 -210l-56 -352c-21 -129 -82 -203 -193 -203h-30c-127 0 -189 75 -169 208l55 347c19 129 69 210 195 210zM236 890h125l55 -123h-106
l-20 47l-31 -47h-108z" />
    <glyph glyph-name="Ograve" unicode="&#xd2;" horiz-adv-x="424" 
d="M262 603c-23 0 -29 -14 -34 -42l-60 -382c-3 -20 2 -36 25 -36s30 16 33 35l61 383c4 28 -4 42 -25 42zM254 754h29c132 0 188 -83 169 -210l-56 -352c-21 -129 -82 -203 -193 -203h-30c-127 0 -189 75 -169 208l55 347c19 129 69 210 195 210zM322 890l23 -123h-120
l-27 123h124z" />
    <glyph glyph-name="Uacute" unicode="&#xda;" horiz-adv-x="419" 
d="M4 185l89 559h165l-88 -559c-3 -25 4 -38 22 -38c19 0 27 13 31 38l88 559h166l-88 -559c-20 -125 -76 -197 -193 -197h-30c-123 0 -181 76 -162 197zM221 767l62 123h129l-66 -123h-125z" />
    <glyph glyph-name="Ucircumflex" unicode="&#xdb;" horiz-adv-x="419" 
d="M4 185l89 559h165l-88 -559c-3 -25 4 -38 22 -38c19 0 27 13 31 38l88 559h166l-88 -559c-20 -125 -76 -197 -193 -197h-30c-123 0 -181 76 -162 197zM237 890h125l55 -123h-106l-20 47l-31 -47h-108z" />
    <glyph glyph-name="Ugrave" unicode="&#xd9;" horiz-adv-x="419" 
d="M4 185l89 559h165l-88 -559c-3 -25 4 -38 22 -38c19 0 27 13 31 38l88 559h166l-88 -559c-20 -125 -76 -197 -193 -197h-30c-123 0 -181 76 -162 197zM327 890l23 -123h-120l-27 123h124z" />
    <glyph glyph-name="dotlessi" unicode="&#x131;" horiz-adv-x="187" 
d="M214 538l-86 -538h-155l85 538h156z" />
    <glyph glyph-name="circumflex" unicode="&#x2c6;" 
d="M297 707l48 -146h-104l-16 65l-32 -65h-104l83 146h125z" />
    <glyph glyph-name="tilde" unicode="&#x2dc;" 
d="M270 672l3 20h83l-11 -69c-7 -39 -26 -62 -63 -62h-1c-20 0 -36 5 -61 20c-15 9 -20 12 -27 12c-5 0 -9 -4 -10 -11l-4 -22h-83l9 59c7 45 24 72 64 72h2c23 0 35 -6 62 -21c11 -7 20 -11 27 -11c6 0 9 4 10 13z" />
    <glyph glyph-name="macron" unicode="&#xaf;" 
d="M111 570l15 100h215l-16 -100h-214z" />
    <glyph glyph-name="breve" unicode="&#x2d8;" 
d="M227 559h-3c-83 0 -120 53 -109 118l2 13h96l-1 -9c-2 -22 5 -33 20 -33h1c15 0 23 9 27 33l2 9h96l-2 -13c-11 -69 -52 -118 -129 -118z" />
    <glyph glyph-name="dotaccent" unicode="&#x2d9;" 
d="M316 702l-22 -141h-156l23 141h155z" />
    <glyph glyph-name="ring" unicode="&#x2da;" 
d="M229 607c21 0 35 15 35 35c0 19 -14 34 -35 34c-20 0 -34 -15 -34 -34c0 -20 14 -35 34 -35zM229 559c-49 0 -85 35 -85 83c0 49 36 83 85 83c51 0 86 -34 86 -83c0 -48 -35 -83 -86 -83z" />
    <glyph glyph-name="cedilla" unicode="&#xb8;" 
d="M90 -196h-81l11 71h60c16 0 21 7 21 16s-6 14 -19 14h-42l16 95h66l-6 -35h2c51 0 79 -24 79 -71c0 -57 -40 -90 -107 -90z" />
    <glyph glyph-name="hungarumlaut" unicode="&#x2dd;" 
d="M312 561h-101l56 146h101zM88 561l54 146h101l-54 -146h-101z" />
    <glyph glyph-name="ogonek" unicode="&#x2db;" 
d="M172 -188h-61c-49 0 -78 23 -78 58c0 44 19 79 100 130h69c-39 -39 -55 -63 -55 -82c0 -12 8 -18 25 -18h14z" />
    <glyph glyph-name="caron" unicode="&#x2c7;" 
d="M159 561l-48 146h103l17 -64l31 64h105l-83 -146h-125z" />
    <glyph glyph-name="idotaccent" horiz-adv-x="186" 
d="M214 538l-86 -538h-155l85 538h156zM240 702l-23 -141h-155l22 141h156z" />
    <glyph glyph-name="space_uni0326" 
d="M140 -211h-65c11 23 19 50 24 71h-52l19 117h124l-12 -77c-9 -56 -30 -95 -38 -111z" />
    <glyph glyph-name="zero.num" horiz-adv-x="260" 
d="M190 750h14c81 0 111 -51 102 -112l-20 -133c-11 -57 -42 -109 -118 -109h-16c-81 0 -110 52 -102 113l21 129c11 60 34 112 119 112zM191 663c-11 0 -11 -8 -14 -19l-22 -141c-1 -9 0 -17 11 -17s11 6 14 17l23 141c1 13 -3 19 -12 19z" />
    <glyph glyph-name="one.num" horiz-adv-x="166" 
d="M108 627h-43l13 77c39 0 53 16 58 40h89l-54 -341h-99z" />
    <glyph glyph-name="two.num" horiz-adv-x="239" 
d="M253 402h-225l8 49c8 40 18 60 104 133c38 33 40 41 46 63l2 13c1 12 0 18 -9 18c-11 0 -11 -6 -14 -18l-7 -43h-91l8 47c5 43 24 86 103 86h16c76 0 102 -33 95 -86l-3 -14c-8 -54 -28 -75 -90 -115c-61 -40 -66 -47 -68 -57h53l8 44h84z" />
    <glyph glyph-name="three.num" horiz-adv-x="236" 
d="M159 631h-90l5 35c7 49 32 84 104 84h13c65 0 102 -26 93 -82l-3 -17c-5 -36 -24 -52 -43 -57c16 -7 36 -26 31 -67l-6 -36c-11 -60 -38 -96 -113 -96h-14c-82 0 -100 40 -92 85l7 47h94l-7 -41c-1 -7 1 -14 10 -14c8 0 10 6 11 14l7 43c1 9 -2 13 -8 13h-45l13 76h41
c11 0 12 2 13 13l6 34c2 10 -1 15 -9 15c-7 0 -11 -5 -12 -15z" />
    <glyph glyph-name="four.num" horiz-adv-x="227" 
d="M38 455l11 70c27 52 85 159 114 220h105l-33 -206h28l-14 -84h-27l-8 -53h-94l8 53h-90zM115 539h26l13 80c-8 -17 -31 -61 -39 -80z" />
    <glyph glyph-name="five.num" horiz-adv-x="239" 
d="M149 545h-90l32 199h202l-13 -78h-114l-8 -55c11 13 32 36 64 36h4c41 0 58 -31 51 -74l-12 -82c-9 -57 -38 -95 -113 -95h-15c-78 0 -101 39 -93 86l6 39h97l-6 -38c-1 -9 1 -14 8 -14s11 5 12 14l12 76c1 10 -2 15 -9 15c-8 0 -11 -7 -12 -15z" />
    <glyph glyph-name="six.num" horiz-adv-x="253" 
d="M231 623h3c44 0 59 -33 54 -72l-9 -56c-9 -60 -43 -99 -114 -99h-15c-75 0 -112 40 -101 105l24 149c8 52 34 100 114 100h13c80 0 105 -41 96 -94l-4 -20h-99l4 22c2 11 -1 17 -8 17c-9 0 -11 -7 -12 -15l-11 -69c11 12 33 32 65 32zM160 472c11 0 12 7 15 18l7 47
c1 13 -2 19 -10 19c-11 0 -11 -8 -14 -19l-7 -47c-3 -11 0 -18 9 -18z" />
    <glyph glyph-name="seven.num" horiz-adv-x="222" 
d="M86 744h201l-7 -44c-4 -23 -23 -68 -46 -139c-22 -62 -27 -93 -35 -142l-2 -17h-114l2 15c8 50 17 76 51 136c40 71 55 99 58 123h-34l-10 -57h-84z" />
    <glyph glyph-name="eight.num" horiz-adv-x="239" 
d="M289 667l-3 -22c-7 -39 -26 -54 -43 -61c15 -7 33 -29 26 -65l-5 -34c-8 -56 -41 -89 -110 -89h-12c-73 0 -105 35 -97 90l5 35c5 29 22 52 46 63c-12 9 -27 27 -22 60l4 24c8 52 36 82 105 82h12c69 0 102 -30 94 -83zM188 631l5 33c2 10 -1 15 -9 15s-9 -6 -12 -15
l-5 -33c-3 -8 0 -17 9 -17c7 0 9 8 12 17zM166 488l7 42c1 11 1 18 -10 18c-9 0 -10 -7 -13 -18l-7 -42c-1 -11 2 -16 10 -16c9 0 10 7 13 16z" />
    <glyph glyph-name="nine.num" horiz-adv-x="254" 
d="M190 674c-11 0 -13 -7 -14 -18l-8 -47c-1 -11 -1 -19 10 -19s13 8 14 19l7 47c3 11 0 18 -9 18zM63 604l8 48c11 63 42 98 114 98h15c76 0 112 -40 101 -104l-24 -150c-8 -51 -31 -100 -112 -100h-14c-81 0 -105 39 -97 94l4 20h99l-4 -25c-2 -9 1 -13 8 -13s11 5 12 14
l11 69c-9 -11 -32 -31 -63 -31h-4c-43 0 -61 36 -54 80z" />
    <glyph glyph-name="zero.den" horiz-adv-x="259" 
d="M129 349h14c81 0 111 -51 102 -112l-20 -133c-11 -57 -42 -109 -118 -109h-16c-81 0 -110 52 -102 113l21 129c11 60 34 112 119 112zM130 262c-11 0 -11 -8 -14 -19l-22 -141c-1 -9 0 -17 11 -17s11 6 14 17l23 141c1 13 -3 19 -12 19z" />
    <glyph glyph-name="one.den" horiz-adv-x="166" 
d="M47 225h-43l13 77c39 0 53 16 58 40h89l-54 -341h-99z" />
    <glyph glyph-name="two.den" horiz-adv-x="239" 
d="M192 0h-225l8 49c8 40 18 60 104 133c38 33 40 41 46 63l2 13c1 12 0 18 -9 18c-11 0 -11 -6 -14 -18l-7 -43h-91l8 47c5 43 24 86 103 86h16c76 0 102 -33 95 -86l-3 -14c-8 -54 -28 -75 -90 -115c-61 -40 -66 -47 -68 -57h53l8 44h84z" />
    <glyph glyph-name="three.den" horiz-adv-x="236" 
d="M98 230h-90l5 35c7 49 32 84 104 84h13c65 0 102 -26 93 -82l-3 -17c-5 -36 -24 -52 -43 -57c16 -7 36 -26 31 -67l-6 -36c-11 -60 -38 -96 -113 -96h-14c-82 0 -100 40 -92 85l7 47h94l-7 -41c-1 -7 1 -14 10 -14c8 0 10 6 11 14l7 43c1 9 -2 13 -8 13h-45l13 76h41
c11 0 12 2 13 13l6 34c2 10 -1 15 -9 15c-7 0 -11 -5 -12 -15z" />
    <glyph glyph-name="four.den" horiz-adv-x="227" 
d="M-23 53l11 70c27 52 85 159 114 220h105l-33 -206h28l-14 -84h-27l-8 -53h-94l8 53h-90zM54 137h26l13 80c-8 -17 -31 -61 -39 -80z" />
    <glyph glyph-name="five.den" horiz-adv-x="239" 
d="M88 144h-90l32 199h202l-13 -78h-114l-8 -55c11 13 32 36 64 36h4c41 0 58 -31 51 -74l-12 -82c-9 -57 -38 -95 -113 -95h-15c-78 0 -101 39 -93 86l6 39h97l-6 -38c-1 -9 1 -14 8 -14s11 5 12 14l12 76c1 10 -2 15 -9 15c-8 0 -11 -7 -12 -15z" />
    <glyph glyph-name="six.den" horiz-adv-x="254" 
d="M170 222h3c44 0 59 -33 54 -72l-9 -56c-9 -60 -43 -99 -114 -99h-15c-75 0 -112 40 -101 105l24 149c8 52 34 100 114 100h13c80 0 105 -41 96 -94l-4 -20h-99l4 22c2 11 -1 17 -8 17c-9 0 -11 -7 -12 -15l-11 -69c11 12 33 32 65 32zM99 71c11 0 12 7 15 18l7 47
c1 13 -2 19 -10 19c-11 0 -11 -8 -14 -19l-7 -47c-3 -11 0 -18 9 -18z" />
    <glyph glyph-name="seven.den" horiz-adv-x="222" 
d="M25 342h201l-7 -44c-4 -23 -23 -68 -46 -139c-22 -62 -27 -93 -35 -142l-2 -17h-114l2 15c8 50 17 76 51 136c40 71 55 99 58 123h-34l-10 -57h-84z" />
    <glyph glyph-name="eight.den" horiz-adv-x="239" 
d="M228 265l-3 -22c-7 -39 -26 -54 -43 -61c15 -7 33 -29 26 -65l-5 -34c-8 -56 -41 -89 -110 -89h-12c-73 0 -105 35 -97 90l5 35c5 29 22 52 46 63c-12 9 -27 27 -22 60l4 24c8 52 36 82 105 82h12c69 0 102 -30 94 -83zM127 229l5 33c2 10 -1 15 -9 15s-9 -6 -12 -15
l-5 -33c-3 -8 0 -17 9 -17c7 0 9 8 12 17zM105 86l7 42c1 11 1 18 -10 18c-9 0 -10 -7 -13 -18l-7 -42c-1 -11 2 -16 10 -16c9 0 10 7 13 16z" />
    <glyph glyph-name="nine.den" horiz-adv-x="254" 
d="M129 273c-11 0 -13 -7 -14 -18l-8 -47c-1 -11 -1 -19 10 -19s13 8 14 19l7 47c3 11 0 18 -9 18zM2 203l8 48c11 63 42 98 114 98h15c76 0 112 -40 101 -104l-24 -150c-8 -51 -31 -100 -112 -100h-14c-81 0 -105 39 -97 94l4 20h99l-4 -25c-2 -9 1 -13 8 -13s11 5 12 14
l11 69c-9 -11 -32 -31 -63 -31h-4c-43 0 -61 36 -54 80z" />
    <glyph glyph-name="zero.sub" horiz-adv-x="260" 
d="M112 237h14c81 0 111 -51 102 -112l-20 -133c-11 -57 -42 -109 -118 -109h-16c-81 0 -110 52 -102 113l21 129c11 60 34 112 119 112zM113 150c-11 0 -11 -8 -14 -19l-22 -141c-1 -9 0 -17 11 -17s11 6 14 17l23 141c1 13 -3 19 -12 19z" />
    <glyph glyph-name="one.sub" horiz-adv-x="166" 
d="M30 112h-43l13 77c39 0 53 16 58 40h89l-54 -341h-99z" />
    <glyph glyph-name="two.sub" horiz-adv-x="239" 
d="M175 -111h-225l8 49c8 40 18 60 104 133c38 33 40 41 46 63l2 13c1 12 0 18 -9 18c-11 0 -11 -6 -14 -18l-7 -43h-91l8 47c5 43 24 86 103 86h16c76 0 102 -33 95 -86l-3 -14c-8 -54 -28 -75 -90 -115c-61 -40 -66 -47 -68 -57h53l8 44h84z" />
    <glyph glyph-name="three.sub" horiz-adv-x="236" 
d="M81 118h-90l5 35c7 49 32 84 104 84h13c65 0 102 -26 93 -82l-3 -17c-5 -36 -24 -52 -43 -57c16 -7 36 -26 31 -67l-6 -36c-11 -60 -38 -96 -113 -96h-14c-82 0 -100 40 -92 85l7 47h94l-7 -41c-1 -7 1 -14 10 -14c8 0 10 6 11 14l7 43c1 9 -2 13 -8 13h-45l13 76h41
c11 0 12 2 13 13l6 34c2 10 -1 15 -9 15c-7 0 -11 -5 -12 -15z" />
    <glyph glyph-name="four.sub" horiz-adv-x="227" 
d="M-40 -59l11 70c27 52 85 159 114 220h105l-33 -206h28l-14 -84h-27l-8 -53h-94l8 53h-90zM37 25h26l13 80c-8 -17 -31 -61 -39 -80z" />
    <glyph glyph-name="five.sub" horiz-adv-x="239" 
d="M71 32h-90l32 199h202l-13 -78h-114l-8 -55c11 13 32 36 64 36h4c41 0 58 -31 51 -74l-12 -82c-9 -57 -38 -95 -113 -95h-15c-78 0 -101 39 -93 86l6 39h97l-6 -38c-1 -9 1 -14 8 -14s11 5 12 14l12 76c1 10 -2 15 -9 15c-8 0 -11 -7 -12 -15z" />
    <glyph glyph-name="six.sub" horiz-adv-x="254" 
d="M153 110h3c44 0 59 -33 54 -72l-9 -56c-9 -60 -43 -99 -114 -99h-15c-75 0 -112 40 -101 105l24 149c8 52 34 100 114 100h13c80 0 105 -41 96 -94l-4 -20h-99l4 22c2 11 -1 17 -8 17c-9 0 -11 -7 -12 -15l-11 -69c11 12 33 32 65 32zM82 -41c11 0 12 7 15 18l7 47
c1 13 -2 19 -10 19c-11 0 -11 -8 -14 -19l-7 -47c-3 -11 0 -18 9 -18z" />
    <glyph glyph-name="seven.sub" horiz-adv-x="222" 
d="M8 230h201l-7 -44c-4 -23 -23 -68 -46 -139c-22 -62 -27 -93 -35 -142l-2 -17h-114l2 15c8 50 17 76 51 136c40 71 55 99 58 123h-34l-10 -57h-84z" />
    <glyph glyph-name="eight.sub" horiz-adv-x="239" 
d="M211 154l-3 -22c-7 -39 -26 -54 -43 -61c15 -7 33 -29 26 -65l-5 -34c-8 -56 -41 -89 -110 -89h-12c-73 0 -105 35 -97 90l5 35c5 29 22 52 46 63c-12 9 -27 27 -22 60l4 24c8 52 36 82 105 82h12c69 0 102 -30 94 -83zM110 118l5 33c2 10 -1 15 -9 15s-9 -6 -12 -15
l-5 -33c-3 -8 0 -17 9 -17c7 0 9 8 12 17zM88 -25l7 42c1 11 1 18 -10 18c-9 0 -10 -7 -13 -18l-7 -42c-1 -11 2 -16 10 -16c9 0 10 7 13 16z" />
    <glyph glyph-name="nine.sub" horiz-adv-x="254" 
d="M112 161c-11 0 -13 -7 -14 -18l-8 -47c-1 -11 -1 -19 10 -19s13 8 14 19l7 47c3 11 0 18 -9 18zM-15 91l8 48c11 63 42 98 114 98h15c76 0 112 -40 101 -104l-24 -150c-8 -51 -31 -100 -112 -100h-14c-81 0 -105 39 -97 94l4 20h99l-4 -25c-2 -9 1 -13 8 -13s11 5 12 14
l11 69c-9 -11 -32 -31 -63 -31h-4c-43 0 -61 36 -54 80z" />
    <glyph glyph-name="zero.sup" horiz-adv-x="260" 
d="M190 750h14c81 0 111 -51 102 -112l-20 -133c-11 -57 -42 -109 -118 -109h-16c-81 0 -110 52 -102 113l21 129c11 60 34 112 119 112zM191 663c-11 0 -11 -8 -14 -19l-22 -141c-1 -9 0 -17 11 -17s11 6 14 17l23 141c1 13 -3 19 -12 19z" />
    <glyph glyph-name="one.sup" horiz-adv-x="166" 
d="M108 627h-43l13 77c39 0 53 16 58 40h89l-54 -341h-99z" />
    <glyph glyph-name="two.sup" horiz-adv-x="239" 
d="M253 402h-225l8 49c8 40 18 60 104 133c38 33 40 41 46 63l2 13c1 12 0 18 -9 18c-11 0 -11 -6 -14 -18l-7 -43h-91l8 47c5 43 24 86 103 86h16c76 0 102 -33 95 -86l-3 -14c-8 -54 -28 -75 -90 -115c-61 -40 -66 -47 -68 -57h53l8 44h84z" />
    <glyph glyph-name="three.sup" horiz-adv-x="236" 
d="M159 631h-90l5 35c7 49 32 84 104 84h13c65 0 102 -26 93 -82l-3 -17c-5 -36 -24 -52 -43 -57c16 -7 36 -26 31 -67l-6 -36c-11 -60 -38 -96 -113 -96h-14c-82 0 -100 40 -92 85l7 47h94l-7 -41c-1 -7 1 -14 10 -14c8 0 10 6 11 14l7 43c1 9 -2 13 -8 13h-45l13 76h41
c11 0 12 2 13 13l6 34c2 10 -1 15 -9 15c-7 0 -11 -5 -12 -15z" />
    <glyph glyph-name="four.sup" horiz-adv-x="227" 
d="M38 455l11 70c27 52 85 159 114 220h105l-33 -206h28l-14 -84h-27l-8 -53h-94l8 53h-90zM115 539h26l13 80c-8 -17 -31 -61 -39 -80z" />
    <glyph glyph-name="five.sup" horiz-adv-x="240" 
d="M149 545h-90l32 199h202l-13 -78h-114l-8 -55c11 13 32 36 64 36h4c41 0 58 -31 51 -74l-12 -82c-9 -57 -38 -95 -113 -95h-15c-78 0 -101 39 -93 86l6 39h97l-6 -38c-1 -9 1 -14 8 -14s11 5 12 14l12 76c1 10 -2 15 -9 15c-8 0 -11 -7 -12 -15z" />
    <glyph glyph-name="six.sup" horiz-adv-x="253" 
d="M231 623h3c44 0 59 -33 54 -72l-9 -56c-9 -60 -43 -99 -114 -99h-15c-75 0 -112 40 -101 105l24 149c8 52 34 100 114 100h13c80 0 105 -41 96 -94l-4 -20h-99l4 22c2 11 -1 17 -8 17c-9 0 -11 -7 -12 -15l-11 -69c11 12 33 32 65 32zM160 472c11 0 12 7 15 18l7 47
c1 13 -2 19 -10 19c-11 0 -11 -8 -14 -19l-7 -47c-3 -11 0 -18 9 -18z" />
    <glyph glyph-name="seven.sup" horiz-adv-x="222" 
d="M86 744h201l-7 -44c-4 -23 -23 -68 -46 -139c-22 -62 -27 -93 -35 -142l-2 -17h-114l2 15c8 50 17 76 51 136c40 71 55 99 58 123h-34l-10 -57h-84z" />
    <glyph glyph-name="eight.sup" horiz-adv-x="239" 
d="M289 667l-3 -22c-7 -39 -26 -54 -43 -61c15 -7 33 -29 26 -65l-5 -34c-8 -56 -41 -89 -110 -89h-12c-73 0 -105 35 -97 90l5 35c5 29 22 52 46 63c-12 9 -27 27 -22 60l4 24c8 52 36 82 105 82h12c69 0 102 -30 94 -83zM188 631l5 33c2 10 -1 15 -9 15s-9 -6 -12 -15
l-5 -33c-3 -8 0 -17 9 -17c7 0 9 8 12 17zM166 488l7 42c1 11 1 18 -10 18c-9 0 -10 -7 -13 -18l-7 -42c-1 -11 2 -16 10 -16c9 0 10 7 13 16z" />
    <glyph glyph-name="nine.sup" horiz-adv-x="254" 
d="M190 674c-11 0 -13 -7 -14 -18l-8 -47c-1 -11 -1 -19 10 -19s13 8 14 19l7 47c3 11 0 18 -9 18zM63 604l8 48c11 63 42 98 114 98h15c76 0 112 -40 101 -104l-24 -150c-8 -51 -31 -100 -112 -100h-14c-81 0 -105 39 -97 94l4 20h99l-4 -25c-2 -9 1 -13 8 -13s11 5 12 14
l11 69c-9 -11 -32 -31 -63 -31h-4c-43 0 -61 36 -54 80z" />
    <glyph glyph-name="IJ.alt" horiz-adv-x="461" 
d="M253 744l-118 -744h-160l118 744h160zM158 0l25 157h55c17 0 21 9 24 26l89 561h168l-100 -634c-11 -71 -48 -110 -112 -110h-149z" />
    <glyph glyph-name="a.alt2" horiz-adv-x="385" 
d="M258 538h155l-86 -538h-155l10 60c-16 -27 -57 -71 -105 -71h-3c-64 0 -95 60 -84 129l49 305c11 67 43 121 103 121h5c54 0 80 -38 101 -69zM195 146l38 241c3 19 1 34 -18 34c-15 0 -20 -13 -23 -32l-39 -245c-3 -16 -1 -33 16 -33s23 14 26 35z" />
    <glyph glyph-name="Eacute.alt" horiz-adv-x="339" 
d="M184 767l62 123h129l-66 -123h-125zM93 744h295l-23 -154h-136l-20 -127h130l-25 -158h-131l-23 -148h139l-25 -157h-299z" />
    <glyph glyph-name="Ebreve.alt" horiz-adv-x="329" 
d="M250 764h-4c-79 0 -118 45 -110 113l1 8h95c-3 -19 4 -33 20 -33h1c19 0 27 13 28 33h96l-1 -10c-7 -69 -50 -111 -126 -111zM93 744h295l-23 -154h-136l-20 -127h130l-25 -158h-131l-23 -148h139l-25 -157h-299z" />
    <glyph glyph-name="Ecaron.alt" horiz-adv-x="329" 
d="M306 767h-125l-54 123h105l20 -48l31 48h108zM93 744h295l-23 -154h-136l-20 -127h130l-25 -158h-131l-23 -148h139l-25 -157h-299z" />
    <glyph glyph-name="Ecircumflex.alt" horiz-adv-x="339" 
d="M201 890h125l55 -123h-106l-20 47l-31 -47h-108zM93 744h295l-23 -154h-136l-20 -127h130l-25 -158h-131l-23 -148h139l-25 -157h-299z" />
    <glyph glyph-name="Edieresis.alt" horiz-adv-x="339" 
d="M376 767h-114l19 118h114zM239 767h-114l19 118h114zM93 744h295l-23 -154h-136l-20 -127h130l-25 -158h-131l-23 -148h139l-25 -157h-299z" />
    <glyph glyph-name="Edotaccent.alt" horiz-adv-x="329" 
d="M323 767h-156l23 141h155zM93 744h295l-23 -154h-136l-20 -127h130l-25 -158h-131l-23 -148h139l-25 -157h-299z" />
    <glyph glyph-name="Egrave.alt" horiz-adv-x="339" 
d="M290 890l23 -123h-120l-27 123h124zM93 744h295l-23 -154h-136l-20 -127h130l-25 -158h-131l-23 -148h139l-25 -157h-299z" />
    <glyph glyph-name="Emacron.alt" horiz-adv-x="329" 
d="M139 774l15 100h217l-15 -100h-217zM93 744h295l-23 -154h-136l-20 -127h130l-25 -158h-131l-23 -148h139l-25 -157h-299z" />
    <glyph glyph-name="Eogonek.alt" horiz-adv-x="329" 
d="M200 -188h-61c-49 0 -78 23 -78 58c0 44 19 79 100 130h69c-39 -39 -55 -63 -55 -82c0 -12 8 -18 25 -18h14zM93 744h295l-23 -154h-136l-20 -127h130l-25 -158h-131l-23 -148h139l-25 -157h-299z" />
    <glyph glyph-name="Jcircumflex.alt" horiz-adv-x="268" 
d="M193 890h125l55 -123h-106l-20 47l-31 -47h-108zM-34 0l25 157h55c17 0 21 9 24 26l89 561h168l-100 -634c-11 -71 -48 -110 -112 -110h-149z" />
    <glyph glyph-name="aacute.alt" horiz-adv-x="362" 
d="M158 564l64 143h126l-69 -143h-121zM165 60c-16 -24 -54 -66 -105 -66h-3c-56 0 -83 46 -72 110l15 96c9 59 27 92 79 116c29 16 107 42 123 50c9 5 11 9 14 22l3 22c3 19 -2 29 -16 29h-3c-15 0 -19 -11 -22 -28l-7 -46h-139l10 59c11 59 34 123 156 123h21
c127 0 162 -52 151 -131l-45 -284c-13 -88 -13 -108 -10 -127l-1 -5h-144c-5 8 -9 25 -5 60zM153 110c15 0 20 9 23 26l19 122c-9 -4 -23 -12 -30 -19c-11 -9 -14 -19 -17 -36l-10 -66c-3 -16 2 -27 15 -27z" />
    <glyph glyph-name="aacute.alt2" horiz-adv-x="385" 
d="M171 561l66 146h125l-70 -146h-121zM258 538h155l-86 -538h-155l10 60c-16 -27 -57 -71 -105 -71h-3c-64 0 -95 60 -84 129l49 305c11 67 43 121 103 121h5c54 0 80 -38 101 -69zM195 146l38 241c3 19 1 34 -18 34c-15 0 -20 -13 -23 -32l-39 -245c-3 -16 -1 -33 16 -33
s23 14 26 35z" />
    <glyph glyph-name="abreve.alt" horiz-adv-x="362" 
d="M165 60c-16 -24 -54 -66 -105 -66h-3c-56 0 -83 46 -72 110l15 96c9 59 27 92 79 116c29 16 107 42 123 50c9 5 11 9 14 22l3 22c3 19 -2 29 -16 29h-3c-15 0 -19 -11 -22 -28l-7 -46h-139l10 59c11 59 34 123 156 123h21c127 0 162 -52 151 -131l-45 -284
c-13 -88 -13 -108 -10 -127l-1 -5h-144c-5 8 -9 25 -5 60zM153 110c15 0 20 9 23 26l19 122c-9 -4 -23 -12 -30 -19c-11 -9 -14 -19 -17 -36l-10 -66c-3 -16 2 -27 15 -27zM226 561h-3c-83 0 -120 53 -109 118l2 13h96l-1 -9c-2 -22 5 -33 20 -33h1c15 0 23 9 27 33l2 9h96
l-2 -13c-11 -69 -52 -118 -129 -118z" />
    <glyph glyph-name="abreve.alt2" horiz-adv-x="385" 
d="M258 538h155l-86 -538h-155l10 60c-16 -27 -57 -71 -105 -71h-3c-64 0 -95 60 -84 129l49 305c11 67 43 121 103 121h5c54 0 80 -38 101 -69zM195 146l38 241c3 19 1 34 -18 34c-15 0 -20 -13 -23 -32l-39 -245c-3 -16 -1 -33 16 -33s23 14 26 35zM238 559h-3
c-83 0 -120 53 -109 118l2 13h96l-1 -9c-2 -22 5 -33 20 -33h1c15 0 23 9 27 33l2 9h96l-2 -13c-11 -69 -52 -118 -129 -118z" />
    <glyph glyph-name="acircumflex.alt" horiz-adv-x="362" 
d="M302 707l48 -143h-104l-16 62l-31 -62h-105l82 143h126zM165 60c-16 -24 -54 -66 -105 -66h-3c-56 0 -83 46 -72 110l15 96c9 59 27 92 79 116c29 16 107 42 123 50c9 5 11 9 14 22l3 22c3 19 -2 29 -16 29h-3c-15 0 -19 -11 -22 -28l-7 -46h-139l10 59
c11 59 34 123 156 123h21c127 0 162 -52 151 -131l-45 -284c-13 -88 -13 -108 -10 -127l-1 -5h-144c-5 8 -9 25 -5 60zM153 110c15 0 20 9 23 26l19 122c-9 -4 -23 -12 -30 -19c-11 -9 -14 -19 -17 -36l-10 -66c-3 -16 2 -27 15 -27z" />
    <glyph glyph-name="acircumflex.alt2" horiz-adv-x="385" 
d="M315 707l48 -146h-104l-16 65l-32 -65h-104l83 146h125zM258 538h155l-86 -538h-155l10 60c-16 -27 -57 -71 -105 -71h-3c-64 0 -95 60 -84 129l49 305c11 67 43 121 103 121h5c54 0 80 -38 101 -69zM195 146l38 241c3 19 1 34 -18 34c-15 0 -20 -13 -23 -32l-39 -245
c-3 -16 -1 -33 16 -33s23 14 26 35z" />
    <glyph glyph-name="adieresis.alt" horiz-adv-x="362" 
d="M347 563h-114l19 119h114zM230 682l-20 -119h-113l19 119h114zM165 60c-16 -24 -54 -66 -105 -66h-3c-56 0 -83 46 -72 110l15 96c9 59 27 92 79 116c29 16 107 42 123 50c9 5 11 9 14 22l3 22c3 19 -2 29 -16 29h-3c-15 0 -19 -11 -22 -28l-7 -46h-139l10 59
c11 59 34 123 156 123h21c127 0 162 -52 151 -131l-45 -284c-13 -88 -13 -108 -10 -127l-1 -5h-144c-5 8 -9 25 -5 60zM153 110c15 0 20 9 23 26l19 122c-9 -4 -23 -12 -30 -19c-11 -9 -14 -19 -17 -36l-10 -66c-3 -16 2 -27 15 -27z" />
    <glyph glyph-name="adieresis.alt2" horiz-adv-x="385" 
d="M359 561h-114l19 119h114zM242 680l-20 -119h-113l19 119h114zM258 538h155l-86 -538h-155l10 60c-16 -27 -57 -71 -105 -71h-3c-64 0 -95 60 -84 129l49 305c11 67 43 121 103 121h5c54 0 80 -38 101 -69zM195 146l38 241c3 19 1 34 -18 34c-15 0 -20 -13 -23 -32
l-39 -245c-3 -16 -1 -33 16 -33s23 14 26 35z" />
    <glyph glyph-name="agrave.alt" horiz-adv-x="362" 
d="M256 707l22 -143h-116l-25 143h119zM165 60c-16 -24 -54 -66 -105 -66h-3c-56 0 -83 46 -72 110l15 96c9 59 27 92 79 116c29 16 107 42 123 50c9 5 11 9 14 22l3 22c3 19 -2 29 -16 29h-3c-15 0 -19 -11 -22 -28l-7 -46h-139l10 59c11 59 34 123 156 123h21
c127 0 162 -52 151 -131l-45 -284c-13 -88 -13 -108 -10 -127l-1 -5h-144c-5 8 -9 25 -5 60zM153 110c15 0 20 9 23 26l19 122c-9 -4 -23 -12 -30 -19c-11 -9 -14 -19 -17 -36l-10 -66c-3 -16 2 -27 15 -27z" />
    <glyph glyph-name="agrave.alt2" horiz-adv-x="385" 
d="M258 538h155l-86 -538h-155l10 60c-16 -27 -57 -71 -105 -71h-3c-64 0 -95 60 -84 129l49 305c11 67 43 121 103 121h5c54 0 80 -38 101 -69zM195 146l38 241c3 19 1 34 -18 34c-15 0 -20 -13 -23 -32l-39 -245c-3 -16 -1 -33 16 -33s23 14 26 35zM273 707l22 -146h-116
l-26 146h120z" />
    <glyph glyph-name="amacron.alt" horiz-adv-x="362" 
d="M165 60c-16 -24 -54 -66 -105 -66h-3c-56 0 -83 46 -72 110l15 96c9 59 27 92 79 116c29 16 107 42 123 50c9 5 11 9 14 22l3 22c3 19 -2 29 -16 29h-3c-15 0 -19 -11 -22 -28l-7 -46h-139l10 59c11 59 34 123 156 123h21c127 0 162 -52 151 -131l-45 -284
c-13 -88 -13 -108 -10 -127l-1 -5h-144c-5 8 -9 25 -5 60zM153 110c15 0 20 9 23 26l19 122c-9 -4 -23 -12 -30 -19c-11 -9 -14 -19 -17 -36l-10 -66c-3 -16 2 -27 15 -27zM116 572l15 100h215l-16 -100h-214z" />
    <glyph glyph-name="amacron.alt2" horiz-adv-x="385" 
d="M124 570l15 100h215l-16 -100h-214zM258 538h155l-86 -538h-155l10 60c-16 -27 -57 -71 -105 -71h-3c-64 0 -95 60 -84 129l49 305c11 67 43 121 103 121h5c54 0 80 -38 101 -69zM195 146l38 241c3 19 1 34 -18 34c-15 0 -20 -13 -23 -32l-39 -245c-3 -16 -1 -33 16 -33
s23 14 26 35z" />
    <glyph glyph-name="aogonek.alt" horiz-adv-x="362" 
d="M165 60c-16 -24 -54 -66 -105 -66h-3c-56 0 -83 46 -72 110l15 96c9 59 27 92 79 116c29 16 107 42 123 50c9 5 11 9 14 22l3 22c3 19 -2 29 -16 29h-3c-15 0 -19 -11 -22 -28l-7 -46h-139l10 59c11 59 34 123 156 123h21c127 0 162 -52 151 -131l-45 -284
c-13 -88 -13 -108 -10 -127l-1 -5h-144c-5 8 -9 25 -5 60zM153 110c15 0 20 9 23 26l19 122c-9 -4 -23 -12 -30 -19c-11 -9 -14 -19 -17 -36l-10 -66c-3 -16 2 -27 15 -27zM283 -188h-61c-49 0 -78 23 -78 58c0 44 19 79 100 130h69c-39 -39 -55 -63 -55 -82
c0 -12 8 -18 25 -18h14z" />
    <glyph glyph-name="aogonek.alt2" horiz-adv-x="385" 
d="M297 -188h-61c-49 0 -78 23 -78 58c0 44 19 79 100 130h69c-39 -39 -55 -63 -55 -82c0 -12 8 -18 25 -18h14zM258 538h155l-86 -538h-155l10 60c-16 -27 -57 -71 -105 -71h-3c-64 0 -95 60 -84 129l49 305c11 67 43 121 103 121h5c54 0 80 -38 101 -69zM195 146l38 241
c3 19 1 34 -18 34c-15 0 -20 -13 -23 -32l-39 -245c-3 -16 -1 -33 16 -33s23 14 26 35z" />
    <glyph glyph-name="aring.alt" horiz-adv-x="362" 
d="M223 609c21 0 35 15 35 35c0 19 -14 34 -35 34c-20 0 -34 -15 -34 -34c0 -20 14 -35 34 -35zM223 561c-49 0 -85 35 -85 83c0 49 36 83 85 83c51 0 86 -34 86 -83c0 -48 -35 -83 -86 -83zM165 60c-16 -24 -54 -66 -105 -66h-3c-56 0 -83 46 -72 110l15 96
c9 59 27 92 79 116c29 16 107 42 123 50c9 5 11 9 14 22l3 22c3 19 -2 29 -16 29h-3c-15 0 -19 -11 -22 -28l-7 -46h-139l10 59c11 59 34 123 156 123h21c127 0 162 -52 151 -131l-45 -284c-13 -88 -13 -108 -10 -127l-1 -5h-144c-5 8 -9 25 -5 60zM153 110c15 0 20 9 23 26
l19 122c-9 -4 -23 -12 -30 -19c-11 -9 -14 -19 -17 -36l-10 -66c-3 -16 2 -27 15 -27z" />
    <glyph glyph-name="aring.alt2" horiz-adv-x="385" 
d="M235 607c21 0 35 15 35 35c0 19 -14 34 -35 34c-20 0 -34 -15 -34 -34c0 -20 14 -35 34 -35zM235 559c-49 0 -85 35 -85 83c0 49 36 83 85 83c51 0 86 -34 86 -83c0 -48 -35 -83 -86 -83zM258 538h155l-86 -538h-155l10 60c-16 -27 -57 -71 -105 -71h-3
c-64 0 -95 60 -84 129l49 305c11 67 43 121 103 121h5c54 0 80 -38 101 -69zM195 146l38 241c3 19 1 34 -18 34c-15 0 -20 -13 -23 -32l-39 -245c-3 -16 -1 -33 16 -33s23 14 26 35z" />
    <glyph glyph-name="aringacute.alt" horiz-adv-x="362" 
d="M173 741l66 146h125l-70 -146h-121zM223 610c21 0 35 15 35 35c0 19 -14 34 -35 34c-20 0 -34 -15 -34 -34c0 -20 14 -35 34 -35zM223 562c-49 0 -85 35 -85 83c0 49 36 83 85 83c51 0 86 -34 86 -83c0 -48 -35 -83 -86 -83zM165 60c-16 -24 -54 -66 -105 -66h-3
c-56 0 -83 46 -72 110l15 96c9 59 27 92 79 116c29 16 107 42 123 50c9 5 11 9 14 22l3 22c3 19 -2 29 -16 29h-3c-15 0 -19 -11 -22 -28l-7 -46h-139l10 59c11 59 34 123 156 123h21c127 0 162 -52 151 -131l-45 -284c-13 -88 -13 -108 -10 -127l-1 -5h-144
c-5 8 -9 25 -5 60zM153 110c15 0 20 9 23 26l19 122c-9 -4 -23 -12 -30 -19c-11 -9 -14 -19 -17 -36l-10 -66c-3 -16 2 -27 15 -27z" />
    <glyph glyph-name="aringacute.alt2" horiz-adv-x="385" 
d="M187 738l66 146h125l-70 -146h-121zM235 607c21 0 35 15 35 35c0 19 -14 34 -35 34c-20 0 -34 -15 -34 -34c0 -20 14 -35 34 -35zM235 559c-49 0 -85 35 -85 83c0 49 36 83 85 83c51 0 86 -34 86 -83c0 -48 -35 -83 -86 -83zM258 538h155l-86 -538h-155l10 60
c-16 -27 -57 -71 -105 -71h-3c-64 0 -95 60 -84 129l49 305c11 67 43 121 103 121h5c54 0 80 -38 101 -69zM195 146l38 241c3 19 1 34 -18 34c-15 0 -20 -13 -23 -32l-39 -245c-3 -16 -1 -33 16 -33s23 14 26 35z" />
    <glyph glyph-name="atilde.alt" horiz-adv-x="362" 
d="M165 60c-16 -24 -54 -66 -105 -66h-3c-56 0 -83 46 -72 110l15 96c9 59 27 92 79 116c29 16 107 42 123 50c9 5 11 9 14 22l3 22c3 19 -2 29 -16 29h-3c-15 0 -19 -11 -22 -28l-7 -46h-139l10 59c11 59 34 123 156 123h21c127 0 162 -52 151 -131l-45 -284
c-13 -88 -13 -108 -10 -127l-1 -5h-144c-5 8 -9 25 -5 60zM153 110c15 0 20 9 23 26l19 122c-9 -4 -23 -12 -30 -19c-11 -9 -14 -19 -17 -36l-10 -66c-3 -16 2 -27 15 -27zM272 674l3 20h83l-11 -69c-7 -39 -26 -62 -63 -62h-1c-20 0 -36 5 -61 20c-15 9 -20 12 -27 12
c-5 0 -9 -4 -10 -11l-4 -22h-83l9 59c7 45 24 72 64 72h2c23 0 35 -6 62 -21c11 -7 20 -11 27 -11c6 0 9 4 10 13z" />
    <glyph glyph-name="atilde.alt2" horiz-adv-x="385" 
d="M258 538h155l-86 -538h-155l10 60c-16 -27 -57 -71 -105 -71h-3c-64 0 -95 60 -84 129l49 305c11 67 43 121 103 121h5c54 0 80 -38 101 -69zM195 146l38 241c3 19 1 34 -18 34c-15 0 -20 -13 -23 -32l-39 -245c-3 -16 -1 -33 16 -33s23 14 26 35zM289 672l3 20h83
l-11 -69c-7 -39 -26 -62 -63 -62h-1c-20 0 -36 5 -61 20c-15 9 -20 12 -27 12c-5 0 -9 -4 -10 -11l-4 -22h-83l9 59c7 45 24 72 64 72h2c23 0 35 -6 62 -21c11 -7 20 -11 27 -11c6 0 9 4 10 13z" />
    <glyph glyph-name="racute.alt" horiz-adv-x="301" 
d="M143 561l66 146h125l-70 -146h-121zM212 538l-14 -86c25 55 58 90 99 90h7c12 0 26 -3 30 -4l-28 -180c-8 3 -27 8 -56 8h-6c-45 0 -60 -15 -64 -42l-52 -324h-155l85 538h154z" />
    <glyph glyph-name="rcaron.alt" horiz-adv-x="301" 
d="M139 561l-48 146h103l17 -64l31 64h105l-83 -146h-125zM212 538l-14 -86c25 55 58 90 99 90h7c12 0 26 -3 30 -4l-28 -180c-8 3 -27 8 -56 8h-6c-45 0 -60 -15 -64 -42l-52 -324h-155l85 538h154z" />
    <glyph glyph-name="rcommaaccent.alt" horiz-adv-x="301" 
d="M59 -211h-65c11 23 19 50 24 71h-52l19 117h124l-12 -77c-9 -56 -30 -95 -38 -111zM212 538l-14 -86c25 55 58 90 99 90h7c12 0 26 -3 30 -4l-28 -180c-8 3 -27 8 -56 8h-6c-45 0 -60 -15 -64 -42l-52 -324h-155l85 538h154z" />
    <glyph glyph-name="space_uni0326.alt" 
d="M203 749h65c-11 -23 -20 -50 -24 -71h51l-18 -117h-124l12 76c9 56 29 96 38 112z" />
    <glyph glyph-name="ordfeminine.alt" horiz-adv-x="226" 
d="M155 478c-11 -16 -34 -39 -66 -39c-35 0 -49 29 -44 60l8 51c7 35 20 53 48 66c23 10 60 23 73 28c5 1 7 5 8 10l2 13c2 11 -2 16 -11 16c-8 0 -9 -5 -12 -16l-3 -21h-86l4 30c5 35 23 72 95 72h14c77 0 98 -33 91 -80l-24 -152c-8 -48 -9 -60 -6 -71l-1 -3h-87
c-3 5 -6 16 -3 36zM148 505c7 0 11 5 13 16l9 60c-5 -3 -13 -5 -17 -9c-6 -5 -9 -12 -10 -23l-5 -28c-1 -11 2 -16 10 -16z" />
    <glyph glyph-name="ordfeminine.alt2" horiz-adv-x="239" 
d="M206 744h94l-48 -302h-94l7 38c-11 -17 -32 -42 -64 -42h-2c-39 0 -55 34 -48 77l25 161c7 40 23 70 62 70h3c33 0 48 -22 59 -39zM172 530l20 126c2 13 -1 20 -9 20c-7 0 -12 -6 -14 -18l-21 -130c-2 -13 1 -19 9 -19c9 0 12 5 15 21z" />
    <glyph glyph-name="emdash.alt" horiz-adv-x="1127" 
d="M1110 249h-1099l16 103h1099z" />
    <glyph glyph-name="caron.alt" 
d="M165 586l32 158h103l-37 -158h-98z" />
    <glyph glyph-name="plus.uc" horiz-adv-x="340" 
d="M102 175l18 118h-102l15 98h102l19 118h106l-19 -118h103l-15 -98h-103l-18 -118h-106z" />
    <glyph glyph-name="minus.uc" horiz-adv-x="323" 
d="M33 391h295l-15 -98h-295z" />
    <glyph glyph-name="multiply.uc" horiz-adv-x="309" 
d="M227 188l-68 83l-91 -83l-61 71l93 84l-68 84l76 68l67 -83l92 83l61 -71l-94 -85l69 -84z" />
    <glyph glyph-name="divide.uc" horiz-adv-x="339" 
d="M33 391h311l-15 -98h-311zM264 524l-18 -109h-107l17 109h108zM223 267l-17 -109h-108l17 109h108z" />
    <glyph glyph-name="equal.uc" horiz-adv-x="335" 
d="M26 331h302l-15 -93h-302zM44 446h302l-14 -93h-302z" />
    <glyph glyph-name="less.uc" horiz-adv-x="294" 
d="M32 391l281 107l-17 -109l-152 -48l137 -48l-17 -108l-247 108z" />
    <glyph glyph-name="greater.uc" horiz-adv-x="294" 
d="M283 293l-280 -108l17 112l153 48l-137 47l16 106l247 -107z" />
    <glyph glyph-name="questiondown.uc" horiz-adv-x="367" 
d="M183 558h120l-18 -107c-8 -47 -16 -67 -46 -105l-58 -70c-19 -24 -23 -43 -28 -72l-8 -50c-3 -21 3 -32 19 -32c17 0 20 11 24 31l17 111h145l-18 -116c-13 -79 -39 -157 -163 -157h-34c-123 0 -162 61 -149 156l7 49c11 66 22 98 68 144l78 80c23 23 27 37 34 72z
M178 583l25 161h138l-25 -161h-138z" />
    <glyph glyph-name="exclamdown.uc" horiz-adv-x="185" 
d="M69 583l25 161h138l-25 -161h-138zM131 0h-172l135 558h78z" />
    <glyph glyph-name="hyphen.uc" horiz-adv-x="197" 
d="M37 413h169l-24 -146h-168z" />
    <glyph glyph-name="endash.uc" horiz-adv-x="385" 
d="M33 393h357l-16 -103h-357z" />
    <glyph glyph-name="emdash.uc" horiz-adv-x="578" 
d="M33 393h550l-16 -103h-550z" />
    <glyph glyph-name="guilsinglleft.uc" horiz-adv-x="182" 
d="M132 305l21 -168h-119l-24 139l11 65l64 136h122z" />
    <glyph glyph-name="guilsinglright.uc" horiz-adv-x="182" 
d="M60 309l-21 168h119l23 -137l-10 -66l-64 -137h-122z" />
    <glyph glyph-name="guillemotleft.uc" horiz-adv-x="310" 
d="M334 477l-78 -173l25 -167h-111l-28 169l78 171h114zM201 477l-79 -171l29 -169h-111l-30 138l11 66l68 136h112z" />
    <glyph glyph-name="guillemotright.uc" horiz-adv-x="310" 
d="M117 137l82 170l-29 170h111l28 -137l-11 -67l-67 -136h-114zM-15 137l82 172l-28 168h112l29 -170l-81 -170h-114z" />
    <glyph glyph-name="parenleft.uc" horiz-adv-x="220" 
d="M163 -81h-90c-16 51 -54 159 -54 285c0 266 102 473 198 612h91c-69 -141 -160 -415 -160 -675c0 -81 10 -170 15 -222z" />
    <glyph glyph-name="parenright.uc" horiz-adv-x="220" 
d="M84 816h91c16 -51 54 -160 54 -286c0 -267 -102 -471 -199 -611h-90c70 139 159 414 159 674c0 81 -8 170 -15 223z" />
    <glyph glyph-name="bracketleft.uc" horiz-adv-x="209" 
d="M288 817l-18 -112h-53l-106 -670h53l-18 -112h-178l142 894h178z" />
    <glyph glyph-name="bracketright.uc" horiz-adv-x="209" 
d="M-48 -77l18 112h53l107 670h-54l18 112h178l-143 -894h-177z" />
    <glyph glyph-name="braceleft.uc" horiz-adv-x="221" 
d="M158 -77h-50c-76 0 -115 36 -115 99c0 68 70 203 70 261c0 21 -8 32 -31 32h-13l17 110h25c31 0 35 23 35 51c3 65 -3 156 0 204c3 92 43 137 131 137h73l-17 -106h-28c-31 0 -39 -16 -40 -52c0 -45 1 -139 1 -186c-3 -55 -23 -88 -76 -103c31 -13 47 -36 47 -71
c0 -56 -64 -191 -64 -234c0 -21 10 -35 41 -35h11z" />
    <glyph glyph-name="braceright.uc" horiz-adv-x="222" 
d="M94 817h51c76 0 115 -35 115 -98c0 -69 -70 -200 -70 -259c0 -21 10 -31 31 -31h13l-17 -111h-25c-31 0 -34 -23 -35 -50c-3 -65 2 -161 -1 -208c-2 -91 -45 -137 -130 -137h-73l16 107h29c31 0 39 16 40 51c0 48 -3 141 0 189c3 55 23 88 76 103c-35 13 -48 35 -48 71
c0 55 64 189 64 232c0 20 -10 35 -41 35h-12z" />
    <glyph glyph-name="slash.uc" horiz-adv-x="235" 
d="M321 816l-270 -897h-108l270 897h108z" />
    <glyph glyph-name="backslash.uc" horiz-adv-x="235" 
d="M89 -81l-9 897h101l9 -897h-101z" />
    <glyph glyph-name="bar.uc" horiz-adv-x="238" 
d="M189 816v-897h-107v897h107z" />
    <glyph glyph-name="at.uc" horiz-adv-x="634" 
d="M471 74l51 -63c-35 -40 -114 -102 -227 -102h-5c-130 0 -321 48 -269 387l16 102c37 239 142 384 342 384h10c190 0 295 -99 260 -318l-14 -89c-37 -228 -98 -286 -191 -286h-11c-65 0 -99 35 -108 67c-21 -31 -56 -67 -101 -67h-5c-56 0 -91 55 -76 128l55 270
c15 64 45 106 94 106h5c43 0 70 -26 89 -58l12 54h144l-83 -386c-3 -15 -3 -28 12 -28c27 0 52 71 72 200l14 89c29 184 -47 236 -170 236h-10c-133 0 -212 -99 -244 -302l-16 -101c-44 -279 95 -305 174 -305h5c86 0 146 53 175 82zM318 215l53 250c3 17 -1 26 -13 26
c-11 0 -14 -9 -18 -26l-53 -250c-3 -16 1 -24 12 -24s16 9 19 24z" />
    <glyph glyph-name="grave.uc" 
d="M294 890l23 -123h-120l-27 123h124z" />
    <glyph glyph-name="dieresis.uc" 
d="M375 767h-114l19 118h114zM238 767h-114l19 118h114z" />
    <glyph glyph-name="macron.uc" 
d="M142 774l15 100h217l-15 -100h-217z" />
    <glyph glyph-name="acute.uc" 
d="M164 767l62 123h129l-66 -123h-125z" />
    <glyph glyph-name="circumflex.uc" 
d="M201 890h125l55 -123h-106l-20 47l-31 -47h-108z" />
    <glyph glyph-name="caron.uc" 
d="M311 767h-125l-54 123h105l20 -48l31 48h108z" />
    <glyph glyph-name="breve.uc" 
d="M255 764h-4c-79 0 -118 45 -110 113l1 8h95c-3 -19 4 -33 20 -33h1c19 0 27 13 28 33h96l-1 -10c-7 -69 -50 -111 -126 -111z" />
    <glyph glyph-name="dotaccent.uc" 
d="M327 767h-156l23 141h155z" />
    <glyph glyph-name="ring.uc" 
d="M259 810c21 0 35 15 35 35c0 19 -14 34 -35 34c-20 0 -34 -15 -34 -34c0 -20 14 -35 34 -35zM259 762c-49 0 -85 35 -85 83c0 49 36 83 85 83c51 0 86 -34 86 -83c0 -48 -35 -83 -86 -83z" />
    <glyph glyph-name="tilde.uc" 
d="M301 875l3 19h85l-10 -63c-7 -39 -28 -62 -61 -62h-2c-23 0 -37 6 -64 19c-15 7 -19 9 -26 9c-5 0 -9 -4 -10 -13l-3 -18h-83l8 56c7 43 25 70 62 70h2c23 0 36 -7 64 -19c13 -7 19 -9 26 -9c5 0 8 4 9 11z" />
    <glyph glyph-name="hungarumlaut.uc" 
d="M351 767h-101l50 123h104zM126 767l47 123h104l-49 -123h-102z" />
    <glyph glyph-name="emdash.altuc" horiz-adv-x="1127" 
d="M1116 290h-1099l16 103h1099z" />
    <glyph glyph-name="f.short" horiz-adv-x="285" 
d="M353 744l-21 -129h-39c-16 0 -18 -6 -21 -21l-9 -56h57l-21 -135h-57l-64 -403h-156l64 403h-59l21 135h59l19 119c9 57 44 87 96 87h131z" />
    <glyph glyph-name="f_f.short" horiz-adv-x="518" 
d="M455 744h131l-21 -129h-39c-16 0 -18 -6 -21 -21l-10 -56h58l-21 -135h-57l-65 -403h-155l64 403h-77l-64 -403h-156l64 403h-59l21 135h59l19 119c9 57 44 87 96 87h134l-21 -129h-42c-16 0 -18 -6 -21 -21l-9 -56h77l19 119c9 57 44 87 96 87z" />
    <glyph glyph-name="j.short" horiz-adv-x="186" 
d="M-74 -47h21c15 0 18 6 21 19l90 566h156l-103 -646c-8 -51 -39 -80 -86 -80h-121zM240 702l-23 -141h-155l22 141h156z" />
    <glyph glyph-name="brokenbar" unicode="&#xa6;" horiz-adv-x="238" 
d="M189 345v-476h-107v476h107zM189 808v-427h-107v427h107z" />
    <glyph glyph-name="onequarter" unicode="&#xbc;" horiz-adv-x="407" 
d="M108 627h-43l13 77c39 0 53 16 58 40h89l-54 -341h-99zM373 744h88l-404 -744h-88zM156 53l11 70c27 52 85 159 114 220h105l-33 -206h28l-14 -84h-27l-8 -53h-94l8 53h-90zM233 137h26l13 80c-8 -17 -31 -61 -39 -80z" />
    <glyph glyph-name="onehalf" unicode="&#xbd;" horiz-adv-x="455" 
d="M373 744h88l-404 -744h-88zM108 627h-43l13 77c39 0 53 16 58 40h89l-54 -341h-99zM407 0h-225l8 49c8 40 18 60 104 133c38 33 40 41 46 63l2 13c1 12 0 18 -9 18c-11 0 -11 -6 -14 -18l-7 -43h-91l8 47c5 43 24 86 103 86h16c76 0 102 -33 95 -86l-3 -14
c-8 -54 -28 -75 -90 -115c-61 -40 -66 -47 -68 -57h53l8 44h84z" />
    <glyph glyph-name="threequarters" unicode="&#xbe;" horiz-adv-x="465" 
d="M431 744h88l-404 -744h-88zM159 631h-90l5 35c7 49 32 84 104 84h13c65 0 102 -26 93 -82l-3 -17c-5 -36 -24 -52 -43 -57c16 -7 36 -26 31 -67l-6 -36c-11 -60 -38 -96 -113 -96h-14c-82 0 -100 40 -92 85l7 47h94l-7 -41c-1 -7 1 -14 10 -14c8 0 10 6 11 14l7 43
c1 9 -2 13 -8 13h-45l13 76h41c11 0 12 2 13 13l6 34c2 10 -1 15 -9 15c-7 0 -11 -5 -12 -15zM213 53l11 70c27 52 85 159 114 220h105l-33 -206h28l-14 -84h-27l-8 -53h-94l8 53h-90zM290 137h26l13 80c-8 -17 -31 -61 -39 -80z" />
    <glyph glyph-name="Eth" unicode="&#xd0;" horiz-adv-x="419" 
d="M54 457l46 287h219c93 0 151 -49 132 -168l-64 -402c-19 -119 -60 -174 -156 -174h-249l50 314h-23l22 143h23zM191 314l-27 -171h23c27 0 31 11 38 46l59 375c4 27 -1 42 -22 42h-24l-24 -149h36l-22 -143h-37z" />
    <glyph glyph-name="multiply" unicode="&#xd7;" horiz-adv-x="309" 
d="M221 148l-68 83l-91 -83l-61 71l93 84l-68 84l76 68l67 -83l92 83l61 -71l-94 -85l69 -84z" />
    <glyph glyph-name="Yacute" unicode="&#xdd;" horiz-adv-x="371" 
d="M452 744l-180 -459l-44 -285h-161l45 283l-43 461h156l1 -247l78 247h148zM198 767l62 123h129l-66 -123h-125z" />
    <glyph glyph-name="Thorn" unicode="&#xde;" horiz-adv-x="400" 
d="M254 180h-90l-29 -180h-160l118 744h160l-22 -142h65c84 0 139 -41 123 -144l-21 -134c-16 -96 -64 -144 -144 -144zM211 478l-27 -169h24c21 0 27 9 31 36l16 98c4 23 -4 35 -23 35h-21z" />
    <glyph glyph-name="eth" unicode="&#xf0;" horiz-adv-x="384" 
d="M105 553l13 88l65 21l-29 82h147l14 -38l81 27l-14 -88l-39 -13l24 -62c26 -66 33 -108 22 -184l-35 -224c-16 -99 -74 -173 -179 -173h-27c-119 0 -168 71 -152 171l39 244c13 84 47 136 110 136h4c50 0 79 -31 100 -57l-39 105zM195 150l38 240c4 23 0 34 -19 34
s-22 -13 -26 -34l-38 -239c-3 -19 1 -33 20 -33s22 13 25 32z" />
    <glyph glyph-name="yacute" unicode="&#xfd;" horiz-adv-x="360" 
d="M65 29l-25 509h151l-10 -287l69 287h156l-216 -644c-19 -59 -47 -82 -86 -82h-144l22 136h54c16 0 21 8 24 23l4 19c3 13 2 20 1 39zM158 561l66 146h125l-70 -146h-121z" />
    <glyph glyph-name="thorn" unicode="&#xfe;" horiz-adv-x="386" 
d="M91 744h155l-43 -272c25 37 63 73 110 73h4c64 0 91 -53 78 -130l-47 -298c-12 -79 -55 -128 -112 -128h-2c-45 0 -77 25 -98 62l-37 -239h-156zM191 395l-41 -258c-3 -21 3 -32 18 -32s21 12 24 31l41 259c3 19 -1 30 -17 30c-17 0 -22 -11 -25 -30z" />
    <glyph glyph-name="Amacron" unicode="&#x100;" horiz-adv-x="386" 
d="M192 0l5 109h-74l-27 -109h-142l210 744h198l-15 -744h-155zM160 256h45l11 226zM158 774l15 100h217l-15 -100h-217z" />
    <glyph glyph-name="amacron" unicode="&#x101;" horiz-adv-x="377" 
d="M-15 104l15 96c9 59 27 92 79 116c29 16 107 42 123 50c9 5 11 9 14 22l3 22c3 19 -2 29 -16 29h-3c-15 0 -19 -11 -22 -28l-7 -46h-139l10 59c11 59 34 123 156 123h21c127 0 162 -52 151 -131l-43 -271c-2 -9 2 -14 11 -14h15l-21 -131h-135c-26 0 -37 20 -32 60
c-16 -24 -54 -66 -105 -66h-3c-56 0 -83 46 -72 110zM153 110c15 0 20 9 23 26l19 122c-9 -4 -23 -12 -30 -19c-11 -9 -14 -19 -17 -36l-10 -66c-3 -16 2 -27 15 -27zM116 572l15 100h215l-16 -100h-214z" />
    <glyph glyph-name="Abreve" unicode="&#x102;" horiz-adv-x="386" 
d="M192 0l5 109h-74l-27 -109h-142l210 744h198l-15 -744h-155zM160 256h45l11 226zM270 764h-4c-79 0 -118 45 -110 113l1 8h95c-3 -19 4 -33 20 -33h1c19 0 27 13 28 33h96l-1 -10c-7 -69 -50 -111 -126 -111z" />
    <glyph glyph-name="abreve" unicode="&#x103;" horiz-adv-x="377" 
d="M-15 104l15 96c9 59 27 92 79 116c29 16 107 42 123 50c9 5 11 9 14 22l3 22c3 19 -2 29 -16 29h-3c-15 0 -19 -11 -22 -28l-7 -46h-139l10 59c11 59 34 123 156 123h21c127 0 162 -52 151 -131l-43 -271c-2 -9 2 -14 11 -14h15l-21 -131h-135c-26 0 -37 20 -32 60
c-16 -24 -54 -66 -105 -66h-3c-56 0 -83 46 -72 110zM153 110c15 0 20 9 23 26l19 122c-9 -4 -23 -12 -30 -19c-11 -9 -14 -19 -17 -36l-10 -66c-3 -16 2 -27 15 -27zM226 561h-3c-83 0 -120 53 -109 118l2 13h96l-1 -9c-2 -22 5 -33 20 -33h1c15 0 23 9 27 33l2 9h96
l-2 -13c-11 -69 -52 -118 -129 -118z" />
    <glyph glyph-name="Aogonek" unicode="&#x104;" horiz-adv-x="386" 
d="M192 0l5 109h-74l-27 -109h-142l210 744h198l-15 -744h-155zM160 256h45l11 226zM316 -188h-61c-49 0 -78 23 -78 58c0 44 19 79 100 130h69c-39 -39 -55 -63 -55 -82c0 -12 8 -18 25 -18h14z" />
    <glyph glyph-name="aogonek" unicode="&#x105;" horiz-adv-x="377" 
d="M-15 104l15 96c9 59 27 92 79 116c29 16 107 42 123 50c9 5 11 9 14 22l3 22c3 19 -2 29 -16 29h-3c-15 0 -19 -11 -22 -28l-7 -46h-139l10 59c11 59 34 123 156 123h21c127 0 162 -52 151 -131l-43 -271c-2 -9 2 -14 11 -14h15l-21 -131h-135c-26 0 -37 20 -32 60
c-16 -24 -54 -66 -105 -66h-3c-56 0 -83 46 -72 110zM153 110c15 0 20 9 23 26l19 122c-9 -4 -23 -12 -30 -19c-11 -9 -14 -19 -17 -36l-10 -66c-3 -16 2 -27 15 -27zM302 -188h-61c-49 0 -78 23 -78 58c0 44 19 79 100 130h69c-39 -39 -55 -63 -55 -82c0 -12 8 -18 25 -18
h14z" />
    <glyph glyph-name="Cacute" unicode="&#x106;" horiz-adv-x="408" 
d="M216 771l60 119h130l-65 -119h-125zM221 177l23 147h159l-24 -152c-13 -92 -57 -183 -184 -183h-29c-139 0 -180 85 -164 198l61 380c18 111 65 187 193 187h29c135 0 174 -78 158 -175l-19 -120h-159l19 115c3 25 -2 37 -23 37s-26 -12 -30 -37l-64 -400
c-3 -23 4 -36 24 -36s25 15 30 39z" />
    <glyph glyph-name="cacute" unicode="&#x107;" horiz-adv-x="360" 
d="M165 566l63 141h126l-68 -141h-121zM202 241h142l-17 -103c-13 -89 -59 -150 -159 -150h-27c-107 0 -164 58 -147 166l37 232c16 93 54 163 170 163h31c114 0 151 -64 137 -148l-12 -76h-142l13 78c3 19 -2 29 -15 29c-15 0 -19 -8 -22 -27l-42 -265c-3 -16 0 -27 15 -27
s19 9 22 24z" />
    <glyph glyph-name="Ccircumflex" unicode="&#x108;" horiz-adv-x="408" 
d="M234 890h126l55 -119h-106l-21 43l-30 -43h-108zM221 177l23 147h159l-24 -152c-13 -92 -57 -183 -184 -183h-29c-139 0 -180 85 -164 198l61 380c18 111 65 187 193 187h29c135 0 174 -78 158 -175l-19 -120h-159l19 115c3 25 -2 37 -23 37s-26 -12 -30 -37l-64 -400
c-3 -23 4 -36 24 -36s25 15 30 39z" />
    <glyph glyph-name="ccircumflex" unicode="&#x109;" horiz-adv-x="360" 
d="M309 707l48 -141h-104l-16 60l-31 -60h-105l82 141h126zM202 241h142l-17 -103c-13 -89 -59 -150 -159 -150h-27c-107 0 -164 58 -147 166l37 232c16 93 54 163 170 163h31c114 0 151 -64 137 -148l-12 -76h-142l13 78c3 19 -2 29 -15 29c-15 0 -19 -8 -22 -27l-42 -265
c-3 -16 0 -27 15 -27s19 9 22 24z" />
    <glyph glyph-name="Cdotaccent" unicode="&#x10a;" horiz-adv-x="408" 
d="M357 771h-156l22 137h156zM221 177l23 147h159l-24 -152c-13 -92 -57 -183 -184 -183h-29c-139 0 -180 85 -164 198l61 380c18 111 65 187 193 187h29c135 0 174 -78 158 -175l-19 -120h-159l19 115c3 25 -2 37 -23 37s-26 -12 -30 -37l-64 -400c-3 -23 4 -36 24 -36
s25 15 30 39z" />
    <glyph glyph-name="cdotaccent" unicode="&#x10b;" horiz-adv-x="360" 
d="M321 702l-22 -136h-155l22 136h155zM202 241h142l-17 -103c-13 -89 -59 -150 -159 -150h-27c-107 0 -164 58 -147 166l37 232c16 93 54 163 170 163h31c114 0 151 -64 137 -148l-12 -76h-142l13 78c3 19 -2 29 -15 29c-15 0 -19 -8 -22 -27l-42 -265c-3 -16 0 -27 15 -27
s19 9 22 24z" />
    <glyph glyph-name="Ccaron" unicode="&#x10c;" horiz-adv-x="408" 
d="M344 771h-131l-53 119h106l20 -48l31 48h109zM221 177l23 147h159l-24 -152c-13 -92 -57 -183 -184 -183h-29c-139 0 -180 85 -164 198l61 380c18 111 65 187 193 187h29c135 0 174 -78 158 -175l-19 -120h-159l19 115c3 25 -2 37 -23 37s-26 -12 -30 -37l-64 -400
c-3 -23 4 -36 24 -36s25 15 30 39z" />
    <glyph glyph-name="ccaron" unicode="&#x10d;" horiz-adv-x="360" 
d="M158 566l-47 141h104l16 -64l32 64h104l-81 -141h-128zM202 241h142l-17 -103c-13 -89 -59 -150 -159 -150h-27c-107 0 -164 58 -147 166l37 232c16 93 54 163 170 163h31c114 0 151 -64 137 -148l-12 -76h-142l13 78c3 19 -2 29 -15 29c-15 0 -19 -8 -22 -27l-42 -265
c-3 -16 0 -27 15 -27s19 9 22 24z" />
    <glyph glyph-name="Dcaron" unicode="&#x10e;" horiz-adv-x="412" 
d="M-25 0l118 744h219c93 0 151 -49 132 -168l-64 -402c-19 -119 -60 -174 -156 -174h-249zM231 606l-74 -463h23c27 0 31 11 38 46l59 375c4 27 -1 42 -22 42h-24zM320 767h-125l-54 123h105l20 -48l31 48h108z" />
    <glyph glyph-name="dcaron" unicode="&#x10f;" horiz-adv-x="387" 
d="M292 744h155l-118 -744h-155l10 60c-15 -28 -58 -71 -107 -71h-4c-62 0 -93 61 -82 131l48 303c11 64 43 121 104 121h5c55 0 82 -39 101 -69zM196 144l39 242c3 20 0 35 -19 35c-16 0 -21 -13 -24 -32l-39 -245c-3 -19 0 -33 17 -33c19 0 23 13 26 33zM436 586l32 158
h103l-37 -158h-98z" />
    <glyph glyph-name="Dcroat" unicode="&#x110;" horiz-adv-x="419" 
d="M54 457l46 287h219c93 0 151 -49 132 -168l-64 -402c-19 -119 -60 -174 -156 -174h-249l50 314h-23l22 143h23zM191 314l-27 -171h23c27 0 31 11 38 46l59 375c4 27 -1 42 -22 42h-24l-24 -149h36l-22 -143h-37z" />
    <glyph glyph-name="dcroat" unicode="&#x111;" horiz-adv-x="388" 
d="M189 575l18 112h261l-18 -112h-261zM292 744h155l-118 -744h-155l10 60c-15 -28 -58 -71 -107 -71h-4c-62 0 -93 61 -82 131l48 303c11 64 43 121 104 121h5c55 0 82 -39 101 -69zM196 144l39 242c3 20 0 35 -19 35c-16 0 -21 -13 -24 -32l-39 -245c-3 -19 0 -33 17 -33
c19 0 23 13 26 33z" />
    <glyph glyph-name="Emacron" unicode="&#x112;" horiz-adv-x="339" 
d="M93 744h305l-24 -154h-145l-20 -127h117l-25 -158h-118l-23 -148h151l-25 -157h-311zM144 774l15 100h217l-15 -100h-217z" />
    <glyph glyph-name="emacron" unicode="&#x113;" horiz-adv-x="366" 
d="M200 549h31c98 0 158 -53 142 -162l-22 -136h-190l-18 -113c-3 -20 2 -30 17 -30c16 0 22 11 25 31l13 75h147l-10 -67c-17 -104 -67 -158 -166 -158h-33c-103 0 -159 54 -142 162l38 238c16 99 59 160 168 160zM186 410l-10 -61h44l9 61c4 23 0 33 -19 33
c-17 0 -20 -13 -24 -33zM120 574l15 100h215l-16 -100h-214z" />
    <glyph glyph-name="Ebreve" unicode="&#x114;" horiz-adv-x="339" 
d="M93 744h305l-24 -154h-145l-20 -127h117l-25 -158h-118l-23 -148h151l-25 -157h-311zM255 764h-4c-79 0 -118 45 -110 113l1 8h95c-3 -19 4 -33 20 -33h1c19 0 27 13 28 33h96l-1 -10c-7 -69 -50 -111 -126 -111z" />
    <glyph glyph-name="ebreve" unicode="&#x115;" horiz-adv-x="366" 
d="M200 549h31c98 0 158 -53 142 -162l-22 -136h-190l-18 -113c-3 -20 2 -30 17 -30c16 0 22 11 25 31l13 75h147l-10 -67c-17 -104 -67 -158 -166 -158h-33c-103 0 -159 54 -142 162l38 238c16 99 59 160 168 160zM186 410l-10 -61h44l9 61c4 23 0 33 -19 33
c-17 0 -20 -13 -24 -33zM232 563h-3c-83 0 -120 53 -109 118l2 13h96l-1 -9c-2 -22 5 -33 20 -33h1c15 0 23 9 27 33l2 9h96l-2 -13c-11 -69 -52 -118 -129 -118z" />
    <glyph glyph-name="Edotaccent" unicode="&#x116;" horiz-adv-x="339" 
d="M93 744h305l-24 -154h-145l-20 -127h117l-25 -158h-118l-23 -148h151l-25 -157h-311zM327 767h-156l23 141h155z" />
    <glyph glyph-name="edotaccent" unicode="&#x117;" horiz-adv-x="366" 
d="M323 702l-22 -136h-155l21 136h156zM200 549h31c98 0 158 -53 142 -162l-22 -136h-190l-18 -113c-3 -20 2 -30 17 -30c16 0 22 11 25 31l13 75h147l-10 -67c-17 -104 -67 -158 -166 -158h-33c-103 0 -159 54 -142 162l38 238c16 99 59 160 168 160zM186 410l-10 -61h44
l9 61c4 23 0 33 -19 33c-17 0 -20 -13 -24 -33z" />
    <glyph glyph-name="Eogonek" unicode="&#x118;" horiz-adv-x="339" 
d="M211 -188h-61c-49 0 -78 23 -78 58c0 44 19 79 100 130h69c-39 -39 -55 -63 -55 -82c0 -12 8 -18 25 -18h14zM93 744h305l-24 -154h-145l-20 -127h117l-25 -158h-118l-23 -148h151l-25 -157h-311z" />
    <glyph glyph-name="eogonek" unicode="&#x119;" horiz-adv-x="366" 
d="M94 -130c0 43 18 79 85 119h-10h-33c-103 0 -159 54 -142 162l38 238c16 99 59 160 168 160h31c98 0 158 -53 142 -162l-22 -136h-190l-18 -113c-3 -20 2 -30 17 -30c16 0 22 11 25 31l13 75h147l-10 -67c-12 -71 -37 -107 -73 -146c-36 -40 -53 -62 -53 -83
c0 -12 8 -18 24 -18h14l-13 -88h-61c-51 0 -79 23 -79 58zM186 410l-10 -61h44l9 61c4 23 0 33 -19 33c-17 0 -20 -13 -24 -33z" />
    <glyph glyph-name="Ecaron" unicode="&#x11a;" horiz-adv-x="339" 
d="M93 744h305l-24 -154h-145l-20 -127h117l-25 -158h-118l-23 -148h151l-25 -157h-311zM311 767h-125l-54 123h105l20 -48l31 48h108z" />
    <glyph glyph-name="ecaron" unicode="&#x11b;" horiz-adv-x="366" 
d="M159 566l-47 141h104l16 -64l32 64h105l-82 -141h-128zM200 549h31c98 0 158 -53 142 -162l-22 -136h-190l-18 -113c-3 -20 2 -30 17 -30c16 0 22 11 25 31l13 75h147l-10 -67c-17 -104 -67 -158 -166 -158h-33c-103 0 -159 54 -142 162l38 238c16 99 59 160 168 160z
M186 410l-10 -61h44l9 61c4 23 0 33 -19 33c-17 0 -20 -13 -24 -33z" />
    <glyph glyph-name="Gcircumflex" unicode="&#x11c;" horiz-adv-x="417" 
d="M229 890h126l55 -119h-105l-22 43l-30 -43h-108zM124 -10h-8c-90 0 -133 77 -117 173l63 402c16 100 57 189 192 189h27c141 0 177 -90 161 -182l-13 -82h-156l13 82c4 25 0 40 -23 40s-29 -12 -33 -39l-63 -397c-4 -30 5 -45 26 -45c22 0 35 14 39 41l23 140h-46l22 136
h199l-71 -448h-103c0 14 -5 54 -10 69c-19 -32 -62 -79 -122 -79z" />
    <glyph glyph-name="gcircumflex" unicode="&#x11d;" horiz-adv-x="385" 
d="M163 -55l18 114c-19 -30 -52 -69 -106 -69c-55 0 -98 49 -84 130l47 296c11 72 44 129 107 129h4c55 0 83 -42 99 -70l10 63h154l-94 -595c-13 -78 -57 -138 -175 -138h-31c-114 0 -156 51 -145 119l9 55h150l-5 -36c-3 -15 1 -23 16 -23h3c16 0 20 9 23 25zM192 133
l42 260c3 19 0 30 -19 30c-16 0 -20 -11 -23 -27l-41 -262c-3 -15 2 -28 19 -28c15 0 19 12 22 27zM316 707l48 -146h-104l-16 65l-32 -65h-104l83 146h125z" />
    <glyph glyph-name="Gbreve" unicode="&#x11e;" horiz-adv-x="417" 
d="M124 -10h-8c-90 0 -133 77 -117 173l63 402c16 100 57 189 192 189h27c141 0 177 -90 161 -182l-13 -82h-156l13 82c4 25 0 40 -23 40s-29 -12 -33 -39l-63 -397c-4 -30 5 -45 26 -45c22 0 35 14 39 41l23 140h-46l22 136h199l-71 -448h-103c0 14 -5 54 -10 69
c-19 -32 -62 -79 -122 -79zM281 767h-4c-79 0 -118 45 -110 113l1 8h95c-3 -19 4 -33 20 -33h1c19 0 27 13 28 33h96l-1 -10c-7 -69 -50 -111 -126 -111z" />
    <glyph glyph-name="gbreve" unicode="&#x11f;" horiz-adv-x="385" 
d="M163 -55l18 114c-19 -30 -52 -69 -106 -69c-55 0 -98 49 -84 130l47 296c11 72 44 129 107 129h4c55 0 83 -42 99 -70l10 63h154l-94 -595c-13 -78 -57 -138 -175 -138h-31c-114 0 -156 51 -145 119l9 55h150l-5 -36c-3 -15 1 -23 16 -23h3c16 0 20 9 23 25zM192 133
l42 260c3 19 0 30 -19 30c-16 0 -20 -11 -23 -27l-41 -262c-3 -15 2 -28 19 -28c15 0 19 12 22 27zM237 559h-3c-83 0 -120 53 -109 118l2 13h96l-1 -9c-2 -22 5 -33 20 -33h1c15 0 23 9 27 33l2 9h96l-2 -13c-11 -69 -52 -118 -129 -118z" />
    <glyph glyph-name="Gdotaccent" unicode="&#x120;" horiz-adv-x="417" 
d="M356 771h-155l22 137h155zM124 -10h-8c-90 0 -133 77 -117 173l63 402c16 100 57 189 192 189h27c141 0 177 -90 161 -182l-13 -82h-156l13 82c4 25 0 40 -23 40s-29 -12 -33 -39l-63 -397c-4 -30 5 -45 26 -45c22 0 35 14 39 41l23 140h-46l22 136h199l-71 -448h-103
c0 14 -5 54 -10 69c-19 -32 -62 -79 -122 -79z" />
    <glyph glyph-name="gdotaccent" unicode="&#x121;" horiz-adv-x="385" 
d="M163 -55l18 114c-19 -30 -52 -69 -106 -69c-55 0 -98 49 -84 130l47 296c11 72 44 129 107 129h4c55 0 83 -42 99 -70l10 63h154l-94 -595c-13 -78 -57 -138 -175 -138h-31c-114 0 -156 51 -145 119l9 55h150l-5 -36c-3 -15 1 -23 16 -23h3c16 0 20 9 23 25zM192 133
l42 260c3 19 0 30 -19 30c-16 0 -20 -11 -23 -27l-41 -262c-3 -15 2 -28 19 -28c15 0 19 12 22 27zM336 702l-22 -141h-156l23 141h155z" />
    <glyph glyph-name="uni0122" unicode="&#x122;" horiz-adv-x="417" 
d="M180 -212h-65c11 23 19 50 24 71h-52l19 117h124l-12 -77c-9 -56 -30 -95 -38 -111zM124 -10h-8c-90 0 -133 77 -117 173l63 402c16 100 57 189 192 189h27c141 0 177 -90 161 -182l-13 -82h-156l13 82c4 25 0 40 -23 40s-29 -12 -33 -39l-63 -397c-4 -30 5 -45 26 -45
c22 0 35 14 39 41l23 140h-46l22 136h199l-71 -448h-103c0 14 -5 54 -10 69c-19 -32 -62 -79 -122 -79z" />
    <glyph glyph-name="uni0123" unicode="&#x123;" horiz-adv-x="385" 
d="M163 -55l18 114c-19 -30 -52 -69 -106 -69c-55 0 -98 49 -84 130l47 296c11 72 44 129 107 129h4c55 0 83 -42 99 -70l10 63h154l-94 -595c-13 -78 -57 -138 -175 -138h-31c-114 0 -156 51 -145 119l9 55h150l-5 -36c-3 -15 1 -23 16 -23h3c16 0 20 9 23 25zM192 133
l42 260c3 19 0 30 -19 30c-16 0 -20 -11 -23 -27l-41 -262c-3 -15 2 -28 19 -28c15 0 19 12 22 27zM214 749h65c-11 -23 -20 -50 -24 -71h51l-18 -117h-124l12 76c9 56 29 96 38 112z" />
    <glyph glyph-name="Hcircumflex" unicode="&#x124;" horiz-adv-x="413" 
d="M182 300l-47 -300h-160l118 744h160l-43 -270h57l43 270h160l-118 -744h-160l47 300h-57zM234 890h125l55 -123h-106l-20 47l-31 -47h-108z" />
    <glyph glyph-name="hcircumflex" unicode="&#x125;" horiz-adv-x="387" 
d="M-27 0l118 744h155l-43 -271c21 31 61 70 112 70h7c67 0 84 -62 76 -107l-69 -436h-157l61 384c3 19 -1 31 -20 31c-17 0 -21 -13 -24 -32l-61 -383h-155zM197 890h125l55 -123h-106l-20 47l-31 -47h-108z" />
    <glyph glyph-name="Hbar" unicode="&#x126;" horiz-adv-x="418" 
d="M44 550l17 112h420l-18 -112h-419zM184 300l-47 -300h-160l118 744h160l-43 -270h57l43 270h160l-118 -744h-160l47 300h-57z" />
    <glyph glyph-name="hbar" unicode="&#x127;" horiz-adv-x="387" 
d="M35 575l17 112h262l-18 -112h-261zM-27 0l118 744h155l-43 -271c21 31 61 70 112 70h7c67 0 84 -62 76 -107l-69 -436h-157l61 384c3 19 -1 31 -20 31c-17 0 -21 -13 -24 -32l-61 -383h-155z" />
    <glyph glyph-name="Itilde" unicode="&#x128;" horiz-adv-x="196" 
d="M253 744l-118 -744h-160l118 744h160zM228 875l3 19h85l-10 -63c-7 -39 -28 -62 -61 -62h-2c-23 0 -37 6 -64 19c-15 7 -19 9 -26 9c-5 0 -9 -4 -10 -13l-3 -18h-83l8 56c7 43 25 70 62 70h2c23 0 36 -7 64 -19c13 -7 19 -9 26 -9c5 0 8 4 9 11z" />
    <glyph glyph-name="itilde" unicode="&#x129;" horiz-adv-x="186" 
d="M187 671l4 21h75l-10 -65c-7 -39 -22 -66 -55 -66h-1c-19 0 -32 7 -55 22c-12 7 -17 12 -24 12c-5 0 -8 -4 -9 -11l-3 -24h-76l9 59c7 45 21 72 57 72h1c17 0 31 -6 54 -21c12 -7 17 -12 24 -12c5 0 8 4 9 13zM214 538l-86 -538h-155l85 538h156z" />
    <glyph glyph-name="Imacron" unicode="&#x12a;" horiz-adv-x="196" 
d="M253 744l-118 -744h-160l118 744h160zM70 774l15 100h217l-15 -100h-217z" />
    <glyph glyph-name="imacron" unicode="&#x12b;" horiz-adv-x="186" 
d="M46 570l16 100h189l-16 -100h-189zM214 538l-86 -538h-155l85 538h156z" />
    <glyph glyph-name="Ibreve" unicode="&#x12c;" horiz-adv-x="196" 
d="M253 744l-118 -744h-160l118 744h160zM183 764h-4c-79 0 -118 45 -110 113l1 8h95c-3 -19 4 -33 20 -33h1c19 0 27 13 28 33h96l-1 -10c-7 -69 -50 -111 -126 -111z" />
    <glyph glyph-name="ibreve" unicode="&#x12d;" horiz-adv-x="186" 
d="M151 559h-4c-76 0 -109 43 -98 103l4 28h88l-3 -19c-2 -16 4 -24 17 -24c11 0 17 8 20 25l3 18h88l-4 -26c-8 -57 -37 -105 -111 -105zM214 538l-86 -538h-155l85 538h156z" />
    <glyph glyph-name="Iogonek" unicode="&#x12e;" horiz-adv-x="196" 
d="M253 744l-118 -744h-160l118 744h160zM106 -188h-61c-49 0 -78 23 -78 58c0 44 19 79 100 130h69c-39 -39 -55 -63 -55 -82c0 -12 8 -18 25 -18h14z" />
    <glyph glyph-name="iogonek" unicode="&#x12f;" horiz-adv-x="186" 
d="M214 538l-86 -538h-155l85 538h156zM240 702l-23 -141h-155l22 141h156zM99 -188h-61c-49 0 -78 23 -78 58c0 44 19 79 100 130h69c-39 -39 -55 -63 -55 -82c0 -12 8 -18 25 -18h14z" />
    <glyph glyph-name="Idotaccent" unicode="&#x130;" horiz-adv-x="196" 
d="M253 744l-118 -744h-160l118 744h160zM254 767h-156l23 141h155z" />
    <glyph glyph-name="IJ" unicode="&#x132;" horiz-adv-x="581" 
d="M253 744l-118 -744h-160l118 744h160zM214 332h151l-27 -167c-3 -18 3 -27 19 -27h1c13 0 21 9 24 28l92 578h165l-93 -587c-16 -101 -63 -166 -168 -166h-55c-108 0 -154 60 -138 159z" />
    <glyph glyph-name="ij" unicode="&#x133;" horiz-adv-x="369" 
d="M214 538l-86 -538h-155l85 538h156zM240 702l-23 -141h-155l22 141h156zM86 -47h43c15 0 18 6 21 19l90 566h156l-103 -646c-8 -51 -39 -80 -86 -80h-144zM422 702l-23 -141h-155l22 141h156z" />
    <glyph glyph-name="Jcircumflex" unicode="&#x134;" horiz-adv-x="389" 
d="M22 332h151l-27 -167c-3 -18 3 -27 19 -27h1c13 0 21 9 24 28l92 578h165l-93 -587c-16 -101 -63 -166 -168 -166h-55c-108 0 -154 60 -138 159zM315 890h125l55 -123h-106l-20 47l-31 -47h-108z" />
    <glyph glyph-name="jcircumflex" unicode="&#x135;" horiz-adv-x="186" 
d="M223 706l26 -145h-92l-7 67l-29 -67h-94l69 145h127zM-96 -47h43c15 0 18 6 21 19l90 566h156l-103 -646c-8 -51 -39 -80 -86 -80h-144z" />
    <glyph glyph-name="uni0136" unicode="&#x136;" horiz-adv-x="414" 
d="M183 -211h-65c11 23 19 50 24 71h-52l19 117h124l-12 -77c-9 -56 -30 -95 -38 -111zM211 480l116 264h161l-150 -342l39 -402h-169l-25 303l-48 -303h-160l118 744h160z" />
    <glyph glyph-name="uni0137" unicode="&#x137;" horiz-adv-x="380" 
d="M167 -211h-65c11 23 19 50 24 71h-52l19 117h124l-12 -77c-9 -56 -30 -95 -38 -111zM186 365l85 173h148l-116 -229l39 -309h-153l-26 223l-35 -223h-155l118 744h155z" />
    <glyph glyph-name="Lacute" unicode="&#x139;" horiz-adv-x="319" 
d="M93 744h160l-93 -586h132l-25 -158h-292zM115 767l62 123h129l-66 -123h-125z" />
    <glyph glyph-name="lacute" unicode="&#x13a;" horiz-adv-x="186" 
d="M246 744l-118 -744h-155l118 744h155zM110 767l62 123h129l-66 -123h-125z" />
    <glyph glyph-name="uni013B" unicode="&#x13b;" horiz-adv-x="319" 
d="M131 -211h-65c11 23 19 50 24 71h-52l19 117h124l-12 -77c-9 -56 -30 -95 -38 -111zM93 744h160l-93 -586h132l-25 -158h-292z" />
    <glyph glyph-name="uni013C" unicode="&#x13c;" horiz-adv-x="186" 
d="M62 -211h-65c11 23 19 50 24 71h-52l19 117h124l-12 -77c-9 -56 -30 -95 -38 -111zM246 744l-118 -744h-155l118 744h155z" />
    <glyph glyph-name="Lcaron" unicode="&#x13d;" horiz-adv-x="319" 
d="M93 744h160l-93 -586h132l-25 -158h-292zM243 586l32 158h103l-37 -158h-98z" />
    <glyph glyph-name="lcaron" unicode="&#x13e;" horiz-adv-x="186" 
d="M246 744l-118 -744h-155l118 744h155zM236 586l32 158h103l-37 -158h-98z" />
    <glyph glyph-name="Ldot" unicode="&#x13f;" horiz-adv-x="345" 
d="M369 468l-26 -161h-137l25 161h138zM93 744h160l-93 -586h132l-25 -158h-292z" />
    <glyph glyph-name="ldot" unicode="&#x140;" horiz-adv-x="335" 
d="M359 467l-26 -161h-137l26 161h137zM246 744l-118 -744h-155l118 744h155z" />
    <glyph glyph-name="Lslash" unicode="&#x141;" horiz-adv-x="333" 
d="M107 744h160l-46 -286l94 58l-21 -126l-92 -56l-28 -176h132l-25 -158h-292l36 226l-31 -19l20 121l30 19z" />
    <glyph glyph-name="lslash" unicode="&#x142;" horiz-adv-x="216" 
d="M208 410l-65 -410h-155l49 309l-29 -17l19 115l28 17l51 320h155l-35 -218l30 18l-19 -117z" />
    <glyph glyph-name="Nacute" unicode="&#x143;" horiz-adv-x="411" 
d="M93 744h155l25 -366l58 366h138l-118 -744h-141l-33 395l-63 -395h-139zM219 767l62 123h129l-66 -123h-125z" />
    <glyph glyph-name="nacute" unicode="&#x144;" horiz-adv-x="387" 
d="M-27 0l85 538h154l-11 -68c24 35 62 73 114 73h7c68 0 84 -61 76 -108l-69 -435h-157l61 382c3 22 -3 33 -20 33c-16 0 -21 -12 -24 -33l-61 -382h-155zM171 561l66 146h125l-70 -146h-121z" />
    <glyph glyph-name="uni0145" unicode="&#x145;" horiz-adv-x="411" 
d="M173 -211h-65c11 23 19 50 24 71h-52l19 117h124l-12 -77c-9 -56 -30 -95 -38 -111zM93 744h155l25 -366l58 366h138l-118 -744h-141l-33 395l-63 -395h-139z" />
    <glyph glyph-name="uni0146" unicode="&#x146;" horiz-adv-x="387" 
d="M161 -211h-65c11 23 19 50 24 71h-52l19 117h124l-12 -77c-9 -56 -30 -95 -38 -111zM-27 0l85 538h154l-11 -68c24 35 62 73 114 73h7c68 0 84 -61 76 -108l-69 -435h-157l61 382c3 22 -3 33 -20 33c-16 0 -21 -12 -24 -33l-61 -382h-155z" />
    <glyph glyph-name="Ncaron" unicode="&#x147;" horiz-adv-x="411" 
d="M93 744h155l25 -366l58 366h138l-118 -744h-141l-33 395l-63 -395h-139zM344 767h-125l-54 123h105l20 -48l31 48h108z" />
    <glyph glyph-name="ncaron" unicode="&#x148;" horiz-adv-x="387" 
d="M-27 0l85 538h154l-11 -68c24 35 62 73 114 73h7c68 0 84 -61 76 -108l-69 -435h-157l61 382c3 22 -3 33 -20 33c-16 0 -21 -12 -24 -33l-61 -382h-155zM174 561l-48 146h103l17 -64l31 64h105l-83 -146h-125z" />
    <glyph glyph-name="napostrophe" unicode="&#x149;" horiz-adv-x="494" 
d="M80 0l85 538h154l-11 -68c24 35 62 73 114 73h7c68 0 84 -61 76 -108l-69 -435h-157l61 382c3 22 -3 33 -20 33c-16 0 -21 -12 -24 -33l-61 -382h-155zM197 744l-17 -107c-11 -60 -35 -109 -46 -128h-75c12 23 30 64 37 95h-49l22 140h128z" />
    <glyph glyph-name="Eng" unicode="&#x14a;" horiz-adv-x="411" 
d="M125 -190l20 130h40c15 0 22 6 25 25l6 35l-39 391l-63 -391h-139l118 744h155l25 -366l57 366h139l-131 -828c-12 -71 -44 -106 -97 -106h-116z" />
    <glyph glyph-name="eng" unicode="&#x14b;" horiz-adv-x="389" 
d="M399 436l-86 -541c-8 -55 -40 -83 -85 -83h-118l22 141h16c15 0 17 4 20 19l65 412c3 19 0 31 -19 31s-22 -13 -25 -32l-60 -383h-156l86 538h154l-11 -68c24 35 61 73 113 73h8c68 0 84 -62 76 -107z" />
    <glyph glyph-name="Omacron" unicode="&#x14c;" horiz-adv-x="424" 
d="M262 603c-23 0 -29 -14 -34 -42l-60 -382c-3 -20 2 -36 25 -36s30 16 33 35l61 383c4 28 -4 42 -25 42zM254 754h29c132 0 188 -83 169 -210l-56 -352c-21 -129 -82 -203 -193 -203h-30c-127 0 -189 75 -169 208l55 347c19 129 69 210 195 210zM179 777l15 100h217
l-15 -100h-217z" />
    <glyph glyph-name="omacron" unicode="&#x14d;" horiz-adv-x="384" 
d="M180 -11h-31c-116 0 -169 70 -152 178l33 206c19 117 70 176 175 176h30c111 0 171 -62 152 -175l-32 -206c-19 -109 -70 -179 -175 -179zM215 424c-19 0 -23 -14 -26 -34l-38 -236c-3 -21 0 -36 19 -36s23 16 26 35l38 236c3 21 0 35 -19 35zM128 574l15 100h215
l-16 -100h-214z" />
    <glyph glyph-name="Obreve" unicode="&#x14e;" horiz-adv-x="424" 
d="M262 603c-23 0 -29 -14 -34 -42l-60 -382c-3 -20 2 -36 25 -36s30 16 33 35l61 383c4 28 -4 42 -25 42zM254 754h29c132 0 188 -83 169 -210l-56 -352c-21 -129 -82 -203 -193 -203h-30c-127 0 -189 75 -169 208l55 347c19 129 69 210 195 210zM292 767h-4
c-79 0 -118 45 -110 113l1 8h95c-3 -19 4 -33 20 -33h1c19 0 27 13 28 33h96l-1 -10c-7 -69 -50 -111 -126 -111z" />
    <glyph glyph-name="obreve" unicode="&#x14f;" horiz-adv-x="384" 
d="M180 -11h-31c-116 0 -169 70 -152 178l33 206c19 117 70 176 175 176h30c111 0 171 -62 152 -175l-32 -206c-19 -109 -70 -179 -175 -179zM215 424c-19 0 -23 -14 -26 -34l-38 -236c-3 -21 0 -36 19 -36s23 16 26 35l38 236c3 21 0 35 -19 35zM242 563h-3
c-83 0 -120 53 -109 118l2 13h96l-1 -9c-2 -22 5 -33 20 -33h1c15 0 23 9 27 33l2 9h96l-2 -13c-11 -69 -52 -118 -129 -118z" />
    <glyph glyph-name="Ohungarumlaut" unicode="&#x150;" horiz-adv-x="424" 
d="M397 771h-100l49 119h104zM172 771l47 119h104l-49 -119h-102zM262 603c-23 0 -29 -14 -34 -42l-60 -382c-3 -20 2 -36 25 -36s30 16 33 35l61 383c4 28 -4 42 -25 42zM254 754h29c132 0 188 -83 169 -210l-56 -352c-21 -129 -82 -203 -193 -203h-30
c-127 0 -189 75 -169 208l55 347c19 129 69 210 195 210z" />
    <glyph glyph-name="ohungarumlaut" unicode="&#x151;" horiz-adv-x="384" 
d="M348 566h-101l55 141h101zM124 566l53 141h101l-53 -141h-101zM180 -11h-31c-116 0 -169 70 -152 178l33 206c19 117 70 176 175 176h30c111 0 171 -62 152 -175l-32 -206c-19 -109 -70 -179 -175 -179zM215 424c-19 0 -23 -14 -26 -34l-38 -236c-3 -21 0 -36 19 -36
s23 16 26 35l38 236c3 21 0 35 -19 35z" />
    <glyph glyph-name="Racute" unicode="&#x154;" horiz-adv-x="406" 
d="M183 305l-48 -305h-160l118 744h240c73 0 124 -46 111 -131l-16 -98c-11 -67 -42 -100 -81 -113c25 -14 56 -41 48 -102l-38 -240c-5 -29 -2 -43 2 -55l-1 -5h-159c-5 8 -10 25 -5 56l33 211c5 27 0 38 -23 38h-21zM233 616l-27 -171h23c19 0 29 9 32 36l16 101
c4 23 -3 34 -22 34h-22zM208 767l62 123h129l-66 -123h-125z" />
    <glyph glyph-name="racute" unicode="&#x155;" horiz-adv-x="350" 
d="M213 538l-11 -70c14 25 51 73 101 73h8c47 0 66 -32 58 -81l-30 -186h-139l19 120c3 17 0 24 -12 24c-9 0 -14 -7 -16 -22l-63 -396h-155l85 538h155zM161 561l66 146h125l-70 -146h-121z" />
    <glyph glyph-name="uni0156" unicode="&#x156;" horiz-adv-x="406" 
d="M173 -211h-65c11 23 19 50 24 71h-52l19 117h124l-12 -77c-9 -56 -30 -95 -38 -111zM183 305l-48 -305h-160l118 744h240c73 0 124 -46 111 -131l-16 -98c-11 -67 -42 -100 -81 -113c25 -14 56 -41 48 -102l-38 -240c-5 -29 -2 -43 2 -55l-1 -5h-159c-5 8 -10 25 -5 56
l33 211c5 27 0 38 -23 38h-21zM233 616l-27 -171h23c19 0 29 9 32 36l16 101c4 23 -3 34 -22 34h-22z" />
    <glyph glyph-name="uni0157" unicode="&#x157;" horiz-adv-x="350" 
d="M61 -211h-65c11 23 19 50 24 71h-52l19 117h124l-12 -77c-9 -56 -30 -95 -38 -111zM213 538l-11 -70c14 25 51 73 101 73h8c47 0 66 -32 58 -81l-30 -186h-139l19 120c3 17 0 24 -12 24c-9 0 -14 -7 -16 -22l-63 -396h-155l85 538h155z" />
    <glyph glyph-name="Rcaron" unicode="&#x158;" horiz-adv-x="406" 
d="M183 305l-48 -305h-160l118 744h240c73 0 124 -46 111 -131l-16 -98c-11 -67 -42 -100 -81 -113c25 -14 56 -41 48 -102l-38 -240c-5 -29 -2 -43 2 -55l-1 -5h-159c-5 8 -10 25 -5 56l33 211c5 27 0 38 -23 38h-21zM233 616l-27 -171h23c19 0 29 9 32 36l16 101
c4 23 -3 34 -22 34h-22zM329 767h-125l-54 123h105l20 -48l31 48h108z" />
    <glyph glyph-name="rcaron" unicode="&#x159;" horiz-adv-x="350" 
d="M213 538l-11 -70c14 25 51 73 101 73h8c47 0 66 -32 58 -81l-30 -186h-139l19 120c3 17 0 24 -12 24c-9 0 -14 -7 -16 -22l-63 -396h-155l85 538h155zM160 561l-48 146h103l17 -64l31 64h105l-83 -146h-125z" />
    <glyph glyph-name="Sacute" unicode="&#x15a;" horiz-adv-x="404" 
d="M215 771l61 119h129l-64 -119h-126zM187 -10h-37c-110 0 -173 62 -157 173l18 112h157l-16 -103c-4 -27 3 -41 22 -41c17 0 28 15 33 44l4 25c8 41 -1 62 -32 101l-48 62c-61 74 -80 136 -67 208l5 31c16 100 69 152 181 152h36c120 0 164 -62 148 -155l-13 -83h-153
l12 77c3 20 -2 32 -22 32c-19 0 -23 -11 -26 -31l-3 -23c-5 -32 1 -46 26 -81l51 -64c67 -86 91 -142 80 -217l-6 -38c-19 -117 -74 -181 -193 -181z" />
    <glyph glyph-name="sacute" unicode="&#x15b;" horiz-adv-x="344" 
d="M155 566l63 141h126l-68 -141h-121zM150 -11h-33c-96 0 -147 50 -132 138l10 64h139l-10 -62c-3 -19 5 -27 17 -27h1c15 0 18 13 21 26l3 19c4 24 -2 35 -21 56l-49 48c-51 49 -71 97 -62 157l3 20c13 85 68 121 152 121h33c95 0 142 -41 130 -118l-9 -54h-135l8 48
c3 16 -3 24 -16 24c-11 0 -17 -5 -20 -24l-2 -13c-3 -19 3 -32 18 -47l51 -50c56 -53 82 -97 71 -169l-3 -19c-13 -84 -61 -138 -165 -138z" />
    <glyph glyph-name="Scircumflex" unicode="&#x15c;" horiz-adv-x="404" 
d="M233 890h125l55 -119h-105l-21 43l-31 -43h-107zM187 -10h-37c-110 0 -173 62 -157 173l18 112h157l-16 -103c-4 -27 3 -41 22 -41c17 0 28 15 33 44l4 25c8 41 -1 62 -32 101l-48 62c-61 74 -80 136 -67 208l5 31c16 100 69 152 181 152h36c120 0 164 -62 148 -155
l-13 -83h-153l12 77c3 20 -2 32 -22 32c-19 0 -23 -11 -26 -31l-3 -23c-5 -32 1 -46 26 -81l51 -64c67 -86 91 -142 80 -217l-6 -38c-19 -117 -74 -181 -193 -181z" />
    <glyph glyph-name="scircumflex" unicode="&#x15d;" horiz-adv-x="344" 
d="M295 707l48 -141h-104l-16 60l-31 -60h-105l82 141h126zM150 -11h-33c-96 0 -147 50 -132 138l10 64h139l-10 -62c-3 -19 5 -27 17 -27h1c15 0 18 13 21 26l3 19c4 24 -2 35 -21 56l-49 48c-51 49 -71 97 -62 157l3 20c13 85 68 121 152 121h33c95 0 142 -41 130 -118
l-9 -54h-135l8 48c3 16 -3 24 -16 24c-11 0 -17 -5 -20 -24l-2 -13c-3 -19 3 -32 18 -47l51 -50c56 -53 82 -97 71 -169l-3 -19c-13 -84 -61 -138 -165 -138z" />
    <glyph glyph-name="uni015E" unicode="&#x15e;" horiz-adv-x="404" 
d="M187 -10h-37c-110 0 -173 62 -157 173l18 112h157l-16 -103c-4 -27 3 -41 22 -41c17 0 28 15 33 44l4 25c8 41 -1 62 -32 101l-48 62c-61 74 -80 136 -67 208l5 31c16 100 69 152 181 152h36c120 0 164 -62 148 -155l-13 -83h-153l12 77c3 20 -2 32 -22 32
c-19 0 -23 -11 -26 -31l-3 -23c-5 -32 1 -46 26 -81l51 -64c67 -86 91 -142 80 -217l-6 -38c-19 -117 -74 -181 -193 -181zM125 -196h-81l11 71h60c16 0 21 7 21 16s-6 14 -19 14h-42l16 95h66l-6 -35h2c51 0 79 -24 79 -71c0 -57 -40 -90 -107 -90z" />
    <glyph glyph-name="uni015F" unicode="&#x15f;" horiz-adv-x="344" 
d="M150 -11h-33c-96 0 -147 50 -132 138l10 64h139l-10 -62c-3 -19 5 -27 17 -27h1c15 0 18 13 21 26l3 19c4 24 -2 35 -21 56l-49 48c-51 49 -71 97 -62 157l3 20c13 85 68 121 152 121h33c95 0 142 -41 130 -118l-9 -54h-135l8 48c3 16 -3 24 -16 24c-11 0 -17 -5 -20 -24
l-2 -13c-3 -19 3 -32 18 -47l51 -50c56 -53 82 -97 71 -169l-3 -19c-13 -84 -61 -138 -165 -138zM98 -196h-81l11 71h60c16 0 21 7 21 16s-6 14 -19 14h-42l16 95h66l-6 -35h2c51 0 79 -24 79 -71c0 -57 -40 -90 -107 -90z" />
    <glyph glyph-name="Scaron" unicode="&#x160;" horiz-adv-x="404" 
d="M187 -10h-37c-110 0 -173 62 -157 173l18 112h157l-16 -103c-4 -27 3 -41 22 -41c17 0 28 15 33 44l4 25c8 41 -1 62 -32 101l-48 62c-61 74 -80 136 -67 208l5 31c16 100 69 152 181 152h36c120 0 164 -62 148 -155l-13 -83h-153l12 77c3 20 -2 32 -22 32
c-19 0 -23 -11 -26 -31l-3 -23c-5 -32 1 -46 26 -81l51 -64c67 -86 91 -142 80 -217l-6 -38c-19 -117 -74 -181 -193 -181zM335 767h-125l-54 123h105l20 -48l31 48h108z" />
    <glyph glyph-name="scaron" unicode="&#x161;" horiz-adv-x="344" 
d="M150 -11h-33c-96 0 -147 50 -132 138l10 64h139l-10 -62c-3 -19 5 -27 17 -27h1c15 0 18 13 21 26l3 19c4 24 -2 35 -21 56l-49 48c-51 49 -71 97 -62 157l3 20c13 85 68 121 152 121h33c95 0 142 -41 130 -118l-9 -54h-135l8 48c3 16 -3 24 -16 24c-11 0 -17 -5 -20 -24
l-2 -13c-3 -19 3 -32 18 -47l51 -50c56 -53 82 -97 71 -169l-3 -19c-13 -84 -61 -138 -165 -138zM153 561l-48 146h103l17 -64l31 64h105l-83 -146h-125z" />
    <glyph glyph-name="Tcommaaccent" unicode="&#x162;" horiz-adv-x="359" 
d="M148 -211h-65c11 23 19 50 24 71h-52l19 117h124l-12 -77c-9 -56 -30 -95 -38 -111zM85 744h340l-24 -154h-90l-93 -590h-160l93 590h-91z" />
    <glyph glyph-name="tcommaaccent" unicode="&#x163;" horiz-adv-x="285" 
d="M140 -211h-65c11 23 19 50 24 71h-52l19 117h124l-12 -77c-9 -56 -30 -95 -38 -111zM232 0h-139c-39 0 -68 27 -60 75l52 328h-57l21 135h58l28 178h155l-28 -178h56l-22 -135h-55l-40 -246c-2 -13 3 -19 16 -19h37z" />
    <glyph glyph-name="Tcaron" unicode="&#x164;" horiz-adv-x="359" 
d="M85 744h340l-24 -154h-90l-93 -590h-160l93 590h-91zM317 767h-125l-54 123h105l20 -48l31 48h108z" />
    <glyph glyph-name="tcaron" unicode="&#x165;" horiz-adv-x="285" 
d="M232 0h-139c-39 0 -68 27 -60 75l52 328h-57l21 135h58l28 178h155l-28 -178h56l-22 -135h-55l-40 -246c-2 -13 3 -19 16 -19h37zM284 586l32 158h103l-37 -158h-98z" />
    <glyph glyph-name="Tbar" unicode="&#x166;" horiz-adv-x="359" 
d="M334 330h-287l20 132h287zM85 744h340l-24 -154h-90l-93 -590h-160l93 590h-91z" />
    <glyph glyph-name="tbar" unicode="&#x167;" horiz-adv-x="285" 
d="M232 0h-139c-39 0 -68 27 -60 75l24 155h-56l17 115h58l9 58h-57l21 135h58l28 178h155l-28 -178h56l-22 -135h-55l-10 -58h56l-18 -115h-56l-12 -73c-3 -13 1 -19 16 -19h37z" />
    <glyph glyph-name="Utilde" unicode="&#x168;" horiz-adv-x="419" 
d="M4 185l89 559h165l-88 -559c-3 -25 4 -38 22 -38c19 0 27 13 31 38l88 559h166l-88 -559c-20 -125 -76 -197 -193 -197h-30c-123 0 -181 76 -162 197zM341 875l3 19h85l-10 -63c-7 -39 -28 -62 -61 -62h-2c-23 0 -37 6 -64 19c-15 7 -19 9 -26 9c-5 0 -9 -4 -10 -13
l-3 -18h-83l8 56c7 43 25 70 62 70h2c23 0 36 -7 64 -19c13 -7 19 -9 26 -9c5 0 8 4 9 11z" />
    <glyph glyph-name="utilde" unicode="&#x169;" horiz-adv-x="386" 
d="M413 538l-85 -538h-155l11 68c-24 -35 -61 -73 -112 -73h-8c-66 0 -82 62 -74 110l68 433h157l-60 -384c-3 -19 1 -31 17 -31c19 0 21 13 24 32l61 383h156zM293 672l3 20h83l-11 -69c-7 -39 -26 -62 -63 -62h-1c-20 0 -36 5 -61 20c-15 9 -20 12 -27 12
c-5 0 -9 -4 -10 -11l-4 -22h-83l9 59c7 45 24 72 64 72h2c23 0 35 -6 62 -21c11 -7 20 -11 27 -11c6 0 9 4 10 13z" />
    <glyph glyph-name="Umacron" unicode="&#x16a;" horiz-adv-x="419" 
d="M4 185l89 559h165l-88 -559c-3 -25 4 -38 22 -38c19 0 27 13 31 38l88 559h166l-88 -559c-20 -125 -76 -197 -193 -197h-30c-123 0 -181 76 -162 197zM181 774l15 100h217l-15 -100h-217z" />
    <glyph glyph-name="umacron" unicode="&#x16b;" horiz-adv-x="386" 
d="M413 538l-85 -538h-155l11 68c-24 -35 -61 -73 -112 -73h-8c-66 0 -82 62 -74 110l68 433h157l-60 -384c-3 -19 1 -31 17 -31c19 0 21 13 24 32l61 383h156zM133 570l15 100h215l-16 -100h-214z" />
    <glyph glyph-name="Ubreve" unicode="&#x16c;" horiz-adv-x="419" 
d="M4 185l89 559h165l-88 -559c-3 -25 4 -38 22 -38c19 0 27 13 31 38l88 559h166l-88 -559c-20 -125 -76 -197 -193 -197h-30c-123 0 -181 76 -162 197zM294 764h-4c-79 0 -118 45 -110 113l1 8h95c-3 -19 4 -33 20 -33h1c19 0 27 13 28 33h96l-1 -10
c-7 -69 -50 -111 -126 -111z" />
    <glyph glyph-name="ubreve" unicode="&#x16d;" horiz-adv-x="386" 
d="M413 538l-85 -538h-155l11 68c-24 -35 -61 -73 -112 -73h-8c-66 0 -82 62 -74 110l68 433h157l-60 -384c-3 -19 1 -31 17 -31c19 0 21 13 24 32l61 383h156zM245 559h-3c-83 0 -120 53 -109 118l2 13h96l-1 -9c-2 -22 5 -33 20 -33h1c15 0 23 9 27 33l2 9h96l-2 -13
c-11 -69 -52 -118 -129 -118z" />
    <glyph glyph-name="Uring" unicode="&#x16e;" horiz-adv-x="419" 
d="M4 185l89 559h165l-88 -559c-3 -25 4 -38 22 -38c19 0 27 13 31 38l88 559h166l-88 -559c-20 -125 -76 -197 -193 -197h-30c-123 0 -181 76 -162 197zM291 810c21 0 35 15 35 35c0 19 -14 34 -35 34c-20 0 -34 -15 -34 -34c0 -20 14 -35 34 -35zM291 762
c-49 0 -85 35 -85 83c0 49 36 83 85 83c51 0 86 -34 86 -83c0 -48 -35 -83 -86 -83z" />
    <glyph glyph-name="uring" unicode="&#x16f;" horiz-adv-x="386" 
d="M413 538l-85 -538h-155l11 68c-24 -35 -61 -73 -112 -73h-8c-66 0 -82 62 -74 110l68 433h157l-60 -384c-3 -19 1 -31 17 -31c19 0 21 13 24 32l61 383h156zM243 607c21 0 35 15 35 35c0 19 -14 34 -35 34c-20 0 -34 -15 -34 -34c0 -20 14 -35 34 -35zM243 559
c-49 0 -85 35 -85 83c0 49 36 83 85 83c51 0 86 -34 86 -83c0 -48 -35 -83 -86 -83z" />
    <glyph glyph-name="Uhungarumlaut" unicode="&#x170;" horiz-adv-x="419" 
d="M4 185l89 559h165l-88 -559c-3 -25 4 -38 22 -38c19 0 27 13 31 38l88 559h166l-88 -559c-20 -125 -76 -197 -193 -197h-30c-123 0 -181 76 -162 197zM400 767h-101l50 123h104zM175 767l47 123h104l-49 -123h-102z" />
    <glyph glyph-name="uhungarumlaut" unicode="&#x171;" horiz-adv-x="386" 
d="M413 538l-85 -538h-155l11 68c-24 -35 -61 -73 -112 -73h-8c-66 0 -82 62 -74 110l68 433h157l-60 -384c-3 -19 1 -31 17 -31c19 0 21 13 24 32l61 383h156zM349 561h-101l56 146h101zM125 561l54 146h101l-54 -146h-101z" />
    <glyph glyph-name="Uogonek" unicode="&#x172;" horiz-adv-x="419" 
d="M290 2c-42 -35 -63 -63 -63 -84c0 -12 8 -18 24 -18h14l-13 -88h-61c-51 0 -79 23 -79 60c0 40 19 77 88 116h-4h-30c-123 0 -181 76 -162 197l89 559h165l-88 -559c-3 -25 4 -38 22 -38c19 0 27 13 31 38l88 559h166l-88 -559c-19 -114 -59 -149 -99 -183z" />
    <glyph glyph-name="uogonek" unicode="&#x173;" horiz-adv-x="386" 
d="M297 -188h-61c-49 0 -78 23 -78 58c0 44 19 79 100 130h69c-39 -39 -55 -63 -55 -82c0 -12 8 -18 25 -18h14zM413 538l-85 -538h-155l11 68c-24 -35 -61 -73 -112 -73h-8c-66 0 -82 62 -74 110l68 433h157l-60 -384c-3 -19 1 -31 17 -31c19 0 21 13 24 32l61 383h156z
" />
    <glyph glyph-name="Wcircumflex" unicode="&#x174;" horiz-adv-x="611" 
d="M308 744h150l-25 -461l98 461h158l-200 -744h-182l23 404l-87 -404h-186l15 744h162l-31 -451zM334 890h125l55 -123h-106l-20 47l-31 -47h-108z" />
    <glyph glyph-name="wcircumflex" unicode="&#x175;" horiz-adv-x="551" 
d="M215 0h-172l-3 538h152l-19 -326l77 326h139l-17 -321l75 321h150l-163 -538h-164l10 277zM399 707l48 -146h-104l-16 65l-32 -65h-104l83 146h125z" />
    <glyph glyph-name="Ycircumflex" unicode="&#x176;" horiz-adv-x="371" 
d="M452 744l-180 -459l-44 -285h-161l45 283l-43 461h156l1 -247l78 247h148zM216 890h125l55 -123h-106l-20 47l-31 -47h-108z" />
    <glyph glyph-name="ycircumflex" unicode="&#x177;" horiz-adv-x="360" 
d="M65 29l-25 509h151l-10 -287l69 287h156l-216 -644c-19 -59 -47 -82 -86 -82h-144l22 136h54c16 0 21 8 24 23l4 19c3 13 2 20 1 39zM301 707l48 -146h-104l-16 65l-32 -65h-104l83 146h125z" />
    <glyph glyph-name="Zacute" unicode="&#x179;" horiz-adv-x="357" 
d="M92 744h323l-23 -140l-225 -450h163l-24 -154h-340l23 142l229 450h-150zM187 767l62 123h129l-66 -123h-125z" />
    <glyph glyph-name="zacute" unicode="&#x17a;" horiz-adv-x="305" 
d="M60 538h274l-18 -118l-166 -285h125l-21 -135h-288l20 121l169 288h-116zM133 561l66 146h125l-70 -146h-121z" />
    <glyph glyph-name="Zdotaccent" unicode="&#x17b;" horiz-adv-x="357" 
d="M92 744h323l-23 -140l-225 -450h163l-24 -154h-340l23 142l229 450h-150zM330 767h-156l23 141h155z" />
    <glyph glyph-name="zdotaccent" unicode="&#x17c;" horiz-adv-x="305" 
d="M60 538h274l-18 -118l-166 -285h125l-21 -135h-288l20 121l169 288h-116zM300 702l-22 -141h-156l23 141h155z" />
    <glyph glyph-name="Zcaron" unicode="&#x17d;" horiz-adv-x="357" 
d="M92 744h323l-23 -140l-225 -450h163l-24 -154h-340l23 142l229 450h-150zM314 767h-125l-54 123h105l20 -48l31 48h108z" />
    <glyph glyph-name="zcaron" unicode="&#x17e;" horiz-adv-x="305" 
d="M60 538h274l-18 -118l-166 -285h125l-21 -135h-288l20 121l169 288h-116zM137 561l-48 146h103l17 -64l31 64h105l-83 -146h-125z" />
    <glyph glyph-name="Aringacute" unicode="&#x1fa;" horiz-adv-x="386" 
d="M192 0l5 109h-74l-27 -109h-142l210 744h198l-15 -744h-155zM160 256h45l11 226zM221 941l62 123h129l-66 -123h-125zM269 810c21 0 35 15 35 35c0 19 -14 34 -35 34c-20 0 -34 -15 -34 -34c0 -20 14 -35 34 -35zM269 762c-49 0 -85 35 -85 83c0 49 36 83 85 83
c51 0 86 -34 86 -83c0 -48 -35 -83 -86 -83z" />
    <glyph glyph-name="aringacute" unicode="&#x1fb;" horiz-adv-x="377" 
d="M-15 104l15 96c9 59 27 92 79 116c29 16 107 42 123 50c9 5 11 9 14 22l3 22c3 19 -2 29 -16 29h-3c-15 0 -19 -11 -22 -28l-7 -46h-139l10 59c11 59 34 123 156 123h21c127 0 162 -52 151 -131l-43 -271c-2 -9 2 -14 11 -14h15l-21 -131h-135c-26 0 -37 20 -32 60
c-16 -24 -54 -66 -105 -66h-3c-56 0 -83 46 -72 110zM153 110c15 0 20 9 23 26l19 122c-9 -4 -23 -12 -30 -19c-11 -9 -14 -19 -17 -36l-10 -66c-3 -16 2 -27 15 -27zM173 741l66 146h125l-70 -146h-121zM223 609c21 0 35 15 35 35c0 19 -14 34 -35 34
c-20 0 -34 -15 -34 -34c0 -20 14 -35 34 -35zM223 561c-49 0 -85 35 -85 83c0 49 36 83 85 83c51 0 86 -34 86 -83c0 -48 -35 -83 -86 -83z" />
    <glyph glyph-name="AEacute" unicode="&#x1fc;" horiz-adv-x="538" 
d="M330 767l62 123h129l-66 -123h-125zM486 0h-293l18 117h-70l-36 -117h-153l249 744h396l-24 -155h-127l-20 -126h99l-25 -158h-99l-24 -148h134zM186 263h48l49 313z" />
    <glyph glyph-name="aeacute" unicode="&#x1fd;" horiz-adv-x="549" 
d="M249 561l66 146h125l-70 -146h-121zM182 61c-19 -27 -60 -67 -116 -67h-3c-62 0 -87 50 -79 101l14 93c9 57 27 90 78 115c30 16 109 42 124 49c11 5 10 10 13 23l6 37c3 18 -2 27 -16 27h-3c-15 0 -19 -10 -22 -27l-10 -61h-138l12 73c11 60 34 123 156 123h16
c63 0 87 -20 98 -29c8 8 36 30 89 30h18c94 0 154 -52 138 -159l-23 -138h-189l-18 -113c-3 -20 2 -30 17 -30c16 0 21 11 25 31l12 75h147l-11 -70c-16 -100 -66 -155 -167 -155h-27c-76 0 -121 29 -141 72zM153 108c13 0 20 9 22 27l18 110c-9 -4 -22 -11 -30 -18
c-9 -11 -14 -20 -17 -39l-8 -52c-3 -19 2 -28 15 -28zM370 410l-10 -61h43l10 61c3 20 1 33 -18 33c-17 0 -21 -10 -25 -33z" />
    <glyph glyph-name="Oslashacute" unicode="&#x1fe;" horiz-adv-x="418" 
d="M209 771l60 119h130l-64 -119h-126zM445 542l-55 -351c-20 -127 -82 -202 -194 -202h-28c-47 0 -81 14 -105 33l-13 -22h-78l43 76c-15 31 -19 70 -12 115l56 356c19 126 68 207 192 207h28c48 0 82 -13 106 -32l13 22h78l-43 -77c15 -33 20 -76 12 -125zM285 553l1 8
c4 28 -5 42 -27 42c-19 0 -31 -14 -36 -42l-30 -192zM191 142c21 0 30 14 34 37l31 196l-91 -183l-2 -13c-4 -25 5 -37 28 -37z" />
    <glyph glyph-name="oslashacute" unicode="&#x1ff;" horiz-adv-x="381" 
d="M161 566l63 141h126l-68 -141h-121zM-1 177l31 195c19 119 70 177 173 177h26c43 0 74 -11 97 -28l12 17h74l-44 -63c12 -23 23 -57 15 -104l-32 -204c-17 -108 -69 -178 -173 -178h-27c-41 0 -74 12 -95 28l-13 -17h-73l43 63c-13 27 -22 63 -14 114zM185 387l-17 -108
l65 108v1c4 25 -3 37 -20 37c-20 0 -25 -15 -28 -38zM168 118c20 0 24 14 27 33l17 108l-65 -109c-3 -19 2 -32 21 -32z" />
    <glyph glyph-name="uni0218" unicode="&#x218;" horiz-adv-x="404" 
d="M174 -214h-65c11 23 19 50 24 71h-52l19 117h124l-12 -77c-9 -56 -30 -95 -38 -111zM187 -10h-37c-110 0 -173 62 -157 173l18 112h157l-16 -103c-4 -27 3 -41 22 -41c17 0 28 15 33 44l4 25c8 41 -1 62 -32 101l-48 62c-61 74 -80 136 -67 208l5 31
c16 100 69 152 181 152h36c120 0 164 -62 148 -155l-13 -83h-153l12 77c3 20 -2 32 -22 32c-19 0 -23 -11 -26 -31l-3 -23c-5 -32 1 -46 26 -81l51 -64c67 -86 91 -142 80 -217l-6 -38c-19 -117 -74 -181 -193 -181z" />
    <glyph glyph-name="uni0219" unicode="&#x219;" horiz-adv-x="344" 
d="M139 -214h-65c11 23 19 50 24 71h-52l19 117h124l-12 -77c-9 -56 -30 -95 -38 -111zM150 -11h-33c-96 0 -147 50 -132 138l10 64h139l-10 -62c-3 -19 5 -27 17 -27h1c15 0 18 13 21 26l3 19c4 24 -2 35 -21 56l-49 48c-51 49 -71 97 -62 157l3 20c13 85 68 121 152 121
h33c95 0 142 -41 130 -118l-9 -54h-135l8 48c3 16 -3 24 -16 24c-11 0 -17 -5 -20 -24l-2 -13c-3 -19 3 -32 18 -47l51 -50c56 -53 82 -97 71 -169l-3 -19c-13 -84 -61 -138 -165 -138z" />
    <glyph glyph-name="uni021A" unicode="&#x21a;" horiz-adv-x="359" 
d="M148 -211h-65c11 23 19 50 24 71h-52l19 117h124l-12 -77c-9 -56 -30 -95 -38 -111zM85 744h340l-24 -154h-90l-93 -590h-160l93 590h-91z" />
    <glyph glyph-name="uni021B" unicode="&#x21b;" horiz-adv-x="285" 
d="M140 -211h-65c11 23 19 50 24 71h-52l19 117h124l-12 -77c-9 -56 -30 -95 -38 -111zM232 0h-139c-39 0 -68 27 -60 75l52 328h-57l21 135h58l28 178h155l-28 -178h56l-22 -135h-55l-40 -246c-2 -13 3 -19 16 -19h37z" />
    <glyph glyph-name="uni0237" unicode="&#x237;" horiz-adv-x="187" 
d="M-96 -47h43c15 0 18 6 21 19l90 566h156l-103 -646c-8 -51 -39 -80 -86 -80h-144z" />
    <glyph glyph-name="Wgrave" unicode="&#x1e80;" horiz-adv-x="611" 
d="M308 744h150l-25 -461l98 461h158l-200 -744h-182l23 404l-87 -404h-186l15 744h162l-31 -451zM421 890l23 -123h-120l-27 123h124z" />
    <glyph glyph-name="wgrave" unicode="&#x1e81;" horiz-adv-x="551" 
d="M215 0h-172l-3 538h152l-19 -326l77 326h139l-17 -321l75 321h150l-163 -538h-164l10 277zM355 707l22 -146h-116l-26 146h120z" />
    <glyph glyph-name="Wacute" unicode="&#x1e82;" horiz-adv-x="611" 
d="M308 744h150l-25 -461l98 461h158l-200 -744h-182l23 404l-87 -404h-186l15 744h162l-31 -451zM322 767l62 123h129l-66 -123h-125z" />
    <glyph glyph-name="wacute" unicode="&#x1e83;" horiz-adv-x="551" 
d="M215 0h-172l-3 538h152l-19 -326l77 326h139l-17 -321l75 321h150l-163 -538h-164l10 277zM261 561l66 146h125l-70 -146h-121z" />
    <glyph glyph-name="Wdieresis" unicode="&#x1e84;" horiz-adv-x="611" 
d="M308 744h150l-25 -461l98 461h158l-200 -744h-182l23 404l-87 -404h-186l15 744h162l-31 -451zM508 767h-114l19 118h114zM371 767h-114l19 118h114z" />
    <glyph glyph-name="wdieresis" unicode="&#x1e85;" horiz-adv-x="551" 
d="M215 0h-172l-3 538h152l-19 -326l77 326h139l-17 -321l75 321h150l-163 -538h-164l10 277zM444 561h-114l19 119h114zM327 680l-20 -119h-113l19 119h114z" />
    <glyph glyph-name="Ygrave" unicode="&#x1ef2;" horiz-adv-x="371" 
d="M452 744l-180 -459l-44 -285h-161l45 283l-43 461h156l1 -247l78 247h148zM302 890l23 -123h-120l-27 123h124z" />
    <glyph glyph-name="ygrave" unicode="&#x1ef3;" horiz-adv-x="360" 
d="M65 29l-25 509h151l-10 -287l69 287h156l-216 -644c-19 -59 -47 -82 -86 -82h-144l22 136h54c16 0 21 8 24 23l4 19c3 13 2 20 1 39zM262 707l22 -146h-116l-26 146h120z" />
    <glyph glyph-name="uni2009" unicode="&#x2009;" horiz-adv-x="8" 
 />
    <glyph glyph-name="uni2032" unicode="&#x2032;" horiz-adv-x="135" 
d="M204 744l-50 -209h-105l50 209h105z" />
    <glyph glyph-name="uni2033" unicode="&#x2033;" horiz-adv-x="254" 
d="M201 744l-49 -209h-103l49 209h103zM323 744l-50 -209h-104l51 209h103z" />
    <glyph glyph-name="published" unicode="&#x2117;" horiz-adv-x="599" 
d="M323 -11h-12c-160 0 -259 79 -259 267v234c0 175 100 265 260 265h14c156 0 253 -84 253 -265v-234c0 -188 -114 -267 -256 -267zM313 60h10c123 0 173 77 173 214v198c0 133 -47 212 -171 212h-12c-127 0 -177 -68 -177 -212v-198c0 -141 52 -214 177 -214zM365 306h-53
v-185h-122v504h175c61 0 97 -26 97 -105v-107c0 -75 -37 -107 -97 -107zM312 534v-135h14c11 0 16 9 16 26v85c0 17 -3 24 -16 24h-14z" />
    <glyph glyph-name="onethird" unicode="&#x2153;" horiz-adv-x="452" 
d="M108 627h-43l13 77c39 0 53 16 58 40h89l-54 -341h-99zM372 744h88l-404 -744h-88zM313 230h-90l5 35c7 49 32 84 104 84h13c65 0 102 -26 93 -82l-3 -17c-5 -36 -24 -52 -43 -57c16 -7 36 -26 31 -67l-6 -36c-11 -60 -38 -96 -113 -96h-14c-82 0 -100 40 -92 85l7 47h94
l-7 -41c-1 -7 1 -14 10 -14c8 0 10 6 11 14l7 43c1 9 -2 13 -8 13h-45l13 76h41c11 0 12 2 13 13l6 34c2 10 -1 15 -9 15c-7 0 -11 -5 -12 -15z" />
    <glyph glyph-name="twothirds" unicode="&#x2154;" horiz-adv-x="532" 
d="M253 402h-225l8 49c8 40 18 60 104 133c38 33 40 41 46 63l2 13c1 12 0 18 -9 18c-11 0 -11 -6 -14 -18l-7 -43h-91l8 47c5 43 24 86 103 86h16c76 0 102 -33 95 -86l-3 -14c-8 -54 -28 -75 -90 -115c-61 -40 -66 -47 -68 -57h53l8 44h84zM453 744h88l-404 -744h-88z
M393 230h-90l5 35c7 49 32 84 104 84h13c65 0 102 -26 93 -82l-3 -17c-5 -36 -24 -52 -43 -57c16 -7 36 -26 31 -67l-6 -36c-11 -60 -38 -96 -113 -96h-14c-82 0 -100 40 -92 85l7 47h94l-7 -41c-1 -7 1 -14 10 -14c8 0 10 6 11 14l7 43c1 9 -2 13 -8 13h-45l13 76h41
c11 0 12 2 13 13l6 34c2 10 -1 15 -9 15c-7 0 -11 -5 -12 -15z" />
    <glyph glyph-name="oneeighth" unicode="&#x215b;" horiz-adv-x="454" 
d="M108 627h-43l13 77c39 0 53 16 58 40h89l-54 -341h-99zM373 744h88l-404 -744h-88zM442 265l-3 -22c-7 -39 -26 -54 -43 -61c15 -7 33 -29 26 -65l-5 -34c-8 -56 -41 -89 -110 -89h-12c-73 0 -105 35 -97 90l5 35c5 29 22 52 46 63c-12 9 -27 27 -22 60l4 24
c8 52 36 82 105 82h12c69 0 102 -30 94 -83zM341 229l5 33c2 10 -1 15 -9 15s-9 -6 -12 -15l-5 -33c-3 -8 0 -17 9 -17c7 0 9 8 12 17zM319 86l7 42c1 11 1 18 -10 18c-9 0 -10 -7 -13 -18l-7 -42c-1 -11 2 -16 10 -16c9 0 10 7 13 16z" />
    <glyph glyph-name="threeeighths" unicode="&#x215c;" horiz-adv-x="512" 
d="M431 744h88l-404 -744h-88zM159 631h-90l5 35c7 49 32 84 104 84h13c65 0 102 -26 93 -82l-3 -17c-5 -36 -24 -52 -43 -57c16 -7 36 -26 31 -67l-6 -36c-11 -60 -38 -96 -113 -96h-14c-82 0 -100 40 -92 85l7 47h94l-7 -41c-1 -7 1 -14 10 -14c8 0 10 6 11 14l7 43
c1 9 -2 13 -8 13h-45l13 76h41c11 0 12 2 13 13l6 34c2 10 -1 15 -9 15c-7 0 -11 -5 -12 -15zM501 265l-3 -22c-7 -39 -26 -54 -43 -61c15 -7 33 -29 26 -65l-5 -34c-8 -56 -41 -89 -110 -89h-12c-73 0 -105 35 -97 90l5 35c5 29 22 52 46 63c-12 9 -27 27 -22 60l4 24
c8 52 36 82 105 82h12c69 0 102 -30 94 -83zM400 229l5 33c2 10 -1 15 -9 15s-9 -6 -12 -15l-5 -33c-3 -8 0 -17 9 -17c7 0 9 8 12 17zM378 86l7 42c1 11 1 18 -10 18c-9 0 -10 -7 -13 -18l-7 -42c-1 -11 2 -16 10 -16c9 0 10 7 13 16z" />
    <glyph glyph-name="fiveeighths" unicode="&#x215d;" horiz-adv-x="513" 
d="M432 744h88l-404 -744h-88zM149 545h-90l32 199h202l-13 -78h-114l-8 -55c11 13 32 36 64 36h4c41 0 58 -31 51 -74l-12 -82c-9 -57 -38 -95 -113 -95h-15c-78 0 -101 39 -93 86l6 39h97l-6 -38c-1 -9 1 -14 8 -14s11 5 12 14l12 76c1 10 -2 15 -9 15
c-8 0 -11 -7 -12 -15zM502 265l-3 -22c-7 -39 -26 -54 -43 -61c15 -7 33 -29 26 -65l-5 -34c-8 -56 -41 -89 -110 -89h-12c-73 0 -105 35 -97 90l5 35c5 29 22 52 46 63c-12 9 -27 27 -22 60l4 24c8 52 36 82 105 82h12c69 0 102 -30 94 -83zM401 229l5 33c2 10 -1 15 -9 15
s-9 -6 -12 -15l-5 -33c-3 -8 0 -17 9 -17c7 0 9 8 12 17zM379 86l7 42c1 11 1 18 -10 18c-9 0 -10 -7 -13 -18l-7 -42c-1 -11 2 -16 10 -16c9 0 10 7 13 16z" />
    <glyph glyph-name="seveneighths" unicode="&#x215e;" horiz-adv-x="479" 
d="M86 744h201l-7 -44c-4 -23 -23 -68 -46 -139c-22 -62 -27 -93 -35 -142l-2 -17h-114l2 15c8 50 17 76 51 136c40 71 55 99 58 123h-34l-10 -57h-84zM398 744h88l-404 -744h-88zM467 265l-3 -22c-7 -39 -26 -54 -43 -61c15 -7 33 -29 26 -65l-5 -34
c-8 -56 -41 -89 -110 -89h-12c-73 0 -105 35 -97 90l5 35c5 29 22 52 46 63c-12 9 -27 27 -22 60l4 24c8 52 36 82 105 82h12c69 0 102 -30 94 -83zM366 229l5 33c2 10 -1 15 -9 15s-9 -6 -12 -15l-5 -33c-3 -8 0 -17 9 -17c7 0 9 8 12 17zM344 86l7 42c1 11 1 18 -10 18
c-9 0 -10 -7 -13 -18l-7 -42c-1 -11 2 -16 10 -16c9 0 10 7 13 16z" />
    <glyph glyph-name="minus" unicode="&#x2212;" horiz-adv-x="323" 
d="M27 351h295l-15 -98h-295z" />
    <glyph glyph-name="E.alt" unicode="&#xe484;" horiz-adv-x="329" 
d="M93 744h295l-23 -154h-136l-20 -127h130l-25 -158h-131l-23 -148h139l-25 -157h-299z" />
    <glyph glyph-name="F.alt" unicode="&#xe485;" horiz-adv-x="324" 
d="M93 744h294l-24 -153h-134l-20 -128h130l-26 -157h-130l-48 -306h-160z" />
    <glyph glyph-name="J.alt" unicode="&#xe489;" horiz-adv-x="268" 
d="M-34 0l25 157h55c17 0 21 9 24 26l89 561h168l-100 -634c-11 -71 -48 -110 -112 -110h-149z" />
    <glyph glyph-name="a.alt" unicode="&#xe4c0;" horiz-adv-x="362" 
d="M165 60c-16 -24 -54 -66 -105 -66h-3c-56 0 -83 46 -72 110l15 96c9 59 27 92 79 116c29 16 107 42 123 50c9 5 11 9 14 22l3 22c3 19 -2 29 -16 29h-3c-15 0 -19 -11 -22 -28l-7 -46h-139l10 59c11 59 34 123 156 123h21c127 0 162 -52 151 -131l-45 -284
c-13 -88 -13 -108 -10 -127l-1 -5h-144c-5 8 -9 25 -5 60zM153 110c15 0 20 9 23 26l19 122c-9 -4 -23 -12 -30 -19c-11 -9 -14 -19 -17 -36l-10 -66c-3 -16 2 -27 15 -27z" />
    <glyph glyph-name="r.alt" unicode="&#xe4d1;" horiz-adv-x="301" 
d="M212 538l-14 -86c25 55 58 90 99 90h7c12 0 26 -3 30 -4l-28 -180c-8 3 -27 8 -56 8h-6c-45 0 -60 -15 -64 -42l-52 -324h-155l85 538h154z" />
    </font>
</defs>
</svg>
