<?xml version="1.0" standalone="no"?>
<!DOCTYPE svg PUBLIC "-//W3C//DTD SVG 1.1//EN" "http://www.w3.org/Graphics/SVG/1.1/DTD/svg11.dtd" >
<svg xmlns="http://www.w3.org/2000/svg" xmlns:xlink="http://www.w3.org/1999/xlink" version="1.1">
<metadata>
Created by FontForge 20161003 at Tue Feb 12 10:34:37 2019
 By www-data
Copyright (c) 2014 Commercial Type. Druk is a registered trademark of Commercial Type/Schwartzco Inc. All rights reserved. [wfr]
</metadata>
<defs>
<font id="Druk-Super" horiz-adv-x="342" >
  <font-face 
    font-family="Druk Super"
    font-weight="950"
    font-stretch="condensed"
    units-per-em="1000"
    panose-1="0 0 0 0 0 0 0 0 0 0"
    ascent="800"
    descent="-200"
    x-height="538"
    cap-height="744"
    bbox="-41 -227 1291 1078"
    underline-thickness="50"
    underline-position="-100"
    unicode-range="U+000D-FB02"
  />
<missing-glyph horiz-adv-x="492" 
d="M0 690h492v-690h-492v690zM443 94v503l-168 -252zM49 597v-503l168 251zM246 389l168 252h-335zM246 301l-167 -252h334z" />
    <glyph glyph-name="fi" unicode="fi" horiz-adv-x="543" 
d="M530 538v-538h-195v538h195zM530 715v-157h-195v157h195zM318 744v-146h-39c-15 0 -17 -6 -17 -18v-42h55v-153h-55v-385h-195v385h-61v153h61v103c0 71 52 103 102 103h149z" />
    <glyph glyph-name="fl" unicode="fl" horiz-adv-x="543" 
d="M318 744v-146h-39c-15 0 -17 -6 -17 -18v-42h55v-153h-55v-385h-195v385h-61v153h61v103c0 71 52 103 102 103h149zM530 744v-744h-195v744h195z" />
    <glyph glyph-name="f_f" unicode="ff" horiz-adv-x="592" 
d="M314 744v-146h-35c-15 0 -17 -6 -17 -18v-42h67v103c0 71 52 103 103 103h151v-146h-41c-15 0 -17 -6 -17 -18v-42h58v-153h-58v-385h-196v385h-67v-385h-195v385h-61v153h61v103c0 71 52 103 102 103h145z" />
    <glyph glyph-name=".notdef" horiz-adv-x="492" 
d="M0 690h492v-690h-492v690zM443 94v503l-168 -252zM49 597v-503l168 251zM246 389l168 252h-335zM246 301l-167 -252h334z" />
    <glyph glyph-name="NULL" horiz-adv-x="0" 
 />
    <glyph glyph-name="NULL" horiz-adv-x="0" 
 />
    <glyph glyph-name="CR" unicode="&#xd;" horiz-adv-x="116" 
 />
    <glyph glyph-name="space" unicode=" " horiz-adv-x="116" 
 />
    <glyph glyph-name="exclam" unicode="!" horiz-adv-x="223" 
d="M194 180v-180h-166v180h166zM6 744h211l-52 -538h-108z" />
    <glyph glyph-name="quotedbl" unicode="&#x22;" horiz-adv-x="287" 
d="M135 744v-229h-122v229h122zM274 744v-229h-123v229h123z" />
    <glyph glyph-name="numbersign" unicode="#" horiz-adv-x="400" 
d="M93 744h117l-15 -196h31l14 196h118l-14 -196h52l-9 -116h-52l-6 -86h52l-9 -116h-52l-16 -230h-117l16 230h-31l-17 -230h-115l16 230h-52l9 116h51l6 86h-51l9 116h51zM187 432l-7 -86h31l6 86h-30z" />
    <glyph glyph-name="dollar" unicode="$" horiz-adv-x="460" 
d="M210 -75v64c-143 1 -200 65 -200 170v112h180v-96c0 -23 7 -36 20 -41v153l-92 59c-72 47 -105 104 -105 199v37c0 107 61 172 197 173v57h33v-57c133 0 193 -47 193 -166v-75h-173v66c0 27 -5 38 -20 42v-134l101 -64c77 -49 108 -107 108 -199v-43
c0 -121 -73 -192 -209 -193v-64h-33zM264 177v28c0 33 -5 46 -21 59v-131c14 4 21 19 21 44zM190 580v-18c0 -25 5 -39 20 -51v111c-16 -4 -20 -17 -20 -42z" />
    <glyph glyph-name="percent" unicode="%" horiz-adv-x="611" 
d="M326 122v93c0 88 49 130 126 130h21c84 0 128 -42 128 -130v-93c0 -87 -50 -130 -130 -130h-18c-85 0 -127 43 -127 130zM10 530v93c0 88 49 130 126 130h21c84 0 128 -42 128 -130v-93c0 -87 -50 -130 -130 -130h-18c-85 0 -127 43 -127 130zM409 744h113l-319 -744
h-115zM159 504v146c0 10 -4 15 -11 15c-11 0 -12 -6 -12 -15v-146c0 -9 1 -14 12 -14c7 0 11 5 11 14zM464 82c7 0 11 5 11 14v146c0 10 -4 15 -11 15c-11 0 -12 -6 -12 -15v-146c0 -9 1 -14 12 -14z" />
    <glyph glyph-name="ampersand" unicode="&#x26;" horiz-adv-x="557" 
d="M7 194v26c0 92 43 147 122 192c-34 63 -54 97 -54 167v24c0 77 45 152 165 152h32c101 0 158 -47 158 -142v-21c0 -91 -48 -128 -125 -173l65 -125c4 44 5 95 5 152h155c0 -145 -21 -236 -50 -303c23 -8 49 -10 77 -11l-31 -144c-80 0 -129 15 -162 38
c-27 -19 -67 -36 -127 -36h-1c-140 0 -229 67 -229 204zM263 130c8 0 15 1 22 2l-98 177c-3 -19 -5 -34 -5 -55v-18c0 -68 24 -106 81 -106zM241 613v-40c0 -27 4 -39 19 -68c12 16 17 30 17 58v51c0 19 -3 25 -18 25s-18 -10 -18 -26z" />
    <glyph glyph-name="quotesingle" unicode="'" horiz-adv-x="151" 
d="M137 744v-229h-124v229h124z" />
    <glyph glyph-name="parenleft" unicode="(" horiz-adv-x="242" 
d="M14 344c0 210 58 352 119 464h110c-32 -88 -68 -272 -68 -461c0 -200 42 -378 72 -478h-111c-59 110 -122 261 -122 475z" />
    <glyph glyph-name="parenright" unicode=")" horiz-adv-x="242" 
d="M66 347c0 190 -36 372 -68 461h110c62 -112 120 -254 120 -464c0 -214 -64 -364 -123 -475h-111c32 99 72 279 72 478z" />
    <glyph glyph-name="asterisk" unicode="*" horiz-adv-x="272" 
d="M173 676l49 44l46 -77l-67 -23l66 -24l-45 -77l-50 46l11 -68h-95l13 68l-51 -45l-45 76l66 24l-67 23l44 77l52 -44l-12 68h95z" />
    <glyph glyph-name="plus" unicode="+" horiz-adv-x="350" 
d="M115 136v114h-103v106h103v114h120v-114h103v-106h-103v-114h-120z" />
    <glyph glyph-name="comma" unicode="," horiz-adv-x="192" 
d="M143 -107h-94c13 31 25 76 28 107h-64v180h166v-136c0 -61 -21 -118 -36 -151z" />
    <glyph glyph-name="hyphen" unicode="-" horiz-adv-x="220" 
d="M13 386h194v-174h-194v174z" />
    <glyph glyph-name="period" unicode="." horiz-adv-x="192" 
d="M179 180v-180h-166v180h166z" />
    <glyph glyph-name="slash" unicode="/" horiz-adv-x="258" 
d="M263 808l-147 -939h-130l147 939h130z" />
    <glyph glyph-name="zero" unicode="0" horiz-adv-x="479" 
d="M466 523v-309c0 -149 -85 -225 -210 -225h-33c-133 0 -210 82 -210 225v309c0 143 63 232 210 232h33c146 0 210 -92 210 -232zM259 193v358c0 19 -3 30 -20 30c-15 0 -19 -11 -19 -30v-358c0 -19 6 -28 19 -28s20 9 20 28z" />
    <glyph glyph-name="one" unicode="1" horiz-adv-x="305" 
d="M92 495h-84v164c75 -1 107 32 110 85h171v-744h-197v495z" />
    <glyph glyph-name="two" unicode="2" horiz-adv-x="443" 
d="M211 603c-11 0 -17 -7 -17 -22v-86h-178v103c0 79 52 156 179 156h40c132 0 195 -66 195 -169v-36c0 -66 -6 -109 -64 -175l-71 -79c-104 -115 -105 -123 -105 -137h72v88h171v-246h-424v121c0 65 -1 95 108 244c24 35 44 60 63 85c36 51 49 70 49 97v34
c0 15 -6 22 -18 22z" />
    <glyph glyph-name="three" unicode="3" horiz-adv-x="441" 
d="M196 501h-179v97c0 88 58 156 182 156h29c127 0 193 -59 193 -155v-64c0 -61 -39 -93 -55 -104c32 -13 65 -50 65 -106v-155c0 -120 -80 -181 -201 -181h-30c-148 0 -191 86 -191 162v128h188v-101c0 -12 6 -18 18 -18s18 6 18 18v107c0 15 -5 19 -18 19h-91v171h85
c13 0 20 6 20 19v87c0 13 -6 20 -17 20s-16 -7 -16 -20v-80z" />
    <glyph glyph-name="four" unicode="4" horiz-adv-x="437" 
d="M9 136v154c43 112 118 320 166 459h183v-432h70v-181h-70v-136h-190v136h-159zM168 317v135l-46 -135h46z" />
    <glyph glyph-name="five" unicode="5" horiz-adv-x="445" 
d="M200 326h-183v418h396v-166h-217v-104c24 24 59 64 117 64h9c76 0 111 -67 111 -126v-252c0 -97 -73 -171 -195 -171h-39c-137 0 -187 73 -187 154v131h188v-100c0 -13 6 -19 17 -19s16 6 16 19v194c0 13 -5 20 -16 20s-17 -7 -17 -20v-42z" />
    <glyph glyph-name="six" unicode="6" horiz-adv-x="476" 
d="M343 489h9c72 0 113 -57 113 -125v-185c0 -111 -83 -190 -207 -190h-38c-136 0 -207 75 -207 190v390c0 91 62 184 207 184h29c145 0 202 -81 202 -181v-64h-200v62c0 15 -5 22 -16 22s-16 -7 -16 -22v-148c21 24 57 67 124 67zM240 156c16 0 19 10 19 25v134
c0 19 -3 29 -19 29c-14 0 -21 -10 -21 -29v-134c0 -15 5 -25 21 -25z" />
    <glyph glyph-name="seven" unicode="7" horiz-adv-x="412" 
d="M11 744h390v-143c-7 -52 -31 -139 -52 -254c-19 -96 -29 -173 -29 -248v-99h-234v83c0 67 1 121 54 245c88 213 98 229 98 256h-58v-91h-169v251z" />
    <glyph glyph-name="eight" unicode="8" horiz-adv-x="466" 
d="M450 582v-68c0 -63 -33 -95 -62 -114c41 -23 69 -57 69 -116v-105c0 -133 -87 -190 -209 -190h-30c-132 0 -209 59 -209 191v104c0 60 24 91 67 116c-32 20 -59 50 -59 114v68c0 99 57 171 201 171h30c145 0 202 -73 202 -171zM252 180v119c0 16 -3 26 -18 26
c-14 0 -21 -9 -21 -26v-119c0 -16 7 -24 21 -24c12 0 18 8 18 24zM252 481v94c0 16 -6 24 -18 24c-13 0 -21 -5 -21 -24v-94c0 -15 7 -23 21 -23c12 0 18 8 18 23z" />
    <glyph glyph-name="nine" unicode="9" horiz-adv-x="475" 
d="M145 253h-9c-79 0 -125 57 -125 142v162c0 100 51 196 198 196h43c137 0 210 -78 210 -195v-383c0 -90 -62 -186 -206 -186h-33c-147 0 -199 79 -199 167v78h201v-62c0 -15 5 -22 16 -22c10 0 15 7 15 22v147c-24 -29 -62 -66 -111 -66zM236 587c-16 0 -20 -13 -20 -26
v-134c0 -19 4 -29 20 -29c13 0 20 10 20 29v134c0 13 -4 26 -20 26z" />
    <glyph glyph-name="colon" unicode=":" horiz-adv-x="196" 
d="M181 180v-180h-166v180h166zM181 475v-180h-166v180h166z" />
    <glyph glyph-name="semicolon" unicode=";" horiz-adv-x="196" 
d="M145 -107h-94c13 31 25 76 28 107h-64v180h166v-136c0 -61 -21 -118 -36 -151zM181 475v-180h-166v180h166z" />
    <glyph glyph-name="less" unicode="&#x3c;" horiz-adv-x="302" 
d="M12 248v110l276 109v-124l-139 -41l139 -39v-125z" />
    <glyph glyph-name="equal" unicode="=" horiz-adv-x="347" 
d="M14 295h319v-103h-319v103zM14 414h319v-103h-319v103z" />
    <glyph glyph-name="greater" unicode="&#x3e;" horiz-adv-x="302" 
d="M14 343v124l277 -109v-110l-277 -110v125l139 39z" />
    <glyph glyph-name="question" unicode="?" horiz-adv-x="425" 
d="M264 206h-144v75c0 48 4 68 31 108l56 86c13 20 15 33 15 57v53c0 16 -3 26 -18 26c-16 0 -18 -11 -18 -27v-108h-176v112c0 80 30 165 178 165h44c130 0 183 -70 183 -161v-50c0 -65 -10 -99 -47 -144l-79 -97c-20 -25 -25 -35 -25 -66v-29zM275 180v-180h-167v180h167z
" />
    <glyph glyph-name="at" unicode="@" horiz-adv-x="718" 
d="M543 20l59 -64c-37 -48 -121 -101 -246 -101h-1c-127 0 -342 45 -342 389v95c0 238 136 394 353 394h1c187 0 338 -81 338 -324v-74c0 -244 -83 -297 -184 -297h-26c-60 0 -98 28 -115 69c-36 -49 -74 -69 -105 -69h-5c-63 0 -114 56 -109 135l13 252c4 77 46 117 95 117
h7c51 0 86 -31 109 -63l3 59h176l-22 -386c-1 -11 2 -21 14 -21c29 0 43 99 43 204v71c0 208 -113 239 -232 239h-1c-141 0 -243 -96 -243 -307v-94c0 -275 151 -299 232 -299h1c98 0 157 45 187 75zM367 169l14 239c1 16 -4 24 -15 24s-13 -9 -14 -24l-13 -238
c-1 -14 3 -21 13 -21c9 0 14 7 15 20z" />
    <glyph glyph-name="A" unicode="A" horiz-adv-x="450" 
d="M260 0l-9 92h-73l-9 -92h-172l97 744h251l108 -744h-193zM214 455l-19 -196h39z" />
    <glyph glyph-name="B" unicode="B" horiz-adv-x="477" 
d="M15 0v744h303c80 0 134 -43 134 -148v-63c0 -81 -56 -115 -77 -123c31 -10 94 -41 94 -138v-94c0 -117 -53 -178 -150 -178h-304zM236 322h-21v-175h21c19 0 23 10 23 30v115c0 20 -8 30 -23 30zM230 602h-15v-141h15c15 0 23 10 23 30v82c0 20 -3 29 -23 29z" />
    <glyph glyph-name="C" unicode="C" horiz-adv-x="468" 
d="M260 190v132h196v-139c0 -99 -57 -194 -199 -194h-33c-149 0 -211 80 -211 219v333c0 124 60 214 210 214h33c137 0 200 -73 200 -185v-119h-196v111c0 19 -3 30 -20 30c-16 0 -20 -9 -20 -30v-372c0 -21 4 -33 20 -33c17 0 20 13 20 33z" />
    <glyph glyph-name="D" unicode="D" horiz-adv-x="469" 
d="M15 0v744h286c85 0 154 -43 154 -169v-397c0 -127 -68 -178 -152 -178h-288zM210 585v-422h19c19 0 24 12 24 39v347c0 23 -5 36 -24 36h-19z" />
    <glyph glyph-name="E" unicode="E" horiz-adv-x="372" 
d="M15 744h342v-179h-147v-89h121v-183h-121v-112h152v-181h-347v744z" />
    <glyph glyph-name="F" unicode="F" horiz-adv-x="364" 
d="M15 0v744h338v-179h-143v-89h116v-183h-116v-293h-195z" />
    <glyph glyph-name="G" unicode="G" horiz-adv-x="481" 
d="M179 -11h-6c-110 0 -160 90 -160 194v367c0 111 55 205 212 205h29c161 0 206 -95 206 -185v-91h-193v85c0 19 -5 30 -24 30s-23 -11 -23 -30v-382c0 -25 10 -37 29 -37s29 12 29 37v114h-43v149h234v-445h-135c-3 14 -15 55 -20 66c-28 -39 -70 -77 -135 -77z" />
    <glyph glyph-name="H" unicode="H" horiz-adv-x="473" 
d="M215 285v-285h-200v744h200v-254h43v254h200v-744h-200v285h-43z" />
    <glyph glyph-name="I" unicode="I" horiz-adv-x="230" 
d="M215 744v-744h-200v744h200z" />
    <glyph glyph-name="J" unicode="J" horiz-adv-x="447" 
d="M11 338h182v-164c0 -13 6 -19 17 -19h1c11 0 16 6 16 19v570h205v-577c0 -103 -57 -178 -193 -178h-54c-128 0 -174 77 -174 170v179z" />
    <glyph glyph-name="K" unicode="K" horiz-adv-x="477" 
d="M215 272v-272h-200v744h200v-238l66 238h199l-95 -324l96 -420h-208z" />
    <glyph glyph-name="L" unicode="L" horiz-adv-x="353" 
d="M15 744h200v-559h128v-185h-328v744z" />
    <glyph glyph-name="M" unicode="M" horiz-adv-x="550" 
d="M15 0v744h232l31 -317l34 317h223v-744h-167v370l-60 -370h-69l-59 370v-370h-165z" />
    <glyph glyph-name="N" unicode="N" horiz-adv-x="474" 
d="M15 744h198l77 -338v338h168v-744h-180l-93 367v-367h-170v744z" />
    <glyph glyph-name="O" unicode="O" horiz-adv-x="486" 
d="M473 523v-309c0 -148 -87 -225 -212 -225h-35c-137 0 -213 80 -213 225v309c0 143 64 232 213 232h34c148 0 213 -92 213 -232zM267 196v351c0 23 -5 34 -24 34c-15 0 -23 -11 -23 -34v-351c0 -21 8 -31 23 -31c16 0 24 10 24 31z" />
    <glyph glyph-name="P" unicode="P" horiz-adv-x="459" 
d="M308 275h-95v-275h-199v744h292c82 0 143 -44 143 -154v-158c0 -104 -64 -157 -141 -157zM213 597v-168h14c19 0 23 9 23 30v109c0 19 -3 29 -23 29h-14z" />
    <glyph glyph-name="Q" unicode="Q" horiz-adv-x="487" 
d="M474 523v-309c0 -123 -57 -194 -149 -217l64 -152h-212v148c-105 19 -164 96 -164 221v309c0 143 64 232 213 232h34c149 0 214 -92 214 -232zM267 196v351c0 23 -5 34 -24 34c-15 0 -23 -11 -23 -34v-351c0 -21 8 -31 23 -31c16 0 24 10 24 31z" />
    <glyph glyph-name="R" unicode="R" horiz-adv-x="468" 
d="M215 602v-152h16c14 0 21 9 21 26v99c0 19 -3 27 -20 27h-17zM215 290v-290h-200v744h311c66 0 125 -41 125 -139v-74c0 -80 -38 -112 -71 -128c35 -13 73 -51 73 -106v-239c0 -23 3 -41 10 -53v-5h-197c-8 11 -14 29 -14 48v215c0 16 -2 27 -21 27h-16z" />
    <glyph glyph-name="S" unicode="S" horiz-adv-x="467" 
d="M214 755h47c143 0 189 -71 189 -159v-77h-193v66c0 17 -7 25 -20 25s-20 -8 -20 -25v-22c0 -24 6 -37 30 -54l95 -67c84 -59 117 -110 117 -209v-39c0 -119 -62 -205 -208 -205h-47c-131 0 -196 58 -196 175v103h196v-87c0 -19 4 -31 21 -31c16 0 21 12 21 33v27
c0 32 -3 46 -35 70l-95 67c-72 51 -102 112 -102 195v38c0 102 60 176 200 176z" />
    <glyph glyph-name="T" unicode="T" horiz-adv-x="399" 
d="M10 744h379v-179h-90v-565h-199v565h-90v179z" />
    <glyph glyph-name="U" unicode="U" horiz-adv-x="485" 
d="M15 181v563h206v-540c0 -20 7 -30 22 -30c14 0 21 10 21 30v540h206v-563c0 -101 -70 -194 -212 -194h-32c-154 0 -211 89 -211 194z" />
    <glyph glyph-name="V" unicode="V" horiz-adv-x="486" 
d="M115 0l-117 744h213l41 -436l41 436h195l-107 -744h-266z" />
    <glyph glyph-name="W" unicode="W" horiz-adv-x="690" 
d="M259 744h185l31 -423l26 423h191l-96 -744h-226l-25 365l-23 -365h-228l-96 744h204l25 -423z" />
    <glyph glyph-name="X" unicode="X" horiz-adv-x="463" 
d="M80 397l-79 347h204l29 -212l27 212h190l-73 -347l88 -397h-200l-36 243l-39 -243h-194z" />
    <glyph glyph-name="Y" unicode="Y" horiz-adv-x="437" 
d="M442 744l-119 -476v-268h-199v268l-129 476h198l36 -223l33 223h180z" />
    <glyph glyph-name="Z" unicode="Z" horiz-adv-x="404" 
d="M15 744h372v-163l-159 -401h166v-180h-384v163l154 403h-149v178z" />
    <glyph glyph-name="bracketleft" unicode="[" horiz-adv-x="229" 
d="M221 808v-130h-55v-681h55v-130h-206v941h206z" />
    <glyph glyph-name="backslash" unicode="\" horiz-adv-x="258" 
d="M143 -131l-148 939h130l147 -939h-129z" />
    <glyph glyph-name="bracketright" unicode="]" horiz-adv-x="230" 
d="M8 -133v130h55v681h-55v130h207v-941h-207z" />
    <glyph glyph-name="asciicircum" unicode="^" horiz-adv-x="300" 
d="M239 744l59 -325h-129l-20 176l-19 -176h-128l59 325h178z" />
    <glyph glyph-name="underscore" unicode="_" horiz-adv-x="433" 
d="M4 -141v120h425v-120h-425z" />
    <glyph glyph-name="grave" unicode="`" 
d="M221 715l51 -157h-147l-56 157h152z" />
    <glyph glyph-name="a" unicode="a" horiz-adv-x="440" 
d="M223 139v113c-7 -3 -15 -9 -22 -17c-7 -9 -9 -17 -9 -37v-60c0 -11 3 -20 16 -20c12 0 15 10 15 21zM8 105v93c0 63 29 98 80 121c31 13 106 39 122 47c11 5 13 6 13 19v28c0 12 -5 18 -16 18h-2c-11 0 -17 -6 -17 -18v-46h-173v46c0 95 71 137 180 137h22
c121 0 194 -37 194 -136v-255c0 -7 4 -10 11 -10h14v-149h-165c-29 0 -46 26 -46 61c-18 -29 -57 -69 -116 -69h-3c-64 0 -98 53 -98 113z" />
    <glyph glyph-name="b" unicode="b" horiz-adv-x="454" 
d="M13 744h195v-275c28 37 66 73 122 73h6c71 0 106 -59 106 -133v-277c0 -72 -50 -143 -119 -143h-3c-60 0 -93 33 -129 81c-4 -16 -10 -53 -11 -70h-167v744zM208 384v-238c0 -12 2 -26 17 -26s20 12 20 25v240c0 13 -3 24 -19 24s-18 -13 -18 -25z" />
    <glyph glyph-name="c" unicode="c" horiz-adv-x="419" 
d="M236 242h173v-100c0 -93 -66 -155 -173 -155h-40c-109 0 -185 52 -185 176v206c0 96 48 182 184 182h42c127 0 172 -67 172 -159v-72h-173v81c0 13 -5 20 -16 20c-9 0 -14 -7 -14 -20v-257c0 -14 5 -21 14 -21c11 0 16 7 16 21v98z" />
    <glyph glyph-name="d" unicode="d" horiz-adv-x="455" 
d="M248 744h194v-744h-192v60c-27 -32 -64 -71 -117 -71h-5c-69 0 -116 66 -116 144v275c0 77 42 136 106 136h6c59 0 95 -36 124 -69v269zM248 149v229c0 16 -4 29 -19 29c-17 0 -20 -12 -20 -27v-232c0 -15 3 -27 20 -27c15 0 19 13 19 28z" />
    <glyph glyph-name="e" unicode="e" horiz-adv-x="431" 
d="M201 551h37c104 0 183 -49 183 -185v-117h-220v-108c0 -20 6 -26 18 -26c16 0 19 10 19 26v72h183v-49c0 -113 -70 -177 -183 -177h-37c-120 0 -190 56 -190 184v192c0 117 62 188 190 188zM201 406v-55h37v55c0 23 -2 31 -19 31c-15 0 -18 -8 -18 -31z" />
    <glyph glyph-name="f" unicode="f" horiz-adv-x="331" 
d="M322 744v-146h-43c-15 0 -18 -6 -18 -18v-42h61v-153h-61v-385h-194v385h-61v153h61v103c0 71 53 103 102 103h153z" />
    <glyph glyph-name="g" unicode="g" horiz-adv-x="455" 
d="M248 -44v102c-18 -20 -58 -67 -116 -67c-69 0 -120 50 -120 135v285c0 67 37 133 110 133h7c57 0 94 -42 121 -71v65h192v-577c0 -100 -69 -157 -190 -157h-46c-133 0 -185 57 -185 126v52h190v-26c0 -13 6 -20 19 -20c12 0 18 7 18 20zM248 144v238c0 15 -4 26 -19 26
c-17 0 -19 -13 -19 -25v-239c0 -15 2 -27 19 -27c15 0 19 14 19 27z" />
    <glyph glyph-name="h" unicode="h" horiz-adv-x="458" 
d="M13 0v744h195v-275c27 38 66 77 125 77h8c80 0 104 -70 104 -110v-436h-197v375c0 13 -4 26 -21 26c-16 0 -19 -12 -19 -27v-374h-195z" />
    <glyph glyph-name="i" unicode="i" horiz-adv-x="221" 
d="M208 538v-538h-195v538h195zM208 715v-157h-195v157h195z" />
    <glyph glyph-name="j" unicode="j" horiz-adv-x="221" 
d="M208 715v-157h-195v157h195zM-41 -24h38c11 0 16 3 16 18v544h195v-636c0 -61 -41 -90 -85 -90h-164v164z" />
    <glyph glyph-name="k" unicode="k" horiz-adv-x="440" 
d="M208 374l45 164h181l-71 -220l80 -318h-186l-49 206v-206h-195v744h195v-370z" />
    <glyph glyph-name="l" unicode="l" horiz-adv-x="221" 
d="M208 744v-744h-195v744h195z" />
    <glyph glyph-name="m" unicode="m" horiz-adv-x="685" 
d="M13 0v538h193v-71c22 33 63 79 121 79h8c58 0 88 -41 99 -77c27 35 66 77 127 77h8c83 0 103 -76 103 -112v-434h-197v375c0 15 -2 25 -18 25c-12 0 -16 -9 -17 -20v-380h-197v375c0 15 -2 25 -18 25c-15 0 -17 -12 -17 -25v-375h-195z" />
    <glyph glyph-name="n" unicode="n" horiz-adv-x="458" 
d="M13 0v538h193v-71c29 39 69 79 127 79h8c83 0 104 -71 104 -111v-435h-197v375c0 13 -4 26 -21 26c-16 0 -19 -12 -19 -27v-374h-195z" />
    <glyph glyph-name="o" unicode="o" horiz-adv-x="455" 
d="M11 194v150c0 140 71 207 200 207h33c133 0 200 -69 200 -207v-149c0 -143 -77 -208 -201 -208h-33c-136 0 -199 66 -199 207zM207 379v-218c0 -20 7 -30 20 -30c16 0 21 10 21 30v218c0 17 -4 31 -21 31s-20 -14 -20 -31z" />
    <glyph glyph-name="p" unicode="p" horiz-adv-x="454" 
d="M13 538h193v-73c45 63 82 81 126 81h5c72 0 105 -58 105 -146v-273c0 -80 -53 -138 -116 -138h-3c-45 0 -80 19 -115 66v-243h-195v726zM208 387v-243c0 -12 2 -26 18 -26s19 14 19 26v243c0 15 -4 26 -19 26c-16 0 -18 -11 -18 -26z" />
    <glyph glyph-name="q" unicode="q" horiz-adv-x="455" 
d="M293 538h149v-726h-194v247c-33 -43 -69 -70 -116 -70h-5c-60 0 -115 59 -115 139v265c0 96 45 154 126 154h7c64 0 99 -41 131 -81c6 11 17 54 17 72zM248 153v235c0 13 -2 29 -21 29c-13 0 -17 -12 -17 -25v-248c0 -15 2 -27 19 -27c15 0 19 13 19 36z" />
    <glyph glyph-name="r" unicode="r" horiz-adv-x="414" 
d="M206 538v-72c16 27 51 76 107 76h12c53 0 80 -38 80 -81v-194h-170v121c0 12 -5 18 -14 18s-13 -6 -13 -18v-388h-195v538h193z" />
    <glyph glyph-name="s" unicode="s" horiz-adv-x="402" 
d="M386 429v-50h-167v42c0 13 -3 20 -15 20c-11 0 -17 -7 -17 -20v-18c0 -15 3 -20 22 -31l89 -48c79 -43 98 -93 98 -160v-18c0 -107 -68 -159 -177 -159h-47c-100 0 -166 38 -166 137v61h172v-53c0 -14 6 -21 17 -21h1c11 0 16 7 16 21v20c0 20 -7 30 -24 39l-84 45
c-78 43 -93 96 -93 151v19c0 96 58 145 170 145h44c97 0 161 -30 161 -122z" />
    <glyph glyph-name="t" unicode="t" horiz-adv-x="328" 
d="M318 0h-183c-31 0 -68 21 -68 77v308h-60v153h60v179h195v-179h56v-153h-56v-211c0 -13 2 -18 17 -18h39v-156z" />
    <glyph glyph-name="u" unicode="u" horiz-adv-x="456" 
d="M442 538v-538h-192v72c-29 -40 -69 -78 -129 -78h-6c-77 0 -102 69 -102 109v435h197v-376c0 -13 5 -25 20 -25s18 11 18 26v375h194z" />
    <glyph glyph-name="v" unicode="v" horiz-adv-x="428" 
d="M89 0l-91 538h194l24 -303l24 303h190l-91 -538h-250z" />
    <glyph glyph-name="w" unicode="w" horiz-adv-x="642" 
d="M299 0h-212l-89 538h192l22 -306l25 306h173l24 -306l23 306h187l-88 -538h-210l-24 246z" />
    <glyph glyph-name="x" unicode="x" horiz-adv-x="426" 
d="M77 289l-75 249h189l24 -141l21 141h187l-74 -244l79 -294h-191l-26 151l-28 -151h-185z" />
    <glyph glyph-name="y" unicode="y" horiz-adv-x="427" 
d="M110 36l-113 502h194l29 -272l20 272h190l-133 -643c-16 -68 -58 -83 -90 -83h-167v155h61c13 0 16 4 17 17v4c0 8 -1 21 -8 48z" />
    <glyph glyph-name="z" unicode="z" horiz-adv-x="353" 
d="M13 538h327v-137l-117 -244h121v-157h-336v136l123 254h-118v148z" />
    <glyph glyph-name="braceleft" unicode="{" horiz-adv-x="246" 
d="M205 252c0 -53 -31 -159 -31 -208c0 -28 11 -53 46 -53h18v-122h-83c-79 0 -126 35 -126 114c0 47 32 190 32 253c0 30 -14 45 -41 45h-12v120h20c27 0 33 16 33 41c0 74 -32 180 -32 246c0 77 45 120 126 120h83v-123h-28c-24 0 -36 -11 -36 -32c0 -43 31 -162 31 -209
c0 -56 -19 -88 -70 -103c51 -15 70 -42 70 -89z" />
    <glyph glyph-name="bar" unicode="|" horiz-adv-x="220" 
d="M171 808v-939h-123v939h123z" />
    <glyph glyph-name="braceright" unicode="}" horiz-adv-x="246" 
d="M42 444c0 47 30 166 30 209c0 21 -12 32 -36 32h-28v123h82c84 0 128 -43 128 -120c0 -66 -32 -172 -32 -246c0 -25 5 -41 33 -41h19v-120h-12c-27 0 -40 -15 -40 -45c0 -63 32 -206 32 -253c0 -79 -48 -114 -128 -114h-82v122h19c35 0 45 25 45 53c0 49 -30 155 -30 208
c0 47 19 74 70 89c-51 15 -70 47 -70 103z" />
    <glyph glyph-name="asciitilde" unicode="~" horiz-adv-x="326" 
d="M156 331c-15 13 -18 18 -25 18c-5 0 -7 -3 -7 -10v-44h-118v104c0 68 32 112 84 112c33 0 52 -10 79 -34c12 -11 18 -17 25 -17c5 0 8 4 8 13v42h118v-123c0 -59 -36 -94 -83 -94c-39 0 -56 10 -81 33z" />
    <glyph glyph-name="Adieresis" unicode="&#xc4;" horiz-adv-x="450" 
d="M260 0l-9 92h-73l-9 -92h-172l97 744h251l108 -744h-193zM214 455l-19 -196h39zM367 895v-131h-138v131h138zM207 895v-131h-138v131h138z" />
    <glyph glyph-name="Aring" unicode="&#xc5;" horiz-adv-x="450" 
d="M260 0l-9 92h-73l-9 -92h-172l97 744h251l108 -744h-193zM214 455l-19 -196h39zM181 847c0 -23 16 -37 37 -36c21 -1 37 13 37 36c0 21 -16 36 -37 36s-37 -15 -37 -36zM218 935c53 0 93 -35 93 -87c0 -53 -40 -89 -93 -89s-93 36 -93 89c0 52 40 87 93 87z" />
    <glyph glyph-name="Ccedilla" unicode="&#xc7;" horiz-adv-x="468" 
d="M260 190v132h196v-139c0 -99 -57 -194 -199 -194h-33c-149 0 -211 80 -211 219v333c0 124 60 214 210 214h33c137 0 200 -73 200 -185v-119h-196v111c0 19 -3 30 -20 30c-16 0 -20 -9 -20 -30v-372c0 -21 4 -33 20 -33c17 0 20 13 20 33zM243 -202h-91v76h66
c13 0 20 5 20 14v1c0 9 -7 13 -20 13h-51v98h77v-33h8c64 0 98 -31 98 -79v-3c0 -55 -39 -87 -107 -87z" />
    <glyph glyph-name="Eacute" unicode="&#xc9;" horiz-adv-x="372" 
d="M15 744h342v-179h-147v-89h121v-183h-121v-112h152v-181h-347v744zM113 764l51 131h155l-55 -131h-151z" />
    <glyph glyph-name="Ntilde" unicode="&#xd1;" horiz-adv-x="474" 
d="M15 744h198l77 -338v338h168v-744h-180l-93 367v-367h-170v744zM247 783c-19 7 -28 11 -35 11c-5 0 -8 -4 -8 -12v-20h-98v69c0 41 21 71 65 71h3c24 0 42 -8 73 -19c19 -7 28 -11 35 -11c5 0 8 4 8 12v21h98v-65c0 -40 -20 -74 -64 -74h-5c-21 0 -41 6 -72 17z" />
    <glyph glyph-name="Odieresis" unicode="&#xd6;" horiz-adv-x="486" 
d="M473 523v-309c0 -148 -87 -225 -212 -225h-35c-137 0 -213 80 -213 225v309c0 143 64 232 213 232h34c148 0 213 -92 213 -232zM267 196v351c0 23 -5 34 -24 34c-15 0 -23 -11 -23 -34v-351c0 -21 8 -31 23 -31c16 0 24 10 24 31zM393 895v-131h-138v131h138zM233 895
v-131h-138v131h138z" />
    <glyph glyph-name="Udieresis" unicode="&#xdc;" horiz-adv-x="485" 
d="M15 181v563h206v-540c0 -20 7 -30 22 -30c14 0 21 10 21 30v540h206v-563c0 -101 -70 -194 -212 -194h-32c-154 0 -211 89 -211 194zM391 895v-131h-138v131h138zM231 895v-131h-138v131h138z" />
    <glyph glyph-name="aacute" unicode="&#xe1;" horiz-adv-x="440" 
d="M223 139v113c-7 -3 -15 -9 -22 -17c-7 -9 -9 -17 -9 -37v-60c0 -11 3 -20 16 -20c12 0 15 10 15 21zM8 105v93c0 63 29 98 80 121c31 13 106 39 122 47c11 5 13 6 13 19v28c0 12 -5 18 -16 18h-2c-11 0 -17 -6 -17 -18v-46h-173v46c0 95 71 137 180 137h22
c121 0 194 -37 194 -136v-255c0 -7 4 -10 11 -10h14v-149h-165c-29 0 -46 26 -46 61c-18 -29 -57 -69 -116 -69h-3c-64 0 -98 53 -98 113zM135 558l52 157h152l-57 -157h-147z" />
    <glyph glyph-name="agrave" unicode="&#xe0;" horiz-adv-x="440" 
d="M223 139v113c-7 -3 -15 -9 -22 -17c-7 -9 -9 -17 -9 -37v-60c0 -11 3 -20 16 -20c12 0 15 10 15 21zM8 105v93c0 63 29 98 80 121c31 13 106 39 122 47c11 5 13 6 13 19v28c0 12 -5 18 -16 18h-2c-11 0 -17 -6 -17 -18v-46h-173v46c0 95 71 137 180 137h22
c121 0 194 -37 194 -136v-255c0 -7 4 -10 11 -10h14v-149h-165c-29 0 -46 26 -46 61c-18 -29 -57 -69 -116 -69h-3c-64 0 -98 53 -98 113zM231 715l51 -157h-147l-56 157h152z" />
    <glyph glyph-name="acircumflex" unicode="&#xe2;" horiz-adv-x="440" 
d="M223 139v113c-7 -3 -15 -9 -22 -17c-7 -9 -9 -17 -9 -37v-60c0 -11 3 -20 16 -20c12 0 15 10 15 21zM8 105v93c0 63 29 98 80 121c31 13 106 39 122 47c11 5 13 6 13 19v28c0 12 -5 18 -16 18h-2c-11 0 -17 -6 -17 -18v-46h-173v46c0 95 71 137 180 137h22
c121 0 194 -37 194 -136v-255c0 -7 4 -10 11 -10h14v-149h-165c-29 0 -46 26 -46 61c-18 -29 -57 -69 -116 -69h-3c-64 0 -98 53 -98 113zM286 715l75 -157h-129l-25 67l-24 -67h-127l74 157h156z" />
    <glyph glyph-name="adieresis" unicode="&#xe4;" horiz-adv-x="440" 
d="M223 139v113c-7 -3 -15 -9 -22 -17c-7 -9 -9 -17 -9 -37v-60c0 -11 3 -20 16 -20c12 0 15 10 15 21zM8 105v93c0 63 29 98 80 121c31 13 106 39 122 47c11 5 13 6 13 19v28c0 12 -5 18 -16 18h-2c-11 0 -17 -6 -17 -18v-46h-173v46c0 95 71 137 180 137h22
c121 0 194 -37 194 -136v-255c0 -7 4 -10 11 -10h14v-149h-165c-29 0 -46 26 -46 61c-18 -29 -57 -69 -116 -69h-3c-64 0 -98 53 -98 113zM197 697v-133h-138v133h138zM357 697v-133h-138v133h138z" />
    <glyph glyph-name="atilde" unicode="&#xe3;" horiz-adv-x="440" 
d="M223 139v113c-7 -3 -15 -9 -22 -17c-7 -9 -9 -17 -9 -37v-60c0 -11 3 -20 16 -20c12 0 15 10 15 21zM8 105v93c0 63 29 98 80 121c31 13 106 39 122 47c11 5 13 6 13 19v28c0 12 -5 18 -16 18h-2c-11 0 -17 -6 -17 -18v-46h-173v46c0 95 71 137 180 137h22
c121 0 194 -37 194 -136v-255c0 -7 4 -10 11 -10h14v-149h-165c-29 0 -46 26 -46 61c-18 -29 -57 -69 -116 -69h-3c-64 0 -98 53 -98 113zM250 714h100v-78c0 -40 -21 -71 -69 -71h-4c-19 0 -39 5 -67 20c-15 8 -25 15 -32 15c-5 0 -7 -4 -7 -12v-26h-101v78
c0 40 22 71 70 71h3c19 0 35 -4 66 -19c15 -7 27 -16 34 -16c5 0 7 4 7 12v26z" />
    <glyph glyph-name="aring" unicode="&#xe5;" horiz-adv-x="440" 
d="M223 139v113c-7 -3 -15 -9 -22 -17c-7 -9 -9 -17 -9 -37v-60c0 -11 3 -20 16 -20c12 0 15 10 15 21zM8 105v93c0 63 29 98 80 121c31 13 106 39 122 47c11 5 13 6 13 19v28c0 12 -5 18 -16 18h-2c-11 0 -17 -6 -17 -18v-46h-173v46c0 95 71 137 180 137h22
c121 0 194 -37 194 -136v-255c0 -7 4 -10 11 -10h14v-149h-165c-29 0 -46 26 -46 61c-18 -29 -57 -69 -116 -69h-3c-64 0 -98 53 -98 113zM208 614c21 -1 37 13 37 36c0 21 -16 36 -37 36s-37 -15 -37 -36c0 -23 16 -37 37 -36zM208 562c-53 0 -93 36 -93 89
c0 52 40 87 93 87s93 -35 93 -87c0 -53 -40 -89 -93 -89z" />
    <glyph glyph-name="ccedilla" unicode="&#xe7;" horiz-adv-x="419" 
d="M236 242h173v-100c0 -93 -66 -155 -173 -155h-40c-109 0 -185 52 -185 176v206c0 96 48 182 184 182h42c127 0 172 -67 172 -159v-72h-173v81c0 13 -5 20 -16 20c-9 0 -14 -7 -14 -20v-257c0 -14 5 -21 14 -21c11 0 16 7 16 21v98zM219 -202h-91v76h66c13 0 20 5 20 14v1
c0 9 -7 13 -20 13h-51v98h77v-33h8c64 0 98 -31 98 -79v-3c0 -55 -39 -87 -107 -87z" />
    <glyph glyph-name="eacute" unicode="&#xe9;" horiz-adv-x="431" 
d="M201 551h37c104 0 183 -49 183 -185v-117h-220v-108c0 -20 6 -26 18 -26c16 0 19 10 19 26v72h183v-49c0 -113 -70 -177 -183 -177h-37c-120 0 -190 56 -190 184v192c0 117 62 188 190 188zM201 406v-55h37v55c0 23 -2 31 -19 31c-15 0 -18 -8 -18 -31zM144 558l52 157
h152l-57 -157h-147z" />
    <glyph glyph-name="egrave" unicode="&#xe8;" horiz-adv-x="431" 
d="M201 551h37c104 0 183 -49 183 -185v-117h-220v-108c0 -20 6 -26 18 -26c16 0 19 10 19 26v72h183v-49c0 -113 -70 -177 -183 -177h-37c-120 0 -190 56 -190 184v192c0 117 62 188 190 188zM201 406v-55h37v55c0 23 -2 31 -19 31c-15 0 -18 -8 -18 -31zM240 715l51 -157
h-147l-56 157h152z" />
    <glyph glyph-name="ecircumflex" unicode="&#xea;" horiz-adv-x="431" 
d="M201 551h37c104 0 183 -49 183 -185v-117h-220v-108c0 -20 6 -26 18 -26c16 0 19 10 19 26v72h183v-49c0 -113 -70 -177 -183 -177h-37c-120 0 -190 56 -190 184v192c0 117 62 188 190 188zM201 406v-55h37v55c0 23 -2 31 -19 31c-15 0 -18 -8 -18 -31zM294 715l75 -157
h-129l-25 67l-24 -67h-127l74 157h156z" />
    <glyph glyph-name="edieresis" unicode="&#xeb;" horiz-adv-x="431" 
d="M201 551h37c104 0 183 -49 183 -185v-117h-220v-108c0 -20 6 -26 18 -26c16 0 19 10 19 26v72h183v-49c0 -113 -70 -177 -183 -177h-37c-120 0 -190 56 -190 184v192c0 117 62 188 190 188zM201 406v-55h37v55c0 23 -2 31 -19 31c-15 0 -18 -8 -18 -31zM206 698v-133
h-138v133h138zM366 698v-133h-138v133h138z" />
    <glyph glyph-name="iacute" unicode="&#xed;" horiz-adv-x="221" 
d="M208 538v-538h-195v538h195zM39 558l52 157h152l-57 -157h-147z" />
    <glyph glyph-name="igrave" unicode="&#xec;" horiz-adv-x="221" 
d="M208 538v-538h-195v538h195zM136 715l51 -157h-147l-56 157h152z" />
    <glyph glyph-name="icircumflex" unicode="&#xee;" horiz-adv-x="221" 
d="M188 715l52 -157h-111l-20 72l-19 -72h-109l51 157h156zM208 538v-538h-195v538h195z" />
    <glyph glyph-name="idieresis" unicode="&#xef;" horiz-adv-x="221" 
d="M103 693v-135h-120v135h120zM238 693v-135h-120v135h120zM208 538v-538h-195v538h195z" />
    <glyph glyph-name="ntilde" unicode="&#xf1;" horiz-adv-x="458" 
d="M13 0v538h193v-71c29 39 69 79 127 79h8c83 0 104 -71 104 -111v-435h-197v375c0 13 -4 26 -21 26c-16 0 -19 -12 -19 -27v-374h-195zM267 708h100v-78c0 -40 -21 -71 -69 -71h-4c-19 0 -39 5 -67 20c-15 8 -25 15 -32 15c-5 0 -7 -4 -7 -12v-26h-101v78
c0 40 22 71 70 71h3c19 0 35 -4 66 -19c15 -7 27 -16 34 -16c5 0 7 4 7 12v26z" />
    <glyph glyph-name="oacute" unicode="&#xf3;" horiz-adv-x="455" 
d="M11 194v150c0 140 71 207 200 207h33c133 0 200 -69 200 -207v-149c0 -143 -77 -208 -201 -208h-33c-136 0 -199 66 -199 207zM207 379v-218c0 -20 7 -30 20 -30c16 0 21 10 21 30v218c0 17 -4 31 -21 31s-20 -14 -20 -31zM155 558l52 157h152l-57 -157h-147z" />
    <glyph glyph-name="ograve" unicode="&#xf2;" horiz-adv-x="455" 
d="M11 194v150c0 140 71 207 200 207h33c133 0 200 -69 200 -207v-149c0 -143 -77 -208 -201 -208h-33c-136 0 -199 66 -199 207zM207 379v-218c0 -20 7 -30 20 -30c16 0 21 10 21 30v218c0 17 -4 31 -21 31s-20 -14 -20 -31zM252 722l51 -157h-147l-56 157h152z" />
    <glyph glyph-name="ocircumflex" unicode="&#xf4;" horiz-adv-x="455" 
d="M11 194v150c0 140 71 207 200 207h33c133 0 200 -69 200 -207v-149c0 -143 -77 -208 -201 -208h-33c-136 0 -199 66 -199 207zM207 379v-218c0 -20 7 -30 20 -30c16 0 21 10 21 30v218c0 17 -4 31 -21 31s-20 -14 -20 -31zM305 715l75 -157h-129l-25 67l-24 -67h-127
l74 157h156z" />
    <glyph glyph-name="odieresis" unicode="&#xf6;" horiz-adv-x="455" 
d="M11 194v150c0 140 71 207 200 207h33c133 0 200 -69 200 -207v-149c0 -143 -77 -208 -201 -208h-33c-136 0 -199 66 -199 207zM207 379v-218c0 -20 7 -30 20 -30c16 0 21 10 21 30v218c0 17 -4 31 -21 31s-20 -14 -20 -31zM216 698v-133h-138v133h138zM376 698v-133h-138
v133h138z" />
    <glyph glyph-name="otilde" unicode="&#xf5;" horiz-adv-x="455" 
d="M11 194v150c0 140 71 207 200 207h33c133 0 200 -69 200 -207v-149c0 -143 -77 -208 -201 -208h-33c-136 0 -199 66 -199 207zM207 379v-218c0 -20 7 -30 20 -30c16 0 21 10 21 30v218c0 17 -4 31 -21 31s-20 -14 -20 -31zM266 715h100v-78c0 -40 -21 -71 -69 -71h-4
c-19 0 -39 5 -67 20c-15 8 -25 15 -32 15c-5 0 -7 -4 -7 -12v-26h-101v78c0 40 22 71 70 71h3c19 0 35 -4 66 -19c15 -7 27 -16 34 -16c5 0 7 4 7 12v26z" />
    <glyph glyph-name="uacute" unicode="&#xfa;" horiz-adv-x="456" 
d="M442 538v-538h-192v72c-29 -40 -69 -78 -129 -78h-6c-77 0 -102 69 -102 109v435h197v-376c0 -13 5 -25 20 -25s18 11 18 26v375h194zM154 558l52 157h152l-57 -157h-147z" />
    <glyph glyph-name="ugrave" unicode="&#xf9;" horiz-adv-x="456" 
d="M442 538v-538h-192v72c-29 -40 -69 -78 -129 -78h-6c-77 0 -102 69 -102 109v435h197v-376c0 -13 5 -25 20 -25s18 11 18 26v375h194zM252 715l51 -157h-147l-56 157h152z" />
    <glyph glyph-name="ucircumflex" unicode="&#xfb;" horiz-adv-x="456" 
d="M442 538v-538h-192v72c-29 -40 -69 -78 -129 -78h-6c-77 0 -102 69 -102 109v435h197v-376c0 -13 5 -25 20 -25s18 11 18 26v375h194zM306 715l75 -157h-129l-25 67l-24 -67h-127l74 157h156z" />
    <glyph glyph-name="udieresis" unicode="&#xfc;" horiz-adv-x="456" 
d="M442 538v-538h-192v72c-29 -40 -69 -78 -129 -78h-6c-77 0 -102 69 -102 109v435h197v-376c0 -13 5 -25 20 -25s18 11 18 26v375h194zM218 691v-133h-138v133h138zM378 691v-133h-138v133h138z" />
    <glyph glyph-name="dagger" unicode="&#x2020;" horiz-adv-x="337" 
d="M73 0v447h-63v155h63v142h191v-142h63v-155h-63v-447h-191z" />
    <glyph glyph-name="degree" unicode="&#xb0;" horiz-adv-x="226" 
d="M7 647c0 57 43 102 107 102c61 0 105 -45 105 -102c0 -56 -44 -101 -105 -101c-64 0 -107 45 -107 101zM76 647c0 -21 13 -37 36 -37s37 16 37 37c0 23 -14 38 -37 38s-36 -15 -36 -38z" />
    <glyph glyph-name="cent" unicode="&#xa2;" horiz-adv-x="421" 
d="M412 241v-100c0 -95 -67 -154 -170 -154h-5v-63h-33v63h-14c-104 0 -179 51 -179 174v212c0 97 51 178 179 178h14v65h33v-65h7c123 0 168 -65 168 -153v-78h-155v72c0 20 -7 32 -20 36v-309c15 5 20 18 20 37v85h155zM185 392v-236c0 -21 6 -34 19 -37v309
c-13 -3 -19 -15 -19 -36z" />
    <glyph glyph-name="sterling" unicode="&#xa3;" horiz-adv-x="506" 
d="M269 281v-5c0 -57 -19 -98 -40 -121h91v96h173v-251h-480v152h23c26 3 57 22 57 74v7c0 15 -1 31 -2 48h-78v149h63c-4 40 -7 77 -7 108v30c0 109 52 187 207 187h18c147 0 187 -79 187 -169v-129h-175v118c0 18 -7 27 -20 27c-14 0 -21 -9 -21 -27v-6
c0 -29 1 -80 2 -139h135v-149h-133z" />
    <glyph glyph-name="section" unicode="&#xa7;" horiz-adv-x="491" 
d="M485 291v-20c0 -69 -38 -103 -90 -122c38 -30 55 -63 55 -134v-28c0 -119 -68 -183 -197 -183h-40c-127 0 -180 50 -180 170v73h184v-80c0 -15 6 -23 19 -23s19 8 19 24v35c0 23 -4 37 -24 50l-123 72c-79 45 -102 80 -102 156v19c0 67 39 101 90 120
c-39 42 -56 77 -56 146v23c0 95 57 166 187 166h51c102 0 176 -41 176 -154v-79h-184v68c0 19 -3 25 -18 25c-11 0 -16 -8 -16 -25v-38c0 -23 4 -30 23 -42c1 0 131 -82 134 -83c59 -37 92 -68 92 -136zM285 278l-106 71c-4 -4 -6 -10 -6 -17v-3c0 -16 5 -25 28 -40l105 -68
c3 1 5 6 5 15v4c0 17 -6 25 -26 38z" />
    <glyph glyph-name="bullet" unicode="&#x2022;" horiz-adv-x="298" 
d="M149 190c-83 0 -142 58 -142 140c0 80 59 139 142 139s142 -59 142 -139c0 -82 -59 -140 -142 -140z" />
    <glyph glyph-name="paragraph" unicode="&#xb6;" horiz-adv-x="476" 
d="M151 744h317v-127h-42v-617h-118v617h-32v-617h-120v344h-6c-65 0 -140 39 -140 150v95c0 108 60 155 141 155z" />
    <glyph glyph-name="germandbls" unicode="&#xdf;" horiz-adv-x="460" 
d="M366 444c43 -13 86 -52 86 -118v-188c0 -84 -52 -138 -128 -138h-101v147h11c9 0 13 5 13 16v149c0 11 -2 17 -15 17h-9v146h9c8 0 15 4 15 15v92c0 17 -6 26 -18 26h-4c-11 0 -17 -9 -17 -26v-582h-195v578c0 96 54 176 188 176h50c132 0 186 -70 186 -147v-44
c0 -66 -42 -106 -71 -119z" />
    <glyph glyph-name="registered" unicode="&#xae;" horiz-adv-x="330" 
d="M171 388h-11c-92 0 -151 48 -151 152v59c0 100 56 151 151 151h13c92 0 148 -51 148 -148v-62c0 -101 -67 -152 -150 -152zM160 430h11c66 0 99 37 99 111v60c0 71 -30 108 -97 107h-13c-69 1 -100 -30 -100 -110v-57c0 -76 29 -111 100 -111zM159 548v-86h-69v220h103
c33 0 49 -14 49 -41v-21c0 -21 -8 -34 -23 -40c16 -5 24 -16 24 -31v-68c0 -7 1 -12 4 -15v-4h-67c-4 5 -6 11 -6 16v58c0 8 -3 12 -9 12h-6zM159 638v-41h6c6 0 9 4 9 11v20c0 7 -3 10 -9 10h-6z" />
    <glyph glyph-name="copyright" unicode="&#xa9;" horiz-adv-x="601" 
d="M307 -11h-10c-173 0 -284 81 -284 280v208c0 185 113 278 285 278h12c165 0 278 -86 278 -278v-208c0 -197 -129 -280 -281 -280zM299 64h8c128 0 192 75 192 226v164c0 151 -61 226 -190 226h-10c-127 0 -195 -66 -195 -226v-164c0 -153 64 -226 195 -226zM306 226
c11 0 13 9 13 24v89h141v-95c0 -69 -45 -134 -145 -134h-15c-107 0 -158 56 -158 152v225c0 88 50 149 154 149h20c93 0 144 -49 144 -129v-77h-141v72c0 13 -2 20 -13 20c-8 0 -12 -7 -12 -20v-252c0 -15 3 -24 12 -24z" />
    <glyph glyph-name="trademark" unicode="&#x2122;" horiz-adv-x="435" 
d="M182 456v288h111l13 -118l11 118h105v-288h-78v154l-24 -154h-38l-22 154v-154h-78zM171 744v-81h-31v-207h-101v207h-32v81h164z" />
    <glyph glyph-name="acute" unicode="&#xb4;" 
d="M69 558l52 157h152l-57 -157h-147z" />
    <glyph glyph-name="dieresis" unicode="&#xa8;" 
d="M160 691v-133h-138v133h138zM320 691v-133h-138v133h138z" />
    <glyph glyph-name="AE" unicode="&#xc6;" horiz-adv-x="593" 
d="M583 0h-322v102h-62l-14 -102h-191l140 744h444v-179h-121v-89h95v-183h-95v-112h126v-181zM223 269h38v259z" />
    <glyph glyph-name="Oslash" unicode="&#xd8;" horiz-adv-x="480" 
d="M467 524v-310c0 -148 -86 -225 -213 -225h-28c-51 0 -93 12 -122 35l-13 -24h-92l44 87c-19 33 -30 74 -30 127v309c0 143 64 232 213 232h28c51 0 89 -12 118 -32l11 21h93l-41 -81c20 -35 32 -79 32 -139zM240 163c17 0 26 11 26 33v164l-51 -123v-41
c0 -22 8 -33 25 -33zM240 583c-19 0 -25 -9 -25 -36v-147l51 123v24c0 24 -9 36 -26 36z" />
    <glyph glyph-name="yen" unicode="&#xa5;" horiz-adv-x="432" 
d="M321 188v-188h-199v188h-95v97h95v18h-95v95h78l-110 346h196l36 -213l35 213h175l-101 -346h81v-95h-96v-18h96v-97h-96z" />
    <glyph glyph-name="ordfeminine" unicode="&#xaa;" horiz-adv-x="273" 
d="M253 671v-144c0 -4 2 -6 7 -6h7v-86h-101c-16 0 -27 12 -27 36c-11 -16 -34 -41 -70 -41h-2c-39 0 -60 29 -60 66v47c0 43 18 58 53 73c20 7 64 21 71 26c5 2 8 6 8 11v14c0 8 -4 12 -11 12s-10 -4 -10 -12v-23h-106v27c0 56 46 79 109 79h13c79 0 119 -22 119 -79z
M139 514v62c-7 -3 -11 -5 -14 -8c-4 -4 -6 -11 -6 -22v-33c0 -7 3 -10 10 -10s10 6 10 11z" />
    <glyph glyph-name="ordmasculine" unicode="&#xba;" horiz-adv-x="275" 
d="M149 430h-20c-72 0 -120 37 -120 112v96c0 73 48 112 120 112h20c72 0 117 -36 117 -112v-96c0 -76 -45 -112 -117 -112zM129 652v-124c0 -8 0 -17 9 -17c11 0 11 9 11 17v124c0 7 0 16 -11 16c-9 0 -9 -9 -9 -16z" />
    <glyph glyph-name="ae" unicode="&#xe6;" horiz-adv-x="644" 
d="M247 67c-24 -31 -69 -75 -134 -75h-3c-68 0 -102 55 -102 114v83c0 63 29 97 80 121c31 16 106 39 122 47c11 5 13 6 13 19v37c0 12 -5 18 -16 18h-2c-11 0 -17 -6 -17 -18v-55h-173v55c0 95 71 137 180 137h16c69 0 103 -20 115 -31c12 11 43 31 103 31h14
c110 0 190 -49 190 -185v-116h-219v-108c0 -20 6 -26 18 -26c16 0 19 10 19 26v72h182v-49c0 -111 -67 -177 -182 -177h-38c-105 0 -147 45 -166 80zM223 139v106c-7 -3 -15 -9 -22 -17c-7 -9 -9 -17 -9 -37v-53c0 -11 3 -20 16 -20c12 0 15 10 15 21zM414 406v-55h37v55
c0 23 -2 31 -19 31c-15 0 -18 -8 -18 -31z" />
    <glyph glyph-name="oslash" unicode="&#xf8;" horiz-adv-x="444" 
d="M11 192v153c0 144 74 206 206 206h9c48 0 86 -11 115 -30l13 17h88l-48 -63c24 -33 38 -77 38 -130v-153c0 -143 -76 -205 -209 -205h-5c-53 0 -92 11 -121 28l-12 -15h-86l44 62c-21 33 -32 77 -32 130zM221 130c17 0 22 11 22 31v94l-43 -78v-16c0 -20 4 -31 21 -31z
M243 367v12c0 15 -1 33 -22 33c-20 0 -21 -18 -21 -33v-90z" />
    <glyph glyph-name="questiondown" unicode="&#xbf;" horiz-adv-x="425" 
d="M157 332h144v-75c0 -48 -4 -68 -31 -108l-56 -86c-13 -20 -15 -33 -15 -57v-53c0 -16 3 -26 18 -26c16 0 18 11 18 27v108h176v-112c0 -80 -30 -165 -178 -165h-44c-130 0 -183 70 -183 161v50c0 65 10 99 47 144l79 97c20 25 25 35 25 66v29zM146 358v180h167v-180h-167
z" />
    <glyph glyph-name="exclamdown" unicode="&#xa1;" horiz-adv-x="223" 
d="M25 358v180h166v-180h-166zM213 -206h-211l52 538h108z" />
    <glyph glyph-name="florin" unicode="&#x192;" horiz-adv-x="328" 
d="M32 -188l25 530h-51v146h58l7 149c3 76 53 107 111 107h136v-146h-37c-15 0 -18 -4 -19 -20l-5 -90h61v-146h-68l-27 -530h-191z" />
    <glyph glyph-name="guillemotleft" unicode="&#xab;" horiz-adv-x="360" 
d="M143 287l57 -177h-137l-54 140v73l54 137h138zM307 287l46 -177h-135l-55 177l55 173h136z" />
    <glyph glyph-name="guillemotright" unicode="&#xbb;" horiz-adv-x="360" 
d="M160 110l57 173l-57 177h137l54 -139v-73l-54 -138h-137zM6 110l49 173l-48 177h136l55 -177l-55 -173h-137z" />
    <glyph glyph-name="ellipsis" unicode="&#x2026;" horiz-adv-x="578" 
d="M398 180h167v-180h-167v180zM206 0v180h165v-180h-165zM179 0h-166v180h166v-180z" />
    <glyph glyph-name="nbspace" unicode="&#xa0;" horiz-adv-x="116" 
 />
    <glyph glyph-name="Agrave" unicode="&#xc0;" horiz-adv-x="450" 
d="M260 0l-9 92h-73l-9 -92h-172l97 744h251l108 -744h-193zM214 455l-19 -196h39zM253 895l48 -131h-151l-53 131h156z" />
    <glyph glyph-name="Atilde" unicode="&#xc3;" horiz-adv-x="450" 
d="M260 0l-9 92h-73l-9 -92h-172l97 744h251l108 -744h-193zM214 455l-19 -196h39zM219 783c-19 7 -28 11 -35 11c-5 0 -8 -4 -8 -12v-20h-98v69c0 41 21 71 65 71h3c24 0 42 -8 73 -19c19 -7 28 -11 35 -11c5 0 8 4 8 12v21h98v-65c0 -40 -20 -74 -64 -74h-5
c-21 0 -41 6 -72 17z" />
    <glyph glyph-name="Otilde" unicode="&#xd5;" horiz-adv-x="486" 
d="M473 523v-309c0 -148 -87 -225 -212 -225h-35c-137 0 -213 80 -213 225v309c0 143 64 232 213 232h34c148 0 213 -92 213 -232zM267 196v351c0 23 -5 34 -24 34c-15 0 -23 -11 -23 -34v-351c0 -21 8 -31 23 -31c16 0 24 10 24 31zM243 789c-19 7 -28 11 -35 11
c-5 0 -8 -4 -8 -12v-20h-98v69c0 41 21 71 65 71h3c24 0 42 -8 73 -19c19 -7 28 -11 35 -11c5 0 8 4 8 12v21h98v-65c0 -40 -20 -74 -64 -74h-5c-21 0 -41 6 -72 17z" />
    <glyph glyph-name="OE" unicode="&#x152;" horiz-adv-x="604" 
d="M13 201v343c0 115 43 209 150 209h7c64 0 92 -38 103 -52v43h316v-179h-121v-89h95v-183h-95v-112h126v-181h-321v43c-10 -16 -47 -54 -102 -54h-8c-96 0 -150 77 -150 212zM264 197v351c0 23 -5 35 -22 35s-22 -12 -22 -35v-351c0 -23 5 -35 22 -35s22 12 22 35z" />
    <glyph glyph-name="oe" unicode="&#x153;" horiz-adv-x="672" 
d="M661 249h-220v-108c0 -20 6 -26 18 -26c16 0 19 10 19 26v72h183v-49c0 -112 -69 -177 -182 -177h-34c-51 0 -83 18 -102 30c-19 -12 -53 -33 -109 -33h-22c-137 0 -201 65 -201 208v153c0 144 75 207 200 207h26c56 0 94 -21 110 -33c16 12 47 31 98 31h35
c103 0 181 -51 181 -184v-117zM207 379v-219c0 -21 4 -31 19 -31c16 0 21 8 21 31v219c0 17 -2 31 -21 31c-17 0 -19 -14 -19 -31zM441 405v-54h38v62c-1 17 -5 23 -20 23s-18 -8 -18 -31z" />
    <glyph glyph-name="endash" unicode="&#x2013;" horiz-adv-x="438" 
d="M13 359h412v-117h-412v117z" />
    <glyph glyph-name="emdash" unicode="&#x2014;" horiz-adv-x="665" 
d="M13 359h639v-117h-639v117z" />
    <glyph glyph-name="quotedblleft" unicode="&#x201c;" horiz-adv-x="346" 
d="M47 744h90c-11 -23 -26 -67 -27 -99h56v-152h-153v113c0 58 22 116 34 138zM214 744h90c-11 -23 -26 -67 -27 -99h56v-152h-153v113c0 58 22 116 34 138z" />
    <glyph glyph-name="quotedblright" unicode="&#x201d;" horiz-adv-x="346" 
d="M132 493h-90c11 23 26 67 27 99h-56v152h153v-113c0 -59 -23 -114 -34 -138zM299 493h-90c11 23 26 67 27 99h-56v152h153v-113c0 -59 -23 -114 -34 -138z" />
    <glyph glyph-name="quoteleft" unicode="&#x2018;" horiz-adv-x="179" 
d="M47 744h90c-11 -23 -26 -67 -27 -99h56v-152h-153v113c0 58 22 116 34 138z" />
    <glyph glyph-name="quoteright" unicode="&#x2019;" horiz-adv-x="179" 
d="M132 493h-90c11 23 26 67 27 99h-56v152h153v-113c0 -59 -23 -114 -34 -138z" />
    <glyph glyph-name="divide" unicode="&#xf7;" horiz-adv-x="350" 
d="M12 356h326v-106h-326v106zM234 491v-117h-118v117h118zM234 231v-116h-118v116h118z" />
    <glyph glyph-name="ydieresis" unicode="&#xff;" horiz-adv-x="427" 
d="M110 36l-113 502h194l29 -272l20 272h190l-133 -643c-16 -68 -58 -83 -90 -83h-167v155h61c13 0 16 4 17 17v4c0 8 -1 21 -8 48zM203 691v-133h-138v133h138zM363 691v-133h-138v133h138z" />
    <glyph glyph-name="Ydieresis" unicode="&#x178;" horiz-adv-x="437" 
d="M442 744l-119 -476v-268h-199v268l-129 476h198l36 -223l33 223h180zM376 895v-131h-138v131h138zM216 895v-131h-138v131h138z" />
    <glyph glyph-name="fraction" unicode="&#x2044;" horiz-adv-x="440" 
d="M328 744h110l-328 -744h-108z" />
    <glyph glyph-name="Euro" unicode="&#x20ac;" horiz-adv-x="515" 
d="M5 283v96h55v19h-55v94h55v49c0 124 61 214 208 214h37c136 0 198 -74 198 -185v-59h-195v51c0 19 -3 30 -22 30c-13 0 -20 -10 -20 -30v-70h127v-94h-127v-19h127v-96h-127v-93c0 -21 5 -33 21 -33c19 0 21 13 21 33v74h195v-81c0 -99 -56 -194 -200 -194h-28
c-155 0 -215 80 -215 219v75h-55z" />
    <glyph glyph-name="guilsinglleft" unicode="&#x2039;" horiz-adv-x="210" 
d="M156 287l47 -177h-146l-48 140v73l48 137h147z" />
    <glyph glyph-name="guilsinglright" unicode="&#x203a;" horiz-adv-x="211" 
d="M55 287l-49 173h147l49 -137v-74l-49 -139h-146z" />
    <glyph glyph-name="daggerdbl" unicode="&#x2021;" horiz-adv-x="337" 
d="M73 142h-63v155h63v150h-63v155h63v142h191v-142h63v-155h-63v-150h63v-155h-63v-142h-191v142z" />
    <glyph glyph-name="periodcentered" unicode="&#xb7;" horiz-adv-x="192" 
d="M179 406v-179h-166v179h166z" />
    <glyph glyph-name="quotesinglbase" unicode="&#x201a;" horiz-adv-x="179" 
d="M132 -99h-90c11 23 26 67 27 99h-56v152h153v-113c0 -59 -23 -114 -34 -138z" />
    <glyph glyph-name="quotedblbase" unicode="&#x201e;" horiz-adv-x="346" 
d="M132 -99h-90c11 23 26 67 27 99h-56v152h153v-113c0 -59 -23 -114 -34 -138zM299 -99h-90c11 23 26 67 27 99h-56v152h153v-113c0 -59 -23 -114 -34 -138z" />
    <glyph glyph-name="perthousand" unicode="&#x2030;" horiz-adv-x="901" 
d="M761 -8h-18c-85 0 -127 43 -127 130v93c0 88 49 130 126 130h21c84 0 128 -42 128 -130v-93c0 -87 -50 -130 -130 -130zM10 530v93c0 88 49 130 126 130h21c84 0 128 -42 128 -130v-93c0 -87 -50 -130 -130 -130h-18c-85 0 -127 43 -127 130zM471 -8h-18
c-85 0 -127 43 -127 130v93c0 88 49 130 126 130h21c84 0 128 -42 128 -130v-93c0 -87 -50 -130 -130 -130zM409 744h113l-319 -744h-115zM754 82c7 0 11 5 11 14v146c0 10 -4 15 -11 15c-11 0 -12 -6 -12 -15v-146c0 -9 1 -14 12 -14zM464 82c7 0 11 5 11 14v146
c0 10 -4 15 -11 15c-11 0 -12 -6 -12 -15v-146c0 -9 1 -14 12 -14zM159 504v146c0 10 -4 15 -11 15c-11 0 -12 -6 -12 -15v-146c0 -9 1 -14 12 -14c7 0 11 5 11 14z" />
    <glyph glyph-name="Acircumflex" unicode="&#xc2;" horiz-adv-x="450" 
d="M260 0l-9 92h-73l-9 -92h-172l97 744h251l108 -744h-193zM214 455l-19 -196h39zM295 895l77 -131h-130l-26 46l-24 -46h-129l76 131h156z" />
    <glyph glyph-name="Ecircumflex" unicode="&#xca;" horiz-adv-x="372" 
d="M15 744h342v-179h-147v-89h121v-183h-121v-112h152v-181h-347v744zM266 895l77 -131h-130l-26 46l-24 -46h-129l76 131h156z" />
    <glyph glyph-name="Aacute" unicode="&#xc1;" horiz-adv-x="450" 
d="M260 0l-9 92h-73l-9 -92h-172l97 744h251l108 -744h-193zM214 455l-19 -196h39zM143 764l51 131h155l-55 -131h-151z" />
    <glyph glyph-name="Edieresis" unicode="&#xcb;" horiz-adv-x="372" 
d="M15 744h342v-179h-147v-89h121v-183h-121v-112h152v-181h-347v744zM338 895v-131h-138v131h138zM178 895v-131h-138v131h138z" />
    <glyph glyph-name="Egrave" unicode="&#xc8;" horiz-adv-x="372" 
d="M15 744h342v-179h-147v-89h121v-183h-121v-112h152v-181h-347v744zM224 895l48 -131h-151l-53 131h156z" />
    <glyph glyph-name="Iacute" unicode="&#xcd;" horiz-adv-x="230" 
d="M215 744v-744h-200v744h200zM39 764l51 131h155l-55 -131h-151z" />
    <glyph glyph-name="Icircumflex" unicode="&#xce;" horiz-adv-x="230" 
d="M215 744v-744h-200v744h200zM192 895l77 -131h-130l-26 46l-24 -46h-129l76 131h156z" />
    <glyph glyph-name="Idieresis" unicode="&#xcf;" horiz-adv-x="230" 
d="M215 744v-744h-200v744h200zM264 895v-131h-138v131h138zM104 895v-131h-138v131h138z" />
    <glyph glyph-name="Igrave" unicode="&#xcc;" horiz-adv-x="230" 
d="M215 744v-744h-200v744h200zM144 895l48 -131h-151l-53 131h156z" />
    <glyph glyph-name="Oacute" unicode="&#xd3;" horiz-adv-x="486" 
d="M473 523v-309c0 -148 -87 -225 -212 -225h-35c-137 0 -213 80 -213 225v309c0 143 64 232 213 232h34c148 0 213 -92 213 -232zM267 196v351c0 23 -5 34 -24 34c-15 0 -23 -11 -23 -34v-351c0 -21 8 -31 23 -31c16 0 24 10 24 31zM168 764l51 131h155l-55 -131h-151z" />
    <glyph glyph-name="Ocircumflex" unicode="&#xd4;" horiz-adv-x="486" 
d="M473 523v-309c0 -148 -87 -225 -212 -225h-35c-137 0 -213 80 -213 225v309c0 143 64 232 213 232h34c148 0 213 -92 213 -232zM267 196v351c0 23 -5 34 -24 34c-15 0 -23 -11 -23 -34v-351c0 -21 8 -31 23 -31c16 0 24 10 24 31zM321 895l77 -131h-130l-26 46l-24 -46
h-129l76 131h156z" />
    <glyph glyph-name="Ograve" unicode="&#xd2;" horiz-adv-x="486" 
d="M473 523v-309c0 -148 -87 -225 -212 -225h-35c-137 0 -213 80 -213 225v309c0 143 64 232 213 232h34c148 0 213 -92 213 -232zM267 196v351c0 23 -5 34 -24 34c-15 0 -23 -11 -23 -34v-351c0 -21 8 -31 23 -31c16 0 24 10 24 31zM272 895l48 -131h-151l-53 131h156z" />
    <glyph glyph-name="Uacute" unicode="&#xda;" horiz-adv-x="485" 
d="M15 181v563h206v-540c0 -20 7 -30 22 -30c14 0 21 10 21 30v540h206v-563c0 -101 -70 -194 -212 -194h-32c-154 0 -211 89 -211 194zM166 764l51 131h155l-55 -131h-151z" />
    <glyph glyph-name="Ucircumflex" unicode="&#xdb;" horiz-adv-x="485" 
d="M15 181v563h206v-540c0 -20 7 -30 22 -30c14 0 21 10 21 30v540h206v-563c0 -101 -70 -194 -212 -194h-32c-154 0 -211 89 -211 194zM319 895l77 -131h-130l-26 46l-24 -46h-129l76 131h156z" />
    <glyph glyph-name="Ugrave" unicode="&#xd9;" horiz-adv-x="485" 
d="M15 181v563h206v-540c0 -20 7 -30 22 -30c14 0 21 10 21 30v540h206v-563c0 -101 -70 -194 -212 -194h-32c-154 0 -211 89 -211 194zM274 895l48 -131h-151l-53 131h156z" />
    <glyph glyph-name="dotlessi" unicode="&#x131;" horiz-adv-x="221" 
d="M208 538v-538h-195v538h195z" />
    <glyph glyph-name="circumflex" unicode="&#x2c6;" 
d="M249 715l75 -157h-129l-25 67l-24 -67h-127l74 157h156z" />
    <glyph glyph-name="tilde" unicode="&#x2dc;" 
d="M211 708h100v-78c0 -40 -21 -71 -69 -71h-4c-19 0 -39 5 -67 20c-15 8 -25 15 -32 15c-5 0 -7 -4 -7 -12v-26h-101v78c0 40 22 71 70 71h3c19 0 35 -4 66 -19c15 -7 27 -16 34 -16c5 0 7 4 7 12v26z" />
    <glyph glyph-name="macron" unicode="&#xaf;" 
d="M45 564v113h251v-113h-251z" />
    <glyph glyph-name="breve" unicode="&#x2d8;" 
d="M173 555h-4c-92 0 -137 49 -137 130v14h114v-8c0 -25 8 -37 24 -37h1c17 0 25 12 25 37v8h113v-14c0 -81 -51 -130 -136 -130z" />
    <glyph glyph-name="dotaccent" unicode="&#x2d9;" 
d="M268 715v-157h-195v157h195z" />
    <glyph glyph-name="ring" unicode="&#x2da;" 
d="M171 608c21 -1 37 13 37 36c0 21 -16 36 -37 36s-37 -15 -37 -36c0 -23 16 -37 37 -36zM171 556c-53 0 -93 36 -93 89c0 52 40 87 93 87s93 -35 93 -87c0 -53 -40 -89 -93 -89z" />
    <glyph glyph-name="cedilla" unicode="&#xb8;" 
d="M163 -202h-91v76h66c13 0 20 5 20 14v1c0 9 -7 13 -20 13h-51v98h77v-33h8c64 0 98 -31 98 -79v-3c0 -55 -39 -87 -107 -87z" />
    <glyph glyph-name="hungarumlaut" unicode="&#x2dd;" 
d="M18 558l34 157h126l-35 -157h-125zM164 558l35 157h126l-36 -157h-125z" />
    <glyph glyph-name="ogonek" unicode="&#x2db;" 
d="M85 -122v11c0 37 30 70 90 111h82c-32 -35 -40 -50 -40 -67v-3c0 -13 6 -21 27 -21h13v-97h-82c-55 0 -90 26 -90 66z" />
    <glyph glyph-name="caron" unicode="&#x2c7;" 
d="M94 558l-74 157h126l24 -66l25 66h128l-75 -157h-154z" />
    <glyph glyph-name="idotaccent" horiz-adv-x="221" 
d="M208 538v-538h-195v538h195zM208 715v-157h-195v157h195z" />
    <glyph glyph-name="space_uni0326" 
d="M223 -220h-82c11 27 15 51 16 74h-62v126h152v-85c0 -51 -16 -96 -24 -115z" />
    <glyph glyph-name="zero.num" horiz-adv-x="300" 
d="M141 750h19c99 0 130 -64 130 -127v-100c0 -59 -31 -129 -130 -129h-19c-103 0 -131 70 -131 129v100c0 60 29 127 131 127zM150 649c-11 0 -11 -8 -11 -15v-120c0 -8 2 -15 11 -15c11 0 11 7 11 15v120c0 8 0 15 -11 15z" />
    <glyph glyph-name="one.num" horiz-adv-x="182" 
d="M48 616h-43v89c39 0 54 14 55 39h109v-343h-121v215z" />
    <glyph glyph-name="two.num" horiz-adv-x="273" 
d="M266 401h-260v46c0 55 18 70 90 142c39 34 44 43 44 56v14c0 8 -3 12 -8 12c-7 0 -11 -4 -11 -12v-36h-111v29c0 50 26 98 113 98h18c89 0 121 -36 121 -93v-10c0 -48 -26 -72 -86 -111c-61 -40 -60 -41 -60 -49h52v37h98v-123z" />
    <glyph glyph-name="three.num" horiz-adv-x="268" 
d="M118 632h-111v33c0 47 32 85 112 85h15c75 0 120 -24 120 -83v-12c0 -35 -24 -53 -39 -58c18 -5 48 -24 48 -71v-27c0 -65 -38 -106 -126 -106h-17c-92 0 -115 43 -115 92v42h115v-37c0 -7 3 -10 9 -10c5 0 8 3 8 10v38c0 7 -3 11 -9 11h-52v83h49c7 0 10 3 10 10v32
c0 6 -3 9 -9 9c-5 0 -8 -3 -8 -9v-32z" />
    <glyph glyph-name="four.num" horiz-adv-x="251" 
d="M5 447v84c21 51 61 153 82 214h129v-200h29v-98h-29v-46h-115v46h-96zM77 545h24v65z" />
    <glyph glyph-name="five.num" horiz-adv-x="272" 
d="M122 545h-110v199h238v-86h-131v-49c15 16 34 35 65 35h7c51 0 73 -36 73 -83v-64c0 -59 -37 -103 -125 -103h-16c-92 0 -118 43 -118 91v38h117v-36c0 -7 3 -11 9 -11c5 0 8 4 8 11v70c0 8 -3 12 -8 12c-6 0 -9 -4 -9 -12v-12z" />
    <glyph glyph-name="six.num" horiz-adv-x="290" 
d="M205 622h5c53 0 73 -38 73 -78v-36c0 -72 -45 -114 -128 -114h-19c-83 0 -126 41 -126 114v129c0 60 33 113 126 113h16c93 0 123 -44 123 -102v-15h-122v22c0 8 -3 12 -9 12s-9 -4 -9 -12v-64c15 13 37 31 70 31zM146 479c8 0 11 8 11 15v40c0 11 -4 17 -11 17
c-11 0 -11 -8 -11 -17v-40c0 -7 0 -15 11 -15z" />
    <glyph glyph-name="seven.num" horiz-adv-x="249" 
d="M6 744h236v-52c0 -17 -11 -54 -31 -138c-11 -47 -11 -83 -11 -120v-33h-139v31c0 38 2 55 34 122c45 96 47 102 47 115h-34v-55h-102v130z" />
    <glyph glyph-name="eight.num" horiz-adv-x="269" 
d="M259 661v-15c0 -39 -23 -55 -38 -63c19 -8 42 -31 42 -66v-28c0 -61 -42 -95 -121 -95h-16c-81 0 -120 34 -120 95v29c0 35 22 57 41 65c-16 11 -36 28 -36 63v15c0 53 34 89 115 89h16c80 0 117 -36 117 -89zM144 493v37c0 11 1 16 -10 16c-7 0 -10 -5 -10 -16v-37
c0 -9 3 -14 10 -14c11 0 10 7 10 14zM144 632v26c0 8 1 14 -10 14c-8 0 -9 -5 -9 -14v-26c0 -11 1 -16 9 -16c11 0 10 5 10 16z" />
    <glyph glyph-name="nine.num" horiz-adv-x="291" 
d="M7 606v34c0 68 40 110 128 110h20c84 0 126 -40 126 -113v-127c0 -61 -33 -116 -126 -116h-16c-93 0 -123 43 -123 100v18h122v-22c0 -8 3 -12 9 -12s9 4 9 12v64c-13 -13 -35 -31 -66 -31h-5c-53 0 -78 39 -78 83zM145 666c-9 0 -10 -8 -10 -15v-40c0 -11 1 -17 10 -17
c11 0 11 6 11 17v40c0 7 0 15 -11 15z" />
    <glyph glyph-name="zero.den" horiz-adv-x="299" 
d="M141 349h19c99 0 130 -64 130 -127v-100c0 -59 -31 -129 -130 -129h-19c-103 0 -131 70 -131 129v100c0 60 29 127 131 127zM150 248c-11 0 -11 -8 -11 -15v-120c0 -8 2 -15 11 -15c11 0 11 7 11 15v120c0 8 0 15 -11 15z" />
    <glyph glyph-name="one.den" horiz-adv-x="182" 
d="M48 215h-43v89c39 0 54 14 55 39h109v-343h-121v215z" />
    <glyph glyph-name="two.den" horiz-adv-x="273" 
d="M266 0h-260v46c0 55 18 70 90 142c39 34 44 43 44 56v14c0 8 -3 12 -8 12c-7 0 -11 -4 -11 -12v-36h-111v29c0 50 26 98 113 98h18c89 0 121 -36 121 -93v-10c0 -48 -26 -72 -86 -111c-61 -40 -60 -41 -60 -49h52v37h98v-123z" />
    <glyph glyph-name="three.den" horiz-adv-x="268" 
d="M118 231h-111v33c0 47 32 85 112 85h15c75 0 120 -24 120 -83v-12c0 -35 -24 -53 -39 -58c18 -5 48 -24 48 -71v-27c0 -65 -38 -106 -126 -106h-17c-92 0 -115 43 -115 92v42h115v-37c0 -7 3 -10 9 -10c5 0 8 3 8 10v38c0 7 -3 11 -9 11h-52v83h49c7 0 10 3 10 10v32
c0 6 -3 9 -9 9c-5 0 -8 -3 -8 -9v-32z" />
    <glyph glyph-name="four.den" horiz-adv-x="250" 
d="M5 46v84c21 51 61 153 82 214h129v-200h29v-98h-29v-46h-115v46h-96zM77 144h24v65z" />
    <glyph glyph-name="five.den" horiz-adv-x="272" 
d="M122 144h-110v199h238v-86h-131v-49c15 16 34 35 65 35h7c51 0 73 -36 73 -83v-64c0 -59 -37 -103 -125 -103h-16c-92 0 -118 43 -118 91v38h117v-36c0 -7 3 -11 9 -11c5 0 8 4 8 11v70c0 8 -3 12 -8 12c-6 0 -9 -4 -9 -12v-12z" />
    <glyph glyph-name="six.den" horiz-adv-x="290" 
d="M205 221h5c53 0 73 -38 73 -78v-36c0 -72 -45 -114 -128 -114h-19c-83 0 -126 41 -126 114v129c0 60 33 113 126 113h16c93 0 123 -44 123 -102v-15h-122v22c0 8 -3 12 -9 12s-9 -4 -9 -12v-64c15 13 37 31 70 31zM146 78c8 0 11 8 11 15v40c0 11 -4 17 -11 17
c-11 0 -11 -8 -11 -17v-40c0 -7 0 -15 11 -15z" />
    <glyph glyph-name="seven.den" horiz-adv-x="249" 
d="M6 343h236v-52c0 -17 -11 -54 -31 -138c-11 -47 -11 -83 -11 -120v-33h-139v31c0 38 2 55 34 122c45 96 47 102 47 115h-34v-55h-102v130z" />
    <glyph glyph-name="eight.den" horiz-adv-x="269" 
d="M259 260v-15c0 -39 -23 -55 -38 -63c19 -8 42 -31 42 -66v-28c0 -61 -42 -95 -121 -95h-16c-81 0 -120 34 -120 95v29c0 35 22 57 41 65c-16 11 -36 28 -36 63v15c0 53 34 89 115 89h16c80 0 117 -36 117 -89zM144 92v37c0 11 1 16 -10 16c-7 0 -10 -5 -10 -16v-37
c0 -9 3 -14 10 -14c11 0 10 7 10 14zM144 231v26c0 8 1 14 -10 14c-8 0 -9 -5 -9 -14v-26c0 -11 1 -16 9 -16c11 0 10 5 10 16z" />
    <glyph glyph-name="nine.den" horiz-adv-x="291" 
d="M7 205v34c0 68 40 110 128 110h20c84 0 126 -40 126 -113v-127c0 -61 -33 -116 -126 -116h-16c-93 0 -123 43 -123 100v18h122v-22c0 -8 3 -12 9 -12s9 4 9 12v64c-13 -13 -35 -31 -66 -31h-5c-53 0 -78 39 -78 83zM145 265c-9 0 -10 -8 -10 -15v-40c0 -11 1 -17 10 -17
c11 0 11 6 11 17v40c0 7 0 15 -11 15z" />
    <glyph glyph-name="zero.sub" horiz-adv-x="299" 
d="M141 223h19c99 0 130 -64 130 -127v-100c0 -59 -31 -129 -130 -129h-19c-103 0 -131 70 -131 129v100c0 60 29 127 131 127zM150 122c-11 0 -11 -8 -11 -15v-120c0 -8 2 -15 11 -15c11 0 11 7 11 15v120c0 8 0 15 -11 15z" />
    <glyph glyph-name="one.sub" horiz-adv-x="183" 
d="M48 91h-43v89c39 0 54 14 55 39h110v-345h-122v217z" />
    <glyph glyph-name="two.sub" horiz-adv-x="273" 
d="M266 -126h-260v46c0 55 18 70 90 142c39 34 44 43 44 56v14c0 8 -3 12 -8 12c-7 0 -11 -4 -11 -12v-36h-111v29c0 50 26 98 113 98h18c89 0 121 -36 121 -93v-10c0 -48 -26 -72 -86 -111c-61 -40 -60 -41 -60 -49h52v37h98v-123z" />
    <glyph glyph-name="three.sub" horiz-adv-x="268" 
d="M118 105h-111v33c0 47 32 85 112 85h15c75 0 120 -24 120 -83v-12c0 -35 -24 -53 -39 -58c18 -5 48 -24 48 -71v-27c0 -65 -38 -106 -126 -106h-17c-92 0 -115 43 -115 92v42h115v-37c0 -7 3 -10 9 -10c5 0 8 3 8 10v38c0 7 -3 11 -9 11h-52v83h49c7 0 10 3 10 10v32
c0 6 -3 9 -9 9c-5 0 -8 -3 -8 -9v-32z" />
    <glyph glyph-name="four.sub" horiz-adv-x="251" 
d="M5 -80v84c21 51 61 153 82 214h129v-200h29v-98h-29v-46h-115v46h-96zM77 18h24v65z" />
    <glyph glyph-name="five.sub" horiz-adv-x="272" 
d="M122 18h-110v199h238v-86h-131v-49c15 16 34 35 65 35h7c51 0 73 -36 73 -83v-64c0 -59 -37 -103 -125 -103h-16c-92 0 -118 43 -118 91v38h117v-36c0 -7 3 -11 9 -11c5 0 8 4 8 11v70c0 8 -3 12 -8 12c-6 0 -9 -4 -9 -12v-12z" />
    <glyph glyph-name="six.sub" horiz-adv-x="291" 
d="M205 95h5c53 0 73 -38 73 -78v-36c0 -72 -45 -114 -128 -114h-19c-83 0 -126 41 -126 114v129c0 60 33 113 126 113h16c93 0 123 -44 123 -102v-15h-122v22c0 8 -3 12 -9 12s-9 -4 -9 -12v-64c15 13 37 31 70 31zM146 -48c8 0 11 8 11 15v40c0 11 -4 17 -11 17
c-11 0 -11 -8 -11 -17v-40c0 -7 0 -15 11 -15z" />
    <glyph glyph-name="seven.sub" horiz-adv-x="250" 
d="M6 217h236v-52c0 -17 -11 -54 -31 -138c-11 -47 -11 -83 -11 -120v-33h-139v31c0 38 2 55 34 122c45 96 47 102 47 115h-34v-55h-102v130z" />
    <glyph glyph-name="eight.sub" horiz-adv-x="269" 
d="M259 134v-15c0 -39 -23 -55 -38 -63c19 -8 42 -31 42 -66v-28c0 -61 -42 -95 -121 -95h-16c-81 0 -120 34 -120 95v29c0 35 22 57 41 65c-16 11 -36 28 -36 63v15c0 53 34 89 115 89h16c80 0 117 -36 117 -89zM144 -34v37c0 11 1 16 -10 16c-7 0 -10 -5 -10 -16v-37
c0 -9 3 -14 10 -14c11 0 10 7 10 14zM144 105v26c0 8 1 14 -10 14c-8 0 -9 -5 -9 -14v-26c0 -11 1 -16 9 -16c11 0 10 5 10 16z" />
    <glyph glyph-name="nine.sub" horiz-adv-x="291" 
d="M7 79v34c0 68 40 110 128 110h20c84 0 126 -40 126 -113v-127c0 -61 -33 -116 -126 -116h-16c-93 0 -123 43 -123 100v18h122v-22c0 -8 3 -12 9 -12s9 4 9 12v64c-13 -13 -35 -31 -66 -31h-5c-53 0 -78 39 -78 83zM145 139c-9 0 -10 -8 -10 -15v-40c0 -11 1 -17 10 -17
c11 0 11 6 11 17v40c0 7 0 15 -11 15z" />
    <glyph glyph-name="zero.sup" horiz-adv-x="299" 
d="M141 750h19c99 0 130 -64 130 -127v-100c0 -59 -31 -129 -130 -129h-19c-103 0 -131 70 -131 129v100c0 60 29 127 131 127zM150 649c-11 0 -11 -8 -11 -15v-120c0 -8 2 -15 11 -15c11 0 11 7 11 15v120c0 8 0 15 -11 15z" />
    <glyph glyph-name="one.sup" horiz-adv-x="182" 
d="M48 616h-43v89c39 0 54 14 55 39h109v-343h-121v215z" />
    <glyph glyph-name="two.sup" horiz-adv-x="273" 
d="M266 401h-260v46c0 55 18 70 90 142c39 34 44 43 44 56v14c0 8 -3 12 -8 12c-7 0 -11 -4 -11 -12v-36h-111v29c0 50 26 98 113 98h18c89 0 121 -36 121 -93v-10c0 -48 -26 -72 -86 -111c-61 -40 -60 -41 -60 -49h52v37h98v-123z" />
    <glyph glyph-name="three.sup" horiz-adv-x="268" 
d="M118 632h-111v33c0 47 32 85 112 85h15c75 0 120 -24 120 -83v-12c0 -35 -24 -53 -39 -58c18 -5 48 -24 48 -71v-27c0 -65 -38 -106 -126 -106h-17c-92 0 -115 43 -115 92v42h115v-37c0 -7 3 -10 9 -10c5 0 8 3 8 10v38c0 7 -3 11 -9 11h-52v83h49c7 0 10 3 10 10v32
c0 6 -3 9 -9 9c-5 0 -8 -3 -8 -9v-32z" />
    <glyph glyph-name="four.sup" horiz-adv-x="251" 
d="M5 447v84c21 51 61 153 82 214h129v-200h29v-98h-29v-46h-115v46h-96zM77 545h24v65z" />
    <glyph glyph-name="five.sup" horiz-adv-x="272" 
d="M122 545h-110v199h238v-86h-131v-49c15 16 34 35 65 35h7c51 0 73 -36 73 -83v-64c0 -59 -37 -103 -125 -103h-16c-92 0 -118 43 -118 91v38h117v-36c0 -7 3 -11 9 -11c5 0 8 4 8 11v70c0 8 -3 12 -8 12c-6 0 -9 -4 -9 -12v-12z" />
    <glyph glyph-name="six.sup" horiz-adv-x="290" 
d="M205 622h5c53 0 73 -38 73 -78v-36c0 -72 -45 -114 -128 -114h-19c-83 0 -126 41 -126 114v129c0 60 33 113 126 113h16c93 0 123 -44 123 -102v-15h-122v22c0 8 -3 12 -9 12s-9 -4 -9 -12v-64c15 13 37 31 70 31zM146 479c8 0 11 8 11 15v40c0 11 -4 17 -11 17
c-11 0 -11 -8 -11 -17v-40c0 -7 0 -15 11 -15z" />
    <glyph glyph-name="seven.sup" horiz-adv-x="249" 
d="M6 744h236v-52c0 -17 -11 -54 -31 -138c-11 -47 -11 -83 -11 -120v-33h-139v31c0 38 2 55 34 122c45 96 47 102 47 115h-34v-55h-102v130z" />
    <glyph glyph-name="eight.sup" horiz-adv-x="269" 
d="M259 661v-15c0 -39 -23 -55 -38 -63c19 -8 42 -31 42 -66v-28c0 -61 -42 -95 -121 -95h-16c-81 0 -120 34 -120 95v29c0 35 22 57 41 65c-16 11 -36 28 -36 63v15c0 53 34 89 115 89h16c80 0 117 -36 117 -89zM144 493v37c0 11 1 16 -10 16c-7 0 -10 -5 -10 -16v-37
c0 -9 3 -14 10 -14c11 0 10 7 10 14zM144 632v26c0 8 1 14 -10 14c-8 0 -9 -5 -9 -14v-26c0 -11 1 -16 9 -16c11 0 10 5 10 16z" />
    <glyph glyph-name="nine.sup" horiz-adv-x="291" 
d="M7 606v34c0 68 40 110 128 110h20c84 0 126 -40 126 -113v-127c0 -61 -33 -116 -126 -116h-16c-93 0 -123 43 -123 100v18h122v-22c0 -8 3 -12 9 -12s9 4 9 12v64c-13 -13 -35 -31 -66 -31h-5c-53 0 -78 39 -78 83zM145 666c-9 0 -10 -8 -10 -15v-40c0 -11 1 -17 10 -17
c11 0 11 6 11 17v40c0 7 0 15 -11 15z" />
    <glyph glyph-name="IJ.alt" horiz-adv-x="539" 
d="M215 744v-744h-200v744h200zM236 0v183h54c21 0 28 12 28 32v529h207v-595c0 -92 -48 -149 -135 -149h-154z" />
    <glyph glyph-name="a.alt2" horiz-adv-x="454" 
d="M248 538h193v-538h-193v62c-29 -34 -67 -73 -116 -73h-6c-67 0 -114 66 -114 144v275c0 77 42 134 106 134h6c59 0 89 -30 124 -69v65zM247 151v227c0 15 -5 29 -20 29s-18 -12 -18 -27v-230c0 -15 3 -27 18 -27s20 13 20 28z" />
    <glyph glyph-name="Eacute.alt" horiz-adv-x="372" 
d="M15 744h342v-179h-142v-89h138v-183h-138v-112h145v-181h-345v744zM113 764l51 131h155l-55 -131h-151z" />
    <glyph glyph-name="Ebreve.alt" horiz-adv-x="371" 
d="M15 744h342v-179h-142v-89h138v-183h-138v-112h145v-181h-345v744zM192 760h-5c-92 0 -137 56 -137 124v11h115v-9c0 -16 7 -27 24 -27h1c19 0 25 11 25 27v9h114v-11c0 -68 -46 -124 -137 -124z" />
    <glyph glyph-name="Ecaron.alt" horiz-adv-x="371" 
d="M15 744h342v-179h-142v-89h138v-183h-138v-112h145v-181h-345v744zM114 764l-76 131h129l24 -48l26 48h130l-77 -131h-156z" />
    <glyph glyph-name="Ecircumflex.alt" horiz-adv-x="372" 
d="M15 744h342v-179h-142v-89h138v-183h-138v-112h145v-181h-345v744zM266 895l77 -131h-130l-26 46l-24 -46h-129l76 131h156z" />
    <glyph glyph-name="Edieresis.alt" horiz-adv-x="372" 
d="M15 744h342v-179h-142v-89h138v-183h-138v-112h145v-181h-345v744zM338 895v-131h-138v131h138zM178 895v-131h-138v131h138z" />
    <glyph glyph-name="Edotaccent.alt" horiz-adv-x="371" 
d="M15 744h342v-179h-142v-89h138v-183h-138v-112h145v-181h-345v744zM287 921v-157h-195v157h195z" />
    <glyph glyph-name="Egrave.alt" horiz-adv-x="372" 
d="M15 744h342v-179h-142v-89h138v-183h-138v-112h145v-181h-345v744zM224 895l48 -131h-151l-53 131h156z" />
    <glyph glyph-name="Emacron.alt" horiz-adv-x="371" 
d="M15 744h342v-179h-142v-89h138v-183h-138v-112h145v-181h-345v744zM64 771v112h251v-112h-251z" />
    <glyph glyph-name="Eogonek.alt" horiz-adv-x="371" 
d="M139 -122v11c0 37 30 70 90 111h82c-32 -35 -40 -50 -40 -67v-3c0 -13 6 -21 27 -21h13v-97h-82c-55 0 -90 26 -90 66zM15 744h342v-179h-142v-89h138v-183h-138v-112h145v-181h-345v744z" />
    <glyph glyph-name="Jcircumflex.alt" horiz-adv-x="313" 
d="M10 0v183h54c21 0 28 12 28 32v529h207v-595c0 -92 -48 -149 -135 -149h-154zM272 895l77 -131h-130l-26 46l-24 -46h-129l76 131h156z" />
    <glyph glyph-name="aacute.alt" horiz-adv-x="425" 
d="M137 564l50 151h152l-55 -151h-147zM411 414v-278c0 -96 2 -110 10 -131v-5h-186c-4 7 -10 22 -10 61c-19 -29 -57 -69 -116 -69h-3c-64 0 -98 53 -98 113v93c0 63 29 98 80 121c31 13 106 39 122 47c11 5 13 6 13 19v28c0 12 -5 18 -16 18h-2c-11 0 -17 -6 -17 -18v-46
h-173v46c0 95 71 137 180 137h22c121 0 194 -37 194 -136zM223 139v113c-7 -3 -15 -9 -22 -17c-7 -9 -9 -17 -9 -37v-60c0 -11 3 -20 16 -20c12 0 15 10 15 21z" />
    <glyph glyph-name="aacute.alt2" horiz-adv-x="454" 
d="M248 538h193v-538h-193v62c-29 -34 -67 -73 -116 -73h-6c-67 0 -114 66 -114 144v275c0 77 42 134 106 134h6c59 0 89 -30 124 -69v65zM247 151v227c0 15 -5 29 -20 29s-18 -12 -18 -27v-230c0 -15 3 -27 18 -27s20 13 20 28zM152 558l52 157h152l-57 -157h-147z" />
    <glyph glyph-name="abreve.alt" horiz-adv-x="425" 
d="M411 414v-278c0 -96 2 -110 10 -131v-5h-186c-4 7 -10 22 -10 61c-19 -29 -57 -69 -116 -69h-3c-64 0 -98 53 -98 113v93c0 63 29 98 80 121c31 13 106 39 122 47c11 5 13 6 13 19v28c0 12 -5 18 -16 18h-2c-11 0 -17 -6 -17 -18v-46h-173v46c0 95 71 137 180 137h22
c121 0 194 -37 194 -136zM223 139v113c-7 -3 -15 -9 -22 -17c-7 -9 -9 -17 -9 -37v-60c0 -11 3 -20 16 -20c12 0 15 10 15 21zM207 561h-4c-92 0 -137 49 -137 130v14h114v-8c0 -25 8 -37 24 -37h1c17 0 25 12 25 37v8h113v-14c0 -81 -51 -130 -136 -130z" />
    <glyph glyph-name="abreve.alt2" horiz-adv-x="454" 
d="M248 538h193v-538h-193v62c-29 -34 -67 -73 -116 -73h-6c-67 0 -114 66 -114 144v275c0 77 42 134 106 134h6c59 0 89 -30 124 -69v65zM247 151v227c0 15 -5 29 -20 29s-18 -12 -18 -27v-230c0 -15 3 -27 18 -27s20 13 20 28zM222 555h-4c-92 0 -137 49 -137 130v14h114
v-8c0 -25 8 -37 24 -37h1c17 0 25 12 25 37v8h113v-14c0 -81 -51 -130 -136 -130z" />
    <glyph glyph-name="acircumflex.alt" horiz-adv-x="425" 
d="M286 715l76 -151h-129l-25 61l-24 -61h-127l75 151h154zM411 414v-278c0 -96 2 -110 10 -131v-5h-186c-4 7 -10 22 -10 61c-19 -29 -57 -69 -116 -69h-3c-64 0 -98 53 -98 113v93c0 63 29 98 80 121c31 13 106 39 122 47c11 5 13 6 13 19v28c0 12 -5 18 -16 18h-2
c-11 0 -17 -6 -17 -18v-46h-173v46c0 95 71 137 180 137h22c121 0 194 -37 194 -136zM223 139v113c-7 -3 -15 -9 -22 -17c-7 -9 -9 -17 -9 -37v-60c0 -11 3 -20 16 -20c12 0 15 10 15 21z" />
    <glyph glyph-name="acircumflex.alt2" horiz-adv-x="454" 
d="M248 538h193v-538h-193v62c-29 -34 -67 -73 -116 -73h-6c-67 0 -114 66 -114 144v275c0 77 42 134 106 134h6c59 0 89 -30 124 -69v65zM247 151v227c0 15 -5 29 -20 29s-18 -12 -18 -27v-230c0 -15 3 -27 18 -27s20 13 20 28zM301 715l75 -157h-129l-25 67l-24 -67h-127
l74 157h156z" />
    <glyph glyph-name="adieresis.alt" horiz-adv-x="425" 
d="M411 414v-278c0 -96 2 -110 10 -131v-5h-186c-4 7 -10 22 -10 61c-19 -29 -57 -69 -116 -69h-3c-64 0 -98 53 -98 113v93c0 63 29 98 80 121c31 13 106 39 122 47c11 5 13 6 13 19v28c0 12 -5 18 -16 18h-2c-11 0 -17 -6 -17 -18v-46h-173v46c0 95 71 137 180 137h22
c121 0 194 -37 194 -136zM223 139v113c-7 -3 -15 -9 -22 -17c-7 -9 -9 -17 -9 -37v-60c0 -11 3 -20 16 -20c12 0 15 10 15 21zM196 697v-133h-138v133h138zM356 697v-133h-138v133h138z" />
    <glyph glyph-name="adieresis.alt2" horiz-adv-x="454" 
d="M248 538h193v-538h-193v62c-29 -34 -67 -73 -116 -73h-6c-67 0 -114 66 -114 144v275c0 77 42 134 106 134h6c59 0 89 -30 124 -69v65zM247 151v227c0 15 -5 29 -20 29s-18 -12 -18 -27v-230c0 -15 3 -27 18 -27s20 13 20 28zM215 691v-133h-138v133h138zM375 691v-133
h-138v133h138z" />
    <glyph glyph-name="agrave.alt" horiz-adv-x="425" 
d="M232 715l49 -151h-146l-56 151h153zM411 414v-278c0 -96 2 -110 10 -131v-5h-186c-4 7 -10 22 -10 61c-19 -29 -57 -69 -116 -69h-3c-64 0 -98 53 -98 113v93c0 63 29 98 80 121c31 13 106 39 122 47c11 5 13 6 13 19v28c0 12 -5 18 -16 18h-2c-11 0 -17 -6 -17 -18v-46
h-173v46c0 95 71 137 180 137h22c121 0 194 -37 194 -136zM223 139v113c-7 -3 -15 -9 -22 -17c-7 -9 -9 -17 -9 -37v-60c0 -11 3 -20 16 -20c12 0 15 10 15 21z" />
    <glyph glyph-name="agrave.alt2" horiz-adv-x="454" 
d="M248 538h193v-538h-193v62c-29 -34 -67 -73 -116 -73h-6c-67 0 -114 66 -114 144v275c0 77 42 134 106 134h6c59 0 89 -30 124 -69v65zM247 151v227c0 15 -5 29 -20 29s-18 -12 -18 -27v-230c0 -15 3 -27 18 -27s20 13 20 28zM243 715l51 -157h-147l-56 157h152z" />
    <glyph glyph-name="amacron.alt" horiz-adv-x="425" 
d="M411 414v-278c0 -96 2 -110 10 -131v-5h-186c-4 7 -10 22 -10 61c-19 -29 -57 -69 -116 -69h-3c-64 0 -98 53 -98 113v93c0 63 29 98 80 121c31 13 106 39 122 47c11 5 13 6 13 19v28c0 12 -5 18 -16 18h-2c-11 0 -17 -6 -17 -18v-46h-173v46c0 95 71 137 180 137h22
c121 0 194 -37 194 -136zM223 139v113c-7 -3 -15 -9 -22 -17c-7 -9 -9 -17 -9 -37v-60c0 -11 3 -20 16 -20c12 0 15 10 15 21zM88 570v113h251v-113h-251z" />
    <glyph glyph-name="amacron.alt2" horiz-adv-x="454" 
d="M248 538h193v-538h-193v62c-29 -34 -67 -73 -116 -73h-6c-67 0 -114 66 -114 144v275c0 77 42 134 106 134h6c59 0 89 -30 124 -69v65zM247 151v227c0 15 -5 29 -20 29s-18 -12 -18 -27v-230c0 -15 3 -27 18 -27s20 13 20 28zM100 564v113h251v-113h-251z" />
    <glyph glyph-name="aogonek.alt" horiz-adv-x="425" 
d="M411 414v-278c0 -96 2 -110 10 -131v-5h-186c-4 7 -10 22 -10 61c-19 -29 -57 -69 -116 -69h-3c-64 0 -98 53 -98 113v93c0 63 29 98 80 121c31 13 106 39 122 47c11 5 13 6 13 19v28c0 12 -5 18 -16 18h-2c-11 0 -17 -6 -17 -18v-46h-173v46c0 95 71 137 180 137h22
c121 0 194 -37 194 -136zM223 139v113c-7 -3 -15 -9 -22 -17c-7 -9 -9 -17 -9 -37v-60c0 -11 3 -20 16 -20c12 0 15 10 15 21zM249 -122v11c0 37 30 70 90 111h82c-32 -35 -40 -50 -40 -67v-3c0 -13 6 -21 27 -21h13v-97h-82c-55 0 -90 26 -90 66z" />
    <glyph glyph-name="aogonek.alt2" horiz-adv-x="454" 
d="M248 538h193v-538h-193v62c-29 -34 -67 -73 -116 -73h-6c-67 0 -114 66 -114 144v275c0 77 42 134 106 134h6c59 0 89 -30 124 -69v65zM247 151v227c0 15 -5 29 -20 29s-18 -12 -18 -27v-230c0 -15 3 -27 18 -27s20 13 20 28zM267 -122v11c0 37 30 70 90 111h82
c-32 -35 -40 -50 -40 -67v-3c0 -13 6 -21 27 -21h13v-97h-82c-55 0 -90 26 -90 66z" />
    <glyph glyph-name="aring.alt" horiz-adv-x="425" 
d="M411 414v-278c0 -96 2 -110 10 -131v-5h-186c-4 7 -10 22 -10 61c-19 -29 -57 -69 -116 -69h-3c-64 0 -98 53 -98 113v93c0 63 29 98 80 121c31 13 106 39 122 47c11 5 13 6 13 19v28c0 12 -5 18 -16 18h-2c-11 0 -17 -6 -17 -18v-46h-173v46c0 95 71 137 180 137h22
c121 0 194 -37 194 -136zM223 139v113c-7 -3 -15 -9 -22 -17c-7 -9 -9 -17 -9 -37v-60c0 -11 3 -20 16 -20c12 0 15 10 15 21zM206 614c21 -1 37 13 37 36c0 21 -16 36 -37 36s-37 -15 -37 -36c0 -23 16 -37 37 -36zM206 562c-53 0 -93 36 -93 89c0 52 40 87 93 87
s93 -35 93 -87c0 -53 -40 -89 -93 -89z" />
    <glyph glyph-name="aring.alt2" horiz-adv-x="454" 
d="M248 538h193v-538h-193v62c-29 -34 -67 -73 -116 -73h-6c-67 0 -114 66 -114 144v275c0 77 42 134 106 134h6c59 0 89 -30 124 -69v65zM247 151v227c0 15 -5 29 -20 29s-18 -12 -18 -27v-230c0 -15 3 -27 18 -27s20 13 20 28zM211 608c21 -1 37 13 37 36
c0 21 -16 36 -37 36s-37 -15 -37 -36c0 -23 16 -37 37 -36zM211 556c-53 0 -93 36 -93 89c0 52 40 87 93 87s93 -35 93 -87c0 -53 -40 -89 -93 -89z" />
    <glyph glyph-name="aringacute.alt" horiz-adv-x="425" 
d="M135 750l52 157h152l-57 -157h-147zM205 614c21 -1 37 13 37 36c0 21 -16 36 -37 36s-37 -15 -37 -36c0 -23 16 -37 37 -36zM205 562c-53 0 -93 36 -93 89c0 52 40 87 93 87s93 -35 93 -87c0 -53 -40 -89 -93 -89zM411 414v-278c0 -96 2 -110 10 -131v-5h-186
c-4 7 -10 22 -10 61c-19 -29 -57 -69 -116 -69h-3c-64 0 -98 53 -98 113v93c0 63 29 98 80 121c31 13 106 39 122 47c11 5 13 6 13 19v28c0 12 -5 18 -16 18h-2c-11 0 -17 -6 -17 -18v-46h-173v46c0 95 71 137 180 137h22c121 0 194 -37 194 -136zM223 139v113
c-7 -3 -15 -9 -22 -17c-7 -9 -9 -17 -9 -37v-60c0 -11 3 -20 16 -20c12 0 15 10 15 21z" />
    <glyph glyph-name="aringacute.alt2" horiz-adv-x="454" 
d="M141 744l52 157h152l-57 -157h-147zM211 608c21 -1 37 13 37 36c0 21 -16 36 -37 36s-37 -15 -37 -36c0 -23 16 -37 37 -36zM211 556c-53 0 -93 36 -93 89c0 52 40 87 93 87s93 -35 93 -87c0 -53 -40 -89 -93 -89zM248 538h193v-538h-193v62c-29 -34 -67 -73 -116 -73h-6
c-67 0 -114 66 -114 144v275c0 77 42 134 106 134h6c59 0 89 -30 124 -69v65zM247 151v227c0 15 -5 29 -20 29s-18 -12 -18 -27v-230c0 -15 3 -27 18 -27s20 13 20 28z" />
    <glyph glyph-name="atilde.alt" horiz-adv-x="425" 
d="M411 414v-278c0 -96 2 -110 10 -131v-5h-186c-4 7 -10 22 -10 61c-19 -29 -57 -69 -116 -69h-3c-64 0 -98 53 -98 113v93c0 63 29 98 80 121c31 13 106 39 122 47c11 5 13 6 13 19v28c0 12 -5 18 -16 18h-2c-11 0 -17 -6 -17 -18v-46h-173v46c0 95 71 137 180 137h22
c121 0 194 -37 194 -136zM223 139v113c-7 -3 -15 -9 -22 -17c-7 -9 -9 -17 -9 -37v-60c0 -11 3 -20 16 -20c12 0 15 10 15 21zM247 714h100v-78c0 -40 -21 -71 -69 -71h-4c-19 0 -39 5 -67 20c-15 8 -25 15 -32 15c-5 0 -7 -4 -7 -12v-26h-101v78c0 40 22 71 70 71h3
c19 0 35 -4 66 -19c15 -7 27 -16 34 -16c5 0 7 4 7 12v26z" />
    <glyph glyph-name="atilde.alt2" horiz-adv-x="454" 
d="M248 538h193v-538h-193v62c-29 -34 -67 -73 -116 -73h-6c-67 0 -114 66 -114 144v275c0 77 42 134 106 134h6c59 0 89 -30 124 -69v65zM247 151v227c0 15 -5 29 -20 29s-18 -12 -18 -27v-230c0 -15 3 -27 18 -27s20 13 20 28zM266 708h100v-78c0 -40 -21 -71 -69 -71h-4
c-19 0 -39 5 -67 20c-15 8 -25 15 -32 15c-5 0 -7 -4 -7 -12v-26h-101v78c0 40 22 71 70 71h3c19 0 35 -4 66 -19c15 -7 27 -16 34 -16c5 0 7 4 7 12v26z" />
    <glyph glyph-name="racute.alt" horiz-adv-x="352" 
d="M206 538v-93c20 60 52 97 97 97h6c13 0 28 -3 32 -4v-216c-11 3 -25 7 -60 7h-8c-47 0 -65 -17 -65 -48v-281h-195v538h193zM116 558l52 157h152l-57 -157h-147z" />
    <glyph glyph-name="rcaron.alt" horiz-adv-x="352" 
d="M206 538v-93c20 60 52 97 97 97h6c13 0 28 -3 32 -4v-216c-11 3 -25 7 -60 7h-8c-47 0 -65 -17 -65 -48v-281h-195v538h193zM109 558l-74 157h126l24 -66l25 66h128l-75 -157h-154z" />
    <glyph glyph-name="rcommaaccent.alt" horiz-adv-x="352" 
d="M206 538v-93c20 60 52 97 97 97h6c13 0 28 -3 32 -4v-216c-11 3 -25 7 -60 7h-8c-47 0 -65 -17 -65 -48v-281h-195v538h193zM163 -220h-82c11 27 15 51 16 74h-62v126h152v-85c0 -51 -16 -96 -24 -115z" />
    <glyph glyph-name="space_uni0326.alt" 
d="M119 758h82c-11 -27 -15 -51 -16 -74h62v-126h-152v85c0 51 16 96 24 115z" />
    <glyph glyph-name="ordfeminine.alt" horiz-adv-x="264" 
d="M139 471c-11 -16 -34 -41 -70 -41h-2c-39 0 -60 29 -60 66v47c0 43 18 58 53 73c20 7 64 21 71 26c5 2 8 6 8 11v14c0 8 -4 12 -11 12s-10 -4 -10 -12v-23h-106v27c0 56 46 79 109 79h13c79 0 119 -22 119 -79v-193c0 -21 3 -32 6 -39v-4h-113c-4 5 -7 15 -7 36zM139 514
v62c-7 -3 -11 -5 -14 -8c-4 -4 -6 -11 -6 -22v-33c0 -7 3 -10 10 -10s10 6 10 11z" />
    <glyph glyph-name="ordfeminine.alt2" horiz-adv-x="280" 
d="M152 744h117v-309h-117v36c-16 -20 -39 -42 -70 -42h-3c-43 0 -69 38 -69 83v156c0 45 24 78 64 78h4c36 0 54 -17 74 -40v38zM152 522v129c0 9 -3 17 -12 17s-10 -7 -10 -16v-130c0 -8 1 -16 10 -16s12 8 12 16z" />
    <glyph glyph-name="emdash.alt" horiz-adv-x="1304" 
d="M13 359h1278v-117h-1278v117z" />
    <glyph glyph-name="caron.alt" 
d="M106 578l5 166h123l-11 -166h-117z" />
    <glyph glyph-name="plus.uc" horiz-adv-x="350" 
d="M115 175v114h-103v106h103v114h120v-114h103v-106h-103v-114h-120z" />
    <glyph glyph-name="minus.uc" horiz-adv-x="338" 
d="M12 395h314v-106h-314v106z" />
    <glyph glyph-name="multiply.uc" horiz-adv-x="326" 
d="M241 186l-78 78l-78 -78l-77 76l78 79l-78 80l77 77l78 -79l78 79l77 -77l-79 -80l79 -79z" />
    <glyph glyph-name="divide.uc" horiz-adv-x="350" 
d="M12 395h326v-106h-326v106zM234 530v-117h-118v117h118zM234 270v-116h-118v116h118z" />
    <glyph glyph-name="equal.uc" horiz-adv-x="347" 
d="M14 334h319v-103h-319v103zM14 453h319v-103h-319v103z" />
    <glyph glyph-name="less.uc" horiz-adv-x="302" 
d="M12 287v110l276 109v-124l-139 -41l139 -39v-125z" />
    <glyph glyph-name="greater.uc" horiz-adv-x="303" 
d="M14 382v124l277 -109v-110l-277 -110v125l139 39z" />
    <glyph glyph-name="questiondown.uc" horiz-adv-x="425" 
d="M157 538h144v-75c0 -48 -4 -68 -31 -108l-56 -86c-13 -20 -15 -33 -15 -57v-53c0 -16 3 -26 18 -26c16 0 18 11 18 27v108h176v-112c0 -80 -30 -165 -178 -165h-44c-130 0 -183 70 -183 161v50c0 65 10 99 47 144l79 97c20 25 25 35 25 66v29zM146 564v180h167v-180h-167
z" />
    <glyph glyph-name="exclamdown.uc" horiz-adv-x="223" 
d="M194 744v-180h-166v180h166zM217 0h-211l51 538h108z" />
    <glyph glyph-name="hyphen.uc" horiz-adv-x="220" 
d="M13 427h194v-174h-194v174z" />
    <glyph glyph-name="endash.uc" horiz-adv-x="438" 
d="M13 400h412v-117h-412v117z" />
    <glyph glyph-name="emdash.uc" horiz-adv-x="665" 
d="M13 400h639v-117h-639v117z" />
    <glyph glyph-name="guilsinglleft.uc" horiz-adv-x="210" 
d="M156 309l47 -177h-146l-48 140v73l48 137h147z" />
    <glyph glyph-name="guilsinglright.uc" horiz-adv-x="211" 
d="M55 309l-49 173h147l49 -137v-74l-49 -139h-146z" />
    <glyph glyph-name="guillemotleft.uc" horiz-adv-x="360" 
d="M143 309l57 -177h-137l-54 140v73l54 137h138zM307 309l46 -177h-135l-55 177l55 173h136z" />
    <glyph glyph-name="guillemotright.uc" horiz-adv-x="360" 
d="M160 132l57 173l-57 177h137l54 -139v-73l-54 -138h-137zM6 132l49 173l-48 177h136l55 -177l-55 -173h-137z" />
    <glyph glyph-name="parenleft.uc" horiz-adv-x="241" 
d="M14 364v14c0 211 81 371 119 438h110c-24 -77 -68 -249 -68 -445c0 -195 45 -375 69 -452h-111c-38 68 -119 232 -119 445z" />
    <glyph glyph-name="parenright.uc" horiz-adv-x="241" 
d="M226 378v-14c0 -212 -79 -379 -119 -445h-110c24 77 68 257 68 452c0 196 -44 368 -68 445h110c40 -66 119 -228 119 -438z" />
    <glyph glyph-name="bracketleft.uc" horiz-adv-x="229" 
d="M221 817v-130h-55v-638h55v-129h-206v897h206z" />
    <glyph glyph-name="bracketright.uc" horiz-adv-x="229" 
d="M8 -80v129h55v638h-55v130h207v-897h-207z" />
    <glyph glyph-name="braceleft.uc" horiz-adv-x="246" 
d="M205 262c0 -42 -31 -143 -31 -189c0 -24 13 -32 36 -32h28v-121h-83c-79 0 -126 33 -126 113c0 46 32 168 32 226c0 31 -14 46 -41 46h-12v121h20c27 0 33 16 33 39c0 69 -32 172 -32 233c0 77 45 120 126 120h83v-124h-28c-24 0 -36 -11 -36 -32c0 -37 31 -152 31 -194
c0 -60 -21 -89 -77 -104c56 -17 77 -51 77 -102z" />
    <glyph glyph-name="braceright.uc" horiz-adv-x="246" 
d="M42 468c0 42 30 157 30 194c0 21 -12 32 -36 32h-28v124h82c84 0 128 -43 128 -120c0 -61 -32 -164 -32 -233c0 -23 5 -39 33 -39h19v-121h-12c-27 0 -40 -15 -40 -46c0 -58 32 -180 32 -226c0 -80 -48 -113 -128 -113h-82v121h28c24 0 36 8 36 32c0 46 -30 147 -30 189
c0 51 19 85 75 102c-56 15 -75 44 -75 104z" />
    <glyph glyph-name="slash.uc" horiz-adv-x="258" 
d="M264 816l-142 -897h-129l141 897h130z" />
    <glyph glyph-name="backslash.uc" horiz-adv-x="258" 
d="M135 -81l-141 897h130l141 -897h-130z" />
    <glyph glyph-name="bar.uc" horiz-adv-x="220" 
d="M171 816v-897h-123v897h123z" />
    <glyph glyph-name="at.uc" horiz-adv-x="718" 
d="M544 71l59 -64c-37 -48 -121 -101 -246 -101h-1c-127 0 -342 45 -342 389v95c0 238 136 394 353 394h1c187 0 338 -81 338 -324v-74c0 -244 -83 -297 -184 -297h-26c-60 0 -98 28 -115 69c-36 -49 -74 -69 -105 -69h-5c-63 0 -114 56 -109 135l13 252c4 77 46 117 95 117
h7c51 0 86 -31 109 -63l3 59h176l-22 -386c-1 -11 2 -21 14 -21c29 0 43 99 43 204v71c0 208 -113 239 -232 239h-1c-141 0 -243 -96 -243 -307v-94c0 -275 151 -299 232 -299h1c98 0 157 45 187 75zM368 220l14 239c1 16 -4 24 -15 24s-13 -9 -14 -24l-13 -238
c-1 -14 3 -21 13 -21c9 0 14 7 15 20z" />
    <glyph glyph-name="grave.uc" 
d="M225 895l48 -131h-151l-53 131h156z" />
    <glyph glyph-name="dieresis.uc" 
d="M320 895v-131h-138v131h138zM160 895v-131h-138v131h138z" />
    <glyph glyph-name="macron.uc" 
d="M45 771v112h251v-112h-251z" />
    <glyph glyph-name="acute.uc" 
d="M68 764l51 131h155l-55 -131h-151z" />
    <glyph glyph-name="circumflex.uc" 
d="M248 895l77 -131h-130l-26 46l-24 -46h-129l76 131h156z" />
    <glyph glyph-name="caron.uc" 
d="M92 764l-76 131h129l24 -48l26 48h130l-77 -131h-156z" />
    <glyph glyph-name="breve.uc" 
d="M173 760h-5c-92 0 -137 56 -137 124v11h115v-9c0 -16 7 -27 24 -27h1c19 0 25 11 25 27v9h114v-11c0 -68 -46 -124 -137 -124z" />
    <glyph glyph-name="dotaccent.uc" 
d="M268 921v-157h-195v157h195z" />
    <glyph glyph-name="ring.uc" 
d="M134 847c0 -23 16 -37 37 -36c21 -1 37 13 37 36c0 21 -16 36 -37 36s-37 -15 -37 -36zM171 935c53 0 93 -35 93 -87c0 -53 -40 -89 -93 -89s-93 36 -93 89c0 52 40 87 93 87z" />
    <glyph glyph-name="tilde.uc" 
d="M171 783c-19 7 -28 11 -35 11c-5 0 -8 -4 -8 -12v-20h-98v69c0 41 21 71 65 71h3c24 0 42 -8 73 -19c19 -7 28 -11 35 -11c5 0 8 4 8 12v21h98v-65c0 -40 -20 -74 -64 -74h-5c-21 0 -41 6 -72 17z" />
    <glyph glyph-name="hungarumlaut.uc" 
d="M16 764l31 131h129l-34 -131h-126zM164 764l34 131h129l-37 -131h-126z" />
    <glyph glyph-name="emdash.altuc" horiz-adv-x="1304" 
d="M13 400h1278v-117h-1278v117z" />
    <glyph glyph-name="f.short" horiz-adv-x="327" 
d="M318 744v-146h-39c-15 0 -17 -6 -17 -18v-42h55v-153h-55v-385h-195v385h-61v153h61v103c0 71 52 103 102 103h149z" />
    <glyph glyph-name="f_f.short" horiz-adv-x="589" 
d="M314 744v-146h-35c-15 0 -17 -6 -17 -18v-42h67v103c0 71 52 103 102 103h149v-146h-39c-15 0 -17 -6 -17 -18v-42h55v-153h-55v-385h-195v385h-67v-385h-195v385h-61v153h61v103c0 71 52 103 102 103h145z" />
    <glyph glyph-name="j.short" horiz-adv-x="221" 
d="M208 715v-157h-195v157h195zM-22 -24h19c11 0 16 3 16 18v544h195v-636c0 -61 -41 -90 -85 -90h-145v164z" />
    <glyph glyph-name="brokenbar" unicode="&#xa6;" horiz-adv-x="220" 
d="M171 347v-478h-123v478h123zM171 808v-429h-123v429h123z" />
    <glyph glyph-name="onequarter" unicode="&#xbc;" horiz-adv-x="465" 
d="M48 616h-43v89c39 0 54 14 55 39h109v-343h-121v215zM335 744h110l-328 -744h-108zM219 46v84c21 51 61 153 82 214h129v-200h29v-98h-29v-46h-115v46h-96zM291 144h24v65z" />
    <glyph glyph-name="onehalf" unicode="&#xbd;" horiz-adv-x="517" 
d="M335 744h110l-328 -744h-108zM48 616h-43v89c39 0 54 14 55 39h109v-343h-121v215zM510 0h-260v46c0 55 18 70 90 142c39 34 44 43 44 56v14c0 8 -3 12 -8 12c-7 0 -11 -4 -11 -12v-36h-111v29c0 50 26 98 113 98h18c89 0 121 -36 121 -93v-10c0 -48 -26 -72 -86 -111
c-61 -40 -60 -41 -60 -49h52v37h98v-123z" />
    <glyph glyph-name="threequarters" unicode="&#xbe;" horiz-adv-x="533" 
d="M402 744h110l-328 -744h-108zM118 632h-111v33c0 47 32 85 112 85h15c75 0 120 -24 120 -83v-12c0 -35 -24 -53 -39 -58c18 -5 48 -24 48 -71v-27c0 -65 -38 -106 -126 -106h-17c-92 0 -115 43 -115 92v42h115v-37c0 -7 3 -10 9 -10c5 0 8 3 8 10v38c0 7 -3 11 -9 11h-52
v83h49c7 0 10 3 10 10v32c0 6 -3 9 -9 9c-5 0 -8 -3 -8 -9v-32zM288 46v84c21 51 61 153 82 214h129v-200h29v-98h-29v-46h-115v46h-96zM360 144h24v65z" />
    <glyph glyph-name="Eth" unicode="&#xd0;" horiz-adv-x="478" 
d="M25 472v272h286c85 0 154 -43 154 -169v-397c0 -127 -68 -178 -152 -178h-288v302h-22v170h22zM220 302v-139h19c19 0 24 12 24 39v347c0 23 -5 36 -24 36h-19v-113h33v-170h-33z" />
    <glyph glyph-name="multiply" unicode="&#xd7;" horiz-adv-x="326" 
d="M241 147l-78 78l-78 -78l-77 76l78 79l-78 80l77 77l78 -79l78 79l77 -77l-79 -80l79 -79z" />
    <glyph glyph-name="Yacute" unicode="&#xdd;" horiz-adv-x="437" 
d="M442 744l-119 -476v-268h-199v268l-129 476h198l36 -223l33 223h180zM151 764l51 131h155l-55 -131h-151z" />
    <glyph glyph-name="Thorn" unicode="&#xde;" horiz-adv-x="457" 
d="M302 171h-87v-171h-200v744h200v-133h85c87 0 147 -44 147 -152v-134c0 -102 -62 -154 -145 -154zM215 469v-149h13c17 0 23 7 23 30v91c0 19 -4 28 -23 28h-13z" />
    <glyph glyph-name="eth" unicode="&#xf0;" horiz-adv-x="448" 
d="M76 543v96l62 20l-52 85h194l19 -32l84 28v-96l-34 -11l38 -59c40 -67 50 -111 50 -188v-205c0 -112 -74 -194 -203 -194h-22c-141 0 -201 71 -201 184v206c0 92 37 163 112 163h8c51 0 88 -31 112 -51l-56 90zM245 162v217c0 15 -1 31 -21 31c-19 0 -19 -16 -19 -31
v-217c0 -19 3 -30 19 -30s21 11 21 30z" />
    <glyph glyph-name="yacute" unicode="&#xfd;" horiz-adv-x="427" 
d="M110 36l-113 502h194l29 -272l20 272h190l-133 -643c-16 -68 -58 -83 -90 -83h-167v155h61c13 0 16 4 17 17v4c0 8 -1 21 -8 48zM141 558l52 157h152l-57 -157h-147z" />
    <glyph glyph-name="thorn" unicode="&#xfe;" horiz-adv-x="454" 
d="M13 744h195v-277c43 60 80 80 124 80h5c72 0 105 -58 105 -146v-274c0 -80 -53 -138 -116 -138h-3c-45 0 -80 19 -115 66v-243h-195v932zM208 387v-243c0 -12 2 -26 18 -26s19 14 19 26v243c0 15 -4 26 -19 26c-16 0 -18 -11 -18 -26z" />
    <glyph glyph-name="Amacron" unicode="&#x100;" horiz-adv-x="450" 
d="M260 0l-9 92h-73l-9 -92h-172l97 744h251l108 -744h-193zM214 455l-19 -196h39zM94 771v112h251v-112h-251z" />
    <glyph glyph-name="amacron" unicode="&#x101;" horiz-adv-x="440" 
d="M223 139v113c-7 -3 -15 -9 -22 -17c-7 -9 -9 -17 -9 -37v-60c0 -11 3 -20 16 -20c12 0 15 10 15 21zM8 105v93c0 63 29 98 80 121c31 13 106 39 122 47c11 5 13 6 13 19v28c0 12 -5 18 -16 18h-2c-11 0 -17 -6 -17 -18v-46h-173v46c0 95 71 137 180 137h22
c121 0 194 -37 194 -136v-255c0 -7 4 -10 11 -10h14v-149h-165c-29 0 -46 26 -46 61c-18 -29 -57 -69 -116 -69h-3c-64 0 -98 53 -98 113zM83 570v113h251v-113h-251z" />
    <glyph glyph-name="Abreve" unicode="&#x102;" horiz-adv-x="450" 
d="M260 0l-9 92h-73l-9 -92h-172l97 744h251l108 -744h-193zM214 455l-19 -196h39zM221 760h-5c-92 0 -137 56 -137 124v11h115v-9c0 -16 7 -27 24 -27h1c19 0 25 11 25 27v9h114v-11c0 -68 -46 -124 -137 -124z" />
    <glyph glyph-name="abreve" unicode="&#x103;" horiz-adv-x="440" 
d="M223 139v113c-7 -3 -15 -9 -22 -17c-7 -9 -9 -17 -9 -37v-60c0 -11 3 -20 16 -20c12 0 15 10 15 21zM8 105v93c0 63 29 98 80 121c31 13 106 39 122 47c11 5 13 6 13 19v28c0 12 -5 18 -16 18h-2c-11 0 -17 -6 -17 -18v-46h-173v46c0 95 71 137 180 137h22
c121 0 194 -37 194 -136v-255c0 -7 4 -10 11 -10h14v-149h-165c-29 0 -46 26 -46 61c-18 -29 -57 -69 -116 -69h-3c-64 0 -98 53 -98 113zM210 561h-4c-92 0 -137 49 -137 130v14h114v-8c0 -25 8 -37 24 -37h1c17 0 25 12 25 37v8h113v-14c0 -81 -51 -130 -136 -130z" />
    <glyph glyph-name="Aogonek" unicode="&#x104;" horiz-adv-x="450" 
d="M260 0l-9 92h-73l-9 -92h-172l97 744h251l108 -744h-193zM214 455l-19 -196h39zM281 -122v11c0 37 30 70 90 111h82c-32 -35 -40 -50 -40 -67v-3c0 -13 6 -21 27 -21h13v-97h-82c-55 0 -90 26 -90 66z" />
    <glyph glyph-name="aogonek" unicode="&#x105;" horiz-adv-x="440" 
d="M223 139v113c-7 -3 -15 -9 -22 -17c-7 -9 -9 -17 -9 -37v-60c0 -11 3 -20 16 -20c12 0 15 10 15 21zM8 105v93c0 63 29 98 80 121c31 13 106 39 122 47c11 5 13 6 13 19v28c0 12 -5 18 -16 18h-2c-11 0 -17 -6 -17 -18v-46h-173v46c0 95 71 137 180 137h22
c121 0 194 -37 194 -136v-255c0 -7 4 -10 11 -10h14v-149h-165c-29 0 -46 26 -46 61c-18 -29 -57 -69 -116 -69h-3c-64 0 -98 53 -98 113zM264 -122v11c0 37 30 70 90 111h82c-32 -35 -40 -50 -40 -67v-3c0 -13 6 -21 27 -21h13v-97h-82c-55 0 -90 26 -90 66z" />
    <glyph glyph-name="Cacute" unicode="&#x106;" horiz-adv-x="468" 
d="M167 770l49 125h155l-53 -125h-151zM260 190v132h196v-139c0 -99 -57 -194 -199 -194h-33c-149 0 -211 80 -211 219v333c0 124 60 214 210 214h33c137 0 200 -73 200 -185v-119h-196v111c0 19 -3 30 -20 30c-16 0 -20 -9 -20 -30v-372c0 -21 4 -33 20 -33
c17 0 20 13 20 33z" />
    <glyph glyph-name="cacute" unicode="&#x107;" horiz-adv-x="419" 
d="M144 565l50 150h152l-55 -150h-147zM236 242h173v-100c0 -93 -66 -155 -173 -155h-40c-109 0 -185 52 -185 176v206c0 96 48 182 184 182h42c127 0 172 -67 172 -159v-72h-173v81c0 13 -5 20 -16 20c-9 0 -14 -7 -14 -20v-257c0 -14 5 -21 14 -21c11 0 16 7 16 21v98z
" />
    <glyph glyph-name="Ccircumflex" unicode="&#x108;" horiz-adv-x="468" 
d="M326 895l72 -125h-131l-26 43l-24 -43h-130l71 125h168zM260 190v132h196v-139c0 -99 -57 -194 -199 -194h-33c-149 0 -211 80 -211 219v333c0 124 60 214 210 214h33c137 0 200 -73 200 -185v-119h-196v111c0 19 -3 30 -20 30c-16 0 -20 -9 -20 -30v-372
c0 -21 4 -33 20 -33c17 0 20 13 20 33z" />
    <glyph glyph-name="ccircumflex" unicode="&#x109;" horiz-adv-x="419" 
d="M294 715l75 -150h-128l-25 60l-24 -60h-126l74 150h154zM236 242h173v-100c0 -93 -66 -155 -173 -155h-40c-109 0 -185 52 -185 176v206c0 96 48 182 184 182h42c127 0 172 -67 172 -159v-72h-173v81c0 13 -5 20 -16 20c-9 0 -14 -7 -14 -20v-257c0 -14 5 -21 14 -21
c11 0 16 7 16 21v98z" />
    <glyph glyph-name="Cdotaccent" unicode="&#x10a;" horiz-adv-x="468" 
d="M338 921v-151h-195v151h195zM260 190v132h196v-139c0 -99 -57 -194 -199 -194h-33c-149 0 -211 80 -211 219v333c0 124 60 214 210 214h33c137 0 200 -73 200 -185v-119h-196v111c0 19 -3 30 -20 30c-16 0 -20 -9 -20 -30v-372c0 -21 4 -33 20 -33c17 0 20 13 20 33z" />
    <glyph glyph-name="cdotaccent" unicode="&#x10b;" horiz-adv-x="419" 
d="M315 715v-150h-195v150h195zM236 242h173v-100c0 -93 -66 -155 -173 -155h-40c-109 0 -185 52 -185 176v206c0 96 48 182 184 182h42c127 0 172 -67 172 -159v-72h-173v81c0 13 -5 20 -16 20c-9 0 -14 -7 -14 -20v-257c0 -14 5 -21 14 -21c11 0 16 7 16 21v98z" />
    <glyph glyph-name="Ccaron" unicode="&#x10c;" horiz-adv-x="468" 
d="M158 770l-72 125h132l24 -48l26 48h133l-73 -125h-170zM260 190v132h196v-139c0 -99 -57 -194 -199 -194h-33c-149 0 -211 80 -211 219v333c0 124 60 214 210 214h33c137 0 200 -73 200 -185v-119h-196v111c0 19 -3 30 -20 30c-16 0 -20 -9 -20 -30v-372
c0 -21 4 -33 20 -33c17 0 20 13 20 33z" />
    <glyph glyph-name="ccaron" unicode="&#x10d;" horiz-adv-x="419" 
d="M138 565l-71 150h126l24 -66l25 66h128l-72 -150h-160zM236 242h173v-100c0 -93 -66 -155 -173 -155h-40c-109 0 -185 52 -185 176v206c0 96 48 182 184 182h42c127 0 172 -67 172 -159v-72h-173v81c0 13 -5 20 -16 20c-9 0 -14 -7 -14 -20v-257c0 -14 5 -21 14 -21
c11 0 16 7 16 21v98z" />
    <glyph glyph-name="Dcaron" unicode="&#x10e;" horiz-adv-x="469" 
d="M15 0v744h286c85 0 154 -43 154 -169v-397c0 -127 -68 -178 -152 -178h-288zM210 585v-422h19c19 0 24 12 24 39v347c0 23 -5 36 -24 36h-19zM128 764l-76 131h129l24 -48l26 48h130l-77 -131h-156z" />
    <glyph glyph-name="dcaron" unicode="&#x10f;" horiz-adv-x="455" 
d="M248 744h194v-744h-192v60c-27 -32 -64 -71 -117 -71h-5c-69 0 -116 66 -116 144v275c0 77 42 136 106 136h6c59 0 95 -36 124 -69v269zM248 149v229c0 16 -4 29 -19 29c-17 0 -20 -12 -20 -27v-232c0 -15 3 -27 20 -27c15 0 19 13 19 28zM456 578l5 166h123l-11 -166
h-117z" />
    <glyph glyph-name="Dcroat" unicode="&#x110;" horiz-adv-x="478" 
d="M25 472v272h286c85 0 154 -43 154 -169v-397c0 -127 -68 -178 -152 -178h-288v302h-22v170h22zM220 302v-139h19c19 0 24 12 24 39v347c0 23 -5 36 -24 36h-19v-113h33v-170h-33z" />
    <glyph glyph-name="dcroat" unicode="&#x111;" horiz-adv-x="455" 
d="M165 567v134h303v-134h-303zM248 744h194v-744h-192v60c-27 -32 -64 -71 -117 -71h-5c-69 0 -116 66 -116 144v275c0 77 42 136 106 136h6c59 0 95 -36 124 -69v269zM248 149v229c0 16 -4 29 -19 29c-17 0 -20 -12 -20 -27v-232c0 -15 3 -27 20 -27c15 0 19 13 19 28z
" />
    <glyph glyph-name="Emacron" unicode="&#x112;" horiz-adv-x="372" 
d="M15 744h342v-179h-147v-89h121v-183h-121v-112h152v-181h-347v744zM62 771v112h251v-112h-251z" />
    <glyph glyph-name="emacron" unicode="&#x113;" horiz-adv-x="431" 
d="M201 551h37c104 0 183 -49 183 -185v-117h-220v-108c0 -20 6 -26 18 -26c16 0 19 10 19 26v72h183v-49c0 -113 -70 -177 -183 -177h-37c-120 0 -190 56 -190 184v192c0 117 62 188 190 188zM201 406v-55h37v55c0 23 -2 31 -19 31c-15 0 -18 -8 -18 -31zM92 571v113h251
v-113h-251z" />
    <glyph glyph-name="Ebreve" unicode="&#x114;" horiz-adv-x="372" 
d="M15 744h342v-179h-147v-89h121v-183h-121v-112h152v-181h-347v744zM192 760h-5c-92 0 -137 56 -137 124v11h115v-9c0 -16 7 -27 24 -27h1c19 0 25 11 25 27v9h114v-11c0 -68 -46 -124 -137 -124z" />
    <glyph glyph-name="ebreve" unicode="&#x115;" horiz-adv-x="431" 
d="M201 551h37c104 0 183 -49 183 -185v-117h-220v-108c0 -20 6 -26 18 -26c16 0 19 10 19 26v72h183v-49c0 -113 -70 -177 -183 -177h-37c-120 0 -190 56 -190 184v192c0 117 62 188 190 188zM201 406v-55h37v55c0 23 -2 31 -19 31c-15 0 -18 -8 -18 -31zM219 562h-4
c-92 0 -137 49 -137 130v14h114v-8c0 -25 8 -37 24 -37h1c17 0 25 12 25 37v8h113v-14c0 -81 -51 -130 -136 -130z" />
    <glyph glyph-name="Edotaccent" unicode="&#x116;" horiz-adv-x="372" 
d="M15 744h342v-179h-147v-89h121v-183h-121v-112h152v-181h-347v744zM287 921v-157h-195v157h195z" />
    <glyph glyph-name="edotaccent" unicode="&#x117;" horiz-adv-x="431" 
d="M315 715v-150h-195v150h195zM201 551h37c104 0 183 -49 183 -185v-117h-220v-108c0 -20 6 -26 18 -26c16 0 19 10 19 26v72h183v-49c0 -113 -70 -177 -183 -177h-37c-120 0 -190 56 -190 184v192c0 117 62 188 190 188zM201 406v-55h37v55c0 23 -2 31 -19 31
c-15 0 -18 -8 -18 -31z" />
    <glyph glyph-name="Eogonek" unicode="&#x118;" horiz-adv-x="372" 
d="M15 744h342v-179h-147v-89h121v-183h-121v-112h152v-181h-347v744zM140 -122v11c0 37 30 70 90 111h82c-32 -35 -40 -50 -40 -67v-3c0 -13 6 -21 27 -21h13v-97h-82c-55 0 -90 26 -90 66z" />
    <glyph glyph-name="eogonek" unicode="&#x119;" horiz-adv-x="431" 
d="M350 0c-29 -32 -40 -48 -40 -67v-3c0 -13 6 -21 27 -21h13v-97h-82c-55 0 -90 26 -90 66v11c0 33 25 65 75 98h-15h-37c-120 0 -190 56 -190 184v192c0 117 63 188 190 188h37c104 0 183 -49 183 -185v-117h-220v-108c0 -20 6 -26 18 -26c16 0 19 10 19 26v72h183v-49
c0 -85 -41 -132 -71 -164zM201 406v-55h37v55c0 23 -2 31 -19 31c-15 0 -18 -8 -18 -31z" />
    <glyph glyph-name="Ecaron" unicode="&#x11a;" horiz-adv-x="372" 
d="M15 744h342v-179h-147v-89h121v-183h-121v-112h152v-181h-347v744zM111 764l-76 131h129l24 -48l26 48h130l-77 -131h-156z" />
    <glyph glyph-name="ecaron" unicode="&#x11b;" horiz-adv-x="431" 
d="M137 565l-71 146h126l24 -62l25 62h128l-72 -146h-160zM201 551h37c104 0 183 -49 183 -185v-117h-220v-108c0 -20 6 -26 18 -26c16 0 19 10 19 26v72h183v-49c0 -113 -70 -177 -183 -177h-37c-120 0 -190 56 -190 184v192c0 117 62 188 190 188zM201 406v-55h37v55
c0 23 -2 31 -19 31c-15 0 -18 -8 -18 -31z" />
    <glyph glyph-name="Gcircumflex" unicode="&#x11c;" horiz-adv-x="481" 
d="M324 895l72 -125h-131l-26 43l-24 -43h-130l71 125h168zM179 -11h-6c-110 0 -160 90 -160 194v367c0 111 55 205 212 205h29c161 0 206 -95 206 -185v-91h-193v85c0 19 -5 30 -24 30s-23 -11 -23 -30v-382c0 -25 10 -37 29 -37s29 12 29 37v114h-43v149h234v-445h-135
c-3 14 -15 55 -20 66c-28 -39 -70 -77 -135 -77z" />
    <glyph glyph-name="gcircumflex" unicode="&#x11d;" horiz-adv-x="455" 
d="M248 -44v102c-18 -20 -58 -67 -116 -67c-69 0 -120 50 -120 135v285c0 67 37 133 110 133h7c57 0 94 -42 121 -71v65h192v-577c0 -100 -69 -157 -190 -157h-46c-133 0 -185 57 -185 126v52h190v-26c0 -13 6 -20 19 -20c12 0 18 7 18 20zM248 144v238c0 15 -4 26 -19 26
c-17 0 -19 -13 -19 -25v-239c0 -15 2 -27 19 -27c15 0 19 14 19 27zM302 715l75 -157h-129l-25 67l-24 -67h-127l74 157h156z" />
    <glyph glyph-name="Gbreve" unicode="&#x11e;" horiz-adv-x="481" 
d="M179 -11h-6c-110 0 -160 90 -160 194v367c0 111 55 205 212 205h29c161 0 206 -95 206 -185v-91h-193v85c0 19 -5 30 -24 30s-23 -11 -23 -30v-382c0 -25 10 -37 29 -37s29 12 29 37v114h-43v149h234v-445h-135c-3 14 -15 55 -20 66c-28 -39 -70 -77 -135 -77zM245 766
h-5c-92 0 -137 56 -137 124v11h115v-9c0 -16 7 -27 24 -27h1c19 0 25 11 25 27v9h114v-11c0 -68 -46 -124 -137 -124z" />
    <glyph glyph-name="gbreve" unicode="&#x11f;" horiz-adv-x="455" 
d="M248 -44v102c-18 -20 -58 -67 -116 -67c-69 0 -120 50 -120 135v285c0 67 37 133 110 133h7c57 0 94 -42 121 -71v65h192v-577c0 -100 -69 -157 -190 -157h-46c-133 0 -185 57 -185 126v52h190v-26c0 -13 6 -20 19 -20c12 0 18 7 18 20zM248 144v238c0 15 -4 26 -19 26
c-17 0 -19 -13 -19 -25v-239c0 -15 2 -27 19 -27c15 0 19 14 19 27zM226 555h-4c-92 0 -137 49 -137 130v14h114v-8c0 -25 8 -37 24 -37h1c17 0 25 12 25 37v8h113v-14c0 -81 -51 -130 -136 -130z" />
    <glyph glyph-name="Gdotaccent" unicode="&#x120;" horiz-adv-x="481" 
d="M339 921v-151h-195v151h195zM179 -11h-6c-110 0 -160 90 -160 194v367c0 111 55 205 212 205h29c161 0 206 -95 206 -185v-91h-193v85c0 19 -5 30 -24 30s-23 -11 -23 -30v-382c0 -25 10 -37 29 -37s29 12 29 37v114h-43v149h234v-445h-135c-3 14 -15 55 -20 66
c-28 -39 -70 -77 -135 -77z" />
    <glyph glyph-name="gdotaccent" unicode="&#x121;" horiz-adv-x="455" 
d="M248 -44v102c-18 -20 -58 -67 -116 -67c-69 0 -120 50 -120 135v285c0 67 37 133 110 133h7c57 0 94 -42 121 -71v65h192v-577c0 -100 -69 -157 -190 -157h-46c-133 0 -185 57 -185 126v52h190v-26c0 -13 6 -20 19 -20c12 0 18 7 18 20zM248 144v238c0 15 -4 26 -19 26
c-17 0 -19 -13 -19 -25v-239c0 -15 2 -27 19 -27c15 0 19 14 19 27zM322 715v-157h-195v157h195z" />
    <glyph glyph-name="uni0122" unicode="&#x122;" horiz-adv-x="481" 
d="M179 -11h-6c-110 0 -160 90 -160 194v367c0 111 55 205 212 205h29c161 0 206 -95 206 -185v-91h-193v85c0 19 -5 30 -24 30s-23 -11 -23 -30v-382c0 -25 10 -37 29 -37s29 12 29 37v114h-43v149h234v-445h-135c-3 14 -15 55 -20 66c-28 -39 -70 -77 -135 -77zM304 -224
h-82c11 27 15 51 16 74h-62v126h152v-85c0 -51 -16 -96 -24 -115z" />
    <glyph glyph-name="uni0123" unicode="&#x123;" horiz-adv-x="455" 
d="M248 -44v102c-18 -20 -58 -67 -116 -67c-69 0 -120 50 -120 135v285c0 67 37 133 110 133h7c57 0 94 -42 121 -71v65h192v-577c0 -100 -69 -157 -190 -157h-46c-133 0 -185 57 -185 126v52h190v-26c0 -13 6 -20 19 -20c12 0 18 7 18 20zM248 144v238c0 15 -4 26 -19 26
c-17 0 -19 -13 -19 -25v-239c0 -15 2 -27 19 -27c15 0 19 14 19 27zM166 758h82c-11 -27 -15 -51 -16 -74h62v-126h-152v85c0 51 16 96 24 115z" />
    <glyph glyph-name="Hcircumflex" unicode="&#x124;" horiz-adv-x="473" 
d="M215 285v-285h-200v744h200v-254h43v254h200v-744h-200v285h-43zM313 895l77 -131h-130l-26 46l-24 -46h-129l76 131h156z" />
    <glyph glyph-name="hcircumflex" unicode="&#x125;" horiz-adv-x="458" 
d="M13 0v744h195v-275c27 38 66 77 125 77h8c80 0 104 -70 104 -110v-436h-197v375c0 13 -4 26 -21 26c-16 0 -19 -12 -19 -27v-374h-195zM299 895l77 -131h-130l-26 46l-24 -46h-129l76 131h156z" />
    <glyph glyph-name="Hbar" unicode="&#x126;" horiz-adv-x="484" 
d="M2 549v125h479v-125h-479zM220 285v-285h-200v744h200v-254h43v254h200v-744h-200v285h-43z" />
    <glyph glyph-name="hbar" unicode="&#x127;" horiz-adv-x="458" 
d="M-13 567v134h303v-134h-303zM13 0v744h195v-275c27 38 66 77 125 77h8c80 0 104 -70 104 -110v-436h-197v375c0 13 -4 26 -21 26c-16 0 -19 -12 -19 -27v-374h-195z" />
    <glyph glyph-name="Itilde" unicode="&#x128;" horiz-adv-x="230" 
d="M215 744v-744h-200v744h200zM115 783c-19 7 -28 11 -35 11c-5 0 -8 -4 -8 -12v-20h-98v69c0 41 21 71 65 71h3c24 0 42 -8 73 -19c19 -7 28 -11 35 -11c5 0 8 4 8 12v21h98v-65c0 -40 -20 -74 -64 -74h-5c-21 0 -41 6 -72 17z" />
    <glyph glyph-name="itilde" unicode="&#x129;" horiz-adv-x="221" 
d="M148 708h90v-77c0 -40 -18 -72 -63 -72h-4c-19 0 -36 6 -61 21c-15 9 -23 15 -30 15c-5 0 -7 -4 -7 -11v-28h-90v77c0 40 19 72 64 72h3c19 0 34 -5 59 -20c15 -9 25 -16 32 -16c5 0 7 3 7 10v29zM208 538v-538h-195v538h195z" />
    <glyph glyph-name="Imacron" unicode="&#x12a;" horiz-adv-x="230" 
d="M215 744v-744h-200v744h200zM-10 771v112h251v-112h-251z" />
    <glyph glyph-name="imacron" unicode="&#x12b;" horiz-adv-x="221" 
d="M-1 564v111h223v-111h-223zM208 538v-538h-195v538h195z" />
    <glyph glyph-name="Ibreve" unicode="&#x12c;" horiz-adv-x="230" 
d="M215 744v-744h-200v744h200zM118 760h-5c-92 0 -137 56 -137 124v11h115v-9c0 -16 7 -27 24 -27h1c19 0 25 11 25 27v9h114v-11c0 -68 -46 -124 -137 -124z" />
    <glyph glyph-name="ibreve" unicode="&#x12d;" horiz-adv-x="221" 
d="M113 555h-4c-88 0 -123 51 -123 119v27h104v-17c0 -20 5 -31 21 -31c14 0 21 10 21 31v17h103v-27c0 -68 -39 -119 -122 -119zM208 538v-538h-195v538h195z" />
    <glyph glyph-name="Iogonek" unicode="&#x12e;" horiz-adv-x="230" 
d="M215 744v-744h-200v744h200zM43 -122v11c0 37 30 70 90 111h82c-32 -35 -40 -50 -40 -67v-3c0 -13 6 -21 27 -21h13v-97h-82c-55 0 -90 26 -90 66z" />
    <glyph glyph-name="iogonek" unicode="&#x12f;" horiz-adv-x="221" 
d="M208 538v-538h-195v538h195zM208 715v-157h-195v157h195zM36 -122v11c0 37 30 70 90 111h82c-32 -35 -40 -50 -40 -67v-3c0 -13 6 -21 27 -21h13v-97h-82c-55 0 -90 26 -90 66z" />
    <glyph glyph-name="Idotaccent" unicode="&#x130;" horiz-adv-x="230" 
d="M215 744v-744h-200v744h200zM213 921v-157h-195v157h195z" />
    <glyph glyph-name="IJ" unicode="&#x132;" horiz-adv-x="673" 
d="M215 744v-744h-200v744h200zM237 338h182v-164c0 -13 6 -19 17 -19h1c11 0 16 6 16 19v570h205v-577c0 -103 -57 -178 -193 -178h-54c-128 0 -174 77 -174 170v179z" />
    <glyph glyph-name="ij" unicode="&#x133;" horiz-adv-x="438" 
d="M208 538v-538h-195v538h195zM208 715v-157h-195v157h195zM425 715v-157h-195v157h195zM176 -24h38c11 0 16 3 16 18v544h195v-636c0 -61 -41 -90 -85 -90h-164v164z" />
    <glyph glyph-name="Jcircumflex" unicode="&#x134;" horiz-adv-x="447" 
d="M11 338h182v-164c0 -13 6 -19 17 -19h1c11 0 16 6 16 19v570h205v-577c0 -103 -57 -178 -193 -178h-54c-128 0 -174 77 -174 170v179zM403 895l77 -131h-130l-26 46l-24 -46h-129l76 131h156z" />
    <glyph glyph-name="jcircumflex" unicode="&#x135;" horiz-adv-x="221" 
d="M186 715l52 -157h-111l-20 72l-19 -72h-109l51 157h156zM-41 -24h38c11 0 16 3 16 18v544h195v-636c0 -61 -41 -90 -85 -90h-164v164z" />
    <glyph glyph-name="uni0136" unicode="&#x136;" horiz-adv-x="477" 
d="M215 272v-272h-200v744h200v-238l66 238h199l-95 -324l96 -420h-208zM296 -220h-82c11 27 15 51 16 74h-62v126h152v-85c0 -51 -16 -96 -24 -115z" />
    <glyph glyph-name="uni0137" unicode="&#x137;" horiz-adv-x="440" 
d="M208 374l45 164h181l-71 -220l80 -318h-186l-49 206v-206h-195v744h195v-370zM282 -220h-82c11 27 15 51 16 74h-62v126h152v-85c0 -51 -16 -96 -24 -115z" />
    <glyph glyph-name="Lacute" unicode="&#x139;" horiz-adv-x="353" 
d="M15 744h200v-559h128v-185h-328v744zM40 764l51 131h155l-55 -131h-151z" />
    <glyph glyph-name="lacute" unicode="&#x13a;" horiz-adv-x="221" 
d="M208 744v-744h-195v744h195zM35 764l51 131h155l-55 -131h-151z" />
    <glyph glyph-name="uni013B" unicode="&#x13b;" horiz-adv-x="353" 
d="M15 744h200v-559h128v-185h-328v744zM234 -220h-82c11 27 15 51 16 74h-62v126h152v-85c0 -51 -16 -96 -24 -115z" />
    <glyph glyph-name="uni013C" unicode="&#x13c;" horiz-adv-x="221" 
d="M208 744v-744h-195v744h195zM164 -220h-82c11 27 15 51 16 74h-62v126h152v-85c0 -51 -16 -96 -24 -115z" />
    <glyph glyph-name="Lcaron" unicode="&#x13d;" horiz-adv-x="353" 
d="M15 744h200v-559h128v-185h-328v744zM229 578l5 166h123l-11 -166h-117z" />
    <glyph glyph-name="lcaron" unicode="&#x13e;" horiz-adv-x="221" 
d="M208 744v-744h-195v744h195zM222 578l5 166h123l-11 -166h-117z" />
    <glyph glyph-name="Ldot" unicode="&#x13f;" horiz-adv-x="404" 
d="M397 479v-180h-165v180h165zM15 744h200v-559h128v-185h-328v744z" />
    <glyph glyph-name="ldot" unicode="&#x140;" horiz-adv-x="398" 
d="M391 476v-179h-167v179h167zM208 744v-744h-195v744h195z" />
    <glyph glyph-name="Lslash" unicode="&#x141;" horiz-adv-x="366" 
d="M28 744h200v-265l75 51v-148l-75 -50v-147h128v-185h-328v201l-23 -15v143l23 15v400z" />
    <glyph glyph-name="lslash" unicode="&#x142;" horiz-adv-x="257" 
d="M226 392v-392h-195v274l-26 -15v135l26 16v334h195v-216l26 16v-136z" />
    <glyph glyph-name="Nacute" unicode="&#x143;" horiz-adv-x="474" 
d="M15 744h198l77 -338v338h168v-744h-180l-93 367v-367h-170v744zM163 764l51 131h155l-55 -131h-151z" />
    <glyph glyph-name="nacute" unicode="&#x144;" horiz-adv-x="458" 
d="M13 0v538h193v-71c29 39 69 79 127 79h8c83 0 104 -71 104 -111v-435h-197v375c0 13 -4 26 -21 26c-16 0 -19 -12 -19 -27v-374h-195zM155 558l52 157h152l-57 -157h-147z" />
    <glyph glyph-name="uni0145" unicode="&#x145;" horiz-adv-x="474" 
d="M15 744h198l77 -338v338h168v-744h-180l-93 367v-367h-170v744zM292 -220h-82c11 27 15 51 16 74h-62v126h152v-85c0 -51 -16 -96 -24 -115z" />
    <glyph glyph-name="uni0146" unicode="&#x146;" horiz-adv-x="458" 
d="M13 0v538h193v-71c29 39 69 79 127 79h8c83 0 104 -71 104 -111v-435h-197v375c0 13 -4 26 -21 26c-16 0 -19 -12 -19 -27v-374h-195zM282 -220h-82c11 27 15 51 16 74h-62v126h152v-85c0 -51 -16 -96 -24 -115z" />
    <glyph glyph-name="Ncaron" unicode="&#x147;" horiz-adv-x="474" 
d="M15 744h198l77 -338v338h168v-744h-180l-93 367v-367h-170v744zM161 764l-76 131h129l24 -48l26 48h130l-77 -131h-156z" />
    <glyph glyph-name="ncaron" unicode="&#x148;" horiz-adv-x="458" 
d="M13 0v538h193v-71c29 39 69 79 127 79h8c83 0 104 -71 104 -111v-435h-197v375c0 13 -4 26 -21 26c-16 0 -19 -12 -19 -27v-374h-195zM152 558l-74 157h126l24 -66l25 66h128l-75 -157h-154z" />
    <glyph glyph-name="napostrophe" unicode="&#x149;" horiz-adv-x="603" 
d="M158 0v538h193v-71c29 39 69 79 127 79h8c83 0 104 -71 104 -111v-435h-197v375c0 13 -4 26 -21 26c-16 0 -19 -12 -19 -27v-374h-195zM121 493h-90c11 23 26 67 27 99h-56v152h153v-113c0 -59 -23 -114 -34 -138z" />
    <glyph glyph-name="Eng" unicode="&#x14a;" horiz-adv-x="470" 
d="M351 -188h-126v149h44c13 0 20 8 20 24v15l-107 367v-367h-167v744h195l79 -339v339h165v-815c0 -69 -42 -117 -103 -117z" />
    <glyph glyph-name="eng" unicode="&#x14b;" horiz-adv-x="458" 
d="M248 -7v382c0 13 -4 26 -21 26c-16 0 -19 -12 -19 -27v-374h-195v538h192v-72c32 41 75 80 132 80h9c75 0 99 -71 99 -111v-533c0 -61 -41 -90 -84 -90h-141v163h11c12 0 17 3 17 18z" />
    <glyph glyph-name="Omacron" unicode="&#x14c;" horiz-adv-x="486" 
d="M473 523v-309c0 -148 -87 -225 -212 -225h-35c-137 0 -213 80 -213 225v309c0 143 64 232 213 232h34c148 0 213 -92 213 -232zM267 196v351c0 23 -5 34 -24 34c-15 0 -23 -11 -23 -34v-351c0 -21 8 -31 23 -31c16 0 24 10 24 31zM118 777v112h251v-112h-251z" />
    <glyph glyph-name="omacron" unicode="&#x14d;" horiz-adv-x="455" 
d="M11 194v150c0 140 71 207 200 207h33c133 0 200 -69 200 -207v-149c0 -143 -77 -208 -201 -208h-33c-136 0 -199 66 -199 207zM207 379v-218c0 -20 7 -30 20 -30c16 0 21 10 21 30v218c0 17 -4 31 -21 31s-20 -14 -20 -31zM103 571v113h251v-113h-251z" />
    <glyph glyph-name="Obreve" unicode="&#x14e;" horiz-adv-x="486" 
d="M473 523v-309c0 -148 -87 -225 -212 -225h-35c-137 0 -213 80 -213 225v309c0 143 64 232 213 232h34c148 0 213 -92 213 -232zM267 196v351c0 23 -5 34 -24 34c-15 0 -23 -11 -23 -34v-351c0 -21 8 -31 23 -31c16 0 24 10 24 31zM246 766h-5c-92 0 -137 56 -137 124v11
h115v-9c0 -16 7 -27 24 -27h1c19 0 25 11 25 27v9h114v-11c0 -68 -46 -124 -137 -124z" />
    <glyph glyph-name="obreve" unicode="&#x14f;" horiz-adv-x="455" 
d="M11 194v150c0 140 71 207 200 207h33c133 0 200 -69 200 -207v-149c0 -143 -77 -208 -201 -208h-33c-136 0 -199 66 -199 207zM207 379v-218c0 -20 7 -30 20 -30c16 0 21 10 21 30v218c0 17 -4 31 -21 31s-20 -14 -20 -31zM230 562h-4c-92 0 -137 49 -137 130v14h114v-8
c0 -25 8 -37 24 -37h1c17 0 25 12 25 37v8h113v-14c0 -81 -51 -130 -136 -130z" />
    <glyph glyph-name="Ohungarumlaut" unicode="&#x150;" horiz-adv-x="486" 
d="M111 770l30 125h129l-33 -125h-126zM259 770l33 125h129l-36 -125h-126zM473 523v-309c0 -148 -87 -225 -212 -225h-35c-137 0 -213 80 -213 225v309c0 143 64 232 213 232h34c148 0 213 -92 213 -232zM267 196v351c0 23 -5 34 -24 34c-15 0 -23 -11 -23 -34v-351
c0 -21 8 -31 23 -31c16 0 24 10 24 31z" />
    <glyph glyph-name="ohungarumlaut" unicode="&#x151;" horiz-adv-x="455" 
d="M99 565l32 150h126l-33 -150h-125zM245 565l33 150h126l-34 -150h-125zM11 194v150c0 140 71 207 200 207h33c133 0 200 -69 200 -207v-149c0 -143 -77 -208 -201 -208h-33c-136 0 -199 66 -199 207zM207 379v-218c0 -20 7 -30 20 -30c16 0 21 10 21 30v218
c0 17 -4 31 -21 31s-20 -14 -20 -31z" />
    <glyph glyph-name="Racute" unicode="&#x154;" horiz-adv-x="468" 
d="M215 602v-152h16c14 0 21 9 21 26v99c0 19 -3 27 -20 27h-17zM215 290v-290h-200v744h311c66 0 125 -41 125 -139v-74c0 -80 -38 -112 -71 -128c35 -13 73 -51 73 -106v-239c0 -23 3 -41 10 -53v-5h-197c-8 11 -14 29 -14 48v215c0 16 -2 27 -21 27h-16zM148 764l51 131
h155l-55 -131h-151z" />
    <glyph glyph-name="racute" unicode="&#x155;" horiz-adv-x="414" 
d="M206 538v-72c16 27 51 76 107 76h12c53 0 80 -38 80 -81v-194h-170v121c0 12 -5 18 -14 18s-13 -6 -13 -18v-388h-195v538h193zM150 558l52 157h152l-57 -157h-147z" />
    <glyph glyph-name="uni0156" unicode="&#x156;" horiz-adv-x="468" 
d="M215 602v-152h16c14 0 21 9 21 26v99c0 19 -3 27 -20 27h-17zM215 290v-290h-200v744h311c66 0 125 -41 125 -139v-74c0 -80 -38 -112 -71 -128c35 -13 73 -51 73 -106v-239c0 -23 3 -41 10 -53v-5h-197c-8 11 -14 29 -14 48v215c0 16 -2 27 -21 27h-16zM293 -220h-82
c11 27 15 51 16 74h-62v126h152v-85c0 -51 -16 -96 -24 -115z" />
    <glyph glyph-name="uni0157" unicode="&#x157;" horiz-adv-x="414" 
d="M206 538v-72c16 27 51 76 107 76h12c53 0 80 -38 80 -81v-194h-170v121c0 12 -5 18 -14 18s-13 -6 -13 -18v-388h-195v538h193zM163 -220h-82c11 27 15 51 16 74h-62v126h152v-85c0 -51 -16 -96 -24 -115z" />
    <glyph glyph-name="Rcaron" unicode="&#x158;" horiz-adv-x="468" 
d="M215 602v-152h16c14 0 21 9 21 26v99c0 19 -3 27 -20 27h-17zM215 290v-290h-200v744h311c66 0 125 -41 125 -139v-74c0 -80 -38 -112 -71 -128c35 -13 73 -51 73 -106v-239c0 -23 3 -41 10 -53v-5h-197c-8 11 -14 29 -14 48v215c0 16 -2 27 -21 27h-16zM141 764l-76 131
h129l24 -48l26 48h130l-77 -131h-156z" />
    <glyph glyph-name="rcaron" unicode="&#x159;" horiz-adv-x="414" 
d="M206 538v-72c16 27 51 76 107 76h12c53 0 80 -38 80 -81v-194h-170v121c0 12 -5 18 -14 18s-13 -6 -13 -18v-388h-195v538h193zM145 558l-74 157h126l24 -66l25 66h128l-75 -157h-154z" />
    <glyph glyph-name="Sacute" unicode="&#x15a;" horiz-adv-x="467" 
d="M162 770l49 125h155l-53 -125h-151zM214 755h47c143 0 189 -71 189 -159v-77h-193v66c0 17 -7 25 -20 25s-20 -8 -20 -25v-22c0 -24 6 -37 30 -54l95 -67c84 -59 117 -110 117 -209v-39c0 -119 -62 -205 -208 -205h-47c-131 0 -196 58 -196 175v103h196v-87
c0 -19 4 -31 21 -31c16 0 21 12 21 33v27c0 32 -3 46 -35 70l-95 67c-72 51 -102 112 -102 195v38c0 102 60 176 200 176z" />
    <glyph glyph-name="sacute" unicode="&#x15b;" horiz-adv-x="402" 
d="M128 565l50 150h152l-55 -150h-147zM386 429v-50h-167v42c0 13 -3 20 -15 20c-11 0 -17 -7 -17 -20v-18c0 -15 3 -20 22 -31l89 -48c79 -43 98 -93 98 -160v-18c0 -107 -68 -159 -177 -159h-47c-100 0 -166 38 -166 137v61h172v-53c0 -14 6 -21 17 -21h1c11 0 16 7 16 21
v20c0 20 -7 30 -24 39l-84 45c-78 43 -93 96 -93 151v19c0 96 58 145 170 145h44c97 0 161 -30 161 -122z" />
    <glyph glyph-name="Scircumflex" unicode="&#x15c;" horiz-adv-x="467" 
d="M321 895l72 -125h-131l-26 43l-24 -43h-130l71 125h168zM214 755h47c143 0 189 -71 189 -159v-77h-193v66c0 17 -7 25 -20 25s-20 -8 -20 -25v-22c0 -24 6 -37 30 -54l95 -67c84 -59 117 -110 117 -209v-39c0 -119 -62 -205 -208 -205h-47c-131 0 -196 58 -196 175v103
h196v-87c0 -19 4 -31 21 -31c16 0 21 12 21 33v27c0 32 -3 46 -35 70l-95 67c-72 51 -102 112 -102 195v38c0 102 60 176 200 176z" />
    <glyph glyph-name="scircumflex" unicode="&#x15d;" horiz-adv-x="402" 
d="M281 715l75 -150h-128l-25 60l-24 -60h-126l74 150h154zM386 429v-50h-167v42c0 13 -3 20 -15 20c-11 0 -17 -7 -17 -20v-18c0 -15 3 -20 22 -31l89 -48c79 -43 98 -93 98 -160v-18c0 -107 -68 -159 -177 -159h-47c-100 0 -166 38 -166 137v61h172v-53
c0 -14 6 -21 17 -21h1c11 0 16 7 16 21v20c0 20 -7 30 -24 39l-84 45c-78 43 -93 96 -93 151v19c0 96 58 145 170 145h44c97 0 161 -30 161 -122z" />
    <glyph glyph-name="uni015E" unicode="&#x15e;" horiz-adv-x="467" 
d="M214 755h47c143 0 189 -71 189 -159v-77h-193v66c0 17 -7 25 -20 25s-20 -8 -20 -25v-22c0 -24 6 -37 30 -54l95 -67c84 -59 117 -110 117 -209v-39c0 -119 -62 -205 -208 -205h-47c-131 0 -196 58 -196 175v103h196v-87c0 -19 4 -31 21 -31c16 0 21 12 21 33v27
c0 32 -3 46 -35 70l-95 67c-72 51 -102 112 -102 195v38c0 102 60 176 200 176zM238 -202h-91v76h66c13 0 20 5 20 14v1c0 9 -7 13 -20 13h-51v98h77v-33h8c64 0 98 -31 98 -79v-3c0 -55 -39 -87 -107 -87z" />
    <glyph glyph-name="uni015F" unicode="&#x15f;" horiz-adv-x="402" 
d="M386 429v-50h-167v42c0 13 -3 20 -15 20c-11 0 -17 -7 -17 -20v-18c0 -15 3 -20 22 -31l89 -48c79 -43 98 -93 98 -160v-18c0 -107 -68 -159 -177 -159h-47c-100 0 -166 38 -166 137v61h172v-53c0 -14 6 -21 17 -21h1c11 0 16 7 16 21v20c0 20 -7 30 -24 39l-84 45
c-78 43 -93 96 -93 151v19c0 96 58 145 170 145h44c97 0 161 -30 161 -122zM208 -202h-91v76h66c13 0 20 5 20 14v1c0 9 -7 13 -20 13h-51v98h77v-33h8c64 0 98 -31 98 -79v-3c0 -55 -39 -87 -107 -87z" />
    <glyph glyph-name="Scaron" unicode="&#x160;" horiz-adv-x="467" 
d="M214 755h47c143 0 189 -71 189 -159v-77h-193v66c0 17 -7 25 -20 25s-20 -8 -20 -25v-22c0 -24 6 -37 30 -54l95 -67c84 -59 117 -110 117 -209v-39c0 -119 -62 -205 -208 -205h-47c-131 0 -196 58 -196 175v103h196v-87c0 -19 4 -31 21 -31c16 0 21 12 21 33v27
c0 32 -3 46 -35 70l-95 67c-72 51 -102 112 -102 195v38c0 102 60 176 200 176zM167 764l-76 131h129l24 -48l26 48h130l-77 -131h-156z" />
    <glyph glyph-name="scaron" unicode="&#x161;" horiz-adv-x="402" 
d="M386 429v-50h-167v42c0 13 -3 20 -15 20c-11 0 -17 -7 -17 -20v-18c0 -15 3 -20 22 -31l89 -48c79 -43 98 -93 98 -160v-18c0 -107 -68 -159 -177 -159h-47c-100 0 -166 38 -166 137v61h172v-53c0 -14 6 -21 17 -21h1c11 0 16 7 16 21v20c0 20 -7 30 -24 39l-84 45
c-78 43 -93 96 -93 151v19c0 96 58 145 170 145h44c97 0 161 -30 161 -122zM128 558l-74 157h126l24 -66l25 66h128l-75 -157h-154z" />
    <glyph glyph-name="Tcommaaccent" unicode="&#x162;" horiz-adv-x="399" 
d="M10 744h379v-179h-90v-565h-199v565h-90v179zM252 -220h-82c11 27 15 51 16 74h-62v126h152v-85c0 -51 -16 -96 -24 -115z" />
    <glyph glyph-name="tcommaaccent" unicode="&#x163;" horiz-adv-x="328" 
d="M318 0h-183c-31 0 -68 21 -68 77v308h-60v153h60v179h195v-179h56v-153h-56v-211c0 -13 2 -18 17 -18h39v-156zM258 -220h-82c11 27 15 51 16 74h-62v126h152v-85c0 -51 -16 -96 -24 -115z" />
    <glyph glyph-name="Tcaron" unicode="&#x164;" horiz-adv-x="399" 
d="M10 744h379v-179h-90v-565h-199v565h-90v179zM121 764l-76 131h129l24 -48l26 48h130l-77 -131h-156z" />
    <glyph glyph-name="tcaron" unicode="&#x165;" horiz-adv-x="328" 
d="M318 0h-183c-31 0 -68 21 -68 77v308h-60v153h60v179h195v-179h56v-153h-56v-211c0 -13 2 -18 17 -18h39v-156zM276 578l5 166h123l-11 -166h-117z" />
    <glyph glyph-name="Tbar" unicode="&#x166;" horiz-adv-x="399" 
d="M360 310h-323v151h323v-151zM10 744h379v-179h-90v-565h-199v565h-90v179z" />
    <glyph glyph-name="tbar" unicode="&#x167;" horiz-adv-x="328" 
d="M319 0h-184c-31 0 -68 21 -68 77v147h-60v128h60v33h-60v153h60v179h195v-179h57v-153h-57v-33h57v-128h-57v-50c0 -13 2 -18 17 -18h40v-156z" />
    <glyph glyph-name="Utilde" unicode="&#x168;" horiz-adv-x="485" 
d="M15 181v563h206v-540c0 -20 7 -30 22 -30c14 0 21 10 21 30v540h206v-563c0 -101 -70 -194 -212 -194h-32c-154 0 -211 89 -211 194zM246 783c-19 7 -28 11 -35 11c-5 0 -8 -4 -8 -12v-20h-98v69c0 41 21 71 65 71h3c24 0 42 -8 73 -19c19 -7 28 -11 35 -11c5 0 8 4 8 12
v21h98v-65c0 -40 -20 -74 -64 -74h-5c-21 0 -41 6 -72 17z" />
    <glyph glyph-name="utilde" unicode="&#x169;" horiz-adv-x="456" 
d="M442 538v-538h-192v72c-29 -40 -69 -78 -129 -78h-6c-77 0 -102 69 -102 109v435h197v-376c0 -13 5 -25 20 -25s18 11 18 26v375h194zM269 708h100v-78c0 -40 -21 -71 -69 -71h-4c-19 0 -39 5 -67 20c-15 8 -25 15 -32 15c-5 0 -7 -4 -7 -12v-26h-101v78
c0 40 22 71 70 71h3c19 0 35 -4 66 -19c15 -7 27 -16 34 -16c5 0 7 4 7 12v26z" />
    <glyph glyph-name="Umacron" unicode="&#x16a;" horiz-adv-x="485" 
d="M15 181v563h206v-540c0 -20 7 -30 22 -30c14 0 21 10 21 30v540h206v-563c0 -101 -70 -194 -212 -194h-32c-154 0 -211 89 -211 194zM117 771v112h251v-112h-251z" />
    <glyph glyph-name="umacron" unicode="&#x16b;" horiz-adv-x="456" 
d="M442 538v-538h-192v72c-29 -40 -69 -78 -129 -78h-6c-77 0 -102 69 -102 109v435h197v-376c0 -13 5 -25 20 -25s18 11 18 26v375h194zM103 564v113h251v-113h-251z" />
    <glyph glyph-name="Ubreve" unicode="&#x16c;" horiz-adv-x="485" 
d="M15 181v563h206v-540c0 -20 7 -30 22 -30c14 0 21 10 21 30v540h206v-563c0 -101 -70 -194 -212 -194h-32c-154 0 -211 89 -211 194zM245 760h-5c-92 0 -137 56 -137 124v11h115v-9c0 -16 7 -27 24 -27h1c19 0 25 11 25 27v9h114v-11c0 -68 -46 -124 -137 -124z" />
    <glyph glyph-name="ubreve" unicode="&#x16d;" horiz-adv-x="456" 
d="M442 538v-538h-192v72c-29 -40 -69 -78 -129 -78h-6c-77 0 -102 69 -102 109v435h197v-376c0 -13 5 -25 20 -25s18 11 18 26v375h194zM230 555h-4c-92 0 -137 49 -137 130v14h114v-8c0 -25 8 -37 24 -37h1c17 0 25 12 25 37v8h113v-14c0 -81 -51 -130 -136 -130z" />
    <glyph glyph-name="Uring" unicode="&#x16e;" horiz-adv-x="485" 
d="M15 181v563h206v-540c0 -20 7 -30 22 -30c14 0 21 10 21 30v540h206v-563c0 -101 -70 -194 -212 -194h-32c-154 0 -211 89 -211 194zM205 847c0 -23 16 -37 37 -36c21 -1 37 13 37 36c0 21 -16 36 -37 36s-37 -15 -37 -36zM242 935c53 0 93 -35 93 -87
c0 -53 -40 -89 -93 -89s-93 36 -93 89c0 52 40 87 93 87z" />
    <glyph glyph-name="uring" unicode="&#x16f;" horiz-adv-x="456" 
d="M442 538v-538h-192v72c-29 -40 -69 -78 -129 -78h-6c-77 0 -102 69 -102 109v435h197v-376c0 -13 5 -25 20 -25s18 11 18 26v375h194zM228 608c21 -1 37 13 37 36c0 21 -16 36 -37 36s-37 -15 -37 -36c0 -23 16 -37 37 -36zM228 556c-53 0 -93 36 -93 89
c0 52 40 87 93 87s93 -35 93 -87c0 -53 -40 -89 -93 -89z" />
    <glyph glyph-name="Uhungarumlaut" unicode="&#x170;" horiz-adv-x="485" 
d="M15 181v563h206v-540c0 -20 7 -30 22 -30c14 0 21 10 21 30v540h206v-563c0 -101 -70 -194 -212 -194h-32c-154 0 -211 89 -211 194zM107 764l31 131h129l-34 -131h-126zM255 764l34 131h129l-37 -131h-126z" />
    <glyph glyph-name="uhungarumlaut" unicode="&#x171;" horiz-adv-x="456" 
d="M442 538v-538h-192v72c-29 -40 -69 -78 -129 -78h-6c-77 0 -102 69 -102 109v435h197v-376c0 -13 5 -25 20 -25s18 11 18 26v375h194zM94 558l34 157h126l-35 -157h-125zM240 558l35 157h126l-36 -157h-125z" />
    <glyph glyph-name="Uogonek" unicode="&#x172;" horiz-adv-x="485" 
d="M206 -122v11c0 33 25 66 75 99c-8 0 -15 -1 -23 -1h-32c-154 0 -211 89 -211 194v563h206v-540c0 -20 7 -30 22 -30c14 0 21 10 21 30v540h206v-563c0 -82 -42 -131 -92 -181c-29 -31 -40 -50 -40 -67v-3c0 -13 6 -21 27 -21h13v-97h-82c-55 0 -90 26 -90 66z" />
    <glyph glyph-name="uogonek" unicode="&#x173;" horiz-adv-x="456" 
d="M442 538v-538h-192v72c-29 -40 -69 -78 -129 -78h-6c-77 0 -102 69 -102 109v435h197v-376c0 -13 5 -25 20 -25s18 11 18 26v375h194zM271 -122v11c0 37 30 70 90 111h82c-32 -35 -40 -50 -40 -67v-3c0 -13 6 -21 27 -21h13v-97h-82c-55 0 -90 26 -90 66z" />
    <glyph glyph-name="Wcircumflex" unicode="&#x174;" horiz-adv-x="690" 
d="M259 744h185l31 -423l26 423h191l-96 -744h-226l-25 365l-23 -365h-228l-96 744h204l25 -423zM423 895l77 -131h-130l-26 46l-24 -46h-129l76 131h156z" />
    <glyph glyph-name="wcircumflex" unicode="&#x175;" horiz-adv-x="642" 
d="M299 0h-212l-89 538h192l22 -306l25 306h173l24 -306l23 306h187l-88 -538h-210l-24 246zM400 715l75 -157h-129l-25 67l-24 -67h-127l74 157h156z" />
    <glyph glyph-name="Ycircumflex" unicode="&#x176;" horiz-adv-x="437" 
d="M442 744l-119 -476v-268h-199v268l-129 476h198l36 -223l33 223h180zM303 895l77 -131h-130l-26 46l-24 -46h-129l76 131h156z" />
    <glyph glyph-name="ycircumflex" unicode="&#x177;" horiz-adv-x="427" 
d="M110 36l-113 502h194l29 -272l20 272h190l-133 -643c-16 -68 -58 -83 -90 -83h-167v155h61c13 0 16 4 17 17v4c0 8 -1 21 -8 48zM292 715l75 -157h-129l-25 67l-24 -67h-127l74 157h156z" />
    <glyph glyph-name="Zacute" unicode="&#x179;" horiz-adv-x="404" 
d="M15 744h372v-163l-159 -401h166v-180h-384v163l154 403h-149v178zM124 764l51 131h155l-55 -131h-151z" />
    <glyph glyph-name="zacute" unicode="&#x17a;" horiz-adv-x="353" 
d="M13 538h327v-137l-117 -244h121v-157h-336v136l123 254h-118v148zM102 558l52 157h152l-57 -157h-147z" />
    <glyph glyph-name="Zdotaccent" unicode="&#x17b;" horiz-adv-x="404" 
d="M15 744h372v-163l-159 -401h166v-180h-384v163l154 403h-149v178zM299 921v-157h-195v157h195z" />
    <glyph glyph-name="zdotaccent" unicode="&#x17c;" horiz-adv-x="353" 
d="M13 538h327v-137l-117 -244h121v-157h-336v136l123 254h-118v148zM276 715v-157h-195v157h195z" />
    <glyph glyph-name="Zcaron" unicode="&#x17d;" horiz-adv-x="404" 
d="M15 744h372v-163l-159 -401h166v-180h-384v163l154 403h-149v178zM124 764l-76 131h129l24 -48l26 48h130l-77 -131h-156z" />
    <glyph glyph-name="zcaron" unicode="&#x17e;" horiz-adv-x="353" 
d="M13 538h327v-137l-117 -244h121v-157h-336v136l123 254h-118v148zM100 558l-74 157h126l24 -66l25 66h128l-75 -157h-154z" />
    <glyph glyph-name="Aringacute" unicode="&#x1fa;" horiz-adv-x="450" 
d="M147 947l51 131h155l-55 -131h-151zM260 0l-9 92h-73l-9 -92h-172l97 744h251l108 -744h-193zM214 455l-19 -196h39zM182 847c0 -23 16 -37 37 -36c21 -1 37 13 37 36c0 21 -16 36 -37 36s-37 -15 -37 -36zM219 935c53 0 93 -35 93 -87c0 -53 -40 -89 -93 -89
s-93 36 -93 89c0 52 40 87 93 87z" />
    <glyph glyph-name="aringacute" unicode="&#x1fb;" horiz-adv-x="440" 
d="M223 139v113c-7 -3 -15 -9 -22 -17c-7 -9 -9 -17 -9 -37v-60c0 -11 3 -20 16 -20c12 0 15 10 15 21zM8 105v93c0 63 29 98 80 121c31 13 106 39 122 47c11 5 13 6 13 19v28c0 12 -5 18 -16 18h-2c-11 0 -17 -6 -17 -18v-46h-173v46c0 95 71 137 180 137h22
c121 0 194 -37 194 -136v-255c0 -7 4 -10 11 -10h14v-149h-165c-29 0 -46 26 -46 61c-18 -29 -57 -69 -116 -69h-3c-64 0 -98 53 -98 113zM205 614c21 -1 37 13 37 36c0 21 -16 36 -37 36s-37 -15 -37 -36c0 -23 16 -37 37 -36zM205 562c-53 0 -93 36 -93 89
c0 52 40 87 93 87s93 -35 93 -87c0 -53 -40 -89 -93 -89zM135 750l52 157h152l-57 -157h-147z" />
    <glyph glyph-name="AEacute" unicode="&#x1fc;" horiz-adv-x="593" 
d="M583 0h-322v102h-62l-14 -102h-191l140 744h444v-179h-121v-89h95v-183h-95v-112h126v-181zM223 269h38v259zM273 764l51 131h155l-55 -131h-151z" />
    <glyph glyph-name="aeacute" unicode="&#x1fd;" horiz-adv-x="644" 
d="M247 67c-24 -31 -69 -75 -134 -75h-3c-68 0 -102 55 -102 114v83c0 63 29 97 80 121c31 16 106 39 122 47c11 5 13 6 13 19v37c0 12 -5 18 -16 18h-2c-11 0 -17 -6 -17 -18v-55h-173v55c0 95 71 137 180 137h16c69 0 103 -20 115 -31c12 11 43 31 103 31h14
c110 0 190 -49 190 -185v-116h-219v-108c0 -20 6 -26 18 -26c16 0 19 10 19 26v72h182v-49c0 -111 -67 -177 -182 -177h-38c-105 0 -147 45 -166 80zM223 139v106c-7 -3 -15 -9 -22 -17c-7 -9 -9 -17 -9 -37v-53c0 -11 3 -20 16 -20c12 0 15 10 15 21zM414 406v-55h37v55
c0 23 -2 31 -19 31c-15 0 -18 -8 -18 -31zM252 558l52 157h152l-57 -157h-147z" />
    <glyph glyph-name="Oslashacute" unicode="&#x1fe;" horiz-adv-x="480" 
d="M164 770l49 125h155l-53 -125h-151zM467 524v-310c0 -148 -86 -225 -213 -225h-28c-51 0 -93 12 -122 35l-13 -24h-92l44 87c-19 33 -30 74 -30 127v309c0 143 64 232 213 232h28c51 0 89 -12 118 -32l11 21h93l-41 -81c20 -35 32 -79 32 -139zM240 163c17 0 26 11 26 33
v164l-51 -123v-41c0 -22 8 -33 25 -33zM240 583c-19 0 -25 -9 -25 -36v-147l51 123v24c0 24 -9 36 -26 36z" />
    <glyph glyph-name="oslashacute" unicode="&#x1ff;" horiz-adv-x="444" 
d="M146 565l50 150h152l-55 -150h-147zM11 192v153c0 144 74 206 206 206h9c48 0 86 -11 115 -30l13 17h88l-48 -63c24 -33 38 -77 38 -130v-153c0 -143 -76 -205 -209 -205h-5c-53 0 -92 11 -121 28l-12 -15h-86l44 62c-21 33 -32 77 -32 130zM221 130c17 0 22 11 22 31v94
l-43 -78v-16c0 -20 4 -31 21 -31zM243 367v12c0 15 -1 33 -22 33c-20 0 -21 -18 -21 -33v-90z" />
    <glyph glyph-name="uni0218" unicode="&#x218;" horiz-adv-x="467" 
d="M214 755h47c143 0 189 -71 189 -159v-77h-193v66c0 17 -7 25 -20 25s-20 -8 -20 -25v-22c0 -24 6 -37 30 -54l95 -67c84 -59 117 -110 117 -209v-39c0 -119 -62 -205 -208 -205h-47c-131 0 -196 58 -196 175v103h196v-87c0 -19 4 -31 21 -31c16 0 21 12 21 33v27
c0 32 -3 46 -35 70l-95 67c-72 51 -102 112 -102 195v38c0 102 60 176 200 176zM288 -226h-82c11 27 15 51 16 74h-62v126h152v-85c0 -51 -16 -96 -24 -115z" />
    <glyph glyph-name="uni0219" unicode="&#x219;" horiz-adv-x="402" 
d="M386 429v-50h-167v42c0 13 -3 20 -15 20c-11 0 -17 -7 -17 -20v-18c0 -15 3 -20 22 -31l89 -48c79 -43 98 -93 98 -160v-18c0 -107 -68 -159 -177 -159h-47c-100 0 -166 38 -166 137v61h172v-53c0 -14 6 -21 17 -21h1c11 0 16 7 16 21v20c0 20 -7 30 -24 39l-84 45
c-78 43 -93 96 -93 151v19c0 96 58 145 170 145h44c97 0 161 -30 161 -122zM252 -227h-82c11 27 15 51 16 74h-62v126h152v-85c0 -51 -16 -96 -24 -115z" />
    <glyph glyph-name="uni021A" unicode="&#x21a;" horiz-adv-x="399" 
d="M10 744h379v-179h-90v-565h-199v565h-90v179zM252 -220h-82c11 27 15 51 16 74h-62v126h152v-85c0 -51 -16 -96 -24 -115z" />
    <glyph glyph-name="uni021B" unicode="&#x21b;" horiz-adv-x="328" 
d="M318 0h-183c-31 0 -68 21 -68 77v308h-60v153h60v179h195v-179h56v-153h-56v-211c0 -13 2 -18 17 -18h39v-156zM258 -220h-82c11 27 15 51 16 74h-62v126h152v-85c0 -51 -16 -96 -24 -115z" />
    <glyph glyph-name="uni0237" unicode="&#x237;" horiz-adv-x="221" 
d="M-41 -24h38c11 0 16 3 16 18v544h195v-636c0 -61 -41 -90 -85 -90h-164v164z" />
    <glyph glyph-name="Wgrave" unicode="&#x1e80;" horiz-adv-x="690" 
d="M259 744h185l31 -423l26 423h191l-96 -744h-226l-25 365l-23 -365h-228l-96 744h204l25 -423zM378 895l48 -131h-151l-53 131h156z" />
    <glyph glyph-name="wgrave" unicode="&#x1e81;" horiz-adv-x="642" 
d="M299 0h-212l-89 538h192l22 -306l25 306h173l24 -306l23 306h187l-88 -538h-210l-24 246zM345 715l51 -157h-147l-56 157h152z" />
    <glyph glyph-name="Wacute" unicode="&#x1e82;" horiz-adv-x="690" 
d="M259 744h185l31 -423l26 423h191l-96 -744h-226l-25 365l-23 -365h-228l-96 744h204l25 -423zM274 764l51 131h155l-55 -131h-151z" />
    <glyph glyph-name="wacute" unicode="&#x1e83;" horiz-adv-x="642" 
d="M299 0h-212l-89 538h192l22 -306l25 306h173l24 -306l23 306h187l-88 -538h-210l-24 246zM249 558l52 157h152l-57 -157h-147z" />
    <glyph glyph-name="Wdieresis" unicode="&#x1e84;" horiz-adv-x="690" 
d="M259 744h185l31 -423l26 423h191l-96 -744h-226l-25 365l-23 -365h-228l-96 744h204l25 -423zM495 895v-131h-138v131h138zM335 895v-131h-138v131h138z" />
    <glyph glyph-name="wdieresis" unicode="&#x1e85;" horiz-adv-x="642" 
d="M299 0h-212l-89 538h192l22 -306l25 306h173l24 -306l23 306h187l-88 -538h-210l-24 246zM311 691v-133h-138v133h138zM471 691v-133h-138v133h138z" />
    <glyph glyph-name="Ygrave" unicode="&#x1ef2;" horiz-adv-x="437" 
d="M442 744l-119 -476v-268h-199v268l-129 476h198l36 -223l33 223h180zM257 895l48 -131h-151l-53 131h156z" />
    <glyph glyph-name="ygrave" unicode="&#x1ef3;" horiz-adv-x="427" 
d="M110 36l-113 502h194l29 -272l20 272h190l-133 -643c-16 -68 -58 -83 -90 -83h-167v155h61c13 0 16 4 17 17v4c0 8 -1 21 -8 48zM241 715l51 -157h-147l-56 157h152z" />
    <glyph glyph-name="uni2009" unicode="&#x2009;" horiz-adv-x="5" 
 />
    <glyph glyph-name="uni2032" unicode="&#x2032;" horiz-adv-x="152" 
d="M150 744l-23 -229h-125l24 229h124z" />
    <glyph glyph-name="uni2033" unicode="&#x2033;" horiz-adv-x="287" 
d="M147 744l-23 -229h-122l23 229h122zM285 744l-23 -229h-123l24 229h122z" />
    <glyph glyph-name="published" unicode="&#x2117;" horiz-adv-x="602" 
d="M309 -11h-14c-172 0 -282 81 -282 280v208c0 185 111 278 283 278h16c163 0 277 -86 277 -278v-208c0 -197 -129 -280 -280 -280zM297 64h12c132 0 191 74 191 226v164c0 153 -56 226 -189 226h-14c-132 0 -193 -66 -193 -226v-164c0 -155 57 -226 193 -226zM365 299h-64
v-177h-141v502h204c60 0 102 -31 102 -111v-101c0 -76 -42 -113 -101 -113zM301 525v-122h13c8 0 12 7 12 20v83c0 12 -1 19 -12 19h-13z" />
    <glyph glyph-name="onethird" unicode="&#x2153;" horiz-adv-x="521" 
d="M48 616h-43v89c39 0 54 14 55 39h109v-343h-121v215zM335 744h110l-328 -744h-108zM370 231h-111v33c0 47 32 85 112 85h15c75 0 120 -24 120 -83v-12c0 -35 -24 -53 -39 -58c18 -5 48 -24 48 -71v-27c0 -65 -38 -106 -126 -106h-17c-92 0 -115 43 -115 92v42h115v-37
c0 -7 3 -10 9 -10c5 0 8 3 8 10v38c0 7 -3 11 -9 11h-52v83h49c7 0 10 3 10 10v32c0 6 -3 9 -9 9c-5 0 -8 -3 -8 -9v-32z" />
    <glyph glyph-name="twothirds" unicode="&#x2154;" horiz-adv-x="617" 
d="M266 401h-260v46c0 55 18 70 90 142c39 34 44 43 44 56v14c0 8 -3 12 -8 12c-7 0 -11 -4 -11 -12v-36h-111v29c0 50 26 98 113 98h18c89 0 121 -36 121 -93v-10c0 -48 -26 -72 -86 -111c-61 -40 -60 -41 -60 -49h52v37h98v-123zM431 744h110l-328 -744h-108zM467 231
h-111v33c0 47 32 85 112 85h15c75 0 120 -24 120 -83v-12c0 -35 -24 -53 -39 -58c18 -5 48 -24 48 -71v-27c0 -65 -38 -106 -126 -106h-17c-92 0 -115 43 -115 92v42h115v-37c0 -7 3 -10 9 -10c5 0 8 3 8 10v38c0 7 -3 11 -9 11h-52v83h49c7 0 10 3 10 10v32c0 6 -3 9 -9 9
c-5 0 -8 -3 -8 -9v-32z" />
    <glyph glyph-name="oneeighth" unicode="&#x215b;" horiz-adv-x="517" 
d="M48 616h-43v89c39 0 54 14 55 39h109v-343h-121v215zM335 744h110l-328 -744h-108zM506 260v-15c0 -39 -23 -55 -38 -63c19 -8 42 -31 42 -66v-28c0 -61 -42 -95 -121 -95h-16c-81 0 -120 34 -120 95v29c0 35 22 57 41 65c-16 11 -36 28 -36 63v15c0 53 34 89 115 89h16
c80 0 117 -36 117 -89zM391 92v37c0 11 1 16 -10 16c-7 0 -10 -5 -10 -16v-37c0 -9 3 -14 10 -14c11 0 10 7 10 14zM391 231v26c0 8 1 14 -10 14c-8 0 -9 -5 -9 -14v-26c0 -11 1 -16 9 -16c11 0 10 5 10 16z" />
    <glyph glyph-name="threeeighths" unicode="&#x215c;" horiz-adv-x="584" 
d="M403 744h110l-328 -744h-108zM118 632h-111v33c0 47 32 85 112 85h15c75 0 120 -24 120 -83v-12c0 -35 -24 -53 -39 -58c18 -5 48 -24 48 -71v-27c0 -65 -38 -106 -126 -106h-17c-92 0 -115 43 -115 92v42h115v-37c0 -7 3 -10 9 -10c5 0 8 3 8 10v38c0 7 -3 11 -9 11h-52
v83h49c7 0 10 3 10 10v32c0 6 -3 9 -9 9c-5 0 -8 -3 -8 -9v-32zM573 260v-15c0 -39 -23 -55 -38 -63c19 -8 42 -31 42 -66v-28c0 -61 -42 -95 -121 -95h-16c-81 0 -120 34 -120 95v29c0 35 22 57 41 65c-16 11 -36 28 -36 63v15c0 53 34 89 115 89h16c80 0 117 -36 117 -89z
M458 92v37c0 11 1 16 -10 16c-7 0 -10 -5 -10 -16v-37c0 -9 3 -14 10 -14c11 0 10 7 10 14zM458 231v26c0 8 1 14 -10 14c-8 0 -9 -5 -9 -14v-26c0 -11 1 -16 9 -16c11 0 10 5 10 16z" />
    <glyph glyph-name="fiveeighths" unicode="&#x215d;" horiz-adv-x="583" 
d="M402 744h110l-328 -744h-108zM122 545h-110v199h238v-86h-131v-49c15 16 34 35 65 35h7c51 0 73 -36 73 -83v-64c0 -59 -37 -103 -125 -103h-16c-92 0 -118 43 -118 91v38h117v-36c0 -7 3 -11 9 -11c5 0 8 4 8 11v70c0 8 -3 12 -8 12c-6 0 -9 -4 -9 -12v-12zM572 260v-15
c0 -39 -23 -55 -38 -63c19 -8 42 -31 42 -66v-28c0 -61 -42 -95 -121 -95h-16c-81 0 -120 34 -120 95v29c0 35 22 57 41 65c-16 11 -36 28 -36 63v15c0 53 34 89 115 89h16c80 0 117 -36 117 -89zM457 92v37c0 11 1 16 -10 16c-7 0 -10 -5 -10 -16v-37c0 -9 3 -14 10 -14
c11 0 10 7 10 14zM457 231v26c0 8 1 14 -10 14c-8 0 -9 -5 -9 -14v-26c0 -11 1 -16 9 -16c11 0 10 5 10 16z" />
    <glyph glyph-name="seveneighths" unicode="&#x215e;" horiz-adv-x="546" 
d="M6 744h236v-52c0 -17 -11 -54 -31 -138c-11 -47 -11 -83 -11 -120v-33h-139v31c0 38 2 55 34 122c45 96 47 102 47 115h-34v-55h-102v130zM364 744h110l-328 -744h-108zM536 260v-15c0 -39 -23 -55 -38 -63c19 -8 42 -31 42 -66v-28c0 -61 -42 -95 -121 -95h-16
c-81 0 -120 34 -120 95v29c0 35 22 57 41 65c-16 11 -36 28 -36 63v15c0 53 34 89 115 89h16c80 0 117 -36 117 -89zM421 92v37c0 11 1 16 -10 16c-7 0 -10 -5 -10 -16v-37c0 -9 3 -14 10 -14c11 0 10 7 10 14zM421 231v26c0 8 1 14 -10 14c-8 0 -9 -5 -9 -14v-26
c0 -11 1 -16 9 -16c11 0 10 5 10 16z" />
    <glyph glyph-name="minus" unicode="&#x2212;" horiz-adv-x="338" 
d="M12 356h314v-106h-314v106z" />
    <glyph glyph-name="E.alt" unicode="&#xe484;" horiz-adv-x="371" 
d="M15 744h342v-179h-142v-89h138v-183h-138v-112h145v-181h-345v744z" />
    <glyph glyph-name="F.alt" unicode="&#xe485;" horiz-adv-x="367" 
d="M14 744h341v-179h-141v-89h138v-183h-138v-293h-200v744z" />
    <glyph glyph-name="J.alt" unicode="&#xe489;" horiz-adv-x="313" 
d="M10 0v183h54c21 0 28 12 28 32v529h207v-595c0 -92 -48 -149 -135 -149h-154z" />
    <glyph glyph-name="a.alt" unicode="&#xe4c0;" horiz-adv-x="425" 
d="M411 414v-278c0 -96 2 -110 10 -131v-5h-186c-4 7 -10 22 -10 61c-19 -29 -57 -69 -116 -69h-3c-64 0 -98 53 -98 113v93c0 63 29 98 80 121c31 13 106 39 122 47c11 5 13 6 13 19v28c0 12 -5 18 -16 18h-2c-11 0 -17 -6 -17 -18v-46h-173v46c0 95 71 137 180 137h22
c121 0 194 -37 194 -136zM223 139v113c-7 -3 -15 -9 -22 -17c-7 -9 -9 -17 -9 -37v-60c0 -11 3 -20 16 -20c12 0 15 10 15 21z" />
    <glyph glyph-name="r.alt" unicode="&#xe4d1;" horiz-adv-x="352" 
d="M206 538v-93c20 60 52 97 97 97h6c13 0 28 -3 32 -4v-216c-11 3 -25 7 -60 7h-8c-47 0 -65 -17 -65 -48v-281h-195v538h193z" />
    </font>
</defs>
</svg>
