<?xml version="1.0" standalone="no"?>
<!DOCTYPE svg PUBLIC "-//W3C//DTD SVG 1.1//EN" "http://www.w3.org/Graphics/SVG/1.1/DTD/svg11.dtd" >
<svg xmlns="http://www.w3.org/2000/svg" xmlns:xlink="http://www.w3.org/1999/xlink" version="1.1">
<metadata>
Created by FontForge 20161003 at Tue Feb 12 10:34:04 2019
 By www-data
Copyright (c) 2014 Commercial Type. Druk is a registered trademark of Commercial Type/Schwartzco Inc. All rights reserved. [wfr]
</metadata>
<defs>
<font id="Druk-BoldItalic" horiz-adv-x="342" >
  <font-face 
    font-family="Druk"
    font-weight="700"
    font-style="italic"
    font-stretch="condensed"
    units-per-em="1000"
    panose-1="0 0 0 0 0 0 0 0 0 0"
    ascent="800"
    descent="-200"
    x-height="538"
    cap-height="744"
    bbox="-124 -216 963 1054"
    underline-thickness="50"
    underline-position="-100"
    slope="-10"
    unicode-range="U+000D-FB02"
  />
<missing-glyph horiz-adv-x="492" 
d="M0 690h492v-690h-492v690zM443 94v503l-168 -252zM49 597v-503l168 251zM246 389l168 252h-335zM246 301l-167 -252h334z" />
    <glyph glyph-name="fi" unicode="fi" horiz-adv-x="407" 
d="M322 744l-18 -113h-40c-20 0 -21 -11 -24 -24l-11 -69h60l-19 -119h-59l-67 -419h-124l67 419h-59l19 119h58l21 133c7 44 34 73 85 73h111zM432 538l-85 -538h-124l85 538h124zM456 690l-20 -126h-124l20 126h124z" />
    <glyph glyph-name="fl" unicode="fl" horiz-adv-x="407" 
d="M322 744l-18 -113h-40c-20 0 -21 -11 -24 -24l-11 -69h60l-19 -119h-59l-67 -419h-124l67 419h-59l19 119h58l21 133c7 44 34 73 85 73h111zM465 744l-118 -744h-124l118 744h124z" />
    <glyph glyph-name="f_f" unicode="ff" horiz-adv-x="463" 
d="M105 538l21 133c7 44 34 73 85 73h116l-18 -113h-45c-20 0 -21 -11 -24 -24l-11 -69h82l21 133c7 44 34 73 85 73h116l-18 -113h-45c-20 0 -21 -11 -24 -24l-11 -69h65l-19 -119h-64l-67 -419h-124l67 419h-82l-67 -419h-124l67 419h-59l19 119h58z" />
    <glyph glyph-name=".notdef" horiz-adv-x="492" 
d="M0 690h492v-690h-492v690zM443 94v503l-168 -252zM49 597v-503l168 251zM246 389l168 252h-335zM246 301l-167 -252h334z" />
    <glyph glyph-name="NULL" horiz-adv-x="0" 
 />
    <glyph glyph-name="NULL" horiz-adv-x="0" 
 />
    <glyph glyph-name="CR" unicode="&#xd;" horiz-adv-x="103" 
 />
    <glyph glyph-name="space" unicode=" " horiz-adv-x="103" 
 />
    <glyph glyph-name="exclam" unicode="!" horiz-adv-x="158" 
d="M117 144l-23 -144h-116l23 144h116zM83 744h142l-136 -577h-51z" />
    <glyph glyph-name="quotedbl" unicode="&#x22;" horiz-adv-x="228" 
d="M180 744l-31 -191h-89l31 191h89zM288 744l-31 -191h-89l31 191h89z" />
    <glyph glyph-name="numbersign" unicode="#" horiz-adv-x="360" 
d="M47 440l24 98h59l50 206h87l-50 -206h36l50 206h87l-50 -206h59l-24 -98h-59l-23 -94h59l-24 -98h-59l-60 -248h-87l60 248h-36l-60 -248h-87l60 248h-59l24 98h59l23 94h-59zM170 346h36l23 94h-36z" />
    <glyph glyph-name="dollar" unicode="$" horiz-adv-x="353" 
d="M102 -72l10 62c-85 7 -134 59 -119 155l21 131h119l-21 -133c-4 -23 2 -38 17 -44l33 208l-51 74c-43 61 -60 118 -47 198l4 27c16 100 70 147 155 147h9l10 59h33l-10 -60c88 -5 125 -54 111 -146l-16 -102h-113l16 102c3 21 -2 33 -15 38l-30 -190l47 -67
c50 -72 72 -121 61 -210l-3 -24c-13 -103 -70 -164 -166 -164h-12l-9 -61h-34zM199 154l4 25c7 36 3 57 -14 86l-27 -169c23 5 32 25 37 58zM189 606l-4 -26c-7 -39 -6 -59 7 -84l23 149c-19 -4 -23 -18 -26 -39z" />
    <glyph glyph-name="percent" unicode="%" horiz-adv-x="483" 
d="M157 407h-19c-59 0 -98 38 -87 110l20 127c11 71 46 106 105 106h19c60 0 99 -39 88 -107l-20 -127c-11 -68 -46 -109 -106 -109zM171 506l23 144c2 13 -3 20 -15 20c-9 0 -15 -7 -17 -20l-23 -143c-2 -13 3 -20 14 -20c12 0 15 7 18 19zM233 105l20 127
c11 71 46 106 105 106h19c60 0 99 -39 88 -107l-20 -127c-11 -68 -46 -109 -106 -109h-19c-59 0 -98 38 -87 110zM353 94l23 144c2 13 -3 20 -15 20c-9 0 -15 -7 -17 -20l-23 -143c-2 -13 3 -20 14 -20c12 0 15 7 18 19zM413 744h77l-388 -744h-78z" />
    <glyph glyph-name="ampersand" unicode="&#x26;" horiz-adv-x="444" 
d="M1 201l5 33c15 97 60 149 124 189c-19 59 -28 120 -17 177l5 31c8 54 38 129 136 129h21c95 0 125 -53 112 -139l-3 -19c-11 -72 -40 -113 -130 -180l53 -188c19 64 30 141 37 212h110c-16 -125 -46 -243 -95 -331c16 -15 32 -18 55 -22l-44 -110c-43 7 -74 17 -98 40
c-19 -16 -49 -33 -94 -33h-13c-117 0 -185 72 -164 211zM195 100c13 0 24 1 35 6l-73 232c-11 -19 -20 -44 -25 -79l-5 -32c-12 -80 12 -127 68 -127zM229 619l-3 -19c-7 -40 -6 -61 5 -104c29 35 38 62 46 107l3 19c5 29 -1 40 -21 40s-26 -16 -30 -43z" />
    <glyph glyph-name="quotesingle" unicode="'" horiz-adv-x="121" 
d="M182 744l-31 -191h-91l31 191h91z" />
    <glyph glyph-name="parenleft" unicode="(" horiz-adv-x="209" 
d="M148 -131h-75c-20 64 -50 174 -50 313c0 273 100 489 194 626h76c-72 -144 -161 -406 -161 -690c0 -92 8 -186 16 -249z" />
    <glyph glyph-name="parenright" unicode=")" horiz-adv-x="209" 
d="M13 -131h-75c72 145 160 408 160 691c0 92 -8 185 -16 248h75c20 -64 50 -173 50 -313c0 -273 -100 -489 -194 -626z" />
    <glyph glyph-name="asterisk" unicode="*" horiz-adv-x="237" 
d="M206 675l57 42l30 -61l-66 -24l62 -29l-40 -58l-51 44v-68h-71l19 68l-59 -36l-26 61l67 23l-60 28l43 60l44 -46v65h71z" />
    <glyph glyph-name="plus" unicode="+" horiz-adv-x="334" 
d="M98 134l19 121h-104l14 91h104l20 122h96l-20 -122h105l-14 -91h-105l-19 -121h-96z" />
    <glyph glyph-name="comma" unicode="," horiz-adv-x="147" 
d="M49 -95h-63c8 19 30 64 35 95h-47l23 144h116l-17 -106c-11 -63 -32 -108 -47 -133z" />
    <glyph glyph-name="hyphen" unicode="-" horiz-adv-x="178" 
d="M29 359h149l-19 -121h-149z" />
    <glyph glyph-name="period" unicode="." horiz-adv-x="147" 
d="M113 144l-23 -144h-116l23 144h116z" />
    <glyph glyph-name="slash" unicode="/" horiz-adv-x="216" 
d="M298 808l-277 -939h-91l277 939h91z" />
    <glyph glyph-name="zero" unicode="0" horiz-adv-x="364" 
d="M393 564l-63 -399c-17 -107 -69 -176 -165 -176h-29c-95 0 -154 63 -135 176l63 398c19 118 57 190 165 190h26c115 0 157 -78 138 -189zM194 165l65 411c5 31 -3 47 -25 47c-25 0 -30 -19 -34 -46l-65 -411c-4 -23 0 -44 25 -44c23 0 30 16 34 43z" />
    <glyph glyph-name="one" unicode="1" horiz-adv-x="239" 
d="M132 547h-75l18 114c76 0 93 37 107 83h110l-118 -744h-129z" />
    <glyph glyph-name="two" unicode="2" horiz-adv-x="360" 
d="M232 632c-17 0 -23 -10 -27 -34l-18 -115h-122l21 131c11 72 49 139 148 139h26c100 0 144 -54 128 -155l-5 -32c-13 -88 -22 -129 -93 -205c-28 -31 -59 -62 -90 -93c-92 -95 -95 -123 -98 -139h93l20 127h127l-41 -256h-329l12 76c13 84 26 129 127 260
c22 27 59 75 82 105c44 57 49 80 54 112l7 44c4 23 -3 35 -22 35z" />
    <glyph glyph-name="three" unicode="3" horiz-adv-x="343" 
d="M182 515h-119l15 95c11 69 38 143 138 143h27c103 0 148 -56 133 -144l-13 -82c-12 -75 -38 -101 -66 -113c27 -11 48 -38 41 -82l-30 -189c-13 -89 -54 -154 -147 -154h-29c-108 0 -151 63 -136 158l20 126h128l-19 -119c-3 -19 3 -34 23 -34c19 0 26 10 30 35l23 145
c3 19 4 30 -15 30h-72l20 133h65c20 0 25 8 29 33l16 101c4 23 -3 35 -22 35s-24 -14 -27 -34z" />
    <glyph glyph-name="four" unicode="4" horiz-adv-x="362" 
d="M162 293l30 185c-21 -48 -61 -127 -87 -185h57zM-6 166l18 114c53 106 178 362 234 469h117l-73 -456h68l-20 -127h-67l-27 -166h-128l27 166h-149z" />
    <glyph glyph-name="five" unicode="5" horiz-adv-x="344" 
d="M161 331h-128l65 413h297l-21 -129h-172l-23 -147c19 32 52 70 99 70h10c53 0 75 -46 67 -97l-49 -309c-13 -76 -50 -143 -142 -143h-38c-111 0 -145 76 -132 151l21 133h130l-20 -126c-3 -13 0 -32 21 -32c17 0 24 9 28 34l36 227c3 19 3 36 -18 36
c-16 0 -20 -12 -24 -37z" />
    <glyph glyph-name="six" unicode="6" horiz-adv-x="361" 
d="M160 114c25 0 30 20 33 39l27 173c4 27 -8 37 -27 37c-20 0 -29 -9 -33 -36l-27 -174c-3 -21 0 -39 27 -39zM281 479h7c64 0 83 -52 75 -100l-38 -242c-13 -74 -59 -149 -158 -149h-32c-105 0 -151 66 -138 151l72 457c16 91 55 158 162 158h27c96 0 142 -57 130 -133
l-16 -102h-134l13 82c3 19 -2 30 -22 30c-19 0 -22 -14 -25 -30l-30 -188c18 23 54 66 107 66z" />
    <glyph glyph-name="seven" unicode="7" horiz-adv-x="326" 
d="M90 744h300l-19 -113c-11 -32 -38 -114 -85 -259c-48 -149 -62 -225 -70 -283l-14 -89h-155l12 76c11 75 25 129 104 298c74 159 96 216 101 250h-74l-17 -109h-119z" />
    <glyph glyph-name="eight" unicode="8" horiz-adv-x="354" 
d="M186 149l23 146c4 25 -4 37 -24 37c-19 0 -25 -13 -29 -37l-23 -146c-3 -19 3 -33 22 -33s28 13 31 33zM236 485l19 119c3 21 -4 32 -21 32c-21 0 -25 -14 -28 -33l-18 -115c-3 -20 2 -33 21 -33s24 11 27 30zM385 612l-17 -107c-8 -48 -31 -80 -68 -95
c30 -19 55 -52 44 -113l-24 -151c-13 -90 -60 -157 -160 -157h-28c-103 0 -150 60 -135 156l25 157c11 63 39 92 74 108c-23 16 -41 47 -33 102l16 102c11 69 45 139 150 139h22c103 0 147 -60 134 -141z" />
    <glyph glyph-name="nine" unicode="9" horiz-adv-x="361" 
d="M116 263h-5c-54 0 -89 49 -78 113l36 227c13 82 45 150 152 150h32c111 0 159 -59 144 -147l-75 -475c-14 -76 -48 -142 -152 -142h-28c-111 0 -150 58 -135 146l14 88h134l-13 -82c-3 -20 4 -30 22 -30c19 0 23 16 26 29l30 189c-19 -24 -57 -66 -104 -66zM233 627
c-25 0 -30 -18 -34 -41l-27 -170c-4 -25 5 -38 27 -38c23 0 30 16 33 37l27 169c4 27 1 43 -26 43z" />
    <glyph glyph-name="colon" unicode=":" horiz-adv-x="153" 
d="M116 144l-23 -144h-116l23 144h116zM163 438l-23 -144h-116l23 144h116z" />
    <glyph glyph-name="semicolon" unicode=";" horiz-adv-x="153" 
d="M52 -95h-63c8 19 30 64 35 95h-47l23 144h116l-17 -106c-11 -64 -32 -108 -47 -133zM163 438l-23 -144h-116l23 144h116z" />
    <glyph glyph-name="less" unicode="&#x3c;" horiz-adv-x="288" 
d="M25 344l274 105l-15 -96l-160 -55l143 -53l-15 -93l-241 105z" />
    <glyph glyph-name="equal" unicode="=" horiz-adv-x="327" 
d="M20 287h294l-14 -83h-294zM37 398h294l-13 -84h-294z" />
    <glyph glyph-name="greater" unicode="&#x3e;" horiz-adv-x="288" 
d="M272 257l-273 -105l15 97l160 55l-143 53l15 92l240 -105z" />
    <glyph glyph-name="question" unicode="?" horiz-adv-x="325" 
d="M181 167h-101l22 134c8 52 18 69 48 107l45 55c23 29 29 52 34 84l8 50c4 23 -3 35 -22 35c-20 0 -24 -12 -28 -35l-18 -114h-121l19 120c13 80 33 150 145 150h25c109 0 145 -53 132 -145l-8 -52c-11 -68 -21 -98 -69 -146l-60 -65c-22 -24 -27 -38 -35 -79zM185 144
l-23 -144h-116l23 144h116z" />
    <glyph glyph-name="at" unicode="@" horiz-adv-x="567" 
d="M419 25l48 -56c-29 -39 -104 -109 -211 -109h-10c-112 0 -285 40 -233 385l17 108c37 234 125 377 301 377h18c170 0 261 -100 226 -313l-16 -101c-37 -227 -96 -278 -171 -278h-8c-59 0 -87 33 -94 66c-19 -31 -49 -66 -93 -66h-5c-46 0 -75 49 -62 121l57 287
c11 55 36 96 84 96h5c35 0 55 -22 74 -54l11 50h119l-84 -392c-3 -15 -3 -28 12 -28c27 0 53 70 73 198l16 101c29 187 -46 236 -150 236h-18c-113 0 -179 -100 -210 -299l-17 -108c-44 -282 81 -307 150 -307h10c77 0 135 57 161 86zM278 161l54 259c4 19 -1 28 -14 28
s-16 -9 -20 -28l-55 -261c-4 -19 0 -28 13 -28s19 13 22 30z" />
    <glyph glyph-name="A" unicode="A" horiz-adv-x="338" 
d="M176 0l6 125h-79l-31 -125h-117l209 744h153l-17 -744h-124zM136 253h52l11 251z" />
    <glyph glyph-name="B" unicode="B" horiz-adv-x="367" 
d="M-22 0l118 744h185c88 0 131 -37 115 -133l-15 -95c-11 -69 -42 -97 -79 -108c30 -11 66 -39 55 -117l-19 -124c-19 -115 -52 -167 -132 -167h-228zM190 333h-30l-35 -215h37c21 0 34 3 41 46l19 120c5 32 -1 49 -32 49zM236 630h-29l-28 -177h32c20 0 31 7 38 39l16 99
c4 26 -6 39 -29 39z" />
    <glyph glyph-name="C" unicode="C" horiz-adv-x="363" 
d="M202 165l26 162h129l-26 -164c-13 -91 -49 -174 -164 -174h-26c-125 0 -153 85 -140 174l67 422c16 92 50 169 165 169h27c130 0 152 -78 138 -164l-20 -127h-129l20 122c4 29 -6 43 -29 43c-25 0 -32 -14 -37 -43l-67 -422c-4 -25 6 -43 30 -43s31 17 36 45z" />
    <glyph glyph-name="D" unicode="D" horiz-adv-x="365" 
d="M-22 0l118 744h172c96 0 147 -46 128 -159l-66 -417c-16 -108 -45 -168 -152 -168h-200zM206 626l-80 -502h27c31 0 38 12 45 55l63 397c5 33 -3 50 -26 50h-29z" />
    <glyph glyph-name="E" unicode="E" horiz-adv-x="313" 
d="M96 744h275l-21 -131h-145l-26 -162h116l-22 -134h-116l-29 -183h154l-22 -134h-282z" />
    <glyph glyph-name="F" unicode="F" horiz-adv-x="313" 
d="M96 744h282l-21 -130h-152l-26 -162h114l-22 -134h-114l-50 -318h-129z" />
    <glyph glyph-name="G" unicode="G" horiz-adv-x="368" 
d="M109 -10h-9c-79 0 -116 71 -103 145l70 444c13 91 49 174 163 174h26c127 0 154 -81 138 -173l-13 -80h-126l13 81c4 31 -1 47 -28 47c-24 0 -33 -15 -38 -47l-65 -411c-5 -34 4 -51 29 -51s39 15 44 46l26 161h-49l21 125h172l-71 -451h-77c0 15 -4 51 -11 71
c-13 -29 -55 -81 -112 -81z" />
    <glyph glyph-name="H" unicode="H" horiz-adv-x="368" 
d="M157 314l-50 -314h-129l118 744h129l-45 -284h69l45 284h129l-118 -744h-129l50 314h-69z" />
    <glyph glyph-name="I" unicode="I" horiz-adv-x="170" 
d="M225 744l-118 -744h-129l118 744h129z" />
    <glyph glyph-name="J" unicode="J" horiz-adv-x="347" 
d="M23 327h126l-27 -170c-3 -23 4 -35 22 -35h2c19 0 26 11 30 35l93 587h134l-94 -593c-16 -104 -60 -159 -151 -159h-44c-84 0 -137 46 -121 146z" />
    <glyph glyph-name="K" unicode="K" horiz-adv-x="367" 
d="M180 460l126 284h131l-153 -343l46 -401h-136l-36 322l-51 -322h-129l118 744h129z" />
    <glyph glyph-name="L" unicode="L" horiz-adv-x="296" 
d="M96 744h129l-97 -610h138l-22 -134h-266z" />
    <glyph glyph-name="M" unicode="M" horiz-adv-x="450" 
d="M-22 0l118 744h153l-10 -378l108 378h158l-118 -744h-117l71 445l-134 -445h-50l5 445l-71 -445h-113z" />
    <glyph glyph-name="N" unicode="N" horiz-adv-x="366" 
d="M96 744h121l28 -385l61 385h115l-118 -744h-110l-34 414l-66 -414h-115z" />
    <glyph glyph-name="O" unicode="O" horiz-adv-x="376" 
d="M241 623c-27 0 -35 -17 -40 -49l-65 -410c-3 -20 2 -42 31 -42c28 0 36 23 39 42l65 410c5 33 -5 49 -30 49zM230 753h27c119 0 165 -76 148 -189l-62 -392c-19 -113 -69 -183 -164 -183h-27c-112 0 -168 71 -149 188l61 386c19 116 58 190 166 190z" />
    <glyph glyph-name="P" unicode="P" horiz-adv-x="351" 
d="M229 298h-75l-47 -298h-129l118 744h171c109 0 139 -55 123 -147l-24 -149c-13 -90 -47 -150 -137 -150zM207 629l-33 -210h27c27 0 32 13 36 40l20 126c4 27 0 44 -27 44h-23z" />
    <glyph glyph-name="Q" unicode="Q" horiz-adv-x="376" 
d="M230 753h27c119 0 167 -77 148 -189l-62 -392c-17 -104 -61 -170 -141 -181l33 -146h-158l24 150c-77 19 -113 83 -98 182l61 386c19 115 58 190 166 190zM241 623c-27 0 -35 -17 -40 -49l-65 -410c-3 -20 2 -42 31 -42c28 0 36 23 39 42l65 410c5 33 -5 49 -30 49z" />
    <glyph glyph-name="R" unicode="R" horiz-adv-x="360" 
d="M157 318l-50 -318h-129l118 744h194c80 0 122 -44 109 -124l-19 -119c-9 -60 -39 -89 -74 -100c18 -9 51 -32 43 -88l-40 -252c-5 -31 -2 -44 2 -56l-1 -5h-129c-4 8 -8 26 -3 57l34 214c7 36 -1 47 -28 47h-27zM207 629l-30 -188h28c24 0 36 9 41 44l16 104
c5 27 -4 40 -27 40h-28z" />
    <glyph glyph-name="S" unicode="S" horiz-adv-x="356" 
d="M158 -9h-29c-95 0 -152 56 -136 160l21 132h128l-19 -121c-5 -32 2 -47 26 -47c21 0 33 15 40 54l4 24c8 48 0 70 -33 122l-39 62c-48 74 -67 129 -54 205l5 31c16 99 66 140 157 140h29c100 0 141 -49 125 -153l-14 -89h-124l14 89c4 23 -1 39 -25 39
c-23 0 -27 -15 -30 -36l-4 -26c-6 -42 1 -53 30 -101l41 -66c51 -83 75 -138 64 -211l-6 -38c-18 -113 -75 -170 -171 -170z" />
    <glyph glyph-name="T" unicode="T" horiz-adv-x="331" 
d="M84 744h314l-21 -131h-91l-97 -613h-129l97 613h-94z" />
    <glyph glyph-name="U" unicode="U" horiz-adv-x="368" 
d="M5 177l90 567h133l-91 -576c-4 -28 4 -46 27 -46s31 15 36 46l91 576h133l-90 -567c-21 -133 -69 -188 -165 -188h-29c-99 0 -154 67 -135 188z" />
    <glyph glyph-name="V" unicode="V" horiz-adv-x="349" 
d="M57 0l14 744h132l-26 -499l124 499h125l-205 -744h-164z" />
    <glyph glyph-name="W" unicode="W" horiz-adv-x="557" 
d="M294 744h123l-24 -476l113 476h128l-203 -744h-151l24 417l-100 -417h-149l18 744h132l-27 -467z" />
    <glyph glyph-name="X" unicode="X" horiz-adv-x="353" 
d="M110 398l-25 346h127l8 -223l74 223h124l-131 -346l27 -398h-128l-9 258l-94 -258h-129z" />
    <glyph glyph-name="Y" unicode="Y" horiz-adv-x="322" 
d="M403 744l-168 -444l-47 -300h-130l47 296l-36 448h126l4 -264l86 264h118z" />
    <glyph glyph-name="Z" unicode="Z" horiz-adv-x="323" 
d="M94 744h286l-19 -119l-236 -494h169l-21 -131h-307l19 122l238 494h-149z" />
    <glyph glyph-name="bracketleft" unicode="[" horiz-adv-x="196" 
d="M274 808l-15 -95h-51l-119 -748h51l-15 -96h-155l149 939h155z" />
    <glyph glyph-name="backslash" unicode="\" horiz-adv-x="216" 
d="M88 -131l-8 939h86l6 -939h-84z" />
    <glyph glyph-name="bracketright" unicode="]" horiz-adv-x="196" 
d="M-57 -131l15 96h52l119 748h-52l15 95h154l-149 -939h-154z" />
    <glyph glyph-name="asciicircum" unicode="^" horiz-adv-x="232" 
d="M237 744l19 -311h-84l-4 163l-50 -163h-89l108 311h100z" />
    <glyph glyph-name="underscore" unicode="_" horiz-adv-x="325" 
d="M-59 -115l15 95h320l-15 -95h-320z" />
    <glyph glyph-name="grave" unicode="`" 
d="M265 700l20 -136h-96l-22 136h98z" />
    <glyph glyph-name="a" unicode="a" horiz-adv-x="328" 
d="M-14 98l17 108c8 52 24 86 67 109c27 16 96 43 112 51c9 5 11 11 14 23l4 25c4 21 -2 32 -19 32h-3c-16 0 -22 -12 -25 -31l-8 -51h-111l12 74c8 48 29 106 130 106h22c107 0 135 -49 124 -118l-47 -295c-3 -11 -1 -17 14 -17h14l-18 -114h-112c-24 0 -35 13 -28 60
c-14 -22 -49 -65 -96 -65h-2c-48 0 -70 43 -61 103zM128 102c17 0 24 11 27 31l21 131c-12 -7 -28 -15 -36 -23c-11 -11 -15 -21 -18 -42l-10 -62c-3 -19 1 -35 16 -35z" />
    <glyph glyph-name="b" unicode="b" horiz-adv-x="331" 
d="M93 744h124l-42 -266c11 16 47 66 95 66h5c52 0 75 -46 67 -98l-53 -335c-11 -65 -47 -120 -104 -120h-2c-57 0 -80 44 -96 81c-8 -23 -17 -57 -20 -72h-92zM162 397l-41 -260c-3 -20 0 -35 19 -35c15 0 25 10 28 31l42 266c4 27 -3 35 -19 35c-19 0 -26 -16 -29 -37z
" />
    <glyph glyph-name="c" unicode="c" horiz-adv-x="314" 
d="M181 241h116l-18 -113c-13 -83 -48 -139 -137 -139h-20c-103 0 -144 59 -129 146l42 265c13 89 52 148 148 148h25c99 0 128 -63 117 -131l-14 -88h-116l12 76c4 23 2 38 -18 38c-19 0 -24 -13 -27 -37l-43 -271c-3 -20 0 -33 19 -33s23 12 26 31z" />
    <glyph glyph-name="d" unicode="d" horiz-adv-x="333" 
d="M267 744h124l-118 -744h-124l10 60c-11 -24 -49 -71 -96 -71h-2c-53 0 -81 55 -70 120l52 328c8 52 37 107 92 107h4c49 0 76 -43 86 -66zM171 140l40 252c4 27 -1 42 -21 42c-19 0 -24 -14 -28 -37l-41 -258c-3 -23 1 -38 20 -38s26 14 30 39z" />
    <glyph glyph-name="e" unicode="e" horiz-adv-x="316" 
d="M176 548h26c88 0 137 -49 122 -137l-25 -159h-168l-18 -117c-3 -20 1 -33 20 -33c15 0 25 11 28 33l13 80h119l-14 -88c-15 -95 -65 -137 -141 -137h-27c-83 0 -134 44 -119 140l45 283c11 76 48 135 139 135zM157 413l-11 -65h51l10 63c4 25 -1 38 -22 38
c-19 0 -24 -13 -28 -36z" />
    <glyph glyph-name="f" unicode="f" horiz-adv-x="257" 
d="M327 744l-18 -113h-45c-20 0 -21 -11 -24 -24l-11 -69h65l-19 -119h-64l-67 -419h-124l67 419h-59l19 119h58l21 133c7 44 34 73 85 73h116z" />
    <glyph glyph-name="g" unicode="g" horiz-adv-x="332" 
d="M137 -66l20 125c-19 -35 -50 -69 -95 -69c-47 0 -82 43 -71 115l50 315c12 76 41 125 98 125h1c50 0 72 -42 85 -68l10 61h122l-97 -612c-8 -57 -37 -121 -153 -121h-17c-104 0 -132 48 -124 107l10 63h118l-7 -44c-3 -15 0 -25 19 -25h4c19 0 24 11 27 28zM167 126
l44 277c3 19 -1 34 -20 34s-24 -13 -27 -33l-44 -278c-3 -17 2 -30 21 -30c16 0 23 13 26 30z" />
    <glyph glyph-name="h" unicode="h" horiz-adv-x="333" 
d="M-25 0l118 744h123l-42 -268c23 31 55 64 98 64h7c59 0 70 -57 65 -93l-71 -447h-125l62 392c3 23 -2 36 -21 36s-25 -13 -28 -36l-62 -392h-124z" />
    <glyph glyph-name="i" unicode="i" horiz-adv-x="159" 
d="M184 538l-85 -538h-124l85 538h124zM208 690l-20 -126h-124l20 126h124z" />
    <glyph glyph-name="j" unicode="j" horiz-adv-x="159" 
d="M-105 -69h51c16 0 18 7 21 20l93 587h124l-103 -653c-7 -45 -33 -73 -82 -73h-123zM208 690l-20 -126h-124l20 126h124z" />
    <glyph glyph-name="k" unicode="k" horiz-adv-x="335" 
d="M155 355l98 183h122l-126 -234l48 -304h-125l-35 240l-38 -240h-124l118 744h124z" />
    <glyph glyph-name="l" unicode="l" horiz-adv-x="159" 
d="M217 744l-118 -744h-124l118 744h124z" />
    <glyph glyph-name="m" unicode="m" horiz-adv-x="500" 
d="M441 542h5c47 0 74 -38 65 -94l-71 -448h-125l62 392c4 24 -2 36 -19 36c-19 0 -23 -13 -27 -36l-62 -392h-124l62 392c3 21 1 36 -19 36c-19 0 -24 -13 -27 -36l-62 -392h-124l85 538h123l-10 -63c17 25 51 67 98 67h4c37 0 61 -30 65 -66c22 30 56 66 101 66z" />
    <glyph glyph-name="n" unicode="n" horiz-adv-x="333" 
d="M-25 0l85 538h123l-10 -65c23 35 56 67 99 67h7c59 0 70 -57 65 -93l-71 -447h-125l62 392c3 23 -2 36 -21 36s-25 -13 -28 -36l-62 -392h-124z" />
    <glyph glyph-name="o" unicode="o" horiz-adv-x="331" 
d="M151 -10h-29c-99 0 -141 66 -128 152l41 255c15 96 57 151 145 151h29c88 0 143 -53 128 -149l-41 -255c-13 -88 -58 -154 -145 -154zM190 437c-20 0 -26 -14 -29 -37l-41 -256c-3 -23 2 -38 22 -38c23 0 26 18 29 38l41 256c3 23 -1 37 -22 37z" />
    <glyph glyph-name="p" unicode="p" horiz-adv-x="333" 
d="M60 538h123l-10 -61c16 29 52 67 97 67h2c56 0 81 -48 70 -115l-51 -321c-12 -76 -49 -119 -98 -119h-2c-43 0 -70 27 -85 58l-37 -235h-124zM162 402l-43 -271c-4 -25 5 -37 21 -37c17 0 24 11 28 36l43 272c3 23 -3 34 -20 34c-19 0 -25 -10 -29 -34z" />
    <glyph glyph-name="q" unicode="q" horiz-adv-x="332" 
d="M271 538h87l-116 -726h-124l39 242c-14 -22 -46 -65 -95 -65h-4c-53 0 -78 58 -67 119l49 309c11 71 41 127 110 127h4c54 0 78 -46 91 -85c8 19 19 51 26 79zM169 131l42 265c4 23 -2 38 -21 38s-24 -15 -27 -36l-42 -266c-4 -25 3 -37 20 -37s24 11 28 36z" />
    <glyph glyph-name="r" unicode="r" horiz-adv-x="301" 
d="M184 538l-11 -69c11 24 45 72 93 72h5c40 0 56 -28 49 -72l-30 -189h-115l19 120c3 20 2 29 -13 29c-12 0 -15 -8 -18 -27l-64 -402h-124l85 538h124z" />
    <glyph glyph-name="s" unicode="s" horiz-adv-x="298" 
d="M125 -9h-26c-89 0 -126 54 -114 130l12 75h114l-12 -75c-3 -19 7 -27 20 -27h1c15 0 20 10 23 29l3 19c4 27 -1 40 -22 69l-40 54c-36 49 -55 93 -47 149l3 20c11 72 51 114 131 114h27c93 0 117 -52 109 -108l-11 -67h-108l9 56c3 19 -3 28 -18 28c-13 0 -20 -9 -23 -27
l-2 -13c-3 -19 1 -36 18 -59l40 -54c44 -59 68 -101 59 -164l-3 -19c-11 -69 -47 -130 -143 -130z" />
    <glyph glyph-name="t" unicode="t" horiz-adv-x="254" 
d="M202 0h-112c-43 0 -66 29 -59 72l56 347h-57l19 119h57l28 178h124l-28 -178h57l-19 -119h-57l-45 -277c-2 -14 4 -21 17 -21h38z" />
    <glyph glyph-name="u" unicode="u" horiz-adv-x="330" 
d="M355 538l-85 -538h-123l10 65c-20 -33 -57 -67 -98 -67h-7c-56 0 -70 55 -62 99l70 441h125l-62 -392c-4 -24 2 -36 19 -36c19 0 24 13 27 36l62 392h124z" />
    <glyph glyph-name="v" unicode="v" horiz-adv-x="305" 
d="M43 0l-2 538h120l-15 -343l84 343h120l-164 -538h-143z" />
    <glyph glyph-name="w" unicode="w" horiz-adv-x="485" 
d="M178 0h-135l-2 538h122l-14 -332l83 332h111l-13 -336l83 336h117l-157 -538h-129l6 294z" />
    <glyph glyph-name="x" unicode="x" horiz-adv-x="307" 
d="M76 291l-30 247h117l10 -153l54 153h116l-106 -247l30 -291h-116l-12 171l-65 -171h-119z" />
    <glyph glyph-name="y" unicode="y" horiz-adv-x="308" 
d="M56 9l-15 529h119l-7 -296l76 296h125l-206 -646c-17 -55 -39 -80 -79 -80h-119l19 118h49c19 0 24 10 28 25l6 23c3 11 4 21 4 31z" />
    <glyph glyph-name="z" unicode="z" horiz-adv-x="266" 
d="M61 538h235l-16 -102l-173 -322h127l-18 -114h-251l18 107l172 319h-112z" />
    <glyph glyph-name="braceleft" unicode="{" horiz-adv-x="204" 
d="M133 -131h-31c-77 0 -113 41 -113 105c0 72 74 231 74 289c0 19 -6 28 -27 28h-17l16 100h25c23 0 31 13 32 34c3 74 3 214 8 270c5 77 51 113 127 113h55l-15 -92h-25c-29 0 -39 -16 -42 -43c-3 -46 -3 -191 -6 -241c-4 -45 -18 -75 -66 -91c28 -13 40 -32 40 -65
c0 -59 -72 -230 -72 -279c0 -24 14 -36 41 -36h11z" />
    <glyph glyph-name="bar" unicode="|" horiz-adv-x="224" 
d="M175 808v-939h-92v939h92z" />
    <glyph glyph-name="braceright" unicode="}" horiz-adv-x="204" 
d="M92 808h31c77 0 113 -39 113 -104c0 -73 -72 -227 -72 -285c0 -19 6 -28 27 -28h17l-16 -100h-25c-23 0 -31 -13 -32 -34c-5 -75 -5 -218 -10 -274c-5 -77 -51 -114 -127 -114h-55l15 92h25c29 0 39 16 42 43c3 46 5 195 8 246c3 44 18 75 65 91c-27 13 -39 32 -39 65
c0 59 69 227 69 275c0 23 -11 35 -40 35h-11z" />
    <glyph glyph-name="asciitilde" unicode="~" horiz-adv-x="276" 
d="M211 434l10 64h82l-19 -119c-7 -45 -33 -75 -70 -75c-29 0 -45 13 -68 42c-19 23 -23 30 -30 30c-5 0 -7 -3 -8 -10l-10 -65h-82l18 116c7 43 26 77 70 77c31 0 48 -14 71 -43c17 -23 21 -29 28 -29c4 0 7 4 8 12z" />
    <glyph glyph-name="Adieresis" unicode="&#xc4;" horiz-adv-x="338" 
d="M176 0l6 125h-79l-31 -125h-117l209 744h153l-17 -744h-124zM136 253h52l11 251zM352 770h-97l17 106h97zM230 770h-97l17 106h97z" />
    <glyph glyph-name="Aring" unicode="&#xc5;" horiz-adv-x="338" 
d="M176 0l6 125h-79l-31 -125h-117l209 744h153l-17 -744h-124zM136 253h52l11 251zM245 765c-47 0 -80 32 -80 79s33 79 80 79s80 -32 80 -79s-33 -79 -80 -79zM245 811c20 0 32 14 32 33s-12 33 -32 33s-32 -14 -32 -33s12 -33 32 -33z" />
    <glyph glyph-name="Ccedilla" unicode="&#xc7;" horiz-adv-x="363" 
d="M202 165l26 162h129l-26 -164c-13 -91 -49 -174 -164 -174h-26c-125 0 -153 85 -140 174l67 422c16 92 50 169 165 169h27c130 0 152 -78 138 -164l-20 -127h-129l20 122c4 29 -6 43 -29 43c-25 0 -32 -14 -37 -43l-67 -422c-4 -25 6 -43 30 -43s31 17 36 45zM105 -188
h-66l10 63h51c17 0 22 9 22 18c0 10 -6 15 -18 15h-34l15 92h56l-6 -36h2c44 0 69 -22 69 -65c0 -59 -40 -87 -101 -87z" />
    <glyph glyph-name="Eacute" unicode="&#xc9;" horiz-adv-x="313" 
d="M96 744h275l-21 -131h-145l-26 -162h116l-22 -134h-116l-29 -183h154l-22 -134h-282zM182 770l56 115h108l-59 -115h-105z" />
    <glyph glyph-name="Ntilde" unicode="&#xd1;" horiz-adv-x="366" 
d="M96 744h121l28 -385l61 385h115l-118 -744h-110l-34 414l-66 -414h-115zM314 864l3 19h72l-9 -57c-7 -39 -27 -55 -54 -55c-23 0 -36 6 -61 19c-11 7 -15 9 -22 9c-5 0 -8 -4 -9 -11l-3 -19h-71l7 44c7 46 25 69 56 69c20 0 33 -6 60 -18c11 -5 16 -8 23 -8c5 0 7 3 8 8z
" />
    <glyph glyph-name="Odieresis" unicode="&#xd6;" horiz-adv-x="376" 
d="M241 623c-27 0 -35 -17 -40 -49l-65 -410c-3 -20 2 -42 31 -42c28 0 36 23 39 42l65 410c5 33 -5 49 -30 49zM230 753h27c119 0 165 -76 148 -189l-62 -392c-19 -113 -69 -183 -164 -183h-27c-112 0 -168 71 -149 188l61 386c19 116 58 190 166 190zM371 771h-97l17 106
h97zM249 771h-97l17 106h97z" />
    <glyph glyph-name="Udieresis" unicode="&#xdc;" horiz-adv-x="368" 
d="M5 177l90 567h133l-91 -576c-4 -28 4 -46 27 -46s31 15 36 46l91 576h133l-90 -567c-21 -133 -69 -188 -165 -188h-29c-99 0 -154 67 -135 188zM373 770h-97l17 106h97zM251 770h-97l17 106h97z" />
    <glyph glyph-name="aacute" unicode="&#xe1;" horiz-adv-x="328" 
d="M-14 98l17 108c8 52 24 86 67 109c27 16 96 43 112 51c9 5 11 11 14 23l4 25c4 21 -2 32 -19 32h-3c-16 0 -22 -12 -25 -31l-8 -51h-111l12 74c8 48 29 106 130 106h22c107 0 135 -49 124 -118l-47 -295c-3 -11 -1 -17 14 -17h14l-18 -114h-112c-24 0 -35 13 -28 60
c-14 -22 -49 -65 -96 -65h-2c-48 0 -70 43 -61 103zM128 102c17 0 24 11 27 31l21 131c-12 -7 -28 -15 -36 -23c-11 -11 -15 -21 -18 -42l-10 -62c-3 -19 1 -35 16 -35zM144 564l60 136h105l-63 -136h-102z" />
    <glyph glyph-name="agrave" unicode="&#xe0;" horiz-adv-x="328" 
d="M-14 98l17 108c8 52 24 86 67 109c27 16 96 43 112 51c9 5 11 11 14 23l4 25c4 21 -2 32 -19 32h-3c-16 0 -22 -12 -25 -31l-8 -51h-111l12 74c8 48 29 106 130 106h22c107 0 135 -49 124 -118l-47 -295c-3 -11 -1 -17 14 -17h14l-18 -114h-112c-24 0 -35 13 -28 60
c-14 -22 -49 -65 -96 -65h-2c-48 0 -70 43 -61 103zM128 102c17 0 24 11 27 31l21 131c-12 -7 -28 -15 -36 -23c-11 -11 -15 -21 -18 -42l-10 -62c-3 -19 1 -35 16 -35zM224 700l20 -136h-96l-22 136h98z" />
    <glyph glyph-name="acircumflex" unicode="&#xe2;" horiz-adv-x="328" 
d="M-14 98l17 108c8 52 24 86 67 109c27 16 96 43 112 51c9 5 11 11 14 23l4 25c4 21 -2 32 -19 32h-3c-16 0 -22 -12 -25 -31l-8 -51h-111l12 74c8 48 29 106 130 106h22c107 0 135 -49 124 -118l-47 -295c-3 -11 -1 -17 14 -17h14l-18 -114h-112c-24 0 -35 13 -28 60
c-14 -22 -49 -65 -96 -65h-2c-48 0 -70 43 -61 103zM128 102c17 0 24 11 27 31l21 131c-12 -7 -28 -15 -36 -23c-11 -11 -15 -21 -18 -42l-10 -62c-3 -19 1 -35 16 -35zM267 700l43 -136h-87l-17 62l-31 -62h-88l76 136h104z" />
    <glyph glyph-name="adieresis" unicode="&#xe4;" horiz-adv-x="328" 
d="M-14 98l17 108c8 52 24 86 67 109c27 16 96 43 112 51c9 5 11 11 14 23l4 25c4 21 -2 32 -19 32h-3c-16 0 -22 -12 -25 -31l-8 -51h-111l12 74c8 48 29 106 130 106h22c107 0 135 -49 124 -118l-47 -295c-3 -11 -1 -17 14 -17h14l-18 -114h-112c-24 0 -35 13 -28 60
c-14 -22 -49 -65 -96 -65h-2c-48 0 -70 43 -61 103zM128 102c17 0 24 11 27 31l21 131c-12 -7 -28 -15 -36 -23c-11 -11 -15 -21 -18 -42l-10 -62c-3 -19 1 -35 16 -35zM308 564h-97l17 106h97zM204 670l-17 -106h-97l17 106h97z" />
    <glyph glyph-name="atilde" unicode="&#xe3;" horiz-adv-x="328" 
d="M-14 98l17 108c8 52 24 86 67 109c27 16 96 43 112 51c9 5 11 11 14 23l4 25c4 21 -2 32 -19 32h-3c-16 0 -22 -12 -25 -31l-8 -51h-111l12 74c8 48 29 106 130 106h22c107 0 135 -49 124 -118l-47 -295c-3 -11 -1 -17 14 -17h14l-18 -114h-112c-24 0 -35 13 -28 60
c-14 -22 -49 -65 -96 -65h-2c-48 0 -70 43 -61 103zM128 102c17 0 24 11 27 31l21 131c-12 -7 -28 -15 -36 -23c-11 -11 -15 -21 -18 -42l-10 -62c-3 -19 1 -35 16 -35zM246 659l3 19h71l-9 -57c-7 -39 -26 -58 -53 -58c-23 0 -36 7 -60 20c-11 7 -16 9 -23 9
c-5 0 -9 -4 -10 -11l-3 -18h-71l7 44c7 45 22 71 57 71c21 0 32 -6 59 -19c12 -7 17 -9 24 -9c4 0 7 3 8 9z" />
    <glyph glyph-name="aring" unicode="&#xe5;" horiz-adv-x="328" 
d="M-14 98l17 108c8 52 24 86 67 109c27 16 96 43 112 51c9 5 11 11 14 23l4 25c4 21 -2 32 -19 32h-3c-16 0 -22 -12 -25 -31l-8 -51h-111l12 74c8 48 29 106 130 106h22c107 0 135 -49 124 -118l-47 -295c-3 -11 -1 -17 14 -17h14l-18 -114h-112c-24 0 -35 13 -28 60
c-14 -22 -49 -65 -96 -65h-2c-48 0 -70 43 -61 103zM128 102c17 0 24 11 27 31l21 131c-12 -7 -28 -15 -36 -23c-11 -11 -15 -21 -18 -42l-10 -62c-3 -19 1 -35 16 -35zM200 608c20 0 32 14 32 33s-12 33 -32 33s-32 -14 -32 -33s12 -33 32 -33zM200 562
c-47 0 -80 32 -80 79s33 79 80 79s80 -32 80 -79s-33 -79 -80 -79z" />
    <glyph glyph-name="ccedilla" unicode="&#xe7;" horiz-adv-x="314" 
d="M181 241h116l-18 -113c-13 -83 -48 -139 -137 -139h-20c-103 0 -144 59 -129 146l42 265c13 89 52 148 148 148h25c99 0 128 -63 117 -131l-14 -88h-116l12 76c4 23 2 38 -18 38c-19 0 -24 -13 -27 -37l-43 -271c-3 -20 0 -33 19 -33s23 12 26 31zM83 -188h-66l10 63h51
c17 0 22 9 22 18c0 10 -6 15 -18 15h-34l15 92h56l-6 -36h2c44 0 69 -22 69 -65c0 -59 -40 -87 -101 -87z" />
    <glyph glyph-name="eacute" unicode="&#xe9;" horiz-adv-x="316" 
d="M176 548h26c88 0 137 -49 122 -137l-25 -159h-168l-18 -117c-3 -20 1 -33 20 -33c15 0 25 11 28 33l13 80h119l-14 -88c-15 -95 -65 -137 -141 -137h-27c-83 0 -134 44 -119 140l45 283c11 76 48 135 139 135zM157 413l-11 -65h51l10 63c4 25 -1 38 -22 38
c-19 0 -24 -13 -28 -36zM148 564l60 136h105l-63 -136h-102z" />
    <glyph glyph-name="egrave" unicode="&#xe8;" horiz-adv-x="316" 
d="M176 548h26c88 0 137 -49 122 -137l-25 -159h-168l-18 -117c-3 -20 1 -33 20 -33c15 0 25 11 28 33l13 80h119l-14 -88c-15 -95 -65 -137 -141 -137h-27c-83 0 -134 44 -119 140l45 283c11 76 48 135 139 135zM157 413l-11 -65h51l10 63c4 25 -1 38 -22 38
c-19 0 -24 -13 -28 -36zM225 700l20 -136h-96l-22 136h98z" />
    <glyph glyph-name="ecircumflex" unicode="&#xea;" horiz-adv-x="316" 
d="M176 548h26c88 0 137 -49 122 -137l-25 -159h-168l-18 -117c-3 -20 1 -33 20 -33c15 0 25 11 28 33l13 80h119l-14 -88c-15 -95 -65 -137 -141 -137h-27c-83 0 -134 44 -119 140l45 283c11 76 48 135 139 135zM157 413l-11 -65h51l10 63c4 25 -1 38 -22 38
c-19 0 -24 -13 -28 -36zM270 700l43 -136h-87l-17 62l-31 -62h-88l76 136h104z" />
    <glyph glyph-name="edieresis" unicode="&#xeb;" horiz-adv-x="316" 
d="M176 548h26c88 0 137 -49 122 -137l-25 -159h-168l-18 -117c-3 -20 1 -33 20 -33c15 0 25 11 28 33l13 80h119l-14 -88c-15 -95 -65 -137 -141 -137h-27c-83 0 -134 44 -119 140l45 283c11 76 48 135 139 135zM157 413l-11 -65h51l10 63c4 25 -1 38 -22 38
c-19 0 -24 -13 -28 -36zM309 564h-97l17 106h97zM205 670l-17 -106h-97l17 106h97z" />
    <glyph glyph-name="iacute" unicode="&#xed;" horiz-adv-x="159" 
d="M184 538l-85 -538h-124l85 538h124zM76 564l60 136h105l-63 -136h-102z" />
    <glyph glyph-name="igrave" unicode="&#xec;" horiz-adv-x="159" 
d="M184 538l-85 -538h-124l85 538h124zM155 700l20 -136h-96l-22 136h98z" />
    <glyph glyph-name="icircumflex" unicode="&#xee;" horiz-adv-x="159" 
d="M199 697l25 -134h-80l-6 64l-29 -64h-81l67 134h104zM184 538l-85 -538h-124l85 538h124z" />
    <glyph glyph-name="idieresis" unicode="&#xef;" horiz-adv-x="159" 
d="M130 670l-17 -106h-88l17 106h88zM238 670l-17 -106h-88l17 106h88zM184 538l-85 -538h-124l85 538h124z" />
    <glyph glyph-name="ntilde" unicode="&#xf1;" horiz-adv-x="333" 
d="M-25 0l85 538h123l-10 -65c23 35 56 67 99 67h7c59 0 70 -57 65 -93l-71 -447h-125l62 392c3 23 -2 36 -21 36s-25 -13 -28 -36l-62 -392h-124zM256 659l3 19h71l-9 -57c-7 -39 -26 -58 -53 -58c-23 0 -36 7 -60 20c-11 7 -16 9 -23 9c-5 0 -9 -4 -10 -11l-3 -18h-71
l7 44c7 45 22 71 57 71c21 0 32 -6 59 -19c12 -7 17 -9 24 -9c4 0 7 3 8 9z" />
    <glyph glyph-name="oacute" unicode="&#xf3;" horiz-adv-x="331" 
d="M151 -10h-29c-99 0 -141 66 -128 152l41 255c15 96 57 151 145 151h29c88 0 143 -53 128 -149l-41 -255c-13 -88 -58 -154 -145 -154zM190 437c-20 0 -26 -14 -29 -37l-41 -256c-3 -23 2 -38 22 -38c23 0 26 18 29 38l41 256c3 23 -1 37 -22 37zM157 564l60 136h105
l-63 -136h-102z" />
    <glyph glyph-name="ograve" unicode="&#xf2;" horiz-adv-x="331" 
d="M151 -10h-29c-99 0 -141 66 -128 152l41 255c15 96 57 151 145 151h29c88 0 143 -53 128 -149l-41 -255c-13 -88 -58 -154 -145 -154zM190 437c-20 0 -26 -14 -29 -37l-41 -256c-3 -23 2 -38 22 -38c23 0 26 18 29 38l41 256c3 23 -1 37 -22 37zM233 700l20 -136h-96
l-22 136h98z" />
    <glyph glyph-name="ocircumflex" unicode="&#xf4;" horiz-adv-x="331" 
d="M151 -10h-29c-99 0 -141 66 -128 152l41 255c15 96 57 151 145 151h29c88 0 143 -53 128 -149l-41 -255c-13 -88 -58 -154 -145 -154zM190 437c-20 0 -26 -14 -29 -37l-41 -256c-3 -23 2 -38 22 -38c23 0 26 18 29 38l41 256c3 23 -1 37 -22 37zM277 700l43 -136h-87
l-17 62l-31 -62h-88l76 136h104z" />
    <glyph glyph-name="odieresis" unicode="&#xf6;" horiz-adv-x="331" 
d="M151 -10h-29c-99 0 -141 66 -128 152l41 255c15 96 57 151 145 151h29c88 0 143 -53 128 -149l-41 -255c-13 -88 -58 -154 -145 -154zM190 437c-20 0 -26 -14 -29 -37l-41 -256c-3 -23 2 -38 22 -38c23 0 26 18 29 38l41 256c3 23 -1 37 -22 37zM318 564h-97l17 106h97z
M214 670l-17 -106h-97l17 106h97z" />
    <glyph glyph-name="otilde" unicode="&#xf5;" horiz-adv-x="331" 
d="M151 -10h-29c-99 0 -141 66 -128 152l41 255c15 96 57 151 145 151h29c88 0 143 -53 128 -149l-41 -255c-13 -88 -58 -154 -145 -154zM190 437c-20 0 -26 -14 -29 -37l-41 -256c-3 -23 2 -38 22 -38c23 0 26 18 29 38l41 256c3 23 -1 37 -22 37zM258 659l3 19h71l-9 -57
c-7 -39 -26 -58 -53 -58c-23 0 -36 7 -60 20c-11 7 -16 9 -23 9c-5 0 -9 -4 -10 -11l-3 -18h-71l7 44c7 45 22 71 57 71c21 0 32 -6 59 -19c12 -7 17 -9 24 -9c4 0 7 3 8 9z" />
    <glyph glyph-name="uacute" unicode="&#xfa;" horiz-adv-x="330" 
d="M355 538l-85 -538h-123l10 65c-20 -33 -57 -67 -98 -67h-7c-56 0 -70 55 -62 99l70 441h125l-62 -392c-4 -24 2 -36 19 -36c19 0 24 13 27 36l62 392h124zM158 564l60 136h105l-63 -136h-102z" />
    <glyph glyph-name="ugrave" unicode="&#xf9;" horiz-adv-x="330" 
d="M355 538l-85 -538h-123l10 65c-20 -33 -57 -67 -98 -67h-7c-56 0 -70 55 -62 99l70 441h125l-62 -392c-4 -24 2 -36 19 -36c19 0 24 13 27 36l62 392h124zM242 700l20 -136h-96l-22 136h98z" />
    <glyph glyph-name="ucircumflex" unicode="&#xfb;" horiz-adv-x="330" 
d="M355 538l-85 -538h-123l10 65c-20 -33 -57 -67 -98 -67h-7c-56 0 -70 55 -62 99l70 441h125l-62 -392c-4 -24 2 -36 19 -36c19 0 24 13 27 36l62 392h124zM279 700l43 -136h-87l-17 62l-31 -62h-88l76 136h104z" />
    <glyph glyph-name="udieresis" unicode="&#xfc;" horiz-adv-x="330" 
d="M355 538l-85 -538h-123l10 65c-20 -33 -57 -67 -98 -67h-7c-56 0 -70 55 -62 99l70 441h125l-62 -392c-4 -24 2 -36 19 -36c19 0 24 13 27 36l62 392h124zM319 564h-97l17 106h97zM215 670l-17 -106h-97l17 106h97z" />
    <glyph glyph-name="dagger" unicode="&#x2020;" horiz-adv-x="263" 
d="M27 0l75 475h-62l20 126h62l23 143h124l-23 -143h63l-20 -126h-63l-75 -475h-124z" />
    <glyph glyph-name="degree" unicode="&#xb0;" horiz-adv-x="210" 
d="M130 650c0 -23 12 -38 36 -38c23 0 36 15 36 38c0 21 -15 37 -36 37c-24 0 -36 -17 -36 -37zM66 649c0 56 41 98 101 98c57 0 99 -42 99 -98s-42 -97 -99 -97c-60 0 -101 41 -101 97z" />
    <glyph glyph-name="cent" unicode="&#xa2;" horiz-adv-x="320" 
d="M303 242l-18 -115c-11 -72 -49 -138 -141 -138h-7l-10 -64h-34l10 65c-87 7 -122 66 -111 139l43 271c13 91 54 148 147 148h10l10 64h34l-11 -65c84 -7 117 -58 106 -129l-14 -88h-106l12 77c3 17 1 31 -14 38l-55 -350c16 5 22 20 25 39l17 108h107zM150 407l-43 -273
c-3 -15 1 -30 13 -37l56 350c-19 -5 -23 -20 -26 -40z" />
    <glyph glyph-name="sterling" unicode="&#xa3;" horiz-adv-x="409" 
d="M86 241c3 16 3 41 6 69h-74l17 110h62c3 43 5 85 10 117l8 53c14 89 48 163 160 163h32c108 0 131 -69 120 -144l-20 -126h-120l17 107c4 27 0 42 -23 42c-24 0 -30 -13 -35 -42l-12 -75c-5 -27 -8 -60 -11 -95h121l-17 -110h-114c-3 -23 -5 -42 -8 -58
c-12 -71 -43 -108 -79 -135h122l22 132h120l-40 -249h-381l14 89c63 38 89 70 103 152z" />
    <glyph glyph-name="section" unicode="&#xa7;" horiz-adv-x="395" 
d="M384 270l-4 -24c-11 -69 -51 -99 -100 -110c31 -39 35 -76 26 -132l-10 -63c-15 -91 -57 -150 -157 -150h-30c-91 0 -138 49 -123 144l18 114h126l-17 -107c-4 -24 3 -36 22 -36c20 0 25 12 28 33l9 57c5 38 3 57 -27 87l-68 69c-51 52 -70 102 -59 163l4 24
c11 60 50 93 102 104c-25 35 -33 82 -24 140l4 26c13 83 46 150 158 150h19c104 0 145 -44 129 -147l-14 -88h-124l14 87c4 25 -1 36 -21 36c-23 0 -27 -14 -31 -39l-3 -19c-8 -44 -5 -68 24 -94l66 -68c63 -63 71 -109 63 -157zM223 325l-49 49c-12 -5 -25 -17 -28 -36
l-2 -12c-4 -27 -1 -41 30 -72l52 -54c11 5 25 15 28 34l2 12c4 27 3 43 -33 79z" />
    <glyph glyph-name="bullet" unicode="&#x2022;" horiz-adv-x="237" 
d="M23 329c0 61 42 109 105 109c61 0 105 -48 105 -109s-44 -108 -105 -108c-63 0 -105 47 -105 108z" />
    <glyph glyph-name="paragraph" unicode="&#xb6;" horiz-adv-x="367" 
d="M438 744l-15 -98h-38l-102 -646h-84l102 646h-32l-102 -646h-84l55 342h-2c-65 0 -106 34 -95 105l31 197c11 61 46 100 114 100h252z" />
    <glyph glyph-name="germandbls" unicode="&#xdf;" horiz-adv-x="335" 
d="M288 443c31 -13 56 -42 45 -101l-34 -212c-13 -84 -36 -130 -127 -130h-56l19 119h17c15 0 17 6 20 25l29 180c3 19 1 24 -14 24h-17l20 118h16c11 0 17 8 20 25l18 113c3 20 -4 30 -21 30h-2c-19 0 -23 -10 -26 -29l-96 -605h-124l96 606c11 83 52 138 146 138h26
c95 0 135 -48 122 -133l-14 -89c-8 -49 -34 -72 -63 -79z" />
    <glyph glyph-name="registered" unicode="&#xae;" horiz-adv-x="309" 
d="M209 399h-7c-77 0 -126 47 -126 134v86c0 80 46 131 126 131h8c76 0 121 -50 121 -130v-87c0 -84 -53 -134 -122 -134zM202 436h7c60 0 80 42 80 102v77c0 55 -20 98 -79 98h-8c-63 0 -84 -33 -84 -101v-74c0 -60 21 -102 84 -102zM197 560v-93h-50v220h75
c27 0 41 -13 41 -40v-30c0 -16 -7 -25 -20 -32c13 -4 20 -14 20 -29v-65c0 -9 1 -15 3 -19v-5h-49c-3 5 -4 11 -4 20v60c0 9 -1 13 -9 13h-7zM197 650v-51h8c7 0 8 2 8 13v26c0 8 -3 12 -8 12h-8z" />
    <glyph glyph-name="copyright" unicode="&#xa9;" horiz-adv-x="558" 
d="M301 -11h-10c-149 0 -237 77 -237 255v258c0 167 89 253 238 253h12c149 0 232 -82 232 -253v-258c0 -178 -99 -255 -235 -255zM293 56h8c116 0 159 80 159 203v230c0 115 -40 199 -157 199h-10c-119 0 -160 -71 -160 -199v-230c0 -127 45 -203 160 -203zM299 207
c15 0 17 11 17 26v107h104v-117c0 -65 -44 -113 -112 -113h-18c-79 0 -117 50 -117 122v277c0 80 37 128 114 128h22c63 0 110 -30 110 -115v-82h-104v75c0 16 -1 26 -16 26s-17 -9 -17 -26v-282c0 -15 2 -26 17 -26z" />
    <glyph glyph-name="trademark" unicode="&#x2122;" horiz-adv-x="344" 
d="M181 463l45 281h74l-5 -122l31 122h80l-45 -281h-56l26 159l-47 -159h-27l4 159l-26 -159h-54zM214 744l-10 -64h-30l-35 -217h-71l35 217h-30l10 64h131z" />
    <glyph glyph-name="acute" unicode="&#xb4;" 
d="M142 564l60 136h105l-63 -136h-102z" />
    <glyph glyph-name="dieresis" unicode="&#xa8;" 
d="M324 564h-97l17 106h97zM220 670l-17 -106h-97l17 106h97z" />
    <glyph glyph-name="AE" unicode="&#xc6;" horiz-adv-x="501" 
d="M450 0h-273l20 131h-79l-42 -131h-124l250 744h357l-21 -132h-135l-25 -161h104l-21 -135h-104l-29 -182h143zM159 258h58l56 352z" />
    <glyph glyph-name="Oslash" unicode="&#xd8;" horiz-adv-x="372" 
d="M401 564l-62 -394c-17 -108 -68 -181 -167 -181h-26c-39 0 -71 14 -94 31l-11 -20h-69l38 71c-11 27 -15 59 -8 99l62 393c19 115 57 190 164 190h27c44 0 75 -13 96 -30l11 21h69l-38 -74c12 -28 15 -65 8 -106zM166 122c27 0 36 19 40 42l38 238l-112 -238v-1
c-4 -25 7 -41 34 -41zM239 623c-23 0 -37 -16 -42 -49l-37 -230l112 238c2 27 -9 41 -33 41z" />
    <glyph glyph-name="yen" unicode="&#xa5;" horiz-adv-x="349" 
d="M230 218l-34 -218h-129l34 218h-97l14 84h97l4 26h-98l14 84h84l-42 332h123l11 -241l80 241h120l-137 -332h85l-14 -84h-97l-4 -26h98l-14 -84h-98z" />
    <glyph glyph-name="ordfeminine" unicode="&#xaa;" horiz-adv-x="203" 
d="M227 449h-66c-15 0 -22 9 -19 37c-9 -16 -30 -40 -59 -40c-31 0 -41 27 -37 54l9 57c5 29 16 47 43 60c20 11 50 21 63 28c5 2 7 6 8 11l2 13c2 11 -2 16 -12 16c-7 0 -11 -6 -13 -18l-3 -18h-70l5 33c3 29 19 64 78 64h14c64 0 82 -28 75 -71l-24 -150
c-1 -7 -1 -10 8 -10h9zM134 508c8 0 13 6 15 19l9 58c-5 -3 -14 -6 -18 -9c-7 -5 -11 -15 -13 -28l-3 -20c-2 -13 1 -20 10 -20z" />
    <glyph glyph-name="ordmasculine" unicode="&#xba;" horiz-adv-x="208" 
d="M149 446h-16c-60 0 -85 39 -77 92l18 114c10 63 40 94 89 94h16c56 0 86 -37 77 -94l-18 -114c-10 -61 -40 -92 -89 -92zM152 655l-19 -120c-2 -13 1 -20 10 -20s14 6 16 19l19 120c3 17 -1 26 -10 26c-12 0 -13 -10 -16 -25z" />
    <glyph glyph-name="ae" unicode="&#xe6;" horiz-adv-x="477" 
d="M156 58c-15 -23 -53 -63 -101 -63h-3c-51 0 -76 46 -68 91l16 103c9 55 23 84 66 108c27 16 97 42 113 50c11 5 11 12 14 25l7 45c3 19 -4 29 -19 29h-3c-16 0 -22 -10 -25 -29l-12 -72h-110l15 93c8 48 29 106 130 106h22c51 0 68 -16 80 -27c8 9 33 29 74 29h21
c80 0 126 -51 113 -135l-26 -159h-167l-18 -117c-3 -20 1 -33 20 -33c17 0 24 11 28 36l12 77h119l-15 -90c-15 -92 -63 -135 -139 -135h-27c-56 0 -98 21 -117 68zM128 102c17 0 24 11 27 32l18 111c-12 -5 -28 -15 -36 -22c-11 -11 -15 -23 -18 -43l-7 -44
c-3 -21 0 -34 16 -34zM319 413l-11 -65h51l11 65c3 23 0 36 -23 36c-19 0 -24 -13 -28 -36z" />
    <glyph glyph-name="oslash" unicode="&#xf8;" horiz-adv-x="330" 
d="M-4 151l39 246c15 96 56 151 144 151h29c39 0 65 -12 82 -27l11 17h64l-39 -63c8 -19 16 -45 9 -81l-40 -253c-13 -83 -57 -151 -144 -151h-29c-35 0 -63 13 -80 28l-11 -18h-65l38 63c-7 19 -15 47 -8 88zM159 397l-21 -130l74 132v1c3 23 0 37 -23 37
c-21 0 -26 -13 -30 -40zM141 106c23 0 27 17 30 36l20 129l-73 -131c-3 -20 3 -34 23 -34z" />
    <glyph glyph-name="questiondown" unicode="&#xbf;" horiz-adv-x="319" 
d="M141 370h101l-22 -134c-8 -52 -18 -69 -48 -107l-45 -55c-23 -29 -29 -52 -34 -84l-8 -50c-4 -23 3 -35 22 -35c20 0 24 12 28 35l18 114h121l-19 -120c-13 -80 -33 -150 -145 -150h-25c-109 0 -145 53 -132 145l8 52c11 68 21 98 69 146l60 65c22 24 27 38 35 79z
M137 393l23 144h116l-23 -144h-116z" />
    <glyph glyph-name="exclamdown" unicode="&#xa1;" horiz-adv-x="158" 
d="M38 394l23 144h116l-23 -144h-116zM72 -206h-142l136 577h51z" />
    <glyph glyph-name="florin" unicode="&#x192;" horiz-adv-x="273" 
d="M-30 -188l110 550h-56l19 119h61l35 175c10 55 36 88 110 88h87l-18 -113h-39c-17 0 -23 -6 -27 -27l-25 -123h67l-19 -119h-72l-109 -550h-124z" />
    <glyph glyph-name="guillemotleft" unicode="&#xab;" horiz-adv-x="264" 
d="M287 451l-74 -169l22 -163h-90l-25 165l76 167h91zM175 451l-77 -167l26 -165h-90l-26 137l10 60l65 135h92z" />
    <glyph glyph-name="guillemotright" unicode="&#xbb;" horiz-adv-x="264" 
d="M94 119l78 167l-24 165h90l24 -137l-9 -60l-68 -135h-91zM-16 119l74 169l-22 163h90l25 -165l-76 -167h-91z" />
    <glyph glyph-name="ellipsis" unicode="&#x2026;" horiz-adv-x="419" 
d="M270 144h116l-23 -144h-116zM110 0l23 144h116l-23 -144h-116zM89 0h-116l23 144h116z" />
    <glyph glyph-name="nbspace" unicode="&#xa0;" horiz-adv-x="103" 
 />
    <glyph glyph-name="Agrave" unicode="&#xc0;" horiz-adv-x="338" 
d="M176 0l6 125h-79l-31 -125h-117l209 744h153l-17 -744h-124zM136 253h52l11 251zM275 885l19 -115h-99l-24 115h104z" />
    <glyph glyph-name="Atilde" unicode="&#xc3;" horiz-adv-x="338" 
d="M176 0l6 125h-79l-31 -125h-117l209 744h153l-17 -744h-124zM136 253h52l11 251zM290 864l3 19h72l-9 -57c-7 -39 -27 -55 -54 -55c-23 0 -36 6 -61 19c-11 7 -15 9 -22 9c-5 0 -8 -4 -9 -11l-3 -19h-71l7 44c7 46 25 69 56 69c20 0 33 -6 60 -18c11 -5 16 -8 23 -8
c5 0 7 3 8 8z" />
    <glyph glyph-name="Otilde" unicode="&#xd5;" horiz-adv-x="376" 
d="M241 623c-27 0 -35 -17 -40 -49l-65 -410c-3 -20 2 -42 31 -42c28 0 36 23 39 42l65 410c5 33 -5 49 -30 49zM230 753h27c119 0 165 -76 148 -189l-62 -392c-19 -113 -69 -183 -164 -183h-27c-112 0 -168 71 -149 188l61 386c19 116 58 190 166 190zM309 865l3 19h72
l-9 -57c-7 -39 -27 -55 -54 -55c-23 0 -36 6 -61 19c-11 7 -15 9 -22 9c-5 0 -8 -4 -9 -11l-3 -19h-71l7 44c7 46 25 69 56 69c20 0 33 -6 60 -18c11 -5 16 -8 23 -8c5 0 7 3 8 8z" />
    <glyph glyph-name="OE" unicode="&#x152;" horiz-adv-x="503" 
d="M2 172l63 399c16 108 54 180 134 180c64 0 84 -35 94 -61l8 54h260l-21 -132h-135l-26 -161h104l-21 -135h-104l-29 -182h144l-22 -134h-268l9 55c-16 -29 -51 -65 -103 -65c-68 0 -106 58 -87 182zM239 623c-27 0 -34 -18 -41 -54l-62 -393c-5 -35 2 -54 29 -54
s34 19 41 54l62 393c5 33 -2 54 -29 54z" />
    <glyph glyph-name="oe" unicode="&#x153;" horiz-adv-x="493" 
d="M207 21c-11 -11 -33 -31 -73 -31h-26c-93 0 -127 66 -114 152l41 255c15 96 59 151 144 151h30c51 0 71 -20 78 -31c8 11 34 31 73 31h26c84 0 131 -49 116 -137l-26 -159h-167l-18 -117c-3 -19 0 -33 19 -33s25 11 29 36l12 77h119l-15 -90c-15 -92 -63 -135 -139 -135
h-26c-51 0 -76 22 -83 31zM161 400l-41 -256c-3 -23 2 -38 23 -38s25 18 28 38l41 256c3 23 -1 37 -22 37c-20 0 -26 -14 -29 -37zM324 348h51l11 65c3 23 0 36 -23 36c-19 0 -25 -15 -28 -36z" />
    <glyph glyph-name="endash" unicode="&#x2013;" horiz-adv-x="328" 
d="M27 345h299l-14 -90h-299z" />
    <glyph glyph-name="emdash" unicode="&#x2014;" horiz-adv-x="494" 
d="M27 345h465l-14 -90h-465z" />
    <glyph glyph-name="quotedblleft" unicode="&#x201c;" horiz-adv-x="266" 
d="M182 524l17 107c8 51 30 94 41 113h62c-11 -23 -27 -61 -34 -92h43l-21 -128h-108zM57 524l17 107c8 51 30 94 41 113h62c-11 -23 -27 -61 -34 -92h43l-21 -128h-108z" />
    <glyph glyph-name="quotedblright" unicode="&#x201d;" horiz-adv-x="266" 
d="M325 744l-17 -107c-8 -51 -30 -94 -41 -113h-62c11 23 27 61 34 92h-43l21 128h108zM200 744l-17 -107c-8 -51 -30 -94 -41 -113h-62c11 23 27 61 34 92h-43l21 128h108z" />
    <glyph glyph-name="quoteleft" unicode="&#x2018;" horiz-adv-x="141" 
d="M57 524l17 107c8 51 30 94 41 113h62c-11 -23 -27 -61 -34 -92h43l-21 -128h-108z" />
    <glyph glyph-name="quoteright" unicode="&#x2019;" horiz-adv-x="141" 
d="M200 744l-17 -107c-8 -51 -30 -94 -41 -113h-62c11 23 27 61 34 92h-43l21 128h108z" />
    <glyph glyph-name="divide" unicode="&#xf7;" horiz-adv-x="333" 
d="M27 346h304l-14 -91h-304zM251 478l-17 -103h-100l16 103h101zM210 223l-16 -103h-101l16 103h101z" />
    <glyph glyph-name="ydieresis" unicode="&#xff;" horiz-adv-x="308" 
d="M56 9l-15 529h119l-7 -296l76 296h125l-206 -646c-17 -55 -39 -80 -79 -80h-119l19 118h49c19 0 24 10 28 25l6 23c3 11 4 21 4 31zM306 564h-97l17 106h97zM202 670l-17 -106h-97l17 106h97z" />
    <glyph glyph-name="Ydieresis" unicode="&#x178;" horiz-adv-x="322" 
d="M403 744l-168 -444l-47 -300h-130l47 296l-36 448h126l4 -264l86 264h118zM351 770h-97l17 106h97zM229 770h-97l17 106h97z" />
    <glyph glyph-name="fraction" unicode="&#x2044;" horiz-adv-x="302" 
d="M318 744h75l-376 -744h-75z" />
    <glyph glyph-name="Euro" unicode="&#x20ac;" horiz-adv-x="405" 
d="M10 291l14 84h53l4 26h-53l14 84h52l16 100c16 92 50 169 165 169h27c130 0 152 -78 138 -164l-13 -82h-129l13 79c4 27 -6 41 -29 41c-25 0 -32 -14 -37 -43l-16 -100h129l-14 -84h-128l-4 -26h128l-14 -84h-128l-19 -124c-4 -28 4 -47 29 -47c23 0 32 18 36 45l16 101
h129l-17 -105c-13 -88 -49 -172 -163 -172h-26c-124 0 -155 84 -139 178l19 124h-53z" />
    <glyph glyph-name="guilsinglleft" unicode="&#x2039;" horiz-adv-x="157" 
d="M108 283l18 -164h-96l-22 138l10 59l62 135h100z" />
    <glyph glyph-name="guilsinglright" unicode="&#x203a;" horiz-adv-x="157" 
d="M56 286l-19 165h97l21 -138l-9 -59l-63 -135h-99z" />
    <glyph glyph-name="daggerdbl" unicode="&#x2021;" horiz-adv-x="263" 
d="M49 144h-62l20 125h62l33 206h-62l20 125h62l23 144h124l-23 -144h63l-21 -125h-62l-32 -206h62l-20 -125h-62l-23 -144h-124z" />
    <glyph glyph-name="periodcentered" unicode="&#xb7;" horiz-adv-x="145" 
d="M155 418l-23 -144h-116l23 144h116z" />
    <glyph glyph-name="quotesinglbase" unicode="&#x201a;" horiz-adv-x="142" 
d="M104 128l-17 -107c-8 -51 -30 -94 -41 -113h-62c11 23 27 61 34 92h-43l21 128h108z" />
    <glyph glyph-name="quotedblbase" unicode="&#x201e;" horiz-adv-x="266" 
d="M229 128l-17 -107c-8 -51 -30 -94 -41 -113h-62c11 23 27 61 34 92h-43l21 128h108zM104 128l-17 -107c-8 -51 -30 -94 -41 -113h-62c11 23 27 61 34 92h-43l21 128h108z" />
    <glyph glyph-name="perthousand" unicode="&#x2030;" horiz-adv-x="714" 
d="M696 231l-20 -127c-11 -68 -46 -109 -106 -109h-19c-59 0 -98 38 -87 110l20 127c11 71 46 106 105 106h19c60 0 99 -39 88 -107zM584 94l23 144c2 13 -3 20 -15 20c-9 0 -15 -7 -17 -20l-23 -143c-2 -13 3 -20 14 -20c12 0 15 7 18 19zM157 407h-19
c-59 0 -98 38 -87 110l20 127c11 71 46 106 105 106h19c60 0 99 -39 88 -107l-20 -127c-11 -68 -46 -109 -106 -109zM353 94l23 144c2 13 -3 20 -15 20c-9 0 -15 -7 -17 -20l-23 -143c-2 -13 3 -20 14 -20c12 0 15 7 18 19zM413 744h77l-388 -744h-78zM171 506l23 144
c2 13 -3 20 -15 20c-9 0 -15 -7 -17 -20l-23 -143c-2 -13 3 -20 14 -20c12 0 15 7 18 19zM465 231l-20 -127c-11 -68 -46 -109 -106 -109h-19c-59 0 -98 38 -87 110l20 127c11 71 46 106 105 106h19c60 0 99 -39 88 -107z" />
    <glyph glyph-name="Acircumflex" unicode="&#xc2;" horiz-adv-x="338" 
d="M176 0l6 125h-79l-31 -125h-117l209 744h153l-17 -744h-124zM136 253h52l11 251zM203 885h100l51 -115h-86l-22 47l-30 -47h-89z" />
    <glyph glyph-name="Ecircumflex" unicode="&#xca;" horiz-adv-x="313" 
d="M96 744h275l-21 -131h-145l-26 -162h116l-22 -134h-116l-29 -183h154l-22 -134h-282zM199 885h100l51 -115h-86l-22 47l-30 -47h-89z" />
    <glyph glyph-name="Aacute" unicode="&#xc1;" horiz-adv-x="338" 
d="M176 0l6 125h-79l-31 -125h-117l209 744h153l-17 -744h-124zM136 253h52l11 251zM189 770l56 115h108l-59 -115h-105z" />
    <glyph glyph-name="Edieresis" unicode="&#xcb;" horiz-adv-x="313" 
d="M96 744h275l-21 -131h-145l-26 -162h116l-22 -134h-116l-29 -183h154l-22 -134h-282zM347 770h-97l17 106h97zM225 770h-97l17 106h97z" />
    <glyph glyph-name="Egrave" unicode="&#xc8;" horiz-adv-x="313" 
d="M96 744h275l-21 -131h-145l-26 -162h116l-22 -134h-116l-29 -183h154l-22 -134h-282zM271 885l19 -115h-99l-24 115h104z" />
    <glyph glyph-name="Iacute" unicode="&#xcd;" horiz-adv-x="170" 
d="M225 744l-118 -744h-129l118 744h129zM114 770l56 115h108l-59 -115h-105z" />
    <glyph glyph-name="Icircumflex" unicode="&#xce;" horiz-adv-x="170" 
d="M225 744l-118 -744h-129l118 744h129zM122 885h100l51 -115h-86l-22 47l-30 -47h-89z" />
    <glyph glyph-name="Idieresis" unicode="&#xcf;" horiz-adv-x="170" 
d="M225 744l-118 -744h-129l118 744h129zM274 770h-97l17 106h97zM152 770h-97l17 106h97z" />
    <glyph glyph-name="Igrave" unicode="&#xcc;" horiz-adv-x="170" 
d="M225 744l-118 -744h-129l118 744h129zM195 885l19 -115h-99l-24 115h104z" />
    <glyph glyph-name="Oacute" unicode="&#xd3;" horiz-adv-x="376" 
d="M241 623c-27 0 -35 -17 -40 -49l-65 -410c-3 -20 2 -42 31 -42c28 0 36 23 39 42l65 410c5 33 -5 49 -30 49zM230 753h27c119 0 165 -76 148 -189l-62 -392c-19 -113 -69 -183 -164 -183h-27c-112 0 -168 71 -149 188l61 386c19 116 58 190 166 190zM210 771l56 115h108
l-59 -115h-105z" />
    <glyph glyph-name="Ocircumflex" unicode="&#xd4;" horiz-adv-x="376" 
d="M241 623c-27 0 -35 -17 -40 -49l-65 -410c-3 -20 2 -42 31 -42c28 0 36 23 39 42l65 410c5 33 -5 49 -30 49zM230 753h27c119 0 165 -76 148 -189l-62 -392c-19 -113 -69 -183 -164 -183h-27c-112 0 -168 71 -149 188l61 386c19 116 58 190 166 190zM224 886h100l51 -115
h-86l-22 47l-30 -47h-89z" />
    <glyph glyph-name="Ograve" unicode="&#xd2;" horiz-adv-x="376" 
d="M241 623c-27 0 -35 -17 -40 -49l-65 -410c-3 -20 2 -42 31 -42c28 0 36 23 39 42l65 410c5 33 -5 49 -30 49zM230 753h27c119 0 165 -76 148 -189l-62 -392c-19 -113 -69 -183 -164 -183h-27c-112 0 -168 71 -149 188l61 386c19 116 58 190 166 190zM294 886l19 -115h-99
l-24 115h104z" />
    <glyph glyph-name="Uacute" unicode="&#xda;" horiz-adv-x="368" 
d="M5 177l90 567h133l-91 -576c-4 -28 4 -46 27 -46s31 15 36 46l91 576h133l-90 -567c-21 -133 -69 -188 -165 -188h-29c-99 0 -154 67 -135 188zM206 770l56 115h108l-59 -115h-105z" />
    <glyph glyph-name="Ucircumflex" unicode="&#xdb;" horiz-adv-x="368" 
d="M5 177l90 567h133l-91 -576c-4 -28 4 -46 27 -46s31 15 36 46l91 576h133l-90 -567c-21 -133 -69 -188 -165 -188h-29c-99 0 -154 67 -135 188zM222 885h100l51 -115h-86l-22 47l-30 -47h-89z" />
    <glyph glyph-name="Ugrave" unicode="&#xd9;" horiz-adv-x="368" 
d="M5 177l90 567h133l-91 -576c-4 -28 4 -46 27 -46s31 15 36 46l91 576h133l-90 -567c-21 -133 -69 -188 -165 -188h-29c-99 0 -154 67 -135 188zM296 885l19 -115h-99l-24 115h104z" />
    <glyph glyph-name="dotlessi" unicode="&#x131;" horiz-adv-x="159" 
d="M184 538l-85 -538h-124l85 538h124z" />
    <glyph glyph-name="circumflex" unicode="&#x2c6;" 
d="M285 700l43 -136h-87l-17 62l-31 -62h-88l76 136h104z" />
    <glyph glyph-name="tilde" unicode="&#x2dc;" 
d="M265 659l3 19h71l-9 -57c-7 -39 -26 -58 -53 -58c-23 0 -36 7 -60 20c-11 7 -16 9 -23 9c-5 0 -9 -4 -10 -11l-3 -18h-71l7 44c7 45 22 71 57 71c21 0 32 -6 59 -19c12 -7 17 -9 24 -9c4 0 7 3 8 9z" />
    <glyph glyph-name="macron" unicode="&#xaf;" 
d="M124 576l14 87h186l-14 -87h-186z" />
    <glyph glyph-name="breve" unicode="&#x2d8;" 
d="M226 563h-3c-64 0 -107 37 -96 110l1 7h83l-1 -6c-4 -23 5 -33 20 -33h1c14 0 23 11 27 33l1 6h81l-1 -8c-9 -73 -56 -109 -113 -109z" />
    <glyph glyph-name="dotaccent" unicode="&#x2d9;" 
d="M298 690l-20 -126h-124l20 126h124z" />
    <glyph glyph-name="ring" unicode="&#x2da;" 
d="M228 608c20 0 32 14 32 33s-12 33 -32 33s-32 -14 -32 -33s12 -33 32 -33zM228 562c-47 0 -80 32 -80 79s33 79 80 79s80 -32 80 -79s-33 -79 -80 -79z" />
    <glyph glyph-name="cedilla" unicode="&#xb8;" 
d="M86 -188h-66l10 63h51c17 0 22 9 22 18c0 10 -6 15 -18 15h-34l15 92h56l-6 -36h2c44 0 69 -22 69 -65c0 -59 -40 -87 -101 -87z" />
    <glyph glyph-name="hungarumlaut" unicode="&#x2dd;" 
d="M294 564h-84l53 136h84zM104 564l51 136h84l-51 -136h-84z" />
    <glyph glyph-name="ogonek" unicode="&#x2db;" 
d="M160 -188h-49c-51 0 -77 27 -70 70l2 13c7 37 42 73 86 105h61c-40 -40 -56 -70 -56 -90c0 -13 8 -19 23 -19h15z" />
    <glyph glyph-name="caron" unicode="&#x2c7;" 
d="M169 564l-43 136h86l18 -62l31 62h88l-77 -136h-103z" />
    <glyph glyph-name="idotaccent" horiz-adv-x="159" 
d="M184 538l-85 -538h-124l85 538h124zM208 690l-20 -126h-124l20 126h124z" />
    <glyph glyph-name="space_uni0326" 
d="M129 -203h-53c8 17 18 48 22 67h-43l17 110h102l-11 -70c-9 -60 -27 -94 -34 -107z" />
    <glyph glyph-name="zero.num" horiz-adv-x="228" 
d="M176 750h11c68 0 99 -38 88 -98l-25 -163c-9 -56 -43 -92 -100 -92h-13c-63 0 -96 34 -87 98l25 157c9 59 34 98 101 98zM178 675c-11 0 -13 -6 -16 -21l-26 -161c-2 -13 2 -19 12 -19c9 0 15 6 17 19l26 161c2 14 -2 21 -13 21z" />
    <glyph glyph-name="one.num" horiz-adv-x="151" 
d="M110 637h-43l11 67c41 0 51 17 58 40h72l-54 -340h-81z" />
    <glyph glyph-name="two.num" horiz-adv-x="214" 
d="M229 402h-200l7 43c8 44 22 64 99 136c33 30 36 42 41 68l2 13c2 15 -2 22 -11 22c-11 0 -12 -6 -15 -22l-8 -50h-77l11 63c5 34 20 75 91 75h14c64 0 88 -32 81 -80l-4 -19c-8 -51 -25 -76 -79 -117c-60 -44 -65 -53 -68 -64h55l9 50h72z" />
    <glyph glyph-name="three.num" horiz-adv-x="210" 
d="M146 630h-75l5 36c7 52 28 84 91 84h12c56 0 87 -25 78 -82l-3 -21c-5 -35 -22 -50 -39 -55c15 -7 32 -23 27 -58l-8 -51c-9 -51 -33 -86 -96 -86h-13c-70 0 -88 37 -80 79l8 51h79l-8 -46c-1 -8 0 -17 11 -17s12 8 13 17l7 49c3 12 0 15 -8 15h-39l12 69h36
c11 0 11 3 14 16l7 38c2 12 -2 18 -11 18c-11 0 -11 -6 -14 -18z" />
    <glyph glyph-name="four.num" horiz-adv-x="208" 
d="M40 462l9 58l117 225h83l-34 -211h27l-12 -72h-25l-10 -59h-77l9 59h-87zM108 534h30l14 89c-11 -18 -33 -71 -44 -89z" />
    <glyph glyph-name="five.num" horiz-adv-x="212" 
d="M135 545h-76l32 199h175l-12 -71h-100l-9 -61c8 13 29 37 60 37h2c32 0 48 -26 43 -65l-14 -93c-9 -60 -36 -94 -96 -94h-14c-67 0 -89 37 -81 82l6 40h82l-7 -41c-1 -8 1 -15 10 -15c8 0 12 7 13 15l13 83c2 12 -1 18 -10 18c-8 0 -11 -7 -14 -18z" />
    <glyph glyph-name="six.num" horiz-adv-x="223" 
d="M210 623h2c35 0 51 -28 46 -61l-12 -75c-7 -51 -38 -90 -98 -90h-11c-68 0 -95 39 -87 96l27 169c8 45 26 88 99 88h10c69 0 89 -37 81 -85l-5 -26h-81l4 26c2 11 -1 16 -10 16c-11 0 -12 -8 -13 -16l-12 -74c11 13 29 32 60 32zM145 466c9 0 15 7 17 20l8 54
c2 14 -2 21 -13 21c-9 0 -12 -8 -15 -21l-8 -54c-2 -13 2 -20 11 -20z" />
    <glyph glyph-name="seven.num" horiz-adv-x="196" 
d="M86 744h175l-5 -36c-5 -25 -25 -74 -48 -147c-21 -65 -28 -98 -36 -158h-95c11 59 16 85 49 150c37 72 53 102 57 129h-35l-10 -59h-72z" />
    <glyph glyph-name="eight.num" horiz-adv-x="213" 
d="M262 672l-4 -28c-5 -37 -21 -53 -38 -60c16 -8 30 -30 23 -63l-6 -40c-8 -48 -34 -84 -98 -84h-8c-68 0 -93 34 -85 85l6 41c5 27 18 50 42 61c-12 11 -24 28 -20 59l4 28c9 53 34 79 94 79h9c60 0 89 -26 81 -78zM176 630l6 39c2 11 -1 16 -10 16c-7 0 -11 -5 -13 -16
l-7 -39c-2 -11 2 -17 11 -17c7 0 11 6 13 17zM154 483l8 47c2 13 -2 20 -11 20c-11 0 -12 -5 -15 -20l-8 -47c-2 -11 2 -17 11 -17c11 0 12 6 15 17z" />
    <glyph glyph-name="nine.num" horiz-adv-x="223" 
d="M63 593l11 67c8 53 34 90 98 90h11c68 0 96 -39 87 -96l-27 -169c-5 -44 -25 -88 -96 -88h-11c-71 0 -90 37 -83 85l5 26h81l-4 -26c-2 -11 2 -16 11 -16s10 8 13 16l11 74c-9 -12 -29 -32 -58 -32h-2c-36 0 -54 29 -47 69zM176 681c-9 0 -15 -7 -17 -20l-9 -54
c-2 -14 2 -21 13 -21c8 0 13 7 15 21l8 54c3 13 0 20 -10 20z" />
    <glyph glyph-name="zero.den" horiz-adv-x="228" 
d="M113 348h11c68 0 99 -38 88 -98l-25 -163c-9 -56 -43 -92 -100 -92h-13c-63 0 -96 34 -87 98l25 157c9 59 34 98 101 98zM115 273c-11 0 -13 -6 -16 -21l-26 -161c-2 -13 2 -19 12 -19c9 0 15 6 17 19l26 161c2 14 -2 21 -13 21z" />
    <glyph glyph-name="one.den" horiz-adv-x="151" 
d="M47 233h-43l11 67c41 0 51 17 58 40h72l-54 -340h-81z" />
    <glyph glyph-name="two.den" horiz-adv-x="214" 
d="M166 0h-200l7 43c8 44 22 64 99 136c33 30 36 42 41 68l2 13c2 15 -2 22 -11 22c-11 0 -12 -6 -15 -22l-8 -50h-77l11 63c5 34 20 75 91 75h14c64 0 88 -32 81 -80l-4 -19c-8 -51 -25 -76 -79 -117c-60 -44 -65 -53 -68 -64h55l9 50h72z" />
    <glyph glyph-name="three.den" horiz-adv-x="210" 
d="M83 228h-75l5 36c7 52 28 84 91 84h12c56 0 87 -25 78 -82l-3 -21c-5 -35 -22 -50 -39 -55c15 -7 32 -23 27 -58l-8 -51c-9 -51 -33 -86 -96 -86h-13c-70 0 -88 37 -80 79l8 51h79l-8 -46c-1 -8 0 -17 11 -17s12 8 13 17l7 49c3 12 0 15 -8 15h-39l12 69h36
c11 0 11 3 14 16l7 38c2 12 -2 18 -11 18c-11 0 -11 -6 -14 -18z" />
    <glyph glyph-name="four.den" horiz-adv-x="208" 
d="M-23 59l9 58l117 225h83l-34 -211h27l-12 -72h-25l-10 -59h-77l9 59h-87zM45 131h30l14 89c-11 -18 -33 -71 -44 -89z" />
    <glyph glyph-name="five.den" horiz-adv-x="212" 
d="M72 143h-76l32 199h175l-12 -71h-100l-9 -61c8 13 29 37 60 37h2c32 0 48 -26 43 -65l-14 -93c-9 -60 -36 -94 -96 -94h-14c-67 0 -89 37 -81 82l6 40h82l-7 -41c-1 -8 1 -15 10 -15c8 0 12 7 13 15l13 83c2 12 -1 18 -10 18c-8 0 -11 -7 -14 -18z" />
    <glyph glyph-name="six.den" horiz-adv-x="223" 
d="M147 221h2c35 0 51 -28 46 -61l-12 -75c-7 -51 -38 -90 -98 -90h-11c-68 0 -95 39 -87 96l27 169c8 45 26 88 99 88h10c69 0 89 -37 81 -85l-5 -26h-81l4 26c2 11 -1 16 -10 16c-11 0 -12 -8 -13 -16l-12 -74c11 13 29 32 60 32zM82 64c9 0 15 7 17 20l8 54
c2 14 -2 21 -13 21c-9 0 -12 -8 -15 -21l-8 -54c-2 -13 2 -20 11 -20z" />
    <glyph glyph-name="seven.den" horiz-adv-x="196" 
d="M23 341h175l-5 -36c-5 -25 -25 -74 -48 -147c-21 -65 -28 -98 -36 -158h-95c11 59 16 85 49 150c37 72 53 102 57 129h-35l-10 -59h-72z" />
    <glyph glyph-name="eight.den" horiz-adv-x="213" 
d="M199 270l-4 -28c-5 -37 -21 -53 -38 -60c16 -8 30 -30 23 -63l-6 -40c-8 -48 -34 -84 -98 -84h-8c-68 0 -93 34 -85 85l6 41c5 27 18 50 42 61c-12 11 -24 28 -20 59l4 28c9 53 34 79 94 79h9c60 0 89 -26 81 -78zM113 228l6 39c2 11 -1 16 -10 16c-7 0 -11 -5 -13 -16
l-7 -39c-2 -11 2 -17 11 -17c7 0 11 6 13 17zM91 81l8 47c2 13 -2 20 -11 20c-11 0 -12 -5 -15 -20l-8 -47c-2 -11 2 -17 11 -17c11 0 12 6 15 17z" />
    <glyph glyph-name="nine.den" horiz-adv-x="223" 
d="M0 191l11 67c8 53 34 90 98 90h11c68 0 96 -39 87 -96l-27 -169c-5 -44 -25 -88 -96 -88h-11c-71 0 -90 37 -83 85l5 26h81l-4 -26c-2 -11 2 -16 11 -16s10 8 13 16l11 74c-9 -12 -29 -32 -58 -32h-2c-36 0 -54 29 -47 69zM113 279c-9 0 -15 -7 -17 -20l-9 -54
c-2 -14 2 -21 13 -21c8 0 13 7 15 21l8 54c3 13 0 20 -10 20z" />
    <glyph glyph-name="zero.sub" horiz-adv-x="228" 
d="M97 248h11c68 0 99 -38 88 -98l-25 -163c-9 -56 -43 -92 -100 -92h-13c-63 0 -96 34 -87 98l25 157c9 59 34 98 101 98zM99 173c-11 0 -13 -6 -16 -21l-26 -161c-2 -13 2 -19 12 -19c9 0 15 6 17 19l26 161c2 14 -2 21 -13 21z" />
    <glyph glyph-name="one.sub" horiz-adv-x="151" 
d="M31 133h-43l11 67c41 0 51 17 58 40h72l-54 -340h-81z" />
    <glyph glyph-name="two.sub" horiz-adv-x="214" 
d="M150 -100h-200l7 43c8 44 22 64 99 136c33 30 36 42 41 68l2 13c2 15 -2 22 -11 22c-11 0 -12 -6 -15 -22l-8 -50h-77l11 63c5 34 20 75 91 75h14c64 0 88 -32 81 -80l-4 -19c-8 -51 -25 -76 -79 -117c-60 -44 -65 -53 -68 -64h55l9 50h72z" />
    <glyph glyph-name="three.sub" horiz-adv-x="210" 
d="M67 128h-75l5 36c7 52 28 84 91 84h12c56 0 87 -25 78 -82l-3 -21c-5 -35 -22 -50 -39 -55c15 -7 32 -23 27 -58l-8 -51c-9 -51 -33 -86 -96 -86h-13c-70 0 -88 37 -80 79l8 51h79l-8 -46c-1 -8 0 -17 11 -17s12 8 13 17l7 49c3 12 0 15 -8 15h-39l12 69h36
c11 0 11 3 14 16l7 38c2 12 -2 18 -11 18c-11 0 -11 -6 -14 -18z" />
    <glyph glyph-name="four.sub" horiz-adv-x="208" 
d="M-39 -41l9 58l117 225h83l-34 -211h27l-12 -72h-25l-10 -59h-77l9 59h-87zM29 31h30l14 89c-11 -18 -33 -71 -44 -89z" />
    <glyph glyph-name="five.sub" horiz-adv-x="212" 
d="M56 43h-76l32 199h175l-12 -71h-100l-9 -61c8 13 29 37 60 37h2c32 0 48 -26 43 -65l-14 -93c-9 -60 -36 -94 -96 -94h-14c-67 0 -89 37 -81 82l6 40h82l-7 -41c-1 -8 1 -15 10 -15c8 0 12 7 13 15l13 83c2 12 -1 18 -10 18c-8 0 -11 -7 -14 -18z" />
    <glyph glyph-name="six.sub" horiz-adv-x="223" 
d="M131 121h2c35 0 51 -28 46 -61l-12 -75c-7 -51 -38 -90 -98 -90h-11c-68 0 -95 39 -87 96l27 169c8 45 26 88 99 88h10c69 0 89 -37 81 -85l-5 -26h-81l4 26c2 11 -1 16 -10 16c-11 0 -12 -8 -13 -16l-12 -74c11 13 29 32 60 32zM66 -36c9 0 15 7 17 20l8 54
c2 14 -2 21 -13 21c-9 0 -12 -8 -15 -21l-8 -54c-2 -13 2 -20 11 -20z" />
    <glyph glyph-name="seven.sub" horiz-adv-x="196" 
d="M7 241h175l-5 -36c-5 -25 -25 -74 -48 -147c-21 -65 -28 -98 -36 -158h-95c11 59 16 85 49 150c37 72 53 102 57 129h-35l-10 -59h-72z" />
    <glyph glyph-name="eight.sub" horiz-adv-x="213" 
d="M183 170l-4 -28c-5 -37 -21 -53 -38 -60c16 -8 30 -30 23 -63l-6 -40c-8 -48 -34 -84 -98 -84h-8c-68 0 -93 34 -85 85l6 41c5 27 18 50 42 61c-12 11 -24 28 -20 59l4 28c9 53 34 79 94 79h9c60 0 89 -26 81 -78zM97 128l6 39c2 11 -1 16 -10 16c-7 0 -11 -5 -13 -16
l-7 -39c-2 -11 2 -17 11 -17c7 0 11 6 13 17zM75 -19l8 47c2 13 -2 20 -11 20c-11 0 -12 -5 -15 -20l-8 -47c-2 -11 2 -17 11 -17c11 0 12 6 15 17z" />
    <glyph glyph-name="nine.sub" horiz-adv-x="223" 
d="M-16 91l11 67c8 53 34 90 98 90h11c68 0 96 -39 87 -96l-27 -169c-5 -44 -25 -88 -96 -88h-11c-71 0 -90 37 -83 85l5 26h81l-4 -26c-2 -11 2 -16 11 -16s10 8 13 16l11 74c-9 -12 -29 -32 -58 -32h-2c-36 0 -54 29 -47 69zM97 179c-9 0 -15 -7 -17 -20l-9 -54
c-2 -14 2 -21 13 -21c8 0 13 7 15 21l8 54c3 13 0 20 -10 20z" />
    <glyph glyph-name="zero.sup" horiz-adv-x="228" 
d="M176 750h11c68 0 99 -38 88 -98l-25 -163c-9 -56 -43 -92 -100 -92h-13c-63 0 -96 34 -87 98l25 157c9 59 34 98 101 98zM178 675c-11 0 -13 -6 -16 -21l-26 -161c-2 -13 2 -19 12 -19c9 0 15 6 17 19l26 161c2 14 -2 21 -13 21z" />
    <glyph glyph-name="one.sup" horiz-adv-x="151" 
d="M110 637h-43l11 67c41 0 51 17 58 40h72l-54 -340h-81z" />
    <glyph glyph-name="two.sup" horiz-adv-x="214" 
d="M229 402h-200l7 43c8 44 22 64 99 136c33 30 36 42 41 68l2 13c2 15 -2 22 -11 22c-11 0 -12 -6 -15 -22l-8 -50h-77l11 63c5 34 20 75 91 75h14c64 0 88 -32 81 -80l-4 -19c-8 -51 -25 -76 -79 -117c-60 -44 -65 -53 -68 -64h55l9 50h72z" />
    <glyph glyph-name="three.sup" horiz-adv-x="210" 
d="M146 630h-75l5 36c7 52 28 84 91 84h12c56 0 87 -25 78 -82l-3 -21c-5 -35 -22 -50 -39 -55c15 -7 32 -23 27 -58l-8 -51c-9 -51 -33 -86 -96 -86h-13c-70 0 -88 37 -80 79l8 51h79l-8 -46c-1 -8 0 -17 11 -17s12 8 13 17l7 49c3 12 0 15 -8 15h-39l12 69h36
c11 0 11 3 14 16l7 38c2 12 -2 18 -11 18c-11 0 -11 -6 -14 -18z" />
    <glyph glyph-name="four.sup" horiz-adv-x="208" 
d="M40 462l9 58l117 225h83l-34 -211h27l-12 -72h-25l-10 -59h-77l9 59h-87zM108 534h30l14 89c-11 -18 -33 -71 -44 -89z" />
    <glyph glyph-name="five.sup" horiz-adv-x="213" 
d="M135 545h-76l32 199h175l-12 -71h-100l-9 -61c8 13 29 37 60 37h2c32 0 48 -26 43 -65l-14 -93c-9 -60 -36 -94 -96 -94h-14c-67 0 -89 37 -81 82l6 40h82l-7 -41c-1 -8 1 -15 10 -15c8 0 12 7 13 15l13 83c2 12 -1 18 -10 18c-8 0 -11 -7 -14 -18z" />
    <glyph glyph-name="six.sup" horiz-adv-x="223" 
d="M210 623h2c35 0 51 -28 46 -61l-12 -75c-7 -51 -38 -90 -98 -90h-11c-68 0 -95 39 -87 96l27 169c8 45 26 88 99 88h10c69 0 89 -37 81 -85l-5 -26h-81l4 26c2 11 -1 16 -10 16c-11 0 -12 -8 -13 -16l-12 -74c11 13 29 32 60 32zM145 466c9 0 15 7 17 20l8 54
c2 14 -2 21 -13 21c-9 0 -12 -8 -15 -21l-8 -54c-2 -13 2 -20 11 -20z" />
    <glyph glyph-name="seven.sup" horiz-adv-x="196" 
d="M86 744h175l-5 -36c-5 -25 -25 -74 -48 -147c-21 -65 -28 -98 -36 -158h-95c11 59 16 85 49 150c37 72 53 102 57 129h-35l-10 -59h-72z" />
    <glyph glyph-name="eight.sup" horiz-adv-x="213" 
d="M262 672l-4 -28c-5 -37 -21 -53 -38 -60c16 -8 30 -30 23 -63l-6 -40c-8 -48 -34 -84 -98 -84h-8c-68 0 -93 34 -85 85l6 41c5 27 18 50 42 61c-12 11 -24 28 -20 59l4 28c9 53 34 79 94 79h9c60 0 89 -26 81 -78zM176 630l6 39c2 11 -1 16 -10 16c-7 0 -11 -5 -13 -16
l-7 -39c-2 -11 2 -17 11 -17c7 0 11 6 13 17zM154 483l8 47c2 13 -2 20 -11 20c-11 0 -12 -5 -15 -20l-8 -47c-2 -11 2 -17 11 -17c11 0 12 6 15 17z" />
    <glyph glyph-name="nine.sup" horiz-adv-x="223" 
d="M63 593l11 67c8 53 34 90 98 90h11c68 0 96 -39 87 -96l-27 -169c-5 -44 -25 -88 -96 -88h-11c-71 0 -90 37 -83 85l5 26h81l-4 -26c-2 -11 2 -16 11 -16s10 8 13 16l11 74c-9 -12 -29 -32 -58 -32h-2c-36 0 -54 29 -47 69zM176 681c-9 0 -15 -7 -17 -20l-9 -54
c-2 -14 2 -21 13 -21c8 0 13 7 15 21l8 54c3 13 0 20 -10 20z" />
    <glyph glyph-name="IJ.alt" horiz-adv-x="401" 
d="M225 744l-118 -744h-129l118 744h129zM132 0l22 133h55c13 0 16 10 19 25l93 586h135l-104 -657c-9 -58 -36 -87 -83 -87h-137z" />
    <glyph glyph-name="a.alt2" horiz-adv-x="331" 
d="M234 538h123l-86 -538h-123l10 60c-11 -24 -49 -71 -94 -71h-2c-56 0 -80 55 -72 115l53 333c8 55 37 107 92 107h4c50 0 72 -42 85 -66zM170 143l40 251c4 24 -1 40 -21 40c-19 0 -24 -14 -27 -37l-41 -258c-3 -19 0 -38 19 -38s26 15 30 42z" />
    <glyph glyph-name="Eacute.alt" horiz-adv-x="313" 
d="M182 770l56 115h108l-59 -115h-105zM96 744h265l-20 -131h-136l-26 -162h130l-22 -134h-130l-29 -183h141l-22 -134h-269z" />
    <glyph glyph-name="Ebreve.alt" horiz-adv-x="303" 
d="M96 744h265l-20 -131h-136l-26 -162h130l-22 -134h-130l-29 -183h141l-22 -134h-269zM235 767h-4c-65 0 -104 39 -96 108h81c-3 -17 5 -30 21 -30h1c16 0 26 11 26 30h83c-3 -69 -48 -108 -112 -108z" />
    <glyph glyph-name="Ecaron.alt" horiz-adv-x="303" 
d="M96 744h265l-20 -131h-136l-26 -162h130l-22 -134h-130l-29 -183h141l-22 -134h-269zM280 770h-100l-52 115h87l22 -48l30 48h89z" />
    <glyph glyph-name="Ecircumflex.alt" horiz-adv-x="313" 
d="M199 885h100l51 -115h-86l-22 47l-30 -47h-89zM96 744h265l-20 -131h-136l-26 -162h130l-22 -134h-130l-29 -183h141l-22 -134h-269z" />
    <glyph glyph-name="Edieresis.alt" horiz-adv-x="313" 
d="M347 770h-97l17 106h97zM225 770h-97l17 106h97zM96 744h265l-20 -131h-136l-26 -162h130l-22 -134h-130l-29 -183h141l-22 -134h-269z" />
    <glyph glyph-name="Edotaccent.alt" horiz-adv-x="303" 
d="M96 744h265l-20 -131h-136l-26 -162h130l-22 -134h-130l-29 -183h141l-22 -134h-269zM294 770h-124l20 126h124z" />
    <glyph glyph-name="Egrave.alt" horiz-adv-x="313" 
d="M271 885l19 -115h-99l-24 115h104zM96 744h265l-20 -131h-136l-26 -162h130l-22 -134h-130l-29 -183h141l-22 -134h-269z" />
    <glyph glyph-name="Emacron.alt" horiz-adv-x="303" 
d="M96 744h265l-20 -131h-136l-26 -162h130l-22 -134h-130l-29 -183h141l-22 -134h-269zM139 777l14 88h189l-14 -88h-189z" />
    <glyph glyph-name="Eogonek.alt" horiz-adv-x="303" 
d="M96 744h265l-20 -131h-136l-26 -162h130l-22 -134h-130l-29 -183h141l-22 -134h-269zM175 -188h-49c-51 0 -77 27 -70 70l2 13c7 37 42 73 86 105h61c-40 -40 -56 -70 -56 -90c0 -13 8 -19 23 -19h15z" />
    <glyph glyph-name="Jcircumflex.alt" horiz-adv-x="235" 
d="M-34 0l22 133h55c13 0 16 10 19 25l93 586h135l-104 -657c-9 -58 -36 -87 -83 -87h-137zM184 885h100l51 -115h-86l-22 47l-30 -47h-89z" />
    <glyph glyph-name="aacute.alt" horiz-adv-x="314" 
d="M144 564l60 136h105l-63 -136h-102zM145 60c-14 -22 -49 -65 -96 -65h-2c-48 0 -70 43 -61 103l17 108c8 52 24 86 67 109c27 16 96 43 112 51c9 5 11 11 14 23l4 25c4 21 -2 32 -19 32h-3c-16 0 -22 -12 -25 -31l-8 -51h-111l12 74c8 48 29 106 130 106h22
c107 0 135 -49 124 -118l-49 -308c-13 -88 -10 -99 -7 -113l-1 -5h-117c-4 8 -8 25 -3 60zM128 102c17 0 24 11 27 31l21 131c-12 -7 -28 -15 -36 -23c-11 -11 -15 -21 -18 -42l-10 -62c-3 -19 1 -35 16 -35z" />
    <glyph glyph-name="aacute.alt2" horiz-adv-x="331" 
d="M234 538h123l-86 -538h-123l10 60c-11 -24 -49 -71 -94 -71h-2c-56 0 -80 55 -72 115l53 333c8 55 37 107 92 107h4c50 0 72 -42 85 -66zM170 143l40 251c4 24 -1 40 -21 40c-19 0 -24 -14 -27 -37l-41 -258c-3 -19 0 -38 19 -38s26 15 30 42zM155 564l60 136h105
l-63 -136h-102z" />
    <glyph glyph-name="abreve.alt" horiz-adv-x="314" 
d="M145 60c-14 -22 -49 -65 -96 -65h-2c-48 0 -70 43 -61 103l17 108c8 52 24 86 67 109c27 16 96 43 112 51c9 5 11 11 14 23l4 25c4 21 -2 32 -19 32h-3c-16 0 -22 -12 -25 -31l-8 -51h-111l12 74c8 48 29 106 130 106h22c107 0 135 -49 124 -118l-49 -308
c-13 -88 -10 -99 -7 -113l-1 -5h-117c-4 8 -8 25 -3 60zM128 102c17 0 24 11 27 31l21 131c-12 -7 -28 -15 -36 -23c-11 -11 -15 -21 -18 -42l-10 -62c-3 -19 1 -35 16 -35zM204 563h-3c-64 0 -107 37 -96 110l1 7h83l-1 -6c-4 -23 5 -33 20 -33h1c14 0 23 11 27 33l1 6h81
l-1 -8c-9 -73 -56 -109 -113 -109z" />
    <glyph glyph-name="abreve.alt2" horiz-adv-x="331" 
d="M234 538h123l-86 -538h-123l10 60c-11 -24 -49 -71 -94 -71h-2c-56 0 -80 55 -72 115l53 333c8 55 37 107 92 107h4c50 0 72 -42 85 -66zM170 143l40 251c4 24 -1 40 -21 40c-19 0 -24 -14 -27 -37l-41 -258c-3 -19 0 -38 19 -38s26 15 30 42zM211 563h-3
c-64 0 -107 37 -96 110l1 7h83l-1 -6c-4 -23 5 -33 20 -33h1c14 0 23 11 27 33l1 6h81l-1 -8c-9 -73 -56 -109 -113 -109z" />
    <glyph glyph-name="acircumflex.alt" horiz-adv-x="314" 
d="M268 700l43 -136h-87l-17 62l-31 -62h-88l76 136h104zM145 60c-14 -22 -49 -65 -96 -65h-2c-48 0 -70 43 -61 103l17 108c8 52 24 86 67 109c27 16 96 43 112 51c9 5 11 11 14 23l4 25c4 21 -2 32 -19 32h-3c-16 0 -22 -12 -25 -31l-8 -51h-111l12 74
c8 48 29 106 130 106h22c107 0 135 -49 124 -118l-49 -308c-13 -88 -10 -99 -7 -113l-1 -5h-117c-4 8 -8 25 -3 60zM128 102c17 0 24 11 27 31l21 131c-12 -7 -28 -15 -36 -23c-11 -11 -15 -21 -18 -42l-10 -62c-3 -19 1 -35 16 -35z" />
    <glyph glyph-name="acircumflex.alt2" horiz-adv-x="331" 
d="M234 538h123l-86 -538h-123l10 60c-11 -24 -49 -71 -94 -71h-2c-56 0 -80 55 -72 115l53 333c8 55 37 107 92 107h4c50 0 72 -42 85 -66zM170 143l40 251c4 24 -1 40 -21 40c-19 0 -24 -14 -27 -37l-41 -258c-3 -19 0 -38 19 -38s26 15 30 42zM278 700l43 -136h-87
l-17 62l-31 -62h-88l76 136h104z" />
    <glyph glyph-name="adieresis.alt" horiz-adv-x="314" 
d="M145 60c-14 -22 -49 -65 -96 -65h-2c-48 0 -70 43 -61 103l17 108c8 52 24 86 67 109c27 16 96 43 112 51c9 5 11 11 14 23l4 25c4 21 -2 32 -19 32h-3c-16 0 -22 -12 -25 -31l-8 -51h-111l12 74c8 48 29 106 130 106h22c107 0 135 -49 124 -118l-49 -308
c-13 -88 -10 -99 -7 -113l-1 -5h-117c-4 8 -8 25 -3 60zM128 102c17 0 24 11 27 31l21 131c-12 -7 -28 -15 -36 -23c-11 -11 -15 -21 -18 -42l-10 -62c-3 -19 1 -35 16 -35zM308 564h-97l17 106h97zM204 670l-17 -106h-97l17 106h97z" />
    <glyph glyph-name="adieresis.alt2" horiz-adv-x="331" 
d="M234 538h123l-86 -538h-123l10 60c-11 -24 -49 -71 -94 -71h-2c-56 0 -80 55 -72 115l53 333c8 55 37 107 92 107h4c50 0 72 -42 85 -66zM170 143l40 251c4 24 -1 40 -21 40c-19 0 -24 -14 -27 -37l-41 -258c-3 -19 0 -38 19 -38s26 15 30 42zM318 564h-97l17 106h97z
M214 670l-17 -106h-97l17 106h97z" />
    <glyph glyph-name="agrave.alt" horiz-adv-x="314" 
d="M224 700l20 -136h-96l-22 136h98zM145 60c-14 -22 -49 -65 -96 -65h-2c-48 0 -70 43 -61 103l17 108c8 52 24 86 67 109c27 16 96 43 112 51c9 5 11 11 14 23l4 25c4 21 -2 32 -19 32h-3c-16 0 -22 -12 -25 -31l-8 -51h-111l12 74c8 48 29 106 130 106h22
c107 0 135 -49 124 -118l-49 -308c-13 -88 -10 -99 -7 -113l-1 -5h-117c-4 8 -8 25 -3 60zM128 102c17 0 24 11 27 31l21 131c-12 -7 -28 -15 -36 -23c-11 -11 -15 -21 -18 -42l-10 -62c-3 -19 1 -35 16 -35z" />
    <glyph glyph-name="agrave.alt2" horiz-adv-x="331" 
d="M234 538h123l-86 -538h-123l10 60c-11 -24 -49 -71 -94 -71h-2c-56 0 -80 55 -72 115l53 333c8 55 37 107 92 107h4c50 0 72 -42 85 -66zM170 143l40 251c4 24 -1 40 -21 40c-19 0 -24 -14 -27 -37l-41 -258c-3 -19 0 -38 19 -38s26 15 30 42zM239 700l20 -136h-96
l-22 136h98z" />
    <glyph glyph-name="amacron.alt" horiz-adv-x="314" 
d="M145 60c-14 -22 -49 -65 -96 -65h-2c-48 0 -70 43 -61 103l17 108c8 52 24 86 67 109c27 16 96 43 112 51c9 5 11 11 14 23l4 25c4 21 -2 32 -19 32h-3c-16 0 -22 -12 -25 -31l-8 -51h-111l12 74c8 48 29 106 130 106h22c107 0 135 -49 124 -118l-49 -308
c-13 -88 -10 -99 -7 -113l-1 -5h-117c-4 8 -8 25 -3 60zM128 102c17 0 24 11 27 31l21 131c-12 -7 -28 -15 -36 -23c-11 -11 -15 -21 -18 -42l-10 -62c-3 -19 1 -35 16 -35zM108 576l14 87h186l-14 -87h-186z" />
    <glyph glyph-name="amacron.alt2" horiz-adv-x="331" 
d="M234 538h123l-86 -538h-123l10 60c-11 -24 -49 -71 -94 -71h-2c-56 0 -80 55 -72 115l53 333c8 55 37 107 92 107h4c50 0 72 -42 85 -66zM170 143l40 251c4 24 -1 40 -21 40c-19 0 -24 -14 -27 -37l-41 -258c-3 -19 0 -38 19 -38s26 15 30 42zM113 576l14 87h186l-14 -87
h-186z" />
    <glyph glyph-name="aogonek.alt" horiz-adv-x="314" 
d="M145 60c-14 -22 -49 -65 -96 -65h-2c-48 0 -70 43 -61 103l17 108c8 52 24 86 67 109c27 16 96 43 112 51c9 5 11 11 14 23l4 25c4 21 -2 32 -19 32h-3c-16 0 -22 -12 -25 -31l-8 -51h-111l12 74c8 48 29 106 130 106h22c107 0 135 -49 124 -118l-49 -308
c-13 -88 -10 -99 -7 -113l-1 -5h-117c-4 8 -8 25 -3 60zM128 102c17 0 24 11 27 31l21 131c-12 -7 -28 -15 -36 -23c-11 -11 -15 -21 -18 -42l-10 -62c-3 -19 1 -35 16 -35zM235 -188h-49c-51 0 -77 27 -70 70l2 13c7 37 42 73 86 105h61c-40 -40 -56 -70 -56 -90
c0 -13 8 -19 23 -19h15z" />
    <glyph glyph-name="aogonek.alt2" horiz-adv-x="331" 
d="M234 538h123l-86 -538h-123l10 60c-11 -24 -49 -71 -94 -71h-2c-56 0 -80 55 -72 115l53 333c8 55 37 107 92 107h4c50 0 72 -42 85 -66zM170 143l40 251c4 24 -1 40 -21 40c-19 0 -24 -14 -27 -37l-41 -258c-3 -19 0 -38 19 -38s26 15 30 42zM241 -188h-49
c-51 0 -77 27 -70 70l2 13c7 37 42 73 86 105h61c-40 -40 -56 -70 -56 -90c0 -13 8 -19 23 -19h15z" />
    <glyph glyph-name="aring.alt" horiz-adv-x="314" 
d="M145 60c-14 -22 -49 -65 -96 -65h-2c-48 0 -70 43 -61 103l17 108c8 52 24 86 67 109c27 16 96 43 112 51c9 5 11 11 14 23l4 25c4 21 -2 32 -19 32h-3c-16 0 -22 -12 -25 -31l-8 -51h-111l12 74c8 48 29 106 130 106h22c107 0 135 -49 124 -118l-49 -308
c-13 -88 -10 -99 -7 -113l-1 -5h-117c-4 8 -8 25 -3 60zM128 102c17 0 24 11 27 31l21 131c-12 -7 -28 -15 -36 -23c-11 -11 -15 -21 -18 -42l-10 -62c-3 -19 1 -35 16 -35zM200 608c20 0 32 14 32 33s-12 33 -32 33s-32 -14 -32 -33s12 -33 32 -33zM200 562
c-47 0 -80 32 -80 79s33 79 80 79s80 -32 80 -79s-33 -79 -80 -79z" />
    <glyph glyph-name="aring.alt2" horiz-adv-x="331" 
d="M234 538h123l-86 -538h-123l10 60c-11 -24 -49 -71 -94 -71h-2c-56 0 -80 55 -72 115l53 333c8 55 37 107 92 107h4c50 0 72 -42 85 -66zM170 143l40 251c4 24 -1 40 -21 40c-19 0 -24 -14 -27 -37l-41 -258c-3 -19 0 -38 19 -38s26 15 30 42zM209 608c20 0 32 14 32 33
s-12 33 -32 33s-32 -14 -32 -33s12 -33 32 -33zM209 562c-47 0 -80 32 -80 79s33 79 80 79s80 -32 80 -79s-33 -79 -80 -79z" />
    <glyph glyph-name="aringacute.alt" horiz-adv-x="314" 
d="M159 736l60 136h105l-63 -136h-102zM200 608c20 0 32 14 32 33s-12 33 -32 33s-32 -14 -32 -33s12 -33 32 -33zM200 562c-47 0 -80 32 -80 79s33 79 80 79s80 -32 80 -79s-33 -79 -80 -79zM145 60c-14 -22 -49 -65 -96 -65h-2c-48 0 -70 43 -61 103l17 108
c8 52 24 86 67 109c27 16 96 43 112 51c9 5 11 11 14 23l4 25c4 21 -2 32 -19 32h-3c-16 0 -22 -12 -25 -31l-8 -51h-111l12 74c8 48 29 106 130 106h22c107 0 135 -49 124 -118l-49 -308c-13 -88 -10 -99 -7 -113l-1 -5h-117c-4 8 -8 25 -3 60zM128 102c17 0 24 11 27 31
l21 131c-12 -7 -28 -15 -36 -23c-11 -11 -15 -21 -18 -42l-10 -62c-3 -19 1 -35 16 -35z" />
    <glyph glyph-name="aringacute.alt2" horiz-adv-x="331" 
d="M209 608c20 0 32 14 32 33s-12 33 -32 33s-32 -14 -32 -33s12 -33 32 -33zM209 562c-47 0 -80 32 -80 79s33 79 80 79s80 -32 80 -79s-33 -79 -80 -79zM168 736l60 136h105l-63 -136h-102zM234 538h123l-86 -538h-123l10 60c-11 -24 -49 -71 -94 -71h-2
c-56 0 -80 55 -72 115l53 333c8 55 37 107 92 107h4c50 0 72 -42 85 -66zM170 143l40 251c4 24 -1 40 -21 40c-19 0 -24 -14 -27 -37l-41 -258c-3 -19 0 -38 19 -38s26 15 30 42z" />
    <glyph glyph-name="atilde.alt" horiz-adv-x="314" 
d="M145 60c-14 -22 -49 -65 -96 -65h-2c-48 0 -70 43 -61 103l17 108c8 52 24 86 67 109c27 16 96 43 112 51c9 5 11 11 14 23l4 25c4 21 -2 32 -19 32h-3c-16 0 -22 -12 -25 -31l-8 -51h-111l12 74c8 48 29 106 130 106h22c107 0 135 -49 124 -118l-49 -308
c-13 -88 -10 -99 -7 -113l-1 -5h-117c-4 8 -8 25 -3 60zM128 102c17 0 24 11 27 31l21 131c-12 -7 -28 -15 -36 -23c-11 -11 -15 -21 -18 -42l-10 -62c-3 -19 1 -35 16 -35zM246 659l3 19h71l-9 -57c-7 -39 -26 -58 -53 -58c-23 0 -36 7 -60 20c-11 7 -16 9 -23 9
c-5 0 -9 -4 -10 -11l-3 -18h-71l7 44c7 45 22 71 57 71c21 0 32 -6 59 -19c12 -7 17 -9 24 -9c4 0 7 3 8 9z" />
    <glyph glyph-name="atilde.alt2" horiz-adv-x="331" 
d="M234 538h123l-86 -538h-123l10 60c-11 -24 -49 -71 -94 -71h-2c-56 0 -80 55 -72 115l53 333c8 55 37 107 92 107h4c50 0 72 -42 85 -66zM170 143l40 251c4 24 -1 40 -21 40c-19 0 -24 -14 -27 -37l-41 -258c-3 -19 0 -38 19 -38s26 15 30 42zM260 659l3 19h71l-9 -57
c-7 -39 -26 -58 -53 -58c-23 0 -36 7 -60 20c-11 7 -16 9 -23 9c-5 0 -9 -4 -10 -11l-3 -18h-71l7 44c7 45 22 71 57 71c21 0 32 -6 59 -19c12 -7 17 -9 24 -9c4 0 7 3 8 9z" />
    <glyph glyph-name="racute.alt" horiz-adv-x="265" 
d="M183 538l-12 -80c25 55 55 84 92 84h7c11 0 24 -3 28 -4l-23 -146c-8 3 -26 9 -53 9h-4c-44 0 -58 -16 -62 -41l-57 -360h-124l85 538h123zM133 564l60 136h105l-63 -136h-102z" />
    <glyph glyph-name="rcaron.alt" horiz-adv-x="265" 
d="M183 538l-12 -80c25 55 55 84 92 84h7c11 0 24 -3 28 -4l-23 -146c-8 3 -26 9 -53 9h-4c-44 0 -58 -16 -62 -41l-57 -360h-124l85 538h123zM129 564l-43 136h86l18 -62l31 62h88l-77 -136h-103z" />
    <glyph glyph-name="rcommaaccent.alt" horiz-adv-x="265" 
d="M183 538l-12 -80c25 55 55 84 92 84h7c11 0 24 -3 28 -4l-23 -146c-8 3 -26 9 -53 9h-4c-44 0 -58 -16 -62 -41l-57 -360h-124l85 538h123zM38 -203h-53c8 17 18 48 22 67h-43l17 110h102l-11 -70c-9 -60 -27 -94 -34 -107z" />
    <glyph glyph-name="space_uni0326.alt" 
d="M209 741h53c-8 -17 -18 -48 -22 -67h43l-17 -110h-102l11 68c11 60 27 96 34 109z" />
    <glyph glyph-name="ordfeminine.alt" horiz-adv-x="196" 
d="M142 486c-9 -16 -30 -40 -59 -40c-31 0 -41 27 -37 54l9 57c5 29 16 47 43 60c20 11 50 21 63 28c5 2 7 6 8 11l2 13c2 11 -2 16 -12 16c-7 0 -11 -6 -13 -18l-3 -18h-70l5 33c3 29 19 64 78 64h14c64 0 82 -28 75 -71l-26 -161c-8 -47 -7 -57 -4 -62l-1 -3h-70
c-3 4 -5 14 -2 37zM134 508c8 0 13 6 15 19l9 58c-5 -3 -14 -6 -18 -9c-7 -5 -11 -15 -13 -28l-3 -20c-2 -13 1 -20 10 -20z" />
    <glyph glyph-name="ordfeminine.alt2" horiz-adv-x="210" 
d="M193 744h77l-47 -295h-77l7 40c-7 -15 -26 -42 -57 -42h-1c-35 0 -49 29 -42 68l27 170c5 35 20 61 55 61h2c31 0 43 -25 50 -38zM160 536l20 126c3 12 0 21 -11 21s-12 -8 -15 -20l-21 -132c-2 -13 1 -20 10 -20c11 0 14 6 17 25z" />
    <glyph glyph-name="emdash.alt" horiz-adv-x="959" 
d="M943 255h-930l14 90h930z" />
    <glyph glyph-name="caron.alt" 
d="M173 594l29 150h88l-35 -150h-82z" />
    <glyph glyph-name="plus.uc" horiz-adv-x="334" 
d="M104 175l19 121h-104l14 91h104l20 122h96l-20 -122h105l-14 -91h-105l-19 -121h-96z" />
    <glyph glyph-name="minus.uc" horiz-adv-x="312" 
d="M33 387h283l-14 -91h-283z" />
    <glyph glyph-name="multiply.uc" horiz-adv-x="304" 
d="M227 190l-70 86l-94 -86l-56 65l96 88l-70 87l69 63l69 -87l95 87l57 -66l-98 -89l70 -87z" />
    <glyph glyph-name="divide.uc" horiz-adv-x="333" 
d="M33 387h304l-14 -91h-304zM257 519l-17 -103h-100l16 103h101zM216 264l-16 -103h-101l16 103h101z" />
    <glyph glyph-name="equal.uc" horiz-adv-x="327" 
d="M26 328h294l-14 -83h-294zM43 439h294l-13 -84h-294z" />
    <glyph glyph-name="less.uc" horiz-adv-x="288" 
d="M31 385l274 105l-15 -96l-160 -55l143 -53l-15 -93l-241 105z" />
    <glyph glyph-name="greater.uc" horiz-adv-x="288" 
d="M278 298l-273 -105l15 97l160 55l-143 53l15 92l240 -105z" />
    <glyph glyph-name="questiondown.uc" horiz-adv-x="325" 
d="M175 577h101l-22 -134c-8 -52 -18 -69 -48 -107l-45 -55c-23 -29 -29 -52 -34 -84l-8 -50c-4 -23 3 -35 22 -35c20 0 24 12 28 35l18 114h121l-19 -120c-13 -80 -33 -150 -145 -150h-25c-109 0 -145 53 -132 145l8 52c11 68 21 98 69 146l60 65c22 24 27 38 35 79z
M171 600l23 144h116l-23 -144h-116z" />
    <glyph glyph-name="exclamdown.uc" horiz-adv-x="158" 
d="M70 600l23 144h116l-23 -144h-116zM104 0h-142l136 577h51z" />
    <glyph glyph-name="hyphen.uc" horiz-adv-x="178" 
d="M36 400h149l-19 -121h-149z" />
    <glyph glyph-name="endash.uc" horiz-adv-x="328" 
d="M33 386h299l-14 -90h-299z" />
    <glyph glyph-name="emdash.uc" horiz-adv-x="494" 
d="M33 386h465l-14 -90h-465z" />
    <glyph glyph-name="guilsinglleft.uc" horiz-adv-x="158" 
d="M111 305l18 -164h-96l-22 138l10 59l62 135h100z" />
    <glyph glyph-name="guilsinglright.uc" horiz-adv-x="158" 
d="M60 308l-19 165h97l21 -138l-9 -59l-63 -135h-99z" />
    <glyph glyph-name="guillemotleft.uc" horiz-adv-x="265" 
d="M290 473l-74 -169l22 -163h-90l-25 165l76 167h91zM178 473l-77 -167l26 -165h-90l-26 137l10 60l65 135h92z" />
    <glyph glyph-name="guillemotright.uc" horiz-adv-x="265" 
d="M98 141l78 167l-24 165h90l24 -137l-9 -60l-68 -135h-91zM-12 141l74 169l-22 163h90l25 -165l-76 -167h-91z" />
    <glyph glyph-name="parenleft.uc" horiz-adv-x="209" 
d="M148 -81h-75c-18 60 -50 167 -50 292c0 261 100 468 194 605h76c-72 -145 -161 -396 -161 -669c0 -81 8 -165 16 -228z" />
    <glyph glyph-name="parenright.uc" horiz-adv-x="209" 
d="M86 816h75c19 -61 49 -165 49 -293c0 -262 -100 -467 -194 -604h-75c73 145 161 395 161 668c0 81 -9 166 -16 229z" />
    <glyph glyph-name="bracketleft.uc" horiz-adv-x="198" 
d="M276 817l-15 -96h-53l-111 -698h53l-15 -96h-157l142 890h156z" />
    <glyph glyph-name="bracketright.uc" horiz-adv-x="198" 
d="M-45 -73l15 96h52l111 698h-52l15 96h156l-142 -890h-155z" />
    <glyph glyph-name="braceleft.uc" horiz-adv-x="204" 
d="M140 -73h-31c-77 0 -112 40 -112 103c0 72 69 207 69 266c0 19 -6 28 -26 28h-18l16 101h25c23 0 31 12 32 33c5 75 0 189 5 245c5 77 51 114 127 114h55l-15 -92h-25c-29 0 -39 -16 -42 -43c-3 -46 0 -166 -3 -217c-4 -45 -18 -75 -65 -91c28 -13 39 -32 39 -65
c0 -58 -67 -209 -67 -256c0 -23 14 -34 41 -34h10z" />
    <glyph glyph-name="braceright.uc" horiz-adv-x="204" 
d="M95 817h32c79 0 113 -40 113 -103c0 -72 -69 -202 -69 -262c0 -19 7 -27 27 -27h17l-16 -101h-24c-23 0 -30 -13 -33 -33c-5 -76 -2 -194 -5 -250c-5 -77 -51 -114 -127 -114h-56l15 92h25c29 0 39 16 42 43c3 47 0 170 5 221c4 45 18 75 65 91c-28 13 -40 31 -40 66
c0 58 67 204 67 251c0 23 -14 34 -41 34h-12z" />
    <glyph glyph-name="slash.uc" horiz-adv-x="216" 
d="M301 816l-265 -897h-91l265 897h91z" />
    <glyph glyph-name="backslash.uc" horiz-adv-x="216" 
d="M88 -81l-8 897h86l6 -897h-84z" />
    <glyph glyph-name="bar.uc" horiz-adv-x="224" 
d="M175 816v-897h-92v897h92z" />
    <glyph glyph-name="at.uc" horiz-adv-x="572" 
d="M431 76l48 -56c-29 -39 -104 -109 -211 -109h-10c-112 0 -285 40 -233 385l17 108c37 234 125 377 301 377h18c170 0 261 -100 226 -313l-16 -101c-37 -227 -96 -278 -171 -278h-8c-59 0 -87 33 -94 66c-19 -31 -49 -66 -93 -66h-5c-46 0 -75 49 -62 121l57 287
c11 55 36 96 84 96h5c35 0 55 -22 74 -54l11 50h119l-84 -392c-3 -15 -3 -28 12 -28c27 0 53 70 73 198l16 101c29 187 -46 236 -150 236h-18c-113 0 -179 -100 -210 -299l-17 -108c-44 -282 81 -307 150 -307h10c77 0 135 57 161 86zM290 212l54 259c4 19 -1 28 -14 28
s-16 -9 -20 -28l-55 -261c-4 -19 0 -28 13 -28s19 13 22 30z" />
    <glyph glyph-name="grave.uc" 
d="M286 885l19 -115h-99l-24 115h104z" />
    <glyph glyph-name="dieresis.uc" 
d="M358 770h-97l17 106h97zM236 770h-97l17 106h97z" />
    <glyph glyph-name="macron.uc" 
d="M155 777l14 88h189l-14 -88h-189z" />
    <glyph glyph-name="acute.uc" 
d="M176 770l56 115h108l-59 -115h-105z" />
    <glyph glyph-name="circumflex.uc" 
d="M210 885h100l51 -115h-86l-22 47l-30 -47h-89z" />
    <glyph glyph-name="caron.uc" 
d="M296 770h-100l-52 115h87l22 -48l30 48h89z" />
    <glyph glyph-name="breve.uc" 
d="M256 767h-4c-65 0 -104 39 -96 108h81c-3 -17 5 -30 21 -30h1c16 0 26 11 26 30h83c-3 -69 -48 -108 -112 -108z" />
    <glyph glyph-name="dotaccent.uc" 
d="M310 770h-124l20 126h124z" />
    <glyph glyph-name="ring.uc" 
d="M259 765c-47 0 -80 32 -80 79s33 79 80 79s80 -32 80 -79s-33 -79 -80 -79zM259 811c20 0 32 14 32 33s-12 33 -32 33s-32 -14 -32 -33s12 -33 32 -33z" />
    <glyph glyph-name="tilde.uc" 
d="M297 864l3 19h72l-9 -57c-7 -39 -27 -55 -54 -55c-23 0 -36 6 -61 19c-11 7 -15 9 -22 9c-5 0 -8 -4 -9 -11l-3 -19h-71l7 44c7 46 25 69 56 69c20 0 33 -6 60 -18c11 -5 16 -8 23 -8c5 0 7 3 8 8z" />
    <glyph glyph-name="hungarumlaut.uc" 
d="M331 770h-84l45 115h86zM139 770l42 115h87l-44 -115h-85z" />
    <glyph glyph-name="emdash.altuc" horiz-adv-x="959" 
d="M949 296h-930l14 90h930z" />
    <glyph glyph-name="f.short" horiz-adv-x="252" 
d="M322 744l-18 -113h-40c-20 0 -21 -11 -24 -24l-11 -69h60l-19 -119h-59l-67 -419h-124l67 419h-59l19 119h58l21 133c7 44 34 73 85 73h111z" />
    <glyph glyph-name="f_f.short" horiz-adv-x="458" 
d="M417 744h111l-18 -113h-40c-20 0 -21 -11 -24 -24l-11 -69h60l-19 -119h-59l-67 -419h-124l67 419h-82l-67 -419h-124l67 419h-59l19 119h58l21 133c7 44 34 73 85 73h116l-18 -113h-45c-20 0 -21 -11 -24 -24l-11 -69h82l21 133c7 44 34 73 85 73z" />
    <glyph glyph-name="j.short" horiz-adv-x="159" 
d="M-79 -69h25c16 0 18 7 21 20l93 587h124l-103 -653c-7 -45 -33 -73 -82 -73h-97zM208 690l-20 -126h-124l20 126h124z" />
    <glyph glyph-name="brokenbar" unicode="&#xa6;" horiz-adv-x="224" 
d="M175 343v-474h-92v474h92zM175 808v-426h-92v426h92z" />
    <glyph glyph-name="onequarter" unicode="&#xbc;" horiz-adv-x="368" 
d="M110 637h-43l11 67c41 0 51 17 58 40h72l-54 -340h-81zM348 744h75l-376 -744h-75zM137 59l9 58l117 225h83l-34 -211h27l-12 -72h-25l-10 -59h-77l9 59h-87zM205 131h30l14 89c-11 -18 -33 -71 -44 -89z" />
    <glyph glyph-name="onehalf" unicode="&#xbd;" horiz-adv-x="413" 
d="M110 637h-43l11 67c41 0 51 17 58 40h72l-54 -340h-81zM348 744h75l-376 -744h-75zM365 0h-200l7 43c8 44 22 64 99 136c33 30 36 42 41 68l2 13c2 15 -2 22 -11 22c-11 0 -12 -6 -15 -22l-8 -50h-77l11 63c5 34 20 75 91 75h14c64 0 88 -32 81 -80l-4 -19
c-8 -51 -25 -76 -79 -117c-60 -44 -65 -53 -68 -64h55l9 50h72z" />
    <glyph glyph-name="threequarters" unicode="&#xbe;" horiz-adv-x="419" 
d="M399 744h75l-376 -744h-75zM146 630h-75l5 36c7 52 28 84 91 84h12c56 0 87 -25 78 -82l-3 -21c-5 -35 -22 -50 -39 -55c15 -7 32 -23 27 -58l-8 -51c-9 -51 -33 -86 -96 -86h-13c-70 0 -88 37 -80 79l8 51h79l-8 -46c-1 -8 0 -17 11 -17s12 8 13 17l7 49
c3 12 0 15 -8 15h-39l12 69h36c11 0 11 3 14 16l7 38c2 12 -2 18 -11 18c-11 0 -11 -6 -14 -18zM188 59l9 58l117 225h83l-34 -211h27l-12 -72h-25l-10 -59h-77l9 59h-87zM256 131h30l14 89c-11 -18 -33 -71 -44 -89z" />
    <glyph glyph-name="Eth" unicode="&#xd0;" horiz-adv-x="369" 
d="M52 443l48 301h172c96 0 147 -46 128 -159l-66 -417c-16 -108 -45 -168 -152 -168h-200l51 325h-24l19 118h24zM162 325l-32 -201h27c31 0 38 12 45 55l63 397c5 33 -3 50 -26 50h-29l-29 -183h43l-18 -118h-44z" />
    <glyph glyph-name="multiply" unicode="&#xd7;" horiz-adv-x="304" 
d="M221 149l-70 86l-94 -86l-56 65l96 88l-70 87l69 63l69 -87l95 87l57 -66l-98 -89l70 -87z" />
    <glyph glyph-name="Yacute" unicode="&#xdd;" horiz-adv-x="322" 
d="M403 744l-168 -444l-47 -300h-130l47 296l-36 448h126l4 -264l86 264h118zM183 770l56 115h108l-59 -115h-105z" />
    <glyph glyph-name="Thorn" unicode="&#xde;" horiz-adv-x="355" 
d="M217 188h-80l-30 -188h-129l118 744h129l-24 -150h57c87 0 131 -37 116 -133l-21 -134c-15 -96 -56 -139 -136 -139zM184 486l-30 -187h33c24 0 32 9 37 40l17 106c4 27 -2 41 -29 41h-28z" />
    <glyph glyph-name="eth" unicode="&#xf0;" horiz-adv-x="332" 
d="M101 553l12 82l62 25l-24 84h114l12 -41l73 30l-12 -81l-41 -17l21 -68c21 -70 29 -105 18 -175l-39 -247c-13 -87 -61 -155 -146 -155h-32c-94 0 -137 68 -124 156l45 283c11 67 42 111 94 111h2c48 0 73 -33 92 -62l-33 114zM171 142l41 258c4 25 -3 37 -22 37
c-21 0 -25 -14 -29 -37l-41 -258c-3 -19 1 -36 24 -36c20 0 24 17 27 36z" />
    <glyph glyph-name="yacute" unicode="&#xfd;" horiz-adv-x="308" 
d="M56 9l-15 529h119l-7 -296l76 296h125l-206 -646c-17 -55 -39 -80 -79 -80h-119l19 118h49c19 0 24 10 28 25l6 23c3 11 4 21 4 31zM145 564l60 136h105l-63 -136h-102z" />
    <glyph glyph-name="thorn" unicode="&#xfe;" horiz-adv-x="333" 
d="M93 744h123l-43 -267c16 30 52 67 97 67h2c56 0 81 -48 70 -115l-51 -321c-11 -75 -49 -119 -98 -119h-2c-43 0 -70 27 -85 58l-37 -235h-124zM162 402l-43 -272c-3 -24 4 -36 21 -36c15 0 25 12 28 35l43 273c3 23 -3 34 -20 34c-19 0 -26 -11 -29 -34z" />
    <glyph glyph-name="Amacron" unicode="&#x100;" horiz-adv-x="338" 
d="M176 0l6 125h-79l-31 -125h-117l209 744h153l-17 -744h-124zM136 253h52l11 251zM150 777l14 88h189l-14 -88h-189z" />
    <glyph glyph-name="amacron" unicode="&#x101;" horiz-adv-x="328" 
d="M-14 98l17 108c8 52 24 86 67 109c27 16 96 43 112 51c9 5 11 11 14 23l4 25c4 21 -2 32 -19 32h-3c-16 0 -22 -12 -25 -31l-8 -51h-111l12 74c8 48 29 106 130 106h22c107 0 135 -49 124 -118l-47 -295c-3 -11 -1 -17 14 -17h14l-18 -114h-112c-24 0 -35 13 -28 60
c-14 -22 -49 -65 -96 -65h-2c-48 0 -70 43 -61 103zM128 102c17 0 24 11 27 31l21 131c-12 -7 -28 -15 -36 -23c-11 -11 -15 -21 -18 -42l-10 -62c-3 -19 1 -35 16 -35zM107 576l14 87h186l-14 -87h-186z" />
    <glyph glyph-name="Abreve" unicode="&#x102;" horiz-adv-x="338" 
d="M176 0l6 125h-79l-31 -125h-117l209 744h153l-17 -744h-124zM136 253h52l11 251zM247 767h-4c-65 0 -104 39 -96 108h81c-3 -17 5 -30 21 -30h1c16 0 26 11 26 30h83c-3 -69 -48 -108 -112 -108z" />
    <glyph glyph-name="abreve" unicode="&#x103;" horiz-adv-x="328" 
d="M-14 98l17 108c8 52 24 86 67 109c27 16 96 43 112 51c9 5 11 11 14 23l4 25c4 21 -2 32 -19 32h-3c-16 0 -22 -12 -25 -31l-8 -51h-111l12 74c8 48 29 106 130 106h22c107 0 135 -49 124 -118l-47 -295c-3 -11 -1 -17 14 -17h14l-18 -114h-112c-24 0 -35 13 -28 60
c-14 -22 -49 -65 -96 -65h-2c-48 0 -70 43 -61 103zM128 102c17 0 24 11 27 31l21 131c-12 -7 -28 -15 -36 -23c-11 -11 -15 -21 -18 -42l-10 -62c-3 -19 1 -35 16 -35zM203 563h-3c-64 0 -107 37 -96 110l1 7h83l-1 -6c-4 -23 5 -33 20 -33h1c14 0 23 11 27 33l1 6h81
l-1 -8c-9 -73 -56 -109 -113 -109z" />
    <glyph glyph-name="Aogonek" unicode="&#x104;" horiz-adv-x="338" 
d="M176 0l6 125h-79l-31 -125h-117l209 744h153l-17 -744h-124zM136 253h52l11 251zM270 -188h-49c-51 0 -77 27 -70 70l2 13c7 37 42 73 86 105h61c-40 -40 -56 -70 -56 -90c0 -13 8 -19 23 -19h15z" />
    <glyph glyph-name="aogonek" unicode="&#x105;" horiz-adv-x="328" 
d="M-14 98l17 108c8 52 24 86 67 109c27 16 96 43 112 51c9 5 11 11 14 23l4 25c4 21 -2 32 -19 32h-3c-16 0 -22 -12 -25 -31l-8 -51h-111l12 74c8 48 29 106 130 106h22c107 0 135 -49 124 -118l-47 -295c-3 -11 -1 -17 14 -17h14l-18 -114h-112c-24 0 -35 13 -28 60
c-14 -22 -49 -65 -96 -65h-2c-48 0 -70 43 -61 103zM128 102c17 0 24 11 27 31l21 131c-12 -7 -28 -15 -36 -23c-11 -11 -15 -21 -18 -42l-10 -62c-3 -19 1 -35 16 -35zM255 -188h-49c-51 0 -77 27 -70 70l2 13c7 37 42 73 86 105h61c-40 -40 -56 -70 -56 -90
c0 -13 8 -19 23 -19h15z" />
    <glyph glyph-name="Cacute" unicode="&#x106;" horiz-adv-x="363" 
d="M204 771l56 114h108l-59 -114h-105zM202 165l26 162h129l-26 -164c-13 -91 -49 -174 -164 -174h-26c-125 0 -153 85 -140 174l67 422c16 92 50 169 165 169h27c130 0 152 -78 138 -164l-20 -127h-129l20 122c4 29 -6 43 -29 43c-25 0 -32 -14 -37 -43l-67 -422
c-4 -25 6 -43 30 -43s31 17 36 45z" />
    <glyph glyph-name="cacute" unicode="&#x107;" horiz-adv-x="314" 
d="M153 566l59 134h105l-62 -134h-102zM181 241h116l-18 -113c-13 -83 -48 -139 -137 -139h-20c-103 0 -144 59 -129 146l42 265c13 89 52 148 148 148h25c99 0 128 -63 117 -131l-14 -88h-116l12 76c4 23 2 38 -18 38c-19 0 -24 -13 -27 -37l-43 -271c-3 -20 0 -33 19 -33
s23 12 26 31z" />
    <glyph glyph-name="Ccircumflex" unicode="&#x108;" horiz-adv-x="363" 
d="M220 885h100l51 -114h-86l-22 46l-30 -46h-89zM202 165l26 162h129l-26 -164c-13 -91 -49 -174 -164 -174h-26c-125 0 -153 85 -140 174l67 422c16 92 50 169 165 169h27c130 0 152 -78 138 -164l-20 -127h-129l20 122c4 29 -6 43 -29 43c-25 0 -32 -14 -37 -43l-67 -422
c-4 -25 6 -43 30 -43s31 17 36 45z" />
    <glyph glyph-name="ccircumflex" unicode="&#x109;" horiz-adv-x="314" 
d="M274 700l43 -134h-87l-17 60l-31 -60h-88l76 134h104zM181 241h116l-18 -113c-13 -83 -48 -139 -137 -139h-20c-103 0 -144 59 -129 146l42 265c13 89 52 148 148 148h25c99 0 128 -63 117 -131l-14 -88h-116l12 76c4 23 2 38 -18 38c-19 0 -24 -13 -27 -37l-43 -271
c-3 -20 0 -33 19 -33s23 12 26 31z" />
    <glyph glyph-name="Cdotaccent" unicode="&#x10a;" horiz-adv-x="363" 
d="M319 771h-124l20 125h124zM202 165l26 162h129l-26 -164c-13 -91 -49 -174 -164 -174h-26c-125 0 -153 85 -140 174l67 422c16 92 50 169 165 169h27c130 0 152 -78 138 -164l-20 -127h-129l20 122c4 29 -6 43 -29 43c-25 0 -32 -14 -37 -43l-67 -422
c-4 -25 6 -43 30 -43s31 17 36 45z" />
    <glyph glyph-name="cdotaccent" unicode="&#x10b;" horiz-adv-x="314" 
d="M282 690l-20 -124h-124l20 124h124zM181 241h116l-18 -113c-13 -83 -48 -139 -137 -139h-20c-103 0 -144 59 -129 146l42 265c13 89 52 148 148 148h25c99 0 128 -63 117 -131l-14 -88h-116l12 76c4 23 2 38 -18 38c-19 0 -24 -13 -27 -37l-43 -271c-3 -20 0 -33 19 -33
s23 12 26 31z" />
    <glyph glyph-name="Ccaron" unicode="&#x10c;" horiz-adv-x="363" 
d="M308 771h-100l-52 114h87l22 -48l30 48h89zM202 165l26 162h129l-26 -164c-13 -91 -49 -174 -164 -174h-26c-125 0 -153 85 -140 174l67 422c16 92 50 169 165 169h27c130 0 152 -78 138 -164l-20 -127h-129l20 122c4 29 -6 43 -29 43c-25 0 -32 -14 -37 -43l-67 -422
c-4 -25 6 -43 30 -43s31 17 36 45z" />
    <glyph glyph-name="ccaron" unicode="&#x10d;" horiz-adv-x="314" 
d="M148 566l-42 134h86l18 -62l31 62h88l-76 -134h-105zM181 241h116l-18 -113c-13 -83 -48 -139 -137 -139h-20c-103 0 -144 59 -129 146l42 265c13 89 52 148 148 148h25c99 0 128 -63 117 -131l-14 -88h-116l12 76c4 23 2 38 -18 38c-19 0 -24 -13 -27 -37l-43 -271
c-3 -20 0 -33 19 -33s23 12 26 31z" />
    <glyph glyph-name="Dcaron" unicode="&#x10e;" horiz-adv-x="365" 
d="M-22 0l118 744h172c96 0 147 -46 128 -159l-66 -417c-16 -108 -45 -168 -152 -168h-200zM206 626l-80 -502h27c31 0 38 12 45 55l63 397c5 33 -3 50 -26 50h-29zM286 770h-100l-52 115h87l22 -48l30 48h89z" />
    <glyph glyph-name="dcaron" unicode="&#x10f;" horiz-adv-x="333" 
d="M384 594l29 150h88l-35 -150h-82zM267 744h124l-118 -744h-124l10 60c-11 -24 -49 -71 -96 -71h-2c-53 0 -81 55 -70 120l52 328c8 52 37 107 92 107h4c49 0 76 -43 86 -66zM171 140l40 252c4 27 -1 42 -21 42c-19 0 -24 -14 -28 -37l-41 -258c-3 -23 1 -38 20 -38
s26 14 30 39z" />
    <glyph glyph-name="Dcroat" unicode="&#x110;" horiz-adv-x="369" 
d="M52 443l48 301h172c96 0 147 -46 128 -159l-66 -417c-16 -108 -45 -168 -152 -168h-200l51 325h-24l19 118h24zM162 325l-32 -201h27c31 0 38 12 45 55l63 397c5 33 -3 50 -26 50h-29l-29 -183h43l-18 -118h-44z" />
    <glyph glyph-name="dcroat" unicode="&#x111;" horiz-adv-x="334" 
d="M170 583l14 91h229l-14 -91h-229zM267 744h124l-118 -744h-124l10 60c-11 -24 -49 -71 -96 -71h-2c-53 0 -81 55 -70 120l52 328c8 52 37 107 92 107h4c49 0 76 -43 86 -66zM171 140l40 252c4 27 -1 42 -21 42c-19 0 -24 -14 -28 -37l-41 -258c-3 -23 1 -38 20 -38
s26 14 30 39z" />
    <glyph glyph-name="Emacron" unicode="&#x112;" horiz-adv-x="313" 
d="M96 744h275l-21 -131h-145l-26 -162h116l-22 -134h-116l-29 -183h154l-22 -134h-282zM146 777l14 88h189l-14 -88h-189z" />
    <glyph glyph-name="emacron" unicode="&#x113;" horiz-adv-x="316" 
d="M176 548h26c88 0 137 -49 122 -137l-25 -159h-168l-18 -117c-3 -20 1 -33 20 -33c15 0 25 11 28 33l13 80h119l-14 -88c-15 -95 -65 -137 -141 -137h-27c-83 0 -134 44 -119 140l45 283c11 76 48 135 139 135zM157 413l-11 -65h51l10 63c4 25 -1 38 -22 38
c-19 0 -24 -13 -28 -36zM110 578l14 87h186l-14 -87h-186z" />
    <glyph glyph-name="Ebreve" unicode="&#x114;" horiz-adv-x="313" 
d="M96 744h275l-21 -131h-145l-26 -162h116l-22 -134h-116l-29 -183h154l-22 -134h-282zM241 767h-4c-65 0 -104 39 -96 108h81c-3 -17 5 -30 21 -30h1c16 0 26 11 26 30h83c-3 -69 -48 -108 -112 -108z" />
    <glyph glyph-name="ebreve" unicode="&#x115;" horiz-adv-x="316" 
d="M176 548h26c88 0 137 -49 122 -137l-25 -159h-168l-18 -117c-3 -20 1 -33 20 -33c15 0 25 11 28 33l13 80h119l-14 -88c-15 -95 -65 -137 -141 -137h-27c-83 0 -134 44 -119 140l45 283c11 76 48 135 139 135zM157 413l-11 -65h51l10 63c4 25 -1 38 -22 38
c-19 0 -24 -13 -28 -36zM209 565h-3c-64 0 -107 37 -96 110l1 7h83l-1 -6c-4 -23 5 -33 20 -33h1c14 0 23 11 27 33l1 6h81l-1 -8c-9 -73 -56 -109 -113 -109z" />
    <glyph glyph-name="Edotaccent" unicode="&#x116;" horiz-adv-x="313" 
d="M96 744h275l-21 -131h-145l-26 -162h116l-22 -134h-116l-29 -183h154l-22 -134h-282zM299 770h-124l20 126h124z" />
    <glyph glyph-name="edotaccent" unicode="&#x117;" horiz-adv-x="316" 
d="M279 690l-20 -124h-124l20 124h124zM176 548h26c88 0 137 -49 122 -137l-25 -159h-168l-18 -117c-3 -20 1 -33 20 -33c15 0 25 11 28 33l13 80h119l-14 -88c-15 -95 -65 -137 -141 -137h-27c-83 0 -134 44 -119 140l45 283c11 76 48 135 139 135zM157 413l-11 -65h51
l10 63c4 25 -1 38 -22 38c-19 0 -24 -13 -28 -36z" />
    <glyph glyph-name="Eogonek" unicode="&#x118;" horiz-adv-x="313" 
d="M96 744h275l-21 -131h-145l-26 -162h116l-22 -134h-116l-29 -183h154l-22 -134h-282zM187 -188h-49c-51 0 -77 27 -70 70l2 13c7 37 42 73 86 105h61c-40 -40 -56 -70 -56 -90c0 -13 8 -19 23 -19h15z" />
    <glyph glyph-name="eogonek" unicode="&#x119;" horiz-adv-x="316" 
d="M219 1c-35 -41 -53 -68 -53 -91c0 -13 8 -19 23 -19h15l-12 -79h-49c-51 0 -77 27 -70 70l2 13c5 35 34 66 73 95h-10h-27c-83 0 -134 44 -119 140l45 283c11 76 48 135 139 135h26c88 0 137 -49 122 -137l-25 -159h-168l-18 -117c-3 -20 1 -33 20 -33c15 0 25 11 28 33
l13 80h119l-14 -88c-11 -68 -39 -99 -60 -126zM157 413l-11 -65h51l10 63c4 25 -1 38 -22 38c-19 0 -24 -13 -28 -36z" />
    <glyph glyph-name="Ecaron" unicode="&#x11a;" horiz-adv-x="313" 
d="M96 744h275l-21 -131h-145l-26 -162h116l-22 -134h-116l-29 -183h154l-22 -134h-282zM287 770h-100l-52 115h87l22 -48l30 48h89z" />
    <glyph glyph-name="ecaron" unicode="&#x11b;" horiz-adv-x="316" 
d="M145 566l-42 134h86l18 -62l31 62h88l-76 -134h-105zM176 548h26c88 0 137 -49 122 -137l-25 -159h-168l-18 -117c-3 -20 1 -33 20 -33c15 0 25 11 28 33l13 80h119l-14 -88c-15 -95 -65 -137 -141 -137h-27c-83 0 -134 44 -119 140l45 283c11 76 48 135 139 135z
M157 413l-11 -65h51l10 63c4 25 -1 38 -22 38c-19 0 -24 -13 -28 -36z" />
    <glyph glyph-name="Gcircumflex" unicode="&#x11c;" horiz-adv-x="368" 
d="M216 885h100l51 -114h-86l-22 46l-30 -46h-89zM109 -10h-9c-79 0 -116 71 -103 145l70 444c13 91 49 174 163 174h26c127 0 154 -81 138 -173l-13 -80h-126l13 81c4 31 -1 47 -28 47c-24 0 -33 -15 -38 -47l-65 -411c-5 -34 4 -51 29 -51s39 15 44 46l26 161h-49l21 125
h172l-71 -451h-77c0 15 -4 51 -11 71c-13 -29 -55 -81 -112 -81z" />
    <glyph glyph-name="gcircumflex" unicode="&#x11d;" horiz-adv-x="332" 
d="M137 -66l20 125c-19 -35 -50 -69 -95 -69c-47 0 -82 43 -71 115l50 315c12 76 41 125 98 125h1c50 0 72 -42 85 -68l10 61h122l-97 -612c-8 -57 -37 -121 -153 -121h-17c-104 0 -132 48 -124 107l10 63h118l-7 -44c-3 -15 0 -25 19 -25h4c19 0 24 11 27 28zM167 126
l44 277c3 19 -1 34 -20 34s-24 -13 -27 -33l-44 -278c-3 -17 2 -30 21 -30c16 0 23 13 26 30zM279 700l43 -136h-87l-17 62l-31 -62h-88l76 136h104z" />
    <glyph glyph-name="Gbreve" unicode="&#x11e;" horiz-adv-x="368" 
d="M109 -10h-9c-79 0 -116 71 -103 145l70 444c13 91 49 174 163 174h26c127 0 154 -81 138 -173l-13 -80h-126l13 81c4 31 -1 47 -28 47c-24 0 -33 -15 -38 -47l-65 -411c-5 -34 4 -51 29 -51s39 15 44 46l26 161h-49l21 125h172l-71 -451h-77c0 15 -4 51 -11 71
c-13 -29 -55 -81 -112 -81zM260 768h-4c-65 0 -104 39 -96 108h81c-3 -17 5 -30 21 -30h1c16 0 26 11 26 30h83c-3 -69 -48 -108 -112 -108z" />
    <glyph glyph-name="gbreve" unicode="&#x11f;" horiz-adv-x="332" 
d="M137 -66l20 125c-19 -35 -50 -69 -95 -69c-47 0 -82 43 -71 115l50 315c12 76 41 125 98 125h1c50 0 72 -42 85 -68l10 61h122l-97 -612c-8 -57 -37 -121 -153 -121h-17c-104 0 -132 48 -124 107l10 63h118l-7 -44c-3 -15 0 -25 19 -25h4c19 0 24 11 27 28zM167 126
l44 277c3 19 -1 34 -20 34s-24 -13 -27 -33l-44 -278c-3 -17 2 -30 21 -30c16 0 23 13 26 30zM209 563h-3c-64 0 -107 37 -96 110l1 7h83l-1 -6c-4 -23 5 -33 20 -33h1c14 0 23 11 27 33l1 6h81l-1 -8c-9 -73 -56 -109 -113 -109z" />
    <glyph glyph-name="Gdotaccent" unicode="&#x120;" horiz-adv-x="368" 
d="M317 771h-124l20 125h124zM109 -10h-9c-79 0 -116 71 -103 145l70 444c13 91 49 174 163 174h26c127 0 154 -81 138 -173l-13 -80h-126l13 81c4 31 -1 47 -28 47c-24 0 -33 -15 -38 -47l-65 -411c-5 -34 4 -51 29 -51s39 15 44 46l26 161h-49l21 125h172l-71 -451h-77
c0 15 -4 51 -11 71c-13 -29 -55 -81 -112 -81z" />
    <glyph glyph-name="gdotaccent" unicode="&#x121;" horiz-adv-x="332" 
d="M137 -66l20 125c-19 -35 -50 -69 -95 -69c-47 0 -82 43 -71 115l50 315c12 76 41 125 98 125h1c50 0 72 -42 85 -68l10 61h122l-97 -612c-8 -57 -37 -121 -153 -121h-17c-104 0 -132 48 -124 107l10 63h118l-7 -44c-3 -15 0 -25 19 -25h4c19 0 24 11 27 28zM167 126
l44 277c3 19 -1 34 -20 34s-24 -13 -27 -33l-44 -278c-3 -17 2 -30 21 -30c16 0 23 13 26 30zM295 690l-20 -126h-124l20 126h124z" />
    <glyph glyph-name="uni0122" unicode="&#x122;" horiz-adv-x="368" 
d="M109 -10h-9c-79 0 -116 71 -103 145l70 444c13 91 49 174 163 174h26c127 0 154 -81 138 -173l-13 -80h-126l13 81c4 31 -1 47 -28 47c-24 0 -33 -15 -38 -47l-65 -411c-5 -34 4 -51 29 -51s39 15 44 46l26 161h-49l21 125h172l-71 -451h-77c0 15 -4 51 -11 71
c-13 -29 -55 -81 -112 -81zM148 -203h-53c8 17 18 48 22 67h-43l17 110h102l-11 -70c-9 -60 -27 -94 -34 -107z" />
    <glyph glyph-name="uni0123" unicode="&#x123;" horiz-adv-x="332" 
d="M137 -66l20 125c-19 -35 -50 -69 -95 -69c-47 0 -82 43 -71 115l50 315c12 76 41 125 98 125h1c50 0 72 -42 85 -68l10 61h122l-97 -612c-8 -57 -37 -121 -153 -121h-17c-104 0 -132 48 -124 107l10 63h118l-7 -44c-3 -15 0 -25 19 -25h4c19 0 24 11 27 28zM167 126
l44 277c3 19 -1 34 -20 34s-24 -13 -27 -33l-44 -278c-3 -17 2 -30 21 -30c16 0 23 13 26 30zM197 741h53c-8 -17 -18 -48 -22 -67h43l-17 -110h-102l11 68c11 60 27 96 34 109z" />
    <glyph glyph-name="Hcircumflex" unicode="&#x124;" horiz-adv-x="368" 
d="M157 314l-50 -314h-129l118 744h129l-45 -284h69l45 284h129l-118 -744h-129l50 314h-69zM221 885h100l51 -115h-86l-22 47l-30 -47h-89z" />
    <glyph glyph-name="hcircumflex" unicode="&#x125;" horiz-adv-x="333" 
d="M-25 0l118 744h123l-42 -268c23 31 55 64 98 64h7c59 0 70 -57 65 -93l-71 -447h-125l62 392c3 23 -2 36 -21 36s-25 -13 -28 -36l-62 -392h-124zM188 885h100l51 -115h-86l-22 47l-30 -47h-89z" />
    <glyph glyph-name="Hbar" unicode="&#x126;" horiz-adv-x="370" 
d="M42 550l16 101h375l-16 -101h-375zM158 314l-50 -314h-129l118 744h129l-45 -284h69l45 284h129l-118 -744h-129l50 314h-69z" />
    <glyph glyph-name="hbar" unicode="&#x127;" horiz-adv-x="333" 
d="M35 583l15 91h230l-15 -91h-230zM-25 0l118 744h123l-42 -268c23 31 55 64 98 64h7c59 0 70 -57 65 -93l-71 -447h-125l62 392c3 23 -2 36 -21 36s-25 -13 -28 -36l-62 -392h-124z" />
    <glyph glyph-name="Itilde" unicode="&#x128;" horiz-adv-x="170" 
d="M225 744l-118 -744h-129l118 744h129zM211 864l3 19h72l-9 -57c-7 -39 -27 -55 -54 -55c-23 0 -36 6 -61 19c-11 7 -15 9 -22 9c-5 0 -8 -4 -9 -11l-3 -19h-71l7 44c7 46 25 69 56 69c20 0 33 -6 60 -18c11 -5 16 -8 23 -8c5 0 7 3 8 8z" />
    <glyph glyph-name="itilde" unicode="&#x129;" horiz-adv-x="159" 
d="M170 659l3 19h65l-9 -57c-6 -39 -21 -58 -46 -58c-19 0 -30 5 -53 20c-11 7 -14 10 -21 10c-5 0 -8 -4 -9 -11l-3 -19h-65l7 44c7 45 18 71 49 71c17 0 29 -6 52 -19c11 -7 15 -9 22 -9c4 0 7 3 8 9zM184 538l-85 -538h-124l85 538h124z" />
    <glyph glyph-name="Imacron" unicode="&#x12a;" horiz-adv-x="170" 
d="M225 744l-118 -744h-129l118 744h129zM71 777l14 88h189l-14 -88h-189z" />
    <glyph glyph-name="imacron" unicode="&#x12b;" horiz-adv-x="159" 
d="M46 576l14 88h164l-14 -88h-164zM184 538l-85 -538h-124l85 538h124z" />
    <glyph glyph-name="Ibreve" unicode="&#x12c;" horiz-adv-x="170" 
d="M225 744l-118 -744h-129l118 744h129zM167 767h-4c-65 0 -104 39 -96 108h81c-3 -17 5 -30 21 -30h1c16 0 26 11 26 30h83c-3 -69 -48 -108 -112 -108z" />
    <glyph glyph-name="ibreve" unicode="&#x12d;" horiz-adv-x="159" 
d="M139 563h-4c-68 0 -97 37 -88 93l4 24h77l-3 -19c-2 -13 3 -20 15 -20c10 0 16 7 18 21l3 18h77l-4 -26c-8 -51 -35 -91 -95 -91zM184 538l-85 -538h-124l85 538h124z" />
    <glyph glyph-name="Iogonek" unicode="&#x12e;" horiz-adv-x="170" 
d="M225 744l-118 -744h-129l118 744h129zM77 -188h-49c-51 0 -77 27 -70 70l2 13c7 37 42 73 86 105h61c-40 -40 -56 -70 -56 -90c0 -13 8 -19 23 -19h15z" />
    <glyph glyph-name="iogonek" unicode="&#x12f;" horiz-adv-x="159" 
d="M184 538l-85 -538h-124l85 538h124zM208 690l-20 -126h-124l20 126h124zM69 -188h-49c-51 0 -77 27 -70 70l2 13c7 37 42 73 86 105h61c-40 -40 -56 -70 -56 -90c0 -13 8 -19 23 -19h15z" />
    <glyph glyph-name="Idotaccent" unicode="&#x130;" horiz-adv-x="170" 
d="M225 744l-118 -744h-129l118 744h129zM225 770h-124l20 126h124z" />
    <glyph glyph-name="IJ" unicode="&#x132;" horiz-adv-x="513" 
d="M225 744l-118 -744h-129l118 744h129zM189 327h126l-27 -170c-3 -23 4 -35 22 -35h2c19 0 26 11 30 35l93 587h134l-94 -593c-16 -104 -60 -159 -151 -159h-44c-84 0 -137 46 -121 146z" />
    <glyph glyph-name="ij" unicode="&#x133;" horiz-adv-x="314" 
d="M184 538l-85 -538h-124l85 538h124zM208 690l-20 -126h-124l20 126h124zM50 -69h51c16 0 18 7 21 20l93 587h124l-103 -653c-7 -45 -33 -73 -82 -73h-123zM363 690l-20 -126h-124l20 126h124z" />
    <glyph glyph-name="Jcircumflex" unicode="&#x134;" horiz-adv-x="347" 
d="M23 327h126l-27 -170c-3 -23 4 -35 22 -35h2c19 0 26 11 30 35l93 587h134l-94 -593c-16 -104 -60 -159 -151 -159h-44c-84 0 -137 46 -121 146zM297 885h100l51 -115h-86l-22 47l-30 -47h-89z" />
    <glyph glyph-name="jcircumflex" unicode="&#x135;" horiz-adv-x="159" 
d="M199 697l25 -134h-80l-6 64l-29 -64h-81l67 134h104zM-105 -69h51c16 0 18 7 21 20l93 587h124l-103 -653c-7 -45 -33 -73 -82 -73h-123z" />
    <glyph glyph-name="uni0136" unicode="&#x136;" horiz-adv-x="367" 
d="M180 460l126 284h131l-153 -343l46 -401h-136l-36 322l-51 -322h-129l118 744h129zM154 -203h-53c8 17 18 48 22 67h-43l17 110h102l-11 -70c-9 -60 -27 -94 -34 -107z" />
    <glyph glyph-name="uni0137" unicode="&#x137;" horiz-adv-x="335" 
d="M155 355l98 183h122l-126 -234l48 -304h-125l-35 240l-38 -240h-124l118 744h124zM134 -203h-53c8 17 18 48 22 67h-43l17 110h102l-11 -70c-9 -60 -27 -94 -34 -107z" />
    <glyph glyph-name="Lacute" unicode="&#x139;" horiz-adv-x="296" 
d="M96 744h129l-97 -610h138l-22 -134h-266zM112 770l56 115h108l-59 -115h-105z" />
    <glyph glyph-name="lacute" unicode="&#x13a;" horiz-adv-x="159" 
d="M217 744l-118 -744h-124l118 744h124zM108 770l56 115h108l-59 -115h-105z" />
    <glyph glyph-name="uni013B" unicode="&#x13b;" horiz-adv-x="296" 
d="M96 744h129l-97 -610h138l-22 -134h-266zM115 -203h-53c8 17 18 48 22 67h-43l17 110h102l-11 -70c-9 -60 -27 -94 -34 -107z" />
    <glyph glyph-name="uni013C" unicode="&#x13c;" horiz-adv-x="159" 
d="M217 744l-118 -744h-124l118 744h124zM41 -203h-53c8 17 18 48 22 67h-43l17 110h102l-11 -70c-9 -60 -27 -94 -34 -107z" />
    <glyph glyph-name="Lcaron" unicode="&#x13d;" horiz-adv-x="296" 
d="M218 594l29 150h88l-35 -150h-82zM96 744h129l-97 -610h138l-22 -134h-266z" />
    <glyph glyph-name="lcaron" unicode="&#x13e;" horiz-adv-x="159" 
d="M217 744l-118 -744h-124l118 744h124zM210 594l29 150h88l-35 -150h-82z" />
    <glyph glyph-name="Ldot" unicode="&#x13f;" horiz-adv-x="301" 
d="M321 458l-23 -144h-115l24 144h114zM96 744h129l-97 -610h138l-22 -134h-266z" />
    <glyph glyph-name="ldot" unicode="&#x140;" horiz-adv-x="286" 
d="M309 458l-24 -144h-115l24 144h115zM217 744l-118 -744h-124l118 744h124z" />
    <glyph glyph-name="Lslash" unicode="&#x141;" horiz-adv-x="311" 
d="M111 744h129l-49 -306l103 66l-17 -107l-103 -64l-31 -199h138l-22 -134h-266l39 245l-37 -23l17 103l36 23z" />
    <glyph glyph-name="lslash" unicode="&#x142;" horiz-adv-x="185" 
d="M179 425l-67 -425h-124l53 337l-30 -19l16 98l30 19l49 309h124l-35 -219l30 19l-16 -100z" />
    <glyph glyph-name="Nacute" unicode="&#x143;" horiz-adv-x="366" 
d="M96 744h121l28 -385l61 385h115l-118 -744h-110l-34 414l-66 -414h-115zM206 770l56 115h108l-59 -115h-105z" />
    <glyph glyph-name="nacute" unicode="&#x144;" horiz-adv-x="333" 
d="M-25 0l85 538h123l-10 -65c23 35 56 67 99 67h7c59 0 70 -57 65 -93l-71 -447h-125l62 392c3 23 -2 36 -21 36s-25 -13 -28 -36l-62 -392h-124zM152 564l60 136h105l-63 -136h-102z" />
    <glyph glyph-name="uni0145" unicode="&#x145;" horiz-adv-x="366" 
d="M96 744h121l28 -385l61 385h115l-118 -744h-110l-34 414l-66 -414h-115zM146 -203h-53c8 17 18 48 22 67h-43l17 110h102l-11 -70c-9 -60 -27 -94 -34 -107z" />
    <glyph glyph-name="uni0146" unicode="&#x146;" horiz-adv-x="333" 
d="M-25 0l85 538h123l-10 -65c23 35 56 67 99 67h7c59 0 70 -57 65 -93l-71 -447h-125l62 392c3 23 -2 36 -21 36s-25 -13 -28 -36l-62 -392h-124zM126 -203h-53c8 17 18 48 22 67h-43l17 110h102l-11 -70c-9 -60 -27 -94 -34 -107z" />
    <glyph glyph-name="Ncaron" unicode="&#x147;" horiz-adv-x="366" 
d="M96 744h121l28 -385l61 385h115l-118 -744h-110l-34 414l-66 -414h-115zM311 770h-100l-52 115h87l22 -48l30 48h89z" />
    <glyph glyph-name="ncaron" unicode="&#x148;" horiz-adv-x="333" 
d="M-25 0l85 538h123l-10 -65c23 35 56 67 99 67h7c59 0 70 -57 65 -93l-71 -447h-125l62 392c3 23 -2 36 -21 36s-25 -13 -28 -36l-62 -392h-124zM158 564l-43 136h86l18 -62l31 62h88l-77 -136h-103z" />
    <glyph glyph-name="napostrophe" unicode="&#x149;" horiz-adv-x="421" 
d="M63 0l85 538h123l-10 -65c23 35 56 67 99 67h7c59 0 70 -57 65 -93l-71 -447h-125l62 392c3 23 -2 36 -21 36s-25 -13 -28 -36l-62 -392h-124zM181 744l-17 -107c-8 -51 -30 -94 -41 -113h-62c11 23 27 61 34 92h-43l21 128h108z" />
    <glyph glyph-name="Eng" unicode="&#x14a;" horiz-adv-x="366" 
d="M102 -192l18 117h37c17 0 25 7 28 27l8 48l-34 414l-66 -414h-115l118 744h121l28 -385l61 385h115l-135 -849c-10 -58 -38 -87 -84 -87h-100z" />
    <glyph glyph-name="eng" unicode="&#x14b;" horiz-adv-x="335" 
d="M345 447l-89 -560c-7 -47 -33 -75 -82 -75h-94l19 119h21c16 0 18 7 21 20l70 441c3 23 -2 36 -21 36s-25 -13 -28 -36l-62 -392h-124l85 538h123l-10 -65c23 35 56 67 99 67h7c59 0 70 -57 65 -93z" />
    <glyph glyph-name="Omacron" unicode="&#x14c;" horiz-adv-x="376" 
d="M241 623c-27 0 -35 -17 -40 -49l-65 -410c-3 -20 2 -42 31 -42c28 0 36 23 39 42l65 410c5 33 -5 49 -30 49zM230 753h27c119 0 165 -76 148 -189l-62 -392c-19 -113 -69 -183 -164 -183h-27c-112 0 -168 71 -149 188l61 386c19 116 58 190 166 190zM171 778l14 88h189
l-14 -88h-189z" />
    <glyph glyph-name="omacron" unicode="&#x14d;" horiz-adv-x="331" 
d="M151 -10h-29c-99 0 -141 66 -128 152l41 255c15 96 57 151 145 151h29c88 0 143 -53 128 -149l-41 -255c-13 -88 -58 -154 -145 -154zM190 437c-20 0 -26 -14 -29 -37l-41 -256c-3 -23 2 -38 22 -38c23 0 26 18 29 38l41 256c3 23 -1 37 -22 37zM118 578l14 87h186
l-14 -87h-186z" />
    <glyph glyph-name="Obreve" unicode="&#x14e;" horiz-adv-x="376" 
d="M241 623c-27 0 -35 -17 -40 -49l-65 -410c-3 -20 2 -42 31 -42c28 0 36 23 39 42l65 410c5 33 -5 49 -30 49zM230 753h27c119 0 165 -76 148 -189l-62 -392c-19 -113 -69 -183 -164 -183h-27c-112 0 -168 71 -149 188l61 386c19 116 58 190 166 190zM265 768h-4
c-65 0 -104 39 -96 108h81c-3 -17 5 -30 21 -30h1c16 0 26 11 26 30h83c-3 -69 -48 -108 -112 -108z" />
    <glyph glyph-name="obreve" unicode="&#x14f;" horiz-adv-x="331" 
d="M151 -10h-29c-99 0 -141 66 -128 152l41 255c15 96 57 151 145 151h29c88 0 143 -53 128 -149l-41 -255c-13 -88 -58 -154 -145 -154zM190 437c-20 0 -26 -14 -29 -37l-41 -256c-3 -23 2 -38 22 -38c23 0 26 18 29 38l41 256c3 23 -1 37 -22 37zM218 565h-3
c-64 0 -107 37 -96 110l1 7h83l-1 -6c-4 -23 5 -33 20 -33h1c14 0 23 11 27 33l1 6h81l-1 -8c-9 -73 -56 -109 -113 -109z" />
    <glyph glyph-name="Ohungarumlaut" unicode="&#x150;" horiz-adv-x="376" 
d="M357 771h-84l45 114h86zM165 771l42 114h87l-44 -114h-85zM241 623c-27 0 -35 -17 -40 -49l-65 -410c-3 -20 2 -42 31 -42c28 0 36 23 39 42l65 410c5 33 -5 49 -30 49zM230 753h27c119 0 165 -76 148 -189l-62 -392c-19 -113 -69 -183 -164 -183h-27
c-112 0 -168 71 -149 188l61 386c19 116 58 190 166 190z" />
    <glyph glyph-name="ohungarumlaut" unicode="&#x151;" horiz-adv-x="331" 
d="M304 566h-84l53 134h84zM114 566l51 134h84l-51 -134h-84zM151 -10h-29c-99 0 -141 66 -128 152l41 255c15 96 57 151 145 151h29c88 0 143 -53 128 -149l-41 -255c-13 -88 -58 -154 -145 -154zM190 437c-20 0 -26 -14 -29 -37l-41 -256c-3 -23 2 -38 22 -38
c23 0 26 18 29 38l41 256c3 23 -1 37 -22 37z" />
    <glyph glyph-name="Racute" unicode="&#x154;" horiz-adv-x="360" 
d="M157 318l-50 -318h-129l118 744h194c80 0 122 -44 109 -124l-19 -119c-9 -60 -39 -89 -74 -100c18 -9 51 -32 43 -88l-40 -252c-5 -31 -2 -44 2 -56l-1 -5h-129c-4 8 -8 26 -3 57l34 214c7 36 -1 47 -28 47h-27zM207 629l-30 -188h28c24 0 36 9 41 44l16 104
c5 27 -4 40 -27 40h-28zM198 770l56 115h108l-59 -115h-105z" />
    <glyph glyph-name="racute" unicode="&#x155;" horiz-adv-x="301" 
d="M184 538l-11 -69c11 24 45 72 93 72h5c40 0 56 -28 49 -72l-30 -189h-115l19 120c3 20 2 29 -13 29c-12 0 -15 -8 -18 -27l-64 -402h-124l85 538h124zM143 564l60 136h105l-63 -136h-102z" />
    <glyph glyph-name="uni0156" unicode="&#x156;" horiz-adv-x="360" 
d="M157 318l-50 -318h-129l118 744h194c80 0 122 -44 109 -124l-19 -119c-9 -60 -39 -89 -74 -100c18 -9 51 -32 43 -88l-40 -252c-5 -31 -2 -44 2 -56l-1 -5h-129c-4 8 -8 26 -3 57l34 214c7 36 -1 47 -28 47h-27zM207 629l-30 -188h28c24 0 36 9 41 44l16 104
c5 27 -4 40 -27 40h-28zM144 -203h-53c8 17 18 48 22 67h-43l17 110h102l-11 -70c-9 -60 -27 -94 -34 -107z" />
    <glyph glyph-name="uni0157" unicode="&#x157;" horiz-adv-x="301" 
d="M184 538l-11 -69c11 24 45 72 93 72h5c40 0 56 -28 49 -72l-30 -189h-115l19 120c3 20 2 29 -13 29c-12 0 -15 -8 -18 -27l-64 -402h-124l85 538h124zM39 -203h-53c8 17 18 48 22 67h-43l17 110h102l-11 -70c-9 -60 -27 -94 -34 -107z" />
    <glyph glyph-name="Rcaron" unicode="&#x158;" horiz-adv-x="360" 
d="M157 318l-50 -318h-129l118 744h194c80 0 122 -44 109 -124l-19 -119c-9 -60 -39 -89 -74 -100c18 -9 51 -32 43 -88l-40 -252c-5 -31 -2 -44 2 -56l-1 -5h-129c-4 8 -8 26 -3 57l34 214c7 36 -1 47 -28 47h-27zM207 629l-30 -188h28c24 0 36 9 41 44l16 104
c5 27 -4 40 -27 40h-28zM297 770h-100l-52 115h87l22 -48l30 48h89z" />
    <glyph glyph-name="rcaron" unicode="&#x159;" horiz-adv-x="301" 
d="M184 538l-11 -69c11 24 45 72 93 72h5c40 0 56 -28 49 -72l-30 -189h-115l19 120c3 20 2 29 -13 29c-12 0 -15 -8 -18 -27l-64 -402h-124l85 538h124zM142 564l-43 136h86l18 -62l31 62h88l-77 -136h-103z" />
    <glyph glyph-name="Sacute" unicode="&#x15a;" horiz-adv-x="356" 
d="M200 771l56 114h108l-59 -114h-105zM158 -9h-29c-95 0 -152 56 -136 160l21 132h128l-19 -121c-5 -32 2 -47 26 -47c21 0 33 15 40 54l4 24c8 48 0 70 -33 122l-39 62c-48 74 -67 129 -54 205l5 31c16 99 66 140 157 140h29c100 0 141 -49 125 -153l-14 -89h-124l14 89
c4 23 -1 39 -25 39c-23 0 -27 -15 -30 -36l-4 -26c-6 -42 1 -53 30 -101l41 -66c51 -83 75 -138 64 -211l-6 -38c-18 -113 -75 -170 -171 -170z" />
    <glyph glyph-name="sacute" unicode="&#x15b;" horiz-adv-x="298" 
d="M145 566l59 134h105l-62 -134h-102zM125 -9h-26c-89 0 -126 54 -114 130l12 75h114l-12 -75c-3 -19 7 -27 20 -27h1c15 0 20 10 23 29l3 19c4 27 -1 40 -22 69l-40 54c-36 49 -55 93 -47 149l3 20c11 72 51 114 131 114h27c93 0 117 -52 109 -108l-11 -67h-108l9 56
c3 19 -3 28 -18 28c-13 0 -20 -9 -23 -27l-2 -13c-3 -19 1 -36 18 -59l40 -54c44 -59 68 -101 59 -164l-3 -19c-11 -69 -47 -130 -143 -130z" />
    <glyph glyph-name="Scircumflex" unicode="&#x15c;" horiz-adv-x="356" 
d="M217 885h100l51 -114h-86l-22 46l-30 -46h-89zM158 -9h-29c-95 0 -152 56 -136 160l21 132h128l-19 -121c-5 -32 2 -47 26 -47c21 0 33 15 40 54l4 24c8 48 0 70 -33 122l-39 62c-48 74 -67 129 -54 205l5 31c16 99 66 140 157 140h29c100 0 141 -49 125 -153l-14 -89
h-124l14 89c4 23 -1 39 -25 39c-23 0 -27 -15 -30 -36l-4 -26c-6 -42 1 -53 30 -101l41 -66c51 -83 75 -138 64 -211l-6 -38c-18 -113 -75 -170 -171 -170z" />
    <glyph glyph-name="scircumflex" unicode="&#x15d;" horiz-adv-x="298" 
d="M260 700l43 -134h-87l-17 60l-31 -60h-88l76 134h104zM125 -9h-26c-89 0 -126 54 -114 130l12 75h114l-12 -75c-3 -19 7 -27 20 -27h1c15 0 20 10 23 29l3 19c4 27 -1 40 -22 69l-40 54c-36 49 -55 93 -47 149l3 20c11 72 51 114 131 114h27c93 0 117 -52 109 -108
l-11 -67h-108l9 56c3 19 -3 28 -18 28c-13 0 -20 -9 -23 -27l-2 -13c-3 -19 1 -36 18 -59l40 -54c44 -59 68 -101 59 -164l-3 -19c-11 -69 -47 -130 -143 -130z" />
    <glyph glyph-name="uni015E" unicode="&#x15e;" horiz-adv-x="356" 
d="M158 -9h-29c-95 0 -152 56 -136 160l21 132h128l-19 -121c-5 -32 2 -47 26 -47c21 0 33 15 40 54l4 24c8 48 0 70 -33 122l-39 62c-48 74 -67 129 -54 205l5 31c16 99 66 140 157 140h29c100 0 141 -49 125 -153l-14 -89h-124l14 89c4 23 -1 39 -25 39
c-23 0 -27 -15 -30 -36l-4 -26c-6 -42 1 -53 30 -101l41 -66c51 -83 75 -138 64 -211l-6 -38c-18 -113 -75 -170 -171 -170zM97 -188h-66l10 63h51c17 0 22 9 22 18c0 10 -6 15 -18 15h-34l15 92h56l-6 -36h2c44 0 69 -22 69 -65c0 -59 -40 -87 -101 -87z" />
    <glyph glyph-name="uni015F" unicode="&#x15f;" horiz-adv-x="298" 
d="M125 -9h-26c-89 0 -126 54 -114 130l12 75h114l-12 -75c-3 -19 7 -27 20 -27h1c15 0 20 10 23 29l3 19c4 27 -1 40 -22 69l-40 54c-36 49 -55 93 -47 149l3 20c11 72 51 114 131 114h27c93 0 117 -52 109 -108l-11 -67h-108l9 56c3 19 -3 28 -18 28c-13 0 -20 -9 -23 -27
l-2 -13c-3 -19 1 -36 18 -59l40 -54c44 -59 68 -101 59 -164l-3 -19c-11 -69 -47 -130 -143 -130zM68 -188h-66l10 63h51c17 0 22 9 22 18c0 10 -6 15 -18 15h-34l15 92h56l-6 -36h2c44 0 69 -22 69 -65c0 -59 -40 -87 -101 -87z" />
    <glyph glyph-name="Scaron" unicode="&#x160;" horiz-adv-x="356" 
d="M158 -9h-29c-95 0 -152 56 -136 160l21 132h128l-19 -121c-5 -32 2 -47 26 -47c21 0 33 15 40 54l4 24c8 48 0 70 -33 122l-39 62c-48 74 -67 129 -54 205l5 31c16 99 66 140 157 140h29c100 0 141 -49 125 -153l-14 -89h-124l14 89c4 23 -1 39 -25 39
c-23 0 -27 -15 -30 -36l-4 -26c-6 -42 1 -53 30 -101l41 -66c51 -83 75 -138 64 -211l-6 -38c-18 -113 -75 -170 -171 -170zM300 771h-100l-52 115h87l22 -48l30 48h89z" />
    <glyph glyph-name="scaron" unicode="&#x161;" horiz-adv-x="298" 
d="M125 -9h-26c-89 0 -126 54 -114 130l12 75h114l-12 -75c-3 -19 7 -27 20 -27h1c15 0 20 10 23 29l3 19c4 27 -1 40 -22 69l-40 54c-36 49 -55 93 -47 149l3 20c11 72 51 114 131 114h27c93 0 117 -52 109 -108l-11 -67h-108l9 56c3 19 -3 28 -18 28c-13 0 -20 -9 -23 -27
l-2 -13c-3 -19 1 -36 18 -59l40 -54c44 -59 68 -101 59 -164l-3 -19c-11 -69 -47 -130 -143 -130zM141 566l-43 136h86l18 -62l31 62h88l-77 -136h-103z" />
    <glyph glyph-name="Tcommaaccent" unicode="&#x162;" horiz-adv-x="331" 
d="M84 744h314l-21 -131h-91l-97 -613h-129l97 613h-94zM129 -203h-53c8 17 18 48 22 67h-43l17 110h102l-11 -70c-9 -60 -27 -94 -34 -107z" />
    <glyph glyph-name="tcommaaccent" unicode="&#x163;" horiz-adv-x="254" 
d="M202 0h-112c-43 0 -66 29 -59 72l56 347h-57l19 119h57l28 178h124l-28 -178h57l-19 -119h-57l-45 -277c-2 -14 4 -21 17 -21h38zM118 -203h-53c8 17 18 48 22 67h-43l17 110h102l-11 -70c-9 -60 -27 -94 -34 -107z" />
    <glyph glyph-name="Tcaron" unicode="&#x164;" horiz-adv-x="331" 
d="M84 744h314l-21 -131h-91l-97 -613h-129l97 613h-94zM294 770h-100l-52 115h87l22 -48l30 48h89z" />
    <glyph glyph-name="tcaron" unicode="&#x165;" horiz-adv-x="254" 
d="M256 594l29 150h88l-35 -150h-82zM202 0h-112c-43 0 -66 29 -59 72l56 347h-57l19 119h57l28 178h124l-28 -178h57l-19 -119h-57l-45 -277c-2 -14 4 -21 17 -21h38z" />
    <glyph glyph-name="Tbar" unicode="&#x166;" horiz-adv-x="331" 
d="M312 349h-263l17 114h263zM84 744h314l-21 -131h-91l-97 -613h-129l97 613h-94z" />
    <glyph glyph-name="tbar" unicode="&#x167;" horiz-adv-x="254" 
d="M202 0h-112c-43 0 -66 29 -59 72l26 163h-56l16 104h57l13 80h-57l19 119h57l28 178h124l-28 -178h57l-19 -119h-57l-13 -80h57l-16 -104h-58l-15 -93c-2 -14 4 -21 17 -21h38z" />
    <glyph glyph-name="Utilde" unicode="&#x168;" horiz-adv-x="368" 
d="M5 177l90 567h133l-91 -576c-4 -28 4 -46 27 -46s31 15 36 46l91 576h133l-90 -567c-21 -133 -69 -188 -165 -188h-29c-99 0 -154 67 -135 188zM314 864l3 19h72l-9 -57c-7 -39 -27 -55 -54 -55c-23 0 -36 6 -61 19c-11 7 -15 9 -22 9c-5 0 -8 -4 -9 -11l-3 -19h-71l7 44
c7 46 25 69 56 69c20 0 33 -6 60 -18c11 -5 16 -8 23 -8c5 0 7 3 8 8z" />
    <glyph glyph-name="utilde" unicode="&#x169;" horiz-adv-x="330" 
d="M355 538l-85 -538h-123l10 65c-20 -33 -57 -67 -98 -67h-7c-56 0 -70 55 -62 99l70 441h125l-62 -392c-4 -24 2 -36 19 -36c19 0 24 13 27 36l62 392h124zM263 659l3 19h71l-9 -57c-7 -39 -26 -58 -53 -58c-23 0 -36 7 -60 20c-11 7 -16 9 -23 9c-5 0 -9 -4 -10 -11
l-3 -18h-71l7 44c7 45 22 71 57 71c21 0 32 -6 59 -19c12 -7 17 -9 24 -9c4 0 7 3 8 9z" />
    <glyph glyph-name="Umacron" unicode="&#x16a;" horiz-adv-x="368" 
d="M5 177l90 567h133l-91 -576c-4 -28 4 -46 27 -46s31 15 36 46l91 576h133l-90 -567c-21 -133 -69 -188 -165 -188h-29c-99 0 -154 67 -135 188zM171 777l14 88h189l-14 -88h-189z" />
    <glyph glyph-name="umacron" unicode="&#x16b;" horiz-adv-x="330" 
d="M355 538l-85 -538h-123l10 65c-20 -33 -57 -67 -98 -67h-7c-56 0 -70 55 -62 99l70 441h125l-62 -392c-4 -24 2 -36 19 -36c19 0 24 13 27 36l62 392h124zM121 576l14 87h186l-14 -87h-186z" />
    <glyph glyph-name="Ubreve" unicode="&#x16c;" horiz-adv-x="368" 
d="M5 177l90 567h133l-91 -576c-4 -28 4 -46 27 -46s31 15 36 46l91 576h133l-90 -567c-21 -133 -69 -188 -165 -188h-29c-99 0 -154 67 -135 188zM268 767h-4c-65 0 -104 39 -96 108h81c-3 -17 5 -30 21 -30h1c16 0 26 11 26 30h83c-3 -69 -48 -108 -112 -108z" />
    <glyph glyph-name="ubreve" unicode="&#x16d;" horiz-adv-x="330" 
d="M355 538l-85 -538h-123l10 65c-20 -33 -57 -67 -98 -67h-7c-56 0 -70 55 -62 99l70 441h125l-62 -392c-4 -24 2 -36 19 -36c19 0 24 13 27 36l62 392h124zM218 563h-3c-64 0 -107 37 -96 110l1 7h83l-1 -6c-4 -23 5 -33 20 -33h1c14 0 23 11 27 33l1 6h81l-1 -8
c-9 -73 -56 -109 -113 -109z" />
    <glyph glyph-name="Uring" unicode="&#x16e;" horiz-adv-x="368" 
d="M5 177l90 567h133l-91 -576c-4 -28 4 -46 27 -46s31 15 36 46l91 576h133l-90 -567c-21 -133 -69 -188 -165 -188h-29c-99 0 -154 67 -135 188zM265 765c-47 0 -80 32 -80 79s33 79 80 79s80 -32 80 -79s-33 -79 -80 -79zM265 811c20 0 32 14 32 33s-12 33 -32 33
s-32 -14 -32 -33s12 -33 32 -33z" />
    <glyph glyph-name="uring" unicode="&#x16f;" horiz-adv-x="330" 
d="M355 538l-85 -538h-123l10 65c-20 -33 -57 -67 -98 -67h-7c-56 0 -70 55 -62 99l70 441h125l-62 -392c-4 -24 2 -36 19 -36c19 0 24 13 27 36l62 392h124zM216 608c20 0 32 14 32 33s-12 33 -32 33s-32 -14 -32 -33s12 -33 32 -33zM216 562c-47 0 -80 32 -80 79
s33 79 80 79s80 -32 80 -79s-33 -79 -80 -79z" />
    <glyph glyph-name="Uhungarumlaut" unicode="&#x170;" horiz-adv-x="368" 
d="M5 177l90 567h133l-91 -576c-4 -28 4 -46 27 -46s31 15 36 46l91 576h133l-90 -567c-21 -133 -69 -188 -165 -188h-29c-99 0 -154 67 -135 188zM359 770h-84l45 115h86zM167 770l42 115h87l-44 -115h-85z" />
    <glyph glyph-name="uhungarumlaut" unicode="&#x171;" horiz-adv-x="330" 
d="M355 538l-85 -538h-123l10 65c-20 -33 -57 -67 -98 -67h-7c-56 0 -70 55 -62 99l70 441h125l-62 -392c-4 -24 2 -36 19 -36c19 0 24 13 27 36l62 392h124zM306 564h-84l53 136h84zM116 564l51 136h84l-51 -136h-84z" />
    <glyph glyph-name="Uogonek" unicode="&#x172;" horiz-adv-x="368" 
d="M245 -2c-40 -36 -60 -65 -60 -88c0 -13 8 -19 23 -19h15l-12 -79h-49c-51 0 -77 27 -70 70l2 13c5 35 33 66 76 94h-1h-29c-99 0 -154 67 -135 188l90 567h133l-91 -576c-4 -28 4 -46 27 -46s31 15 36 46l91 576h133l-90 -567c-18 -111 -49 -144 -89 -179z" />
    <glyph glyph-name="uogonek" unicode="&#x173;" horiz-adv-x="330" 
d="M355 538l-85 -538h-123l10 65c-20 -33 -57 -67 -98 -67h-7c-56 0 -70 55 -62 99l70 441h125l-62 -392c-4 -24 2 -36 19 -36c19 0 24 13 27 36l62 392h124zM240 -188h-49c-51 0 -77 27 -70 70l2 13c7 37 42 73 86 105h61c-40 -40 -56 -70 -56 -90c0 -13 8 -19 23 -19h15z
" />
    <glyph glyph-name="Wcircumflex" unicode="&#x174;" horiz-adv-x="557" 
d="M294 744h123l-24 -476l113 476h128l-203 -744h-151l24 417l-100 -417h-149l18 744h132l-27 -467zM316 885h100l51 -115h-86l-22 47l-30 -47h-89z" />
    <glyph glyph-name="wcircumflex" unicode="&#x175;" horiz-adv-x="485" 
d="M178 0h-135l-2 538h122l-14 -332l83 332h111l-13 -336l83 336h117l-157 -538h-129l6 294zM356 700l43 -136h-87l-17 62l-31 -62h-88l76 136h104z" />
    <glyph glyph-name="Ycircumflex" unicode="&#x176;" horiz-adv-x="322" 
d="M403 744l-168 -444l-47 -300h-130l47 296l-36 448h126l4 -264l86 264h118zM201 885h100l51 -115h-86l-22 47l-30 -47h-89z" />
    <glyph glyph-name="ycircumflex" unicode="&#x177;" horiz-adv-x="308" 
d="M56 9l-15 529h119l-7 -296l76 296h125l-206 -646c-17 -55 -39 -80 -79 -80h-119l19 118h49c19 0 24 10 28 25l6 23c3 11 4 21 4 31zM265 700l43 -136h-87l-17 62l-31 -62h-88l76 136h104z" />
    <glyph glyph-name="Zacute" unicode="&#x179;" horiz-adv-x="323" 
d="M94 744h286l-19 -119l-236 -494h169l-21 -131h-307l19 122l238 494h-149zM180 770l56 115h108l-59 -115h-105z" />
    <glyph glyph-name="zacute" unicode="&#x17a;" horiz-adv-x="266" 
d="M61 538h235l-16 -102l-173 -322h127l-18 -114h-251l18 107l172 319h-112zM125 564l60 136h105l-63 -136h-102z" />
    <glyph glyph-name="Zdotaccent" unicode="&#x17b;" horiz-adv-x="323" 
d="M94 744h286l-19 -119l-236 -494h169l-21 -131h-307l19 122l238 494h-149zM298 770h-124l20 126h124z" />
    <glyph glyph-name="zdotaccent" unicode="&#x17c;" horiz-adv-x="266" 
d="M61 538h235l-16 -102l-173 -322h127l-18 -114h-251l18 107l172 319h-112zM263 690l-20 -126h-124l20 126h124z" />
    <glyph glyph-name="Zcaron" unicode="&#x17d;" horiz-adv-x="323" 
d="M94 744h286l-19 -119l-236 -494h169l-21 -131h-307l19 122l238 494h-149zM286 770h-100l-52 115h87l22 -48l30 48h89z" />
    <glyph glyph-name="zcaron" unicode="&#x17e;" horiz-adv-x="266" 
d="M61 538h235l-16 -102l-173 -322h127l-18 -114h-251l18 107l172 319h-112zM130 564l-43 136h86l18 -62l31 62h88l-77 -136h-103z" />
    <glyph glyph-name="Aringacute" unicode="&#x1fa;" horiz-adv-x="338" 
d="M247 765c-47 0 -80 32 -80 79s33 79 80 79s80 -32 80 -79s-33 -79 -80 -79zM247 811c20 0 32 14 32 33s-12 33 -32 33s-32 -14 -32 -33s12 -33 32 -33zM205 939l56 115h108l-59 -115h-105zM176 0l6 125h-79l-31 -125h-117l209 744h153l-17 -744h-124zM136 253h52l11 251z
" />
    <glyph glyph-name="aringacute" unicode="&#x1fb;" horiz-adv-x="328" 
d="M-14 98l17 108c8 52 24 86 67 109c27 16 96 43 112 51c9 5 11 11 14 23l4 25c4 21 -2 32 -19 32h-3c-16 0 -22 -12 -25 -31l-8 -51h-111l12 74c8 48 29 106 130 106h22c107 0 135 -49 124 -118l-47 -295c-3 -11 -1 -17 14 -17h14l-18 -114h-112c-24 0 -35 13 -28 60
c-14 -22 -49 -65 -96 -65h-2c-48 0 -70 43 -61 103zM128 102c17 0 24 11 27 31l21 131c-12 -7 -28 -15 -36 -23c-11 -11 -15 -21 -18 -42l-10 -62c-3 -19 1 -35 16 -35zM200 608c20 0 32 14 32 33s-12 33 -32 33s-32 -14 -32 -33s12 -33 32 -33zM200 562
c-47 0 -80 32 -80 79s33 79 80 79s80 -32 80 -79s-33 -79 -80 -79zM159 736l60 136h105l-63 -136h-102z" />
    <glyph glyph-name="AEacute" unicode="&#x1fc;" horiz-adv-x="501" 
d="M450 0h-273l20 131h-79l-42 -131h-124l250 744h357l-21 -132h-135l-25 -161h104l-21 -135h-104l-29 -182h143zM159 258h58l56 352zM325 770l56 115h108l-59 -115h-105z" />
    <glyph glyph-name="aeacute" unicode="&#x1fd;" horiz-adv-x="477" 
d="M156 58c-15 -23 -53 -63 -101 -63h-3c-51 0 -76 46 -68 91l16 103c9 55 23 84 66 108c27 16 97 42 113 50c11 5 11 12 14 25l7 45c3 19 -4 29 -19 29h-3c-16 0 -22 -10 -25 -29l-12 -72h-110l15 93c8 48 29 106 130 106h22c51 0 68 -16 80 -27c8 9 33 29 74 29h21
c80 0 126 -51 113 -135l-26 -159h-167l-18 -117c-3 -20 1 -33 20 -33c17 0 24 11 28 36l12 77h119l-15 -90c-15 -92 -63 -135 -139 -135h-27c-56 0 -98 21 -117 68zM128 102c17 0 24 11 27 32l18 111c-12 -5 -28 -15 -36 -22c-11 -11 -15 -23 -18 -43l-7 -44
c-3 -21 0 -34 16 -34zM319 413l-11 -65h51l11 65c3 23 0 36 -23 36c-19 0 -24 -13 -28 -36zM228 564l60 136h105l-63 -136h-102z" />
    <glyph glyph-name="Oslashacute" unicode="&#x1fe;" horiz-adv-x="372" 
d="M198 771l56 114h108l-59 -114h-105zM401 564l-62 -394c-17 -108 -68 -181 -167 -181h-26c-39 0 -71 14 -94 31l-11 -20h-69l38 71c-11 27 -15 59 -8 99l62 393c19 115 57 190 164 190h27c44 0 75 -13 96 -30l11 21h69l-38 -74c12 -28 15 -65 8 -106zM166 122
c27 0 36 19 40 42l38 238l-112 -238v-1c-4 -25 7 -41 34 -41zM239 623c-23 0 -37 -16 -42 -49l-37 -230l112 238c2 27 -9 41 -33 41z" />
    <glyph glyph-name="oslashacute" unicode="&#x1ff;" horiz-adv-x="330" 
d="M150 566l59 134h105l-62 -134h-102zM-4 151l39 246c15 96 56 151 144 151h29c39 0 65 -12 82 -27l11 17h64l-39 -63c8 -19 16 -45 9 -81l-40 -253c-13 -83 -57 -151 -144 -151h-29c-35 0 -63 13 -80 28l-11 -18h-65l38 63c-7 19 -15 47 -8 88zM159 397l-21 -130l74 132v1
c3 23 0 37 -23 37c-21 0 -26 -13 -30 -40zM141 106c23 0 27 17 30 36l20 129l-73 -131c-3 -20 3 -34 23 -34z" />
    <glyph glyph-name="uni0218" unicode="&#x218;" horiz-adv-x="356" 
d="M158 -9h-29c-95 0 -152 56 -136 160l21 132h128l-19 -121c-5 -32 2 -47 26 -47c21 0 33 15 40 54l4 24c8 48 0 70 -33 122l-39 62c-48 74 -67 129 -54 205l5 31c16 99 66 140 157 140h29c100 0 141 -49 125 -153l-14 -89h-124l14 89c4 23 -1 39 -25 39
c-23 0 -27 -15 -30 -36l-4 -26c-6 -42 1 -53 30 -101l41 -66c51 -83 75 -138 64 -211l-6 -38c-18 -113 -75 -170 -171 -170zM146 -204h-53c8 17 18 48 22 67h-43l17 110h102l-11 -70c-9 -60 -27 -94 -34 -107z" />
    <glyph glyph-name="uni0219" unicode="&#x219;" horiz-adv-x="298" 
d="M125 -9h-26c-89 0 -126 54 -114 130l12 75h114l-12 -75c-3 -19 7 -27 20 -27h1c15 0 20 10 23 29l3 19c4 27 -1 40 -22 69l-40 54c-36 49 -55 93 -47 149l3 20c11 72 51 114 131 114h27c93 0 117 -52 109 -108l-11 -67h-108l9 56c3 19 -3 28 -18 28c-13 0 -20 -9 -23 -27
l-2 -13c-3 -19 1 -36 18 -59l40 -54c44 -59 68 -101 59 -164l-3 -19c-11 -69 -47 -130 -143 -130zM110 -204h-53c8 17 18 48 22 67h-43l17 110h102l-11 -70c-9 -60 -27 -94 -34 -107z" />
    <glyph glyph-name="uni021A" unicode="&#x21a;" horiz-adv-x="331" 
d="M84 744h314l-21 -131h-91l-97 -613h-129l97 613h-94zM129 -203h-53c8 17 18 48 22 67h-43l17 110h102l-11 -70c-9 -60 -27 -94 -34 -107z" />
    <glyph glyph-name="uni021B" unicode="&#x21b;" horiz-adv-x="254" 
d="M202 0h-112c-43 0 -66 29 -59 72l56 347h-57l19 119h57l28 178h124l-28 -178h57l-19 -119h-57l-45 -277c-2 -14 4 -21 17 -21h38zM118 -203h-53c8 17 18 48 22 67h-43l17 110h102l-11 -70c-9 -60 -27 -94 -34 -107z" />
    <glyph glyph-name="uni0237" unicode="&#x237;" horiz-adv-x="159" 
d="M-105 -69h51c16 0 18 7 21 20l93 587h124l-103 -653c-7 -45 -33 -73 -82 -73h-123z" />
    <glyph glyph-name="Wgrave" unicode="&#x1e80;" horiz-adv-x="557" 
d="M294 744h123l-24 -476l113 476h128l-203 -744h-151l24 417l-100 -417h-149l18 744h132l-27 -467zM388 885l19 -115h-99l-24 115h104z" />
    <glyph glyph-name="wgrave" unicode="&#x1e81;" horiz-adv-x="485" 
d="M178 0h-135l-2 538h122l-14 -332l83 332h111l-13 -336l83 336h117l-157 -538h-129l6 294zM317 700l20 -136h-96l-22 136h98z" />
    <glyph glyph-name="Wacute" unicode="&#x1e82;" horiz-adv-x="557" 
d="M294 744h123l-24 -476l113 476h128l-203 -744h-151l24 417l-100 -417h-149l18 744h132l-27 -467zM307 770l56 115h108l-59 -115h-105z" />
    <glyph glyph-name="wacute" unicode="&#x1e83;" horiz-adv-x="485" 
d="M178 0h-135l-2 538h122l-14 -332l83 332h111l-13 -336l83 336h117l-157 -538h-129l6 294zM240 564l60 136h105l-63 -136h-102z" />
    <glyph glyph-name="Wdieresis" unicode="&#x1e84;" horiz-adv-x="557" 
d="M294 744h123l-24 -476l113 476h128l-203 -744h-151l24 417l-100 -417h-149l18 744h132l-27 -467zM466 770h-97l17 106h97zM344 770h-97l17 106h97z" />
    <glyph glyph-name="wdieresis" unicode="&#x1e85;" horiz-adv-x="485" 
d="M178 0h-135l-2 538h122l-14 -332l83 332h111l-13 -336l83 336h117l-157 -538h-129l6 294zM397 564h-97l17 106h97zM293 670l-17 -106h-97l17 106h97z" />
    <glyph glyph-name="Ygrave" unicode="&#x1ef2;" horiz-adv-x="322" 
d="M403 744l-168 -444l-47 -300h-130l47 296l-36 448h126l4 -264l86 264h118zM271 885l19 -115h-99l-24 115h104z" />
    <glyph glyph-name="ygrave" unicode="&#x1ef3;" horiz-adv-x="308" 
d="M56 9l-15 529h119l-7 -296l76 296h125l-206 -646c-17 -55 -39 -80 -79 -80h-119l19 118h49c19 0 24 10 28 25l6 23c3 11 4 21 4 31zM228 700l20 -136h-96l-22 136h98z" />
    <glyph glyph-name="uni2009" unicode="&#x2009;" horiz-adv-x="12" 
 />
    <glyph glyph-name="uni2032" unicode="&#x2032;" horiz-adv-x="122" 
d="M190 744l-46 -191h-91l47 191h90z" />
    <glyph glyph-name="uni2033" unicode="&#x2033;" horiz-adv-x="229" 
d="M188 744l-46 -191h-89l47 191h88zM297 744l-48 -191h-89l48 191h89z" />
    <glyph glyph-name="published" unicode="&#x2117;" horiz-adv-x="557" 
d="M301 -11h-10c-149 0 -237 77 -237 255v258c0 167 89 253 238 253h12c149 0 231 -82 231 -253v-258c0 -180 -99 -255 -234 -255zM293 56h8c115 0 158 80 158 203v230c0 115 -39 199 -156 199h-10c-119 0 -161 -72 -161 -199v-230c0 -128 46 -203 161 -203zM331 312h-44
v-192h-103v506h147c63 0 94 -23 94 -100v-112c0 -72 -31 -102 -94 -102zM287 542v-146h15c16 0 21 10 21 30v88c0 21 -5 28 -21 28h-15z" />
    <glyph glyph-name="onethird" unicode="&#x2153;" horiz-adv-x="408" 
d="M110 637h-43l11 67c41 0 51 17 58 40h72l-54 -340h-81zM347 744h75l-376 -744h-75zM281 228h-75l5 36c7 52 28 84 91 84h12c56 0 87 -25 78 -82l-3 -21c-5 -35 -22 -50 -39 -55c15 -7 32 -23 27 -58l-8 -51c-9 -51 -33 -86 -96 -86h-13c-70 0 -88 37 -80 79l8 51h79
l-8 -46c-1 -8 0 -17 11 -17s12 8 13 17l7 49c3 12 0 15 -8 15h-39l12 69h36c11 0 11 3 14 16l7 38c2 12 -2 18 -11 18c-11 0 -11 -6 -14 -18z" />
    <glyph glyph-name="twothirds" unicode="&#x2154;" horiz-adv-x="481" 
d="M421 744h75l-376 -744h-75zM229 402h-200l7 43c8 44 22 64 99 136c33 30 36 42 41 68l2 13c2 15 -2 22 -11 22c-11 0 -12 -6 -15 -22l-8 -50h-77l11 63c5 34 20 75 91 75h14c64 0 88 -32 81 -80l-4 -19c-8 -51 -25 -76 -79 -117c-60 -44 -65 -53 -68 -64h55l9 50h72z
M354 228h-75l5 36c7 52 28 84 91 84h12c56 0 87 -25 78 -82l-3 -21c-5 -35 -22 -50 -39 -55c15 -7 32 -23 27 -58l-8 -51c-9 -51 -33 -86 -96 -86h-13c-70 0 -88 37 -80 79l8 51h79l-8 -46c-1 -8 0 -17 11 -17s12 8 13 17l7 49c3 12 0 15 -8 15h-39l12 69h36
c11 0 11 3 14 16l7 38c2 12 -2 18 -11 18c-11 0 -11 -6 -14 -18z" />
    <glyph glyph-name="oneeighth" unicode="&#x215b;" horiz-adv-x="412" 
d="M110 637h-43l11 67c41 0 51 17 58 40h72l-54 -340h-81zM348 744h75l-376 -744h-75zM398 270l-4 -28c-5 -37 -21 -53 -38 -60c16 -8 30 -30 23 -63l-6 -40c-8 -48 -34 -84 -98 -84h-8c-68 0 -93 34 -85 85l6 41c5 27 18 50 42 61c-12 11 -24 28 -20 59l4 28
c9 53 34 79 94 79h9c60 0 89 -26 81 -78zM312 228l6 39c2 11 -1 16 -10 16c-7 0 -11 -5 -13 -16l-7 -39c-2 -11 2 -17 11 -17c7 0 11 6 13 17zM290 81l8 47c2 13 -2 20 -11 20c-11 0 -12 -5 -15 -20l-8 -47c-2 -11 2 -17 11 -17c11 0 12 6 15 17z" />
    <glyph glyph-name="threeeighths" unicode="&#x215c;" horiz-adv-x="463" 
d="M146 630h-75l5 36c7 52 28 84 91 84h12c56 0 87 -25 78 -82l-3 -21c-5 -35 -22 -50 -39 -55c15 -7 32 -23 27 -58l-8 -51c-9 -51 -33 -86 -96 -86h-13c-70 0 -88 37 -80 79l8 51h79l-8 -46c-1 -8 0 -17 11 -17s12 8 13 17l7 49c3 12 0 15 -8 15h-39l12 69h36
c11 0 11 3 14 16l7 38c2 12 -2 18 -11 18c-11 0 -11 -6 -14 -18zM399 744h75l-376 -744h-75zM449 270l-4 -28c-5 -37 -21 -53 -38 -60c16 -8 30 -30 23 -63l-6 -40c-8 -48 -34 -84 -98 -84h-8c-68 0 -93 34 -85 85l6 41c5 27 18 50 42 61c-12 11 -24 28 -20 59l4 28
c9 53 34 79 94 79h9c60 0 89 -26 81 -78zM363 228l6 39c2 11 -1 16 -10 16c-7 0 -11 -5 -13 -16l-7 -39c-2 -11 2 -17 11 -17c7 0 11 6 13 17zM341 81l8 47c2 13 -2 20 -11 20c-11 0 -12 -5 -15 -20l-8 -47c-2 -11 2 -17 11 -17c11 0 12 6 15 17z" />
    <glyph glyph-name="fiveeighths" unicode="&#x215d;" horiz-adv-x="462" 
d="M398 744h75l-376 -744h-75zM135 545h-76l32 199h175l-12 -71h-100l-9 -61c8 13 29 37 60 37h2c32 0 48 -26 43 -65l-14 -93c-9 -60 -36 -94 -96 -94h-14c-67 0 -89 37 -81 82l6 40h82l-7 -41c-1 -8 1 -15 10 -15c8 0 12 7 13 15l13 83c2 12 -1 18 -10 18
c-8 0 -11 -7 -14 -18zM448 270l-4 -28c-5 -37 -21 -53 -38 -60c16 -8 30 -30 23 -63l-6 -40c-8 -48 -34 -84 -98 -84h-8c-68 0 -93 34 -85 85l6 41c5 27 18 50 42 61c-12 11 -24 28 -20 59l4 28c9 53 34 79 94 79h9c60 0 89 -26 81 -78zM362 228l6 39c2 11 -1 16 -10 16
c-7 0 -11 -5 -13 -16l-7 -39c-2 -11 2 -17 11 -17c7 0 11 6 13 17zM340 81l8 47c2 13 -2 20 -11 20c-11 0 -12 -5 -15 -20l-8 -47c-2 -11 2 -17 11 -17c11 0 12 6 15 17z" />
    <glyph glyph-name="seveneighths" unicode="&#x215e;" horiz-adv-x="430" 
d="M366 744h75l-376 -744h-75zM86 744h175l-5 -36c-5 -25 -25 -74 -48 -147c-21 -65 -28 -98 -36 -158h-95c11 59 16 85 49 150c37 72 53 102 57 129h-35l-10 -59h-72zM416 270l-4 -28c-5 -37 -21 -53 -38 -60c16 -8 30 -30 23 -63l-6 -40c-8 -48 -34 -84 -98 -84h-8
c-68 0 -93 34 -85 85l6 41c5 27 18 50 42 61c-12 11 -24 28 -20 59l4 28c9 53 34 79 94 79h9c60 0 89 -26 81 -78zM330 228l6 39c2 11 -1 16 -10 16c-7 0 -11 -5 -13 -16l-7 -39c-2 -11 2 -17 11 -17c7 0 11 6 13 17zM308 81l8 47c2 13 -2 20 -11 20c-11 0 -12 -5 -15 -20
l-8 -47c-2 -11 2 -17 11 -17c11 0 12 6 15 17z" />
    <glyph glyph-name="minus" unicode="&#x2212;" horiz-adv-x="312" 
d="M27 346h283l-14 -91h-283z" />
    <glyph glyph-name="E.alt" unicode="&#xe484;" horiz-adv-x="303" 
d="M96 744h265l-20 -131h-136l-26 -162h130l-22 -134h-130l-29 -183h141l-22 -134h-269z" />
    <glyph glyph-name="F.alt" unicode="&#xe485;" horiz-adv-x="298" 
d="M96 744h264l-21 -130h-134l-26 -162h129l-22 -134h-129l-50 -318h-129z" />
    <glyph glyph-name="J.alt" unicode="&#xe489;" horiz-adv-x="235" 
d="M-34 0l22 133h55c13 0 16 10 19 25l93 586h135l-104 -657c-9 -58 -36 -87 -83 -87h-137z" />
    <glyph glyph-name="a.alt" unicode="&#xe4c0;" horiz-adv-x="314" 
d="M145 60c-14 -22 -49 -65 -96 -65h-2c-48 0 -70 43 -61 103l17 108c8 52 24 86 67 109c27 16 96 43 112 51c9 5 11 11 14 23l4 25c4 21 -2 32 -19 32h-3c-16 0 -22 -12 -25 -31l-8 -51h-111l12 74c8 48 29 106 130 106h22c107 0 135 -49 124 -118l-49 -308
c-13 -88 -10 -99 -7 -113l-1 -5h-117c-4 8 -8 25 -3 60zM128 102c17 0 24 11 27 31l21 131c-12 -7 -28 -15 -36 -23c-11 -11 -15 -21 -18 -42l-10 -62c-3 -19 1 -35 16 -35z" />
    <glyph glyph-name="r.alt" unicode="&#xe4d1;" horiz-adv-x="265" 
d="M183 538l-12 -80c25 55 55 84 92 84h7c11 0 24 -3 28 -4l-23 -146c-8 3 -26 9 -53 9h-4c-44 0 -58 -16 -62 -41l-57 -360h-124l85 538h123z" />
    </font>
</defs>
</svg>
