<svg xmlns="http://www.w3.org/2000/svg" width="122" height="28.094" viewBox="0 0 122 28.094"><defs><style>.a{fill:#fff;}</style></defs><path class="a" d="M474.784,870.226h23.857a.281.281,0,0,1,.281.281v4.644a.281.281,0,0,1-.281.281H482.209a.281.281,0,0,0-.281.281v5.409a.281.281,0,0,0,.281.281h15.36a.282.282,0,0,1,.281.281v4.644a.281.281,0,0,1-.281.281h-15.36a.281.281,0,0,0-.281.281v10.385a.281.281,0,0,1-.281.281h-6.863a.281.281,0,0,1-.281-.281V870.507A.281.281,0,0,1,474.784,870.226Z" transform="translate(-474.503 -870.226)"/><path class="a" d="M515.105,870.226h6.175a.281.281,0,0,1,.281.281v26.766a.281.281,0,0,1-.281.281h-6.175a.281.281,0,0,1-.28-.281V870.507A.281.281,0,0,1,515.105,870.226Z" transform="translate(-488.721 -870.226)"/><path class="a" d="M553.737,894.725a.283.283,0,0,1,.26.394c-2.042,4.577-6.624,6.5-12.617,6.5-8.114,0-13.55-3.291-13.55-11.023s5.435-11.023,13.55-11.023c8.879,0,13.166,4.478,13.166,12.21v.331a.281.281,0,0,1-.281.281H534.8v.076c0,1.952,1.99,4.938,6.583,4.938,2.645,0,4.528-.87,5.509-2.539a.277.277,0,0,1,.239-.14Zm-6.156-6.315v-.077c0-1.11-1.417-4.554-6.354-4.554-5.32,0-6.43,4.057-6.43,4.554v.077Z" transform="translate(-493.308 -873.52)"/><path class="a" d="M579.119,894.725a.278.278,0,0,1,.239.14c.981,1.669,2.864,2.539,5.509,2.539,4.593,0,6.583-2.986,6.583-4.938v-.076H571.981a.281.281,0,0,1-.281-.281v-.331c0-7.732,4.287-12.21,13.167-12.21,8.114,0,13.549,3.291,13.549,11.023s-5.435,11.023-13.549,11.023c-5.993,0-10.574-1.918-12.617-6.5a.282.282,0,0,1,.26-.394Zm12.331-6.315v-.077c0-.5-1.11-4.554-6.43-4.554-4.937,0-6.353,3.444-6.353,4.554v.077Z" transform="translate(-508.777 -873.52)"/><path class="a" d="M615.851,870.226h6.174a.281.281,0,0,1,.281.281v13.576a.281.281,0,0,0,.464.213l8.375-7.189a.283.283,0,0,1,.183-.067H639.8a.281.281,0,0,1,.175.5l-8.913,7.131a.28.28,0,0,0-.042.4L640.84,897.1a.281.281,0,0,1-.218.458h-8.19a.28.28,0,0,1-.221-.107l-6.438-8.2a.281.281,0,0,0-.4-.046l-2.966,2.379a.282.282,0,0,0-.1.219v5.479a.281.281,0,0,1-.281.281h-6.174a.281.281,0,0,1-.281-.281V870.507A.281.281,0,0,1,615.851,870.226Z" transform="translate(-524.246 -870.226)"/><g transform="translate(116.816 0.017)"><g transform="translate(1.813 1.413)"><path class="a" d="M658.523,873.986H658.2v.809h-.449v-2.358h.873a.753.753,0,0,1,.819.775.73.73,0,0,1-.448.708l.506.876h-.506Zm-.327-.428h.414a.346.346,0,1,0,0-.691H658.2Z" transform="translate(-657.747 -872.436)"/></g><g transform="translate(0)"><path class="a" d="M657.539,875.437a2.592,2.592,0,1,1,2.592-2.592A2.595,2.595,0,0,1,657.539,875.437Zm0-4.749a2.156,2.156,0,1,0,2.156,2.156A2.159,2.159,0,0,0,657.539,870.689Z" transform="translate(-654.947 -870.253)"/></g></g></svg>