<svg xmlns="http://www.w3.org/2000/svg" width="95.535" height="21.999" viewBox="0 0 95.535 21.999"><defs><style>.a{fill:#2b00ff;}</style></defs><g transform="translate(0)"><path class="a" d="M.22,0H18.9a.22.22,0,0,1,.22.22V3.856a.22.22,0,0,1-.22.22H6.035a.22.22,0,0,0-.22.22V8.532a.22.22,0,0,0,.22.22H18.063a.22.22,0,0,1,.22.22v3.636a.22.22,0,0,1-.22.22H6.035a.22.22,0,0,0-.22.22V21.18a.22.22,0,0,1-.22.22H.22A.22.22,0,0,1,0,21.18V.22A.22.22,0,0,1,.22,0Z"/><path class="a" d="M.22,0H5.055a.22.22,0,0,1,.22.22V21.18a.22.22,0,0,1-.22.22H.22A.22.22,0,0,1,0,21.18V.22A.22.22,0,0,1,.22,0Z" transform="translate(20.441)"/><path class="a" d="M20.286,11.869a.221.221,0,0,1,.2.308c-1.6,3.584-5.187,5.086-9.88,5.086C4.256,17.264,0,14.686,0,8.632S4.256,0,10.61,0c6.953,0,10.31,3.507,10.31,9.561v.26a.22.22,0,0,1-.22.22H5.455v.06c0,1.528,1.558,3.866,5.155,3.866,2.071,0,3.546-.681,4.314-1.988a.217.217,0,0,1,.187-.11ZM15.466,6.924v-.06c0-.869-1.109-3.566-4.976-3.566-4.166,0-5.035,3.177-5.035,3.566v.06Z" transform="translate(27.034 4.736)"/><path class="a" d="M5.81,11.869a.218.218,0,0,1,.187.11c.768,1.307,2.243,1.988,4.314,1.988,3.6,0,5.155-2.338,5.155-3.866v-.06H.22A.22.22,0,0,1,0,9.821v-.26C0,3.507,3.357,0,10.311,0c6.354,0,10.61,2.577,10.61,8.632s-4.256,8.632-10.61,8.632c-4.693,0-8.281-1.5-9.88-5.086a.221.221,0,0,1,.2-.308Zm9.656-4.945v-.06c0-.389-.869-3.566-5.036-3.566-3.866,0-4.975,2.7-4.975,3.566v.06Z" transform="translate(49.274 4.736)"/><path class="a" d="M.22,0H5.055a.22.22,0,0,1,.22.22V10.851a.22.22,0,0,0,.363.167L12.2,5.388a.222.222,0,0,1,.143-.053h6.634a.22.22,0,0,1,.137.391l-6.98,5.584a.219.219,0,0,0-.033.311l7.689,9.42a.22.22,0,0,1-.17.359H13.2a.219.219,0,0,1-.173-.084L7.99,14.892a.22.22,0,0,0-.311-.036L5.357,16.719a.221.221,0,0,0-.082.171v4.29a.22.22,0,0,1-.22.22H.22A.22.22,0,0,1,0,21.18V.22A.22.22,0,0,1,.22,0Z" transform="translate(71.513)"/><g transform="translate(91.475 0.014)"><g transform="translate(1.419 1.107)"><g transform="translate(0)"><path class="a" d="M.607,1.214H.351v.633H0V0H.683a.59.59,0,0,1,.641.607.572.572,0,0,1-.351.554l.4.686h-.4ZM.351.879H.676A.264.264,0,0,0,.961.607.262.262,0,0,0,.676.338H.351Z" transform="translate(0)"/></g></g><g transform="translate(0)"><path class="a" d="M2.03,4.06A2.03,2.03,0,1,1,4.06,2.03,2.032,2.032,0,0,1,2.03,4.06Zm0-3.718A1.689,1.689,0,1,0,3.718,2.03,1.69,1.69,0,0,0,2.03.341Z"/></g></g></g></svg>