<svg xmlns="http://www.w3.org/2000/svg" width="38.527" height="205.757" viewBox="0 0 38.527 205.757"><defs><style>.a,.b{fill:#fff;}.b{stroke:#fff;stroke-linecap:round;stroke-linejoin:round;}</style></defs><g transform="translate(-480.166 384.756) rotate(-90)"><g transform="translate(178.999 480.166)"><path class="a" d="M179.377,480.166h32.037a.377.377,0,0,1,.377.377v6.236a.377.377,0,0,1-.377.377H189.348a.377.377,0,0,0-.378.377V494.8a.377.377,0,0,0,.378.378h20.626a.377.377,0,0,1,.378.377v6.235a.377.377,0,0,1-.378.378H189.348a.377.377,0,0,0-.378.377v13.945a.377.377,0,0,1-.377.378h-9.217a.378.378,0,0,1-.378-.378V480.543A.377.377,0,0,1,179.377,480.166Z" transform="translate(-178.999 -480.166)"/><g transform="translate(35.053)"><path class="a" d="M261.824,480.166h8.291a.377.377,0,0,1,.377.377v35.944a.377.377,0,0,1-.377.378h-8.291a.377.377,0,0,1-.377-.378V480.543A.377.377,0,0,1,261.824,480.166Z" transform="translate(-261.447 -480.166)"/></g><g transform="translate(46.36 8.121)"><path class="a" d="M322.83,519.621a.38.38,0,0,1,.349.529c-2.743,6.146-8.895,8.722-16.942,8.722-10.9,0-18.2-4.42-18.2-14.8s7.3-14.8,18.2-14.8c11.924,0,17.681,6.013,17.681,16.4v.445a.377.377,0,0,1-.378.377H297.4v.1c0,2.621,2.673,6.63,8.84,6.63,3.551,0,6.081-1.168,7.4-3.41a.372.372,0,0,1,.321-.187Zm-8.267-8.481v-.1c0-1.491-1.9-6.116-8.532-6.116-7.144,0-8.634,5.448-8.634,6.116v.1Z" transform="translate(-288.042 -499.267)"/></g><g transform="translate(84.196 7.819)"><path class="b" d="M395.017,528.765c-8.789,0-14.582-2.994-17.218-8.9a.672.672,0,0,1,.051-.641.68.68,0,0,1,.573-.312H387.3a.678.678,0,0,1,.581.336c1.254,2.133,3.722,3.261,7.138,3.261,5.743,0,8.405-3.519,8.534-6.131H377.714a.679.679,0,0,1-.679-.679v-.445c0-10.924,6.218-16.7,17.982-16.7,11.928,0,18.5,5.364,18.5,15.1S406.945,528.765,395.017,528.765Zm-16.593-9.251a.079.079,0,0,0-.067.037.068.068,0,0,0-.007.067c2.531,5.669,8.138,8.543,16.667,8.543,14.789,0,17.894-7.885,17.894-14.5s-3.1-14.5-17.894-14.5c-11.37,0-17.38,5.566-17.38,16.1v.445a.076.076,0,0,0,.076.076h26.445v.4c0,2.878-2.836,6.931-9.142,6.931-3.641,0-6.289-1.23-7.658-3.559a.072.072,0,0,0-.061-.039Zm25.735-8.481H386.39v-.4c0-1.713,2.093-6.417,8.833-6.417,7.27,0,8.936,5.576,8.936,6.417Zm-17.157-.6h16.513c-.246-1.019-1.752-5.617-8.292-5.617C389.193,504.815,387.154,508.744,387,510.431Z" transform="translate(-377.035 -498.558)"/></g><g transform="translate(122.635)"><path class="a" d="M467.822,480.166h8.291a.377.377,0,0,1,.377.377v18.231a.377.377,0,0,0,.623.286l11.247-9.654a.376.376,0,0,1,.246-.091h11.377a.377.377,0,0,1,.236.672l-11.969,9.575a.378.378,0,0,0-.057.533l13.185,16.153a.377.377,0,0,1-.292.616h-11a.378.378,0,0,1-.3-.145L481.147,505.7a.377.377,0,0,0-.533-.061l-3.982,3.194a.377.377,0,0,0-.141.294v7.357a.377.377,0,0,1-.377.378h-8.291a.377.377,0,0,1-.377-.378V480.543A.377.377,0,0,1,467.822,480.166Z" transform="translate(-467.445 -480.166)"/></g><g transform="translate(156.867 0.024)"><g transform="translate(2.434 1.897)"><path class="a" d="M554.728,486.765h-.439v1.086h-.6v-3.167h1.172a1.012,1.012,0,0,1,1.1,1.041.98.98,0,0,1-.6.95l.679,1.176h-.679Zm-.439-.575h.557a.464.464,0,1,0,0-.927h-.557Z" transform="translate(-553.687 -484.683)"/></g><path class="a" d="M551.442,487.183a3.481,3.481,0,1,1,3.481-3.481A3.484,3.484,0,0,1,551.442,487.183Zm0-6.376a2.9,2.9,0,1,0,2.9,2.9A2.9,2.9,0,0,0,551.442,480.807Z" transform="translate(-547.962 -480.222)"/></g></g><g transform="translate(342.828 496.1)"><g transform="translate(0 2.471)"><path class="a" d="M564.337,523.456h1.432l1.513,4.585h.023l1.455-4.585h1.363l-2.136,5.97h-1.478Z" transform="translate(-564.337 -523.456)"/></g><g transform="translate(6.662 0.196)"><path class="a" d="M580.006,518.1h1.316v1.247h-1.316Zm0,2.275h1.316v5.97h-1.316Z" transform="translate(-580.006 -518.105)"/></g><g transform="translate(9.132 2.31)"><path class="a" d="M591.14,527.879c0,.323.069.45.312.45a1.83,1.83,0,0,0,.323-.023v.912a3.309,3.309,0,0,1-.832.15c-.531,0-.912-.185-1.016-.727a3.06,3.06,0,0,1-2.067.727,1.815,1.815,0,0,1-2.044-1.744c0-1.49,1.19-1.732,2.3-1.859.947-.174,1.79-.069,1.79-.843,0-.681-.7-.809-1.235-.809-.739,0-1.259.3-1.317.947h-1.316c.092-1.536,1.4-1.986,2.714-1.986,1.166,0,2.39.473,2.39,1.732Zm-1.316-1.662a4.724,4.724,0,0,1-1.617.358c-.566.092-1.074.3-1.074.993,0,.589.751.762,1.212.762.577,0,1.478-.3,1.478-1.131Z" transform="translate(-585.817 -523.076)"/></g><g transform="translate(14.974 0.196)"><path class="a" d="M600.539,520.38h1.316v6.478c0,1.19-.474,1.859-1.709,1.859a3.953,3.953,0,0,1-.589-.046v-1.039a3.744,3.744,0,0,0,.45.046c.485,0,.531-.289.531-.878Zm0-2.275h1.316v1.247h-1.316Z" transform="translate(-599.557 -518.105)"/></g><g transform="translate(18.426)"><path class="a" d="M613,524.756c0,.324.069.45.312.45a1.835,1.835,0,0,0,.324-.023v.912a3.312,3.312,0,0,1-.832.15c-.531,0-.912-.185-1.016-.727a3.06,3.06,0,0,1-2.067.727,1.815,1.815,0,0,1-2.044-1.744c0-1.49,1.189-1.732,2.3-1.859.947-.173,1.79-.069,1.79-.843,0-.681-.7-.809-1.235-.809-.739,0-1.259.3-1.317.947H607.9c.092-1.536,1.4-1.986,2.714-1.986,1.166,0,2.39.473,2.39,1.732Zm-1.317-1.662a4.721,4.721,0,0,1-1.616.358c-.566.092-1.074.3-1.074.993,0,.589.751.762,1.213.762.577,0,1.478-.3,1.478-1.131Zm-.993-5.451h1.559l-1.639,1.651h-.959Z" transform="translate(-607.677 -517.643)"/></g><g transform="translate(0 12.648)"><path class="a" d="M570.25,555.636H569v-.808h-.023a1.982,1.982,0,0,1-1.848.97c-1.882,0-2.795-1.4-2.795-3.187,0-2.159,1.282-3.106,2.587-3.106a2.3,2.3,0,0,1,1.986.935h.023v-3.049h1.317Zm-2.945-.878c1.178,0,1.674-1.073,1.674-2.113,0-1.317-.635-2.1-1.651-2.1-1.236,0-1.674,1.1-1.674,2.171C565.654,553.742,566.162,554.758,567.305,554.758Z" transform="translate(-564.337 -547.391)"/><g transform="translate(7.424)"><path class="a" d="M581.8,547.391h1.316v1.247H581.8Zm0,2.275h1.316v5.97H581.8Z" transform="translate(-581.798 -547.391)"/></g><g transform="translate(9.894 2.113)"><path class="a" d="M588.925,556.577c.069.762.647,1.039,1.351,1.039.5,0,1.363-.1,1.328-.785s-.993-.773-1.951-.993-1.917-.554-1.917-1.767c0-1.3,1.409-1.709,2.494-1.709,1.224,0,2.333.508,2.494,1.836H591.35c-.116-.623-.635-.8-1.213-.8-.381,0-1.085.093-1.085.612,0,.647.97.739,1.94.959s1.929.566,1.929,1.744c0,1.42-1.432,1.94-2.667,1.94-1.5,0-2.621-.67-2.644-2.079Z" transform="translate(-587.609 -552.362)"/></g><g transform="translate(15.655 0.485)"><path class="a" d="M601.159,550.321h.993v-1.79h1.316v1.79h1.19v.982h-1.19v3.187c0,.543.046.82.635.82a2.244,2.244,0,0,0,.554-.046v1.016c-.289.023-.566.069-.855.069-1.374,0-1.628-.531-1.651-1.524V551.3h-.993Z" transform="translate(-601.159 -548.531)"/></g><g transform="translate(20.181)"><path class="a" d="M611.8,547.391h1.316v1.247H611.8Zm0,2.275h1.316v5.97H611.8Z" transform="translate(-611.804 -547.391)"/></g><g transform="translate(22.975 2.113)"><path class="a" d="M618.375,552.524h1.247v.877l.023.023a2.138,2.138,0,0,1,1.859-1.062,1.888,1.888,0,0,1,2.113,2.032v4.1H622.3v-3.753c-.023-.936-.392-1.34-1.166-1.34a1.456,1.456,0,0,0-1.443,1.571v3.522h-1.317Z" transform="translate(-618.375 -552.362)"/></g><g transform="translate(29.048 0.485)"><path class="a" d="M632.659,550.321h.993v-1.79h1.317v1.79h1.189v.982h-1.189v3.187c0,.543.046.82.635.82a2.24,2.24,0,0,0,.554-.046v1.016c-.289.023-.566.069-.855.069-1.374,0-1.628-.531-1.651-1.524V551.3h-.993Z" transform="translate(-632.659 -548.531)"/></g><g transform="translate(33.261 2.113)"><path class="a" d="M642.57,555.5a3.017,3.017,0,1,1,3.014,3.153A2.883,2.883,0,0,1,642.57,555.5Zm4.711,0c0-1.028-.52-2.1-1.7-2.1s-1.7,1.074-1.7,2.1.52,2.113,1.7,2.113S647.281,556.542,647.281,555.5Z" transform="translate(-642.57 -552.362)"/></g><g transform="translate(40.139 6.493)"><path class="a" d="M659.641,562.663a.895.895,0,1,1-.895.883A.915.915,0,0,1,659.641,562.663Z" transform="translate(-658.746 -562.663)"/></g></g><g transform="translate(29.04 4.787)"><rect class="a" width="10.24" height="1.316"/></g></g></g></svg>