<?xml version="1.0" standalone="no"?>
<!DOCTYPE svg PUBLIC "-//W3C//DTD SVG 20010904//EN"
 "http://www.w3.org/TR/2001/REC-SVG-20010904/DTD/svg10.dtd">
<svg version="1.0" xmlns="http://www.w3.org/2000/svg"
 width="244.000000pt" height="244.000000pt" viewBox="0 0 244.000000 244.000000"
 preserveAspectRatio="xMidYMid meet">
<metadata>
Created by potrace 1.11, written by Peter Selinger 2001-2013
</metadata>
<g transform="translate(0.000000,244.000000) scale(0.100000,-0.100000)"
fill="#000000" stroke="none">
<path d="M360 1230 c0 -104 3 -190 8 -191 36 -4 92 -3 93 1 1 3 2 35 3 72 1
37 4 70 7 73 4 3 54 6 113 6 l106 2 0 33 c0 19 -3 35 -7 35 -5 1 -53 3 -108 4
-55 1 -103 3 -107 4 -5 1 -5 26 1 73 1 3 51 6 111 6 61 0 114 3 118 7 4 3 7
20 8 36 l1 29 -173 0 -174 0 0 -190z"/>
<path d="M732 1228 l3 -193 39 2 c21 1 42 6 45 11 3 6 6 90 6 189 l-1 178 -47
3 -47 3 2 -193z"/>
<path d="M1649 1403 c-4 -78 -1 -355 4 -359 3 -4 24 -7 47 -8 39 -2 40 -1 40
31 0 47 0 46 17 66 23 25 39 21 60 -13 9 -16 21 -30 24 -30 4 0 10 -9 14 -19
8 -25 37 -35 95 -34 31 1 44 5 42 13 -2 7 -30 45 -62 85 -33 39 -60 76 -59 81
0 5 27 29 59 54 33 25 60 48 60 51 0 3 -29 6 -64 5 -61 -1 -65 -3 -116 -48
-30 -27 -57 -48 -62 -48 -5 0 -8 42 -7 93 l2 92 -47 3 c-39 3 -46 0 -47 -15z"/>
<path d="M2028 1414 c-8 -8 3 -44 13 -44 13 0 11 17 -2 26 -8 4 -7 9 2 15 8 5
9 9 3 9 -6 0 -13 -3 -16 -6z"/>
<path d="M2066 1395 c4 -8 0 -23 -7 -33 -13 -15 -12 -16 4 -3 19 15 22 36 7
46 -6 3 -7 -1 -4 -10z"/>
<path d="M956 1326 c-70 -22 -106 -72 -106 -148 0 -113 106 -175 250 -145 52
11 110 52 110 77 0 16 -7 18 -51 14 -29 -2 -57 -10 -63 -18 -10 -13 -44 -20
-87 -17 -22 1 -59 35 -59 53 0 13 21 15 131 14 123 -1 132 0 139 19 4 11 5 25
2 30 -4 6 -8 18 -9 28 -5 30 -35 64 -73 82 -43 21 -133 26 -184 11z m142 -73
c42 -26 21 -38 -66 -39 -45 0 -82 1 -82 2 0 17 19 39 44 49 34 15 68 11 104
-12z"/>
<path d="M1356 1324 c-66 -24 -101 -67 -107 -134 l-4 -35 138 1 c146 1 159 -4
116 -45 -31 -29 -75 -31 -123 -7 -22 12 -48 20 -56 20 -8 -1 -25 -2 -37 -3
-46 -2 -13 -52 52 -79 55 -22 156 -17 210 10 43 23 63 48 73 94 17 78 -18 149
-87 176 -42 16 -133 17 -175 2z m107 -53 c21 -1 60 -38 52 -50 -2 -5 -41 -8
-85 -8 -59 1 -80 4 -80 14 0 17 57 52 78 48 10 -2 25 -4 35 -4z"/>
</g>
</svg>
